<svg width="16" height="16" viewBox="0 0 16 16" fill="none" xmlns="http://www.w3.org/2000/svg">
<g clip-path="url(#clip0_1419_1840)">
<path d="M7.988 12.158C6.137 12.158 5.047 10.588 5.047 8.16799V7.83999C5.047 5.43199 6.148 3.84399 8.012 3.84399C9.869 3.84399 10.947 5.41399 10.947 7.83999V8.16799C10.947 10.576 9.846 12.158 7.988 12.158V12.158ZM8 4.95099C6.992 4.95099 6.371 6.04099 6.371 7.84599V8.15599C6.371 9.96599 6.998 11.051 8 11.051C9.002 11.051 9.623 9.96099 9.623 8.15599V7.84599C9.623 6.04599 9.002 4.95099 8 4.95099V4.95099Z" fill="currentColor"/>
<path d="M16 8C16 10.1217 15.1571 12.1566 13.6569 13.6569C12.1566 15.1571 10.1217 16 8 16C5.87827 16 3.84344 15.1571 2.34315 13.6569C0.842855 12.1566 0 10.1217 0 8C0 5.87827 0.842855 3.84344 2.34315 2.34315C3.84344 0.842855 5.87827 0 8 0C10.1217 0 12.1566 0.842855 13.6569 2.34315C15.1571 3.84344 16 5.87827 16 8V8ZM1 8C1 9.85652 1.7375 11.637 3.05025 12.9497C4.36301 14.2625 6.14348 15 8 15C9.85652 15 11.637 14.2625 12.9497 12.9497C14.2625 11.637 15 9.85652 15 8C15 6.14348 14.2625 4.36301 12.9497 3.05025C11.637 1.7375 9.85652 1 8 1C6.14348 1 4.36301 1.7375 3.05025 3.05025C1.7375 4.36301 1 6.14348 1 8V8Z" fill="currentColor"/>
</g>
<defs>
<clipPath id="clip0_1419_1840">
<rect width="16" height="16" fill="white"/>
</clipPath>
</defs>
</svg>
