<svg width="16" height="16" viewBox="0 0 16 16" fill="none" xmlns="http://www.w3.org/2000/svg">
<g clip-path="url(#clip0_1419_1839)">
<path d="M7.99997 4.95093C6.99197 4.95093 6.37097 6.04093 6.37097 7.84593V8.15593C6.37097 9.96593 6.99797 11.0509 7.99997 11.0509C9.00197 11.0509 9.62297 9.96093 9.62297 8.15593V7.84593C9.62297 6.04593 9.00197 4.95093 7.99997 4.95093V4.95093Z" fill="#1B1B1B"/>
<path d="M16 8C16 10.1217 15.1571 12.1566 13.6569 13.6569C12.1566 15.1571 10.1217 16 8 16C5.87827 16 3.84344 15.1571 2.34315 13.6569C0.842855 12.1566 0 10.1217 0 8C0 5.87827 0.842855 3.84344 2.34315 2.34315C3.84344 0.842855 5.87827 0 8 0C10.1217 0 12.1566 0.842855 13.6569 2.34315C15.1571 3.84344 16 5.87827 16 8V8ZM7.988 12.158C9.846 12.158 10.948 10.576 10.948 8.168V7.84C10.948 5.414 9.869 3.844 8.012 3.844C6.148 3.844 5.047 5.432 5.047 7.84V8.168C5.047 10.588 6.137 12.158 7.988 12.158V12.158Z" fill="#1B1B1B"/>
</g>
<defs>
<clipPath id="clip0_1419_1839">
<rect width="16" height="16" fill="white"/>
</clipPath>
</defs>
</svg>
