<svg width="16" height="16" viewBox="0 0 16 16" fill="none" xmlns="http://www.w3.org/2000/svg">
<g clip-path="url(#clip0_1419_1841)">
<path d="M7.99997 4.95093C6.99197 4.95093 6.37097 6.04093 6.37097 7.84593V8.15593C6.37097 9.96593 6.99797 11.0509 7.99997 11.0509C9.00197 11.0509 9.62297 9.96093 9.62297 8.15593V7.84593C9.62297 6.04593 9.00197 4.95093 7.99997 4.95093V4.95093Z" fill="#1B1B1B"/>
<path d="M2 0C1.46957 0 0.960859 0.210714 0.585786 0.585786C0.210714 0.960859 0 1.46957 0 2L0 14C0 14.5304 0.210714 15.0391 0.585786 15.4142C0.960859 15.7893 1.46957 16 2 16H14C14.5304 16 15.0391 15.7893 15.4142 15.4142C15.7893 15.0391 16 14.5304 16 14V2C16 1.46957 15.7893 0.960859 15.4142 0.585786C15.0391 0.210714 14.5304 0 14 0L2 0ZM7.988 12.158C6.137 12.158 5.047 10.588 5.047 8.168V7.84C5.047 5.432 6.148 3.844 8.012 3.844C9.869 3.844 10.947 5.414 10.947 7.84V8.168C10.947 10.576 9.846 12.158 7.988 12.158V12.158Z" fill="#1B1B1B"/>
</g>
<defs>
<clipPath id="clip0_1419_1841">
<rect width="16" height="16" fill="white"/>
</clipPath>
</defs>
</svg>
