<svg width="16" height="16" viewBox="0 0 16 16" fill="none" xmlns="http://www.w3.org/2000/svg">
<g clip-path="url(#clip0_1419_1842)">
<path d="M7.988 12.158C6.137 12.158 5.047 10.588 5.047 8.16799V7.83999C5.047 5.43199 6.148 3.84399 8.012 3.84399C9.869 3.84399 10.947 5.41399 10.947 7.83999V8.16799C10.947 10.576 9.846 12.158 7.988 12.158V12.158ZM8 4.95099C6.992 4.95099 6.371 6.04099 6.371 7.84599V8.15599C6.371 9.96599 6.998 11.051 8 11.051C9.002 11.051 9.623 9.96099 9.623 8.15599V7.84599C9.623 6.04599 9.002 4.95099 8 4.95099V4.95099Z" fill="currentColor"/>
<path d="M0 2C0 1.46957 0.210714 0.960859 0.585786 0.585786C0.960859 0.210714 1.46957 0 2 0L14 0C14.5304 0 15.0391 0.210714 15.4142 0.585786C15.7893 0.960859 16 1.46957 16 2V14C16 14.5304 15.7893 15.0391 15.4142 15.4142C15.0391 15.7893 14.5304 16 14 16H2C1.46957 16 0.960859 15.7893 0.585786 15.4142C0.210714 15.0391 0 14.5304 0 14V2ZM15 2C15 1.73478 14.8946 1.48043 14.7071 1.29289C14.5196 1.10536 14.2652 1 14 1H2C1.73478 1 1.48043 1.10536 1.29289 1.29289C1.10536 1.48043 1 1.73478 1 2V14C1 14.2652 1.10536 14.5196 1.29289 14.7071C1.48043 14.8946 1.73478 15 2 15H14C14.2652 15 14.5196 14.8946 14.7071 14.7071C14.8946 14.5196 15 14.2652 15 14V2Z" fill="currentColor"/>
</g>
<defs>
<clipPath id="clip0_1419_1842">
<rect width="16" height="16" fill="white"/>
</clipPath>
</defs>
</svg>
