<svg width="16" height="16" viewBox="0 0 16 16" fill="none" xmlns="http://www.w3.org/2000/svg">
<path d="M2.873 11.2971V4.14209H1.699L0 5.37909V6.51609L1.64 5.33609H1.7V11.2971H2.874H2.873ZM6.086 6.20709V6.14409C6.086 5.52609 6.526 4.97509 7.282 4.97509C7.958 4.97509 8.456 5.41509 8.456 6.08109C8.456 6.70509 8.036 7.18209 7.649 7.60709L4.99 10.5531V11.2971H9.77V10.3071H6.643V10.2381L8.41 8.25209C9.06 7.52809 9.647 6.92009 9.647 5.98209C9.646 4.84909 8.723 4.00009 7.308 4.00009C5.735 4.00009 4.948 5.06409 4.948 6.15009V6.20709H6.086ZM12.645 8.09009H13.431C14.254 8.09009 14.805 8.57109 14.81 9.26909C14.82 9.97609 14.26 10.4851 13.389 10.4791C12.619 10.4741 12.063 10.0601 12.01 9.52609H10.915C10.957 10.5791 11.853 11.4441 13.379 11.4441C14.857 11.4441 16.021 10.6051 15.999 9.30009C15.979 8.15709 15.077 7.64909 14.448 7.58609V7.52309C14.983 7.43309 15.795 6.86309 15.774 5.84509C15.748 4.79209 14.841 3.99009 13.415 4.00009C11.915 4.00509 11.098 4.88009 11.067 5.89809H12.183C12.215 5.40009 12.681 4.95409 13.389 4.95409C14.092 4.95409 14.595 5.38909 14.595 6.02409C14.6 6.66409 14.091 7.13009 13.395 7.13009H12.645V8.09009Z" fill="currentColor"/>
</svg>
