<svg width="16" height="16" viewBox="0 0 16 16" fill="none" xmlns="http://www.w3.org/2000/svg">
<g clip-path="url(#clip0_1419_1849)">
<path d="M1 8C1 9.85652 1.7375 11.637 3.05025 12.9497C4.36301 14.2625 6.14348 15 8 15C9.85652 15 11.637 14.2625 12.9497 12.9497C14.2625 11.637 15 9.85652 15 8C15 6.14348 14.2625 4.36301 12.9497 3.05025C11.637 1.7375 9.85652 1 8 1C6.14348 1 4.36301 1.7375 3.05025 3.05025C1.7375 4.36301 1 6.14348 1 8V8ZM16 8C16 10.1217 15.1571 12.1566 13.6569 13.6569C12.1566 15.1571 10.1217 16 8 16C5.87827 16 3.84344 15.1571 2.34315 13.6569C0.842855 12.1566 0 10.1217 0 8C0 5.87827 0.842855 3.84344 2.34315 2.34315C3.84344 0.842855 5.87827 0 8 0C10.1217 0 12.1566 0.842855 13.6569 2.34315C15.1571 3.84344 16 5.87827 16 8V8ZM6.646 6.24V6.31H5.375V6.246C5.375 5.033 6.254 3.844 8.012 3.844C9.594 3.844 10.625 4.793 10.625 6.059C10.625 7.061 10.025 7.726 9.338 8.489L9.242 8.596L7.268 10.816V10.893H10.766V12H5.422V11.168L8.392 7.875C8.826 7.4 9.295 6.867 9.295 6.17C9.295 5.426 8.738 4.934 7.982 4.934C7.139 4.934 6.646 5.549 6.646 6.24V6.24Z" fill="#1B1B1B"/>
</g>
<defs>
<clipPath id="clip0_1419_1849">
<rect width="16" height="16" fill="white"/>
</clipPath>
</defs>
</svg>
