<svg width="16" height="16" viewBox="0 0 16 16" fill="none" xmlns="http://www.w3.org/2000/svg">
<g clip-path="url(#clip0_1419_1850)">
<path d="M2 0C1.46957 0 0.960859 0.210714 0.585786 0.585786C0.210714 0.960859 0 1.46957 0 2L0 14C0 14.5304 0.210714 15.0391 0.585786 15.4142C0.960859 15.7893 1.46957 16 2 16H14C14.5304 16 15.0391 15.7893 15.4142 15.4142C15.7893 15.0391 16 14.5304 16 14V2C16 1.46957 15.7893 0.960859 15.4142 0.585786C15.0391 0.210714 14.5304 0 14 0L2 0ZM6.646 6.24V6.31H5.375V6.246C5.375 5.033 6.254 3.844 8.012 3.844C9.594 3.844 10.625 4.793 10.625 6.059C10.625 7.061 10.025 7.726 9.338 8.489L9.242 8.596L7.268 10.816V10.893H10.766V12H5.422V11.168L8.392 7.875C8.826 7.4 9.295 6.867 9.295 6.17C9.295 5.426 8.738 4.934 7.982 4.934C7.139 4.934 6.646 5.549 6.646 6.24V6.24Z" fill="#1B1B1B"/>
</g>
<defs>
<clipPath id="clip0_1419_1850">
<rect width="16" height="16" fill="white"/>
</clipPath>
</defs>
</svg>
