<svg width="16" height="16" viewBox="0 0 16 16" fill="none" xmlns="http://www.w3.org/2000/svg">
<g clip-path="url(#clip0_1419_1851)">
<path d="M6.646 6.23999V6.30999H5.375V6.24599C5.375 5.03299 6.254 3.84399 8.012 3.84399C9.594 3.84399 10.625 4.79299 10.625 6.05899C10.625 7.06099 10.025 7.72599 9.338 8.48899L9.242 8.59599L7.268 10.816V10.893H10.766V12H5.422V11.168L8.392 7.87499C8.826 7.39999 9.295 6.86699 9.295 6.16999C9.295 5.42599 8.738 4.93399 7.982 4.93399C7.139 4.93399 6.646 5.54899 6.646 6.23999V6.23999Z" fill="#1B1B1B"/>
<path d="M0 2C0 1.46957 0.210714 0.960859 0.585786 0.585786C0.960859 0.210714 1.46957 0 2 0L14 0C14.5304 0 15.0391 0.210714 15.4142 0.585786C15.7893 0.960859 16 1.46957 16 2V14C16 14.5304 15.7893 15.0391 15.4142 15.4142C15.0391 15.7893 14.5304 16 14 16H2C1.46957 16 0.960859 15.7893 0.585786 15.4142C0.210714 15.0391 0 14.5304 0 14V2ZM15 2C15 1.73478 14.8946 1.48043 14.7071 1.29289C14.5196 1.10536 14.2652 1 14 1H2C1.73478 1 1.48043 1.10536 1.29289 1.29289C1.10536 1.48043 1 1.73478 1 2V14C1 14.2652 1.10536 14.5196 1.29289 14.7071C1.48043 14.8946 1.73478 15 2 15H14C14.2652 15 14.5196 14.8946 14.7071 14.7071C14.8946 14.5196 15 14.2652 15 14V2Z" fill="#1B1B1B"/>
</g>
<defs>
<clipPath id="clip0_1419_1851">
<rect width="16" height="16" fill="white"/>
</clipPath>
</defs>
</svg>
