<svg width="16" height="16" viewBox="0 0 16 16" fill="none" xmlns="http://www.w3.org/2000/svg">
<g clip-path="url(#clip0_1419_1853)">
<path d="M7.91798 8.41411H7.03898V7.34211H7.87698C8.65698 7.34211 9.22498 6.82011 9.21898 6.10511C9.21898 5.39611 8.65598 4.91011 7.87098 4.91011C7.08098 4.91011 6.55898 5.40811 6.52298 5.96511H5.27498C5.31098 4.82811 6.22498 3.85011 7.89998 3.84411C9.49398 3.83211 10.508 4.72911 10.537 5.90611C10.56 7.04311 9.65198 7.68211 9.05498 7.78111V7.85111C9.75798 7.92111 10.765 8.49111 10.789 9.76811C10.813 11.2271 9.51198 12.1641 7.85898 12.1641C6.15398 12.1641 5.15198 11.1971 5.10498 10.0201H6.32998C6.38898 10.6171 7.00998 11.0801 7.87098 11.0861C8.84398 11.0921 9.47098 10.5231 9.45898 9.73211C9.45298 8.95311 8.83798 8.41411 7.91798 8.41411V8.41411Z" fill="currentColor"/>
<path d="M16 8C16 10.1217 15.1571 12.1566 13.6569 13.6569C12.1566 15.1571 10.1217 16 8 16C5.87827 16 3.84344 15.1571 2.34315 13.6569C0.842855 12.1566 0 10.1217 0 8C0 5.87827 0.842855 3.84344 2.34315 2.34315C3.84344 0.842855 5.87827 0 8 0C10.1217 0 12.1566 0.842855 13.6569 2.34315C15.1571 3.84344 16 5.87827 16 8V8ZM1 8C1 9.85652 1.7375 11.637 3.05025 12.9497C4.36301 14.2625 6.14348 15 8 15C9.85652 15 11.637 14.2625 12.9497 12.9497C14.2625 11.637 15 9.85652 15 8C15 6.14348 14.2625 4.36301 12.9497 3.05025C11.637 1.7375 9.85652 1 8 1C6.14348 1 4.36301 1.7375 3.05025 3.05025C1.7375 4.36301 1 6.14348 1 8V8Z" fill="currentColor"/>
</g>
<defs>
<clipPath id="clip0_1419_1853">
<rect width="16" height="16" fill="white"/>
</clipPath>
</defs>
</svg>
