<svg width="16" height="16" viewBox="0 0 16 16" fill="none" xmlns="http://www.w3.org/2000/svg">
<g clip-path="url(#clip0_1419_1855)">
<path d="M7.91798 8.41411H7.03898V7.34211H7.87698C8.65698 7.34211 9.22498 6.82011 9.21898 6.10511C9.21898 5.39611 8.65598 4.91011 7.87098 4.91011C7.08098 4.91011 6.55898 5.40811 6.52298 5.96511H5.27498C5.31098 4.82811 6.22498 3.85011 7.89998 3.84411C9.49398 3.83211 10.508 4.72911 10.537 5.90611C10.56 7.04311 9.65198 7.68211 9.05498 7.78111V7.85111C9.75798 7.92111 10.765 8.49111 10.789 9.76811C10.813 11.2271 9.51198 12.1641 7.85898 12.1641C6.15398 12.1641 5.15198 11.1971 5.10498 10.0201H6.32998C6.38898 10.6171 7.00998 11.0801 7.87098 11.0861C8.84398 11.0921 9.47098 10.5231 9.45898 9.73211C9.45298 8.95311 8.83798 8.41411 7.91798 8.41411V8.41411Z" fill="currentColor"/>
<path d="M0 2C0 1.46957 0.210714 0.960859 0.585786 0.585786C0.960859 0.210714 1.46957 0 2 0L14 0C14.5304 0 15.0391 0.210714 15.4142 0.585786C15.7893 0.960859 16 1.46957 16 2V14C16 14.5304 15.7893 15.0391 15.4142 15.4142C15.0391 15.7893 14.5304 16 14 16H2C1.46957 16 0.960859 15.7893 0.585786 15.4142C0.210714 15.0391 0 14.5304 0 14V2ZM15 2C15 1.73478 14.8946 1.48043 14.7071 1.29289C14.5196 1.10536 14.2652 1 14 1H2C1.73478 1 1.48043 1.10536 1.29289 1.29289C1.10536 1.48043 1 1.73478 1 2V14C1 14.2652 1.10536 14.5196 1.29289 14.7071C1.48043 14.8946 1.73478 15 2 15H14C14.2652 15 14.5196 14.8946 14.7071 14.7071C14.8946 14.5196 15 14.2652 15 14V2Z" fill="currentColor"/>
</g>
<defs>
<clipPath id="clip0_1419_1855">
<rect width="16" height="16" fill="white"/>
</clipPath>
</defs>
</svg>
