<svg width="16" height="16" viewBox="0 0 16 16" fill="none" xmlns="http://www.w3.org/2000/svg">
<g clip-path="url(#clip0_1419_1854)">
<path d="M2 0C1.46957 0 0.960859 0.210714 0.585786 0.585786C0.210714 0.960859 0 1.46957 0 2L0 14C0 14.5304 0.210714 15.0391 0.585786 15.4142C0.960859 15.7893 1.46957 16 2 16H14C14.5304 16 15.0391 15.7893 15.4142 15.4142C15.7893 15.0391 16 14.5304 16 14V2C16 1.46957 15.7893 0.960859 15.4142 0.585786C15.0391 0.210714 14.5304 0 14 0L2 0ZM7.918 8.414H7.039V7.342H7.877C8.657 7.342 9.225 6.82 9.219 6.105C9.219 5.396 8.656 4.91 7.871 4.91C7.081 4.91 6.559 5.408 6.523 5.965H5.275C5.311 4.828 6.225 3.85 7.9 3.844C9.494 3.832 10.508 4.729 10.537 5.906C10.56 7.043 9.652 7.682 9.055 7.781V7.851C9.758 7.921 10.765 8.491 10.789 9.768C10.813 11.227 9.512 12.164 7.859 12.164C6.154 12.164 5.152 11.197 5.105 10.02H6.33C6.389 10.617 7.01 11.08 7.871 11.086C8.844 11.092 9.471 10.523 9.459 9.732C9.453 8.953 8.838 8.414 7.918 8.414V8.414Z" fill="currentColor"/>
</g>
<defs>
<clipPath id="clip0_1419_1854">
<rect width="16" height="16" fill="white"/>
</clipPath>
</defs>
</svg>
