<svg width="16" height="16" viewBox="0 0 16 16" fill="none" xmlns="http://www.w3.org/2000/svg">
<g clip-path="url(#clip0_1419_1857)">
<path d="M7.51903 5.05695C7.73903 4.70495 7.95803 4.35395 8.17603 4.00195H10.109V9.33395H11.117V10.441H10.11V12H8.85003V10.441H4.97803V9.32195C5.74803 7.89495 6.63403 6.47495 7.52003 5.05695H7.51903ZM6.22503 9.28095V9.33395H8.85003V5.06295H8.78503C7.91803 6.39295 6.99803 7.86895 6.22503 9.28095V9.28095Z" fill="currentColor"/>
<path d="M16 8C16 10.1217 15.1571 12.1566 13.6569 13.6569C12.1566 15.1571 10.1217 16 8 16C5.87827 16 3.84344 15.1571 2.34315 13.6569C0.842855 12.1566 0 10.1217 0 8C0 5.87827 0.842855 3.84344 2.34315 2.34315C3.84344 0.842855 5.87827 0 8 0C10.1217 0 12.1566 0.842855 13.6569 2.34315C15.1571 3.84344 16 5.87827 16 8V8ZM1 8C1 9.85652 1.7375 11.637 3.05025 12.9497C4.36301 14.2625 6.14348 15 8 15C9.85652 15 11.637 14.2625 12.9497 12.9497C14.2625 11.637 15 9.85652 15 8C15 6.14348 14.2625 4.36301 12.9497 3.05025C11.637 1.7375 9.85652 1 8 1C6.14348 1 4.36301 1.7375 3.05025 3.05025C1.7375 4.36301 1 6.14348 1 8V8Z" fill="currentColor"/>
</g>
<defs>
<clipPath id="clip0_1419_1857">
<rect width="16" height="16" fill="white"/>
</clipPath>
</defs>
</svg>
