<svg width="16" height="16" viewBox="0 0 16 16" fill="none" xmlns="http://www.w3.org/2000/svg">
<g clip-path="url(#clip0_1419_1859)">
<path d="M7.51903 5.05695C7.73903 4.70495 7.95803 4.35395 8.17603 4.00195H10.109V9.33395H11.117V10.441H10.11V12H8.85003V10.441H4.97803V9.32195C5.74803 7.89495 6.63403 6.47495 7.52003 5.05695H7.51903ZM6.22503 9.28095V9.33395H8.85003V5.06295H8.78503C7.91803 6.39295 6.99803 7.86895 6.22503 9.28095V9.28095Z" fill="currentColor"/>
<path d="M0 2C0 1.46957 0.210714 0.960859 0.585786 0.585786C0.960859 0.210714 1.46957 0 2 0L14 0C14.5304 0 15.0391 0.210714 15.4142 0.585786C15.7893 0.960859 16 1.46957 16 2V14C16 14.5304 15.7893 15.0391 15.4142 15.4142C15.0391 15.7893 14.5304 16 14 16H2C1.46957 16 0.960859 15.7893 0.585786 15.4142C0.210714 15.0391 0 14.5304 0 14V2ZM15 2C15 1.73478 14.8946 1.48043 14.7071 1.29289C14.5196 1.10536 14.2652 1 14 1H2C1.73478 1 1.48043 1.10536 1.29289 1.29289C1.10536 1.48043 1 1.73478 1 2V14C1 14.2652 1.10536 14.5196 1.29289 14.7071C1.48043 14.8946 1.73478 15 2 15H14C14.2652 15 14.5196 14.8946 14.7071 14.7071C14.8946 14.5196 15 14.2652 15 14V2Z" fill="currentColor"/>
</g>
<defs>
<clipPath id="clip0_1419_1859">
<rect width="16" height="16" fill="white"/>
</clipPath>
</defs>
</svg>
