<svg width="16" height="16" viewBox="0 0 16 16" fill="none" xmlns="http://www.w3.org/2000/svg">
<g clip-path="url(#clip0_1419_1858)">
<path d="M6.22498 9.28099V9.33399H8.84998V5.06299H8.78498C7.91798 6.39299 6.99798 7.86899 6.22498 9.28099V9.28099Z" fill="#1B1B1B"/>
<path d="M2 0C1.46957 0 0.960859 0.210714 0.585786 0.585786C0.210714 0.960859 0 1.46957 0 2L0 14C0 14.5304 0.210714 15.0391 0.585786 15.4142C0.960859 15.7893 1.46957 16 2 16H14C14.5304 16 15.0391 15.7893 15.4142 15.4142C15.7893 15.0391 16 14.5304 16 14V2C16 1.46957 15.7893 0.960859 15.4142 0.585786C15.0391 0.210714 14.5304 0 14 0L2 0ZM7.519 5.057C7.739 4.705 7.958 4.354 8.176 4.002H10.109V9.334H11.117V10.441H10.11V12H8.85V10.441H4.978V9.322C5.748 7.895 6.634 6.475 7.52 5.057H7.519Z" fill="#1B1B1B"/>
</g>
<defs>
<clipPath id="clip0_1419_1858">
<rect width="16" height="16" fill="white"/>
</clipPath>
</defs>
</svg>
