<svg width="16" height="16" viewBox="0 0 16 16" fill="none" xmlns="http://www.w3.org/2000/svg">
<g clip-path="url(#clip0_1419_1861)">
<path d="M1 8C1 6.14348 1.7375 4.36301 3.05025 3.05025C4.36301 1.7375 6.14348 1 8 1C9.85652 1 11.637 1.7375 12.9497 3.05025C14.2625 4.36301 15 6.14348 15 8C15 9.85652 14.2625 11.637 12.9497 12.9497C11.637 14.2625 9.85652 15 8 15C6.14348 15 4.36301 14.2625 3.05025 12.9497C1.7375 11.637 1 9.85652 1 8V8ZM16 8C16 5.87827 15.1571 3.84344 13.6569 2.34315C12.1566 0.842855 10.1217 0 8 0C5.87827 0 3.84344 0.842855 2.34315 2.34315C0.842855 3.84344 0 5.87827 0 8C0 10.1217 0.842855 12.1566 2.34315 13.6569C3.84344 15.1571 5.87827 16 8 16C10.1217 16 12.1566 15.1571 13.6569 13.6569C15.1571 12.1566 16 10.1217 16 8ZM7.994 12.158C6.424 12.158 5.34 11.256 5.275 10.043H6.512C6.652 10.763 7.344 11.074 8.041 11.074C8.832 11.074 9.611 10.477 9.611 9.393C9.611 8.426 8.879 7.823 8.029 7.823C7.262 7.823 6.787 8.273 6.594 8.631H5.445L5.791 4H10.496V5.103H6.875L6.682 7.446H6.746C6.916 7.188 7.461 6.766 8.357 6.766C9.74 6.766 10.918 7.71 10.918 9.351C10.918 11.038 9.734 12.157 7.994 12.157V12.158Z" fill="currentColor"/>
</g>
<defs>
<clipPath id="clip0_1419_1861">
<rect width="16" height="16" fill="white"/>
</clipPath>
</defs>
</svg>
