<svg width="16" height="16" viewBox="0 0 16 16" fill="none" xmlns="http://www.w3.org/2000/svg">
<g clip-path="url(#clip0_1419_1863)">
<path d="M7.99402 12.158C6.42402 12.158 5.34002 11.256 5.27502 10.043H6.51202C6.65202 10.763 7.34402 11.074 8.04102 11.074C8.83202 11.074 9.61102 10.477 9.61102 9.393C9.61102 8.426 8.87902 7.823 8.02902 7.823C7.26202 7.823 6.78702 8.273 6.59402 8.631H5.44502L5.79102 4H10.496V5.103H6.87502L6.68202 7.446H6.74602C6.91602 7.188 7.46102 6.766 8.35702 6.766C9.74002 6.766 10.918 7.71 10.918 9.351C10.918 11.038 9.73402 12.157 7.99402 12.157V12.158Z" fill="#1B1B1B"/>
<path d="M0 2C0 1.46957 0.210714 0.960859 0.585786 0.585786C0.960859 0.210714 1.46957 0 2 0L14 0C14.5304 0 15.0391 0.210714 15.4142 0.585786C15.7893 0.960859 16 1.46957 16 2V14C16 14.5304 15.7893 15.0391 15.4142 15.4142C15.0391 15.7893 14.5304 16 14 16H2C1.46957 16 0.960859 15.7893 0.585786 15.4142C0.210714 15.0391 0 14.5304 0 14V2ZM15 2C15 1.73478 14.8946 1.48043 14.7071 1.29289C14.5196 1.10536 14.2652 1 14 1H2C1.73478 1 1.48043 1.10536 1.29289 1.29289C1.10536 1.48043 1 1.73478 1 2V14C1 14.2652 1.10536 14.5196 1.29289 14.7071C1.48043 14.8946 1.73478 15 2 15H14C14.2652 15 14.5196 14.8946 14.7071 14.7071C14.8946 14.5196 15 14.2652 15 14V2Z" fill="#1B1B1B"/>
</g>
<defs>
<clipPath id="clip0_1419_1863">
<rect width="16" height="16" fill="white"/>
</clipPath>
</defs>
</svg>
