<svg width="16" height="16" viewBox="0 0 16 16" fill="none" xmlns="http://www.w3.org/2000/svg">
<g clip-path="url(#clip0_1419_1862)">
<path d="M2 0C1.46957 0 0.960859 0.210714 0.585786 0.585786C0.210714 0.960859 0 1.46957 0 2L0 14C0 14.5304 0.210714 15.0391 0.585786 15.4142C0.960859 15.7893 1.46957 16 2 16H14C14.5304 16 15.0391 15.7893 15.4142 15.4142C15.7893 15.0391 16 14.5304 16 14V2C16 1.46957 15.7893 0.960859 15.4142 0.585786C15.0391 0.210714 14.5304 0 14 0L2 0ZM7.994 12.158C6.424 12.158 5.34 11.256 5.275 10.043H6.512C6.652 10.763 7.344 11.074 8.041 11.074C8.832 11.074 9.611 10.477 9.611 9.393C9.611 8.426 8.879 7.823 8.029 7.823C7.262 7.823 6.787 8.273 6.594 8.631H5.445L5.791 4H10.496V5.103H6.875L6.682 7.446H6.746C6.916 7.188 7.461 6.766 8.357 6.766C9.74 6.766 10.918 7.71 10.918 9.351C10.918 11.038 9.734 12.157 7.994 12.157V12.158Z" fill="#1B1B1B"/>
</g>
<defs>
<clipPath id="clip0_1419_1862">
<rect width="16" height="16" fill="white"/>
</clipPath>
</defs>
</svg>
