<svg width="16" height="16" viewBox="0 0 16 16" fill="none" xmlns="http://www.w3.org/2000/svg">
<g clip-path="url(#clip0_1419_1865)">
<path d="M1 8C1 9.85652 1.7375 11.637 3.05025 12.9497C4.36301 14.2625 6.14348 15 8 15C9.85652 15 11.637 14.2625 12.9497 12.9497C14.2625 11.637 15 9.85652 15 8C15 6.14348 14.2625 4.36301 12.9497 3.05025C11.637 1.7375 9.85652 1 8 1C6.14348 1 4.36301 1.7375 3.05025 3.05025C1.7375 4.36301 1 6.14348 1 8V8ZM16 8C16 10.1217 15.1571 12.1566 13.6569 13.6569C12.1566 15.1571 10.1217 16 8 16C5.87827 16 3.84344 15.1571 2.34315 13.6569C0.842855 12.1566 0 10.1217 0 8C0 5.87827 0.842855 3.84344 2.34315 2.34315C3.84344 0.842855 5.87827 0 8 0C10.1217 0 12.1566 0.842855 13.6569 2.34315C15.1571 3.84344 16 5.87827 16 8V8ZM8.21 3.855C9.822 3.855 10.725 4.845 10.783 5.754H9.494C9.394 5.396 8.984 4.939 8.182 4.939C7.104 4.939 6.365 6.029 6.377 7.975H6.459C6.688 7.43 7.314 6.82 8.439 6.82C9.693 6.82 10.947 7.7 10.947 9.375C10.947 11.145 9.729 12.158 8.1 12.158C7.168 12.158 6.26 11.83 5.691 10.904C5.322 10.301 5.094 9.445 5.094 8.262C5.094 5.25 6.342 3.855 8.211 3.855H8.21ZM8.111 7.863C7.191 7.863 6.547 8.513 6.547 9.439C6.547 10.471 7.25 11.074 8.105 11.074C8.973 11.074 9.658 10.541 9.658 9.445C9.658 8.385 8.914 7.863 8.111 7.863V7.863Z" fill="#1B1B1B"/>
</g>
<defs>
<clipPath id="clip0_1419_1865">
<rect width="16" height="16" fill="white"/>
</clipPath>
</defs>
</svg>
