<svg width="16" height="16" viewBox="0 0 16 16" fill="none" xmlns="http://www.w3.org/2000/svg">
<g clip-path="url(#clip0_1419_1867)">
<path d="M8.20999 3.85498C9.82199 3.85498 10.725 4.84498 10.783 5.75398H9.49399C9.39399 5.39598 8.98399 4.93898 8.18199 4.93898C7.10399 4.93898 6.36499 6.02898 6.37699 7.97498H6.45899C6.68799 7.42998 7.31399 6.81998 8.43899 6.81998C9.69299 6.81998 10.947 7.69998 10.947 9.37498C10.947 11.145 9.72899 12.158 8.09999 12.158C7.16799 12.158 6.25999 11.83 5.69099 10.904C5.32199 10.301 5.09399 9.44498 5.09399 8.26198C5.09399 5.24998 6.34199 3.85498 8.21099 3.85498H8.20999ZM8.11099 7.86298C7.19099 7.86298 6.54699 8.51298 6.54699 9.43898C6.54699 10.471 7.24999 11.074 8.10499 11.074C8.97299 11.074 9.65799 10.541 9.65799 9.44498C9.65799 8.38498 8.91399 7.86298 8.11099 7.86298V7.86298Z" fill="currentColor"/>
<path d="M0 2C0 1.46957 0.210714 0.960859 0.585786 0.585786C0.960859 0.210714 1.46957 0 2 0L14 0C14.5304 0 15.0391 0.210714 15.4142 0.585786C15.7893 0.960859 16 1.46957 16 2V14C16 14.5304 15.7893 15.0391 15.4142 15.4142C15.0391 15.7893 14.5304 16 14 16H2C1.46957 16 0.960859 15.7893 0.585786 15.4142C0.210714 15.0391 0 14.5304 0 14V2ZM15 2C15 1.73478 14.8946 1.48043 14.7071 1.29289C14.5196 1.10536 14.2652 1 14 1H2C1.73478 1 1.48043 1.10536 1.29289 1.29289C1.10536 1.48043 1 1.73478 1 2V14C1 14.2652 1.10536 14.5196 1.29289 14.7071C1.48043 14.8946 1.73478 15 2 15H14C14.2652 15 14.5196 14.8946 14.7071 14.7071C14.8946 14.5196 15 14.2652 15 14V2Z" fill="currentColor"/>
</g>
<defs>
<clipPath id="clip0_1419_1867">
<rect width="16" height="16" fill="white"/>
</clipPath>
</defs>
</svg>
