<svg width="16" height="16" viewBox="0 0 16 16" fill="none" xmlns="http://www.w3.org/2000/svg">
<g clip-path="url(#clip0_1419_1866)">
<path d="M8.111 7.86304C7.191 7.86304 6.547 8.51304 6.547 9.43904C6.547 10.471 7.25 11.074 8.105 11.074C8.973 11.074 9.658 10.541 9.658 9.44504C9.658 8.38504 8.914 7.86304 8.111 7.86304Z" fill="#1B1B1B"/>
<path d="M2 0C1.46957 0 0.960859 0.210714 0.585786 0.585786C0.210714 0.960859 0 1.46957 0 2L0 14C0 14.5304 0.210714 15.0391 0.585786 15.4142C0.960859 15.7893 1.46957 16 2 16H14C14.5304 16 15.0391 15.7893 15.4142 15.4142C15.7893 15.0391 16 14.5304 16 14V2C16 1.46957 15.7893 0.960859 15.4142 0.585786C15.0391 0.210714 14.5304 0 14 0L2 0ZM8.21 3.855C9.822 3.855 10.725 4.845 10.783 5.754H9.494C9.394 5.396 8.984 4.939 8.182 4.939C7.104 4.939 6.365 6.029 6.377 7.975H6.459C6.688 7.43 7.314 6.82 8.439 6.82C9.693 6.82 10.947 7.7 10.947 9.375C10.947 11.145 9.729 12.158 8.1 12.158C7.168 12.158 6.26 11.83 5.691 10.904C5.322 10.301 5.094 9.445 5.094 8.262C5.094 5.25 6.342 3.855 8.211 3.855H8.21Z" fill="#1B1B1B"/>
</g>
<defs>
<clipPath id="clip0_1419_1866">
<rect width="16" height="16" fill="white"/>
</clipPath>
</defs>
</svg>
