<svg width="16" height="16" viewBox="0 0 16 16" fill="none" xmlns="http://www.w3.org/2000/svg">
<g clip-path="url(#clip0_1419_1872)">
<path d="M16 8C16 10.1217 15.1571 12.1566 13.6569 13.6569C12.1566 15.1571 10.1217 16 8 16C5.87827 16 3.84344 15.1571 2.34315 13.6569C0.842855 12.1566 0 10.1217 0 8C0 5.87827 0.842855 3.84344 2.34315 2.34315C3.84344 0.842855 5.87827 0 8 0C10.1217 0 12.1566 0.842855 13.6569 2.34315C15.1571 3.84344 16 5.87827 16 8V8ZM10.97 9.803C10.97 8.555 10.027 7.963 9.324 7.811V7.746C9.922 7.559 10.66 7.026 10.66 5.965C10.66 4.74 9.576 3.844 8.006 3.844C6.436 3.844 5.346 4.74 5.346 5.964C5.346 7.008 6.055 7.553 6.676 7.746V7.811C5.979 7.963 5.029 8.543 5.029 9.814C5.029 11.204 6.219 12.158 7.982 12.158C9.752 12.158 10.971 11.198 10.971 9.803H10.97ZM6.623 6.093C6.623 6.832 7.209 7.348 8.006 7.348C8.803 7.348 9.383 6.832 9.383 6.094C9.383 5.361 8.803 4.864 8.006 4.864C7.209 4.864 6.623 5.361 6.623 6.094V6.093ZM6.342 9.738C6.342 10.576 7.062 11.15 8.006 11.15C8.949 11.15 9.664 10.576 9.664 9.738C9.664 8.895 8.949 8.314 8.006 8.314C7.062 8.314 6.342 8.894 6.342 9.738V9.738Z" fill="currentColor"/>
</g>
<defs>
<clipPath id="clip0_1419_1872">
<rect width="16" height="16" fill="white"/>
</clipPath>
</defs>
</svg>
