<svg width="16" height="16" viewBox="0 0 16 16" fill="none" xmlns="http://www.w3.org/2000/svg">
<g clip-path="url(#clip0_1419_1873)">
<path d="M1 8C1 9.85652 1.7375 11.637 3.05025 12.9497C4.36301 14.2625 6.14348 15 8 15C9.85652 15 11.637 14.2625 12.9497 12.9497C14.2625 11.637 15 9.85652 15 8C15 6.14348 14.2625 4.36301 12.9497 3.05025C11.637 1.7375 9.85652 1 8 1C6.14348 1 4.36301 1.7375 3.05025 3.05025C1.7375 4.36301 1 6.14348 1 8V8ZM16 8C16 10.1217 15.1571 12.1566 13.6569 13.6569C12.1566 15.1571 10.1217 16 8 16C5.87827 16 3.84344 15.1571 2.34315 13.6569C0.842855 12.1566 0 10.1217 0 8C0 5.87827 0.842855 3.84344 2.34315 2.34315C3.84344 0.842855 5.87827 0 8 0C10.1217 0 12.1566 0.842855 13.6569 2.34315C15.1571 3.84344 16 5.87827 16 8V8ZM10.97 9.803C10.97 11.197 9.752 12.158 7.982 12.158C6.219 12.158 5.029 11.203 5.029 9.814C5.029 8.543 5.979 7.963 6.676 7.811V7.746C6.055 7.553 5.346 7.008 5.346 5.965C5.346 4.74 6.436 3.844 8.006 3.844C9.576 3.844 10.66 4.74 10.66 5.964C10.66 7.025 9.922 7.559 9.324 7.746V7.811C10.027 7.963 10.971 8.555 10.971 9.803H10.97ZM6.623 6.093C6.623 6.832 7.209 7.348 8.006 7.348C8.803 7.348 9.383 6.832 9.383 6.094C9.383 5.361 8.803 4.864 8.006 4.864C7.209 4.864 6.623 5.361 6.623 6.094V6.093ZM6.342 9.738C6.342 10.576 7.062 11.15 8.006 11.15C8.949 11.15 9.664 10.576 9.664 9.738C9.664 8.895 8.949 8.314 8.006 8.314C7.062 8.314 6.342 8.894 6.342 9.738V9.738Z" fill="#1B1B1B"/>
</g>
<defs>
<clipPath id="clip0_1419_1873">
<rect width="16" height="16" fill="white"/>
</clipPath>
</defs>
</svg>
