<svg width="16" height="16" viewBox="0 0 16 16" fill="none" xmlns="http://www.w3.org/2000/svg">
<g clip-path="url(#clip0_1419_1874)">
<path d="M6.62304 6.09401C6.62304 6.83201 7.20904 7.34801 8.00604 7.34801C8.80304 7.34801 9.38304 6.83201 9.38304 6.09401C9.38304 5.36101 8.80304 4.86401 8.00604 4.86401C7.20904 4.86401 6.62304 5.36101 6.62304 6.09401V6.09401ZM6.34204 9.73801C6.34204 10.576 7.06204 11.15 8.00604 11.15C8.94904 11.15 9.66404 10.576 9.66404 9.73801C9.66404 8.89501 8.94904 8.31401 8.00604 8.31401C7.06204 8.31401 6.34204 8.89401 6.34204 9.73801Z" fill="currentColor"/>
<path d="M2 0C1.46957 0 0.960859 0.210714 0.585786 0.585786C0.210714 0.960859 0 1.46957 0 2L0 14C0 14.5304 0.210714 15.0391 0.585786 15.4142C0.960859 15.7893 1.46957 16 2 16H14C14.5304 16 15.0391 15.7893 15.4142 15.4142C15.7893 15.0391 16 14.5304 16 14V2C16 1.46957 15.7893 0.960859 15.4142 0.585786C15.0391 0.210714 14.5304 0 14 0L2 0ZM10.97 9.803C10.97 11.197 9.752 12.158 7.982 12.158C6.219 12.158 5.029 11.203 5.029 9.814C5.029 8.543 5.979 7.963 6.676 7.811V7.746C6.055 7.553 5.346 7.008 5.346 5.965C5.346 4.74 6.436 3.844 8.006 3.844C9.576 3.844 10.66 4.74 10.66 5.964C10.66 7.025 9.922 7.559 9.324 7.746V7.811C10.027 7.963 10.971 8.555 10.971 9.803H10.97Z" fill="currentColor"/>
</g>
<defs>
<clipPath id="clip0_1419_1874">
<rect width="16" height="16" fill="white"/>
</clipPath>
</defs>
</svg>
