<svg width="16" height="16" viewBox="0 0 16 16" fill="none" xmlns="http://www.w3.org/2000/svg">
<g clip-path="url(#clip0_1419_1875)">
<path d="M10.9701 9.80299C10.9701 11.197 9.75205 12.158 7.98205 12.158C6.21905 12.158 5.02905 11.203 5.02905 9.81399C5.02905 8.54299 5.97905 7.96299 6.67605 7.81099V7.74599C6.05505 7.55299 5.34605 7.00799 5.34605 5.96499C5.34605 4.73999 6.43605 3.84399 8.00605 3.84399C9.57605 3.84399 10.6601 4.73999 10.6601 5.96399C10.6601 7.02499 9.92205 7.55899 9.32405 7.74599V7.81099C10.0271 7.96299 10.9711 8.55499 10.9711 9.80299H10.9701ZM6.62305 6.09299C6.62305 6.83199 7.20905 7.34799 8.00605 7.34799C8.80305 7.34799 9.38305 6.83199 9.38305 6.09399C9.38305 5.36099 8.80305 4.86399 8.00605 4.86399C7.20905 4.86399 6.62305 5.36099 6.62305 6.09399V6.09299ZM6.34205 9.73799C6.34205 10.576 7.06205 11.15 8.00605 11.15C8.94905 11.15 9.66405 10.576 9.66405 9.73799C9.66405 8.89499 8.94905 8.31399 8.00605 8.31399C7.06205 8.31399 6.34205 8.89399 6.34205 9.73799V9.73799Z" fill="#1B1B1B"/>
<path d="M0 2C0 1.46957 0.210714 0.960859 0.585786 0.585786C0.960859 0.210714 1.46957 0 2 0L14 0C14.5304 0 15.0391 0.210714 15.4142 0.585786C15.7893 0.960859 16 1.46957 16 2V14C16 14.5304 15.7893 15.0391 15.4142 15.4142C15.0391 15.7893 14.5304 16 14 16H2C1.46957 16 0.960859 15.7893 0.585786 15.4142C0.210714 15.0391 0 14.5304 0 14V2ZM15 2C15 1.73478 14.8946 1.48043 14.7071 1.29289C14.5196 1.10536 14.2652 1 14 1H2C1.73478 1 1.48043 1.10536 1.29289 1.29289C1.10536 1.48043 1 1.73478 1 2V14C1 14.2652 1.10536 14.5196 1.29289 14.7071C1.48043 14.8946 1.73478 15 2 15H14C14.2652 15 14.5196 14.8946 14.7071 14.7071C14.8946 14.5196 15 14.2652 15 14V2Z" fill="#1B1B1B"/>
</g>
<defs>
<clipPath id="clip0_1419_1875">
<rect width="16" height="16" fill="white"/>
</clipPath>
</defs>
</svg>
