<svg width="16" height="16" viewBox="0 0 16 16" fill="none" xmlns="http://www.w3.org/2000/svg">
<g clip-path="url(#clip0_1419_1877)">
<path d="M1 8C1 9.85652 1.7375 11.637 3.05025 12.9497C4.36301 14.2625 6.14348 15 8 15C9.85652 15 11.637 14.2625 12.9497 12.9497C14.2625 11.637 15 9.85652 15 8C15 6.14348 14.2625 4.36301 12.9497 3.05025C11.637 1.7375 9.85652 1 8 1C6.14348 1 4.36301 1.7375 3.05025 3.05025C1.7375 4.36301 1 6.14348 1 8V8ZM16 8C16 10.1217 15.1571 12.1566 13.6569 13.6569C12.1566 15.1571 10.1217 16 8 16C5.87827 16 3.84344 15.1571 2.34315 13.6569C0.842855 12.1566 0 10.1217 0 8C0 5.87827 0.842855 3.84344 2.34315 2.34315C3.84344 0.842855 5.87827 0 8 0C10.1217 0 12.1566 0.842855 13.6569 2.34315C15.1571 3.84344 16 5.87827 16 8V8ZM7.777 12.146C6.184 12.146 5.352 11.256 5.257 10.348H6.553C6.653 10.705 7.092 11.068 7.801 11.068C9.161 11.068 9.681 9.715 9.635 8.045H9.559C9.324 8.672 8.686 9.229 7.625 9.229C6.23 9.229 5.059 8.268 5.059 6.563C5.059 4.852 6.301 3.832 7.929 3.832C9.441 3.832 10.9 4.699 10.9 7.846C10.9 10.682 9.88 12.146 7.777 12.146V12.146ZM7.895 8.174C8.703 8.174 9.43 7.646 9.43 6.58C9.43 5.514 8.762 4.904 7.87 4.904C7.032 4.904 6.353 5.52 6.353 6.563C6.353 7.635 7.061 8.173 7.893 8.173L7.895 8.174Z" fill="currentColor"/>
</g>
<defs>
<clipPath id="clip0_1419_1877">
<rect width="16" height="16" fill="white"/>
</clipPath>
</defs>
</svg>
