<svg width="16" height="16" viewBox="0 0 16 16" fill="none" xmlns="http://www.w3.org/2000/svg">
<g clip-path="url(#clip0_1419_1876)">
<path d="M16 8C16 10.1217 15.1571 12.1566 13.6569 13.6569C12.1566 15.1571 10.1217 16 8 16C5.87827 16 3.84344 15.1571 2.34315 13.6569C0.842855 12.1566 0 10.1217 0 8C0 5.87827 0.842855 3.84344 2.34315 2.34315C3.84344 0.842855 5.87827 0 8 0C10.1217 0 12.1566 0.842855 13.6569 2.34315C15.1571 3.84344 16 5.87827 16 8V8ZM7.777 12.146C9.881 12.146 10.9 10.682 10.9 7.846C10.9 4.699 9.441 3.832 7.93 3.832C6.3 3.832 5.059 4.852 5.059 6.562C5.059 8.268 6.23 9.229 7.625 9.229C8.685 9.229 9.325 8.672 9.559 8.045H9.635C9.682 9.715 9.16 11.068 7.801 11.068C7.091 11.068 6.652 10.705 6.553 10.348H5.258C5.352 11.256 6.184 12.146 7.778 12.146H7.777ZM7.895 8.174C8.703 8.174 9.43 7.646 9.43 6.58C9.43 5.514 8.762 4.904 7.87 4.904C7.032 4.904 6.353 5.52 6.353 6.563C6.353 7.635 7.061 8.173 7.893 8.173L7.895 8.174Z" fill="#1B1B1B"/>
</g>
<defs>
<clipPath id="clip0_1419_1876">
<rect width="16" height="16" fill="white"/>
</clipPath>
</defs>
</svg>
