<svg width="16" height="16" viewBox="0 0 16 16" fill="none" xmlns="http://www.w3.org/2000/svg">
<g clip-path="url(#clip0_1419_1879)">
<path d="M7.77696 12.146C6.18396 12.146 5.35196 11.256 5.25696 10.348H6.55296C6.65296 10.705 7.09196 11.068 7.80096 11.068C9.16096 11.068 9.68096 9.71503 9.63496 8.04503H9.55896C9.32396 8.67203 8.68596 9.22903 7.62496 9.22903C6.22996 9.22903 5.05896 8.26803 5.05896 6.56303C5.05896 4.85203 6.30096 3.83203 7.92896 3.83203C9.44096 3.83203 10.9 4.69903 10.9 7.84603C10.9 10.682 9.87996 12.146 7.77696 12.146V12.146ZM7.89496 8.17403C8.70296 8.17403 9.42996 7.64603 9.42996 6.58003C9.42996 5.51403 8.76196 4.90403 7.86996 4.90403C7.03196 4.90403 6.35296 5.52003 6.35296 6.56303C6.35296 7.63503 7.06096 8.17303 7.89296 8.17303L7.89496 8.17403Z" fill="currentColor"/>
<path d="M0 2C0 1.46957 0.210714 0.960859 0.585786 0.585786C0.960859 0.210714 1.46957 0 2 0L14 0C14.5304 0 15.0391 0.210714 15.4142 0.585786C15.7893 0.960859 16 1.46957 16 2V14C16 14.5304 15.7893 15.0391 15.4142 15.4142C15.0391 15.7893 14.5304 16 14 16H2C1.46957 16 0.960859 15.7893 0.585786 15.4142C0.210714 15.0391 0 14.5304 0 14V2ZM15 2C15 1.73478 14.8946 1.48043 14.7071 1.29289C14.5196 1.10536 14.2652 1 14 1H2C1.73478 1 1.48043 1.10536 1.29289 1.29289C1.10536 1.48043 1 1.73478 1 2V14C1 14.2652 1.10536 14.5196 1.29289 14.7071C1.48043 14.8946 1.73478 15 2 15H14C14.2652 15 14.5196 14.8946 14.7071 14.7071C14.8946 14.5196 15 14.2652 15 14V2Z" fill="currentColor"/>
</g>
<defs>
<clipPath id="clip0_1419_1879">
<rect width="16" height="16" fill="white"/>
</clipPath>
</defs>
</svg>
