<svg width="16" height="16" viewBox="0 0 16 16" fill="none" xmlns="http://www.w3.org/2000/svg">
<g clip-path="url(#clip0_1419_1878)">
<path d="M7.89503 8.17405C8.70303 8.17405 9.43003 7.64605 9.43003 6.58005C9.43003 5.51405 8.76203 4.90405 7.87003 4.90405C7.03203 4.90405 6.35303 5.52005 6.35303 6.56305C6.35303 7.63505 7.06103 8.17305 7.89303 8.17305L7.89503 8.17405Z" fill="#1B1B1B"/>
<path d="M2 0C1.46957 0 0.960859 0.210714 0.585786 0.585786C0.210714 0.960859 0 1.46957 0 2L0 14C0 14.5304 0.210714 15.0391 0.585786 15.4142C0.960859 15.7893 1.46957 16 2 16H14C14.5304 16 15.0391 15.7893 15.4142 15.4142C15.7893 15.0391 16 14.5304 16 14V2C16 1.46957 15.7893 0.960859 15.4142 0.585786C15.0391 0.210714 14.5304 0 14 0L2 0ZM7.777 12.146C6.184 12.146 5.352 11.256 5.257 10.348H6.553C6.653 10.705 7.092 11.068 7.801 11.068C9.161 11.068 9.681 9.715 9.635 8.045H9.559C9.324 8.672 8.686 9.229 7.625 9.229C6.23 9.229 5.059 8.268 5.059 6.563C5.059 4.852 6.301 3.832 7.929 3.832C9.441 3.832 10.9 4.699 10.9 7.846C10.9 10.682 9.88 12.146 7.777 12.146V12.146Z" fill="#1B1B1B"/>
</g>
<defs>
<clipPath id="clip0_1419_1878">
<rect width="16" height="16" fill="white"/>
</clipPath>
</defs>
</svg>
