<svg width="16" height="16" viewBox="0 0 16 16" fill="none" xmlns="http://www.w3.org/2000/svg">
<g clip-path="url(#clip0_1419_590)">
<path d="M6.428 1.151C6.708 0.591 7.213 0 8 0C8.787 0 9.292 0.592 9.572 1.151C9.861 1.73 10 2.431 10 3V6.691L15.17 9.276C15.4194 9.40049 15.6291 9.592 15.7757 9.82904C15.9223 10.0661 16 10.3393 16 10.618V12C16 12.0726 15.9841 12.1443 15.9536 12.2101C15.9231 12.276 15.8786 12.3344 15.8232 12.3813C15.7678 12.4282 15.7029 12.4625 15.6329 12.4818C15.5629 12.5011 15.4896 12.5049 15.418 12.493L9.911 11.575L9.536 13.828L10.854 15.146C10.9241 15.2159 10.9719 15.3051 10.9912 15.4022C11.0106 15.4993 11.0007 15.6 10.9628 15.6915C10.9249 15.7829 10.8606 15.8611 10.7783 15.916C10.6959 15.9709 10.599 16.0002 10.5 16H5.5C5.40098 16.0002 5.30414 15.9709 5.22175 15.916C5.13936 15.8611 5.07513 15.7829 5.03722 15.6915C4.9993 15.6 4.9894 15.4993 5.00876 15.4022C5.02813 15.3051 5.07589 15.2159 5.146 15.146L6.465 13.828L6.089 11.575L0.582 12.493C0.510403 12.5049 0.437073 12.5011 0.367104 12.4818C0.297135 12.4625 0.232204 12.4282 0.176823 12.3813C0.121442 12.3344 0.0769381 12.276 0.0464029 12.2101C0.0158677 12.1443 3.341e-05 12.0726 0 12L0 10.618C9.41502e-06 10.3393 0.0776726 10.0661 0.224278 9.82904C0.370884 9.592 0.580633 9.40049 0.83 9.276L6 6.691V3C6 2.432 6.14 1.729 6.428 1.151ZM7.322 1.599C7.111 2.02 7 2.569 7 3V7C7 7.09278 6.97418 7.18373 6.92544 7.26267C6.87669 7.34161 6.80695 7.40544 6.724 7.447L1.276 10.171C1.19305 10.2126 1.12331 10.2764 1.07456 10.3553C1.02582 10.4343 1 10.5252 1 10.618V11.41L6.418 10.507C6.5486 10.4853 6.68247 10.5163 6.79026 10.5931C6.89805 10.67 6.97096 10.7865 6.993 10.917L7.493 13.917C7.50625 13.9957 7.50045 14.0765 7.47609 14.1525C7.45174 14.2285 7.40953 14.2976 7.353 14.354L6.708 15H9.294L8.647 14.354C8.59062 14.2977 8.5485 14.2288 8.52415 14.153C8.4998 14.0771 8.49392 13.9966 8.507 13.918L9.007 10.918C9.01779 10.8532 9.04126 10.7911 9.07605 10.7354C9.11085 10.6796 9.1563 10.6313 9.20979 10.5931C9.26329 10.5549 9.32379 10.5277 9.38783 10.5129C9.45187 10.4981 9.51819 10.4961 9.583 10.507L15 11.41V10.618C15 10.5252 14.9742 10.4343 14.9254 10.3553C14.8767 10.2764 14.8069 10.2126 14.724 10.171L9.276 7.447C9.19305 7.40544 9.12331 7.34161 9.07456 7.26267C9.02582 7.18373 9 7.09278 9 7V3C9 2.568 8.89 2.021 8.678 1.599C8.458 1.159 8.213 1 8 1C7.787 1 7.542 1.158 7.322 1.599Z" fill="currentColor"/>
</g>
<defs>
<clipPath id="clip0_1419_590">
<rect width="16" height="16" fill="white"/>
</clipPath>
</defs>
</svg>
