<svg width="16" height="16" viewBox="0 0 16 16" fill="none" xmlns="http://www.w3.org/2000/svg">
<g clip-path="url(#clip0_1419_588)">
<path d="M8 0C7.213 0 6.708 0.592 6.428 1.151C6.15089 1.72829 6.00474 2.35967 6 3V6.691L4 7.691V7.5C4 7.36739 3.94732 7.24021 3.85355 7.14645C3.75979 7.05268 3.63261 7 3.5 7H2.5C2.36739 7 2.24021 7.05268 2.14645 7.14645C2.05268 7.24021 2 7.36739 2 7.5V8.691L0.83 9.276C0.580633 9.40049 0.370884 9.592 0.224278 9.82904C0.0776726 10.0661 9.41502e-06 10.3393 0 10.618L0 12C3.341e-05 12.0726 0.0158677 12.1443 0.0464029 12.2101C0.0769381 12.276 0.121442 12.3344 0.176823 12.3813C0.232204 12.4282 0.297135 12.4625 0.367104 12.4818C0.437073 12.5011 0.510403 12.5049 0.582 12.493L2.213 12.221L2.526 13.158C2.55934 13.2573 2.62303 13.3436 2.70808 13.4048C2.79313 13.466 2.89524 13.4989 3 13.4989C3.10476 13.4989 3.20687 13.466 3.29192 13.4048C3.37697 13.3436 3.44066 13.2573 3.474 13.158L3.879 11.944L6.089 11.575L6.464 13.828L5.146 15.146C5.07589 15.2159 5.02813 15.3051 5.00876 15.4022C4.9894 15.4993 4.9993 15.6 5.03722 15.6915C5.07513 15.7829 5.13936 15.8611 5.22175 15.916C5.30414 15.9709 5.40098 16.0002 5.5 16H10.5C10.599 16.0002 10.6959 15.9709 10.7783 15.916C10.8606 15.8611 10.9249 15.7829 10.9628 15.6915C11.0007 15.6 11.0106 15.4993 10.9912 15.4022C10.9719 15.3051 10.9241 15.2159 10.854 15.146L9.536 13.828L9.911 11.575L12.121 11.944L12.526 13.158C12.5593 13.2573 12.623 13.3436 12.7081 13.4048C12.7931 13.466 12.8952 13.4989 13 13.4989C13.1048 13.4989 13.2069 13.466 13.2919 13.4048C13.377 13.3436 13.4407 13.2573 13.474 13.158L13.787 12.221L15.417 12.493C15.4887 12.5051 15.5621 12.5014 15.6322 12.4821C15.7023 12.4629 15.7674 12.4287 15.8229 12.3817C15.8784 12.3348 15.9229 12.2763 15.9535 12.2104C15.9841 12.1445 16 12.0727 16 12V10.618C16 10.3393 15.9223 10.0661 15.7757 9.82904C15.6291 9.592 15.4194 9.40049 15.17 9.276L14 8.691V7.5C14 7.36739 13.9473 7.24021 13.8536 7.14645C13.7598 7.05268 13.6326 7 13.5 7H12.5C12.3674 7 12.2402 7.05268 12.1464 7.14645C12.0527 7.24021 12 7.36739 12 7.5V7.691L10 6.691V3C10 2.432 9.86 1.729 9.572 1.151C9.292 0.591 8.787 0 8 0ZM7 3C7 2.568 7.11 2.021 7.322 1.599C7.542 1.159 7.787 1 8 1C8.213 1 8.458 1.158 8.678 1.599C8.889 2.02 9 2.569 9 3V7C9 7.09278 9.02582 7.18373 9.07456 7.26267C9.12331 7.34161 9.19305 7.40544 9.276 7.447L14.724 10.171C14.8069 10.2126 14.8767 10.2764 14.9254 10.3553C14.9742 10.4343 15 10.5252 15 10.618V11.41L9.582 10.507C9.4514 10.4853 9.31753 10.5163 9.20974 10.5931C9.10195 10.67 9.02904 10.7865 9.007 10.917L8.507 13.917C8.49375 13.9957 8.49955 14.0765 8.52391 14.1525C8.54826 14.2285 8.59047 14.2976 8.647 14.354L9.293 15H6.707L7.354 14.354C7.41038 14.2977 7.4525 14.2288 7.47685 14.153C7.5012 14.0771 7.50708 13.9966 7.494 13.918L6.994 10.918C6.98321 10.8532 6.95974 10.7911 6.92495 10.7354C6.89015 10.6796 6.8447 10.6313 6.7912 10.5931C6.73771 10.5549 6.67721 10.5277 6.61317 10.5129C6.54913 10.4981 6.48281 10.4961 6.418 10.507L1 11.41V10.618C1 10.5252 1.02582 10.4343 1.07456 10.3553C1.12331 10.2764 1.19305 10.2126 1.276 10.171L6.724 7.447C6.80695 7.40544 6.87669 7.34161 6.92544 7.26267C6.97418 7.18373 7 7.09278 7 7V3Z" fill="#1B1B1B"/>
</g>
<defs>
<clipPath id="clip0_1419_588">
<rect width="16" height="16" fill="white"/>
</clipPath>
</defs>
</svg>
