<svg width="16" height="16" viewBox="0 0 16 16" fill="none" xmlns="http://www.w3.org/2000/svg">
<g clip-path="url(#clip0_1419_587)">
<path d="M8 0C7.213 0 6.708 0.592 6.428 1.151C6.15089 1.72829 6.00474 2.35967 6 3V6.691L4 7.691V7.5C4 7.36739 3.94732 7.24021 3.85355 7.14645C3.75979 7.05268 3.63261 7 3.5 7H2.5C2.36739 7 2.24021 7.05268 2.14645 7.14645C2.05268 7.24021 2 7.36739 2 7.5V8.691L0.83 9.276C0.580633 9.40049 0.370884 9.592 0.224278 9.82904C0.0776726 10.0661 9.41502e-06 10.3393 0 10.618L0 12C3.341e-05 12.0726 0.0158677 12.1443 0.0464029 12.2101C0.0769381 12.276 0.121442 12.3344 0.176823 12.3813C0.232204 12.4282 0.297135 12.4625 0.367104 12.4818C0.437073 12.5011 0.510403 12.5049 0.582 12.493L2.213 12.221L2.526 13.158C2.55934 13.2573 2.62303 13.3436 2.70808 13.4048C2.79313 13.466 2.89524 13.4989 3 13.4989C3.10476 13.4989 3.20687 13.466 3.29192 13.4048C3.37697 13.3436 3.44066 13.2573 3.474 13.158L3.879 11.944L6.089 11.575L6.464 13.828L5.146 15.146C5.07589 15.2159 5.02813 15.3051 5.00876 15.4022C4.9894 15.4993 4.9993 15.6 5.03722 15.6915C5.07513 15.7829 5.13936 15.8611 5.22175 15.916C5.30414 15.9709 5.40098 16.0002 5.5 16H10.5C10.599 16.0002 10.6959 15.9709 10.7783 15.916C10.8606 15.8611 10.9249 15.7829 10.9628 15.6915C11.0007 15.6 11.0106 15.4993 10.9912 15.4022C10.9719 15.3051 10.9241 15.2159 10.854 15.146L9.536 13.828L9.911 11.575L12.121 11.944L12.526 13.158C12.5593 13.2573 12.623 13.3436 12.7081 13.4048C12.7931 13.466 12.8952 13.4989 13 13.4989C13.1048 13.4989 13.2069 13.466 13.2919 13.4048C13.377 13.3436 13.4407 13.2573 13.474 13.158L13.787 12.221L15.417 12.493C15.4887 12.5051 15.5621 12.5014 15.6322 12.4821C15.7023 12.4629 15.7674 12.4287 15.8229 12.3817C15.8784 12.3348 15.9229 12.2763 15.9535 12.2104C15.9841 12.1445 16 12.0727 16 12V10.618C16 10.3393 15.9223 10.0661 15.7757 9.82904C15.6291 9.592 15.4194 9.40049 15.17 9.276L14 8.691V7.5C14 7.36739 13.9473 7.24021 13.8536 7.14645C13.7598 7.05268 13.6326 7 13.5 7H12.5C12.3674 7 12.2402 7.05268 12.1464 7.14645C12.0527 7.24021 12 7.36739 12 7.5V7.691L10 6.691V3C10 2.432 9.86 1.729 9.572 1.151C9.292 0.591 8.787 0 8 0Z" fill="#1B1B1B"/>
</g>
<defs>
<clipPath id="clip0_1419_587">
<rect width="16" height="16" fill="white"/>
</clipPath>
</defs>
</svg>
