<svg width="16" height="16" viewBox="0 0 16 16" fill="none" xmlns="http://www.w3.org/2000/svg">
<g clip-path="url(#clip0_1419_1949)">
<path d="M7.996 0C6.94569 0.000262611 5.90571 0.207397 4.93545 0.609577C3.96519 1.01176 3.08364 1.60111 2.34115 2.34397C1.59865 3.08684 1.00974 3.96868 0.608046 4.93915C0.206352 5.90961 -0.000262426 6.94969 2.50148e-07 8C-0.000454667 9.93671 0.701673 11.8078 1.97609 13.2662C3.25051 14.7245 5.01069 15.671 6.93 15.93V14.317C6.93105 14.0951 6.86242 13.8784 6.73378 13.6976C6.60515 13.5167 6.42299 13.3808 6.213 13.309C5.07957 12.9274 4.098 12.1931 3.41191 11.2136C2.72582 10.234 2.37122 9.06059 2.4 7.865C2.42997 6.39213 3.04127 4.99089 4.10051 3.96706C5.15976 2.94322 6.58096 2.37989 8.054 2.4C8.80197 2.40802 9.54074 2.56583 10.2267 2.86411C10.9127 3.1624 11.5319 3.59511 12.0479 4.13669C12.5638 4.67827 12.966 5.31775 13.2307 6.01736C13.4954 6.71697 13.6172 7.46252 13.589 8.21L13.587 8.256C13.584 8.32006 13.58 8.38407 13.575 8.448L13.57 8.509C13.5618 8.60397 13.5508 8.69868 13.537 8.793L13.527 8.861C12.842 13.377 6.963 15.915 6.931 15.929C8.06115 16.0806 9.21063 15.9887 10.3024 15.6596C11.3941 15.3305 12.4029 14.7718 13.261 14.0209C14.1191 13.27 14.8067 12.3443 15.2777 11.3058C15.7487 10.2674 15.9923 9.14026 15.992 8C15.9923 5.87897 15.15 3.8447 13.6505 2.34462C12.151 0.844546 10.117 0.00153037 7.996 0.001V0Z" fill="#1B1B1B"/>
</g>
<defs>
<clipPath id="clip0_1419_1949">
<rect width="16" height="16" fill="white"/>
</clipPath>
</defs>
</svg>
