<svg width="16" height="16" viewBox="0 0 16 16" fill="none" xmlns="http://www.w3.org/2000/svg">
<g clip-path="url(#clip0_1419_1939)">
<path d="M2.54102 0H13.5C13.8351 0.0014412 14.1666 0.0688861 14.4756 0.198482C14.7847 0.328078 15.0651 0.517285 15.301 0.755295C15.5369 0.993306 15.7235 1.27546 15.8503 1.58563C15.9771 1.8958 16.0416 2.22791 16.04 2.563V10.86C16.034 10.86 15.509 10.814 13.062 10.047C12.65 9.907 12.146 9.72 11.583 9.511C11.28 9.398 10.959 9.279 10.626 9.158C11.2232 8.10116 11.6693 6.96576 11.951 5.785H8.82202V4.649H12.653V4.015H8.82302V2.121H7.26002C6.98602 2.121 6.98602 2.394 6.98602 2.394V4.015H3.11002V4.649H6.98502V5.785H3.78502V6.419H9.99002C9.76302 7.208 9.45802 7.949 9.09602 8.621C7.08302 7.951 4.93502 7.409 3.58602 7.743C2.72202 7.957 2.16602 8.34 1.84002 8.741C0.341024 10.581 1.41602 13.374 4.58102 13.374C6.45302 13.374 8.25602 12.321 9.65302 10.587C11.733 11.595 16.023 13.325 16.04 13.332V13.437C16.0416 13.7721 15.9771 14.1042 15.8503 14.4144C15.7235 14.7245 15.5369 15.0067 15.301 15.2447C15.0651 15.4827 14.7847 15.6719 14.4756 15.8015C14.1666 15.9311 13.8351 15.9986 13.5 16H2.54102C2.20589 15.9986 1.87432 15.9311 1.56525 15.8015C1.25618 15.672 0.975656 15.4828 0.739702 15.2448C0.503748 15.0068 0.316982 14.7246 0.190067 14.4144C0.063153 14.1043 -0.00142385 13.7721 2.38109e-05 13.437V2.563C-0.00142385 2.22787 0.063153 1.89573 0.190067 1.58555C0.316982 1.27537 0.503748 0.993232 0.739702 0.755235C0.975656 0.517238 1.25618 0.328046 1.56525 0.198463C1.87432 0.0688791 2.20589 0.00144143 2.54102 0V0Z" fill="currentColor"/>
<path d="M2.30898 9.27004C1.08898 10.343 1.81898 12.304 4.28698 12.304C5.72098 12.304 7.15498 11.379 8.28098 9.89804C6.67898 9.10904 5.32198 8.54504 3.85598 8.69104C3.45898 8.73104 2.71598 8.90804 2.30898 9.27104V9.27004Z" fill="currentColor"/>
</g>
<defs>
<clipPath id="clip0_1419_1939">
<rect width="16" height="16" fill="white"/>
</clipPath>
</defs>
</svg>
