<svg width="16" height="16" viewBox="0 0 16 16" fill="none" xmlns="http://www.w3.org/2000/svg">
<g clip-path="url(#clip0_1419_1951)">
<path d="M10.213 1.47096L10.904 0.210963C10.95 0.127963 10.934 0.0639631 10.856 0.0189631C10.771 -0.0190369 10.706 -3.68729e-05 10.661 0.0769631L9.961 1.34696C9.3444 1.07686 8.67816 0.93857 8.005 0.940963C7.317 0.940963 6.665 1.07596 6.049 1.34496L5.349 0.0749631C5.303 -3.68729e-05 5.239 -0.0180369 5.154 0.0199631C5.076 0.0659631 5.06 0.129963 5.105 0.212963L5.796 1.47196C5.11684 1.8062 4.53927 2.31576 4.123 2.94796C3.71335 3.56105 3.49639 4.28262 3.5 5.01996H12.5C12.5 4.26996 12.292 3.57996 11.877 2.94796C11.4626 2.31747 10.8884 1.80816 10.213 1.47196V1.47096ZM6.22 3.30296C6.18524 3.3384 6.14366 3.36642 6.09777 3.38533C6.05188 3.40423 6.00263 3.41364 5.953 3.41296C5.9039 3.41411 5.8551 3.4049 5.80979 3.38595C5.76448 3.367 5.72366 3.33873 5.69 3.30296C5.65542 3.26834 5.62814 3.22714 5.60976 3.1818C5.59138 3.13646 5.58228 3.08789 5.583 3.03896C5.58237 2.9899 5.59151 2.94121 5.60988 2.89572C5.62825 2.85022 5.65548 2.80883 5.69 2.77396C5.7237 2.73825 5.76453 2.71001 5.80983 2.69106C5.85513 2.67211 5.9039 2.66288 5.953 2.66396C6.056 2.66396 6.146 2.70096 6.22 2.77396C6.25588 2.80806 6.28435 2.84919 6.30362 2.89479C6.32289 2.94038 6.33255 2.98947 6.332 3.03896C6.33241 3.08829 6.32269 3.13718 6.30342 3.1826C6.28415 3.22801 6.25576 3.26898 6.22 3.30296V3.30296ZM10.321 3.30296C10.2874 3.33855 10.2467 3.36672 10.2016 3.38566C10.1565 3.4046 10.1079 3.4139 10.059 3.41296C10.0092 3.41383 9.95973 3.40452 9.91365 3.38561C9.86757 3.36669 9.82583 3.33857 9.791 3.30296C9.75514 3.26905 9.72668 3.2281 9.70741 3.18267C9.68814 3.13724 9.67846 3.08831 9.679 3.03896C9.679 2.93596 9.716 2.84796 9.791 2.77396C9.82587 2.7384 9.86761 2.71031 9.91368 2.6914C9.95976 2.67249 10.0092 2.66315 10.059 2.66396C10.163 2.66396 10.249 2.70096 10.321 2.77396C10.3556 2.80873 10.383 2.8501 10.4014 2.89562C10.4197 2.94114 10.4288 2.98988 10.428 3.03896C10.428 3.14096 10.393 3.22896 10.321 3.30296ZM3.5 11.77C3.5 12.064 3.604 12.314 3.811 12.52C4.019 12.724 4.271 12.827 4.571 12.827H5.329L5.339 15.009C5.339 15.285 5.436 15.519 5.631 15.712C5.7221 15.8049 5.83112 15.8783 5.95145 15.9278C6.07177 15.9773 6.2009 16.0018 6.331 16C6.46267 16.0025 6.5935 15.9783 6.71554 15.9288C6.83758 15.8793 6.9483 15.8055 7.041 15.712C7.13551 15.6212 7.21024 15.512 7.26049 15.391C7.31074 15.27 7.33543 15.1399 7.333 15.009V12.827H8.676V15.009C8.676 15.285 8.773 15.519 8.968 15.712C9.06066 15.8056 9.17137 15.8794 9.29342 15.9289C9.41547 15.9784 9.54631 16.0026 9.678 16C9.80967 16.0025 9.9405 15.9783 10.0625 15.9288C10.1846 15.8793 10.2953 15.8055 10.388 15.712C10.4825 15.6212 10.5572 15.512 10.6075 15.391C10.6577 15.27 10.6824 15.1399 10.68 15.009V12.827H11.44C11.731 12.827 11.98 12.724 12.189 12.519C12.396 12.314 12.5 12.064 12.5 11.769V5.36496H3.5V11.769V11.77ZM13.995 5.18296C13.8654 5.18075 13.7367 5.20417 13.6162 5.25187C13.4958 5.29958 13.3859 5.37064 13.293 5.46096C13.1986 5.54801 13.1237 5.65404 13.0732 5.7721C13.0227 5.89016 12.9977 6.01758 13 6.14596V10.209C13 10.48 13.098 10.71 13.293 10.899C13.385 10.991 13.4945 11.0635 13.6151 11.1123C13.7357 11.1611 13.8649 11.1851 13.995 11.183C14.275 11.183 14.512 11.088 14.707 10.899C14.8013 10.8108 14.8761 10.7039 14.9266 10.585C14.9771 10.4662 15.0021 10.3381 15 10.209V6.14596C15.0023 6.01758 14.9773 5.89016 14.9268 5.7721C14.8763 5.65404 14.8014 5.54801 14.707 5.46096C14.6125 5.36998 14.501 5.29858 14.3788 5.25087C14.2566 5.20316 14.1261 5.18008 13.995 5.18296V5.18296ZM1.293 5.46596C1.38676 5.37362 1.49806 5.301 1.62035 5.2524C1.74264 5.20379 1.87343 5.18018 2.005 5.18296C2.278 5.18296 2.512 5.27696 2.707 5.46596C2.80062 5.55256 2.87506 5.65781 2.92553 5.77493C2.97599 5.89205 3.00136 6.01844 3 6.14596V10.209C3.00223 10.3376 2.97779 10.4654 2.92822 10.5841C2.87866 10.7029 2.80504 10.8101 2.712 10.899C2.61942 10.9916 2.50906 11.0645 2.38755 11.1133C2.26604 11.1621 2.13591 11.1858 2.005 11.183C1.87337 11.1856 1.74255 11.1618 1.62027 11.113C1.49798 11.0642 1.38671 10.9914 1.293 10.899C1.19866 10.8108 1.12385 10.7039 1.07338 10.585C1.02292 10.4662 0.997917 10.3381 0.999998 10.209V6.14596C0.999998 5.88196 1.098 5.65496 1.293 5.46596V5.46596Z" fill="currentColor"/>
</g>
<defs>
<clipPath id="clip0_1419_1951">
<rect width="16" height="16" fill="white"/>
</clipPath>
</defs>
</svg>
