<svg width="16" height="16" viewBox="0 0 16 16" fill="none" xmlns="http://www.w3.org/2000/svg">
<path d="M2.76 3.06105C2.8177 3.02953 2.88105 3.0097 2.94642 3.00269C3.0118 2.99569 3.07791 3.00164 3.14098 3.02022C3.20405 3.0388 3.26284 3.06963 3.31398 3.11096C3.36511 3.15228 3.4076 3.20329 3.439 3.26105L4.722 5.61305C5.76655 5.20493 6.87856 4.99698 8 5.00005C9.12144 4.99698 10.2335 5.20493 11.278 5.61305L12.561 3.26105C12.5914 3.20167 12.6334 3.14898 12.6845 3.10608C12.7356 3.06318 12.7948 3.03094 12.8585 3.01126C12.9223 2.99158 12.9893 2.98486 13.0557 2.99149C13.1221 2.99812 13.1865 3.01797 13.2451 3.04987C13.3037 3.08178 13.3553 3.12508 13.3969 3.17724C13.4385 3.2294 13.4692 3.28936 13.4873 3.35359C13.5054 3.41781 13.5104 3.485 13.5021 3.55121C13.4938 3.61741 13.4724 3.68128 13.439 3.73905L12.187 6.03405C14.475 7.26605 16 9.47705 16 12.0001H0C0 9.47705 1.525 7.26605 3.813 6.03405L2.56 3.74005C2.49666 3.62361 2.48214 3.48679 2.51964 3.35965C2.55715 3.23251 2.6436 3.12547 2.76 3.06205V3.06105ZM5 10.0001C5.26522 10.0001 5.51957 9.8947 5.70711 9.70716C5.89464 9.51962 6 9.26527 6 9.00005C6 8.73484 5.89464 8.48048 5.70711 8.29295C5.51957 8.10541 5.26522 8.00005 5 8.00005C4.73478 8.00005 4.48043 8.10541 4.29289 8.29295C4.10536 8.48048 4 8.73484 4 9.00005C4 9.26527 4.10536 9.51962 4.29289 9.70716C4.48043 9.8947 4.73478 10.0001 5 10.0001ZM11 10.0001C11.2652 10.0001 11.5196 9.8947 11.7071 9.70716C11.8946 9.51962 12 9.26527 12 9.00005C12 8.73484 11.8946 8.48048 11.7071 8.29295C11.5196 8.10541 11.2652 8.00005 11 8.00005C10.7348 8.00005 10.4804 8.10541 10.2929 8.29295C10.1054 8.48048 10 8.73484 10 9.00005C10 9.26527 10.1054 9.51962 10.2929 9.70716C10.4804 9.8947 10.7348 10.0001 11 10.0001V10.0001Z" fill="currentColor"/>
</svg>
