<svg width="16" height="16" viewBox="0 0 16 16" fill="none" xmlns="http://www.w3.org/2000/svg">
<path fill-rule="evenodd" clip-rule="evenodd" d="M12 7.9999C12 8.13251 11.9473 8.25968 11.8535 8.35345C11.7598 8.44722 11.6326 8.4999 11.5 8.4999H5.70698L7.85398 10.6459C7.90047 10.6924 7.93734 10.7476 7.9625 10.8083C7.98766 10.8691 8.00061 10.9342 8.00061 10.9999C8.00061 11.0656 7.98766 11.1307 7.9625 11.1915C7.93734 11.2522 7.90047 11.3074 7.85398 11.3539C7.80749 11.4004 7.7523 11.4373 7.69156 11.4624C7.63082 11.4876 7.56572 11.5005 7.49998 11.5005C7.43423 11.5005 7.36913 11.4876 7.30839 11.4624C7.24766 11.4373 7.19247 11.4004 7.14598 11.3539L4.14598 8.3539C4.09941 8.30745 4.06247 8.25228 4.03727 8.19153C4.01206 8.13079 3.99908 8.06567 3.99908 7.9999C3.99908 7.93413 4.01206 7.86901 4.03727 7.80827C4.06247 7.74752 4.09941 7.69234 4.14598 7.6459L7.14598 4.6459C7.23986 4.55201 7.3672 4.49927 7.49998 4.49927C7.63275 4.49927 7.76009 4.55201 7.85398 4.6459C7.94787 4.73979 8.00061 4.86712 8.00061 4.9999C8.00061 5.13268 7.94787 5.26001 7.85398 5.3539L5.70698 7.4999H11.5C11.6326 7.4999 11.7598 7.55258 11.8535 7.64635C11.9473 7.74011 12 7.86729 12 7.9999Z" fill="#1B1B1B"/>
</svg>
