<svg width="16" height="16" viewBox="0 0 16 16" fill="none" xmlns="http://www.w3.org/2000/svg">
<g clip-path="url(#clip0_1419_233)">
<path fill-rule="evenodd" clip-rule="evenodd" d="M1.14598 4.8539C1.09942 4.80745 1.06247 4.75228 1.03727 4.69153C1.01206 4.63079 0.999084 4.56567 0.999084 4.4999C0.999084 4.43413 1.01206 4.36901 1.03727 4.30827C1.06247 4.24752 1.09942 4.19234 1.14598 4.1459L5.14598 0.145899C5.23986 0.0520125 5.3672 -0.000732422 5.49998 -0.000732422C5.63275 -0.000732422 5.76009 0.0520125 5.85398 0.145899C5.94786 0.239786 6.00061 0.367123 6.00061 0.499899C6.00061 0.632675 5.94786 0.760013 5.85398 0.853899L2.70698 3.9999H12.5C13.163 3.9999 13.7989 4.26329 14.2677 4.73213C14.7366 5.20097 15 5.83686 15 6.4999V14.4999C15 14.6325 14.9473 14.7597 14.8535 14.8535C14.7598 14.9472 14.6326 14.9999 14.5 14.9999C14.3674 14.9999 14.2402 14.9472 14.1464 14.8535C14.0527 14.7597 14 14.6325 14 14.4999V6.4999C14 6.10207 13.8419 5.72054 13.5606 5.43924C13.2793 5.15793 12.8978 4.9999 12.5 4.9999H2.70698L5.85398 8.1459C5.90047 8.19239 5.93734 8.24758 5.9625 8.30832C5.98766 8.36905 6.00061 8.43416 6.00061 8.4999C6.00061 8.56564 5.98766 8.63074 5.9625 8.69148C5.93734 8.75222 5.90047 8.80741 5.85398 8.8539C5.80749 8.90039 5.7523 8.93726 5.69156 8.96242C5.63082 8.98758 5.56572 9.00053 5.49998 9.00053C5.43423 9.00053 5.36913 8.98758 5.30839 8.96242C5.24766 8.93726 5.19247 8.90039 5.14598 8.8539L1.14598 4.8539V4.8539Z" fill="currentColor"/>
</g>
<defs>
<clipPath id="clip0_1419_233">
<rect width="16" height="16" fill="white"/>
</clipPath>
</defs>
</svg>
