<svg width="16" height="16" viewBox="0 0 16 16" fill="none" xmlns="http://www.w3.org/2000/svg">
<g clip-path="url(#clip0_1419_261)">
<path fill-rule="evenodd" clip-rule="evenodd" d="M0.999978 11.4999C0.999978 11.6325 1.05266 11.7597 1.14642 11.8535C1.24019 11.9472 1.36737 11.9999 1.49998 11.9999H13.293L10.146 15.1459C10.0521 15.2398 9.99935 15.3671 9.99935 15.4999C9.99935 15.6327 10.0521 15.76 10.146 15.8539C10.2399 15.9478 10.3672 16.0005 10.5 16.0005C10.6328 16.0005 10.7601 15.9478 10.854 15.8539L14.854 11.8539C14.9005 11.8075 14.9375 11.7523 14.9627 11.6915C14.9879 11.6308 15.0009 11.5657 15.0009 11.4999C15.0009 11.4341 14.9879 11.369 14.9627 11.3083C14.9375 11.2475 14.9005 11.1923 14.854 11.1459L10.854 7.1459C10.7601 7.05201 10.6328 6.99927 10.5 6.99927C10.3672 6.99927 10.2399 7.05201 10.146 7.1459C10.0521 7.23979 9.99935 7.36712 9.99935 7.4999C9.99935 7.63268 10.0521 7.76001 10.146 7.8539L13.293 10.9999H1.49998C1.36737 10.9999 1.24019 11.0526 1.14642 11.1463C1.05266 11.2401 0.999978 11.3673 0.999978 11.4999V11.4999ZM15 4.4999C15 4.63251 14.9473 4.75968 14.8535 4.85345C14.7598 4.94722 14.6326 4.9999 14.5 4.9999H2.70698L5.85398 8.1459C5.90047 8.19239 5.93734 8.24758 5.9625 8.30832C5.98766 8.36905 6.00061 8.43416 6.00061 8.4999C6.00061 8.56564 5.98766 8.63074 5.9625 8.69148C5.93734 8.75222 5.90047 8.80741 5.85398 8.8539C5.80749 8.90039 5.7523 8.93726 5.69156 8.96242C5.63082 8.98758 5.56572 9.00053 5.49998 9.00053C5.43423 9.00053 5.36913 8.98758 5.30839 8.96242C5.24766 8.93726 5.19247 8.90039 5.14598 8.8539L1.14598 4.8539C1.09942 4.80745 1.06247 4.75228 1.03727 4.69153C1.01206 4.63079 0.999084 4.56567 0.999084 4.4999C0.999084 4.43413 1.01206 4.36901 1.03727 4.30827C1.06247 4.24752 1.09942 4.19234 1.14598 4.1459L5.14598 0.145899C5.23986 0.0520125 5.3672 -0.000732422 5.49998 -0.000732422C5.63275 -0.000732422 5.76009 0.0520125 5.85398 0.145899C5.94786 0.239786 6.00061 0.367123 6.00061 0.499899C6.00061 0.632675 5.94786 0.760013 5.85398 0.853899L2.70698 3.9999H14.5C14.6326 3.9999 14.7598 4.05258 14.8535 4.14635C14.9473 4.24011 15 4.36729 15 4.4999Z" fill="currentColor"/>
</g>
<defs>
<clipPath id="clip0_1419_261">
<rect width="16" height="16" fill="white"/>
</clipPath>
</defs>
</svg>
