<svg width="16" height="16" viewBox="0 0 16 16" fill="none" xmlns="http://www.w3.org/2000/svg">
<g clip-path="url(#clip0_1419_293)">
<path fill-rule="evenodd" clip-rule="evenodd" d="M0.172028 15.828C0.265792 15.9218 0.392946 15.9744 0.525528 15.9744C0.65811 15.9744 0.785264 15.9218 0.879028 15.828L4.97503 11.732V14.5C4.97503 14.6326 5.02771 14.7598 5.12147 14.8536C5.21524 14.9473 5.34242 15 5.47503 15C5.60764 15 5.73481 14.9473 5.82858 14.8536C5.92235 14.7598 5.97503 14.6326 5.97503 14.5V10.525C5.97503 10.3924 5.92235 10.2652 5.82858 10.1715C5.73481 10.0777 5.60764 10.025 5.47503 10.025H1.50003C1.36742 10.025 1.24024 10.0777 1.14647 10.1715C1.05271 10.2652 1.00003 10.3924 1.00003 10.525C1.00003 10.6576 1.05271 10.7848 1.14647 10.8786C1.24024 10.9723 1.36742 11.025 1.50003 11.025H4.26803L0.172028 15.121C0.0782925 15.2148 0.0256348 15.3419 0.0256348 15.4745C0.0256348 15.6071 0.0782925 15.7343 0.172028 15.828V15.828ZM15.828 0.172028C15.7343 0.0782925 15.6071 0.0256348 15.4745 0.0256348C15.3419 0.0256348 15.2148 0.0782925 15.121 0.172028L11.025 4.26803V1.50003C11.025 1.36742 10.9723 1.24024 10.8786 1.14647C10.7848 1.05271 10.6576 1.00003 10.525 1.00003C10.3924 1.00003 10.2652 1.05271 10.1715 1.14647C10.0777 1.24024 10.025 1.36742 10.025 1.50003V5.47503C10.025 5.60764 10.0777 5.73481 10.1715 5.82858C10.2652 5.92235 10.3924 5.97503 10.525 5.97503H14.5C14.6326 5.97503 14.7598 5.92235 14.8536 5.82858C14.9473 5.73481 15 5.60764 15 5.47503C15 5.34242 14.9473 5.21524 14.8536 5.12147C14.7598 5.02771 14.6326 4.97503 14.5 4.97503H11.732L15.828 0.879028C15.9218 0.785264 15.9744 0.65811 15.9744 0.525528C15.9744 0.392946 15.9218 0.265792 15.828 0.172028V0.172028Z" fill="currentColor"/>
</g>
<defs>
<clipPath id="clip0_1419_293">
<rect width="16" height="16" fill="white"/>
</clipPath>
</defs>
</svg>
