<svg width="16" height="16" viewBox="0 0 16 16" fill="none" xmlns="http://www.w3.org/2000/svg">
<path fill-rule="evenodd" clip-rule="evenodd" d="M14 13.4999C14 13.6325 13.9473 13.7597 13.8536 13.8535C13.7598 13.9472 13.6326 13.9999 13.5 13.9999H7.50002C7.36741 13.9999 7.24024 13.9472 7.14647 13.8535C7.0527 13.7597 7.00002 13.6325 7.00002 13.4999C7.00002 13.3673 7.0527 13.2401 7.14647 13.1463C7.24024 13.0526 7.36741 12.9999 7.50002 12.9999H12.293L2.14602 2.8539C2.09953 2.80741 2.06266 2.75222 2.0375 2.69148C2.01234 2.63074 1.99939 2.56564 1.99939 2.4999C1.99939 2.43416 2.01234 2.36906 2.0375 2.30832C2.06266 2.24758 2.09953 2.19239 2.14602 2.1459C2.19251 2.09941 2.2477 2.06254 2.30844 2.03738C2.36918 2.01222 2.43428 1.99927 2.50002 1.99927C2.56577 1.99927 2.63087 2.01222 2.6916 2.03738C2.75234 2.06254 2.80753 2.09941 2.85402 2.1459L13 12.2929V7.4999C13 7.36729 13.0527 7.24011 13.1465 7.14635C13.2402 7.05258 13.3674 6.9999 13.5 6.9999C13.6326 6.9999 13.7598 7.05258 13.8536 7.14635C13.9473 7.24011 14 7.36729 14 7.4999V13.4999Z" fill="#1B1B1B"/>
</svg>
