<svg width="16" height="16" viewBox="0 0 16 16" fill="none" xmlns="http://www.w3.org/2000/svg">
<path fill-rule="evenodd" clip-rule="evenodd" d="M8.00002 11.9999C8.13263 11.9999 8.25981 11.9472 8.35358 11.8535C8.44734 11.7597 8.50002 11.6325 8.50002 11.4999V5.70692L10.646 7.85392C10.6925 7.90041 10.7477 7.93728 10.8084 7.96244C10.8692 7.9876 10.9343 8.00055 11 8.00055C11.0658 8.00055 11.1309 7.9876 11.1916 7.96244C11.2523 7.93728 11.3075 7.90041 11.354 7.85392C11.4005 7.80743 11.4374 7.75224 11.4625 7.6915C11.4877 7.63076 11.5007 7.56566 11.5007 7.49992C11.5007 7.43417 11.4877 7.36907 11.4625 7.30833C11.4374 7.24759 11.4005 7.19241 11.354 7.14592L8.35402 4.14592C8.30758 4.09935 8.2524 4.06241 8.19165 4.0372C8.13091 4.012 8.06579 3.99902 8.00002 3.99902C7.93425 3.99902 7.86913 4.012 7.80839 4.0372C7.74764 4.06241 7.69247 4.09935 7.64602 4.14592L4.64602 7.14592C4.55213 7.2398 4.49939 7.36714 4.49939 7.49992C4.49939 7.63269 4.55213 7.76003 4.64602 7.85392C4.73991 7.9478 4.86725 8.00055 5.00002 8.00055C5.1328 8.00055 5.26013 7.9478 5.35402 7.85392L7.50002 5.70692V11.4999C7.50002 11.6325 7.5527 11.7597 7.64647 11.8535C7.74024 11.9472 7.86741 11.9999 8.00002 11.9999Z" fill="#1B1B1B"/>
</svg>
