<svg width="16" height="16" viewBox="0 0 16 16" fill="none" xmlns="http://www.w3.org/2000/svg">
<path fill-rule="evenodd" clip-rule="evenodd" d="M8.00002 3C6.91937 3.00042 5.86795 3.35093 5.00323 3.99904C4.1385 4.64715 3.50703 5.55797 3.20338 6.59508C2.89974 7.63219 2.94027 8.73976 3.31891 9.7519C3.69754 10.764 4.3939 11.6263 5.30368 12.2094C6.21346 12.7926 7.2877 13.0653 8.36548 12.9868C9.44326 12.9082 10.4666 12.4826 11.2822 11.7736C12.0978 11.0647 12.6617 10.1105 12.8895 9.0542C13.1174 7.99784 12.9969 6.89611 12.546 5.914C12.4969 5.7946 12.496 5.66084 12.5433 5.54072C12.5906 5.42061 12.6825 5.32344 12.7998 5.26957C12.9171 5.21569 13.0507 5.20927 13.1727 5.25167C13.2946 5.29406 13.3954 5.38197 13.454 5.497C13.995 6.67559 14.1396 7.99773 13.8661 9.26538C13.5926 10.533 12.9157 11.678 11.9369 12.5286C10.9581 13.3793 9.73006 13.89 8.43666 13.9842C7.14326 14.0783 5.85417 13.7509 4.76249 13.0509C3.6708 12.3509 2.83528 11.3161 2.38108 10.1014C1.92688 8.88676 1.87845 7.55762 2.24305 6.31311C2.60765 5.0686 3.36565 3.97571 4.4035 3.19815C5.44136 2.42059 6.7032 2.00022 8.00002 2V3Z" fill="currentColor"/>
<path d="M8 4.46609V0.534086C8.00002 0.486583 8.01357 0.440067 8.03907 0.399987C8.06457 0.359907 8.10096 0.327921 8.14398 0.307775C8.187 0.287629 8.23487 0.280157 8.28198 0.286234C8.32909 0.29231 8.3735 0.311684 8.41 0.342086L10.77 2.30809C10.89 2.40809 10.89 2.59209 10.77 2.69209L8.41 4.65809C8.3735 4.68849 8.32909 4.70786 8.28198 4.71394C8.23487 4.72002 8.187 4.71254 8.14398 4.6924C8.10096 4.67225 8.06457 4.64027 8.03907 4.60019C8.01357 4.56011 8.00002 4.51359 8 4.46609V4.46609Z" fill="currentColor"/>
</svg>
