<svg width="16" height="16" viewBox="0 0 16 16" fill="none" xmlns="http://www.w3.org/2000/svg">
<g clip-path="url(#clip0_1419_232)">
<path fill-rule="evenodd" clip-rule="evenodd" d="M4.85402 14.854C4.80758 14.9006 4.7524 14.9375 4.69166 14.9627C4.63091 14.9879 4.56579 15.0009 4.50002 15.0009C4.43425 15.0009 4.36913 14.9879 4.30839 14.9627C4.24764 14.9375 4.19247 14.9006 4.14602 14.854L0.146021 10.854C0.0521346 10.7601 -0.000610355 10.6328 -0.000610352 10.5C-0.000610348 10.3672 0.0521346 10.2399 0.146021 10.146C0.239908 10.0521 0.367245 9.99937 0.500021 9.99937C0.632797 9.99937 0.760135 10.0521 0.854021 10.146L4.00002 13.293V3.5C4.00002 2.83696 4.26341 2.20107 4.73225 1.73223C5.2011 1.26339 5.83698 1 6.50002 1H14.5C14.6326 1 14.7598 1.05268 14.8536 1.14645C14.9473 1.24021 15 1.36739 15 1.5C15 1.63261 14.9473 1.75979 14.8536 1.85355C14.7598 1.94732 14.6326 2 14.5 2H6.50002C6.1022 2 5.72067 2.15804 5.43936 2.43934C5.15806 2.72064 5.00002 3.10218 5.00002 3.5V13.293L8.14602 10.146C8.23991 10.0521 8.36725 9.99937 8.50002 9.99937C8.6328 9.99937 8.76013 10.0521 8.85402 10.146C8.94791 10.2399 9.00065 10.3672 9.00065 10.5C9.00065 10.6328 8.94791 10.7601 8.85402 10.854L4.85402 14.854V14.854Z" fill="#1B1B1B"/>
</g>
<defs>
<clipPath id="clip0_1419_232">
<rect width="16" height="16" fill="white"/>
</clipPath>
</defs>
</svg>
