<svg width="16" height="16" viewBox="0 0 16 16" fill="none" xmlns="http://www.w3.org/2000/svg">
<g clip-path="url(#clip0_1419_235)">
<path fill-rule="evenodd" clip-rule="evenodd" d="M4.85402 1.14592C4.80758 1.09935 4.7524 1.06241 4.69166 1.0372C4.63091 1.012 4.56579 0.999023 4.50002 0.999023C4.43425 0.999023 4.36913 1.012 4.30839 1.0372C4.24764 1.06241 4.19247 1.09935 4.14602 1.14592L0.146021 5.14592C0.0521346 5.2398 -0.000610352 5.36714 -0.000610352 5.49992C-0.000610352 5.63269 0.0521346 5.76003 0.146021 5.85392C0.239908 5.9478 0.367246 6.00055 0.500021 6.00055C0.632797 6.00055 0.760135 5.9478 0.854021 5.85392L4.00002 2.70692V12.4999C4.00002 13.163 4.26341 13.7988 4.73225 14.2677C5.2011 14.7365 5.83698 14.9999 6.50002 14.9999H14.5C14.6326 14.9999 14.7598 14.9472 14.8536 14.8535C14.9473 14.7597 15 14.6325 15 14.4999C15 14.3673 14.9473 14.2401 14.8536 14.1464C14.7598 14.0526 14.6326 13.9999 14.5 13.9999H6.50002C6.1022 13.9999 5.72067 13.8419 5.43936 13.5606C5.15806 13.2793 5.00002 12.8977 5.00002 12.4999V2.70692L8.14602 5.85392C8.19251 5.90041 8.2477 5.93728 8.30844 5.96244C8.36918 5.9876 8.43428 6.00055 8.50002 6.00055C8.56576 6.00055 8.63087 5.9876 8.6916 5.96244C8.75234 5.93728 8.80753 5.90041 8.85402 5.85392C8.90051 5.80743 8.93739 5.75224 8.96254 5.6915C8.9877 5.63076 9.00065 5.56566 9.00065 5.49992C9.00065 5.43417 8.9877 5.36907 8.96254 5.30833C8.93739 5.24759 8.90051 5.1924 8.85402 5.14592L4.85402 1.14592V1.14592Z" fill="currentColor"/>
</g>
<defs>
<clipPath id="clip0_1419_235">
<rect width="16" height="16" fill="white"/>
</clipPath>
</defs>
</svg>
