<svg width="16" height="16" viewBox="0 0 16 16" fill="none" xmlns="http://www.w3.org/2000/svg">
<path fill-rule="evenodd" clip-rule="evenodd" d="M7.99999 3C9.08063 3.00042 10.1321 3.35093 10.9968 3.99904C11.8615 4.64715 12.493 5.55797 12.7966 6.59508C13.1003 7.63219 13.0597 8.73976 12.6811 9.7519C12.3025 10.764 11.6061 11.6263 10.6963 12.2094C9.78654 12.7926 8.71231 13.0653 7.63453 12.9868C6.55674 12.9082 5.53342 12.4826 4.71783 11.7736C3.90225 11.0647 3.3383 10.1105 3.11046 9.0542C2.88261 7.99784 3.00314 6.89611 3.45399 5.914C3.50306 5.7946 3.50405 5.66084 3.45674 5.54072C3.40944 5.42061 3.31751 5.32344 3.20019 5.26957C3.08288 5.21569 2.94927 5.20927 2.82733 5.25167C2.7054 5.29406 2.60458 5.38197 2.54599 5.497C2.005 6.67559 1.86042 7.99773 2.13392 9.26538C2.40741 10.533 3.08426 11.678 4.06306 12.5286C5.04187 13.3793 6.26995 13.89 7.56334 13.9842C8.85674 14.0783 10.1458 13.7509 11.2375 13.0509C12.3292 12.3509 13.1647 11.3161 13.6189 10.1014C14.0731 8.88676 14.1216 7.55762 13.757 6.31311C13.3924 5.0686 12.6344 3.97571 11.5965 3.19815C10.5586 2.42059 9.29681 2.00022 7.99999 2V3Z" fill="currentColor"/>
<path d="M8.00002 4.46609V0.534086C8.00001 0.486583 7.98646 0.440067 7.96096 0.399987C7.93546 0.359907 7.89907 0.327921 7.85605 0.307775C7.81303 0.287629 7.76516 0.280157 7.71805 0.286234C7.67093 0.29231 7.62653 0.311684 7.59002 0.342086L5.23002 2.30809C5.20189 2.33155 5.17925 2.36091 5.16372 2.39409C5.14819 2.42726 5.14014 2.46345 5.14014 2.50009C5.14014 2.53672 5.14819 2.57291 5.16372 2.60609C5.17925 2.63926 5.20189 2.66862 5.23002 2.69209L7.59002 4.65809C7.62653 4.68849 7.67093 4.70786 7.71805 4.71394C7.76516 4.72002 7.81303 4.71254 7.85605 4.6924C7.89907 4.67225 7.93546 4.64027 7.96096 4.60019C7.98646 4.56011 8.00001 4.51359 8.00002 4.46609V4.46609Z" fill="currentColor"/>
</svg>
