<svg width="16" height="16" viewBox="0 0 16 16" fill="none" xmlns="http://www.w3.org/2000/svg">
<g clip-path="url(#clip0_1419_257)">
<path fill-rule="evenodd" clip-rule="evenodd" d="M11.5 14.9999C11.6326 14.9999 11.7598 14.9472 11.8536 14.8535C11.9473 14.7597 12 14.6325 12 14.4999V2.70692L15.146 5.85392C15.2399 5.9478 15.3672 6.00055 15.5 6.00055C15.6328 6.00055 15.7601 5.9478 15.854 5.85392C15.9479 5.76003 16.0007 5.63269 16.0007 5.49992C16.0007 5.36714 15.9479 5.2398 15.854 5.14592L11.854 1.14592C11.8076 1.09935 11.7524 1.06241 11.6917 1.0372C11.6309 1.012 11.5658 0.999023 11.5 0.999023C11.4343 0.999023 11.3691 1.012 11.3084 1.0372C11.2476 1.06241 11.1925 1.09935 11.146 1.14592L7.14602 5.14592C7.05213 5.2398 6.99939 5.36714 6.99939 5.49992C6.99939 5.63269 7.05213 5.76003 7.14602 5.85392C7.23991 5.9478 7.36725 6.00055 7.50002 6.00055C7.6328 6.00055 7.76013 5.9478 7.85402 5.85392L11 2.70692V14.4999C11 14.6325 11.0527 14.7597 11.1465 14.8535C11.2402 14.9472 11.3674 14.9999 11.5 14.9999ZM4.50002 0.999917C4.63263 0.999917 4.75981 1.0526 4.85357 1.14636C4.94734 1.24013 5.00002 1.36731 5.00002 1.49992V13.2929L8.14602 10.1459C8.23991 10.052 8.36725 9.99929 8.50002 9.99929C8.6328 9.99929 8.76013 10.052 8.85402 10.1459C8.94791 10.2398 9.00065 10.3671 9.00065 10.4999C9.00065 10.6327 8.94791 10.76 8.85402 10.8539L4.85402 14.8539C4.80758 14.9005 4.7524 14.9374 4.69166 14.9626C4.63091 14.9878 4.56579 15.0008 4.50002 15.0008C4.43425 15.0008 4.36913 14.9878 4.30839 14.9626C4.24764 14.9374 4.19247 14.9005 4.14602 14.8539L0.146021 10.8539C0.0521346 10.76 -0.000610355 10.6327 -0.000610352 10.4999C-0.000610348 10.3671 0.0521346 10.2398 0.146021 10.1459C0.239908 10.052 0.367245 9.99929 0.500021 9.99929C0.632797 9.99929 0.760135 10.052 0.854021 10.1459L4.00002 13.2929V1.49992C4.00002 1.36731 4.0527 1.24013 4.14647 1.14636C4.24024 1.0526 4.36741 0.999917 4.50002 0.999917V0.999917Z" fill="currentColor"/>
</g>
<defs>
<clipPath id="clip0_1419_257">
<rect width="16" height="16" fill="white"/>
</clipPath>
</defs>
</svg>
