<svg width="16" height="16" viewBox="0 0 16 16" fill="none" xmlns="http://www.w3.org/2000/svg">
<path fill-rule="evenodd" clip-rule="evenodd" d="M8.00002 14.9999C8.13263 14.9999 8.25981 14.9472 8.35357 14.8535C8.44734 14.7597 8.50002 14.6325 8.50002 14.4999V2.70692L11.646 5.85392C11.7399 5.9478 11.8672 6.00055 12 6.00055C12.1328 6.00055 12.2601 5.9478 12.354 5.85392C12.4479 5.76003 12.5007 5.63269 12.5007 5.49992C12.5007 5.36714 12.4479 5.2398 12.354 5.14592L8.35402 1.14592C8.30758 1.09935 8.2524 1.06241 8.19165 1.0372C8.13091 1.012 8.06579 0.999023 8.00002 0.999023C7.93425 0.999023 7.86913 1.012 7.80839 1.0372C7.74764 1.06241 7.69247 1.09935 7.64602 1.14592L3.64602 5.14592C3.59953 5.1924 3.56266 5.24759 3.5375 5.30833C3.51234 5.36907 3.49939 5.43417 3.49939 5.49992C3.49939 5.63269 3.55213 5.76003 3.64602 5.85392C3.73991 5.9478 3.86725 6.00055 4.00002 6.00055C4.1328 6.00055 4.26013 5.9478 4.35402 5.85392L7.50002 2.70692V14.4999C7.50002 14.6325 7.5527 14.7597 7.64647 14.8535C7.74024 14.9472 7.86741 14.9999 8.00002 14.9999Z" fill="currentColor"/>
</svg>
