<svg width="16" height="16" viewBox="0 0 16 16" fill="none" xmlns="http://www.w3.org/2000/svg">
<path fill-rule="evenodd" clip-rule="evenodd" d="M15 7.9999C15 7.86729 14.9473 7.74011 14.8535 7.64635C14.7598 7.55258 14.6326 7.4999 14.5 7.4999H2.70698L5.85398 4.3539C5.90047 4.30741 5.93734 4.25222 5.9625 4.19148C5.98766 4.13074 6.00061 4.06564 6.00061 3.9999C6.00061 3.93416 5.98766 3.86906 5.9625 3.80832C5.93734 3.74758 5.90047 3.69239 5.85398 3.6459C5.80749 3.59941 5.7523 3.56254 5.69156 3.53738C5.63082 3.51222 5.56572 3.49927 5.49998 3.49927C5.43423 3.49927 5.36913 3.51222 5.30839 3.53738C5.24766 3.56254 5.19247 3.59941 5.14598 3.6459L1.14598 7.6459C1.09942 7.69234 1.06247 7.74752 1.03727 7.80827C1.01206 7.86901 0.999084 7.93413 0.999084 7.9999C0.999084 8.06567 1.01206 8.13079 1.03727 8.19153C1.06247 8.25228 1.09942 8.30745 1.14598 8.3539L5.14598 12.3539C5.19247 12.4004 5.24766 12.4373 5.30839 12.4624C5.36913 12.4876 5.43423 12.5005 5.49998 12.5005C5.56572 12.5005 5.63082 12.4876 5.69156 12.4624C5.7523 12.4373 5.80749 12.4004 5.85398 12.3539C5.90047 12.3074 5.93734 12.2522 5.9625 12.1915C5.98766 12.1307 6.00061 12.0656 6.00061 11.9999C6.00061 11.9342 5.98766 11.8691 5.9625 11.8083C5.93734 11.7476 5.90047 11.6924 5.85398 11.6459L2.70698 8.4999H14.5C14.6326 8.4999 14.7598 8.44722 14.8535 8.35345C14.9473 8.25968 15 8.13251 15 7.9999Z" fill="currentColor"/>
</svg>
