<svg width="16" height="16" viewBox="0 0 16 16" fill="none" xmlns="http://www.w3.org/2000/svg">
<path fill-rule="evenodd" clip-rule="evenodd" d="M2 13.4999C2 13.6325 2.05268 13.7597 2.14645 13.8535C2.24021 13.9472 2.36739 13.9999 2.5 13.9999H8.5C8.63261 13.9999 8.75979 13.9472 8.85355 13.8535C8.94732 13.7597 9 13.6325 9 13.4999C9 13.3673 8.94732 13.2401 8.85355 13.1463C8.75979 13.0526 8.63261 12.9999 8.5 12.9999H3.707L13.854 2.8539C13.9479 2.76001 14.0006 2.63267 14.0006 2.4999C14.0006 2.36712 13.9479 2.23979 13.854 2.1459C13.7601 2.05201 13.6328 1.99927 13.5 1.99927C13.3672 1.99927 13.2399 2.05201 13.146 2.1459L3 12.2929V7.4999C3 7.36729 2.94732 7.24011 2.85355 7.14635C2.75979 7.05258 2.63261 6.9999 2.5 6.9999C2.36739 6.9999 2.24021 7.05258 2.14645 7.14635C2.05268 7.24011 2 7.36729 2 7.4999V13.4999Z" fill="#1B1B1B"/>
</svg>
