<svg width="16" height="16" viewBox="0 0 16 16" fill="none" xmlns="http://www.w3.org/2000/svg">
<g clip-path="url(#clip0_1419_276)">
<path fill-rule="evenodd" clip-rule="evenodd" d="M2.85398 15.854C2.78405 15.9241 2.69488 15.9719 2.59777 15.9912C2.50066 16.0106 2.39999 16.0007 2.30852 15.9628C2.21704 15.9249 2.13889 15.8606 2.08396 15.7783C2.02903 15.6959 1.9998 15.599 1.99998 15.5V14H0.499979C0.400959 14.0002 0.304115 13.9709 0.221726 13.916C0.139337 13.8611 0.0751125 13.7829 0.037195 13.6915C-0.000722554 13.6 -0.0106257 13.4993 0.00874113 13.4022C0.0281079 13.3051 0.0758724 13.2159 0.145979 13.146L1.64598 11.646C1.6925 11.5996 1.74771 11.5628 1.80845 11.5378C1.86919 11.5127 1.93427 11.4999 1.99998 11.5H3.79298L4.32298 10.97C3.55198 10.168 2.99498 9.39 2.61898 8.65C1.82098 7.075 1.84398 5.654 2.40598 4.558C3.42598 2.565 6.17998 1.809 7.99998 3.233C9.24998 2.253 10.944 2.305 12.212 3.081L13.292 2L12.147 0.854C12.0769 0.784131 12.0292 0.695051 12.0098 0.598036C11.9904 0.501021 12.0002 0.400432 12.038 0.308999C12.0758 0.217567 12.1399 0.139402 12.2221 0.0843973C12.3043 0.0293926 12.401 2.10149e-05 12.5 0L15.5 0C15.6326 0 15.7598 0.0526784 15.8535 0.146447C15.9473 0.240215 16 0.367392 16 0.5V3.5C16.0002 3.59902 15.9709 3.69586 15.916 3.77825C15.8611 3.86064 15.7829 3.92487 15.6914 3.96278C15.6 4.0007 15.4993 4.0106 15.4022 3.99124C15.3051 3.97187 15.2159 3.92411 15.146 3.854L14 2.707L12.994 3.713C13.23 3.961 13.434 4.244 13.594 4.558C14.156 5.654 14.179 7.075 13.381 8.65C12.588 10.213 10.986 11.938 8.27598 13.73L7.99998 13.912L7.72398 13.73C6.77702 13.1131 5.87933 12.4237 5.03898 11.668L4.49998 12.208V14C4.5001 14.0657 4.48726 14.1308 4.46221 14.1915C4.43716 14.2523 4.40038 14.3075 4.35398 14.354L2.85398 15.854ZM5.74698 10.96C6.45626 11.5951 7.2091 12.1799 7.99998 12.71C10.456 11.044 11.827 9.503 12.489 8.198C13.168 6.858 13.096 5.778 12.704 5.013C11.887 3.418 9.61698 2.959 8.35798 4.252L7.99998 4.62L7.64198 4.252C6.38298 2.959 4.11198 3.418 3.29598 5.013C2.90398 5.779 2.83198 6.858 3.51098 8.198C3.83398 8.834 4.32598 9.528 5.02998 10.263L6.89598 8.396C6.98987 8.30211 7.1172 8.24937 7.24998 8.24937C7.38276 8.24937 7.51009 8.30211 7.60398 8.396C7.69787 8.48989 7.75061 8.61722 7.75061 8.75C7.75061 8.88278 7.69787 9.01011 7.60398 9.104L5.74698 10.96V10.96Z" fill="currentColor"/>
</g>
<defs>
<clipPath id="clip0_1419_276">
<rect width="16" height="16" fill="white"/>
</clipPath>
</defs>
</svg>
