<svg width="16" height="16" viewBox="0 0 16 16" fill="none" xmlns="http://www.w3.org/2000/svg">
<g clip-path="url(#clip0_1419_297)">
<path fill-rule="evenodd" clip-rule="evenodd" d="M5.82802 10.1719C5.73426 10.0782 5.60711 10.0255 5.47452 10.0255C5.34194 10.0255 5.21479 10.0782 5.12102 10.1719L1.02502 14.2679V11.4999C1.02502 11.3673 0.972346 11.2401 0.878578 11.1463C0.78481 11.0526 0.657633 10.9999 0.525024 10.9999C0.392416 10.9999 0.265239 11.0526 0.171471 11.1463C0.0777028 11.2401 0.0250244 11.3673 0.0250244 11.4999V15.4749C0.0250244 15.6075 0.0777028 15.7347 0.171471 15.8285C0.265239 15.9222 0.392416 15.9749 0.525024 15.9749H4.50002C4.63263 15.9749 4.75981 15.9222 4.85358 15.8285C4.94735 15.7347 5.00002 15.6075 5.00002 15.4749C5.00002 15.3423 4.94735 15.2151 4.85358 15.1213C4.75981 15.0276 4.63263 14.9749 4.50002 14.9749H1.73202L5.82802 10.8789C5.92176 10.7851 5.97442 10.658 5.97442 10.5254C5.97442 10.3928 5.92176 10.2657 5.82802 10.1719V10.1719ZM10.172 10.1719C10.2658 10.0782 10.3929 10.0255 10.5255 10.0255C10.6581 10.0255 10.7853 10.0782 10.879 10.1719L14.975 14.2679V11.4999C14.975 11.3673 15.0277 11.2401 15.1215 11.1463C15.2152 11.0526 15.3424 10.9999 15.475 10.9999C15.6076 10.9999 15.7348 11.0526 15.8286 11.1463C15.9223 11.2401 15.975 11.3673 15.975 11.4999V15.4749C15.975 15.6075 15.9223 15.7347 15.8286 15.8285C15.7348 15.9222 15.6076 15.9749 15.475 15.9749H11.5C11.3674 15.9749 11.2402 15.9222 11.1465 15.8285C11.0527 15.7347 11 15.6075 11 15.4749C11 15.3423 11.0527 15.2151 11.1465 15.1213C11.2402 15.0276 11.3674 14.9749 11.5 14.9749H14.268L10.172 10.8789C10.0783 10.7851 10.0256 10.658 10.0256 10.5254C10.0256 10.3928 10.0783 10.2657 10.172 10.1719V10.1719ZM10.172 5.8279C10.2658 5.92164 10.3929 5.9743 10.5255 5.9743C10.6581 5.9743 10.7853 5.92164 10.879 5.8279L14.975 1.7319V4.4999C14.975 4.63251 15.0277 4.75969 15.1215 4.85346C15.2152 4.94722 15.3424 4.9999 15.475 4.9999C15.6076 4.9999 15.7348 4.94722 15.8286 4.85346C15.9223 4.75969 15.975 4.63251 15.975 4.4999V0.524902C15.975 0.392294 15.9223 0.265117 15.8286 0.171349C15.7348 0.0775808 15.6076 0.0249023 15.475 0.0249023H11.5C11.3674 0.0249023 11.2402 0.0775808 11.1465 0.171349C11.0527 0.265117 11 0.392294 11 0.524902C11 0.657511 11.0527 0.784688 11.1465 0.878456C11.2402 0.972224 11.3674 1.0249 11.5 1.0249H14.268L10.172 5.1209C10.0783 5.21467 10.0256 5.34182 10.0256 5.4744C10.0256 5.60698 10.0783 5.73414 10.172 5.8279V5.8279ZM5.82802 5.8279C5.73426 5.92164 5.60711 5.9743 5.47452 5.9743C5.34194 5.9743 5.21479 5.92164 5.12102 5.8279L1.02502 1.7319V4.4999C1.02502 4.63251 0.972346 4.75969 0.878578 4.85346C0.78481 4.94722 0.657633 4.9999 0.525024 4.9999C0.392416 4.9999 0.265239 4.94722 0.171471 4.85346C0.0777028 4.75969 0.0250244 4.63251 0.0250244 4.4999V0.524902C0.0250244 0.392294 0.0777028 0.265117 0.171471 0.171349C0.265239 0.0775808 0.392416 0.0249023 0.525024 0.0249023H4.50002C4.63263 0.0249023 4.75981 0.0775808 4.85358 0.171349C4.94735 0.265117 5.00002 0.392294 5.00002 0.524902C5.00002 0.657511 4.94735 0.784688 4.85358 0.878456C4.75981 0.972224 4.63263 1.0249 4.50002 1.0249H1.73202L5.82802 5.1209C5.92176 5.21467 5.97442 5.34182 5.97442 5.4744C5.97442 5.60698 5.92176 5.73414 5.82802 5.8279V5.8279Z" fill="currentColor"/>
</g>
<defs>
<clipPath id="clip0_1419_297">
<rect width="16" height="16" fill="white"/>
</clipPath>
</defs>
</svg>
