<svg width="16" height="16" viewBox="0 0 16 16" fill="none" xmlns="http://www.w3.org/2000/svg">
<path fill-rule="evenodd" clip-rule="evenodd" d="M14 2.5C14 2.36739 13.9473 2.24021 13.8536 2.14645C13.7598 2.05268 13.6326 2 13.5 2H7.50002C7.36741 2 7.24024 2.05268 7.14647 2.14645C7.0527 2.24021 7.00002 2.36739 7.00002 2.5C7.00002 2.63261 7.0527 2.75979 7.14647 2.85355C7.24024 2.94732 7.36741 3 7.50002 3H12.293L2.14602 13.146C2.09953 13.1925 2.06266 13.2477 2.0375 13.3084C2.01234 13.3692 1.99939 13.4343 1.99939 13.5C1.99939 13.5657 2.01234 13.6308 2.0375 13.6916C2.06266 13.7523 2.09953 13.8075 2.14602 13.854C2.19251 13.9005 2.2477 13.9374 2.30844 13.9625C2.36918 13.9877 2.43428 14.0006 2.50002 14.0006C2.56577 14.0006 2.63087 13.9877 2.6916 13.9625C2.75234 13.9374 2.80753 13.9005 2.85402 13.854L13 3.707V8.5C13 8.63261 13.0527 8.75979 13.1465 8.85355C13.2402 8.94732 13.3674 9 13.5 9C13.6326 9 13.7598 8.94732 13.8536 8.85355C13.9473 8.75979 14 8.63261 14 8.5V2.5Z" fill="#1B1B1B"/>
</svg>
