<svg width="16" height="16" viewBox="0 0 16 16" fill="none" xmlns="http://www.w3.org/2000/svg">
<path fill-rule="evenodd" clip-rule="evenodd" d="M14.5 1.5C14.6326 1.5 14.7598 1.55268 14.8535 1.64645C14.9473 1.74021 15 1.86739 15 2V6.8C15 7.1283 14.9353 7.45339 14.8097 7.75671C14.684 8.06002 14.4999 8.33562 14.2677 8.56777C14.0356 8.79991 13.76 8.98406 13.4567 9.1097C13.1534 9.23534 12.8283 9.3 12.5 9.3H2.70698L6.05398 12.646C6.14786 12.7399 6.20061 12.8672 6.20061 13C6.20061 13.1328 6.14786 13.2601 6.05398 13.354C5.96009 13.4479 5.83275 13.5006 5.69998 13.5006C5.5672 13.5006 5.43986 13.4479 5.34598 13.354L1.14598 9.154C1.09942 9.10755 1.06247 9.05238 1.03727 8.99163C1.01206 8.93089 0.999084 8.86577 0.999084 8.8C0.999084 8.73423 1.01206 8.66911 1.03727 8.60837C1.06247 8.54762 1.09942 8.49245 1.14598 8.446L5.14598 4.446C5.23986 4.35211 5.3672 4.29937 5.49998 4.29937C5.63275 4.29937 5.76009 4.35211 5.85398 4.446C5.94786 4.53989 6.00061 4.66722 6.00061 4.8C6.00061 4.93278 5.94786 5.06011 5.85398 5.154L2.70698 8.3H12.5C12.8978 8.3 13.2793 8.14196 13.5606 7.86066C13.8419 7.57936 14 7.19782 14 6.8V2C14 1.86739 14.0527 1.74021 14.1464 1.64645C14.2402 1.55268 14.3674 1.5 14.5 1.5Z" fill="#1B1B1B"/>
</svg>
