<svg width="16" height="16" viewBox="0 0 16 16" fill="none" xmlns="http://www.w3.org/2000/svg">
<path fill-rule="evenodd" clip-rule="evenodd" d="M8.00002 4C8.13263 4 8.25981 4.05268 8.35358 4.14645C8.44734 4.24021 8.50002 4.36739 8.50002 4.5V10.293L10.646 8.146C10.6925 8.09951 10.7477 8.06264 10.8084 8.03748C10.8692 8.01232 10.9343 7.99937 11 7.99937C11.0658 7.99937 11.1309 8.01232 11.1916 8.03748C11.2523 8.06264 11.3075 8.09951 11.354 8.146C11.4005 8.19249 11.4374 8.24768 11.4625 8.30842C11.4877 8.36916 11.5007 8.43426 11.5007 8.5C11.5007 8.56574 11.4877 8.63084 11.4625 8.69158C11.4374 8.75232 11.4005 8.80751 11.354 8.854L8.35402 11.854C8.30758 11.9006 8.2524 11.9375 8.19165 11.9627C8.13091 11.9879 8.06579 12.0009 8.00002 12.0009C7.93425 12.0009 7.86913 11.9879 7.80839 11.9627C7.74764 11.9375 7.69247 11.9006 7.64602 11.854L4.64602 8.854C4.59953 8.80751 4.56266 8.75232 4.5375 8.69158C4.51234 8.63084 4.49939 8.56574 4.49939 8.5C4.49939 8.43426 4.51234 8.36916 4.5375 8.30842C4.56266 8.24768 4.59953 8.19249 4.64602 8.146C4.73991 8.05211 4.86725 7.99937 5.00002 7.99937C5.06577 7.99937 5.13087 8.01232 5.19161 8.03748C5.25234 8.06264 5.30753 8.09951 5.35402 8.146L7.50002 10.293V4.5C7.50002 4.36739 7.5527 4.24021 7.64647 4.14645C7.74024 4.05268 7.86741 4 8.00002 4V4Z" fill="#1B1B1B"/>
</svg>
