<svg width="16" height="16" viewBox="0 0 16 16" fill="none" xmlns="http://www.w3.org/2000/svg">
<g clip-path="url(#clip0_1419_298)">
<path fill-rule="evenodd" clip-rule="evenodd" d="M7.64598 0.145917C7.69242 0.099354 7.7476 0.0624111 7.80834 0.0372047C7.86909 0.0119982 7.93421 -0.000976563 7.99998 -0.000976562C8.06575 -0.000976563 8.13087 0.0119982 8.19161 0.0372047C8.25236 0.0624111 8.30753 0.099354 8.35398 0.145917L10.354 2.14592C10.4005 2.19241 10.4373 2.24759 10.4625 2.30833C10.4877 2.36907 10.5006 2.43417 10.5006 2.49992C10.5006 2.56566 10.4877 2.63076 10.4625 2.6915C10.4373 2.75224 10.4005 2.80743 10.354 2.85392C10.3075 2.90041 10.2523 2.93728 10.1916 2.96244C10.1308 2.9876 10.0657 3.00055 9.99998 3.00055C9.93423 3.00055 9.86913 2.9876 9.80839 2.96244C9.74766 2.93728 9.69247 2.90041 9.64598 2.85392L8.49998 1.70692V5.49992C8.49998 5.63253 8.4473 5.7597 8.35353 5.85347C8.25976 5.94724 8.13259 5.99992 7.99998 5.99992C7.86737 5.99992 7.74019 5.94724 7.64642 5.85347C7.55266 5.7597 7.49998 5.63253 7.49998 5.49992V1.70692L6.35398 2.85392C6.26009 2.9478 6.13275 3.00055 5.99998 3.00055C5.8672 3.00055 5.73986 2.9478 5.64598 2.85392C5.55209 2.76003 5.49935 2.63269 5.49935 2.49992C5.49935 2.36714 5.55209 2.2398 5.64598 2.14592L7.64598 0.145917V0.145917ZM7.99998 9.99992C8.13259 9.99992 8.25976 10.0526 8.35353 10.1464C8.4473 10.2401 8.49998 10.3673 8.49998 10.4999V14.2929L9.64598 13.1459C9.73986 13.052 9.8672 12.9993 9.99998 12.9993C10.1328 12.9993 10.2601 13.052 10.354 13.1459C10.4479 13.2398 10.5006 13.3671 10.5006 13.4999C10.5006 13.6327 10.4479 13.76 10.354 13.8539L8.35398 15.8539C8.30753 15.9005 8.25236 15.9374 8.19161 15.9626C8.13087 15.9878 8.06575 16.0008 7.99998 16.0008C7.93421 16.0008 7.86909 15.9878 7.80834 15.9626C7.7476 15.9374 7.69242 15.9005 7.64598 15.8539L5.64598 13.8539C5.59949 13.8074 5.56261 13.7522 5.53745 13.6915C5.5123 13.6308 5.49935 13.5657 5.49935 13.4999C5.49935 13.4342 5.5123 13.3691 5.53745 13.3083C5.56261 13.2476 5.59949 13.1924 5.64598 13.1459C5.73986 13.052 5.8672 12.9993 5.99998 12.9993C6.06572 12.9993 6.13082 13.0122 6.19156 13.0374C6.2523 13.0626 6.30749 13.0994 6.35398 13.1459L7.49998 14.2929V10.4999C7.49998 10.3673 7.55266 10.2401 7.64642 10.1464C7.74019 10.0526 7.86737 9.99992 7.99998 9.99992V9.99992ZM0.145978 8.35392C0.099415 8.30747 0.0624722 8.2523 0.0372657 8.19155C0.0120593 8.13081 -0.000915527 8.06568 -0.000915527 7.99992C-0.000915527 7.93415 0.0120593 7.86903 0.0372657 7.80828C0.0624722 7.74754 0.099415 7.69236 0.145978 7.64592L2.14598 5.64592C2.23986 5.55203 2.3672 5.49929 2.49998 5.49929C2.63275 5.49929 2.76009 5.55203 2.85398 5.64592C2.94787 5.7398 3.00061 5.86714 3.00061 5.99992C3.00061 6.13269 2.94787 6.26003 2.85398 6.35392L1.70698 7.49992H5.49998C5.63259 7.49992 5.75976 7.5526 5.85353 7.64636C5.9473 7.74013 5.99998 7.86731 5.99998 7.99992C5.99998 8.13253 5.9473 8.2597 5.85353 8.35347C5.75976 8.44724 5.63259 8.49992 5.49998 8.49992H1.70698L2.85398 9.64592C2.94787 9.7398 3.00061 9.86714 3.00061 9.99992C3.00061 10.1327 2.94787 10.26 2.85398 10.3539C2.76009 10.4478 2.63275 10.5005 2.49998 10.5005C2.3672 10.5005 2.23986 10.4478 2.14598 10.3539L0.145978 8.35392V8.35392ZM9.99998 7.99992C9.99998 7.86731 10.0527 7.74013 10.1464 7.64636C10.2402 7.5526 10.3674 7.49992 10.5 7.49992H14.293L13.146 6.35392C13.0995 6.30743 13.0626 6.25224 13.0375 6.1915C13.0123 6.13076 12.9993 6.06566 12.9993 5.99992C12.9993 5.93417 13.0123 5.86907 13.0375 5.80833C13.0626 5.74759 13.0995 5.6924 13.146 5.64592C13.2399 5.55203 13.3672 5.49929 13.5 5.49929C13.5657 5.49929 13.6308 5.51223 13.6916 5.53739C13.7523 5.56255 13.8075 5.59943 13.854 5.64592L15.854 7.64592C15.9005 7.69236 15.9375 7.74754 15.9627 7.80828C15.9879 7.86903 16.0009 7.93415 16.0009 7.99992C16.0009 8.06568 15.9879 8.13081 15.9627 8.19155C15.9375 8.2523 15.9005 8.30747 15.854 8.35392L13.854 10.3539C13.8075 10.4004 13.7523 10.4373 13.6916 10.4624C13.6308 10.4876 13.5657 10.5005 13.5 10.5005C13.4342 10.5005 13.3691 10.4876 13.3084 10.4624C13.2477 10.4373 13.1925 10.4004 13.146 10.3539C13.0995 10.3074 13.0626 10.2522 13.0375 10.1915C13.0123 10.1308 12.9993 10.0657 12.9993 9.99992C12.9993 9.93417 13.0123 9.86907 13.0375 9.80833C13.0626 9.74759 13.0995 9.6924 13.146 9.64592L14.293 8.49992H10.5C10.3674 8.49992 10.2402 8.44724 10.1464 8.35347C10.0527 8.2597 9.99998 8.13253 9.99998 7.99992Z" fill="currentColor"/>
</g>
<defs>
<clipPath id="clip0_1419_298">
<rect width="16" height="16" fill="white"/>
</clipPath>
</defs>
</svg>
