<svg width="16" height="16" viewBox="0 0 16 16" fill="none" xmlns="http://www.w3.org/2000/svg">
<g clip-path="url(#clip0_1419_296)">
<path fill-rule="evenodd" clip-rule="evenodd" d="M1 7.99992C1 7.86731 1.05268 7.74013 1.14645 7.64636C1.24021 7.5526 1.36739 7.49992 1.5 7.49992H14.5C14.6326 7.49992 14.7598 7.5526 14.8536 7.64636C14.9473 7.74013 15 7.86731 15 7.99992C15 8.13253 14.9473 8.2597 14.8536 8.35347C14.7598 8.44724 14.6326 8.49992 14.5 8.49992H1.5C1.36739 8.49992 1.24021 8.44724 1.14645 8.35347C1.05268 8.2597 1 8.13253 1 7.99992V7.99992ZM7.646 0.145917C7.69245 0.099354 7.74762 0.0624111 7.80837 0.0372047C7.86911 0.0119982 7.93423 -0.000976563 8 -0.000976562C8.06577 -0.000976563 8.13089 0.0119982 8.19163 0.0372047C8.25238 0.0624111 8.30755 0.099354 8.354 0.145917L10.354 2.14592C10.4005 2.19241 10.4374 2.24759 10.4625 2.30833C10.4877 2.36907 10.5006 2.43417 10.5006 2.49992C10.5006 2.56566 10.4877 2.63076 10.4625 2.6915C10.4374 2.75224 10.4005 2.80743 10.354 2.85392C10.3075 2.90041 10.2523 2.93728 10.1916 2.96244C10.1308 2.9876 10.0657 3.00055 10 3.00055C9.93426 3.00055 9.86916 2.9876 9.80842 2.96244C9.74768 2.93728 9.69249 2.90041 9.646 2.85392L8.5 1.70692V5.49992C8.5 5.63253 8.44732 5.7597 8.35355 5.85347C8.25979 5.94724 8.13261 5.99992 8 5.99992C7.86739 5.99992 7.74021 5.94724 7.64645 5.85347C7.55268 5.7597 7.5 5.63253 7.5 5.49992V1.70692L6.354 2.85392C6.26011 2.9478 6.13278 3.00055 6 3.00055C5.86722 3.00055 5.73989 2.9478 5.646 2.85392C5.55211 2.76003 5.49937 2.63269 5.49937 2.49992C5.49937 2.36714 5.55211 2.2398 5.646 2.14592L7.646 0.145917V0.145917ZM8 9.99992C8.13261 9.99992 8.25979 10.0526 8.35355 10.1464C8.44732 10.2401 8.5 10.3673 8.5 10.4999V14.2929L9.646 13.1459C9.73989 13.052 9.86722 12.9993 10 12.9993C10.1328 12.9993 10.2601 13.052 10.354 13.1459C10.4479 13.2398 10.5006 13.3671 10.5006 13.4999C10.5006 13.6327 10.4479 13.76 10.354 13.8539L8.354 15.8539C8.30755 15.9005 8.25238 15.9374 8.19163 15.9626C8.13089 15.9878 8.06577 16.0008 8 16.0008C7.93423 16.0008 7.86911 15.9878 7.80837 15.9626C7.74762 15.9374 7.69245 15.9005 7.646 15.8539L5.646 13.8539C5.59951 13.8074 5.56264 13.7522 5.53748 13.6915C5.51232 13.6308 5.49937 13.5657 5.49937 13.4999C5.49937 13.4342 5.51232 13.3691 5.53748 13.3083C5.56264 13.2476 5.59951 13.1924 5.646 13.1459C5.73989 13.052 5.86722 12.9993 6 12.9993C6.06574 12.9993 6.13084 13.0122 6.19158 13.0374C6.25232 13.0626 6.30751 13.0994 6.354 13.1459L7.5 14.2929V10.4999C7.5 10.3673 7.55268 10.2401 7.64645 10.1464C7.74021 10.0526 7.86739 9.99992 8 9.99992V9.99992Z" fill="currentColor"/>
</g>
<defs>
<clipPath id="clip0_1419_296">
<rect width="16" height="16" fill="white"/>
</clipPath>
</defs>
</svg>
