<svg width="16" height="16" viewBox="0 0 16 16" fill="none" xmlns="http://www.w3.org/2000/svg">
<g clip-path="url(#clip0_1419_234)">
<path fill-rule="evenodd" clip-rule="evenodd" d="M14.854 4.8539C14.9006 4.80745 14.9375 4.75228 14.9627 4.69153C14.9879 4.63079 15.0009 4.56567 15.0009 4.4999C15.0009 4.43413 14.9879 4.36901 14.9627 4.30827C14.9375 4.24752 14.9006 4.19234 14.854 4.1459L10.854 0.145899C10.7601 0.0520125 10.6328 -0.000732425 10.5 -0.000732422C10.3672 -0.000732419 10.2399 0.0520125 10.146 0.145899C10.0521 0.239786 9.99937 0.367123 9.99937 0.499899C9.99937 0.632675 10.0521 0.760012 10.146 0.853899L13.293 3.9999H3.5C2.83696 3.9999 2.20107 4.26329 1.73223 4.73213C1.26339 5.20097 1 5.83686 1 6.4999V14.4999C1 14.6325 1.05268 14.7597 1.14645 14.8535C1.24021 14.9472 1.36739 14.9999 1.5 14.9999C1.63261 14.9999 1.75979 14.9472 1.85355 14.8535C1.94732 14.7597 2 14.6325 2 14.4999V6.4999C2 6.10207 2.15804 5.72054 2.43934 5.43924C2.72064 5.15793 3.10218 4.9999 3.5 4.9999H13.293L10.146 8.1459C10.0521 8.23979 9.99937 8.36712 9.99937 8.4999C9.99937 8.63267 10.0521 8.76001 10.146 8.8539C10.2399 8.94779 10.3672 9.00053 10.5 9.00053C10.6328 9.00053 10.7601 8.94779 10.854 8.8539L14.854 4.8539V4.8539Z" fill="#1B1B1B"/>
</g>
<defs>
<clipPath id="clip0_1419_234">
<rect width="16" height="16" fill="white"/>
</clipPath>
</defs>
</svg>
