<svg width="16" height="16" viewBox="0 0 16 16" fill="none" xmlns="http://www.w3.org/2000/svg">
<path d="M13.106 7.22194C13.106 4.25494 10.857 2.18994 7.62403 2.18994C4.27403 2.18994 1.97803 4.50794 1.97803 7.89194C1.97803 11.3849 4.21303 13.5999 7.74003 13.5999C8.60203 13.5999 9.42903 13.4769 10.044 13.2649V12.4029C9.61403 12.6019 8.69003 12.7309 7.75403 12.7309C4.82803 12.7309 2.94103 10.8509 2.94103 7.93294C2.94103 5.08894 4.86203 3.05194 7.53503 3.05194C10.27 3.05194 12.143 4.73994 12.143 7.20794C12.143 8.88994 11.589 9.97694 10.727 9.97694C10.235 9.97694 9.95503 9.69694 9.95503 9.21694V5.20594H8.92303V6.03994H8.81303C8.54703 5.44494 7.93203 5.07594 7.21303 5.07594C5.81303 5.07594 4.83503 6.23794 4.83503 7.89894C4.83503 9.63594 5.79203 10.8049 7.21403 10.8049C8.01403 10.8049 8.62903 10.4149 8.92303 9.71794H9.03303C9.11403 10.3879 9.73603 10.8659 10.536 10.8659C12.108 10.8659 13.106 9.45094 13.106 7.22294V7.22194ZM5.92903 7.92594C5.92903 6.72894 6.46903 6.01894 7.38503 6.01894C8.31503 6.01894 8.90903 6.75694 8.90903 7.92594C8.90903 9.09494 8.30803 9.83994 7.37103 9.83994C6.47603 9.83994 5.92903 9.11494 5.92903 7.92594Z" fill="currentColor"/>
</svg>
