<svg width="16" height="16" viewBox="0 0 16 16" fill="none" xmlns="http://www.w3.org/2000/svg">
<path d="M15.683 3C15.683 2.46957 15.4723 1.96086 15.0972 1.58579C14.7221 1.21071 14.2134 1 13.683 1H6.60298C6.31443 0.999878 6.02926 1.0622 5.76706 1.18268C5.50486 1.30317 5.27183 1.47896 5.08398 1.698L0.240983 7.35C0.0855207 7.53127 6.10352e-05 7.76219 6.10352e-05 8.001C6.10352e-05 8.23981 0.0855207 8.47073 0.240983 8.652L5.08398 14.302C5.27183 14.521 5.50486 14.6968 5.76706 14.8173C6.02926 14.9378 6.31443 15.0001 6.60298 15H13.683C14.2134 15 14.7221 14.7893 15.0972 14.4142C15.4723 14.0391 15.683 13.5304 15.683 13V3ZM5.82898 5.854C5.7825 5.80758 5.74561 5.75245 5.72042 5.69177C5.69524 5.6311 5.68225 5.56605 5.68221 5.50035C5.68216 5.43466 5.69505 5.36959 5.72015 5.30888C5.74525 5.24816 5.78206 5.19299 5.82848 5.1465C5.87491 5.10001 5.93003 5.06312 5.99071 5.03794C6.05139 5.01275 6.11643 4.99977 6.18213 4.99972C6.24783 4.99968 6.31289 5.01257 6.3736 5.03767C6.43432 5.06277 6.4895 5.09958 6.53598 5.146L8.68298 7.293L10.829 5.146C10.8755 5.09958 10.9306 5.06277 10.9914 5.03767C11.0521 5.01257 11.1171 4.99968 11.1828 4.99972C11.2485 4.99977 11.3136 5.01275 11.3743 5.03794C11.4349 5.06312 11.4901 5.10001 11.5365 5.1465C11.5829 5.19299 11.6197 5.24816 11.6448 5.30888C11.6699 5.36959 11.6828 5.43466 11.6828 5.50035C11.6827 5.56605 11.6697 5.6311 11.6445 5.69177C11.6194 5.75245 11.5825 5.80758 11.536 5.854L9.38998 8L11.536 10.146C11.6299 10.2398 11.6827 10.367 11.6828 10.4996C11.6829 10.6323 11.6302 10.7596 11.5365 10.8535C11.4427 10.9474 11.3155 11.0002 11.1828 11.0003C11.0502 11.0004 10.9229 10.9478 10.829 10.854L8.68298 8.707L6.53598 10.854C6.4895 10.9004 6.43432 10.9372 6.3736 10.9623C6.31289 10.9874 6.24783 11.0003 6.18213 11.0003C6.11643 11.0002 6.05139 10.9872 5.99071 10.9621C5.93003 10.9369 5.87491 10.9 5.82848 10.8535C5.78206 10.807 5.74525 10.7518 5.72015 10.6911C5.69505 10.6304 5.68216 10.5653 5.68221 10.4996C5.6823 10.367 5.7351 10.2398 5.82898 10.146L7.97598 8L5.82898 5.854Z" fill="currentColor"/>
</svg>
