<svg width="16" height="16" viewBox="0 0 16 16" fill="none" xmlns="http://www.w3.org/2000/svg">
<path d="M5.82999 5.14591C5.78343 5.19235 5.74649 5.24753 5.72128 5.30827C5.69607 5.36902 5.6831 5.43414 5.6831 5.49991C5.6831 5.56567 5.69607 5.63079 5.72128 5.69154C5.74649 5.75228 5.78343 5.80746 5.82999 5.85391L7.97499 7.99991L5.82799 10.1459C5.7341 10.2397 5.68131 10.3669 5.68121 10.4996C5.68117 10.5652 5.69406 10.6303 5.71916 10.691C5.74426 10.7517 5.78107 10.8069 5.82749 10.8534C5.87391 10.8999 5.92904 10.9368 5.98972 10.962C6.0504 10.9872 6.11544 11.0001 6.18114 11.0002C6.31382 11.0003 6.4411 10.9477 6.53499 10.8539L8.68199 8.7069L10.828 10.8539C10.9219 10.9477 11.0492 11.0003 11.1818 11.0002C11.3145 11.0001 11.4417 10.9473 11.5355 10.8534C11.6292 10.7595 11.6819 10.6322 11.6818 10.4996C11.6817 10.3669 11.6289 10.2397 11.535 10.1459L9.38999 7.99991L11.536 5.85391C11.6299 5.76015 11.6827 5.63294 11.6828 5.50026C11.6829 5.36758 11.6302 5.24029 11.5365 5.14641C11.4427 5.05252 11.3155 4.99972 11.1828 4.99963C11.0502 4.99953 10.9229 5.05215 10.829 5.14591L8.68299 7.29291L6.53599 5.14591C6.44223 5.05217 6.31507 4.99951 6.18249 4.99951C6.04991 4.99951 5.92276 5.05217 5.82899 5.14591H5.82999Z" fill="#1B1B1B"/>
<path d="M13.683 1C14.2134 1 14.7221 1.21071 15.0972 1.58579C15.4723 1.96086 15.683 2.46957 15.683 3V13C15.683 13.5304 15.4723 14.0391 15.0972 14.4142C14.7221 14.7893 14.2134 15 13.683 15H6.60298C6.31443 15.0001 6.02926 14.9378 5.76706 14.8173C5.50486 14.6968 5.27183 14.521 5.08398 14.302L0.240983 8.65C0.0855207 8.46873 6.10352e-05 8.23781 6.10352e-05 7.999C6.10352e-05 7.76019 0.0855207 7.52927 0.240983 7.348L5.08398 1.7C5.27165 1.4806 5.50459 1.30443 5.7668 1.18359C6.02901 1.06276 6.31427 1.00013 6.60298 1H13.683ZM6.60298 2C6.45854 1.99999 6.31581 2.03127 6.18462 2.09169C6.05342 2.15211 5.93687 2.24023 5.84298 2.35L0.999983 8L5.84398 13.65C5.93776 13.7596 6.05415 13.8477 6.18516 13.9081C6.31618 13.9685 6.45871 13.9999 6.60298 14H13.683C13.9482 14 14.2026 13.8946 14.3901 13.7071C14.5776 13.5196 14.683 13.2652 14.683 13V3C14.683 2.73478 14.5776 2.48043 14.3901 2.29289C14.2026 2.10536 13.9482 2 13.683 2H6.60298Z" fill="#1B1B1B"/>
</svg>
