<svg width="16" height="16" viewBox="0 0 16 16" fill="none" xmlns="http://www.w3.org/2000/svg">
<path fill-rule="evenodd" clip-rule="evenodd" d="M10.854 8.14592C10.9006 8.19236 10.9375 8.24754 10.9627 8.30828C10.9879 8.36903 11.0009 8.43415 11.0009 8.49992C11.0009 8.56568 10.9879 8.63081 10.9627 8.69155C10.9375 8.7523 10.9006 8.80747 10.854 8.85392L7.85402 11.8539C7.80758 11.9005 7.7524 11.9374 7.69166 11.9626C7.63091 11.9878 7.56579 12.0008 7.50002 12.0008C7.43425 12.0008 7.36913 11.9878 7.30839 11.9626C7.24764 11.9374 7.19247 11.9005 7.14602 11.8539L5.64602 10.3539C5.59953 10.3074 5.56266 10.2522 5.5375 10.1915C5.51234 10.1308 5.49939 10.0657 5.49939 9.99992C5.49939 9.93417 5.51234 9.86907 5.5375 9.80833C5.56266 9.74759 5.59953 9.6924 5.64602 9.64592C5.73991 9.55203 5.86725 9.49929 6.00002 9.49929C6.06577 9.49929 6.13087 9.51223 6.19161 9.53739C6.25234 9.56255 6.30753 9.59943 6.35402 9.64592L7.50002 10.7929L10.146 8.14592C10.1925 8.09935 10.2476 8.06241 10.3084 8.0372C10.3691 8.012 10.4343 7.99902 10.5 7.99902C10.5658 7.99902 10.6309 8.012 10.6917 8.0372C10.7524 8.06241 10.8076 8.09935 10.854 8.14592V8.14592Z" fill="currentColor"/>
<path d="M8 1C8.66304 1 9.29893 1.26339 9.76777 1.73223C10.2366 2.20107 10.5 2.83696 10.5 3.5V4H5.5V3.5C5.5 2.83696 5.76339 2.20107 6.23223 1.73223C6.70107 1.26339 7.33696 1 8 1V1ZM11.5 4V3.5C11.5 2.57174 11.1313 1.6815 10.4749 1.02513C9.8185 0.368749 8.92826 0 8 0C7.07174 0 6.1815 0.368749 5.52513 1.02513C4.86875 1.6815 4.5 2.57174 4.5 3.5V4H1V14C1 14.5304 1.21071 15.0391 1.58579 15.4142C1.96086 15.7893 2.46957 16 3 16H13C13.5304 16 14.0391 15.7893 14.4142 15.4142C14.7893 15.0391 15 14.5304 15 14V4H11.5ZM2 5H14V14C14 14.2652 13.8946 14.5196 13.7071 14.7071C13.5196 14.8946 13.2652 15 13 15H3C2.73478 15 2.48043 14.8946 2.29289 14.7071C2.10536 14.5196 2 14.2652 2 14V5Z" fill="currentColor"/>
</svg>
