<svg width="16" height="16" viewBox="0 0 16 16" fill="none" xmlns="http://www.w3.org/2000/svg">
<path fill-rule="evenodd" clip-rule="evenodd" d="M6.14604 8.14592C6.19248 8.09935 6.24766 8.06241 6.30841 8.0372C6.36915 8.012 6.43427 7.99902 6.50004 7.99902C6.56581 7.99902 6.63093 8.012 6.69167 8.0372C6.75242 8.06241 6.80759 8.09935 6.85404 8.14592L8.00004 9.29292L9.14604 8.14592C9.23993 8.05203 9.36726 7.99929 9.50004 7.99929C9.63281 7.99929 9.76015 8.05203 9.85404 8.14592C9.94793 8.2398 10.0007 8.36714 10.0007 8.49992C10.0007 8.63269 9.94793 8.76003 9.85404 8.85392L8.70704 9.99992L9.85404 11.1459C9.94793 11.2398 10.0007 11.3671 10.0007 11.4999C10.0007 11.6327 9.94793 11.76 9.85404 11.8539C9.76015 11.9478 9.63281 12.0005 9.50004 12.0005C9.36726 12.0005 9.23993 11.9478 9.14604 11.8539L8.00004 10.7069L6.85404 11.8539C6.76015 11.9478 6.63281 12.0005 6.50004 12.0005C6.36726 12.0005 6.23993 11.9478 6.14604 11.8539C6.05215 11.76 5.99941 11.6327 5.99941 11.4999C5.99941 11.3671 6.05215 11.2398 6.14604 11.1459L7.29304 9.99992L6.14604 8.85392C6.09948 8.80747 6.06253 8.7523 6.03733 8.69155C6.01212 8.63081 5.99915 8.56568 5.99915 8.49992C5.99915 8.43415 6.01212 8.36903 6.03733 8.30828C6.06253 8.24754 6.09948 8.19236 6.14604 8.14592V8.14592Z" fill="currentColor"/>
<path d="M8 1C8.66304 1 9.29893 1.26339 9.76777 1.73223C10.2366 2.20107 10.5 2.83696 10.5 3.5V4H5.5V3.5C5.5 2.83696 5.76339 2.20107 6.23223 1.73223C6.70107 1.26339 7.33696 1 8 1V1ZM11.5 4V3.5C11.5 2.57174 11.1313 1.6815 10.4749 1.02513C9.8185 0.368749 8.92826 0 8 0C7.07174 0 6.1815 0.368749 5.52513 1.02513C4.86875 1.6815 4.5 2.57174 4.5 3.5V4H1V14C1 14.5304 1.21071 15.0391 1.58579 15.4142C1.96086 15.7893 2.46957 16 3 16H13C13.5304 16 14.0391 15.7893 14.4142 15.4142C14.7893 15.0391 15 14.5304 15 14V4H11.5ZM2 5H14V14C14 14.2652 13.8946 14.5196 13.7071 14.7071C13.5196 14.8946 13.2652 15 13 15H3C2.73478 15 2.48043 14.8946 2.29289 14.7071C2.10536 14.5196 2 14.2652 2 14V5Z" fill="currentColor"/>
</svg>
