<svg width="16" height="16" viewBox="0 0 16 16" fill="none" xmlns="http://www.w3.org/2000/svg">
<path fill-rule="evenodd" clip-rule="evenodd" d="M8.49 10.92C19.412 3.382 11.28 -2.387 8 0.986C4.719 -2.387 -3.413 3.382 7.51 10.92L7.276 11.388C7.26129 11.4174 7.25252 11.4494 7.25019 11.4822C7.24786 11.5151 7.25201 11.548 7.26241 11.5792C7.28341 11.6422 7.32859 11.6943 7.388 11.724C7.44741 11.7537 7.51618 11.7586 7.57919 11.7376C7.6422 11.7166 7.69429 11.6714 7.724 11.612L7.764 11.532C7.773 11.702 7.788 11.847 7.815 11.982C7.883 12.326 8.023 12.604 8.263 13.084L8.276 13.112C8.488 13.534 8.458 13.962 8.326 14.358C8.191 14.76 7.96 15.109 7.792 15.361C7.75513 15.4162 7.74169 15.4837 7.75463 15.5488C7.76757 15.6139 7.80583 15.6711 7.861 15.708C7.91616 15.7449 7.98371 15.7583 8.04879 15.7454C8.11386 15.7324 8.17113 15.6942 8.208 15.639L8.212 15.632C8.378 15.384 8.643 14.986 8.8 14.517C8.96 14.038 9.012 13.466 8.724 12.888C8.466 12.373 8.359 12.156 8.305 11.884C8.28676 11.7885 8.27441 11.692 8.268 11.595L8.276 11.612C8.3057 11.6714 8.35779 11.7166 8.4208 11.7376C8.48381 11.7586 8.55259 11.7537 8.612 11.724C8.67141 11.6943 8.71658 11.6422 8.73758 11.5792C8.75859 11.5162 8.7537 11.4474 8.724 11.388L8.489 10.92H8.49ZM6.726 1.269C5.559 0.659 3.926 1.127 3.272 2.404C3.035 2.867 2.912 3.484 3.07 4.254C3.125 4.524 3.537 4.451 3.597 4.183C3.882 2.927 4.774 1.721 6.586 1.655C6.82 1.647 6.934 1.377 6.726 1.269V1.269Z" fill="#1B1B1B"/>
</svg>
