<svg width="16" height="16" viewBox="0 0 16 16" fill="none" xmlns="http://www.w3.org/2000/svg">
<g clip-path="url(#clip0_1419_1573)">
<path fill-rule="evenodd" clip-rule="evenodd" d="M7.99999 2.41997L7.28299 1.68297C6.15299 0.521973 4.03999 0.905973 3.27299 2.40297C2.92299 3.08797 2.82199 4.10997 3.50899 5.46497C4.15999 6.75297 5.51999 8.31997 7.99999 10.042C10.479 8.31897 11.839 6.75197 12.491 5.46497C13.178 4.10997 13.078 3.08797 12.727 2.40397C11.96 0.905973 9.84699 0.521973 8.71699 1.68297L7.99999 2.41997ZM7.50999 10.92C-3.27 3.47997 4.50999 -2.23503 7.86899 0.856973C7.91399 0.897973 7.958 0.940973 8.001 0.985973C8.044 0.940973 8.088 0.897973 8.133 0.856973C11.493 -2.23503 19.27 3.48097 8.48999 10.92L8.725 11.388C8.7397 11.4174 8.74847 11.4494 8.7508 11.4822C8.75314 11.515 8.74898 11.548 8.73858 11.5792C8.72818 11.6104 8.71174 11.6392 8.69019 11.6641C8.66864 11.6889 8.64241 11.7093 8.61299 11.724C8.58358 11.7387 8.55155 11.7475 8.51875 11.7498C8.48594 11.7521 8.453 11.748 8.4218 11.7376C8.3906 11.7272 8.36175 11.7107 8.33691 11.6892C8.31206 11.6676 8.2917 11.6414 8.277 11.612L8.26899 11.595C8.27699 11.705 8.28899 11.797 8.30599 11.885C8.35999 12.155 8.467 12.373 8.725 12.888C9.013 13.466 8.95999 14.038 8.80099 14.517C8.64399 14.986 8.379 15.384 8.213 15.632L8.20899 15.639C8.19074 15.6663 8.16729 15.6897 8.13997 15.708C8.11265 15.7262 8.08201 15.7389 8.04979 15.7453C8.01756 15.7517 7.98439 15.7517 7.95217 15.7453C7.91995 15.7389 7.88931 15.7262 7.86199 15.708C7.83468 15.6897 7.81123 15.6663 7.79298 15.6389C7.77473 15.6116 7.76204 15.581 7.75563 15.5488C7.74922 15.5165 7.74922 15.4834 7.75563 15.4512C7.76205 15.4189 7.77474 15.3883 7.79299 15.361C7.96099 15.109 8.19299 14.761 8.32599 14.358C8.45899 13.962 8.489 13.534 8.277 13.112L8.26399 13.084C8.02399 12.604 7.88399 12.326 7.81599 11.982C7.78798 11.8334 7.7706 11.683 7.76399 11.532L7.72399 11.612C7.70944 11.6416 7.68917 11.668 7.66435 11.6898C7.63954 11.7115 7.61066 11.7281 7.57939 11.7386C7.54812 11.7492 7.51508 11.7534 7.48216 11.7511C7.44925 11.7488 7.41712 11.74 7.38762 11.7252C7.35813 11.7104 7.33185 11.69 7.3103 11.665C7.28875 11.64 7.27237 11.611 7.26208 11.5796C7.2518 11.5483 7.24782 11.5152 7.25038 11.4823C7.25294 11.4494 7.26199 11.4174 7.27699 11.388L7.51199 10.92H7.50999ZM6.01299 2.05997C5.36399 1.87997 4.52999 2.14297 4.16299 2.85797C4.03199 3.11597 3.91799 3.54697 4.08299 4.19297C4.14599 4.43697 4.49699 4.39097 4.56999 4.14997C4.77999 3.45297 5.19699 2.70297 5.92899 2.45797C6.14599 2.38497 6.23299 2.12097 6.01299 2.05997V2.05997Z" fill="#1B1B1B"/>
</g>
<defs>
<clipPath id="clip0_1419_1573">
<rect width="16" height="16" fill="white"/>
</clipPath>
</defs>
</svg>
