<svg width="16" height="16" viewBox="0 0 16 16" fill="none" xmlns="http://www.w3.org/2000/svg">
<g clip-path="url(#clip0_1419_1575)">
<path d="M2.68 7.6759L9.17 1.1719C9.92249 0.435136 10.9352 0.0248464 11.9883 0.0300787C13.0414 0.035311 14.05 0.455643 14.7951 1.19985C15.5402 1.94406 15.9618 2.9521 15.9683 4.00521C15.9749 5.05831 15.5658 6.0715 14.83 6.8249L13.353 8.3539L8.347 13.3599L6.824 14.8319C6.0706 15.5677 5.05741 15.9768 4.00431 15.9702C2.9512 15.9637 1.94316 15.5421 1.19895 14.797C0.454742 14.0519 0.0344108 13.0433 0.0291785 11.9902C0.0239462 10.9371 0.434235 9.92439 1.171 9.1719L1.172 9.1699L2.677 7.6779L2.678 7.6759H2.68ZM8.39001 4.8179C8.34358 4.77142 8.28846 4.73453 8.22778 4.70934C8.1671 4.68416 8.10206 4.67117 8.03636 4.67113C7.97066 4.67108 7.9056 4.68397 7.84488 4.70907C7.78417 4.73417 7.72899 4.77098 7.6825 4.8174C7.63602 4.86383 7.59913 4.91895 7.57394 4.97963C7.54876 5.04031 7.53577 5.10535 7.53573 5.17105C7.53568 5.23675 7.54857 5.30181 7.57367 5.36253C7.59877 5.42324 7.63558 5.47842 7.682 5.5249C7.77631 5.61598 7.90261 5.66638 8.03371 5.66524C8.1648 5.6641 8.29021 5.61152 8.38291 5.51881C8.47562 5.42611 8.5282 5.3007 8.52934 5.16961C8.53048 5.03851 8.48008 4.91221 8.389 4.8179H8.39001ZM6.974 6.9389C7.02176 6.89278 7.05985 6.83761 7.08606 6.77661C7.11226 6.71561 7.12605 6.64999 7.12663 6.58361C7.12721 6.51722 7.11456 6.45138 7.08942 6.38993C7.06428 6.32848 7.02715 6.27265 6.9802 6.22571C6.93326 6.17876 6.87743 6.14163 6.81598 6.11649C6.75453 6.09135 6.68869 6.0787 6.6223 6.07928C6.55591 6.07986 6.4903 6.09365 6.4293 6.11985C6.3683 6.14606 6.31313 6.18415 6.267 6.2319C6.17593 6.32621 6.12553 6.45251 6.12667 6.58361C6.12781 6.7147 6.18039 6.84011 6.2731 6.93281C6.3658 7.02552 6.49121 7.0781 6.6223 7.07924C6.7534 7.08038 6.8797 7.02998 6.974 6.9389V6.9389ZM5.56 8.3539C5.65389 8.26015 5.70669 8.13294 5.70678 8.00026C5.70688 7.86758 5.65426 7.74029 5.5605 7.6464C5.46675 7.55252 5.33954 7.49972 5.20686 7.49963C5.07418 7.49953 4.94689 7.55215 4.853 7.6459C4.80652 7.69233 4.76963 7.74745 4.74444 7.80813C4.71926 7.86881 4.70627 7.93385 4.70623 7.99955C4.70613 8.13223 4.75875 8.25952 4.8525 8.3534C4.94626 8.44729 5.07347 8.50009 5.20615 8.50018C5.33883 8.50028 5.46612 8.44766 5.56 8.3539V8.3539ZM8.388 11.1819C8.43576 11.1358 8.47385 11.0806 8.50006 11.0196C8.52626 10.9586 8.54005 10.893 8.54063 10.8266C8.54121 10.7602 8.52856 10.6944 8.50342 10.6329C8.47828 10.5715 8.44115 10.5157 8.3942 10.4687C8.34726 10.4218 8.29143 10.3846 8.22998 10.3595C8.16853 10.3344 8.10269 10.3217 8.0363 10.3223C7.96991 10.3229 7.9043 10.3366 7.8433 10.3629C7.7823 10.3891 7.72713 10.4271 7.68101 10.4749C7.58993 10.5692 7.53953 10.6955 7.54067 10.8266C7.54181 10.9577 7.59439 11.0831 7.6871 11.1758C7.7798 11.2685 7.90521 11.3211 8.0363 11.3222C8.1674 11.3234 8.2937 11.273 8.388 11.1819ZM9.802 9.0609C9.75588 9.01315 9.70071 8.97506 9.63971 8.94885C9.5787 8.92265 9.5131 8.90886 9.44671 8.90828C9.38032 8.9077 9.31448 8.92035 9.25303 8.94549C9.19158 8.97063 9.13575 9.00776 9.08881 9.05471C9.04186 9.10165 9.00473 9.15748 8.97959 9.21893C8.95445 9.28038 8.9418 9.34622 8.94238 9.41261C8.94296 9.47899 8.95675 9.54461 8.98295 9.60561C9.00916 9.66661 9.04725 9.72178 9.09501 9.7679C9.18931 9.85898 9.31561 9.90938 9.44671 9.90824C9.5778 9.9071 9.70321 9.85452 9.79591 9.76181C9.88862 9.66911 9.9412 9.5437 9.94234 9.41261C9.94348 9.28151 9.89308 9.15521 9.802 9.0609ZM11.216 8.3539C11.2638 8.30785 11.302 8.25273 11.3283 8.19177C11.3546 8.1308 11.3684 8.06521 11.3691 7.99883C11.3698 7.93244 11.3572 7.86659 11.3322 7.8051C11.3071 7.74362 11.2701 7.68775 11.2232 7.64074C11.1763 7.59373 11.1205 7.55652 11.0591 7.53129C10.9977 7.50607 10.9319 7.49332 10.8655 7.4938C10.7991 7.49428 10.7335 7.50798 10.6725 7.5341C10.6114 7.56021 10.5562 7.59822 10.51 7.6459C10.4161 7.73966 10.3633 7.86687 10.3632 7.99955C10.3631 8.13223 10.4158 8.25952 10.5095 8.3534C10.6033 8.44729 10.7305 8.50009 10.8632 8.50018C10.9958 8.50028 11.1231 8.44766 11.217 8.3539H11.216ZM6.974 9.0609C6.92788 9.01315 6.87271 8.97506 6.81171 8.94885C6.75071 8.92265 6.68509 8.90886 6.61871 8.90828C6.55232 8.9077 6.48648 8.92035 6.42503 8.94549C6.36358 8.97063 6.30775 9.00776 6.26081 9.05471C6.21386 9.10165 6.17673 9.15748 6.15159 9.21893C6.12645 9.28038 6.1138 9.34622 6.11438 9.41261C6.11496 9.47899 6.12875 9.54461 6.15495 9.60561C6.18116 9.66661 6.21925 9.72178 6.267 9.7679C6.36131 9.85898 6.48761 9.90938 6.61871 9.90824C6.7498 9.9071 6.87521 9.85452 6.96791 9.76181C7.06062 9.66911 7.1132 9.5437 7.11434 9.41261C7.11548 9.28151 7.06508 9.15521 6.974 9.0609ZM8.388 8.3539C8.43449 8.30748 8.47138 8.25236 8.49657 8.19168C8.52175 8.131 8.53474 8.06596 8.53478 8.00026C8.53483 7.93456 8.52194 7.8695 8.49684 7.80878C8.47174 7.74807 8.43493 7.69289 8.3885 7.6464C8.34208 7.59992 8.28696 7.56303 8.22628 7.53784C8.1656 7.51266 8.10056 7.49967 8.03486 7.49963C7.96916 7.49958 7.9041 7.51247 7.84338 7.53757C7.78267 7.56267 7.72749 7.59948 7.68101 7.6459C7.58712 7.73966 7.53432 7.86687 7.53423 7.99955C7.53413 8.13223 7.58675 8.25952 7.6805 8.3534C7.77426 8.44729 7.90147 8.50009 8.03415 8.50018C8.16683 8.50028 8.29412 8.44766 8.388 8.3539ZM9.802 6.2319C9.75588 6.18415 9.70071 6.14606 9.63971 6.11985C9.5787 6.09365 9.5131 6.07986 9.44671 6.07928C9.38032 6.0787 9.31448 6.09135 9.25303 6.11649C9.19158 6.14163 9.13575 6.17876 9.08881 6.22571C9.04186 6.27265 9.00473 6.32848 8.97959 6.38993C8.95445 6.45138 8.9418 6.51722 8.94238 6.58361C8.94296 6.64999 8.95675 6.71561 8.98295 6.77661C9.00916 6.83761 9.04725 6.89278 9.09501 6.9389C9.18931 7.02998 9.31561 7.08038 9.44671 7.07924C9.5778 7.0781 9.70321 7.02552 9.79591 6.93281C9.88862 6.84011 9.9412 6.7147 9.94234 6.58361C9.94348 6.45251 9.89308 6.32621 9.802 6.2319ZM8.646 3.3539L12.646 7.3539L13.354 6.6459L9.354 2.6459L8.646 3.3539ZM7.354 12.6459L3.354 8.6459L2.646 9.3539L6.646 13.3539L7.354 12.6459Z" fill="currentColor"/>
</g>
<defs>
<clipPath id="clip0_1419_1575">
<rect width="16" height="16" fill="white"/>
</clipPath>
</defs>
</svg>
