<svg width="16" height="16" viewBox="0 0 16 16" fill="none" xmlns="http://www.w3.org/2000/svg">
<g clip-path="url(#clip0_1419_1576)">
<path d="M14.121 1.8789C13.5584 1.31649 12.7955 1.00055 12 1.00055C11.2045 1.00055 10.4416 1.31649 9.879 1.8789L8.733 3.0259L12.994 7.2859L14.121 6.1209C14.6834 5.55832 14.9994 4.7954 14.9994 3.9999C14.9994 3.20441 14.6834 2.44149 14.121 1.8789V1.8789ZM12.293 7.9999L8.027 3.7339L3.738 8.0309L8 12.2929L12.293 7.9999ZM7.287 12.9939L3.03 8.73691L1.879 9.8799C1.3459 10.4481 1.05478 11.2015 1.06725 11.9805C1.07972 12.7596 1.39479 13.5032 1.9458 14.0541C2.4968 14.605 3.24052 14.9199 4.01957 14.9321C4.79862 14.9444 5.5519 14.6531 6.12 14.1199L6.126 14.1139L7.286 12.9929L7.287 12.9939ZM2.679 7.6759L9.171 1.1719C9.92349 0.435136 10.9362 0.0248464 11.9893 0.0300787C13.0424 0.035311 14.051 0.455643 14.7961 1.19985C15.5412 1.94406 15.9628 2.9521 15.9693 4.00521C15.9759 5.05831 15.5668 6.0715 14.831 6.8249L13.354 8.3539L8.348 13.3599L6.825 14.8319C6.0716 15.5677 5.0584 15.9768 4.0053 15.9702C2.95219 15.9637 1.94415 15.5421 1.19994 14.797C0.455734 14.0519 0.0354026 13.0433 0.0301703 11.9902C0.024938 10.9371 0.435227 9.92439 1.172 9.1719L1.173 9.1699L2.678 7.6779L2.679 7.6759V7.6759Z" fill="currentColor"/>
<path d="M5.55999 7.64609C5.60781 7.69215 5.64597 7.74727 5.67226 7.80823C5.69855 7.86919 5.71243 7.93478 5.7131 8.00117C5.71377 8.06755 5.70121 8.13341 5.67616 8.19489C5.6511 8.25637 5.61406 8.31225 5.56718 8.35926C5.5203 8.40627 5.46453 8.44347 5.40312 8.4687C5.34171 8.49393 5.27589 8.50667 5.2095 8.50619C5.14311 8.50571 5.07749 8.49201 5.01645 8.4659C4.95541 8.43978 4.90018 8.40178 4.85399 8.35409C4.8075 8.30767 4.77062 8.25254 4.74543 8.19186C4.72025 8.13119 4.70726 8.06614 4.70721 8.00044C4.70712 7.86776 4.75974 7.74048 4.85349 7.64659C4.94725 7.5527 5.07446 7.49991 5.20714 7.49981C5.33982 7.49972 5.46711 7.55234 5.56099 7.64609H5.55999ZM6.97499 6.23209C7.02275 6.27821 7.06084 6.33339 7.08704 6.39439C7.11325 6.45539 7.12704 6.521 7.12762 6.58739C7.12819 6.65378 7.11554 6.71962 7.0904 6.78107C7.06526 6.84252 7.02814 6.89834 6.98119 6.94529C6.93424 6.99223 6.87842 7.02936 6.81697 7.0545C6.75552 7.07964 6.68968 7.09229 6.62329 7.09172C6.5569 7.09114 6.49129 7.07735 6.43029 7.05114C6.36929 7.02494 6.31412 6.98685 6.26799 6.93909C6.17691 6.84479 6.12652 6.71849 6.12766 6.58739C6.12879 6.45629 6.18138 6.33089 6.27408 6.23818C6.36679 6.14548 6.49219 6.09289 6.62329 6.09175C6.75439 6.09061 6.88069 6.14101 6.97499 6.23209ZM8.38999 4.81809C8.43642 4.86458 8.47323 4.91975 8.49832 4.98047C8.52342 5.04118 8.53632 5.10625 8.53627 5.17194C8.53622 5.23764 8.52324 5.30269 8.49805 5.36336C8.47287 5.42404 8.43598 5.47917 8.38949 5.52559C8.343 5.57201 8.28783 5.60882 8.22711 5.63392C8.1664 5.65902 8.10134 5.67192 8.03564 5.67187C7.96994 5.67182 7.9049 5.65884 7.84422 5.63365C7.78354 5.60847 7.72842 5.57158 7.68199 5.52509C7.59091 5.43079 7.54052 5.30449 7.54166 5.17339C7.54279 5.04229 7.59538 4.91688 7.68808 4.82418C7.78079 4.73148 7.90619 4.67889 8.03729 4.67775C8.16839 4.67661 8.29469 4.72701 8.38899 4.81809H8.38999ZM8.38999 10.4751C8.43642 10.5216 8.47323 10.5768 8.49832 10.6375C8.52342 10.6982 8.53632 10.7632 8.53627 10.8289C8.53622 10.8946 8.52324 10.9597 8.49805 11.0204C8.47287 11.081 8.43598 11.1362 8.38949 11.1826C8.343 11.229 8.28783 11.2658 8.22711 11.2909C8.1664 11.316 8.10134 11.3289 8.03564 11.3289C7.96994 11.3288 7.9049 11.3158 7.84422 11.2907C7.78354 11.2655 7.72842 11.2286 7.68199 11.1821C7.59091 11.0878 7.54052 10.9615 7.54166 10.8304C7.54279 10.6993 7.59538 10.5739 7.68808 10.4812C7.78079 10.3885 7.90619 10.3359 8.03729 10.3348C8.16839 10.3336 8.29469 10.384 8.38899 10.4751H8.38999ZM9.80299 9.06009C9.89688 9.15385 9.94968 9.28106 9.94977 9.41374C9.94986 9.54642 9.89725 9.6737 9.80349 9.76759C9.70974 9.86148 9.58253 9.91427 9.44985 9.91437C9.31716 9.91446 9.18988 9.86184 9.09599 9.76809C9.00491 9.67379 8.95452 9.54749 8.95566 9.41639C8.95679 9.28529 9.00938 9.15989 9.10208 9.06718C9.19479 8.97448 9.32019 8.92189 9.45129 8.92075C9.58239 8.91961 9.70869 8.97001 9.80299 9.06109V9.06009ZM11.217 7.64609C11.2648 7.69215 11.303 7.74727 11.3293 7.80823C11.3555 7.86919 11.3694 7.93478 11.3701 8.00117C11.3708 8.06755 11.3582 8.13341 11.3332 8.19489C11.3081 8.25637 11.2711 8.31225 11.2242 8.35926C11.1773 8.40627 11.1215 8.44347 11.0601 8.4687C10.9987 8.49393 10.9329 8.50667 10.8665 8.50619C10.8001 8.50571 10.7345 8.49201 10.6734 8.4659C10.6124 8.43978 10.5572 8.40178 10.511 8.35409C10.4645 8.30767 10.4276 8.25254 10.4024 8.19186C10.3772 8.13119 10.3643 8.06614 10.3642 8.00044C10.3641 7.86776 10.4167 7.74048 10.5105 7.64659C10.6042 7.5527 10.7315 7.49991 10.8641 7.49981C10.9968 7.49972 11.1241 7.55234 11.218 7.64609H11.217ZM6.97499 9.06009C7.02148 9.10651 7.05837 9.16164 7.08355 9.22232C7.10874 9.28299 7.12172 9.34804 7.12177 9.41374C7.12182 9.47943 7.10892 9.5445 7.08382 9.60521C7.05873 9.66593 7.02191 9.7211 6.97549 9.76759C6.92907 9.81408 6.87395 9.85097 6.81327 9.87615C6.75259 9.90134 6.68754 9.91432 6.62185 9.91437C6.55615 9.91442 6.49109 9.90152 6.43037 9.87642C6.36966 9.85132 6.31448 9.81451 6.26799 9.76809C6.17691 9.67379 6.12652 9.54749 6.12766 9.41639C6.12879 9.28529 6.18138 9.15989 6.27408 9.06718C6.36679 8.97448 6.49219 8.92189 6.62329 8.92075C6.75439 8.91961 6.88069 8.97001 6.97499 9.06109V9.06009ZM8.38999 7.64609C8.43648 7.69258 8.47336 7.74777 8.49852 7.80851C8.52368 7.86925 8.53662 7.93435 8.53662 8.00009C8.53662 8.06583 8.52368 8.13093 8.49852 8.19167C8.47336 8.25241 8.43648 8.3076 8.38999 8.35409C8.34351 8.40058 8.28832 8.43745 8.22758 8.46261C8.16684 8.48777 8.10174 8.50072 8.03599 8.50072C7.97025 8.50072 7.90515 8.48777 7.84441 8.46261C7.78367 8.43745 7.72848 8.40058 7.68199 8.35409C7.6355 8.30767 7.59862 8.25254 7.57343 8.19186C7.54825 8.13119 7.53526 8.06614 7.53521 8.00044C7.53512 7.86776 7.58774 7.74048 7.68149 7.64659C7.77525 7.5527 7.90246 7.49991 8.03514 7.49981C8.16782 7.49972 8.29511 7.55234 8.38899 7.64609H8.38999ZM9.80299 6.23209C9.85075 6.27821 9.88884 6.33339 9.91504 6.39439C9.94125 6.45539 9.95504 6.521 9.95562 6.58739C9.95619 6.65378 9.94354 6.71962 9.9184 6.78107C9.89326 6.84252 9.85614 6.89834 9.80919 6.94529C9.76224 6.99223 9.70642 7.02936 9.64497 7.0545C9.58352 7.07964 9.51768 7.09229 9.45129 7.09172C9.3849 7.09114 9.31929 7.07735 9.25829 7.05114C9.19729 7.02494 9.14212 6.98685 9.09599 6.93909C9.00491 6.84479 8.95452 6.71849 8.95566 6.58739C8.95679 6.45629 9.00938 6.33089 9.10208 6.23818C9.19479 6.14548 9.32019 6.09289 9.45129 6.09175C9.58239 6.09061 9.70869 6.14101 9.80299 6.23209Z" fill="currentColor"/>
</g>
<defs>
<clipPath id="clip0_1419_1576">
<rect width="16" height="16" fill="white"/>
</clipPath>
</defs>
</svg>
