<svg width="16" height="16" viewBox="0 0 16 16" fill="none" xmlns="http://www.w3.org/2000/svg">
<g clip-path="url(#clip0_1419_1032)">
<path d="M8.00005 0L14.6101 3H15.5001C15.6327 3 15.7598 3.05268 15.8536 3.14645C15.9474 3.24021 16.0001 3.36739 16.0001 3.5V5.5C16.0001 5.63261 15.9474 5.75979 15.8536 5.85355C15.7598 5.94732 15.6327 6 15.5001 6H15.0001V13C15.1117 13.0001 15.2201 13.0375 15.308 13.1064C15.3959 13.1753 15.4583 13.2716 15.4851 13.38L15.9851 15.38C16.0037 15.4537 16.0052 15.5306 15.9895 15.6049C15.9738 15.6793 15.9413 15.749 15.8945 15.8088C15.8477 15.8687 15.7878 15.917 15.7194 15.9501C15.6511 15.9833 15.576 16.0003 15.5001 16H0.500054C0.424085 16.0003 0.349047 15.9833 0.280683 15.9501C0.212319 15.917 0.152442 15.8687 0.105634 15.8088C0.0588258 15.749 0.0263283 15.6793 0.0106283 15.6049C-0.0050716 15.5306 -0.00355771 15.4537 0.0150541 15.38L0.515054 13.38C0.542012 13.2717 0.60437 13.1755 0.692234 13.1066C0.780097 13.0378 0.888434 13.0003 1.00005 13V6H0.500054C0.367446 6 0.240269 5.94732 0.146501 5.85355C0.0527325 5.75979 5.41152e-05 5.63261 5.41152e-05 5.5V3.5C5.41152e-05 3.36739 0.0527325 3.24021 0.146501 3.14645C0.240269 3.05268 0.367446 3 0.500054 3H1.39005L8.00005 0ZM3.77705 3H12.2241L8.00005 1L3.77705 3ZM2.00005 6V13H3.00005V6H2.00005ZM4.00005 6V13H6.50005V6H4.00005ZM7.50005 6V13H8.50005V6H7.50005ZM9.50005 6V13H12.0001V6H9.50005ZM13.0001 6V13H14.0001V6H13.0001ZM15.0001 5V4H1.00005V5H15.0001ZM14.6101 14H1.39005L1.14005 15H14.8601L14.6101 14V14Z" fill="currentColor"/>
</g>
<defs>
<clipPath id="clip0_1419_1032">
<rect width="16" height="16" fill="white"/>
</clipPath>
</defs>
</svg>
