<svg width="16" height="16" viewBox="0 0 16 16" fill="none" xmlns="http://www.w3.org/2000/svg">
<path d="M5.757 1.07088C5.81335 1.10462 5.86249 1.14913 5.90163 1.20187C5.94077 1.25461 5.96914 1.31454 5.98511 1.37825C6.00108 1.44195 6.00435 1.50818 5.99472 1.57315C5.98509 1.63811 5.96276 1.70055 5.929 1.75688L3.383 5.99988H12.617L10.07 1.75688C10.0018 1.6431 9.98167 1.50691 10.0139 1.37826C10.0462 1.24961 10.1282 1.13904 10.242 1.07088C10.3558 1.00272 10.492 0.982548 10.6206 1.0148C10.7493 1.04706 10.8598 1.1291 10.928 1.24288L13.783 5.99988H15C15.2652 5.99988 15.5196 6.10524 15.7071 6.29277C15.8946 6.48031 16 6.73466 16 6.99988V7.99988C16 8.2651 15.8946 8.51945 15.7071 8.70699C15.5196 8.89452 15.2652 8.99988 15 8.99988V13.4999C15 14.1629 14.7366 14.7988 14.2678 15.2676C13.7989 15.7365 13.163 15.9999 12.5 15.9999H3.5C2.83696 15.9999 2.20107 15.7365 1.73223 15.2676C1.26339 14.7988 1 14.1629 1 13.4999V8.99988C0.734784 8.99988 0.48043 8.89452 0.292893 8.70699C0.105357 8.51945 0 8.2651 0 7.99988V6.99988C0 6.73466 0.105357 6.48031 0.292893 6.29277C0.48043 6.10524 0.734784 5.99988 1 5.99988H2.217L5.07 1.24288C5.10374 1.18653 5.14825 1.13739 5.20099 1.09825C5.25373 1.05911 5.31366 1.03074 5.37737 1.01477C5.44107 0.998795 5.5073 0.99553 5.57227 1.00516C5.63723 1.01479 5.69967 1.03712 5.756 1.07088H5.757ZM2 8.99988V13.4999C2 13.8977 2.15804 14.2792 2.43934 14.5605C2.72064 14.8418 3.10218 14.9999 3.5 14.9999H12.5C12.8978 14.9999 13.2794 14.8418 13.5607 14.5605C13.842 14.2792 14 13.8977 14 13.4999V8.99988H2ZM1 6.99988V7.99988H15V6.99988H1ZM4 9.99988C4.13261 9.99988 4.25979 10.0526 4.35355 10.1463C4.44732 10.2401 4.5 10.3673 4.5 10.4999V13.4999C4.5 13.6325 4.44732 13.7597 4.35355 13.8534C4.25979 13.9472 4.13261 13.9999 4 13.9999C3.86739 13.9999 3.74021 13.9472 3.64645 13.8534C3.55268 13.7597 3.5 13.6325 3.5 13.4999V10.4999C3.5 10.3673 3.55268 10.2401 3.64645 10.1463C3.74021 10.0526 3.86739 9.99988 4 9.99988ZM6 9.99988C6.13261 9.99988 6.25979 10.0526 6.35355 10.1463C6.44732 10.2401 6.5 10.3673 6.5 10.4999V13.4999C6.5 13.6325 6.44732 13.7597 6.35355 13.8534C6.25979 13.9472 6.13261 13.9999 6 13.9999C5.86739 13.9999 5.74021 13.9472 5.64645 13.8534C5.55268 13.7597 5.5 13.6325 5.5 13.4999V10.4999C5.5 10.3673 5.55268 10.2401 5.64645 10.1463C5.74021 10.0526 5.86739 9.99988 6 9.99988V9.99988ZM8 9.99988C8.13261 9.99988 8.25979 10.0526 8.35355 10.1463C8.44732 10.2401 8.5 10.3673 8.5 10.4999V13.4999C8.5 13.6325 8.44732 13.7597 8.35355 13.8534C8.25979 13.9472 8.13261 13.9999 8 13.9999C7.86739 13.9999 7.74021 13.9472 7.64645 13.8534C7.55268 13.7597 7.5 13.6325 7.5 13.4999V10.4999C7.5 10.3673 7.55268 10.2401 7.64645 10.1463C7.74021 10.0526 7.86739 9.99988 8 9.99988V9.99988ZM10 9.99988C10.1326 9.99988 10.2598 10.0526 10.3536 10.1463C10.4473 10.2401 10.5 10.3673 10.5 10.4999V13.4999C10.5 13.6325 10.4473 13.7597 10.3536 13.8534C10.2598 13.9472 10.1326 13.9999 10 13.9999C9.86739 13.9999 9.74021 13.9472 9.64645 13.8534C9.55268 13.7597 9.5 13.6325 9.5 13.4999V10.4999C9.5 10.3673 9.55268 10.2401 9.64645 10.1463C9.74021 10.0526 9.86739 9.99988 10 9.99988ZM12 9.99988C12.1326 9.99988 12.2598 10.0526 12.3536 10.1463C12.4473 10.2401 12.5 10.3673 12.5 10.4999V13.4999C12.5 13.6325 12.4473 13.7597 12.3536 13.8534C12.2598 13.9472 12.1326 13.9999 12 13.9999C11.8674 13.9999 11.7402 13.9472 11.6464 13.8534C11.5527 13.7597 11.5 13.6325 11.5 13.4999V10.4999C11.5 10.3673 11.5527 10.2401 11.6464 10.1463C11.7402 10.0526 11.8674 9.99988 12 9.99988Z" fill="currentColor"/>
</svg>
