<svg width="16" height="16" viewBox="0 0 16 16" fill="none" xmlns="http://www.w3.org/2000/svg">
<path d="M4 10C4 9.73478 4.10536 9.48043 4.29289 9.29289C4.48043 9.10536 4.73478 9 5 9C5.26522 9 5.51957 9.10536 5.70711 9.29289C5.89464 9.48043 6 9.73478 6 10V12C6 12.2652 5.89464 12.5196 5.70711 12.7071C5.51957 12.8946 5.26522 13 5 13C4.73478 13 4.48043 12.8946 4.29289 12.7071C4.10536 12.5196 4 12.2652 4 12V10ZM7 10C7 9.73478 7.10536 9.48043 7.29289 9.29289C7.48043 9.10536 7.73478 9 8 9C8.26522 9 8.51957 9.10536 8.70711 9.29289C8.89464 9.48043 9 9.73478 9 10V12C9 12.2652 8.89464 12.5196 8.70711 12.7071C8.51957 12.8946 8.26522 13 8 13C7.73478 13 7.48043 12.8946 7.29289 12.7071C7.10536 12.5196 7 12.2652 7 12V10ZM10 10C10 9.73478 10.1054 9.48043 10.2929 9.29289C10.4804 9.10536 10.7348 9 11 9C11.2652 9 11.5196 9.10536 11.7071 9.29289C11.8946 9.48043 12 9.73478 12 10V12C12 12.2652 11.8946 12.5196 11.7071 12.7071C11.5196 12.8946 11.2652 13 11 13C10.7348 13 10.4804 12.8946 10.2929 12.7071C10.1054 12.5196 10 12.2652 10 12V10Z" fill="#1B1B1B"/>
<path d="M5.757 1.07088C5.81335 1.10462 5.86249 1.14913 5.90163 1.20187C5.94077 1.25461 5.96914 1.31454 5.98511 1.37825C6.00108 1.44195 6.00435 1.50818 5.99472 1.57315C5.98509 1.63811 5.96276 1.70055 5.929 1.75688L3.383 5.99988H12.617L10.07 1.75688C10.0018 1.6431 9.98167 1.50691 10.0139 1.37826C10.0462 1.24961 10.1282 1.13904 10.242 1.07088C10.3558 1.00272 10.492 0.982548 10.6206 1.0148C10.7493 1.04706 10.8598 1.1291 10.928 1.24288L13.783 5.99988H15.5C15.6326 5.99988 15.7598 6.05256 15.8536 6.14633C15.9473 6.24009 16 6.36727 16 6.49988V7.49988C16 7.63249 15.9473 7.75966 15.8536 7.85343C15.7598 7.9472 15.6326 7.99988 15.5 7.99988H14.877L13.033 14.4559C12.9882 14.6127 12.8935 14.7507 12.7632 14.8489C12.6329 14.9471 12.4741 15.0001 12.311 14.9999H3.69C3.52687 15.0001 3.36812 14.9471 3.23783 14.8489C3.10754 14.7507 3.01281 14.6127 2.968 14.4559L1.123 7.99988H0.5C0.367392 7.99988 0.240215 7.9472 0.146447 7.85343C0.0526784 7.75966 0 7.63249 0 7.49988V6.49988C0 6.36727 0.0526784 6.24009 0.146447 6.14633C0.240215 6.05256 0.367392 5.99988 0.5 5.99988H2.217L5.07 1.24288C5.10374 1.18653 5.14825 1.13739 5.20099 1.09825C5.25373 1.05911 5.31366 1.03074 5.37737 1.01477C5.44107 0.998795 5.5073 0.99553 5.57227 1.00516C5.63723 1.01479 5.69967 1.03712 5.756 1.07088H5.757ZM2.163 7.99988L3.877 13.9999H12.123L13.837 7.99988H2.163Z" fill="#1B1B1B"/>
</svg>
