<svg width="16" height="16" viewBox="0 0 16 16" fill="none" xmlns="http://www.w3.org/2000/svg">
<path d="M5.757 1.07088C5.81335 1.10462 5.86249 1.14913 5.90163 1.20187C5.94077 1.25461 5.96914 1.31454 5.98511 1.37825C6.00108 1.44195 6.00435 1.50818 5.99472 1.57315C5.98509 1.63811 5.96276 1.70055 5.929 1.75688L3.383 5.99988H12.617L10.07 1.75688C10.0018 1.6431 9.98167 1.50691 10.0139 1.37826C10.0462 1.24961 10.1282 1.13904 10.242 1.07088C10.3558 1.00272 10.492 0.982548 10.6206 1.0148C10.7493 1.04706 10.8598 1.1291 10.928 1.24288L13.783 5.99988H15.5C15.6326 5.99988 15.7598 6.05256 15.8536 6.14633C15.9473 6.24009 16 6.36727 16 6.49988V7.49988C16 7.63249 15.9473 7.75966 15.8536 7.85343C15.7598 7.9472 15.6326 7.99988 15.5 7.99988H0.5C0.367392 7.99988 0.240215 7.9472 0.146447 7.85343C0.0526784 7.75966 0 7.63249 0 7.49988V6.49988C0 6.36727 0.0526784 6.24009 0.146447 6.14633C0.240215 6.05256 0.367392 5.99988 0.5 5.99988H2.217L5.07 1.24288C5.10374 1.18653 5.14825 1.13739 5.20099 1.09825C5.25373 1.05911 5.31366 1.03074 5.37737 1.01477C5.44107 0.998795 5.5073 0.99553 5.57227 1.00516C5.63723 1.01479 5.69967 1.03712 5.756 1.07088H5.757ZM3.394 14.9999L1.914 8.99988H0.944L2.469 15.4259C2.50849 15.5895 2.60186 15.735 2.73408 15.8391C2.86631 15.9433 3.02971 15.9999 3.198 15.9999H12.804C12.9725 16.0001 13.1361 15.9436 13.2685 15.8394C13.401 15.7353 13.4945 15.5896 13.534 15.4259L15.056 8.99988H14.084L12.605 14.9999H3.395H3.394Z" fill="#1B1B1B"/>
</svg>
