<svg width="16" height="16" viewBox="0 0 16 16" fill="none" xmlns="http://www.w3.org/2000/svg">
<g clip-path="url(#clip0_1419_1034)">
<path d="M5.071 1.24309C5.13916 1.12931 5.24973 1.04727 5.37838 1.01502C5.50703 0.98276 5.64322 1.00293 5.757 1.07109C5.87078 1.13925 5.95282 1.24982 5.98508 1.37847C6.01733 1.50712 5.99716 1.64331 5.929 1.75709L3.383 6.00009H12.617L10.07 1.75709C10.0018 1.64331 9.98167 1.50712 10.0139 1.37847C10.0462 1.24982 10.1282 1.13925 10.242 1.07109C10.3558 1.00293 10.492 0.98276 10.6206 1.01502C10.7493 1.04727 10.8598 1.12931 10.928 1.24309L13.783 6.00009H15.5C15.6326 6.00009 15.7598 6.05277 15.8536 6.14654C15.9473 6.24031 16 6.36748 16 6.50009V8.50009C16 8.6327 15.9473 8.75988 15.8536 8.85365C15.7598 8.94741 15.6326 9.00009 15.5 9.00009H15V14.0001C15 14.5305 14.7893 15.0392 14.4142 15.4143C14.0391 15.7894 13.5304 16.0001 13 16.0001H3C2.46957 16.0001 1.96086 15.7894 1.58579 15.4143C1.21071 15.0392 1 14.5305 1 14.0001V9.00009H0.5C0.367392 9.00009 0.240215 8.94741 0.146447 8.85365C0.0526784 8.75988 0 8.6327 0 8.50009V6.50009C0 6.36748 0.0526784 6.24031 0.146447 6.14654C0.240215 6.05277 0.367392 6.00009 0.5 6.00009H2.217L5.07 1.24309H5.071ZM3.5 10.5001C3.5 10.3675 3.44732 10.2403 3.35355 10.1465C3.25979 10.0528 3.13261 10.0001 3 10.0001C2.86739 10.0001 2.74021 10.0528 2.64645 10.1465C2.55268 10.2403 2.5 10.3675 2.5 10.5001V13.5001C2.5 13.6327 2.55268 13.7599 2.64645 13.8536C2.74021 13.9474 2.86739 14.0001 3 14.0001C3.13261 14.0001 3.25979 13.9474 3.35355 13.8536C3.44732 13.7599 3.5 13.6327 3.5 13.5001V10.5001ZM6 10.5001C6 10.3675 5.94732 10.2403 5.85355 10.1465C5.75979 10.0528 5.63261 10.0001 5.5 10.0001C5.36739 10.0001 5.24021 10.0528 5.14645 10.1465C5.05268 10.2403 5 10.3675 5 10.5001V13.5001C5 13.6327 5.05268 13.7599 5.14645 13.8536C5.24021 13.9474 5.36739 14.0001 5.5 14.0001C5.63261 14.0001 5.75979 13.9474 5.85355 13.8536C5.94732 13.7599 6 13.6327 6 13.5001V10.5001ZM8.5 10.5001C8.5 10.3675 8.44732 10.2403 8.35355 10.1465C8.25979 10.0528 8.13261 10.0001 8 10.0001C7.86739 10.0001 7.74021 10.0528 7.64645 10.1465C7.55268 10.2403 7.5 10.3675 7.5 10.5001V13.5001C7.5 13.6327 7.55268 13.7599 7.64645 13.8536C7.74021 13.9474 7.86739 14.0001 8 14.0001C8.13261 14.0001 8.25979 13.9474 8.35355 13.8536C8.44732 13.7599 8.5 13.6327 8.5 13.5001V10.5001ZM11 10.5001C11 10.3675 10.9473 10.2403 10.8536 10.1465C10.7598 10.0528 10.6326 10.0001 10.5 10.0001C10.3674 10.0001 10.2402 10.0528 10.1464 10.1465C10.0527 10.2403 10 10.3675 10 10.5001V13.5001C10 13.6327 10.0527 13.7599 10.1464 13.8536C10.2402 13.9474 10.3674 14.0001 10.5 14.0001C10.6326 14.0001 10.7598 13.9474 10.8536 13.8536C10.9473 13.7599 11 13.6327 11 13.5001V10.5001ZM13.5 10.5001C13.5 10.3675 13.4473 10.2403 13.3536 10.1465C13.2598 10.0528 13.1326 10.0001 13 10.0001C12.8674 10.0001 12.7402 10.0528 12.6464 10.1465C12.5527 10.2403 12.5 10.3675 12.5 10.5001V13.5001C12.5 13.6327 12.5527 13.7599 12.6464 13.8536C12.7402 13.9474 12.8674 14.0001 13 14.0001C13.1326 14.0001 13.2598 13.9474 13.3536 13.8536C13.4473 13.7599 13.5 13.6327 13.5 13.5001V10.5001Z" fill="#1B1B1B"/>
</g>
<defs>
<clipPath id="clip0_1419_1034">
<rect width="16" height="16" fill="white"/>
</clipPath>
</defs>
</svg>
