<svg width="16" height="16" viewBox="0 0 16 16" fill="none" xmlns="http://www.w3.org/2000/svg">
<path d="M5.929 1.75709C5.96275 1.70075 5.98507 1.63832 5.99469 1.57336C6.00432 1.50839 6.00105 1.44217 5.98508 1.37847C5.9691 1.31477 5.94074 1.25484 5.90161 1.2021C5.86248 1.14936 5.81334 1.10484 5.757 1.07109C5.70066 1.03734 5.63823 1.01502 5.57327 1.0054C5.5083 0.995775 5.44208 0.999043 5.37838 1.01501C5.31468 1.03099 5.25475 1.05935 5.20201 1.09848C5.14927 1.13762 5.10475 1.18675 5.071 1.24309L2.217 6.00009H0.5C0.367392 6.00009 0.240215 6.05277 0.146447 6.14654C0.0526784 6.24031 0 6.36748 0 6.50009L0 7.50009C0 7.6327 0.0526784 7.75988 0.146447 7.85364C0.240215 7.94741 0.367392 8.00009 0.5 8.00009H1.123L2.967 14.4561C3.01185 14.6131 3.10673 14.7512 3.23723 14.8494C3.36772 14.9476 3.52669 15.0005 3.69 15.0001H12.312C12.4751 15.0003 12.6339 14.9473 12.7642 14.8491C12.8945 14.7509 12.9892 14.613 13.034 14.4561L14.877 8.00009H15.5C15.6326 8.00009 15.7598 7.94741 15.8536 7.85364C15.9473 7.75988 16 7.6327 16 7.50009V6.50009C16 6.36748 15.9473 6.24031 15.8536 6.14654C15.7598 6.05277 15.6326 6.00009 15.5 6.00009H13.783L10.93 1.24309C10.8963 1.18675 10.8517 1.13762 10.799 1.09848C10.7463 1.05935 10.6863 1.03099 10.6226 1.01501C10.5589 0.999043 10.4927 0.995775 10.4277 1.0054C10.3628 1.01502 10.3003 1.03734 10.244 1.07109C10.1877 1.10484 10.1385 1.14936 10.0994 1.2021C10.0603 1.25484 10.0319 1.31477 10.0159 1.37847C9.99995 1.44217 9.99668 1.50839 10.0063 1.57336C10.0159 1.63832 10.0382 1.70075 10.072 1.75709L12.617 6.00009H3.383L5.93 1.75709H5.929ZM4 10.0001C4 9.73487 4.10536 9.48052 4.29289 9.29298C4.48043 9.10545 4.73478 9.00009 5 9.00009C5.26522 9.00009 5.51957 9.10545 5.70711 9.29298C5.89464 9.48052 6 9.73487 6 10.0001V12.0001C6 12.2653 5.89464 12.5197 5.70711 12.7072C5.51957 12.8947 5.26522 13.0001 5 13.0001C4.73478 13.0001 4.48043 12.8947 4.29289 12.7072C4.10536 12.5197 4 12.2653 4 12.0001V10.0001ZM7 10.0001C7 9.73487 7.10536 9.48052 7.29289 9.29298C7.48043 9.10545 7.73478 9.00009 8 9.00009C8.26522 9.00009 8.51957 9.10545 8.70711 9.29298C8.89464 9.48052 9 9.73487 9 10.0001V12.0001C9 12.2653 8.89464 12.5197 8.70711 12.7072C8.51957 12.8947 8.26522 13.0001 8 13.0001C7.73478 13.0001 7.48043 12.8947 7.29289 12.7072C7.10536 12.5197 7 12.2653 7 12.0001V10.0001ZM11 9.00009C11.2652 9.00009 11.5196 9.10545 11.7071 9.29298C11.8946 9.48052 12 9.73487 12 10.0001V12.0001C12 12.2653 11.8946 12.5197 11.7071 12.7072C11.5196 12.8947 11.2652 13.0001 11 13.0001C10.7348 13.0001 10.4804 12.8947 10.2929 12.7072C10.1054 12.5197 10 12.2653 10 12.0001V10.0001C10 9.73487 10.1054 9.48052 10.2929 9.29298C10.4804 9.10545 10.7348 9.00009 11 9.00009V9.00009Z" fill="#1B1B1B"/>
</svg>
