<svg width="16" height="16" viewBox="0 0 16 16" fill="none" xmlns="http://www.w3.org/2000/svg">
<g clip-path="url(#clip0_1419_1584)">
<path d="M5.164 14.0001H15C14.701 13.8011 14.443 13.4471 14.22 13.0001C13.32 11.2001 13 7.88006 13 7.00006C13 6.73606 12.98 6.47706 12.94 6.22406L12.002 7.16206C12.022 7.87006 12.159 9.31606 12.459 10.7421C12.62 11.5091 12.836 12.3081 13.122 13.0001H6.164L5.164 14.0001ZM10.745 4.09006C10.2029 3.57777 9.52804 3.22785 8.797 3.08006L8 2.91706L7.203 3.07806C6.2988 3.26229 5.48604 3.75334 4.90234 4.46807C4.31864 5.18279 3.99987 6.07727 4 7.00006C4 7.62806 3.866 9.19706 3.541 10.7421C3.491 10.9801 3.436 11.2211 3.375 11.4601L1.722 13.1131C1.742 13.0761 1.762 13.0391 1.781 13.0001C2.679 11.2001 3 7.88006 3 7.00006C3 4.58006 4.72 2.56006 7.005 2.09906C6.99105 1.96001 7.00639 1.81958 7.05004 1.68683C7.09369 1.55408 7.16468 1.43195 7.25843 1.32831C7.35218 1.22468 7.46661 1.14185 7.59434 1.08516C7.72207 1.02847 7.86026 0.999182 8 0.999182C8.13975 0.999182 8.27794 1.02847 8.40567 1.08516C8.5334 1.14185 8.64783 1.22468 8.74158 1.32831C8.83533 1.43195 8.90632 1.55408 8.94997 1.68683C8.99362 1.81958 9.00896 1.96001 8.995 2.09906C9.937 2.28906 10.783 2.74406 11.452 3.38306L10.745 4.09006V4.09006ZM10 15.0001C10 15.5305 9.78929 16.0392 9.41422 16.4143C9.03914 16.7893 8.53044 17.0001 8 17.0001C7.46957 17.0001 6.96086 16.7893 6.58579 16.4143C6.21072 16.0392 6 15.5305 6 15.0001H10ZM0.625003 15.6251C0.525547 15.7245 0.469673 15.8594 0.469673 16.0001C0.469673 16.1407 0.525547 16.2756 0.625003 16.3751C0.724459 16.4745 0.859351 16.5304 1 16.5304C1.14066 16.5304 1.27555 16.4745 1.375 16.3751L16.125 1.62506C16.1742 1.57581 16.2133 1.51735 16.24 1.45301C16.2666 1.38866 16.2803 1.3197 16.2803 1.25006C16.2803 1.18041 16.2666 1.11145 16.24 1.04711C16.2133 0.982765 16.1742 0.924302 16.125 0.875057C16.0758 0.825811 16.0173 0.786747 15.953 0.760096C15.8886 0.733444 15.8196 0.719727 15.75 0.719727C15.6804 0.719727 15.6114 0.733444 15.5471 0.760096C15.4827 0.786747 15.4242 0.825811 15.375 0.875057L0.625003 15.6251Z" fill="currentColor"/>
</g>
<defs>
<clipPath id="clip0_1419_1584">
<rect width="16" height="16" fill="white"/>
</clipPath>
</defs>
</svg>
