<svg width="16" height="16" viewBox="0 0 16 16" fill="none" xmlns="http://www.w3.org/2000/svg">
<g clip-path="url(#clip0_1419_1583)">
<path d="M5.164 14.0001H15C13.5 13.0001 13 8.09806 13 7.00006C13 6.73606 12.98 6.47706 12.94 6.22406L5.164 14.0001ZM11.452 3.38306C10.7707 2.73185 9.91876 2.28701 8.995 2.10006C9.00895 1.96101 8.99361 1.82058 8.94996 1.68783C8.90631 1.55508 8.83532 1.43295 8.74157 1.32931C8.64782 1.22568 8.53339 1.14285 8.40566 1.08616C8.27793 1.02947 8.13974 1.00018 8 1.00018C7.86025 1.00018 7.72206 1.02947 7.59433 1.08616C7.4666 1.14285 7.35217 1.22568 7.25842 1.32931C7.16467 1.43295 7.09368 1.55508 7.05003 1.68783C7.00638 1.82058 6.99104 1.96101 7.005 2.10006C5.87488 2.32992 4.85891 2.94324 4.12908 3.83617C3.39924 4.7291 3.00037 5.8468 3 7.00006C3 7.89806 2.665 11.3421 1.722 13.1131L11.452 3.38306ZM10 15.0001C10 15.5305 9.78928 16.0392 9.41421 16.4143C9.03914 16.7893 8.53043 17.0001 8 17.0001C7.46956 17.0001 6.96085 16.7893 6.58578 16.4143C6.21071 16.0392 6 15.5305 6 15.0001H10ZM0.624996 15.6251C0.525539 15.7245 0.469666 15.8594 0.469666 16.0001C0.469666 16.1407 0.525539 16.2756 0.624996 16.3751C0.724452 16.4745 0.859343 16.5304 0.999996 16.5304C1.14065 16.5304 1.27554 16.4745 1.375 16.3751L16.125 1.62506C16.1742 1.57581 16.2133 1.51735 16.24 1.45301C16.2666 1.38866 16.2803 1.3197 16.2803 1.25006C16.2803 1.18041 16.2666 1.11145 16.24 1.04711C16.2133 0.982765 16.1742 0.924302 16.125 0.875057C16.0757 0.825811 16.0173 0.786747 15.9529 0.760096C15.8886 0.733444 15.8196 0.719727 15.75 0.719727C15.6804 0.719727 15.6114 0.733444 15.547 0.760096C15.4827 0.786747 15.4242 0.825811 15.375 0.875057L0.624996 15.6251Z" fill="#1B1B1B"/>
</g>
<defs>
<clipPath id="clip0_1419_1583">
<rect width="16" height="16" fill="white"/>
</clipPath>
</defs>
</svg>
