<svg width="16" height="16" viewBox="0 0 16 16" fill="none" xmlns="http://www.w3.org/2000/svg">
<path d="M2 4C2 3.46957 2.21071 2.96086 2.58579 2.58579C2.96086 2.21071 3.46957 2 4 2H10C10.5304 2 11.0391 2.21071 11.4142 2.58579C11.7893 2.96086 12 3.46957 12 4V15.5C12 15.5904 11.9754 15.6792 11.9289 15.7568C11.8824 15.8343 11.8157 15.8979 11.736 15.9405C11.6563 15.9832 11.5664 16.0035 11.4761 15.9992C11.3858 15.9948 11.2983 15.9661 11.223 15.916L7 13.101L2.777 15.916C2.70171 15.9661 2.61423 15.9948 2.52389 15.9992C2.43355 16.0035 2.34373 15.9832 2.264 15.9405C2.18427 15.8979 2.1176 15.8343 2.07111 15.7568C2.02462 15.6792 2.00005 15.5904 2 15.5V4Z" fill="currentColor"/>
<path d="M4.26807 1C4.4436 0.695969 4.69607 0.443498 5.00009 0.267962C5.30412 0.0924257 5.649 8.91844e-06 6.00007 0L12.0001 0C12.5305 0 13.0392 0.210714 13.4143 0.585786C13.7894 0.960859 14.0001 1.46957 14.0001 2V13.5C14 13.5904 13.9754 13.6792 13.929 13.7568C13.8825 13.8343 13.8158 13.8979 13.7361 13.9405C13.6563 13.9832 13.5665 14.0035 13.4762 13.9992C13.3858 13.9948 13.2984 13.9661 13.2231 13.916L13.0001 13.768V2C13.0001 1.73478 12.8947 1.48043 12.7072 1.29289C12.5196 1.10536 12.2653 1 12.0001 1H4.26807Z" fill="currentColor"/>
</svg>
