<svg width="16" height="16" viewBox="0 0 16 16" fill="none" xmlns="http://www.w3.org/2000/svg">
<g clip-path="url(#clip0_1419_1955)">
<path d="M5.06201 11.9999H8.53701C10.341 11.9999 11.425 11.0919 11.425 9.60395C11.425 8.50195 10.664 7.68795 9.52101 7.56995V7.46995C10.353 7.32995 11.003 6.53995 11.003 5.65395C11.003 4.35395 10.048 3.54395 8.46101 3.54395H5.06201V11.9999ZM6.37501 7.12495V4.65795H8.15501C9.12801 4.65795 9.69701 5.11495 9.69701 5.89495C9.69701 6.69695 9.09301 7.12495 7.93301 7.12495H6.37501ZM6.37501 10.8869V8.16195H8.19701C9.43301 8.16195 10.084 8.62495 10.084 9.50995C10.084 10.4059 9.45701 10.8869 8.27301 10.8869H6.37501V10.8869Z" fill="currentColor"/>
<path d="M0 4C0 2.93913 0.421427 1.92172 1.17157 1.17157C1.92172 0.421427 2.93913 0 4 0L12 0C13.0609 0 14.0783 0.421427 14.8284 1.17157C15.5786 1.92172 16 2.93913 16 4V12C16 13.0609 15.5786 14.0783 14.8284 14.8284C14.0783 15.5786 13.0609 16 12 16H4C2.93913 16 1.92172 15.5786 1.17157 14.8284C0.421427 14.0783 0 13.0609 0 12V4ZM4 1C3.20435 1 2.44129 1.31607 1.87868 1.87868C1.31607 2.44129 1 3.20435 1 4V12C1 12.7956 1.31607 13.5587 1.87868 14.1213C2.44129 14.6839 3.20435 15 4 15H12C12.7956 15 13.5587 14.6839 14.1213 14.1213C14.6839 13.5587 15 12.7956 15 12V4C15 3.20435 14.6839 2.44129 14.1213 1.87868C13.5587 1.31607 12.7956 1 12 1H4Z" fill="currentColor"/>
</g>
<defs>
<clipPath id="clip0_1419_1955">
<rect width="16" height="16" fill="white"/>
</clipPath>
</defs>
</svg>
