<svg width="16" height="16" viewBox="0 0 16 16" fill="none" xmlns="http://www.w3.org/2000/svg">
<g clip-path="url(#clip0_1419_315)">
<path fill-rule="evenodd" clip-rule="evenodd" d="M10 12.5C10 12.6326 9.94732 12.7598 9.85355 12.8536C9.75979 12.9473 9.63261 13 9.5 13H1.5C1.36739 13 1.24021 12.9473 1.14645 12.8536C1.05268 12.7598 1 12.6326 1 12.5V3.5C1 3.36739 1.05268 3.24021 1.14645 3.14645C1.24021 3.05268 1.36739 3 1.5 3H9.5C9.63261 3 9.75979 3.05268 9.85355 3.14645C9.94732 3.24021 10 3.36739 10 3.5V5.5C10 5.63261 10.0527 5.75979 10.1464 5.85355C10.2402 5.94732 10.3674 6 10.5 6C10.6326 6 10.7598 5.94732 10.8536 5.85355C10.9473 5.75979 11 5.63261 11 5.5V3.5C11 3.10218 10.842 2.72064 10.5607 2.43934C10.2794 2.15804 9.89782 2 9.5 2H1.5C1.10218 2 0.720644 2.15804 0.43934 2.43934C0.158035 2.72064 0 3.10218 0 3.5L0 12.5C0 12.8978 0.158035 13.2794 0.43934 13.5607C0.720644 13.842 1.10218 14 1.5 14H9.5C9.89782 14 10.2794 13.842 10.5607 13.5607C10.842 13.2794 11 12.8978 11 12.5V10.5C11 10.3674 10.9473 10.2402 10.8536 10.1464C10.7598 10.0527 10.6326 10 10.5 10C10.3674 10 10.2402 10.0527 10.1464 10.1464C10.0527 10.2402 10 10.3674 10 10.5V12.5Z" fill="#1B1B1B"/>
<path fill-rule="evenodd" clip-rule="evenodd" d="M15.854 8.3539C15.9006 8.30745 15.9375 8.25228 15.9627 8.19153C15.9879 8.13079 16.0009 8.06567 16.0009 7.9999C16.0009 7.93413 15.9879 7.86901 15.9627 7.80827C15.9375 7.74752 15.9006 7.69234 15.854 7.6459L12.854 4.6459C12.7601 4.55201 12.6328 4.49927 12.5 4.49927C12.3672 4.49927 12.2399 4.55201 12.146 4.6459C12.0521 4.73979 11.9994 4.86712 11.9994 4.9999C11.9994 5.13268 12.0521 5.26001 12.146 5.3539L14.293 7.4999H5.5C5.36739 7.4999 5.24021 7.55258 5.14645 7.64635C5.05268 7.74011 5 7.86729 5 7.9999C5 8.13251 5.05268 8.25968 5.14645 8.35345C5.24021 8.44722 5.36739 8.4999 5.5 8.4999H14.293L12.146 10.6459C12.0521 10.7398 11.9994 10.8671 11.9994 10.9999C11.9994 11.1327 12.0521 11.26 12.146 11.3539C12.2399 11.4478 12.3672 11.5005 12.5 11.5005C12.6328 11.5005 12.7601 11.4478 12.854 11.3539L15.854 8.3539V8.3539Z" fill="#1B1B1B"/>
</g>
<defs>
<clipPath id="clip0_1419_315">
<rect width="16" height="16" fill="white"/>
</clipPath>
</defs>
</svg>
