<svg width="16" height="16" viewBox="0 0 16 16" fill="none" xmlns="http://www.w3.org/2000/svg">
<g clip-path="url(#clip0_1419_304)">
<path fill-rule="evenodd" clip-rule="evenodd" d="M8.636 12.5C8.636 12.6326 8.58332 12.7598 8.48955 12.8536C8.39579 12.9473 8.26861 13 8.136 13H1.5C1.10218 13 0.720644 12.842 0.43934 12.5607C0.158035 12.2794 0 11.8978 0 11.5L0 1.5C0 1.10218 0.158035 0.720644 0.43934 0.43934C0.720644 0.158035 1.10218 0 1.5 0L11.5 0C11.8978 0 12.2794 0.158035 12.5607 0.43934C12.842 0.720644 13 1.10218 13 1.5V8.136C13 8.26861 12.9473 8.39579 12.8536 8.48955C12.7598 8.58332 12.6326 8.636 12.5 8.636C12.3674 8.636 12.2402 8.58332 12.1464 8.48955C12.0527 8.39579 12 8.26861 12 8.136V1.5C12 1.36739 11.9473 1.24021 11.8536 1.14645C11.7598 1.05268 11.6326 1 11.5 1H1.5C1.36739 1 1.24021 1.05268 1.14645 1.14645C1.05268 1.24021 1 1.36739 1 1.5V11.5C1 11.6326 1.05268 11.7598 1.14645 11.8536C1.24021 11.9473 1.36739 12 1.5 12H8.136C8.26861 12 8.39579 12.0527 8.48955 12.1464C8.58332 12.2402 8.636 12.3674 8.636 12.5Z" fill="currentColor"/>
<path fill-rule="evenodd" clip-rule="evenodd" d="M16 15.4999C16 15.6325 15.9473 15.7597 15.8536 15.8535C15.7598 15.9472 15.6326 15.9999 15.5 15.9999H10.5C10.3674 15.9999 10.2402 15.9472 10.1465 15.8535C10.0527 15.7597 10 15.6325 10 15.4999C10 15.3673 10.0527 15.2401 10.1465 15.1463C10.2402 15.0526 10.3674 14.9999 10.5 14.9999H14.293L6.14602 6.8539C6.09953 6.80741 6.06266 6.75222 6.0375 6.69148C6.01234 6.63074 5.99939 6.56564 5.99939 6.4999C5.99939 6.43416 6.01234 6.36906 6.0375 6.30832C6.06266 6.24758 6.09953 6.19239 6.14602 6.1459C6.19251 6.09941 6.2477 6.06254 6.30844 6.03738C6.36918 6.01222 6.43428 5.99927 6.50002 5.99927C6.56577 5.99927 6.63087 6.01222 6.69161 6.03738C6.75234 6.06254 6.80753 6.09941 6.85402 6.1459L15 14.2929V10.4999C15 10.3673 15.0527 10.2401 15.1465 10.1463C15.2402 10.0526 15.3674 9.9999 15.5 9.9999C15.6326 9.9999 15.7598 10.0526 15.8536 10.1463C15.9473 10.2401 16 10.3673 16 10.4999V15.4999Z" fill="currentColor"/>
</g>
<defs>
<clipPath id="clip0_1419_304">
<rect width="16" height="16" fill="white"/>
</clipPath>
</defs>
</svg>
