<svg width="16" height="16" viewBox="0 0 16 16" fill="none" xmlns="http://www.w3.org/2000/svg">
<path fill-rule="evenodd" clip-rule="evenodd" d="M6.364 2.5C6.364 2.36739 6.41668 2.24021 6.51045 2.14645C6.60421 2.05268 6.73139 2 6.864 2H13.5C13.8978 2 14.2794 2.15804 14.5607 2.43934C14.842 2.72064 15 3.10218 15 3.5V13.5C15 13.8978 14.842 14.2794 14.5607 14.5607C14.2794 14.842 13.8978 15 13.5 15H3.5C3.10218 15 2.72064 14.842 2.43934 14.5607C2.15804 14.2794 2 13.8978 2 13.5V6.864C2 6.73139 2.05268 6.60421 2.14645 6.51045C2.24021 6.41668 2.36739 6.364 2.5 6.364C2.63261 6.364 2.75979 6.41668 2.85355 6.51045C2.94732 6.60421 3 6.73139 3 6.864V13.5C3 13.6326 3.05268 13.7598 3.14645 13.8536C3.24021 13.9473 3.36739 14 3.5 14H13.5C13.6326 14 13.7598 13.9473 13.8536 13.8536C13.9473 13.7598 14 13.6326 14 13.5V3.5C14 3.36739 13.9473 3.24021 13.8536 3.14645C13.7598 3.05268 13.6326 3 13.5 3H6.864C6.73139 3 6.60421 2.94732 6.51045 2.85355C6.41668 2.75979 6.364 2.63261 6.364 2.5Z" fill="#1B1B1B"/>
<path fill-rule="evenodd" clip-rule="evenodd" d="M11 10.4999C11 10.6325 10.9473 10.7597 10.8536 10.8535C10.7598 10.9472 10.6326 10.9999 10.5 10.9999H5.50002C5.36741 10.9999 5.24024 10.9472 5.14647 10.8535C5.0527 10.7597 5.00002 10.6325 5.00002 10.4999C5.00002 10.3673 5.0527 10.2401 5.14647 10.1463C5.24024 10.0526 5.36741 9.9999 5.50002 9.9999H9.29302L1.14602 1.8539C1.09953 1.80741 1.06266 1.75222 1.0375 1.69148C1.01234 1.63074 0.99939 1.56564 0.99939 1.4999C0.99939 1.43416 1.01234 1.36906 1.0375 1.30832C1.06266 1.24758 1.09953 1.19239 1.14602 1.1459C1.19251 1.09941 1.2477 1.06253 1.30844 1.03738C1.36918 1.01222 1.43428 0.999268 1.50002 0.999268C1.56577 0.999268 1.63087 1.01222 1.6916 1.03738C1.75234 1.06253 1.80753 1.09941 1.85402 1.1459L10 9.2929V5.4999C10 5.36729 10.0527 5.24011 10.1465 5.14635C10.2402 5.05258 10.3674 4.9999 10.5 4.9999C10.6326 4.9999 10.7598 5.05258 10.8536 5.14635C10.9473 5.24011 11 5.36729 11 5.4999V10.4999Z" fill="#1B1B1B"/>
</svg>
