<svg width="16" height="16" viewBox="0 0 16 16" fill="none" xmlns="http://www.w3.org/2000/svg">
<g clip-path="url(#clip0_1419_303)">
<path fill-rule="evenodd" clip-rule="evenodd" d="M7.364 12.5C7.364 12.6326 7.41668 12.7598 7.51045 12.8536C7.60421 12.9473 7.73139 13 7.864 13H14.5C14.8978 13 15.2794 12.842 15.5607 12.5607C15.842 12.2794 16 11.8978 16 11.5V1.5C16 1.10218 15.842 0.720644 15.5607 0.43934C15.2794 0.158035 14.8978 0 14.5 0L4.5 0C4.10218 0 3.72064 0.158035 3.43934 0.43934C3.15804 0.720644 3 1.10218 3 1.5V8.136C3 8.26861 3.05268 8.39579 3.14645 8.48955C3.24021 8.58332 3.36739 8.636 3.5 8.636C3.63261 8.636 3.75979 8.58332 3.85355 8.48955C3.94732 8.39579 4 8.26861 4 8.136V1.5C4 1.36739 4.05268 1.24021 4.14645 1.14645C4.24021 1.05268 4.36739 1 4.5 1H14.5C14.6326 1 14.7598 1.05268 14.8536 1.14645C14.9473 1.24021 15 1.36739 15 1.5V11.5C15 11.6326 14.9473 11.7598 14.8536 11.8536C14.7598 11.9473 14.6326 12 14.5 12H7.864C7.73139 12 7.60421 12.0527 7.51045 12.1464C7.41668 12.2402 7.364 12.3674 7.364 12.5Z" fill="#1B1B1B"/>
<path fill-rule="evenodd" clip-rule="evenodd" d="M0 15.4999C0 15.6325 0.0526784 15.7597 0.146447 15.8535C0.240215 15.9472 0.367392 15.9999 0.5 15.9999H5.5C5.63261 15.9999 5.75979 15.9472 5.85355 15.8535C5.94732 15.7597 6 15.6325 6 15.4999C6 15.3673 5.94732 15.2401 5.85355 15.1463C5.75979 15.0526 5.63261 14.9999 5.5 14.9999H1.707L9.854 6.8539C9.94789 6.76001 10.0006 6.63268 10.0006 6.4999C10.0006 6.36712 9.94789 6.23979 9.854 6.1459C9.76011 6.05201 9.63278 5.99927 9.5 5.99927C9.36722 5.99927 9.23989 6.05201 9.146 6.1459L1 14.2929V10.4999C1 10.3673 0.947322 10.2401 0.853553 10.1463C0.759785 10.0526 0.632608 9.9999 0.5 9.9999C0.367392 9.9999 0.240215 10.0526 0.146447 10.1463C0.0526784 10.2401 0 10.3673 0 10.4999L0 15.4999Z" fill="#1B1B1B"/>
</g>
<defs>
<clipPath id="clip0_1419_303">
<rect width="16" height="16" fill="white"/>
</clipPath>
</defs>
</svg>
