<svg width="16" height="16" viewBox="0 0 16 16" fill="none" xmlns="http://www.w3.org/2000/svg">
<path fill-rule="evenodd" clip-rule="evenodd" d="M3.5 10C3.36739 10 3.24021 9.94732 3.14645 9.85355C3.05268 9.75979 3 9.63261 3 9.5V1.5C3 1.36739 3.05268 1.24021 3.14645 1.14645C3.24021 1.05268 3.36739 1 3.5 1H12.5C12.6326 1 12.7598 1.05268 12.8536 1.14645C12.9473 1.24021 13 1.36739 13 1.5V9.5C13 9.63261 12.9473 9.75979 12.8536 9.85355C12.7598 9.94732 12.6326 10 12.5 10H10.5C10.3674 10 10.2402 10.0527 10.1464 10.1464C10.0527 10.2402 10 10.3674 10 10.5C10 10.6326 10.0527 10.7598 10.1464 10.8536C10.2402 10.9473 10.3674 11 10.5 11H12.5C12.8978 11 13.2794 10.842 13.5607 10.5607C13.842 10.2794 14 9.89782 14 9.5V1.5C14 1.10218 13.842 0.720644 13.5607 0.43934C13.2794 0.158035 12.8978 0 12.5 0L3.5 0C3.10218 0 2.72064 0.158035 2.43934 0.43934C2.15804 0.720644 2 1.10218 2 1.5V9.5C2 9.89782 2.15804 10.2794 2.43934 10.5607C2.72064 10.842 3.10218 11 3.5 11H5.5C5.63261 11 5.75979 10.9473 5.85355 10.8536C5.94732 10.7598 6 10.6326 6 10.5C6 10.3674 5.94732 10.2402 5.85355 10.1464C5.75979 10.0527 5.63261 10 5.5 10H3.5Z" fill="#1B1B1B"/>
<path fill-rule="evenodd" clip-rule="evenodd" d="M7.64602 4.14592C7.69247 4.09935 7.74764 4.06241 7.80839 4.0372C7.86913 4.012 7.93425 3.99902 8.00002 3.99902C8.06579 3.99902 8.13091 4.012 8.19165 4.0372C8.2524 4.06241 8.30758 4.09935 8.35402 4.14592L11.354 7.14592C11.4479 7.2398 11.5007 7.36714 11.5007 7.49992C11.5007 7.63269 11.4479 7.76003 11.354 7.85392C11.2601 7.9478 11.1328 8.00055 11 8.00055C10.8672 8.00055 10.7399 7.9478 10.646 7.85392L8.50002 5.70692V14.4999C8.50002 14.6325 8.44734 14.7597 8.35358 14.8535C8.25981 14.9472 8.13263 14.9999 8.00002 14.9999C7.86741 14.9999 7.74024 14.9472 7.64647 14.8535C7.5527 14.7597 7.50002 14.6325 7.50002 14.4999V5.70692L5.35402 7.85392C5.26013 7.9478 5.1328 8.00055 5.00002 8.00055C4.86725 8.00055 4.73991 7.9478 4.64602 7.85392C4.55213 7.76003 4.49939 7.63269 4.49939 7.49992C4.49939 7.36714 4.55213 7.2398 4.64602 7.14592L7.64602 4.14592Z" fill="#1B1B1B"/>
</svg>
