<svg width="16" height="16" viewBox="0 0 16 16" fill="none" xmlns="http://www.w3.org/2000/svg">
<g clip-path="url(#clip0_1419_833)">
<path fill-rule="evenodd" clip-rule="evenodd" d="M15.528 2.97311C15.6672 3.02867 15.7866 3.12468 15.8707 3.24874C15.9549 3.37279 15.9999 3.51922 16 3.66911V12.3311C15.9999 12.481 15.9549 12.6274 15.8707 12.7515C15.7866 12.8755 15.6672 12.9716 15.528 13.0271L8.278 15.9271C8.09922 15.9986 7.89978 15.9986 7.721 15.9271L0.471 13.0271C0.331969 12.9714 0.212805 12.8753 0.128861 12.7513C0.0449156 12.6272 3.48599e-05 12.4809 0 12.3311L0 3.66911C3.48599e-05 3.51933 0.0449156 3.37299 0.128861 3.24895C0.212805 3.1249 0.331969 3.02883 0.471 2.97311L7.443 0.184113L7.447 0.183113L7.721 0.0731126C7.90008 0.00134529 8.09992 0.00134529 8.279 0.0731126L8.553 0.183113L8.557 0.184113L15.528 2.97311V2.97311ZM14.154 3.50011L8 5.96211L1.846 3.50011L1 3.83911V4.23911L7.5 6.83911V14.7611L8 14.9611L8.5 14.7611V6.84011L15 4.24011V3.84011L14.154 3.50111V3.50011Z" fill="currentColor"/>
</g>
<defs>
<clipPath id="clip0_1419_833">
<rect width="16" height="16" fill="white"/>
</clipPath>
</defs>
</svg>
