<svg width="16" height="16" viewBox="0 0 16 16" fill="none" xmlns="http://www.w3.org/2000/svg">
<g clip-path="url(#clip0_1419_836)">
<path d="M8.186 1.11291C8.06662 1.06507 7.93338 1.06507 7.814 1.11291L1.846 3.49991L8 5.96091L14.154 3.49991L8.186 1.11291ZM15 4.23891L8.5 6.83891V14.7609L15 12.1609V4.23991V4.23891ZM7.5 14.7619V6.83791L1 4.23891V12.1619L7.5 14.7619V14.7619ZM7.443 0.183911C7.80057 0.04091 8.19943 0.04091 8.557 0.183911L15.686 3.03591C15.7787 3.07306 15.8581 3.1371 15.9141 3.2198C15.9701 3.3025 16 3.40006 16 3.49991V12.1619C15.9999 12.3617 15.9399 12.5569 15.8278 12.7223C15.7157 12.8877 15.5566 13.0158 15.371 13.0899L8.186 15.9639C8.06662 16.0118 7.93338 16.0118 7.814 15.9639L0.63 13.0899C0.444251 13.0159 0.284942 12.888 0.172642 12.7226C0.0603417 12.5571 0.000206329 12.3618 0 12.1619L0 3.49991C2.32399e-05 3.40006 0.0299437 3.3025 0.085907 3.2198C0.14187 3.1371 0.221313 3.07306 0.314 3.03591L7.443 0.183911Z" fill="currentColor"/>
</g>
<defs>
<clipPath id="clip0_1419_836">
<rect width="16" height="16" fill="white"/>
</clipPath>
</defs>
</svg>
