<svg width="16" height="16" viewBox="0 0 16 16" fill="none" xmlns="http://www.w3.org/2000/svg">
<g clip-path="url(#clip0_1419_839)">
<path d="M7.99999 7.98196C9.66399 6.30896 13.825 9.23596 7.99999 13C2.17499 9.23596 6.33599 6.30996 7.99999 7.98196Z" fill="currentColor"/>
<path d="M3.75 0C3.59475 0 3.44164 0.0361451 3.30279 0.105573C3.16393 0.175001 3.04315 0.275804 2.95 0.4L0.1 4.2C0.0350889 4.28655 0 4.39181 0 4.5L0 15C0 15.2652 0.105357 15.5196 0.292893 15.7071C0.48043 15.8946 0.734784 16 1 16H15C15.2652 16 15.5196 15.8946 15.7071 15.7071C15.8946 15.5196 16 15.2652 16 15V4.5C16 4.39181 15.9649 4.28655 15.9 4.2L13.05 0.4C12.9569 0.275804 12.8361 0.175001 12.6972 0.105573C12.5584 0.0361451 12.4052 0 12.25 0L3.75 0ZM3.75 1H7.5V4H1.5L3.75 1ZM8.5 4V1H12.25L14.5 4H8.5ZM15 5V15H1V5H15Z" fill="currentColor"/>
</g>
<defs>
<clipPath id="clip0_1419_839">
<rect width="16" height="16" fill="white"/>
</clipPath>
</defs>
</svg>
