<svg width="16" height="16" viewBox="0 0 16 16" fill="none" xmlns="http://www.w3.org/2000/svg">
<g clip-path="url(#clip0_1419_841)">
<path d="M7.752 0.0660829C7.82753 0.0229377 7.91301 0.000244141 8 0.000244141C8.08699 0.000244141 8.17247 0.0229377 8.248 0.0660829L11.998 2.20908C12.0745 2.2528 12.1381 2.31596 12.1824 2.39218C12.2266 2.46839 12.25 2.55495 12.25 2.64308V6.63808L15.748 8.63808C15.8242 8.68163 15.8877 8.74448 15.9319 8.82031C15.9761 8.89615 15.9996 8.98229 16 9.07008V13.3561C16 13.4442 15.9766 13.5308 15.9324 13.607C15.8881 13.6832 15.8245 13.7464 15.748 13.7901L11.998 15.9331C11.9225 15.9762 11.837 15.9989 11.75 15.9989C11.663 15.9989 11.5775 15.9762 11.502 15.9331L8 13.9331L4.498 15.9341C4.42247 15.9772 4.33699 15.9999 4.25 15.9999C4.16301 15.9999 4.07753 15.9772 4.002 15.9341L0.252 13.7911C0.175473 13.7474 0.11186 13.6842 0.0676055 13.608C0.0233513 13.5318 2.8427e-05 13.4452 0 13.3571L0 9.07108C2.8427e-05 8.98295 0.0233513 8.89639 0.0676055 8.82018C0.11186 8.74396 0.175473 8.6808 0.252 8.63708L3.75 6.63808V2.64308C3.75003 2.55495 3.77335 2.46839 3.81761 2.39218C3.86186 2.31596 3.92547 2.2528 4.002 2.20908L7.752 0.0660829ZM4.25 7.50408L1.508 9.07108L4.25 10.6381L6.992 9.07108L4.25 7.50408ZM7.5 9.93308L4.75 11.5041V14.6381L7.5 13.0671V9.93308ZM8.5 13.0671L11.25 14.6381V11.5041L8.5 9.93308V13.0671ZM9.008 9.07108L11.75 10.6381L14.492 9.07108L11.75 7.50408L9.008 9.07108ZM11.25 6.63808V3.50408L8.5 5.07608V8.21008L11.25 6.63808V6.63808ZM7.5 8.21008V5.07608L4.75 3.50408V6.63808L7.5 8.21008ZM5.258 2.64308L8 4.21008L10.742 2.64308L8 1.07608L5.258 2.64308ZM15 9.93308L12.25 11.5041V14.6381L15 13.0671V9.93308ZM3.75 14.6381V11.5041L1 9.93308V13.0671L3.75 14.6381Z" fill="currentColor"/>
</g>
<defs>
<clipPath id="clip0_1419_841">
<rect width="16" height="16" fill="white"/>
</clipPath>
</defs>
</svg>
