<svg width="16" height="16" viewBox="0 0 16 16" fill="none" xmlns="http://www.w3.org/2000/svg">
<g clip-path="url(#clip0_1419_2016)">
<path d="M3.04999 3.0499C2.3999 3.69992 1.88422 4.47163 1.53239 5.32095C1.18057 6.17028 0.999481 7.08059 0.999481 7.9999C0.999481 8.91922 1.18057 9.82953 1.53239 10.6789C1.88422 11.5282 2.3999 12.2999 3.04999 12.9499C3.14107 13.0442 3.19146 13.1705 3.19032 13.3016C3.18918 13.4327 3.1366 13.5581 3.0439 13.6508C2.95119 13.7435 2.82579 13.7961 2.69469 13.7972C2.56359 13.7984 2.43729 13.748 2.34299 13.6569C1.60007 12.914 1.01076 12.0321 0.608698 11.0615C0.206635 10.0908 -0.000305176 9.05051 -0.000305176 7.9999C-0.000305176 6.94929 0.206635 5.90897 0.608698 4.93834C1.01076 3.96771 1.60007 3.08578 2.34299 2.3429C2.43729 2.25182 2.56359 2.20143 2.69469 2.20257C2.82579 2.20371 2.95119 2.25629 3.0439 2.34899C3.1366 2.4417 3.18918 2.5671 3.19032 2.6982C3.19146 2.8293 3.14107 2.9556 3.04999 3.0499ZM5.17199 5.1719C4.4221 5.92201 4.00084 6.93925 4.00084 7.9999C4.00084 9.06056 4.4221 10.0778 5.17199 10.8279C5.21847 10.8744 5.25535 10.9296 5.28051 10.9903C5.30567 11.0511 5.31862 11.1162 5.31862 11.1819C5.31862 11.2476 5.30567 11.3127 5.28051 11.3735C5.25535 11.4342 5.21847 11.4894 5.17199 11.5359C5.1255 11.5824 5.07031 11.6193 5.00957 11.6444C4.94883 11.6696 4.88373 11.6825 4.81799 11.6825C4.75224 11.6825 4.68714 11.6696 4.6264 11.6444C4.56566 11.6193 4.51047 11.5824 4.46399 11.5359C3.99955 11.0716 3.63114 10.5203 3.37978 9.91362C3.12843 9.30691 2.99905 8.65662 2.99905 7.9999C2.99905 7.34318 3.12843 6.6929 3.37978 6.08618C3.63114 5.47947 3.99955 4.92821 4.46399 4.4639C4.55787 4.37002 4.68521 4.31727 4.81799 4.31727C4.95076 4.31727 5.0781 4.37002 5.17199 4.4639C5.26587 4.55779 5.31862 4.68513 5.31862 4.8179C5.31862 4.95068 5.26587 5.07802 5.17199 5.1719V5.1719ZM10.828 4.4639C10.8744 4.41734 10.9296 4.3804 10.9904 4.35519C11.0511 4.32998 11.1162 4.31701 11.182 4.31701C11.2478 4.31701 11.3129 4.32998 11.3736 4.35519C11.4344 4.3804 11.4895 4.41734 11.536 4.4639C12.0004 4.92821 12.3688 5.47947 12.6202 6.08618C12.8715 6.6929 13.0009 7.34318 13.0009 7.9999C13.0009 8.65662 12.8715 9.30691 12.6202 9.91362C12.3688 10.5203 12.0004 11.0716 11.536 11.5359C11.4895 11.5824 11.4343 11.6193 11.3736 11.6444C11.3128 11.6696 11.2477 11.6825 11.182 11.6825C11.1162 11.6825 11.0511 11.6696 10.9904 11.6444C10.9297 11.6193 10.8745 11.5824 10.828 11.5359C10.7815 11.4894 10.7446 11.4342 10.7195 11.3735C10.6943 11.3127 10.6814 11.2476 10.6814 11.1819C10.6814 11.1162 10.6943 11.0511 10.7195 10.9903C10.7446 10.9296 10.7815 10.8744 10.828 10.8279C11.5779 10.0778 11.9991 9.06056 11.9991 7.9999C11.9991 6.93925 11.5779 5.92201 10.828 5.1719C10.7814 5.12546 10.7445 5.07028 10.7193 5.00954C10.6941 4.94879 10.6811 4.88367 10.6811 4.8179C10.6811 4.75214 10.6941 4.68701 10.7193 4.62627C10.7445 4.56552 10.7814 4.51035 10.828 4.4639ZM12.95 2.3439C13.0438 2.25017 13.1709 2.19751 13.3035 2.19751C13.4361 2.19751 13.5632 2.25017 13.657 2.3439C15.1571 3.84417 15.9998 5.87884 15.9998 8.0004C15.9998 10.122 15.1571 12.1566 13.657 13.6569C13.5627 13.748 13.4364 13.7984 13.3053 13.7972C13.1742 13.7961 13.0488 13.7435 12.9561 13.6508C12.8634 13.5581 12.8108 13.4327 12.8096 13.3016C12.8085 13.1705 12.8589 13.0442 12.95 12.9499C13.6001 12.2999 14.1158 11.5282 14.4676 10.6789C14.8194 9.82953 15.0005 8.91922 15.0005 7.9999C15.0005 7.08059 14.8194 6.17028 14.4676 5.32095C14.1158 4.47163 13.6001 3.69992 12.95 3.0499C12.8563 2.95614 12.8036 2.82899 12.8036 2.6964C12.8036 2.56382 12.8563 2.43667 12.95 2.3429V2.3439ZM5.99999 7.9999C6.00008 7.62586 6.10507 7.25933 6.30302 6.94196C6.50098 6.62459 6.78396 6.36909 7.11984 6.20449C7.45572 6.03988 7.83103 5.97276 8.20314 6.01076C8.57525 6.04875 8.92925 6.19033 9.22493 6.41943C9.52061 6.64852 9.74612 6.95594 9.87585 7.30677C10.0056 7.6576 10.0343 8.03778 9.95882 8.40412C9.88331 8.77047 9.70659 9.1083 9.44872 9.37925C9.19084 9.65019 8.86215 9.84339 8.49999 9.9369V15.4999C8.49999 15.6325 8.44731 15.7597 8.35354 15.8535C8.25977 15.9472 8.13259 15.9999 7.99999 15.9999C7.86738 15.9999 7.7402 15.9472 7.64643 15.8535C7.55266 15.7597 7.49999 15.6325 7.49999 15.4999V9.9369C7.07059 9.82603 6.69022 9.57559 6.41869 9.22495C6.14716 8.87432 5.99987 8.44338 5.99999 7.9999V7.9999Z" fill="#1B1B1B"/>
</g>
<defs>
<clipPath id="clip0_1419_2016">
<rect width="16" height="16" fill="white"/>
</clipPath>
</defs>
</svg>
