<svg width="16" height="16" viewBox="0 0 16 16" fill="none" xmlns="http://www.w3.org/2000/svg">
<g clip-path="url(#clip0_1419_1957)">
<path d="M9.48202 9.341C9.41302 9.403 9.31202 9.494 9.31202 9.65C9.31202 9.812 9.41902 9.975 9.61202 10.106C10.489 10.719 12.133 10.646 12.204 10.644H12.206C12.873 10.644 13.526 10.464 14.1 10.125C14.6773 9.78727 15.1564 9.30454 15.4896 8.72465C15.8229 8.14475 15.9988 7.48784 16 6.819C16.018 5.503 15.56 4.601 15.334 4.155L15.294 4.075C13.963 1.487 11.106 0 8.00002 0C6.35352 2.33785e-06 4.74712 0.508036 3.40003 1.45478C2.05294 2.40152 1.03078 3.74084 0.473022 5.29C1.48802 4.048 3.18302 3.262 5.00002 3.262C7.83002 3.262 10.01 5.147 10.01 8.059H10.006V8.061C10.006 8.399 9.83802 8.893 9.51902 9.305L9.52502 9.299C9.51138 9.31338 9.49703 9.32706 9.48202 9.34V9.341Z" fill="#1B1B1B"/>
<path d="M0.0100124 7.75294C-0.0233483 9.00845 0.234379 10.2547 0.763012 11.3939C1.3549 12.6541 2.26539 13.7379 3.4045 14.5384C4.5436 15.3388 5.87187 15.8281 7.25801 15.9579C6.98628 15.8544 6.7237 15.7283 6.47301 15.5809H6.46301L6.34301 15.5059C5.73149 15.1261 5.20128 14.6289 4.78301 14.0429C4.30579 13.3898 3.9773 12.6401 3.8206 11.8465C3.66391 11.0529 3.6828 10.2347 3.87596 9.44917C4.06912 8.66366 4.43187 7.92994 4.93874 7.29953C5.4456 6.66911 6.08431 6.15727 6.81001 5.79994L6.82001 5.79594L6.84501 5.78394C7.05301 5.68594 7.46501 5.49194 8.01201 5.49894C8.14101 5.49994 8.26901 5.51094 8.39601 5.53194C8.10208 5.25056 7.7673 5.01523 7.40301 4.83394L7.39301 4.82894C6.34801 4.28194 5.19901 4.26294 5.00001 4.26294C2.56001 4.26294 0.176012 5.89694 0.0100124 7.75294V7.75294ZM10.273 15.6649C10.361 15.6379 10.45 15.6109 10.538 15.5809C10.436 15.6129 10.334 15.6409 10.231 15.6669L10.273 15.6649Z" fill="#1B1B1B"/>
<path d="M10.228 15.6669C10.3299 15.6413 10.4309 15.6126 10.531 15.5809L10.613 15.5559C12.335 14.9606 13.8029 13.7967 14.775 12.2559C14.8032 12.2091 14.8153 12.1543 14.8094 12.1C14.8036 12.0457 14.78 11.9948 14.7425 11.9551C14.705 11.9154 14.6555 11.8891 14.6016 11.8802C14.5477 11.8713 14.4923 11.8804 14.444 11.9059C14.229 12.0179 14.008 12.1159 13.781 12.1999C13.0635 12.467 12.3037 12.6025 11.538 12.5999C8.58103 12.5999 6.00603 10.5689 6.00603 7.95588C6.00803 7.82088 6.02303 7.68788 6.05203 7.55688C5.28361 8.32304 4.81481 9.33893 4.73044 10.4207C4.64606 11.5026 4.95169 12.5789 5.59203 13.4549L5.59503 13.4599C5.91003 13.9009 6.30203 14.2809 6.75303 14.5809H6.75603L6.90003 14.6709C7.77703 15.2209 8.62103 15.7489 10.228 15.6669V15.6669Z" fill="#1B1B1B"/>
</g>
<defs>
<clipPath id="clip0_1419_1957">
<rect width="16" height="16" fill="white"/>
</clipPath>
</defs>
</svg>
