<svg width="16" height="16" viewBox="0 0 16 16" fill="none" xmlns="http://www.w3.org/2000/svg">
<g clip-path="url(#clip0_1419_1958)">
<path d="M13.384 3.408C13.919 3.684 14.604 4.56 14.94 5.371C15.4298 6.60777 15.6027 7.94738 15.443 9.268L15.434 9.345C15.4263 9.41978 15.4176 9.49445 15.408 9.569C15.0764 11.4818 14.0398 13.2008 12.5027 14.3866C10.9656 15.5723 9.03981 16.1388 7.1055 15.974C5.17119 15.8092 3.36894 14.9252 2.05458 13.4965C0.740206 12.0679 0.0092379 10.1983 0.00598145 8.257V8.217C0.0219814 7.854 0.0609814 7.493 0.119981 7.135C0.129981 7.061 0.194981 6.715 0.209981 6.646L0.219981 6.595C0.408401 5.75061 0.76221 4.95191 1.26098 4.245C1.47798 3.935 1.72098 3.645 1.98598 3.375C2.21898 3.137 2.47298 2.919 2.74398 2.725C2.82595 2.67093 2.91304 2.62505 3.00398 2.588C2.98598 2.856 2.96398 4.141 3.27198 4.531H3.27498C3.79104 3.92587 4.42713 3.43449 5.14298 3.088C4.98028 3.7105 4.98753 4.36525 5.16398 4.984C5.23398 5.031 5.30098 5.082 5.36398 5.136C5.47098 5.226 5.58998 5.343 5.81798 5.569L5.88598 5.635L5.89498 5.644C5.96156 5.70905 6.03274 5.76921 6.10798 5.824C6.49098 6.111 7.05098 6.387 7.41398 6.565C7.61498 6.665 7.75598 6.733 7.77298 6.758L7.77698 6.766C7.76498 6.959 7.08198 7.624 6.84398 7.624C4.63798 7.624 4.27998 8.959 4.27998 8.959C4.36698 9.956 4.99398 10.798 5.79698 11.316C5.93773 11.4061 6.0844 11.4866 6.23598 11.557C6.31198 11.591 6.38798 11.622 6.46398 11.651C6.78898 11.766 7.12898 11.831 7.47398 11.845C10.517 11.988 11.629 9.041 10.603 7.1V7.099C10.4201 6.75439 10.1718 6.4487 9.87198 6.199C9.69658 6.05402 9.50497 5.92986 9.30098 5.829L9.29798 5.827C9.95603 5.74151 10.6224 5.90329 11.168 6.281C10.8271 5.68029 10.3335 5.18043 9.73703 4.83216C9.1406 4.48389 8.46265 4.2996 7.77198 4.298C7.69398 4.298 7.61898 4.303 7.54198 4.308L7.49998 4.311V4.31H7.49798C7.22715 4.32857 6.95902 4.37549 6.69798 4.45C6.59073 4.34143 6.47966 4.2367 6.36498 4.136C6.30111 4.08176 6.23434 4.03102 6.16498 3.984C6.12869 3.85803 6.09931 3.73018 6.07698 3.601C6.51165 3.44099 6.96688 3.34368 7.42898 3.312L7.47898 3.309C7.53098 3.305 7.60398 3.299 7.68398 3.297C7.99598 2.212 8.73298 0.843 10.17 0.00199972L10.167 0.00699972L10.17 0.00599972L10.172 0.00399972H10.174L10.176 0.00199972C10.1809 0.00063551 10.1861 0.00063551 10.191 0.00199972C10.1957 0.00282422 10.1999 0.00530747 10.203 0.00899972C10.254 0.175996 10.3231 0.336943 10.409 0.489C10.469 0.592 10.531 0.689 10.592 0.786C11.082 1.56 11.615 2.165 12.135 2.754C12.906 3.628 13.647 4.469 14.171 5.774L14.17 5.761C14.031 4.9408 13.7658 4.14707 13.384 3.408Z" fill="#1B1B1B"/>
</g>
<defs>
<clipPath id="clip0_1419_1958">
<rect width="16" height="16" fill="white"/>
</clipPath>
</defs>
</svg>
