<svg width="16" height="16" viewBox="0 0 16 16" fill="none" xmlns="http://www.w3.org/2000/svg">
<g clip-path="url(#clip0_1419_1956)">
<path fill-rule="evenodd" clip-rule="evenodd" d="M16 7.99994C15.9998 9.95224 15.2858 11.8371 13.9924 13.2995C12.6991 14.762 10.9156 15.7011 8.97801 15.9399L10.88 8.84194C11.0223 8.3568 11.0395 7.84352 10.93 7.34994C10.8195 6.84763 10.5807 6.38252 10.237 5.99994H15.748C15.916 6.65332 16.0007 7.32532 16 7.99994V7.99994ZM6.52224e-06 7.99994C-8.12892e-05 10.1091 0.832745 12.1329 2.31728 13.6311C3.80182 15.1294 5.81795 15.9807 7.92701 15.9999L9.35301 10.6789C9.124 10.7947 8.88099 10.8804 8.63001 10.9339C8.04739 11.0605 7.44021 11.0093 6.88701 10.7869C6.49364 10.6302 6.13811 10.3916 5.84401 10.0869L0.633007 4.87594C0.213934 5.86407 -0.00136611 6.92662 6.52224e-06 7.99994V7.99994ZM5.00401 7.83294L1.10801 3.93594C1.86668 2.65052 2.9697 1.60288 4.29247 0.911387C5.61523 0.219889 7.10502 -0.0879087 8.59352 0.0227665C10.082 0.133442 11.5099 0.65818 12.7159 1.5377C13.9218 2.41721 14.8578 3.61646 15.418 4.99994H8.06601C7.63602 4.98961 7.2089 5.07251 6.81401 5.24294C6.30033 5.46225 5.85844 5.82119 5.5385 6.27901C5.21855 6.73683 5.03338 7.27518 5.00401 7.83294V7.83294ZM8.00001 9.99994C8.53044 9.99994 9.03915 9.78923 9.41422 9.41415C9.78929 9.03908 10 8.53037 10 7.99994C10 7.46951 9.78929 6.9608 9.41422 6.58573C9.03915 6.21065 8.53044 5.99994 8.00001 5.99994C7.46957 5.99994 6.96087 6.21065 6.58579 6.58573C6.21072 6.9608 6.00001 7.46951 6.00001 7.99994C6.00001 8.53037 6.21072 9.03908 6.58579 9.41415C6.96087 9.78923 7.46957 9.99994 8.00001 9.99994V9.99994Z" fill="currentColor"/>
</g>
<defs>
<clipPath id="clip0_1419_1956">
<rect width="16" height="16" fill="white"/>
</clipPath>
</defs>
</svg>
