<svg width="16" height="16" viewBox="0 0 16 16" fill="none" xmlns="http://www.w3.org/2000/svg">
<g clip-path="url(#clip0_1419_1959)">
<path d="M8 16C10.1217 16 12.1566 15.1571 13.6569 13.6569C15.1571 12.1566 16 10.1217 16 8C16 5.87827 15.1571 3.84344 13.6569 2.34315C12.1566 0.842855 10.1217 0 8 0C5.87827 0 3.84344 0.842855 2.34315 2.34315C0.842855 3.84344 0 5.87827 0 8C0 10.1217 0.842855 12.1566 2.34315 13.6569C3.84344 15.1571 5.87827 16 8 16V16ZM8.25 1.25V2.75C8.25 2.8163 8.22366 2.87989 8.17678 2.92678C8.12989 2.97366 8.0663 3 8 3C7.9337 3 7.87011 2.97366 7.82322 2.92678C7.77634 2.87989 7.75 2.8163 7.75 2.75V1.25C7.75 1.1837 7.77634 1.12011 7.82322 1.07322C7.87011 1.02634 7.9337 1 8 1C8.0663 1 8.12989 1.02634 8.17678 1.07322C8.22366 1.12011 8.25 1.1837 8.25 1.25ZM8.25 13.25V14.75C8.25 14.8163 8.22366 14.8799 8.17678 14.9268C8.12989 14.9737 8.0663 15 8 15C7.9337 15 7.87011 14.9737 7.82322 14.9268C7.77634 14.8799 7.75 14.8163 7.75 14.75V13.25C7.75 13.1837 7.77634 13.1201 7.82322 13.0732C7.87011 13.0263 7.9337 13 8 13C8.0663 13 8.12989 13.0263 8.17678 13.0732C8.22366 13.1201 8.25 13.1837 8.25 13.25ZM4.5 1.938C4.52842 1.92149 4.55982 1.91074 4.5924 1.90638C4.62499 1.90201 4.65811 1.90412 4.68987 1.91257C4.72164 1.92102 4.75143 1.93566 4.77753 1.95564C4.80363 1.97561 4.82554 2.00054 4.842 2.029L5.592 3.329C5.62515 3.38655 5.63408 3.45492 5.61683 3.51905C5.59958 3.58319 5.55755 3.63785 5.5 3.671C5.44245 3.70415 5.37408 3.71308 5.30995 3.69583C5.24581 3.67858 5.19115 3.63655 5.158 3.579L4.408 2.279C4.37505 2.22156 4.36623 2.1534 4.38348 2.08947C4.40073 2.02554 4.44263 1.97107 4.5 1.938V1.938ZM10.5 12.33C10.5574 12.297 10.6256 12.2882 10.6895 12.3055C10.7535 12.3227 10.8079 12.3646 10.841 12.422L11.591 13.721C11.6098 13.7494 11.6226 13.7814 11.6285 13.815C11.6345 13.8485 11.6336 13.8829 11.6258 13.9161C11.618 13.9493 11.6034 13.9805 11.5831 14.0078C11.5628 14.0352 11.5371 14.0581 11.5076 14.0752C11.4781 14.0923 11.4455 14.1031 11.4116 14.1071C11.3778 14.1111 11.3435 14.1081 11.3108 14.0983C11.2782 14.0886 11.2479 14.0723 11.2218 14.0504C11.1956 14.0285 11.1743 14.0015 11.159 13.971L10.409 12.671C10.3763 12.6138 10.3675 12.5459 10.3845 12.4823C10.4016 12.4186 10.4431 12.3642 10.5 12.331V12.33ZM2.28 4.408L3.578 5.158C3.63555 5.19115 3.67758 5.24581 3.69483 5.30995C3.71208 5.37408 3.70315 5.44245 3.67 5.5C3.63685 5.55755 3.58219 5.59958 3.51805 5.61683C3.45392 5.63408 3.38555 5.62515 3.328 5.592L2.029 4.842C1.97145 4.80885 1.92942 4.75419 1.91217 4.69005C1.89492 4.62592 1.90385 4.55755 1.937 4.5C1.97015 4.44245 2.02481 4.40042 2.08895 4.38317C2.15308 4.36592 2.22145 4.37485 2.279 4.408H2.28ZM12.672 10.408L13.971 11.158C13.9995 11.1744 14.0245 11.1963 14.0445 11.2224C14.0646 11.2484 14.0793 11.2782 14.0878 11.3099C14.0964 11.3417 14.0986 11.3748 14.0943 11.4074C14.0901 11.4401 14.0794 11.4715 14.063 11.5C14.0466 11.5285 14.0247 11.5535 13.9986 11.5735C13.9726 11.5936 13.9428 11.6083 13.9111 11.6168C13.8793 11.6254 13.8462 11.6276 13.8136 11.6233C13.7809 11.6191 13.7495 11.6084 13.721 11.592L12.421 10.842C12.3634 10.8088 12.3214 10.7542 12.3042 10.6901C12.2869 10.6259 12.2958 10.5576 12.329 10.5C12.3622 10.4424 12.4168 10.4004 12.4809 10.3832C12.5451 10.3659 12.6134 10.3748 12.671 10.408H12.672ZM1 8C1 7.9337 1.02634 7.87011 1.07322 7.82322C1.12011 7.77634 1.1837 7.75 1.25 7.75H2.75C2.8163 7.75 2.87989 7.77634 2.92678 7.82322C2.97366 7.87011 3 7.9337 3 8C3 8.0663 2.97366 8.12989 2.92678 8.17678C2.87989 8.22366 2.8163 8.25 2.75 8.25H1.25C1.1837 8.25 1.12011 8.22366 1.07322 8.17678C1.02634 8.12989 1 8.0663 1 8ZM13 8C13 7.9337 13.0263 7.87011 13.0732 7.82322C13.1201 7.77634 13.1837 7.75 13.25 7.75H14.75C14.8163 7.75 14.8799 7.77634 14.9268 7.82322C14.9737 7.87011 15 7.9337 15 8C15 8.0663 14.9737 8.12989 14.9268 8.17678C14.8799 8.22366 14.8163 8.25 14.75 8.25H13.25C13.1837 8.25 13.1201 8.22366 13.0732 8.17678C13.0263 8.12989 13 8.0663 13 8ZM2.03 11.159L3.328 10.409C3.38496 10.3804 3.4507 10.3746 3.51178 10.3929C3.57285 10.4111 3.62464 10.452 3.65657 10.5072C3.6885 10.5624 3.69815 10.6276 3.68354 10.6897C3.66894 10.7517 3.63118 10.8059 3.578 10.841L2.279 11.591C2.22204 11.6196 2.1563 11.6254 2.09522 11.6071C2.03415 11.5889 1.98236 11.548 1.95043 11.4928C1.9185 11.4376 1.90885 11.3724 1.92346 11.3103C1.93806 11.2483 1.97582 11.1941 2.029 11.159H2.03ZM12.422 5.159L13.721 4.409C13.7494 4.39233 13.7809 4.38144 13.8136 4.37698C13.8462 4.37251 13.8795 4.37455 13.9113 4.38298C13.9432 4.3914 13.9731 4.40605 13.9993 4.42608C14.0255 4.44611 14.0475 4.47112 14.0639 4.49967C14.0804 4.52822 14.0911 4.55975 14.0954 4.59245C14.0996 4.62514 14.0973 4.65835 14.0887 4.69017C14.0801 4.72199 14.0652 4.75179 14.045 4.77784C14.0248 4.8039 13.9997 4.8257 13.971 4.842L12.671 5.592C12.6134 5.62515 12.5451 5.63408 12.4809 5.61683C12.4168 5.59958 12.3622 5.55755 12.329 5.5C12.2958 5.44245 12.2869 5.37408 12.3042 5.30995C12.3214 5.24581 12.3634 5.19115 12.421 5.158L12.422 5.159ZM4.5 14.061C4.44263 14.0279 4.40073 13.9735 4.38348 13.9095C4.36623 13.8456 4.37505 13.7774 4.408 13.72L5.158 12.42C5.19115 12.3624 5.24581 12.3204 5.30995 12.3032C5.37408 12.2859 5.44245 12.2948 5.5 12.328C5.55755 12.3612 5.59958 12.4158 5.61683 12.4799C5.63408 12.5441 5.62515 12.6124 5.592 12.67L4.842 13.97C4.82554 13.9985 4.80363 14.0234 4.77753 14.0434C4.75143 14.0633 4.72164 14.078 4.68987 14.0864C4.65811 14.0949 4.62499 14.097 4.5924 14.0926C4.55982 14.0883 4.52842 14.0775 4.5 14.061V14.061ZM10.5 3.669C10.4715 3.65254 10.4466 3.63063 10.4266 3.60453C10.4067 3.57843 10.392 3.54864 10.3836 3.51687C10.3751 3.48511 10.373 3.45198 10.3774 3.4194C10.3817 3.38682 10.3925 3.35542 10.409 3.327L11.159 2.028C11.1743 1.99755 11.1956 1.97054 11.2218 1.94864C11.2479 1.92675 11.2782 1.91042 11.3108 1.90066C11.3435 1.8909 11.3778 1.88792 11.4116 1.8919C11.4455 1.89589 11.4781 1.90674 11.5076 1.92381C11.5371 1.94088 11.5628 1.9638 11.5831 1.99116C11.6034 2.01852 11.618 2.04974 11.6258 2.08291C11.6336 2.11608 11.6345 2.1505 11.6285 2.18405C11.6226 2.2176 11.6098 2.24957 11.591 2.278L10.841 3.578C10.8076 3.63503 10.753 3.67651 10.6891 3.69338C10.6252 3.71024 10.5572 3.70112 10.5 3.668V3.669ZM6.494 1.415L6.624 1.898C6.63254 1.92971 6.63474 1.9628 6.63049 1.99537C6.62624 2.02793 6.61562 2.05934 6.59923 2.0878C6.56613 2.14528 6.51155 2.18726 6.4475 2.2045C6.38345 2.22174 6.31518 2.21283 6.2577 2.17973C6.20022 2.14663 6.15824 2.09205 6.141 2.028L6.011 1.545C5.99376 1.48095 6.00267 1.41268 6.03577 1.3552C6.06887 1.29772 6.12345 1.25574 6.1875 1.2385C6.25155 1.22126 6.31982 1.23017 6.3773 1.26327C6.43478 1.29637 6.47676 1.35095 6.494 1.415ZM9.86 13.972L9.99 14.455C9.99854 14.4867 10.0007 14.5198 9.99649 14.5524C9.99224 14.5849 9.98162 14.6163 9.96523 14.6448C9.93213 14.7023 9.87755 14.7443 9.8135 14.7615C9.74945 14.7787 9.68118 14.7698 9.6237 14.7367C9.56622 14.7036 9.52424 14.649 9.507 14.585L9.377 14.102C9.35976 14.038 9.36867 13.9697 9.40177 13.9122C9.43487 13.8547 9.48945 13.8127 9.5535 13.7955C9.61755 13.7783 9.68582 13.7872 9.7433 13.8203C9.80078 13.8534 9.84276 13.908 9.86 13.972V13.972ZM3.05 3.05C3.07322 3.02672 3.10081 3.00825 3.13118 2.99564C3.16156 2.98304 3.19412 2.97655 3.227 2.97655C3.25988 2.97655 3.29244 2.98304 3.32282 2.99564C3.35319 3.00825 3.38078 3.02672 3.404 3.05L3.757 3.404C3.79958 3.45163 3.8223 3.51375 3.82052 3.57761C3.81873 3.64147 3.79256 3.70222 3.74739 3.74739C3.70222 3.79256 3.64147 3.81873 3.57761 3.82052C3.51375 3.8223 3.45163 3.79958 3.404 3.757L3.05 3.404C3.02672 3.38078 3.00825 3.35319 2.99564 3.32282C2.98304 3.29244 2.97655 3.25988 2.97655 3.227C2.97655 3.19412 2.98304 3.16156 2.99564 3.13118C3.00825 3.10081 3.02672 3.07322 3.05 3.05ZM12.243 12.243C12.2899 12.1963 12.3533 12.1701 12.4195 12.1701C12.4857 12.1701 12.5491 12.1963 12.596 12.243L12.95 12.596C12.9732 12.6192 12.9917 12.6468 13.0043 12.6772C13.0168 12.7076 13.0233 12.7401 13.0233 12.773C13.0233 12.8059 13.0168 12.8384 13.0043 12.8688C12.9917 12.8992 12.9732 12.9268 12.95 12.95C12.9268 12.9732 12.8992 12.9917 12.8688 13.0043C12.8384 13.0168 12.8059 13.0233 12.773 13.0233C12.7401 13.0233 12.7076 13.0168 12.6772 13.0043C12.6468 12.9917 12.6192 12.9732 12.596 12.95L12.243 12.596C12.1963 12.5491 12.1701 12.4857 12.1701 12.4195C12.1701 12.3533 12.1963 12.2899 12.243 12.243V12.243ZM1.545 6.01L2.028 6.14C2.09205 6.15724 2.14663 6.19922 2.17973 6.2567C2.21283 6.31418 2.22174 6.38245 2.2045 6.4465C2.18726 6.51055 2.14528 6.56513 2.0878 6.59823C2.03032 6.63133 1.96205 6.64024 1.898 6.623L1.415 6.493C1.38173 6.48599 1.35023 6.47226 1.32245 6.45266C1.29466 6.43306 1.27117 6.408 1.2534 6.37901C1.23563 6.35002 1.22396 6.3177 1.21911 6.28405C1.21426 6.25039 1.21632 6.2161 1.22518 6.18327C1.23403 6.15044 1.24949 6.11976 1.27061 6.09311C1.29173 6.06646 1.31806 6.0444 1.348 6.02827C1.37793 6.01215 1.41084 6.0023 1.44472 5.99933C1.47859 5.99636 1.51271 6.00033 1.545 6.011V6.01ZM14.102 9.375L14.585 9.505C14.649 9.52224 14.7036 9.56422 14.7367 9.6217C14.7698 9.67918 14.7787 9.74745 14.7615 9.8115C14.7443 9.87555 14.7023 9.93013 14.6448 9.96323C14.5873 9.99633 14.519 10.0052 14.455 9.988L13.972 9.858C13.9403 9.84946 13.9106 9.83476 13.8845 9.81474C13.8585 9.79472 13.8367 9.76977 13.8203 9.7413C13.8039 9.71284 13.7933 9.68143 13.789 9.64887C13.7848 9.6163 13.787 9.58321 13.7955 9.5515C13.804 9.51979 13.8187 9.49006 13.8388 9.46403C13.8588 9.438 13.8837 9.41616 13.9122 9.39977C13.9407 9.38338 13.9721 9.37276 14.0046 9.36851C14.0372 9.36426 14.0703 9.36646 14.102 9.375V9.375ZM1.239 9.811C1.22187 9.74709 1.23077 9.67899 1.26376 9.62163C1.29676 9.56427 1.35114 9.52233 1.415 9.505L1.898 9.375C1.92971 9.36646 1.9628 9.36426 1.99537 9.36851C2.02793 9.37276 2.05934 9.38338 2.0878 9.39977C2.11627 9.41616 2.14122 9.438 2.16124 9.46403C2.18127 9.49006 2.19596 9.51979 2.2045 9.5515C2.21304 9.58321 2.21524 9.6163 2.21099 9.64887C2.20674 9.68143 2.19612 9.71284 2.17973 9.7413C2.16334 9.76977 2.1415 9.79472 2.11547 9.81474C2.08944 9.83476 2.05971 9.84946 2.028 9.858L1.545 9.988C1.48095 10.0051 1.41273 9.99605 1.35535 9.96286C1.29797 9.92967 1.25611 9.87504 1.239 9.811V9.811ZM13.796 6.446C13.7789 6.38209 13.7878 6.31399 13.8208 6.25663C13.8538 6.19927 13.9081 6.15733 13.972 6.14L14.455 6.01C14.519 5.99276 14.5873 6.00167 14.6448 6.03477C14.7023 6.06787 14.7443 6.12245 14.7615 6.1865C14.7787 6.25055 14.7698 6.31882 14.7367 6.3763C14.7036 6.43378 14.649 6.47576 14.585 6.493L14.102 6.623C14.038 6.6401 13.9697 6.63105 13.9123 6.59786C13.855 6.56467 13.8131 6.51004 13.796 6.446ZM3.045 12.944C2.99772 12.8942 2.96903 12.8296 2.96375 12.7611C2.95847 12.6927 2.97692 12.6245 3.016 12.568L6.914 6.976C6.93085 6.95184 6.95184 6.93085 6.976 6.914L12.578 3.03C12.6312 2.9844 12.6996 2.96056 12.7696 2.96324C12.8396 2.96592 12.906 2.99492 12.9555 3.04446C13.0051 3.09399 13.0341 3.1604 13.0368 3.2304C13.0394 3.30039 13.0156 3.36882 12.97 3.422L9.086 9.024C9.06915 9.04816 9.04816 9.06915 9.024 9.086L3.432 12.984C3.37444 13.024 3.30465 13.0425 3.23483 13.0363C3.16501 13.0301 3.09959 12.9995 3.05 12.95L3.045 12.944V12.944ZM6.188 14.761C6.12414 14.7437 6.06975 14.7017 6.03676 14.6444C6.00377 14.587 5.99487 14.5189 6.012 14.455L6.141 13.972C6.15824 13.908 6.20022 13.8534 6.2577 13.8203C6.31518 13.7872 6.38345 13.7783 6.4475 13.7955C6.51155 13.8127 6.56613 13.8547 6.59923 13.9122C6.63233 13.9697 6.64124 14.038 6.624 14.102L6.494 14.585C6.47667 14.6489 6.43473 14.7032 6.37737 14.7362C6.32001 14.7692 6.25191 14.7781 6.188 14.761ZM9.553 2.204C9.48896 2.18689 9.43433 2.14503 9.40114 2.08765C9.36795 2.03027 9.3589 1.96205 9.376 1.898L9.506 1.415C9.51454 1.38329 9.52923 1.35356 9.54926 1.32753C9.56928 1.3015 9.59423 1.27966 9.6227 1.26327C9.65116 1.24688 9.68257 1.23626 9.71513 1.23201C9.7477 1.22776 9.78079 1.22996 9.8125 1.2385C9.84421 1.24704 9.87394 1.26173 9.89997 1.28176C9.926 1.30178 9.94784 1.32673 9.96423 1.3552C9.98062 1.38366 9.99124 1.41507 9.99549 1.44763C9.99974 1.4802 9.99754 1.51329 9.989 1.545L9.859 2.028C9.84167 2.09186 9.79973 2.14624 9.74237 2.17924C9.68501 2.21223 9.61691 2.22113 9.553 2.204V2.204Z" fill="currentColor"/>
</g>
<defs>
<clipPath id="clip0_1419_1959">
<rect width="16" height="16" fill="white"/>
</clipPath>
</defs>
</svg>
