<svg width="16" height="16" viewBox="0 0 16 16" fill="none" xmlns="http://www.w3.org/2000/svg">
<g clip-path="url(#clip0_1419_2018)">
<path d="M15.825 0.119907C15.9071 0.189969 15.9643 0.284706 15.9881 0.389965C16.0119 0.495224 16.001 0.605355 15.957 0.703907C14.427 4.13391 11.214 8.87391 8.86202 11.3439C8.20278 12.0349 7.38973 12.5605 6.48902 12.8779C6.47102 13.1049 6.42902 13.4159 6.32902 13.7459C6.12802 14.4049 5.66202 15.2249 4.62102 15.4859C3.61285 15.726 2.56804 15.7708 1.54302 15.6179C1.35242 15.5878 1.1645 15.5427 0.98102 15.4829C0.81127 15.4313 0.653057 15.3474 0.51502 15.2359C0.423991 15.1585 0.353848 15.0595 0.31102 14.9479C0.257938 14.8048 0.259362 14.6471 0.31502 14.5049C0.41002 14.2599 0.63102 14.1249 0.77602 14.0529C1.17002 13.8559 1.40102 13.5999 1.64302 13.2269C1.73802 13.0829 1.82702 12.9299 1.93002 12.7549L2.04702 12.5569C2.19802 12.3019 2.37302 12.0169 2.59302 11.7089C3.12102 10.9699 3.79402 10.7839 4.33902 10.8129C4.46502 10.8199 4.58202 10.8379 4.68702 10.8609C4.74902 10.6889 4.82902 10.4809 4.92502 10.2529C5.18602 9.63391 5.58302 8.83391 6.11202 8.18391C8.28802 5.51391 12.292 1.97791 15.229 0.0799067C15.3194 0.0215462 15.4263 -0.00608377 15.5336 0.00112265C15.641 0.00832908 15.7432 0.0499873 15.825 0.119907V0.119907Z" fill="currentColor"/>
</g>
<defs>
<clipPath id="clip0_1419_2018">
<rect width="16" height="16" fill="white"/>
</clipPath>
</defs>
</svg>
