<svg width="16" height="16" viewBox="0 0 16 16" fill="none" xmlns="http://www.w3.org/2000/svg">
<g clip-path="url(#clip0_1419_2019)">
<path d="M15.825 0.119907C15.9071 0.189969 15.9643 0.284706 15.9881 0.389965C16.0119 0.495224 16.001 0.605355 15.957 0.703907C14.427 4.13391 11.214 8.87391 8.86202 11.3439C8.20278 12.0349 7.38973 12.5605 6.48902 12.8779C6.47102 13.1049 6.42902 13.4159 6.32902 13.7459C6.12802 14.4049 5.66202 15.2249 4.62102 15.4859C3.61285 15.726 2.56804 15.7708 1.54302 15.6179C1.35242 15.5878 1.1645 15.5427 0.98102 15.4829C0.81127 15.4313 0.653057 15.3474 0.51502 15.2359C0.423991 15.1585 0.353848 15.0595 0.31102 14.9479C0.257938 14.8048 0.259362 14.6471 0.31502 14.5049C0.41002 14.2599 0.63102 14.1249 0.77602 14.0529C1.17002 13.8559 1.40102 13.5999 1.64302 13.2269C1.73802 13.0829 1.82702 12.9299 1.93002 12.7549L2.04702 12.5569C2.19802 12.3019 2.37302 12.0169 2.59302 11.7089C3.12102 10.9699 3.79402 10.7839 4.33902 10.8129C4.46502 10.8199 4.58202 10.8379 4.68702 10.8609C4.74902 10.6889 4.82902 10.4809 4.92502 10.2529C5.18602 9.63391 5.58302 8.83391 6.11202 8.18391C8.28802 5.51391 12.292 1.97791 15.229 0.0799067C15.3194 0.0215462 15.4263 -0.00608377 15.5336 0.00112265C15.641 0.00832908 15.7432 0.0499873 15.825 0.119907V0.119907ZM4.70502 11.9119C4.57232 11.8542 4.43048 11.8203 4.28602 11.8119C4.04002 11.7989 3.71302 11.8619 3.40702 12.2909C3.21002 12.5659 3.05202 12.8229 2.90702 13.0679L2.80202 13.2449C2.69602 13.4259 2.58902 13.6069 2.48202 13.7729C2.2795 14.101 2.02248 14.3922 1.72202 14.6339C2.41202 14.7459 3.45802 14.7449 4.37902 14.5139C4.93802 14.3749 5.22202 13.9449 5.37202 13.4539C5.44443 13.21 5.48674 12.9581 5.49802 12.7039L4.70502 11.9119V11.9119ZM6.14502 11.9379C6.26502 11.8979 6.42202 11.8379 6.60302 11.7549C7.17908 11.4876 7.69979 11.1145 8.13802 10.6549C10.038 8.65891 12.55 5.08491 14.19 2.02391C11.6 3.95091 8.62402 6.68391 6.88802 8.81591C6.44602 9.35891 6.09302 10.0589 5.84602 10.6419C5.72502 10.9299 5.63202 11.1819 5.57102 11.3619V11.3629L6.14602 11.9379H6.14502ZM1.17202 14.9779L1.17902 14.9729C1.17687 14.9745 1.17452 14.9759 1.17202 14.9769V14.9779ZM4.75402 11.9349L4.75602 11.9359H4.75402V11.9349Z" fill="#1B1B1B"/>
</g>
<defs>
<clipPath id="clip0_1419_2019">
<rect width="16" height="16" fill="white"/>
</clipPath>
</defs>
</svg>
