<svg width="16" height="16" viewBox="0 0 16 16" fill="none" xmlns="http://www.w3.org/2000/svg">
<path d="M15 0.499983C15 0.414719 14.9782 0.330872 14.9367 0.256411C14.8951 0.181949 14.8352 0.119348 14.7627 0.0745547C14.6901 0.0297618 14.6073 0.00426609 14.5221 0.000490514C14.437 -0.00328506 14.3522 0.014785 14.276 0.0529833L6.276 4.05298C6.19305 4.09455 6.12331 4.15837 6.07456 4.23731C6.02582 4.31626 6 4.4072 6 4.49998V7.63998L0.342 9.52598C0.242478 9.55913 0.155902 9.62274 0.0945249 9.7078C0.0331481 9.79287 7.96467e-05 9.89509 0 9.99998L0 15.5C0 15.6326 0.0526784 15.7598 0.146447 15.8535C0.240215 15.9473 0.367392 16 0.5 16H9.5C9.63261 16 9.75979 15.9473 9.85355 15.8535C9.94732 15.7598 10 15.6326 10 15.5V14H11V15.5C11 15.6326 11.0527 15.7598 11.1464 15.8535C11.2402 15.9473 11.3674 16 11.5 16H14.5C14.6326 16 14.7598 15.9473 14.8536 15.8535C14.9473 15.7598 15 15.6326 15 15.5V0.499983ZM2 11H3V12H2V11ZM4 11H5V12H4V11ZM3 13V14H2V13H3ZM4 13H5V14H4V13ZM13 2.99998V3.99998H12V2.99998H13ZM8 4.99998H9V5.99998H8V4.99998ZM9 6.99998V7.99998H8V6.99998H9ZM8 8.99998H9V9.99998H8V8.99998ZM10 8.99998H11V9.99998H10V8.99998ZM9 11V12H8V11H9ZM10 11H11V12H10V11ZM13 8.99998V9.99998H12V8.99998H13ZM12 11H13V12H12V11ZM10 6.99998H11V7.99998H10V6.99998ZM13 6.99998V7.99998H12V6.99998H13ZM11 4.99998V5.99998H10V4.99998H11ZM12 4.99998H13V5.99998H12V4.99998Z" fill="currentColor"/>
</svg>
