<svg width="16" height="16" viewBox="0 0 16 16" fill="none" xmlns="http://www.w3.org/2000/svg">
<g clip-path="url(#clip0_1419_502)">
<path fill-rule="evenodd" clip-rule="evenodd" d="M13.8791 10.4141C13.3982 10.0967 12.8225 9.95512 12.2492 10.0132C11.676 10.0713 11.1404 10.3256 10.733 10.733C10.3256 11.1404 10.0713 11.676 10.0132 12.2492C9.95509 12.8225 10.0967 13.3982 10.4141 13.8791L13.8791 10.4141ZM14.5861 11.1211L11.1211 14.5861C11.6019 14.9035 12.1777 15.0451 12.7509 14.9869C13.3241 14.9288 13.8597 14.6746 14.2671 14.2672C14.6746 13.8598 14.9288 13.3242 14.9869 12.7509C15.045 12.1777 14.9034 11.602 14.5861 11.1211V11.1211ZM10.0261 10.0251C10.3499 9.69478 10.736 9.43194 11.162 9.25176C11.5881 9.07159 12.0456 8.97765 12.5082 8.97538C12.9707 8.97312 13.4292 9.06257 13.8569 9.23856C14.2847 9.41455 14.6734 9.6736 15.0004 10.0007C15.3275 10.3278 15.5864 10.7165 15.7624 11.1444C15.9383 11.5722 16.0276 12.0306 16.0253 12.4932C16.0229 12.9558 15.9289 13.4133 15.7486 13.8393C15.5683 14.2653 15.3054 14.6513 14.9751 14.9751C14.3186 15.6315 13.4284 16.0003 12.5001 16.0003C11.5718 16.0003 10.6815 15.6315 10.0251 14.9751C9.36865 14.3187 8.99988 13.4284 8.99988 12.5001C8.99988 11.5718 9.36865 10.6815 10.0251 10.0251H10.0261Z" fill="#1B1B1B"/>
<path fill-rule="evenodd" clip-rule="evenodd" d="M2 1C2 0.734784 2.10536 0.48043 2.29289 0.292893C2.48043 0.105357 2.73478 0 3 0L13 0C13.2652 0 13.5196 0.105357 13.7071 0.292893C13.8946 0.48043 14 0.734784 14 1V8.256C13.5182 8.086 13.0109 7.99943 12.5 8C11.8041 7.99949 11.1176 8.16065 10.4946 8.47076C9.87157 8.78087 9.32913 9.23146 8.91 9.787C8.96886 9.7029 9.0003 9.60266 9 9.5V8.5C9 8.36739 8.94732 8.24021 8.85355 8.14645C8.75979 8.05268 8.63261 8 8.5 8H7.5C7.36739 8 7.24021 8.05268 7.14645 8.14645C7.05268 8.24021 7 8.36739 7 8.5V9.5C7 9.63261 7.05268 9.75979 7.14645 9.85355C7.24021 9.94732 7.36739 10 7.5 10H8.5C8.57486 10 8.64877 9.98322 8.71627 9.95085C8.78377 9.91849 8.84314 9.87138 8.89 9.813C8.41259 10.4521 8.11465 11.2071 8.027 12H6.5C6.36739 12 6.24021 12.0527 6.14645 12.1464C6.05268 12.2402 6 12.3674 6 12.5V16H3C2.73478 16 2.48043 15.8946 2.29289 15.7071C2.10536 15.5196 2 15.2652 2 15V1ZM4 2.5C4 2.36739 4.05268 2.24021 4.14645 2.14645C4.24021 2.05268 4.36739 2 4.5 2H5.5C5.63261 2 5.75979 2.05268 5.85355 2.14645C5.94732 2.24021 6 2.36739 6 2.5V3.5C6 3.63261 5.94732 3.75979 5.85355 3.85355C5.75979 3.94732 5.63261 4 5.5 4H4.5C4.36739 4 4.24021 3.94732 4.14645 3.85355C4.05268 3.75979 4 3.63261 4 3.5V2.5ZM7 2.5C7 2.36739 7.05268 2.24021 7.14645 2.14645C7.24021 2.05268 7.36739 2 7.5 2H8.5C8.63261 2 8.75979 2.05268 8.85355 2.14645C8.94732 2.24021 9 2.36739 9 2.5V3.5C9 3.63261 8.94732 3.75979 8.85355 3.85355C8.75979 3.94732 8.63261 4 8.5 4H7.5C7.36739 4 7.24021 3.94732 7.14645 3.85355C7.05268 3.75979 7 3.63261 7 3.5V2.5ZM10.5 2C10.3674 2 10.2402 2.05268 10.1464 2.14645C10.0527 2.24021 10 2.36739 10 2.5V3.5C10 3.63261 10.0527 3.75979 10.1464 3.85355C10.2402 3.94732 10.3674 4 10.5 4H11.5C11.6326 4 11.7598 3.94732 11.8536 3.85355C11.9473 3.75979 12 3.63261 12 3.5V2.5C12 2.36739 11.9473 2.24021 11.8536 2.14645C11.7598 2.05268 11.6326 2 11.5 2H10.5ZM4 5.5C4 5.36739 4.05268 5.24021 4.14645 5.14645C4.24021 5.05268 4.36739 5 4.5 5H5.5C5.63261 5 5.75979 5.05268 5.85355 5.14645C5.94732 5.24021 6 5.36739 6 5.5V6.5C6 6.63261 5.94732 6.75979 5.85355 6.85355C5.75979 6.94732 5.63261 7 5.5 7H4.5C4.36739 7 4.24021 6.94732 4.14645 6.85355C4.05268 6.75979 4 6.63261 4 6.5V5.5ZM7.5 5C7.36739 5 7.24021 5.05268 7.14645 5.14645C7.05268 5.24021 7 5.36739 7 5.5V6.5C7 6.63261 7.05268 6.75979 7.14645 6.85355C7.24021 6.94732 7.36739 7 7.5 7H8.5C8.63261 7 8.75979 6.94732 8.85355 6.85355C8.94732 6.75979 9 6.63261 9 6.5V5.5C9 5.36739 8.94732 5.24021 8.85355 5.14645C8.75979 5.05268 8.63261 5 8.5 5H7.5ZM10 5.5C10 5.36739 10.0527 5.24021 10.1464 5.14645C10.2402 5.05268 10.3674 5 10.5 5H11.5C11.6326 5 11.7598 5.05268 11.8536 5.14645C11.9473 5.24021 12 5.36739 12 5.5V6.5C12 6.63261 11.9473 6.75979 11.8536 6.85355C11.7598 6.94732 11.6326 7 11.5 7H10.5C10.3674 7 10.2402 6.94732 10.1464 6.85355C10.0527 6.75979 10 6.63261 10 6.5V5.5ZM4.5 8C4.36739 8 4.24021 8.05268 4.14645 8.14645C4.05268 8.24021 4 8.36739 4 8.5V9.5C4 9.63261 4.05268 9.75979 4.14645 9.85355C4.24021 9.94732 4.36739 10 4.5 10H5.5C5.63261 10 5.75979 9.94732 5.85355 9.85355C5.94732 9.75979 6 9.63261 6 9.5V8.5C6 8.36739 5.94732 8.24021 5.85355 8.14645C5.75979 8.05268 5.63261 8 5.5 8H4.5Z" fill="#1B1B1B"/>
</g>
<defs>
<clipPath id="clip0_1419_502">
<rect width="16" height="16" fill="white"/>
</clipPath>
</defs>
</svg>
