<svg width="16" height="16" viewBox="0 0 16 16" fill="none" xmlns="http://www.w3.org/2000/svg">
<path d="M2 1C2 0.734784 2.10536 0.48043 2.29289 0.292893C2.48043 0.105357 2.73478 0 3 0L13 0C13.2652 0 13.5196 0.105357 13.7071 0.292893C13.8946 0.48043 14 0.734784 14 1V7.5C14 7.63261 13.9473 7.75979 13.8536 7.85355C13.7598 7.94732 13.6326 8 13.5 8C13.3674 8 13.2402 7.94732 13.1464 7.85355C13.0527 7.75979 13 7.63261 13 7.5V1H3V15H6V12.5C6 12.3674 6.05268 12.2402 6.14645 12.1464C6.24021 12.0527 6.36739 12 6.5 12H8V16H3C2.73478 16 2.48043 15.8946 2.29289 15.7071C2.10536 15.5196 2 15.2652 2 15V1Z" fill="#1B1B1B"/>
<path d="M4.5 2C4.36739 2 4.24021 2.05268 4.14645 2.14645C4.05268 2.24021 4 2.36739 4 2.5V3.5C4 3.63261 4.05268 3.75979 4.14645 3.85355C4.24021 3.94732 4.36739 4 4.5 4H5.5C5.63261 4 5.75979 3.94732 5.85355 3.85355C5.94732 3.75979 6 3.63261 6 3.5V2.5C6 2.36739 5.94732 2.24021 5.85355 2.14645C5.75979 2.05268 5.63261 2 5.5 2H4.5ZM7.5 2C7.36739 2 7.24021 2.05268 7.14645 2.14645C7.05268 2.24021 7 2.36739 7 2.5V3.5C7 3.63261 7.05268 3.75979 7.14645 3.85355C7.24021 3.94732 7.36739 4 7.5 4H8.5C8.63261 4 8.75979 3.94732 8.85355 3.85355C8.94732 3.75979 9 3.63261 9 3.5V2.5C9 2.36739 8.94732 2.24021 8.85355 2.14645C8.75979 2.05268 8.63261 2 8.5 2H7.5ZM10.5 2C10.3674 2 10.2402 2.05268 10.1464 2.14645C10.0527 2.24021 10 2.36739 10 2.5V3.5C10 3.63261 10.0527 3.75979 10.1464 3.85355C10.2402 3.94732 10.3674 4 10.5 4H11.5C11.6326 4 11.7598 3.94732 11.8536 3.85355C11.9473 3.75979 12 3.63261 12 3.5V2.5C12 2.36739 11.9473 2.24021 11.8536 2.14645C11.7598 2.05268 11.6326 2 11.5 2H10.5ZM4.5 5C4.36739 5 4.24021 5.05268 4.14645 5.14645C4.05268 5.24021 4 5.36739 4 5.5V6.5C4 6.63261 4.05268 6.75979 4.14645 6.85355C4.24021 6.94732 4.36739 7 4.5 7H5.5C5.63261 7 5.75979 6.94732 5.85355 6.85355C5.94732 6.75979 6 6.63261 6 6.5V5.5C6 5.36739 5.94732 5.24021 5.85355 5.14645C5.75979 5.05268 5.63261 5 5.5 5H4.5ZM7.5 5C7.36739 5 7.24021 5.05268 7.14645 5.14645C7.05268 5.24021 7 5.36739 7 5.5V6.5C7 6.63261 7.05268 6.75979 7.14645 6.85355C7.24021 6.94732 7.36739 7 7.5 7H8.5C8.63261 7 8.75979 6.94732 8.85355 6.85355C8.94732 6.75979 9 6.63261 9 6.5V5.5C9 5.36739 8.94732 5.24021 8.85355 5.14645C8.75979 5.05268 8.63261 5 8.5 5H7.5ZM10.5 5C10.3674 5 10.2402 5.05268 10.1464 5.14645C10.0527 5.24021 10 5.36739 10 5.5V6.5C10 6.63261 10.0527 6.75979 10.1464 6.85355C10.2402 6.94732 10.3674 7 10.5 7H11.5C11.6326 7 11.7598 6.94732 11.8536 6.85355C11.9473 6.75979 12 6.63261 12 6.5V5.5C12 5.36739 11.9473 5.24021 11.8536 5.14645C11.7598 5.05268 11.6326 5 11.5 5H10.5ZM4.5 8C4.36739 8 4.24021 8.05268 4.14645 8.14645C4.05268 8.24021 4 8.36739 4 8.5V9.5C4 9.63261 4.05268 9.75979 4.14645 9.85355C4.24021 9.94732 4.36739 10 4.5 10H5.5C5.63261 10 5.75979 9.94732 5.85355 9.85355C5.94732 9.75979 6 9.63261 6 9.5V8.5C6 8.36739 5.94732 8.24021 5.85355 8.14645C5.75979 8.05268 5.63261 8 5.5 8H4.5ZM7.5 8C7.36739 8 7.24021 8.05268 7.14645 8.14645C7.05268 8.24021 7 8.36739 7 8.5V9.5C7 9.63261 7.05268 9.75979 7.14645 9.85355C7.24021 9.94732 7.36739 10 7.5 10H8.5C8.63261 10 8.75979 9.94732 8.85355 9.85355C8.94732 9.75979 9 9.63261 9 9.5V8.5C9 8.36739 8.94732 8.24021 8.85355 8.14645C8.75979 8.05268 8.63261 8 8.5 8H7.5Z" fill="#1B1B1B"/>
<path fill-rule="evenodd" clip-rule="evenodd" d="M11.886 9.45999C12.066 8.84699 12.934 8.84699 13.115 9.45999L13.158 9.60799C13.1849 9.6998 13.2319 9.78442 13.2958 9.85562C13.3597 9.92683 13.4387 9.98281 13.5271 10.0195C13.6154 10.0561 13.7109 10.0725 13.8064 10.0674C13.9019 10.0623 13.995 10.0358 14.079 9.98999L14.215 9.91599C14.776 9.60999 15.39 10.224 15.085 10.785L15.01 10.921C14.9643 11.0049 14.938 11.098 14.933 11.1934C14.928 11.2888 14.9445 11.3841 14.9811 11.4723C15.0177 11.5605 15.0736 11.6394 15.1447 11.7032C15.2158 11.767 15.3003 11.8141 15.392 11.841L15.541 11.886C16.153 12.066 16.153 12.934 15.541 13.115L15.391 13.158C15.2994 13.1851 15.215 13.2323 15.144 13.2963C15.073 13.3603 15.0172 13.4393 14.9808 13.5276C14.9444 13.616 14.9281 13.7113 14.9334 13.8067C14.9386 13.9021 14.9651 13.9952 15.011 14.079L15.085 14.215C15.39 14.776 14.776 15.39 14.215 15.085L14.079 15.01C13.9951 14.9643 13.902 14.938 13.8066 14.933C13.7112 14.928 13.6159 14.9445 13.5277 14.9811C13.4395 15.0177 13.3606 15.0736 13.2968 15.1447C13.233 15.2158 13.1859 15.3003 13.159 15.392L13.114 15.541C12.934 16.153 12.066 16.153 11.885 15.541L11.842 15.391C11.8149 15.2994 11.7676 15.215 11.7037 15.144C11.6397 15.073 11.5607 15.0172 11.4723 14.9808C11.384 14.9444 11.2887 14.9281 11.1932 14.9334C11.0978 14.9386 11.0048 14.9651 10.921 15.011L10.785 15.085C10.224 15.39 9.60999 14.776 9.91499 14.215L9.98999 14.079C10.0357 13.9951 10.0619 13.902 10.0669 13.8066C10.0719 13.7112 10.0555 13.6159 10.0189 13.5277C9.98226 13.4395 9.92635 13.3606 9.85524 13.2968C9.78414 13.233 9.69966 13.1859 9.60799 13.159L9.45999 13.114C8.84699 12.934 8.84699 12.066 9.45999 11.885L9.60799 11.842C9.6998 11.8151 9.78442 11.768 9.85562 11.7042C9.92683 11.6403 9.98281 11.5613 10.0195 11.4729C10.0561 11.3846 10.0725 11.2891 10.0674 11.1936C10.0623 11.0981 10.0358 11.0049 9.98999 10.921L9.91599 10.785C9.60999 10.224 10.224 9.60999 10.785 9.91499L10.921 9.98999C11.0049 10.0357 11.098 10.0619 11.1934 10.0669C11.2888 10.0719 11.3841 10.0555 11.4723 10.0189C11.5605 9.98226 11.6394 9.92635 11.7032 9.85524C11.767 9.78414 11.8141 9.69966 11.841 9.60799L11.886 9.45999V9.45999ZM14 12.5C14 12.697 13.9612 12.892 13.8858 13.074C13.8104 13.256 13.6999 13.4214 13.5607 13.5607C13.4214 13.6999 13.256 13.8104 13.074 13.8858C12.892 13.9612 12.697 14 12.5 14C12.303 14 12.108 13.9612 11.926 13.8858C11.744 13.8104 11.5786 13.6999 11.4393 13.5607C11.3 13.4214 11.1896 13.256 11.1142 13.074C11.0388 12.892 11 12.697 11 12.5C11 12.1022 11.158 11.7206 11.4393 11.4393C11.7206 11.158 12.1022 11 12.5 11C12.8978 11 13.2794 11.158 13.5607 11.4393C13.842 11.7206 14 12.1022 14 12.5V12.5Z" fill="#1B1B1B"/>
</svg>
