<svg width="16" height="16" viewBox="0 0 16 16" fill="none" xmlns="http://www.w3.org/2000/svg">
<g clip-path="url(#clip0_1419_586)">
<path d="M5 11.0001C5 11.2653 4.89465 11.5196 4.70711 11.7072C4.51957 11.8947 4.26522 12.0001 4 12.0001C3.73479 12.0001 3.48043 11.8947 3.2929 11.7072C3.10536 11.5196 3 11.2653 3 11.0001C3 10.7349 3.10536 10.4805 3.2929 10.293C3.48043 10.1054 3.73479 10.0001 4 10.0001C4.26522 10.0001 4.51957 10.1054 4.70711 10.293C4.89465 10.4805 5 10.7349 5 11.0001V11.0001ZM13 11.0001C13 11.2653 12.8946 11.5196 12.7071 11.7072C12.5196 11.8947 12.2652 12.0001 12 12.0001C11.7348 12.0001 11.4804 11.8947 11.2929 11.7072C11.1054 11.5196 11 11.2653 11 11.0001C11 10.7349 11.1054 10.4805 11.2929 10.293C11.4804 10.1054 11.7348 10.0001 12 10.0001C12.2652 10.0001 12.5196 10.1054 12.7071 10.293C12.8946 10.4805 13 10.7349 13 11.0001V11.0001ZM7 10.0001C6.73479 10.0001 6.48043 10.1054 6.2929 10.293C6.10536 10.4805 6 10.7349 6 11.0001C6 11.2653 6.10536 11.5196 6.2929 11.7072C6.48043 11.8947 6.73479 12.0001 7 12.0001H9C9.26522 12.0001 9.51957 11.8947 9.70711 11.7072C9.89465 11.5196 10 11.2653 10 11.0001C10 10.7349 9.89465 10.4805 9.70711 10.293C9.51957 10.1054 9.26522 10.0001 9 10.0001H7ZM8 4.00008C6.124 4.00008 4.574 4.10908 3.448 4.22608C3.32512 4.23893 3.21134 4.29682 3.12862 4.38859C3.04589 4.48037 3.00007 4.59952 3 4.72308V8.27708C3.00007 8.40063 3.04589 8.51978 3.12862 8.61156C3.21134 8.70333 3.32512 8.76123 3.448 8.77408C4.574 8.89108 6.124 9.00008 8 9.00008C9.876 9.00008 11.426 8.89108 12.552 8.77408C12.6749 8.76123 12.7887 8.70333 12.8714 8.61156C12.9541 8.51978 12.9999 8.40063 13 8.27708V4.72308C12.9999 4.59952 12.9541 4.48037 12.8714 4.38859C12.7887 4.29682 12.6749 4.23893 12.552 4.22608C11.0396 4.07269 9.52021 3.99726 8 4.00008V4.00008ZM8 3.00008C6.163 3.00008 4.647 3.10708 3.552 3.22008C3.48556 3.22931 3.41793 3.22508 3.35315 3.20764C3.28837 3.1902 3.22776 3.1599 3.17494 3.11854C3.12211 3.07719 3.07815 3.02563 3.04567 2.96693C3.01319 2.90823 2.99285 2.84359 2.98587 2.77687C2.97889 2.71015 2.98541 2.6427 3.00503 2.57855C3.02466 2.5144 3.057 2.45485 3.10012 2.40346C3.14324 2.35207 3.19626 2.30988 3.25603 2.2794C3.3158 2.24893 3.38108 2.23079 3.448 2.22608C4.96045 2.0727 6.4798 1.99726 8 2.00008C9.876 2.00008 11.426 2.10908 12.552 2.22608C12.6189 2.23079 12.6842 2.24893 12.744 2.2794C12.8037 2.30988 12.8568 2.35207 12.8999 2.40346C12.943 2.45485 12.9753 2.5144 12.995 2.57855C13.0146 2.6427 13.0211 2.71015 13.0141 2.77687C13.0072 2.84359 12.9868 2.90823 12.9543 2.96693C12.9219 3.02563 12.8779 3.07719 12.8251 3.11854C12.7722 3.1599 12.7116 3.1902 12.6469 3.20764C12.5821 3.22508 12.5145 3.22931 12.448 3.22008C10.9701 3.0705 9.48546 2.99707 8 3.00008V3.00008Z" fill="#1B1B1B"/>
<path d="M15 7.99989C15.2652 7.99989 15.5196 7.89453 15.7071 7.707C15.8946 7.51946 16 7.2651 16 6.99989V4.99989C16 4.73467 15.8946 4.48032 15.7071 4.29278C15.5196 4.10525 15.2652 3.99989 15 3.99989V2.63989C15 1.45189 14.155 0.407888 12.936 0.267888C11.2971 0.0853011 9.64908 -0.00417593 8 -0.000111697C5.9 -0.000111697 4.208 0.135888 3.064 0.267888C1.845 0.407888 1 1.45189 1 2.63989V3.99989C0.734784 3.99989 0.48043 4.10525 0.292893 4.29278C0.105357 4.48032 0 4.73467 0 4.99989L0 6.99989C0 7.2651 0.105357 7.51946 0.292893 7.707C0.48043 7.89453 0.734784 7.99989 1 7.99989V11.4999C1 12.3179 1.393 13.0439 2 13.4999V15.4999C2 15.6325 2.05268 15.7597 2.14645 15.8534C2.24021 15.9472 2.36739 15.9999 2.5 15.9999H4.5C4.63261 15.9999 4.75979 15.9472 4.85355 15.8534C4.94732 15.7597 5 15.6325 5 15.4999V13.9999H11V15.4999C11 15.6325 11.0527 15.7597 11.1464 15.8534C11.2402 15.9472 11.3674 15.9999 11.5 15.9999H13.5C13.6326 15.9999 13.7598 15.9472 13.8536 15.8534C13.9473 15.7597 14 15.6325 14 15.4999V13.4999C14.607 13.0439 15 12.3179 15 11.4999V7.99989ZM8 0.999888C10.056 0.999888 11.71 1.13389 12.822 1.26089C13.498 1.33889 14 1.92089 14 2.63989V11.4999C14 11.8977 13.842 12.2792 13.5607 12.5605C13.2794 12.8419 12.8978 12.9999 12.5 12.9999H3.5C3.10218 12.9999 2.72064 12.8419 2.43934 12.5605C2.15804 12.2792 2 11.8977 2 11.4999V2.63989C2 1.91989 2.502 1.33889 3.178 1.26089C4.77911 1.08281 6.38903 0.995666 8 0.999888V0.999888Z" fill="#1B1B1B"/>
</g>
<defs>
<clipPath id="clip0_1419_586">
<rect width="16" height="16" fill="white"/>
</clipPath>
</defs>
</svg>
