<svg width="16" height="16" viewBox="0 0 16 16" fill="none" xmlns="http://www.w3.org/2000/svg">
<g clip-path="url(#clip0_1419_585)">
<path d="M16 6.99989C16 7.2651 15.8946 7.51946 15.7071 7.707C15.5196 7.89453 15.2652 7.99989 15 7.99989V11.4999C15 12.3179 14.607 13.0439 14 13.4999V15.4999C14 15.6325 13.9473 15.7597 13.8536 15.8534C13.7598 15.9472 13.6326 15.9999 13.5 15.9999H11.5C11.3674 15.9999 11.2402 15.9472 11.1464 15.8534C11.0527 15.7597 11 15.6325 11 15.4999V13.9999H5V15.4999C5 15.6325 4.94732 15.7597 4.85355 15.8534C4.75979 15.9472 4.63261 15.9999 4.5 15.9999H2.5C2.36739 15.9999 2.24021 15.9472 2.14645 15.8534C2.05268 15.7597 2 15.6325 2 15.4999V13.4999C1.68928 13.2672 1.4371 12.9653 1.26351 12.6181C1.08992 12.2709 0.999689 11.8881 1 11.4999V7.99989C0.734784 7.99989 0.48043 7.89453 0.292893 7.707C0.105357 7.51946 0 7.2651 0 6.99989V4.99989C0 4.73467 0.105357 4.48032 0.292893 4.29278C0.48043 4.10525 0.734784 3.99989 1 3.99989V2.63989C1 1.45189 1.845 0.407889 3.064 0.267889C4.70294 0.0852971 6.35092 -0.00417995 8 -0.000111423C10.1 -0.000111423 11.792 0.135889 12.936 0.267889C14.155 0.407889 15 1.45189 15 2.63989V3.99989C15.2652 3.99989 15.5196 4.10525 15.7071 4.29278C15.8946 4.48032 16 4.73467 16 4.99989V6.99989ZM3.552 3.21989C5.02991 3.07032 6.51454 2.99689 8 2.99989C9.837 2.99989 11.353 3.10689 12.448 3.21989C12.5774 3.22901 12.7052 3.18751 12.8045 3.10416C12.9039 3.02081 12.9669 2.90213 12.9804 2.77316C12.9939 2.64418 12.9568 2.51502 12.8769 2.41291C12.7969 2.3108 12.6804 2.24374 12.552 2.22589C11.0395 2.07251 9.52021 1.99708 8 1.99989C6.124 1.99989 4.574 2.10889 3.448 2.22589C3.38108 2.23061 3.31579 2.24874 3.25603 2.27921C3.19626 2.30969 3.14324 2.35188 3.10012 2.40327C3.057 2.45467 3.02466 2.51421 3.00503 2.57836C2.9854 2.64251 2.97888 2.70996 2.98587 2.77668C2.99285 2.8434 3.01318 2.90804 3.04567 2.96674C3.07815 3.02544 3.12211 3.077 3.17493 3.11836C3.22776 3.15971 3.28837 3.19001 3.35315 3.20745C3.41792 3.2249 3.48555 3.22913 3.552 3.21989V3.21989ZM8 3.99989C6.124 3.99989 4.574 4.10889 3.448 4.22589C3.32511 4.23874 3.21134 4.29663 3.12861 4.38841C3.04589 4.48018 3.00007 4.59933 3 4.72289V8.27689C3.00007 8.40044 3.04589 8.5196 3.12861 8.61137C3.21134 8.70314 3.32511 8.76104 3.448 8.77389C4.574 8.89089 6.124 8.99989 8 8.99989C9.876 8.99989 11.426 8.89089 12.552 8.77389C12.6749 8.76104 12.7887 8.70314 12.8714 8.61137C12.9541 8.5196 12.9999 8.40044 13 8.27689V4.72289C12.9999 4.59933 12.9541 4.48018 12.8714 4.38841C12.7887 4.29663 12.6749 4.23874 12.552 4.22589C11.0395 4.07251 9.52021 3.99708 8 3.99989V3.99989ZM5 10.9999C5 10.7347 4.89464 10.4803 4.70711 10.2928C4.51957 10.1052 4.26522 9.99989 4 9.99989C3.73478 9.99989 3.48043 10.1052 3.29289 10.2928C3.10536 10.4803 3 10.7347 3 10.9999C3 11.2651 3.10536 11.5195 3.29289 11.707C3.48043 11.8945 3.73478 11.9999 4 11.9999C4.26522 11.9999 4.51957 11.8945 4.70711 11.707C4.89464 11.5195 5 11.2651 5 10.9999ZM13 10.9999C13 10.7347 12.8946 10.4803 12.7071 10.2928C12.5196 10.1052 12.2652 9.99989 12 9.99989C11.7348 9.99989 11.4804 10.1052 11.2929 10.2928C11.1054 10.4803 11 10.7347 11 10.9999C11 11.2651 11.1054 11.5195 11.2929 11.707C11.4804 11.8945 11.7348 11.9999 12 11.9999C12.2652 11.9999 12.5196 11.8945 12.7071 11.707C12.8946 11.5195 13 11.2651 13 10.9999ZM6 10.9999C6 11.2651 6.10536 11.5195 6.29289 11.707C6.48043 11.8945 6.73478 11.9999 7 11.9999H9C9.26522 11.9999 9.51957 11.8945 9.70711 11.707C9.89464 11.5195 10 11.2651 10 10.9999C10 10.7347 9.89464 10.4803 9.70711 10.2928C9.51957 10.1052 9.26522 9.99989 9 9.99989H7C6.73478 9.99989 6.48043 10.1052 6.29289 10.2928C6.10536 10.4803 6 10.7347 6 10.9999Z" fill="currentColor"/>
</g>
<defs>
<clipPath id="clip0_1419_585">
<rect width="16" height="16" fill="white"/>
</clipPath>
</defs>
</svg>
