<svg width="16" height="16" viewBox="0 0 16 16" fill="none" xmlns="http://www.w3.org/2000/svg">
<g clip-path="url(#clip0_1419_1904)">
<path d="M16 8C16 10.1217 15.1571 12.1566 13.6569 13.6569C12.1566 15.1571 10.1217 16 8 16C5.87827 16 3.84344 15.1571 2.34315 13.6569C0.842855 12.1566 0 10.1217 0 8C0 5.87827 0.842855 3.84344 2.34315 2.34315C3.84344 0.842855 5.87827 0 8 0C10.1217 0 12.1566 0.842855 13.6569 2.34315C15.1571 3.84344 16 5.87827 16 8V8ZM8.146 4.992C9.107 4.992 9.787 5.625 9.875 6.504H11.17V6.416C11.076 4.898 9.822 3.844 8.14 3.844C6.072 3.844 4.871 5.221 4.871 7.482V8.555C4.871 10.822 6.049 12.158 8.141 12.158C9.816 12.158 11.071 11.138 11.17 9.691V9.598H9.875C9.787 10.43 9.125 11.016 8.146 11.016C6.922 11.016 6.219 10.125 6.219 8.555V7.495C6.219 5.912 6.934 4.992 8.146 4.992V4.992Z" fill="currentColor"/>
</g>
<defs>
<clipPath id="clip0_1419_1904">
<rect width="16" height="16" fill="white"/>
</clipPath>
</defs>
</svg>
