<svg width="16" height="16" viewBox="0 0 16 16" fill="none" xmlns="http://www.w3.org/2000/svg">
<g clip-path="url(#clip0_1419_1906)">
<path d="M2 0C1.46957 0 0.960859 0.210714 0.585786 0.585786C0.210714 0.960859 0 1.46957 0 2L0 14C0 14.5304 0.210714 15.0391 0.585786 15.4142C0.960859 15.7893 1.46957 16 2 16H14C14.5304 16 15.0391 15.7893 15.4142 15.4142C15.7893 15.0391 16 14.5304 16 14V2C16 1.46957 15.7893 0.960859 15.4142 0.585786C15.0391 0.210714 14.5304 0 14 0L2 0ZM8.146 4.992C6.934 4.992 6.219 5.912 6.219 7.494V8.554C6.219 10.125 6.922 11.016 8.146 11.016C9.125 11.016 9.787 10.43 9.875 9.598H11.17V9.691C11.07 11.139 9.816 12.158 8.14 12.158C6.049 12.158 4.871 10.822 4.871 8.555V7.482C4.871 5.221 6.072 3.844 8.141 3.844C9.822 3.844 11.076 4.898 11.17 6.416V6.504H9.875C9.787 5.625 9.107 4.992 8.146 4.992V4.992Z" fill="#1B1B1B"/>
</g>
<defs>
<clipPath id="clip0_1419_1906">
<rect width="16" height="16" fill="white"/>
</clipPath>
</defs>
</svg>
