<svg width="16" height="16" viewBox="0 0 16 16" fill="none" xmlns="http://www.w3.org/2000/svg">
<g clip-path="url(#clip0_1419_1907)">
<path d="M8.14597 4.99199C6.93397 4.99199 6.21897 5.91199 6.21897 7.49399V8.55399C6.21897 10.125 6.92197 11.016 8.14597 11.016C9.12497 11.016 9.78697 10.43 9.87497 9.59799H11.17V9.69099C11.07 11.139 9.81597 12.158 8.13997 12.158C6.04897 12.158 4.87097 10.822 4.87097 8.55499V7.48199C4.87097 5.22099 6.07197 3.84399 8.14097 3.84399C9.82197 3.84399 11.076 4.89799 11.17 6.41599V6.50399H9.87497C9.78697 5.62499 9.10697 4.99199 8.14597 4.99199V4.99199Z" fill="#1B1B1B"/>
<path d="M0 2C0 1.46957 0.210714 0.960859 0.585786 0.585786C0.960859 0.210714 1.46957 0 2 0L14 0C14.5304 0 15.0391 0.210714 15.4142 0.585786C15.7893 0.960859 16 1.46957 16 2V14C16 14.5304 15.7893 15.0391 15.4142 15.4142C15.0391 15.7893 14.5304 16 14 16H2C1.46957 16 0.960859 15.7893 0.585786 15.4142C0.210714 15.0391 0 14.5304 0 14V2ZM15 2C15 1.73478 14.8946 1.48043 14.7071 1.29289C14.5196 1.10536 14.2652 1 14 1H2C1.73478 1 1.48043 1.10536 1.29289 1.29289C1.10536 1.48043 1 1.73478 1 2V14C1 14.2652 1.10536 14.5196 1.29289 14.7071C1.48043 14.8946 1.73478 15 2 15H14C14.2652 15 14.5196 14.8946 14.7071 14.7071C14.8946 14.5196 15 14.2652 15 14V2Z" fill="#1B1B1B"/>
</g>
<defs>
<clipPath id="clip0_1419_1907">
<rect width="16" height="16" fill="white"/>
</clipPath>
</defs>
</svg>
