<svg width="16" height="16" viewBox="0 0 16 16" fill="none" xmlns="http://www.w3.org/2000/svg">
<g clip-path="url(#clip0_1419_867)">
<path d="M10.8539 8.14592C10.9005 8.19236 10.9374 8.24754 10.9626 8.30828C10.9878 8.36903 11.0008 8.43415 11.0008 8.49992C11.0008 8.56568 10.9878 8.63081 10.9626 8.69155C10.9374 8.7523 10.9005 8.80747 10.8539 8.85392L7.8539 11.8539C7.80745 11.9005 7.75228 11.9374 7.69153 11.9626C7.63079 11.9878 7.56567 12.0008 7.4999 12.0008C7.43413 12.0008 7.36901 11.9878 7.30827 11.9626C7.24752 11.9374 7.19234 11.9005 7.1459 11.8539L5.6459 10.3539C5.59941 10.3074 5.56254 10.2522 5.53738 10.1915C5.51222 10.1308 5.49927 10.0657 5.49927 9.99992C5.49927 9.93417 5.51222 9.86907 5.53738 9.80833C5.56254 9.74759 5.59941 9.6924 5.6459 9.64592C5.73979 9.55203 5.86712 9.49929 5.9999 9.49929C6.06564 9.49929 6.13074 9.51223 6.19148 9.53739C6.25222 9.56255 6.30741 9.59943 6.3539 9.64592L7.4999 10.7929L10.1459 8.14592C10.1923 8.09935 10.2475 8.06241 10.3083 8.0372C10.369 8.012 10.4341 7.99902 10.4999 7.99902C10.5657 7.99902 10.6308 8.012 10.6915 8.0372C10.7523 8.06241 10.8075 8.09935 10.8539 8.14592V8.14592Z" fill="#1B1B1B"/>
<path d="M3.5 0C3.63261 0 3.75979 0.0526784 3.85355 0.146447C3.94732 0.240215 4 0.367392 4 0.5V1H12V0.5C12 0.367392 12.0527 0.240215 12.1464 0.146447C12.2402 0.0526784 12.3674 0 12.5 0C12.6326 0 12.7598 0.0526784 12.8536 0.146447C12.9473 0.240215 13 0.367392 13 0.5V1H14C14.5304 1 15.0391 1.21071 15.4142 1.58579C15.7893 1.96086 16 2.46957 16 3V14C16 14.5304 15.7893 15.0391 15.4142 15.4142C15.0391 15.7893 14.5304 16 14 16H2C1.46957 16 0.960859 15.7893 0.585786 15.4142C0.210714 15.0391 0 14.5304 0 14V3C0 2.46957 0.210714 1.96086 0.585786 1.58579C0.960859 1.21071 1.46957 1 2 1H3V0.5C3 0.367392 3.05268 0.240215 3.14645 0.146447C3.24021 0.0526784 3.36739 0 3.5 0V0ZM2 2C1.73478 2 1.48043 2.10536 1.29289 2.29289C1.10536 2.48043 1 2.73478 1 3V14C1 14.2652 1.10536 14.5196 1.29289 14.7071C1.48043 14.8946 1.73478 15 2 15H14C14.2652 15 14.5196 14.8946 14.7071 14.7071C14.8946 14.5196 15 14.2652 15 14V3C15 2.73478 14.8946 2.48043 14.7071 2.29289C14.5196 2.10536 14.2652 2 14 2H2Z" fill="#1B1B1B"/>
<path d="M2.5 4C2.5 3.86739 2.55268 3.74021 2.64645 3.64645C2.74021 3.55268 2.86739 3.5 3 3.5H13C13.1326 3.5 13.2598 3.55268 13.3536 3.64645C13.4473 3.74021 13.5 3.86739 13.5 4V5C13.5 5.13261 13.4473 5.25979 13.3536 5.35355C13.2598 5.44732 13.1326 5.5 13 5.5H3C2.86739 5.5 2.74021 5.44732 2.64645 5.35355C2.55268 5.25979 2.5 5.13261 2.5 5V4Z" fill="#1B1B1B"/>
</g>
<defs>
<clipPath id="clip0_1419_867">
<rect width="16" height="16" fill="white"/>
</clipPath>
</defs>
</svg>
