<svg width="16" height="16" viewBox="0 0 16 16" fill="none" xmlns="http://www.w3.org/2000/svg">
<g clip-path="url(#clip0_1419_864)">
<path d="M6.14592 7.14592C6.19236 7.09935 6.24754 7.06241 6.30828 7.0372C6.36903 7.012 6.43415 6.99902 6.49992 6.99902C6.56568 6.99902 6.63081 7.012 6.69155 7.0372C6.7523 7.06241 6.80747 7.09935 6.85392 7.14592L7.99992 8.29292L9.14592 7.14592C9.2398 7.05203 9.36714 6.99929 9.49992 6.99929C9.63269 6.99929 9.76003 7.05203 9.85392 7.14592C9.9478 7.2398 10.0005 7.36714 10.0005 7.49992C10.0005 7.63269 9.9478 7.76003 9.85392 7.85392L8.70692 8.99992L9.85392 10.1459C9.9478 10.2398 10.0005 10.3671 10.0005 10.4999C10.0005 10.6327 9.9478 10.76 9.85392 10.8539C9.76003 10.9478 9.63269 11.0005 9.49992 11.0005C9.36714 11.0005 9.2398 10.9478 9.14592 10.8539L7.99992 9.70692L6.85392 10.8539C6.76003 10.9478 6.63269 11.0005 6.49992 11.0005C6.36714 11.0005 6.2398 10.9478 6.14592 10.8539C6.05203 10.76 5.99929 10.6327 5.99929 10.4999C5.99929 10.3671 6.05203 10.2398 6.14592 10.1459L7.29292 8.99992L6.14592 7.85392C6.09935 7.80747 6.06241 7.7523 6.0372 7.69155C6.012 7.63081 5.99902 7.56568 5.99902 7.49992C5.99902 7.43415 6.012 7.36903 6.0372 7.30828C6.06241 7.24754 6.09935 7.19236 6.14592 7.14592Z" fill="#1B1B1B"/>
<path d="M3.5 0C3.63261 0 3.75979 0.0526784 3.85355 0.146447C3.94732 0.240215 4 0.367392 4 0.5V1H12V0.5C12 0.367392 12.0527 0.240215 12.1464 0.146447C12.2402 0.0526784 12.3674 0 12.5 0C12.6326 0 12.7598 0.0526784 12.8536 0.146447C12.9473 0.240215 13 0.367392 13 0.5V1H14C14.5304 1 15.0391 1.21071 15.4142 1.58579C15.7893 1.96086 16 2.46957 16 3V14C16 14.5304 15.7893 15.0391 15.4142 15.4142C15.0391 15.7893 14.5304 16 14 16H2C1.46957 16 0.960859 15.7893 0.585786 15.4142C0.210714 15.0391 0 14.5304 0 14V3C0 2.46957 0.210714 1.96086 0.585786 1.58579C0.960859 1.21071 1.46957 1 2 1H3V0.5C3 0.367392 3.05268 0.240215 3.14645 0.146447C3.24021 0.0526784 3.36739 0 3.5 0V0ZM1 4V14C1 14.2652 1.10536 14.5196 1.29289 14.7071C1.48043 14.8946 1.73478 15 2 15H14C14.2652 15 14.5196 14.8946 14.7071 14.7071C14.8946 14.5196 15 14.2652 15 14V4H1Z" fill="#1B1B1B"/>
</g>
<defs>
<clipPath id="clip0_1419_864">
<rect width="16" height="16" fill="white"/>
</clipPath>
</defs>
</svg>
