<svg width="16" height="16" viewBox="0 0 16 16" fill="none" xmlns="http://www.w3.org/2000/svg">
<g clip-path="url(#clip0_1419_856)">
<path d="M2.5601 11.332L3.1001 9.73H5.0841L5.6241 11.332H6.3421L4.4441 6H3.7481L1.8501 11.332H2.5601ZM4.1041 6.805L4.9001 9.18H3.2841L4.0841 6.805H4.1041V6.805ZM9.8501 7.227H9.1741V9.77C9.1741 10.422 8.7601 10.793 8.1701 10.793C7.6311 10.793 7.1901 10.547 7.1901 9.781V7.227H6.5141V9.973C6.5141 10.914 7.1201 11.398 7.9671 11.398C8.6231 11.398 9.0101 11.118 9.1551 10.793H9.1821V11.332H9.8501V7.227V7.227ZM12.1081 12.273C11.5451 12.273 11.1981 11.969 11.1231 11.637H10.4361C10.5301 12.32 11.0611 12.836 12.1041 12.836C13.0341 12.836 13.8501 12.309 13.8501 11.258V7.227H13.2011V7.805H13.1821C12.9911 7.457 12.5451 7.165 11.9871 7.165C11.0221 7.165 10.3471 7.844 10.3471 9.051V9.391C10.3471 10.621 11.0301 11.293 11.9871 11.293C12.5451 11.293 12.9951 11 13.1591 10.645H13.1791V11.25C13.1791 11.895 12.7561 12.273 12.1081 12.273ZM12.1161 7.743C12.7641 7.743 13.1781 8.27 13.1781 9.102V9.355C13.1781 10.203 12.7881 10.719 12.1161 10.719C11.4241 10.719 11.0181 10.207 11.0181 9.355V9.102C11.0181 8.234 11.4241 7.742 12.1161 7.742V7.743Z" fill="#1B1B1B"/>
<path d="M3.5 0C3.63261 0 3.75979 0.0526784 3.85355 0.146447C3.94732 0.240215 4 0.367392 4 0.5V1H12V0.5C12 0.367392 12.0527 0.240215 12.1464 0.146447C12.2402 0.0526784 12.3674 0 12.5 0C12.6326 0 12.7598 0.0526784 12.8536 0.146447C12.9473 0.240215 13 0.367392 13 0.5V1H14C14.5304 1 15.0391 1.21071 15.4142 1.58579C15.7893 1.96086 16 2.46957 16 3V14C16 14.5304 15.7893 15.0391 15.4142 15.4142C15.0391 15.7893 14.5304 16 14 16H2C1.46957 16 0.960859 15.7893 0.585786 15.4142C0.210714 15.0391 0 14.5304 0 14V3C0 2.46957 0.210714 1.96086 0.585786 1.58579C0.960859 1.21071 1.46957 1 2 1H3V0.5C3 0.367392 3.05268 0.240215 3.14645 0.146447C3.24021 0.0526784 3.36739 0 3.5 0V0ZM1 4V14C1 14.2652 1.10536 14.5196 1.29289 14.7071C1.48043 14.8946 1.73478 15 2 15H14C14.2652 15 14.5196 14.8946 14.7071 14.7071C14.8946 14.5196 15 14.2652 15 14V4H1Z" fill="#1B1B1B"/>
</g>
<defs>
<clipPath id="clip0_1419_856">
<rect width="16" height="16" fill="white"/>
</clipPath>
</defs>
</svg>
