<svg width="16" height="16" viewBox="0 0 16 16" fill="none" xmlns="http://www.w3.org/2000/svg">
<g clip-path="url(#clip0_1419_880)">
<path d="M2.5601 12.332L3.1001 10.73H5.0841L5.6241 12.332H6.3421L4.4441 7H3.7481L1.8501 12.332H2.5601ZM4.1041 7.805L4.9001 10.18H3.2841L4.0841 7.805H4.1041V7.805ZM9.8501 8.227H9.1741V10.77C9.1741 11.422 8.7601 11.793 8.1701 11.793C7.6311 11.793 7.1901 11.547 7.1901 10.781V8.227H6.5141V10.973C6.5141 11.914 7.1201 12.398 7.9671 12.398C8.6231 12.398 9.0101 12.118 9.1551 11.793H9.1821V12.332H9.8501V8.227V8.227ZM12.1081 13.273C11.5451 13.273 11.1981 12.969 11.1231 12.637H10.4361C10.5301 13.32 11.0611 13.836 12.1041 13.836C13.0341 13.836 13.8501 13.309 13.8501 12.258V8.227H13.2011V8.805H13.1821C12.9911 8.457 12.5451 8.165 11.9871 8.165C11.0221 8.165 10.3471 8.844 10.3471 10.051V10.391C10.3471 11.621 11.0301 12.293 11.9871 12.293C12.5451 12.293 12.9951 12 13.1591 11.645H13.1791V12.25C13.1791 12.895 12.7561 13.273 12.1081 13.273V13.273ZM12.1161 8.743C12.7641 8.743 13.1781 9.27 13.1781 10.102V10.355C13.1781 11.203 12.7881 11.719 12.1161 11.719C11.4241 11.719 11.0181 11.207 11.0181 10.355V10.102C11.0181 9.234 11.4241 8.742 12.1161 8.742V8.743Z" fill="currentColor"/>
<path d="M3.5 0C3.63261 0 3.75979 0.0526784 3.85355 0.146447C3.94732 0.240215 4 0.367392 4 0.5V1H12V0.5C12 0.367392 12.0527 0.240215 12.1464 0.146447C12.2402 0.0526784 12.3674 0 12.5 0C12.6326 0 12.7598 0.0526784 12.8536 0.146447C12.9473 0.240215 13 0.367392 13 0.5V1H14C14.5304 1 15.0391 1.21071 15.4142 1.58579C15.7893 1.96086 16 2.46957 16 3V14C16 14.5304 15.7893 15.0391 15.4142 15.4142C15.0391 15.7893 14.5304 16 14 16H2C1.46957 16 0.960859 15.7893 0.585786 15.4142C0.210714 15.0391 0 14.5304 0 14V3C0 2.46957 0.210714 1.96086 0.585786 1.58579C0.960859 1.21071 1.46957 1 2 1H3V0.5C3 0.367392 3.05268 0.240215 3.14645 0.146447C3.24021 0.0526784 3.36739 0 3.5 0V0ZM2 2C1.73478 2 1.48043 2.10536 1.29289 2.29289C1.10536 2.48043 1 2.73478 1 3V14C1 14.2652 1.10536 14.5196 1.29289 14.7071C1.48043 14.8946 1.73478 15 2 15H14C14.2652 15 14.5196 14.8946 14.7071 14.7071C14.8946 14.5196 15 14.2652 15 14V3C15 2.73478 14.8946 2.48043 14.7071 2.29289C14.5196 2.10536 14.2652 2 14 2H2Z" fill="currentColor"/>
<path d="M2.5 4C2.5 3.86739 2.55268 3.74021 2.64645 3.64645C2.74021 3.55268 2.86739 3.5 3 3.5H13C13.1326 3.5 13.2598 3.55268 13.3536 3.64645C13.4473 3.74021 13.5 3.86739 13.5 4V5C13.5 5.13261 13.4473 5.25979 13.3536 5.35355C13.2598 5.44732 13.1326 5.5 13 5.5H3C2.86739 5.5 2.74021 5.44732 2.64645 5.35355C2.55268 5.25979 2.5 5.13261 2.5 5V4Z" fill="currentColor"/>
</g>
<defs>
<clipPath id="clip0_1419_880">
<rect width="16" height="16" fill="white"/>
</clipPath>
</defs>
</svg>
