<svg width="16" height="16" viewBox="0 0 16 16" fill="none" xmlns="http://www.w3.org/2000/svg">
<g clip-path="url(#clip0_1419_1600)">
<path fill-rule="evenodd" clip-rule="evenodd" d="M11.02 5.36399C11.5751 4.7999 11.8848 4.03932 11.8817 3.24791C11.8786 2.45649 11.5628 1.69838 11.0033 1.1387C10.4437 0.579013 9.68571 0.263107 8.89429 0.259792C8.10288 0.256477 7.34222 0.566019 6.778 1.12099L1.121 6.77799C0.558346 7.34065 0.242249 8.10378 0.242249 8.89949C0.242249 9.69521 0.558346 10.4583 1.121 11.021C1.68366 11.5837 2.44679 11.8997 3.2425 11.8997C4.03822 11.8997 4.80135 11.5837 5.364 11.021L11.021 5.36399H11.02ZM4.607 4.70699L7.485 1.82799C7.86015 1.45285 8.36896 1.24209 8.8995 1.24209C9.43004 1.24209 9.93885 1.45285 10.314 1.82799C10.6892 2.20314 10.8999 2.71195 10.8999 3.24249C10.8999 3.77303 10.6892 4.28185 10.314 4.65699L7.435 7.53599L4.607 4.70699V4.70699ZM12 7.99999C13.0609 7.99999 14.0783 8.42142 14.8284 9.17157C15.5786 9.92171 16 10.9391 16 12C16 13.0609 15.5786 14.0783 14.8284 14.8284C14.0783 15.5786 13.0609 16 12 16C10.9391 16 9.92172 15.5786 9.17158 14.8284C8.42143 14.0783 8 13.0609 8 12C8 10.9391 8.42143 9.92171 9.17158 9.17157C9.92172 8.42142 10.9391 7.99999 12 7.99999V7.99999ZM11.5 9.04099C10.7997 9.15797 10.1637 9.51949 9.70487 10.0613C9.24607 10.6031 8.99429 11.29 8.99429 12C8.99429 12.71 9.24607 13.3969 9.70487 13.9387C10.1637 14.4805 10.7997 14.842 11.5 14.959V9.03999V9.04099ZM12.5 14.959C13.2003 14.842 13.8363 14.4805 14.2951 13.9387C14.7539 13.3969 15.0057 12.71 15.0057 12C15.0057 11.29 14.7539 10.6031 14.2951 10.0613C13.8363 9.51949 13.2003 9.15797 12.5 9.04099V14.959Z" fill="#1B1B1B"/>
</g>
<defs>
<clipPath id="clip0_1419_1600">
<rect width="16" height="16" fill="white"/>
</clipPath>
</defs>
</svg>
