<svg width="16" height="16" viewBox="0 0 16 16" fill="none" xmlns="http://www.w3.org/2000/svg">
<g clip-path="url(#clip0_1419_1601)">
<path fill-rule="evenodd" clip-rule="evenodd" d="M1.828 8.90012L8.9 1.82712C9.27144 1.45568 9.71241 1.16103 10.1977 0.960007C10.683 0.758983 11.2032 0.655518 11.7285 0.655518C12.2538 0.655518 12.774 0.758983 13.2593 0.960007C13.7446 1.16103 14.1856 1.45568 14.557 1.82712C14.9284 2.19856 15.2231 2.63953 15.4241 3.12485C15.6251 3.61016 15.7286 4.13032 15.7286 4.65562C15.7286 5.18092 15.6251 5.70108 15.4241 6.18639C15.2231 6.67171 14.9284 7.11268 14.557 7.48412L7.487 14.5551C7.11568 14.9268 6.67481 15.2216 6.18954 15.4229C5.70427 15.6241 5.18411 15.7278 4.65876 15.7281C4.13342 15.7283 3.61317 15.6251 3.12772 15.4242C2.64227 15.2234 2.20114 14.9289 1.8295 14.5576C1.45786 14.1863 1.16299 13.7454 0.961733 13.2602C0.760477 12.7749 0.656772 12.2547 0.65654 11.7294C0.656308 11.204 0.759553 10.6838 0.96038 10.1983C1.16121 9.7129 1.45568 9.27176 1.827 8.90012H1.828ZM10.956 9.67112L13.849 6.77812C14.1313 6.50035 14.3557 6.16944 14.5095 5.80447C14.6632 5.43951 14.7432 5.04772 14.7447 4.65171C14.7463 4.25569 14.6695 3.86328 14.5186 3.49711C14.3678 3.13095 14.1459 2.79827 13.8658 2.51827C13.5858 2.23828 13.253 2.0165 12.8868 1.86574C12.5206 1.71498 12.1282 1.63821 11.7322 1.63987C11.3362 1.64153 10.9444 1.72158 10.5795 1.87541C10.2146 2.02923 9.8837 2.25379 9.606 2.53612L6.713 5.42912L10.956 9.67112V9.67112Z" fill="currentColor"/>
</g>
<defs>
<clipPath id="clip0_1419_1601">
<rect width="16" height="16" fill="white"/>
</clipPath>
</defs>
</svg>
