<svg width="16" height="16" viewBox="0 0 16 16" fill="none" xmlns="http://www.w3.org/2000/svg">
<path d="M14.5 3C14.6326 3 14.7598 3.05268 14.8536 3.14645C14.9473 3.24021 15 3.36739 15 3.5V12.5C15 12.6326 14.9473 12.7598 14.8536 12.8536C14.7598 12.9473 14.6326 13 14.5 13H1.5C1.36739 13 1.24021 12.9473 1.14645 12.8536C1.05268 12.7598 1 12.6326 1 12.5V3.5C1 3.36739 1.05268 3.24021 1.14645 3.14645C1.24021 3.05268 1.36739 3 1.5 3H14.5ZM1.5 2C1.10218 2 0.720644 2.15804 0.43934 2.43934C0.158035 2.72064 0 3.10218 0 3.5L0 12.5C0 12.8978 0.158035 13.2794 0.43934 13.5607C0.720644 13.842 1.10218 14 1.5 14H14.5C14.8978 14 15.2794 13.842 15.5607 13.5607C15.842 13.2794 16 12.8978 16 12.5V3.5C16 3.10218 15.842 2.72064 15.5607 2.43934C15.2794 2.15804 14.8978 2 14.5 2H1.5Z" fill="#1B1B1B"/>
<path d="M7.00005 5.49992C7.00005 5.36731 7.05272 5.24013 7.14649 5.14636C7.24026 5.0526 7.36744 4.99992 7.50005 4.99992H12.5C12.6327 4.99992 12.7598 5.0526 12.8536 5.14636C12.9474 5.24013 13 5.36731 13 5.49992C13 5.63253 12.9474 5.7597 12.8536 5.85347C12.7598 5.94724 12.6327 5.99992 12.5 5.99992H7.50005C7.36744 5.99992 7.24026 5.94724 7.14649 5.85347C7.05272 5.7597 7.00005 5.63253 7.00005 5.49992ZM5.50405 4.64592C5.55061 4.69236 5.58755 4.74754 5.61276 4.80828C5.63796 4.86903 5.65094 4.93415 5.65094 4.99992C5.65094 5.06568 5.63796 5.13081 5.61276 5.19155C5.58755 5.2523 5.55061 5.30747 5.50405 5.35392L4.00405 6.85392C3.9576 6.90048 3.90242 6.93742 3.84168 6.96263C3.78093 6.98784 3.71581 7.00081 3.65005 7.00081C3.58428 7.00081 3.51916 6.98784 3.45841 6.96263C3.39767 6.93742 3.34249 6.90048 3.29605 6.85392L2.79605 6.35392C2.74956 6.30743 2.71268 6.25224 2.68752 6.1915C2.66236 6.13076 2.64941 6.06566 2.64941 5.99992C2.64941 5.86714 2.70216 5.7398 2.79605 5.64592C2.88993 5.55203 3.01727 5.49929 3.15005 5.49929C3.28282 5.49929 3.41016 5.55203 3.50405 5.64592L3.65005 5.79292L4.79605 4.64592C4.84249 4.59935 4.89767 4.56241 4.95841 4.5372C5.01916 4.512 5.08428 4.49902 5.15005 4.49902C5.21581 4.49902 5.28093 4.512 5.34168 4.5372C5.40242 4.56241 5.4576 4.59935 5.50405 4.64592ZM7.00005 9.49992C7.00005 9.36731 7.05272 9.24013 7.14649 9.14636C7.24026 9.0526 7.36744 8.99992 7.50005 8.99992H12.5C12.6327 8.99992 12.7598 9.0526 12.8536 9.14636C12.9474 9.24013 13 9.36731 13 9.49992C13 9.63253 12.9474 9.7597 12.8536 9.85347C12.7598 9.94724 12.6327 9.99992 12.5 9.99992H7.50005C7.36744 9.99992 7.24026 9.94724 7.14649 9.85347C7.05272 9.7597 7.00005 9.63253 7.00005 9.49992ZM5.50405 8.64592C5.55061 8.69236 5.58755 8.74754 5.61276 8.80828C5.63796 8.86903 5.65094 8.93415 5.65094 8.99992C5.65094 9.06568 5.63796 9.13081 5.61276 9.19155C5.58755 9.2523 5.55061 9.30747 5.50405 9.35392L4.00405 10.8539C3.9576 10.9005 3.90242 10.9374 3.84168 10.9626C3.78093 10.9878 3.71581 11.0008 3.65005 11.0008C3.58428 11.0008 3.51916 10.9878 3.45841 10.9626C3.39767 10.9374 3.34249 10.9005 3.29605 10.8539L2.79605 10.3539C2.74956 10.3074 2.71268 10.2522 2.68752 10.1915C2.66236 10.1308 2.64941 10.0657 2.64941 9.99992C2.64941 9.93417 2.66236 9.86907 2.68752 9.80833C2.71268 9.74759 2.74956 9.6924 2.79605 9.64592C2.84253 9.59943 2.89772 9.56255 2.95846 9.53739C3.0192 9.51223 3.0843 9.49929 3.15005 9.49929C3.21579 9.49929 3.28089 9.51223 3.34163 9.53739C3.40237 9.56255 3.45756 9.59943 3.50405 9.64592L3.65005 9.79292L4.79605 8.64592C4.84249 8.59935 4.89767 8.56241 4.95841 8.5372C5.01916 8.512 5.08428 8.49902 5.15005 8.49902C5.21581 8.49902 5.28093 8.512 5.34168 8.5372C5.40242 8.56241 5.4576 8.59935 5.50405 8.64592Z" fill="#1B1B1B"/>
</svg>
