<svg width="16" height="16" viewBox="0 0 16 16" fill="none" xmlns="http://www.w3.org/2000/svg">
<g clip-path="url(#clip0_1419_2045)">
<path d="M14 1C14.2652 1 14.5196 1.10536 14.7071 1.29289C14.8946 1.48043 15 1.73478 15 2V14C15 14.2652 14.8946 14.5196 14.7071 14.7071C14.5196 14.8946 14.2652 15 14 15H2C1.73478 15 1.48043 14.8946 1.29289 14.7071C1.10536 14.5196 1 14.2652 1 14V2C1 1.73478 1.10536 1.48043 1.29289 1.29289C1.48043 1.10536 1.73478 1 2 1H14ZM2 0C1.46957 0 0.960859 0.210714 0.585786 0.585786C0.210714 0.960859 0 1.46957 0 2L0 14C0 14.5304 0.210714 15.0391 0.585786 15.4142C0.960859 15.7893 1.46957 16 2 16H14C14.5304 16 15.0391 15.7893 15.4142 15.4142C15.7893 15.0391 16 14.5304 16 14V2C16 1.46957 15.7893 0.960859 15.4142 0.585786C15.0391 0.210714 14.5304 0 14 0L2 0Z" fill="currentColor"/>
<path d="M3.54402 10.7049C3.58352 10.7928 3.64757 10.8674 3.72847 10.9197C3.80937 10.9721 3.90367 10.9999 4.00002 10.9999H12C12.0964 10.9999 12.1907 10.9721 12.2717 10.9198C12.3526 10.8674 12.4167 10.7928 12.4562 10.7049C12.4957 10.617 12.509 10.5195 12.4944 10.4243C12.4798 10.329 12.438 10.24 12.374 10.1679L8.37402 5.66791C8.3271 5.61504 8.26951 5.57271 8.20505 5.54373C8.14058 5.51474 8.0707 5.49976 8.00002 5.49976C7.92933 5.49976 7.85945 5.51474 7.79499 5.54373C7.73052 5.57271 7.67293 5.61504 7.62602 5.66791L3.62602 10.1679C3.56205 10.24 3.52028 10.329 3.50573 10.4243C3.49118 10.5196 3.50448 10.617 3.54402 10.7049V10.7049Z" fill="currentColor"/>
</g>
<defs>
<clipPath id="clip0_1419_2045">
<rect width="16" height="16" fill="white"/>
</clipPath>
</defs>
</svg>
