<svg width="16" height="16" viewBox="0 0 16 16" fill="none" xmlns="http://www.w3.org/2000/svg">
<g clip-path="url(#clip0_1419_2037)">
<path d="M14 1C14.2652 1 14.5196 1.10536 14.7071 1.29289C14.8946 1.48043 15 1.73478 15 2V14C15 14.2652 14.8946 14.5196 14.7071 14.7071C14.5196 14.8946 14.2652 15 14 15H2C1.73478 15 1.48043 14.8946 1.29289 14.7071C1.10536 14.5196 1 14.2652 1 14V2C1 1.73478 1.10536 1.48043 1.29289 1.29289C1.48043 1.10536 1.73478 1 2 1H14ZM2 0C1.46957 0 0.960859 0.210714 0.585786 0.585786C0.210714 0.960859 0 1.46957 0 2L0 14C0 14.5304 0.210714 15.0391 0.585786 15.4142C0.960859 15.7893 1.46957 16 2 16H14C14.5304 16 15.0391 15.7893 15.4142 15.4142C15.7893 15.0391 16 14.5304 16 14V2C16 1.46957 15.7893 0.960859 15.4142 0.585786C15.0391 0.210714 14.5304 0 14 0L2 0Z" fill="currentColor"/>
<path d="M10.205 12.4559C10.2929 12.4164 10.3675 12.3523 10.4198 12.2714C10.4722 12.1905 10.5 12.0962 10.5 11.9999V3.99989C10.5001 3.90351 10.4722 3.80918 10.4199 3.72824C10.3675 3.64731 10.2929 3.58323 10.205 3.54371C10.1171 3.5042 10.0197 3.49093 9.92439 3.50551C9.82912 3.52009 9.7401 3.56189 9.66803 3.62589L5.16803 7.62589C5.11516 7.6728 5.07283 7.73039 5.04385 7.79486C5.01486 7.85933 4.99988 7.92921 4.99988 7.99989C4.99988 8.07057 5.01486 8.14045 5.04385 8.20492C5.07283 8.26939 5.11516 8.32698 5.16803 8.37389L9.66803 12.3739C9.74011 12.4379 9.82915 12.4796 9.92442 12.4942C10.0197 12.5087 10.1171 12.4954 10.205 12.4559Z" fill="currentColor"/>
</g>
<defs>
<clipPath id="clip0_1419_2037">
<rect width="16" height="16" fill="white"/>
</clipPath>
</defs>
</svg>
