<svg width="16" height="16" viewBox="0 0 16 16" fill="none" xmlns="http://www.w3.org/2000/svg">
<path d="M4 8C4.26522 8 4.51957 7.89464 4.70711 7.70711C4.89464 7.51957 5 7.26522 5 7C5 6.73478 4.89464 6.48043 4.70711 6.29289C4.51957 6.10536 4.26522 6 4 6C3.73478 6 3.48043 6.10536 3.29289 6.29289C3.10536 6.48043 3 6.73478 3 7C3 7.26522 3.10536 7.51957 3.29289 7.70711C3.48043 7.89464 3.73478 8 4 8V8ZM13 7C13 7.26522 12.8946 7.51957 12.7071 7.70711C12.5196 7.89464 12.2652 8 12 8C11.7348 8 11.4804 7.89464 11.2929 7.70711C11.1054 7.51957 11 7.26522 11 7C11 6.73478 11.1054 6.48043 11.2929 6.29289C11.4804 6.10536 11.7348 6 12 6C12.2652 6 12.5196 6.10536 12.7071 6.29289C12.8946 6.48043 13 6.73478 13 7ZM7 6C6.73478 6 6.48043 6.10536 6.29289 6.29289C6.10536 6.48043 6 6.73478 6 7C6 7.26522 6.10536 7.51957 6.29289 7.70711C6.48043 7.89464 6.73478 8 7 8H9C9.26522 8 9.51957 7.89464 9.70711 7.70711C9.89464 7.51957 10 7.26522 10 7C10 6.73478 9.89464 6.48043 9.70711 6.29289C9.51957 6.10536 9.26522 6 9 6H7Z" fill="currentColor"/>
<path d="M1.5 2C1.10218 2 0.720644 2.15804 0.43934 2.43934C0.158035 2.72064 0 3.10218 0 3.5L0 12.5C0 12.8978 0.158035 13.2794 0.43934 13.5607C0.720644 13.842 1.10218 14 1.5 14H14.5C14.8978 14 15.2794 13.842 15.5607 13.5607C15.842 13.2794 16 12.8978 16 12.5V3.5C16 3.10218 15.842 2.72064 15.5607 2.43934C15.2794 2.15804 14.8978 2 14.5 2H1.5ZM1 3.5C1 3.36739 1.05268 3.24021 1.14645 3.14645C1.24021 3.05268 1.36739 3 1.5 3H14.5C14.6326 3 14.7598 3.05268 14.8536 3.14645C14.9473 3.24021 15 3.36739 15 3.5V12.5C15 12.6326 14.9473 12.7598 14.8536 12.8536C14.7598 12.9473 14.6326 13 14.5 13H13.809L12.447 10.276C12.4054 10.1931 12.3416 10.1233 12.2627 10.0746C12.1837 10.0258 12.0928 10 12 10H4C3.90722 10 3.81627 10.0258 3.73733 10.0746C3.65839 10.1233 3.59456 10.1931 3.553 10.276L2.19 13H1.5C1.36739 13 1.24021 12.9473 1.14645 12.8536C1.05268 12.7598 1 12.6326 1 12.5V3.5ZM11.691 11L12.691 13H3.309L4.309 11H11.691V11Z" fill="currentColor"/>
</svg>
