<svg width="16" height="16" viewBox="0 0 16 16" fill="none" xmlns="http://www.w3.org/2000/svg">
<g clip-path="url(#clip0_1419_2047)">
<path d="M1.5 2C1.10218 2 0.720644 2.15804 0.43934 2.43934C0.158035 2.72064 0 3.10218 0 3.5L0 12.5C0 12.8978 0.158035 13.2794 0.43934 13.5607C0.720644 13.842 1.10218 14 1.5 14H1.691L3.553 10.276C3.59456 10.1931 3.65839 10.1233 3.73733 10.0746C3.81627 10.0258 3.90722 10 4 10H12C12.0928 10 12.1837 10.0258 12.2627 10.0746C12.3416 10.1233 12.4054 10.1931 12.447 10.276L14.31 14H14.501C14.8988 14 15.2804 13.842 15.5617 13.5607C15.843 13.2794 16.001 12.8978 16.001 12.5V3.5C16.001 3.30293 15.9622 3.1078 15.8867 2.92574C15.8113 2.74369 15.7007 2.57829 15.5613 2.43899C15.4219 2.29969 15.2564 2.18922 15.0743 2.11389C14.8922 2.03857 14.6971 1.99987 14.5 2H1.5ZM4 7C3.73478 7 3.48043 6.89464 3.29289 6.70711C3.10536 6.51957 3 6.26522 3 6C3 5.73478 3.10536 5.48043 3.29289 5.29289C3.48043 5.10536 3.73478 5 4 5C4.26522 5 4.51957 5.10536 4.70711 5.29289C4.89464 5.48043 5 5.73478 5 6C5 6.26522 4.89464 6.51957 4.70711 6.70711C4.51957 6.89464 4.26522 7 4 7ZM12 7C11.7348 7 11.4804 6.89464 11.2929 6.70711C11.1054 6.51957 11 6.26522 11 6C11 5.73478 11.1054 5.48043 11.2929 5.29289C11.4804 5.10536 11.7348 5 12 5C12.2652 5 12.5196 5.10536 12.7071 5.29289C12.8946 5.48043 13 5.73478 13 6C13 6.26522 12.8946 6.51957 12.7071 6.70711C12.5196 6.89464 12.2652 7 12 7ZM6 6C6 5.73478 6.10536 5.48043 6.29289 5.29289C6.48043 5.10536 6.73478 5 7 5H9C9.26522 5 9.51957 5.10536 9.70711 5.29289C9.89464 5.48043 10 5.73478 10 6C10 6.26522 9.89464 6.51957 9.70711 6.70711C9.51957 6.89464 9.26522 7 9 7H7C6.73478 7 6.48043 6.89464 6.29289 6.70711C6.10536 6.51957 6 6.26522 6 6Z" fill="currentColor"/>
<path d="M13.191 14L11.691 11H4.30902L2.80902 14H13.191V14Z" fill="currentColor"/>
</g>
<defs>
<clipPath id="clip0_1419_2047">
<rect width="16" height="16" fill="white"/>
</clipPath>
</defs>
</svg>
