<svg width="16" height="16" viewBox="0 0 16 16" fill="none" xmlns="http://www.w3.org/2000/svg">
<path d="M7.64599 9.35392L3.85399 13.1459C3.78394 13.2158 3.7362 13.3049 3.7168 13.4019C3.6974 13.4989 3.70722 13.5995 3.74501 13.6909C3.78281 13.7824 3.84687 13.8605 3.92911 13.9155C4.01135 13.9705 4.10805 13.9999 4.20699 13.9999H11.793C11.892 14.0001 11.9889 13.9709 12.0712 13.9159C12.1536 13.861 12.2179 13.7829 12.2558 13.6914C12.2937 13.5999 12.3036 13.4992 12.2842 13.4021C12.2649 13.305 12.2171 13.2159 12.147 13.1459L8.35399 9.35392C8.30754 9.30736 8.25236 9.27042 8.19162 9.24521C8.13087 9.22001 8.06575 9.20703 7.99999 9.20703C7.93422 9.20703 7.8691 9.22001 7.80835 9.24521C7.74761 9.27042 7.69243 9.30736 7.64599 9.35392V9.35392Z" fill="#1B1B1B"/>
<path d="M11.414 11H14.5C14.6326 11 14.7598 10.9473 14.8536 10.8536C14.9473 10.7598 15 10.6326 15 10.5V3.5C15 3.36739 14.9473 3.24021 14.8536 3.14645C14.7598 3.05268 14.6326 3 14.5 3H1.5C1.36739 3 1.24021 3.05268 1.14645 3.14645C1.05268 3.24021 1 3.36739 1 3.5V10.5C1 10.6326 1.05268 10.7598 1.14645 10.8536C1.24021 10.9473 1.36739 11 1.5 11H4.586L3.586 12H1.5C1.10218 12 0.720644 11.842 0.43934 11.5607C0.158035 11.2794 0 10.8978 0 10.5L0 3.5C0 3.10218 0.158035 2.72064 0.43934 2.43934C0.720644 2.15804 1.10218 2 1.5 2H14.5C14.8978 2 15.2794 2.15804 15.5607 2.43934C15.842 2.72064 16 3.10218 16 3.5V10.5C16 10.8978 15.842 11.2794 15.5607 11.5607C15.2794 11.842 14.8978 12 14.5 12H12.414L11.414 11Z" fill="#1B1B1B"/>
</svg>
