<svg width="16" height="16" viewBox="0 0 16 16" fill="none" xmlns="http://www.w3.org/2000/svg">
<g clip-path="url(#clip0_1419_1908)">
<path d="M16 8C16 10.1217 15.1571 12.1566 13.6569 13.6569C12.1566 15.1571 10.1217 16 8 16C5.87827 16 3.84344 15.1571 2.34315 13.6569C0.842855 12.1566 0 10.1217 0 8C0 5.87827 0.842855 3.84344 2.34315 2.34315C3.84344 0.842855 5.87827 0 8 0C10.1217 0 12.1566 0.842855 13.6569 2.34315C15.1571 3.84344 16 5.87827 16 8V8ZM5.408 5.89C6.089 5.89 6.546 6.36 6.595 6.997H7.742V6.887C7.689 5.7 6.718 4.887 5.399 4.887C3.795 4.887 2.881 5.937 2.881 7.638V8.385C2.881 10.085 3.787 11.115 5.399 11.115C6.713 11.115 7.684 10.323 7.742 9.176V9.062H6.595C6.546 9.677 6.098 10.112 5.408 10.112C4.568 10.112 4.09 9.492 4.09 8.385V7.643C4.09 6.531 4.578 5.889 5.408 5.889V5.89ZM10.812 5.89C11.492 5.89 11.95 6.36 11.998 6.997H13.145V6.887C13.092 5.7 12.121 4.887 10.803 4.887C9.199 4.887 8.285 5.937 8.285 7.638V8.385C8.285 10.085 9.19 11.115 10.803 11.115C12.117 11.115 13.088 10.323 13.145 9.176V9.062H11.998C11.95 9.677 11.502 10.112 10.812 10.112C9.972 10.112 9.493 9.492 9.493 8.385V7.643C9.493 6.531 9.981 5.889 10.812 5.889V5.89Z" fill="#1B1B1B"/>
</g>
<defs>
<clipPath id="clip0_1419_1908">
<rect width="16" height="16" fill="white"/>
</clipPath>
</defs>
</svg>
