<svg width="16" height="16" viewBox="0 0 16 16" fill="none" xmlns="http://www.w3.org/2000/svg">
<g clip-path="url(#clip0_1419_1911)">
<path fill-rule="evenodd" clip-rule="evenodd" d="M15 2C15 1.73478 14.8946 1.48043 14.7071 1.29289C14.5196 1.10536 14.2652 1 14 1H2C1.73478 1 1.48043 1.10536 1.29289 1.29289C1.10536 1.48043 1 1.73478 1 2V14C1 14.2652 1.10536 14.5196 1.29289 14.7071C1.48043 14.8946 1.73478 15 2 15H14C14.2652 15 14.5196 14.8946 14.7071 14.7071C14.8946 14.5196 15 14.2652 15 14V2ZM0 2C0 1.46957 0.210714 0.960859 0.585786 0.585786C0.960859 0.210714 1.46957 0 2 0L14 0C14.5304 0 15.0391 0.210714 15.4142 0.585786C15.7893 0.960859 16 1.46957 16 2V14C16 14.5304 15.7893 15.0391 15.4142 15.4142C15.0391 15.7893 14.5304 16 14 16H2C1.46957 16 0.960859 15.7893 0.585786 15.4142C0.210714 15.0391 0 14.5304 0 14V2ZM5.408 5.89C4.578 5.89 4.09 6.53 4.09 7.643V8.385C4.09 9.493 4.569 10.112 5.408 10.112C6.098 10.112 6.546 9.677 6.595 9.062H7.742V9.176C7.684 10.323 6.713 11.114 5.399 11.114C3.787 11.114 2.881 10.086 2.881 8.385V7.638C2.881 5.938 3.795 4.888 5.399 4.888C6.718 4.888 7.689 5.7 7.742 6.887V6.997H6.595C6.546 6.359 6.089 5.889 5.408 5.889V5.89ZM10.812 5.89C9.981 5.89 9.493 6.53 9.493 7.643V8.385C9.493 9.493 9.973 10.112 10.812 10.112C11.502 10.112 11.95 9.677 11.998 9.062H13.145V9.176C13.088 10.323 12.117 11.114 10.803 11.114C9.19 11.114 8.285 10.086 8.285 8.385V7.638C8.285 5.938 9.199 4.888 10.803 4.888C12.121 4.888 13.093 5.7 13.145 6.887V6.997H11.998C11.95 6.359 11.493 5.889 10.812 5.889V5.89Z" fill="#1B1B1B"/>
<path fill-rule="evenodd" clip-rule="evenodd" d="M15 2C15 1.73478 14.8946 1.48043 14.7071 1.29289C14.5196 1.10536 14.2652 1 14 1H2C1.73478 1 1.48043 1.10536 1.29289 1.29289C1.10536 1.48043 1 1.73478 1 2V14C1 14.2652 1.10536 14.5196 1.29289 14.7071C1.48043 14.8946 1.73478 15 2 15H14C14.2652 15 14.5196 14.8946 14.7071 14.7071C14.8946 14.5196 15 14.2652 15 14V2ZM0 2C0 1.46957 0.210714 0.960859 0.585786 0.585786C0.960859 0.210714 1.46957 0 2 0L14 0C14.5304 0 15.0391 0.210714 15.4142 0.585786C15.7893 0.960859 16 1.46957 16 2V14C16 14.5304 15.7893 15.0391 15.4142 15.4142C15.0391 15.7893 14.5304 16 14 16H2C1.46957 16 0.960859 15.7893 0.585786 15.4142C0.210714 15.0391 0 14.5304 0 14V2ZM5.408 5.89C4.578 5.89 4.09 6.53 4.09 7.643V8.385C4.09 9.493 4.569 10.112 5.408 10.112C6.098 10.112 6.546 9.677 6.595 9.062H7.742V9.176C7.684 10.323 6.713 11.114 5.399 11.114C3.787 11.114 2.881 10.086 2.881 8.385V7.638C2.881 5.938 3.795 4.888 5.399 4.888C6.718 4.888 7.689 5.7 7.742 6.887V6.997H6.595C6.546 6.359 6.089 5.889 5.408 5.889V5.89ZM10.812 5.89C9.981 5.89 9.493 6.53 9.493 7.643V8.385C9.493 9.493 9.973 10.112 10.812 10.112C11.502 10.112 11.95 9.677 11.998 9.062H13.145V9.176C13.088 10.323 12.117 11.114 10.803 11.114C9.19 11.114 8.285 10.086 8.285 8.385V7.638C8.285 5.938 9.199 4.888 10.803 4.888C12.121 4.888 13.093 5.7 13.145 6.887V6.997H11.998C11.95 6.359 11.493 5.889 10.812 5.889V5.89Z" fill="#1B1B1B"/>
</g>
<defs>
<clipPath id="clip0_1419_1911">
<rect width="16" height="16" fill="white"/>
</clipPath>
</defs>
</svg>
