<svg width="16" height="16" viewBox="0 0 16 16" fill="none" xmlns="http://www.w3.org/2000/svg">
<g clip-path="url(#clip0_1419_1910)">
<path d="M2 0C1.46957 0 0.960859 0.210714 0.585786 0.585786C0.210714 0.960859 0 1.46957 0 2L0 14C0 14.5304 0.210714 15.0391 0.585786 15.4142C0.960859 15.7893 1.46957 16 2 16H14C14.5304 16 15.0391 15.7893 15.4142 15.4142C15.7893 15.0391 16 14.5304 16 14V2C16 1.46957 15.7893 0.960859 15.4142 0.585786C15.0391 0.210714 14.5304 0 14 0L2 0ZM5.408 5.89C4.578 5.89 4.09 6.53 4.09 7.643V8.385C4.09 9.493 4.569 10.112 5.408 10.112C6.098 10.112 6.546 9.677 6.595 9.062H7.742V9.176C7.684 10.323 6.713 11.114 5.399 11.114C3.787 11.114 2.881 10.086 2.881 8.385V7.638C2.881 5.938 3.795 4.888 5.399 4.888C6.718 4.888 7.689 5.7 7.742 6.887V6.997H6.595C6.546 6.359 6.089 5.889 5.408 5.889V5.89ZM10.812 5.89C9.981 5.89 9.493 6.53 9.493 7.643V8.385C9.493 9.493 9.973 10.112 10.812 10.112C11.502 10.112 11.95 9.677 11.998 9.062H13.145V9.176C13.088 10.323 12.117 11.114 10.803 11.114C9.19 11.114 8.285 10.086 8.285 8.385V7.638C8.285 5.938 9.199 4.888 10.803 4.888C12.121 4.888 13.093 5.7 13.145 6.887V6.997H11.998C11.95 6.359 11.493 5.889 10.812 5.889V5.89Z" fill="currentColor"/>
</g>
<defs>
<clipPath id="clip0_1419_1910">
<rect width="16" height="16" fill="white"/>
</clipPath>
</defs>
</svg>
