<svg width="16" height="16" viewBox="0 0 16 16" fill="none" xmlns="http://www.w3.org/2000/svg">
<path d="M2.50001 8.00011C2.49986 7.03459 2.75388 6.08604 3.23655 5.24981C3.71921 4.41358 4.41351 3.71915 5.24964 3.23633C6.08577 2.7535 7.03427 2.49929 7.99979 2.49925C8.96532 2.49921 9.91384 2.75335 10.75 3.23611C10.8648 3.30137 11.0007 3.31858 11.1281 3.28399C11.2556 3.24939 11.3641 3.1658 11.4301 3.05146C11.4962 2.93712 11.5143 2.8013 11.4805 2.67365C11.4468 2.546 11.3639 2.43689 11.25 2.37011C10.0109 1.65469 8.57029 1.36813 7.15169 1.55487C5.73309 1.74161 4.41575 2.39121 3.40396 3.40294C2.39218 4.41466 1.74249 5.73196 1.55566 7.15055C1.36883 8.56913 1.6553 10.0097 2.37064 11.2489C3.08597 12.4881 4.19021 13.4566 5.51208 14.0043C6.83396 14.552 8.29961 14.6482 9.68173 14.278C11.0638 13.9078 12.2852 13.0919 13.1564 11.9568C14.0275 10.8217 14.4998 9.43095 14.5 8.00011C14.5 7.8675 14.4473 7.74033 14.3536 7.64656C14.2598 7.55279 14.1326 7.50011 14 7.50011C13.8674 7.50011 13.7402 7.55279 13.6465 7.64656C13.5527 7.74033 13.5 7.8675 13.5 8.00011C13.5 9.4588 12.9205 10.8577 11.8891 11.8892C10.8576 12.9206 9.4587 13.5001 8.00001 13.5001C6.54132 13.5001 5.14237 12.9206 4.11092 11.8892C3.07947 10.8577 2.50001 9.4588 2.50001 8.00011Z" fill="#1B1B1B"/>
<path d="M15.354 3.3539C15.4005 3.30741 15.4374 3.25222 15.4625 3.19148C15.4877 3.13074 15.5006 3.06564 15.5006 2.9999C15.5006 2.93416 15.4877 2.86906 15.4625 2.80832C15.4374 2.74758 15.4005 2.69239 15.354 2.6459C15.3075 2.59941 15.2523 2.56254 15.1916 2.53738C15.1308 2.51222 15.0657 2.49927 15 2.49927C14.9342 2.49927 14.8691 2.51222 14.8084 2.53738C14.7477 2.56254 14.6925 2.59941 14.646 2.6459L7.99999 9.2929L5.35399 6.6459C5.3075 6.59941 5.25231 6.56253 5.19157 6.53738C5.13084 6.51222 5.06573 6.49927 4.99999 6.49927C4.93425 6.49927 4.86915 6.51222 4.80841 6.53738C4.74767 6.56253 4.69248 6.59941 4.64599 6.6459C4.5995 6.69239 4.56263 6.74758 4.53747 6.80832C4.51231 6.86905 4.49936 6.93416 4.49936 6.9999C4.49936 7.06564 4.51231 7.13074 4.53747 7.19148C4.56263 7.25222 4.5995 7.30741 4.64599 7.3539L7.64599 10.3539C7.69244 10.4005 7.74761 10.4374 7.80836 10.4626C7.8691 10.4878 7.93422 10.5008 7.99999 10.5008C8.06576 10.5008 8.13088 10.4878 8.19162 10.4626C8.25237 10.4374 8.30755 10.4005 8.35399 10.3539L15.354 3.3539V3.3539Z" fill="#1B1B1B"/>
</svg>
