<svg width="16" height="16" viewBox="0 0 16 16" fill="none" xmlns="http://www.w3.org/2000/svg">
<path d="M8.97004 4.97004C9.1109 4.83593 9.29836 4.76179 9.49285 4.76326C9.68735 4.76473 9.87366 4.8417 10.0125 4.97793C10.1513 5.11416 10.2318 5.29899 10.2369 5.49342C10.2421 5.68785 10.1715 5.87667 10.04 6.02004L6.05004 11.01C5.98143 11.0839 5.89862 11.1432 5.80657 11.1844C5.71451 11.2256 5.61511 11.2478 5.51429 11.2496C5.41347 11.2515 5.31331 11.233 5.21979 11.1953C5.12628 11.1575 5.04133 11.1014 4.97004 11.03L2.32404 8.38404C2.25035 8.31538 2.19125 8.23258 2.15025 8.14058C2.10926 8.04858 2.08722 7.94927 2.08544 7.84857C2.08367 7.74786 2.10219 7.64783 2.13991 7.55445C2.17763 7.46106 2.23378 7.37622 2.305 7.305C2.37622 7.23379 2.46105 7.17764 2.55444 7.13992C2.64783 7.1022 2.74785 7.08367 2.84856 7.08545C2.94926 7.08723 3.04857 7.10927 3.14057 7.15026C3.23257 7.19125 3.31537 7.25036 3.38404 7.32404L5.47804 9.41704L8.95004 4.99204C8.95626 4.98432 8.96294 4.97698 8.97004 4.97004V4.97004ZM8.05004 10.11L8.97004 11.03C9.04132 11.1012 9.1262 11.1573 9.21962 11.1949C9.31304 11.2325 9.41308 11.251 9.51378 11.2491C9.61448 11.2472 9.71377 11.2251 9.80573 11.184C9.89769 11.143 9.98044 11.0838 10.049 11.01L14.041 6.02004C14.1127 5.94924 14.1695 5.86472 14.2078 5.77152C14.2461 5.67832 14.2652 5.57835 14.2641 5.47758C14.2629 5.37682 14.2414 5.27732 14.2009 5.18504C14.1605 5.09276 14.1018 5.00958 14.0284 4.94047C13.9551 4.87137 13.8686 4.81775 13.7741 4.78282C13.6795 4.74789 13.5789 4.73237 13.4783 4.73718C13.3776 4.742 13.279 4.76705 13.1882 4.81084C13.0975 4.85462 13.0164 4.91625 12.95 4.99204L9.47704 9.41704L8.99203 8.93104L8.04904 10.11H8.05004Z" fill="#1B1B1B"/>
</svg>
