<svg width="16" height="16" viewBox="0 0 16 16" fill="none" xmlns="http://www.w3.org/2000/svg">
<g clip-path="url(#clip0_1419_1606)">
<path d="M12.354 4.3539C12.4005 4.30741 12.4374 4.25222 12.4625 4.19148C12.4877 4.13074 12.5006 4.06564 12.5006 3.9999C12.5006 3.93416 12.4877 3.86906 12.4625 3.80832C12.4374 3.74758 12.4005 3.69239 12.354 3.6459C12.3075 3.59941 12.2523 3.56254 12.1916 3.53738C12.1308 3.51222 12.0657 3.49927 12 3.49927C11.9342 3.49927 11.8691 3.51222 11.8084 3.53738C11.7477 3.56254 11.6925 3.59941 11.646 3.6459L4.99999 10.2929L1.85399 7.1459C1.8075 7.09941 1.75231 7.06253 1.69157 7.03738C1.63083 7.01222 1.56573 6.99927 1.49999 6.99927C1.36722 6.99927 1.23988 7.05201 1.14599 7.1459C1.0521 7.23979 0.999359 7.36712 0.999359 7.4999C0.999359 7.63267 1.0521 7.76001 1.14599 7.8539L4.64599 11.3539C4.69244 11.4005 4.74761 11.4374 4.80836 11.4626C4.8691 11.4878 4.93422 11.5008 4.99999 11.5008C5.06576 11.5008 5.13088 11.4878 5.19162 11.4626C5.25237 11.4374 5.30755 11.4005 5.35399 11.3539L12.354 4.3539V4.3539ZM8.14599 11.3539L7.24999 10.4569L7.95699 9.7499L8.49999 10.2929L15.146 3.6459C15.2399 3.55201 15.3672 3.49927 15.5 3.49927C15.6328 3.49927 15.7601 3.55201 15.854 3.6459C15.9479 3.73979 16.0006 3.86712 16.0006 3.9999C16.0006 4.13267 15.9479 4.26001 15.854 4.3539L8.85399 11.3539C8.80755 11.4005 8.75237 11.4374 8.69162 11.4626C8.63088 11.4878 8.56576 11.5008 8.49999 11.5008C8.43422 11.5008 8.3691 11.4878 8.30836 11.4626C8.24761 11.4374 8.19244 11.4005 8.14599 11.3539V11.3539Z" fill="#1B1B1B"/>
<path d="M5.35399 7.1459L6.24999 8.0429L5.54299 8.7499L4.64599 7.8539C4.5521 7.76001 4.49936 7.63268 4.49936 7.4999C4.49936 7.36712 4.5521 7.23979 4.64599 7.1459C4.73988 7.05201 4.86722 6.99927 4.99999 6.99927C5.13277 6.99927 5.2601 7.05201 5.35399 7.1459V7.1459Z" fill="#1B1B1B"/>
</g>
<defs>
<clipPath id="clip0_1419_1606">
<rect width="16" height="16" fill="white"/>
</clipPath>
</defs>
</svg>
