<svg width="16" height="16" viewBox="0 0 16 16" fill="none" xmlns="http://www.w3.org/2000/svg">
<path d="M12.736 3.96993C12.8042 3.9003 12.8857 3.84498 12.9756 3.80722C13.0655 3.76945 13.162 3.75 13.2595 3.75C13.357 3.75 13.4535 3.76945 13.5434 3.80722C13.6333 3.84498 13.7147 3.9003 13.783 3.96993C14.069 4.25893 14.073 4.72593 13.793 5.01993L7.88 12.0099C7.81286 12.0837 7.73139 12.1429 7.64057 12.1841C7.54975 12.2252 7.45149 12.2474 7.3518 12.2493C7.25211 12.2511 7.15309 12.2327 7.06079 12.1949C6.96849 12.1572 6.88485 12.1011 6.815 12.0299L3.217 8.38393C3.07823 8.24242 3.0005 8.05213 3.0005 7.85393C3.0005 7.65574 3.07823 7.46545 3.217 7.32393C3.28524 7.2543 3.36669 7.19898 3.45658 7.16122C3.54647 7.12345 3.64299 7.104 3.7405 7.104C3.838 7.104 3.93452 7.12345 4.02441 7.16122C4.1143 7.19898 4.19575 7.2543 4.264 7.32393L7.316 10.4169L12.716 3.99193C12.7222 3.98421 12.7289 3.97686 12.736 3.96993Z" fill="currentColor"/>
</svg>
