<svg width="16" height="16" viewBox="0 0 16 16" fill="none" xmlns="http://www.w3.org/2000/svg">
<path d="M13.854 3.64592C13.9006 3.69236 13.9375 3.74754 13.9627 3.80828C13.9879 3.86903 14.0009 3.93415 14.0009 3.99992C14.0009 4.06568 13.9879 4.13081 13.9627 4.19155C13.9375 4.2523 13.9006 4.30747 13.854 4.35392L6.854 11.3539C6.80755 11.4005 6.75238 11.4374 6.69163 11.4626C6.63089 11.4878 6.56577 11.5008 6.5 11.5008C6.43423 11.5008 6.36911 11.4878 6.30836 11.4626C6.24762 11.4374 6.19244 11.4005 6.146 11.3539L2.646 7.85392C2.55211 7.76003 2.49937 7.63269 2.49937 7.49992C2.49937 7.36714 2.55211 7.2398 2.646 7.14592C2.73988 7.05203 2.86722 6.99929 3 6.99929C3.13277 6.99929 3.26011 7.05203 3.354 7.14592L6.5 10.2929L13.146 3.64592C13.1924 3.59935 13.2476 3.56241 13.3084 3.5372C13.3691 3.512 13.4342 3.49902 13.5 3.49902C13.5658 3.49902 13.6309 3.512 13.6916 3.5372C13.7524 3.56241 13.8076 3.59935 13.854 3.64592V3.64592Z" fill="currentColor"/>
</svg>
