<svg width="16" height="16" viewBox="0 0 16 16" fill="none" xmlns="http://www.w3.org/2000/svg">
<path fill-rule="evenodd" clip-rule="evenodd" d="M3.64598 9.14592C3.69242 9.09935 3.7476 9.06241 3.80834 9.0372C3.86909 9.012 3.93421 8.99902 3.99998 8.99902C4.06575 8.99902 4.13087 9.012 4.19161 9.0372C4.25236 9.06241 4.30753 9.09935 4.35398 9.14592L7.99998 12.7929L11.646 9.14592C11.7399 9.05203 11.8672 8.99929 12 8.99929C12.1328 8.99929 12.2601 9.05203 12.354 9.14592C12.4479 9.2398 12.5006 9.36714 12.5006 9.49992C12.5006 9.63269 12.4479 9.76003 12.354 9.85392L8.35398 13.8539C8.30753 13.9005 8.25236 13.9374 8.19161 13.9626C8.13087 13.9878 8.06575 14.0008 7.99998 14.0008C7.93421 14.0008 7.86909 13.9878 7.80834 13.9626C7.7476 13.9374 7.69242 13.9005 7.64598 13.8539L3.64598 9.85392C3.59941 9.80747 3.56247 9.7523 3.53727 9.69155C3.51206 9.63081 3.49908 9.56568 3.49908 9.49992C3.49908 9.43415 3.51206 9.36903 3.53727 9.30828C3.56247 9.24754 3.59941 9.19236 3.64598 9.14592V9.14592ZM3.64598 6.85392C3.69242 6.90048 3.7476 6.93742 3.80834 6.96263C3.86909 6.98784 3.93421 7.00081 3.99998 7.00081C4.06575 7.00081 4.13087 6.98784 4.19161 6.96263C4.25236 6.93742 4.30753 6.90048 4.35398 6.85392L7.99998 3.20692L11.646 6.85392C11.7399 6.9478 11.8672 7.00055 12 7.00055C12.1328 7.00055 12.2601 6.9478 12.354 6.85392C12.4479 6.76003 12.5006 6.63269 12.5006 6.49992C12.5006 6.36714 12.4479 6.2398 12.354 6.14592L8.35398 2.14592C8.30753 2.09935 8.25236 2.06241 8.19161 2.0372C8.13087 2.012 8.06575 1.99902 7.99998 1.99902C7.93421 1.99902 7.86909 2.012 7.80834 2.0372C7.7476 2.06241 7.69242 2.09935 7.64598 2.14592L3.64598 6.14592C3.59941 6.19236 3.56247 6.24754 3.53727 6.30828C3.51206 6.36903 3.49908 6.43415 3.49908 6.49992C3.49908 6.56568 3.51206 6.63081 3.53727 6.69155C3.56247 6.7523 3.59941 6.80747 3.64598 6.85392V6.85392Z" fill="#1B1B1B"/>
</svg>
