<svg width="16" height="16" viewBox="0 0 16 16" fill="none" xmlns="http://www.w3.org/2000/svg">
<path fill-rule="evenodd" clip-rule="evenodd" d="M3.646 10.1459C3.69245 10.0994 3.74762 10.0624 3.80837 10.0372C3.86911 10.012 3.93423 9.99902 4 9.99902C4.06577 9.99902 4.13089 10.012 4.19163 10.0372C4.25238 10.0624 4.30755 10.0994 4.354 10.1459L8 13.7929L11.646 10.1459C11.7399 10.052 11.8672 9.99929 12 9.99929C12.1328 9.99929 12.2601 10.052 12.354 10.1459C12.4479 10.2398 12.5006 10.3671 12.5006 10.4999C12.5006 10.6327 12.4479 10.76 12.354 10.8539L8.354 14.8539C8.30755 14.9005 8.25238 14.9374 8.19163 14.9626C8.13089 14.9878 8.06577 15.0008 8 15.0008C7.93423 15.0008 7.86911 14.9878 7.80837 14.9626C7.74762 14.9374 7.69245 14.9005 7.646 14.8539L3.646 10.8539C3.59944 10.8075 3.56249 10.7523 3.53729 10.6916C3.51208 10.6308 3.49911 10.5657 3.49911 10.4999C3.49911 10.4341 3.51208 10.369 3.53729 10.3083C3.56249 10.2475 3.59944 10.1924 3.646 10.1459V10.1459ZM3.646 5.85392C3.69245 5.90048 3.74762 5.93742 3.80837 5.96263C3.86911 5.98784 3.93423 6.00081 4 6.00081C4.06577 6.00081 4.13089 5.98784 4.19163 5.96263C4.25238 5.93742 4.30755 5.90048 4.354 5.85392L8 2.20692L11.646 5.85392C11.7399 5.9478 11.8672 6.00055 12 6.00055C12.1328 6.00055 12.2601 5.9478 12.354 5.85392C12.4479 5.76003 12.5006 5.63269 12.5006 5.49992C12.5006 5.36714 12.4479 5.2398 12.354 5.14592L8.354 1.14592C8.30755 1.09935 8.25238 1.06241 8.19163 1.0372C8.13089 1.012 8.06577 0.999023 8 0.999023C7.93423 0.999023 7.86911 1.012 7.80837 1.0372C7.74762 1.06241 7.69245 1.09935 7.646 1.14592L3.646 5.14592C3.59944 5.19236 3.56249 5.24754 3.53729 5.30828C3.51208 5.36903 3.49911 5.43415 3.49911 5.49992C3.49911 5.56568 3.51208 5.63081 3.53729 5.69155C3.56249 5.7523 3.59944 5.80747 3.646 5.85392V5.85392ZM1 7.99992C1 7.86731 1.05268 7.74013 1.14645 7.64636C1.24021 7.5526 1.36739 7.49992 1.5 7.49992H14.5C14.6326 7.49992 14.7598 7.5526 14.8536 7.64636C14.9473 7.74013 15 7.86731 15 7.99992C15 8.13253 14.9473 8.2597 14.8536 8.35347C14.7598 8.44724 14.6326 8.49992 14.5 8.49992H1.5C1.36739 8.49992 1.24021 8.44724 1.14645 8.35347C1.05268 8.2597 1 8.13253 1 7.99992V7.99992Z" fill="#1B1B1B"/>
</svg>
