<svg width="16" height="16" viewBox="0 0 16 16" fill="none" xmlns="http://www.w3.org/2000/svg">
<path fill-rule="evenodd" clip-rule="evenodd" d="M7.64602 4.64592C7.69247 4.59935 7.74764 4.56241 7.80839 4.5372C7.86913 4.512 7.93425 4.49902 8.00002 4.49902C8.06579 4.49902 8.13091 4.512 8.19165 4.5372C8.2524 4.56241 8.30758 4.59935 8.35402 4.64592L14.354 10.6459C14.4479 10.7398 14.5007 10.8671 14.5007 10.9999C14.5007 11.1327 14.4479 11.26 14.354 11.3539C14.2601 11.4478 14.1328 11.5005 14 11.5005C13.8672 11.5005 13.7399 11.4478 13.646 11.3539L8.00002 5.70692L2.35402 11.3539C2.26013 11.4478 2.1328 11.5005 2.00002 11.5005C1.86725 11.5005 1.73991 11.4478 1.64602 11.3539C1.55213 11.26 1.49939 11.1327 1.49939 10.9999C1.49939 10.8671 1.55213 10.7398 1.64602 10.6459L7.64602 4.64592V4.64592Z" fill="#1B1B1B"/>
</svg>
