<svg width="16" height="16" viewBox="0 0 16 16" fill="none" xmlns="http://www.w3.org/2000/svg">
<path fill-rule="evenodd" clip-rule="evenodd" d="M3.64602 11.854C3.69247 11.9006 3.74765 11.9376 3.80839 11.9628C3.86914 11.988 3.93426 12.0009 4.00002 12.0009C4.06579 12.0009 4.13091 11.988 4.19166 11.9628C4.2524 11.9376 4.30758 11.9006 4.35402 11.854L8.00002 8.20705L11.646 11.854C11.7399 11.9479 11.8672 12.0007 12 12.0007C12.1328 12.0007 12.2601 11.9479 12.354 11.854C12.4479 11.7602 12.5007 11.6328 12.5007 11.5C12.5007 11.3673 12.4479 11.2399 12.354 11.146L8.35402 7.14605C8.30758 7.09949 8.2524 7.06254 8.19166 7.03734C8.13091 7.01213 8.06579 6.99916 8.00002 6.99916C7.93426 6.99916 7.86914 7.01213 7.80839 7.03734C7.74765 7.06254 7.69247 7.09949 7.64602 7.14605L3.64602 11.146C3.59946 11.1925 3.56252 11.2477 3.53731 11.3084C3.51211 11.3692 3.49913 11.4343 3.49913 11.5C3.49913 11.5658 3.51211 11.6309 3.53731 11.6917C3.56252 11.7524 3.59946 11.8076 3.64602 11.854V11.854ZM2.40002 5.20005C2.40002 5.42005 2.58002 5.60005 2.80002 5.60005H13.2C13.3061 5.60005 13.4079 5.55791 13.4829 5.48289C13.5579 5.40788 13.6 5.30614 13.6 5.20005C13.6 5.09396 13.5579 4.99222 13.4829 4.91721C13.4079 4.84219 13.3061 4.80005 13.2 4.80005H2.80002C2.69394 4.80005 2.5922 4.84219 2.51718 4.91721C2.44217 4.99222 2.40002 5.09396 2.40002 5.20005V5.20005Z" fill="#1B1B1B"/>
</svg>
