<svg width="16" height="16" viewBox="0 0 16 16" fill="none" xmlns="http://www.w3.org/2000/svg">
<path fill-rule="evenodd" clip-rule="evenodd" d="M1.55301 6.77605C1.61242 6.65776 1.71632 6.56786 1.84191 6.52606C1.96751 6.48425 2.10456 6.49396 2.22301 6.55305L8.00001 9.44005L13.776 6.55205C13.8348 6.52203 13.8989 6.50394 13.9647 6.49882C14.0305 6.4937 14.0966 6.50166 14.1593 6.52222C14.222 6.54279 14.28 6.57557 14.33 6.61866C14.38 6.66175 14.4209 6.71431 14.4505 6.77331C14.48 6.8323 14.4976 6.89656 14.5022 6.96239C14.5069 7.02822 14.4984 7.0943 14.4773 7.15684C14.4563 7.21938 14.4231 7.27713 14.3796 7.32677C14.3361 7.3764 14.2832 7.41694 14.224 7.44605L8.22401 10.446C8.15448 10.4809 8.07778 10.499 8.00001 10.499C7.92224 10.499 7.84554 10.4809 7.77601 10.446L1.77601 7.44605C1.65772 7.38664 1.56782 7.28274 1.52602 7.15714C1.48421 7.03155 1.49392 6.8945 1.55301 6.77605V6.77605Z" fill="currentColor"/>
</svg>
