<svg width="16" height="16" viewBox="0 0 16 16" fill="none" xmlns="http://www.w3.org/2000/svg">
<path fill-rule="evenodd" clip-rule="evenodd" d="M3.646 14.8539C3.69245 14.9005 3.74762 14.9374 3.80837 14.9626C3.86911 14.9878 3.93423 15.0008 4 15.0008C4.06577 15.0008 4.13089 14.9878 4.19163 14.9626C4.25238 14.9374 4.30755 14.9005 4.354 14.8539L8 11.2069L11.646 14.8539C11.7399 14.9478 11.8672 15.0005 12 15.0005C12.1328 15.0005 12.2601 14.9478 12.354 14.8539C12.4479 14.76 12.5006 14.6327 12.5006 14.4999C12.5006 14.3671 12.4479 14.2398 12.354 14.1459L8.354 10.1459C8.30755 10.0994 8.25238 10.0624 8.19163 10.0372C8.13089 10.012 8.06577 9.99902 8 9.99902C7.93423 9.99902 7.86911 10.012 7.80837 10.0372C7.74762 10.0624 7.69245 10.0994 7.646 10.1459L3.646 14.1459C3.59944 14.1924 3.56249 14.2475 3.53729 14.3083C3.51208 14.369 3.49911 14.4341 3.49911 14.4999C3.49911 14.5657 3.51208 14.6308 3.53729 14.6916C3.56249 14.7523 3.59944 14.8075 3.646 14.8539V14.8539ZM3.646 1.14592C3.69245 1.09935 3.74762 1.06241 3.80837 1.0372C3.86911 1.012 3.93423 0.999023 4 0.999023C4.06577 0.999023 4.13089 1.012 4.19163 1.0372C4.25238 1.06241 4.30755 1.09935 4.354 1.14592L8 4.79292L11.646 1.14592C11.7399 1.05203 11.8672 0.999286 12 0.999286C12.1328 0.999286 12.2601 1.05203 12.354 1.14592C12.4479 1.2398 12.5006 1.36714 12.5006 1.49992C12.5006 1.63269 12.4479 1.76003 12.354 1.85392L8.354 5.85392C8.30755 5.90048 8.25238 5.93742 8.19163 5.96263C8.13089 5.98784 8.06577 6.00081 8 6.00081C7.93423 6.00081 7.86911 5.98784 7.80837 5.96263C7.74762 5.93742 7.69245 5.90048 7.646 5.85392L3.646 1.85392C3.59944 1.80747 3.56249 1.7523 3.53729 1.69155C3.51208 1.63081 3.49911 1.56568 3.49911 1.49992C3.49911 1.43415 3.51208 1.36903 3.53729 1.30828C3.56249 1.24754 3.59944 1.19236 3.646 1.14592V1.14592ZM1 7.99992C1 7.86731 1.05268 7.74013 1.14645 7.64636C1.24021 7.5526 1.36739 7.49992 1.5 7.49992H14.5C14.6326 7.49992 14.7598 7.5526 14.8536 7.64636C14.9473 7.74013 15 7.86731 15 7.99992C15 8.13253 14.9473 8.2597 14.8536 8.35347C14.7598 8.44724 14.6326 8.49992 14.5 8.49992H1.5C1.36739 8.49992 1.24021 8.44724 1.14645 8.35347C1.05268 8.2597 1 8.13253 1 7.99992V7.99992Z" fill="currentColor"/>
</svg>
