<svg width="16" height="16" viewBox="0 0 16 16" fill="none" xmlns="http://www.w3.org/2000/svg">
<path fill-rule="evenodd" clip-rule="evenodd" d="M1.64598 6.64592C1.69242 6.59935 1.7476 6.56241 1.80834 6.5372C1.86909 6.512 1.93421 6.49902 1.99998 6.49902C2.06575 6.49902 2.13087 6.512 2.19161 6.5372C2.25236 6.56241 2.30753 6.59935 2.35398 6.64592L7.99998 12.2929L13.646 6.64592C13.7399 6.55203 13.8672 6.49929 14 6.49929C14.1328 6.49929 14.2601 6.55203 14.354 6.64592C14.4479 6.7398 14.5006 6.86714 14.5006 6.99992C14.5006 7.13269 14.4479 7.26003 14.354 7.35392L8.35398 13.3539C8.30753 13.4005 8.25236 13.4374 8.19161 13.4626C8.13087 13.4878 8.06575 13.5008 7.99998 13.5008C7.93421 13.5008 7.86909 13.4878 7.80834 13.4626C7.7476 13.4374 7.69242 13.4005 7.64598 13.3539L1.64598 7.35392C1.59942 7.30747 1.56247 7.2523 1.53727 7.19155C1.51206 7.13081 1.49908 7.06568 1.49908 6.99992C1.49908 6.93415 1.51206 6.86903 1.53727 6.80828C1.56247 6.74754 1.59942 6.69236 1.64598 6.64592V6.64592Z" fill="#1B1B1B"/>
<path fill-rule="evenodd" clip-rule="evenodd" d="M1.64598 2.64592C1.69242 2.59935 1.7476 2.56241 1.80834 2.5372C1.86909 2.512 1.93421 2.49902 1.99998 2.49902C2.06575 2.49902 2.13087 2.512 2.19161 2.5372C2.25236 2.56241 2.30753 2.59935 2.35398 2.64592L7.99998 8.29292L13.646 2.64592C13.6925 2.59943 13.7477 2.56255 13.8084 2.53739C13.8691 2.51223 13.9342 2.49929 14 2.49929C14.0657 2.49929 14.1308 2.51223 14.1916 2.53739C14.2523 2.56255 14.3075 2.59943 14.354 2.64592C14.4005 2.69241 14.4373 2.74759 14.4625 2.80833C14.4877 2.86907 14.5006 2.93417 14.5006 2.99992C14.5006 3.06566 14.4877 3.13076 14.4625 3.1915C14.4373 3.25224 14.4005 3.30743 14.354 3.35392L8.35398 9.35392C8.30753 9.40048 8.25236 9.43742 8.19161 9.46263C8.13087 9.48784 8.06575 9.50081 7.99998 9.50081C7.93421 9.50081 7.86909 9.48784 7.80834 9.46263C7.7476 9.43742 7.69242 9.40048 7.64598 9.35392L1.64598 3.35392C1.59942 3.30747 1.56247 3.2523 1.53727 3.19155C1.51206 3.13081 1.49908 3.06568 1.49908 2.99992C1.49908 2.93415 1.51206 2.86903 1.53727 2.80828C1.56247 2.74754 1.59942 2.69236 1.64598 2.64592V2.64592Z" fill="#1B1B1B"/>
</svg>
