<svg width="16" height="16" viewBox="0 0 16 16" fill="none" xmlns="http://www.w3.org/2000/svg">
<path fill-rule="evenodd" clip-rule="evenodd" d="M3.646 4.14592C3.69245 4.09935 3.74762 4.06241 3.80837 4.0372C3.86911 4.012 3.93423 3.99902 4 3.99902C4.06577 3.99902 4.13089 4.012 4.19163 4.0372C4.25238 4.06241 4.30755 4.09935 4.354 4.14592L8 7.79292L11.646 4.14592C11.7399 4.05203 11.8672 3.99929 12 3.99929C12.1328 3.99929 12.2601 4.05203 12.354 4.14592C12.4479 4.2398 12.5006 4.36714 12.5006 4.49992C12.5006 4.63269 12.4479 4.76003 12.354 4.85392L8.354 8.85392C8.30755 8.90048 8.25238 8.93742 8.19163 8.96263C8.13089 8.98784 8.06577 9.00081 8 9.00081C7.93423 9.00081 7.86911 8.98784 7.80837 8.96263C7.74762 8.93742 7.69245 8.90048 7.646 8.85392L3.646 4.85392C3.59944 4.80747 3.56249 4.7523 3.53729 4.69155C3.51208 4.63081 3.49911 4.56568 3.49911 4.49992C3.49911 4.43415 3.51208 4.36903 3.53729 4.30828C3.56249 4.24754 3.59944 4.19236 3.646 4.14592V4.14592ZM1 11.4999C1 11.3673 1.05268 11.2401 1.14645 11.1464C1.24021 11.0526 1.36739 10.9999 1.5 10.9999H14.5C14.6326 10.9999 14.7598 11.0526 14.8536 11.1464C14.9473 11.2401 15 11.3673 15 11.4999C15 11.6325 14.9473 11.7597 14.8536 11.8535C14.7598 11.9472 14.6326 11.9999 14.5 11.9999H1.5C1.36739 11.9999 1.24021 11.9472 1.14645 11.8535C1.05268 11.7597 1 11.6325 1 11.4999V11.4999Z" fill="#1B1B1B"/>
</svg>
