<svg width="16" height="16" viewBox="0 0 16 16" fill="none" xmlns="http://www.w3.org/2000/svg">
<path fill-rule="evenodd" clip-rule="evenodd" d="M7.64602 2.64592C7.69247 2.59935 7.74764 2.56241 7.80839 2.5372C7.86913 2.512 7.93425 2.49902 8.00002 2.49902C8.06579 2.49902 8.13091 2.512 8.19165 2.5372C8.2524 2.56241 8.30758 2.59935 8.35402 2.64592L14.354 8.64592C14.4479 8.7398 14.5007 8.86714 14.5007 8.99992C14.5007 9.13269 14.4479 9.26003 14.354 9.35392C14.2601 9.4478 14.1328 9.50055 14 9.50055C13.8672 9.50055 13.7399 9.4478 13.646 9.35392L8.00002 3.70692L2.35402 9.35392C2.26013 9.4478 2.1328 9.50055 2.00002 9.50055C1.86725 9.50055 1.73991 9.4478 1.64602 9.35392C1.55213 9.26003 1.49939 9.13269 1.49939 8.99992C1.49939 8.86714 1.55213 8.7398 1.64602 8.64592L7.64602 2.64592V2.64592Z" fill="currentColor"/>
<path fill-rule="evenodd" clip-rule="evenodd" d="M7.64602 6.64592C7.69247 6.59935 7.74764 6.56241 7.80839 6.5372C7.86913 6.512 7.93425 6.49902 8.00002 6.49902C8.06579 6.49902 8.13091 6.512 8.19165 6.5372C8.2524 6.56241 8.30758 6.59935 8.35402 6.64592L14.354 12.6459C14.4479 12.7398 14.5007 12.8671 14.5007 12.9999C14.5007 13.1327 14.4479 13.26 14.354 13.3539C14.2601 13.4478 14.1328 13.5005 14 13.5005C13.8672 13.5005 13.7399 13.4478 13.646 13.3539L8.00002 7.70692L2.35402 13.3539C2.26013 13.4478 2.1328 13.5005 2.00002 13.5005C1.86725 13.5005 1.73991 13.4478 1.64602 13.3539C1.55213 13.26 1.49939 13.1327 1.49939 12.9999C1.49939 12.8671 1.55213 12.7398 1.64602 12.6459L7.64602 6.64592V6.64592Z" fill="currentColor"/>
</svg>
