<svg width="16" height="16" viewBox="0 0 16 16" fill="none" xmlns="http://www.w3.org/2000/svg">
<path fill-rule="evenodd" clip-rule="evenodd" d="M6.77603 1.55298C6.89458 1.49358 7.03187 1.4837 7.15771 1.52552C7.28354 1.56734 7.38761 1.65743 7.44703 1.77598L10.447 7.77598C10.4819 7.84551 10.5 7.92221 10.5 7.99998C10.5 8.07775 10.4819 8.15445 10.447 8.22398L7.44703 14.224C7.41792 14.2832 7.37738 14.3361 7.32774 14.3796C7.27811 14.423 7.22036 14.4563 7.15782 14.4773C7.09528 14.4984 7.02919 14.5068 6.96337 14.5022C6.89754 14.4976 6.83328 14.48 6.77428 14.4505C6.71529 14.4209 6.66273 14.3799 6.61964 14.33C6.57654 14.28 6.54377 14.222 6.5232 14.1593C6.50263 14.0966 6.49468 14.0304 6.4998 13.9647C6.50492 13.8989 6.52301 13.8347 6.55303 13.776L9.44003 7.99998L6.55303 2.22398C6.49362 2.10543 6.48374 1.96813 6.52556 1.8423C6.56738 1.71646 6.65748 1.61239 6.77603 1.55298V1.55298Z" fill="#1B1B1B"/>
</svg>
