<svg width="16" height="16" viewBox="0 0 16 16" fill="none" xmlns="http://www.w3.org/2000/svg">
<path fill-rule="evenodd" clip-rule="evenodd" d="M3.64598 1.64592C3.69242 1.59935 3.7476 1.56241 3.80834 1.5372C3.86909 1.512 3.93421 1.49902 3.99998 1.49902C4.06575 1.49902 4.13087 1.512 4.19161 1.5372C4.25236 1.56241 4.30753 1.59935 4.35398 1.64592L10.354 7.64592C10.4005 7.69236 10.4375 7.74754 10.4627 7.80828C10.4879 7.86903 10.5009 7.93415 10.5009 7.99992C10.5009 8.06568 10.4879 8.13081 10.4627 8.19155C10.4375 8.2523 10.4005 8.30747 10.354 8.35392L4.35398 14.3539C4.26009 14.4478 4.13275 14.5005 3.99998 14.5005C3.8672 14.5005 3.73986 14.4478 3.64598 14.3539C3.55209 14.26 3.49935 14.1327 3.49935 13.9999C3.49935 13.8671 3.55209 13.7398 3.64598 13.6459L9.29298 7.99992L3.64598 2.35392C3.59941 2.30747 3.56247 2.2523 3.53727 2.19155C3.51206 2.13081 3.49908 2.06568 3.49908 1.99992C3.49908 1.93415 3.51206 1.86903 3.53727 1.80828C3.56247 1.74754 3.59941 1.69236 3.64598 1.64592V1.64592Z" fill="#1B1B1B"/>
<path fill-rule="evenodd" clip-rule="evenodd" d="M7.64598 1.64592C7.69242 1.59935 7.7476 1.56241 7.80834 1.5372C7.86909 1.512 7.93421 1.49902 7.99998 1.49902C8.06575 1.49902 8.13087 1.512 8.19161 1.5372C8.25236 1.56241 8.30753 1.59935 8.35398 1.64592L14.354 7.64592C14.4005 7.69236 14.4375 7.74754 14.4627 7.80828C14.4879 7.86903 14.5009 7.93415 14.5009 7.99992C14.5009 8.06568 14.4879 8.13081 14.4627 8.19155C14.4375 8.2523 14.4005 8.30747 14.354 8.35392L8.35398 14.3539C8.26009 14.4478 8.13275 14.5005 7.99998 14.5005C7.8672 14.5005 7.73986 14.4478 7.64598 14.3539C7.55209 14.26 7.49935 14.1327 7.49935 13.9999C7.49935 13.8671 7.55209 13.7398 7.64598 13.6459L13.293 7.99992L7.64598 2.35392C7.59941 2.30747 7.56247 2.2523 7.53727 2.19155C7.51206 2.13081 7.49908 2.06568 7.49908 1.99992C7.49908 1.93415 7.51206 1.86903 7.53727 1.80828C7.56247 1.74754 7.59941 1.69236 7.64598 1.64592V1.64592Z" fill="#1B1B1B"/>
</svg>
