<svg width="16" height="16" viewBox="0 0 16 16" fill="none" xmlns="http://www.w3.org/2000/svg">
<path fill-rule="evenodd" clip-rule="evenodd" d="M3.64598 13.8539C3.69242 13.9005 3.7476 13.9374 3.80834 13.9626C3.86909 13.9878 3.93421 14.0008 3.99998 14.0008C4.06575 14.0008 4.13087 13.9878 4.19161 13.9626C4.25236 13.9374 4.30753 13.9005 4.35398 13.8539L7.99998 10.2069L11.646 13.8539C11.7399 13.9478 11.8672 14.0005 12 14.0005C12.1328 14.0005 12.2601 13.9478 12.354 13.8539C12.4479 13.76 12.5006 13.6327 12.5006 13.4999C12.5006 13.3671 12.4479 13.2398 12.354 13.1459L8.35398 9.14592C8.30753 9.09935 8.25236 9.06241 8.19161 9.0372C8.13087 9.012 8.06575 8.99902 7.99998 8.99902C7.93421 8.99902 7.86909 9.012 7.80834 9.0372C7.7476 9.06241 7.69242 9.09935 7.64598 9.14592L3.64598 13.1459C3.59941 13.1924 3.56247 13.2475 3.53727 13.3083C3.51206 13.369 3.49908 13.4341 3.49908 13.4999C3.49908 13.5657 3.51206 13.6308 3.53727 13.6916C3.56247 13.7523 3.59941 13.8075 3.64598 13.8539V13.8539ZM3.64598 2.14592C3.69242 2.09935 3.7476 2.06241 3.80834 2.0372C3.86909 2.012 3.93421 1.99902 3.99998 1.99902C4.06575 1.99902 4.13087 2.012 4.19161 2.0372C4.25236 2.06241 4.30753 2.09935 4.35398 2.14592L7.99998 5.79292L11.646 2.14592C11.7399 2.05203 11.8672 1.99929 12 1.99929C12.1328 1.99929 12.2601 2.05203 12.354 2.14592C12.4479 2.2398 12.5006 2.36714 12.5006 2.49992C12.5006 2.63269 12.4479 2.76003 12.354 2.85392L8.35398 6.85392C8.30753 6.90048 8.25236 6.93742 8.19161 6.96263C8.13087 6.98784 8.06575 7.00081 7.99998 7.00081C7.93421 7.00081 7.86909 6.98784 7.80834 6.96263C7.7476 6.93742 7.69242 6.90048 7.64598 6.85392L3.64598 2.85392C3.59941 2.80747 3.56247 2.7523 3.53727 2.69155C3.51206 2.63081 3.49908 2.56568 3.49908 2.49992C3.49908 2.43415 3.51206 2.36903 3.53727 2.30828C3.56247 2.24754 3.59941 2.19236 3.64598 2.14592V2.14592Z" fill="#1B1B1B"/>
</svg>
