<svg width="16" height="16" viewBox="0 0 16 16" fill="none" xmlns="http://www.w3.org/2000/svg">
<path fill-rule="evenodd" clip-rule="evenodd" d="M6.14592 7.14592C6.19236 7.09935 6.24754 7.06241 6.30828 7.0372C6.36903 7.012 6.43415 6.99902 6.49992 6.99902C6.56568 6.99902 6.63081 7.012 6.69155 7.0372C6.7523 7.06241 6.80747 7.09935 6.85392 7.14592L7.99992 8.29292L9.14592 7.14592C9.2398 7.05203 9.36714 6.99929 9.49992 6.99929C9.63269 6.99929 9.76003 7.05203 9.85392 7.14592C9.9478 7.2398 10.0005 7.36714 10.0005 7.49992C10.0005 7.63269 9.9478 7.76003 9.85392 7.85392L8.70692 8.99992L9.85392 10.1459C9.9478 10.2398 10.0005 10.3671 10.0005 10.4999C10.0005 10.6327 9.9478 10.76 9.85392 10.8539C9.76003 10.9478 9.63269 11.0005 9.49992 11.0005C9.36714 11.0005 9.2398 10.9478 9.14592 10.8539L7.99992 9.70692L6.85392 10.8539C6.76003 10.9478 6.63269 11.0005 6.49992 11.0005C6.36714 11.0005 6.2398 10.9478 6.14592 10.8539C6.05203 10.76 5.99929 10.6327 5.99929 10.4999C5.99929 10.3671 6.05203 10.2398 6.14592 10.1459L7.29292 8.99992L6.14592 7.85392C6.09935 7.80747 6.06241 7.7523 6.0372 7.69155C6.012 7.63081 5.99902 7.56568 5.99902 7.49992C5.99902 7.43415 6.012 7.36903 6.0372 7.30828C6.06241 7.24754 6.09935 7.19236 6.14592 7.14592Z" fill="#1B1B1B"/>
<path d="M4 1.5H3C2.46957 1.5 1.96086 1.71071 1.58579 2.08579C1.21071 2.46086 1 2.96957 1 3.5V14C1 14.5304 1.21071 15.0391 1.58579 15.4142C1.96086 15.7893 2.46957 16 3 16H13C13.5304 16 14.0391 15.7893 14.4142 15.4142C14.7893 15.0391 15 14.5304 15 14V3.5C15 2.96957 14.7893 2.46086 14.4142 2.08579C14.0391 1.71071 13.5304 1.5 13 1.5H12V2.5H13C13.2652 2.5 13.5196 2.60536 13.7071 2.79289C13.8946 2.98043 14 3.23478 14 3.5V14C14 14.2652 13.8946 14.5196 13.7071 14.7071C13.5196 14.8946 13.2652 15 13 15H3C2.73478 15 2.48043 14.8946 2.29289 14.7071C2.10536 14.5196 2 14.2652 2 14V3.5C2 3.23478 2.10536 2.98043 2.29289 2.79289C2.48043 2.60536 2.73478 2.5 3 2.5H4V1.5Z" fill="#1B1B1B"/>
<path d="M9.5 1C9.63261 1 9.75979 1.05268 9.85355 1.14645C9.94732 1.24021 10 1.36739 10 1.5V2.5C10 2.63261 9.94732 2.75979 9.85355 2.85355C9.75979 2.94732 9.63261 3 9.5 3H6.5C6.36739 3 6.24021 2.94732 6.14645 2.85355C6.05268 2.75979 6 2.63261 6 2.5V1.5C6 1.36739 6.05268 1.24021 6.14645 1.14645C6.24021 1.05268 6.36739 1 6.5 1H9.5ZM6.5 0C6.10218 0 5.72064 0.158035 5.43934 0.43934C5.15804 0.720644 5 1.10218 5 1.5V2.5C5 2.89782 5.15804 3.27936 5.43934 3.56066C5.72064 3.84196 6.10218 4 6.5 4H9.5C9.89782 4 10.2794 3.84196 10.5607 3.56066C10.842 3.27936 11 2.89782 11 2.5V1.5C11 1.10218 10.842 0.720644 10.5607 0.43934C10.2794 0.158035 9.89782 0 9.5 0L6.5 0Z" fill="#1B1B1B"/>
</svg>
