<svg width="16" height="16" viewBox="0 0 16 16" fill="none" xmlns="http://www.w3.org/2000/svg">
<path d="M9.5 0C9.63261 0 9.75979 0.0526784 9.85355 0.146447C9.94732 0.240215 10 0.367392 10 0.5C10 0.632608 10.0527 0.759785 10.1464 0.853553C10.2402 0.947322 10.3674 1 10.5 1C10.6326 1 10.7598 1.05268 10.8536 1.14645C10.9473 1.24021 11 1.36739 11 1.5V2C11 2.13261 10.9473 2.25979 10.8536 2.35355C10.7598 2.44732 10.6326 2.5 10.5 2.5H5.5C5.36739 2.5 5.24021 2.44732 5.14645 2.35355C5.05268 2.25979 5 2.13261 5 2V1.5C5 1.36739 5.05268 1.24021 5.14645 1.14645C5.24021 1.05268 5.36739 1 5.5 1C5.63261 1 5.75979 0.947322 5.85355 0.853553C5.94732 0.759785 6 0.632608 6 0.5C6 0.367392 6.05268 0.240215 6.14645 0.146447C6.24021 0.0526784 6.36739 0 6.5 0L9.5 0Z" fill="#1B1B1B"/>
<path d="M3 2.5C3 2.36739 3.05268 2.24021 3.14645 2.14645C3.24021 2.05268 3.36739 2 3.5 2H4C4.13261 2 4.25979 1.94732 4.35355 1.85355C4.44732 1.75979 4.5 1.63261 4.5 1.5C4.5 1.36739 4.44732 1.24021 4.35355 1.14645C4.25979 1.05268 4.13261 1 4 1H3.5C3.10218 1 2.72064 1.15804 2.43934 1.43934C2.15804 1.72064 2 2.10218 2 2.5V14.5C2 14.8978 2.15804 15.2794 2.43934 15.5607C2.72064 15.842 3.10218 16 3.5 16H12.5C12.8978 16 13.2794 15.842 13.5607 15.5607C13.842 15.2794 14 14.8978 14 14.5V2.5C14 2.10218 13.842 1.72064 13.5607 1.43934C13.2794 1.15804 12.8978 1 12.5 1H12C11.8674 1 11.7402 1.05268 11.6464 1.14645C11.5527 1.24021 11.5 1.36739 11.5 1.5C11.5 1.63261 11.5527 1.75979 11.6464 1.85355C11.7402 1.94732 11.8674 2 12 2H12.5C12.6326 2 12.7598 2.05268 12.8536 2.14645C12.9473 2.24021 13 2.36739 13 2.5V14.5C13 14.6326 12.9473 14.7598 12.8536 14.8536C12.7598 14.9473 12.6326 15 12.5 15H3.5C3.36739 15 3.24021 14.9473 3.14645 14.8536C3.05268 14.7598 3 14.6326 3 14.5V2.5Z" fill="#1B1B1B"/>
<path d="M9.979 5.35599C9.94707 5.24963 9.88064 5.15693 9.79019 5.0925C9.69975 5.02808 9.59042 4.9956 9.47947 5.00018C9.36852 5.00477 9.26225 5.04616 9.17742 5.11783C9.0926 5.18949 9.03405 5.28736 9.011 5.39599L7.92 10.49L6.98 7.35499C6.9512 7.25907 6.89425 7.17401 6.81654 7.11083C6.73883 7.04764 6.64394 7.00926 6.54416 7.00064C6.44438 6.99202 6.34431 7.01356 6.25691 7.06248C6.16952 7.11139 6.09883 7.18543 6.054 7.27499L4.69 9.99999H4.5C4.36739 9.99999 4.24021 10.0527 4.14645 10.1464C4.05268 10.2402 4 10.3674 4 10.5C4 10.6326 4.05268 10.7598 4.14645 10.8535C4.24021 10.9473 4.36739 11 4.5 11H5C5.09278 11 5.18373 10.9742 5.26267 10.9254C5.34161 10.8767 5.40544 10.8069 5.447 10.724L6.383 8.85099L7.521 12.644C7.55293 12.7503 7.61936 12.8431 7.70981 12.9075C7.80025 12.9719 7.90958 13.0044 8.02053 12.9998C8.13148 12.9952 8.23775 12.9538 8.32258 12.8822C8.4074 12.8105 8.46595 12.7126 8.489 12.604L9.58 7.50999L10.52 10.645C10.5512 10.7479 10.6147 10.838 10.7012 10.902C10.7877 10.9659 10.8925 11.0003 11 11H11.5C11.6326 11 11.7598 10.9473 11.8536 10.8535C11.9473 10.7598 12 10.6326 12 10.5C12 10.3674 11.9473 10.2402 11.8536 10.1464C11.7598 10.0527 11.6326 9.99999 11.5 9.99999H11.372L9.979 5.35599Z" fill="#1B1B1B"/>
</svg>
