<svg width="16" height="16" viewBox="0 0 16 16" fill="none" xmlns="http://www.w3.org/2000/svg">
<path d="M3.5 2C3.36739 2 3.24021 2.05268 3.14645 2.14645C3.05268 2.24021 3 2.36739 3 2.5V14.5C3 14.6326 3.05268 14.7598 3.14645 14.8536C3.24021 14.9473 3.36739 15 3.5 15H12.5C12.6326 15 12.7598 14.9473 12.8536 14.8536C12.9473 14.7598 13 14.6326 13 14.5V2.5C13 2.36739 12.9473 2.24021 12.8536 2.14645C12.7598 2.05268 12.6326 2 12.5 2H12C11.8674 2 11.7402 1.94732 11.6464 1.85355C11.5527 1.75979 11.5 1.63261 11.5 1.5C11.5 1.36739 11.5527 1.24021 11.6464 1.14645C11.7402 1.05268 11.8674 1 12 1H12.5C12.8978 1 13.2794 1.15804 13.5607 1.43934C13.842 1.72064 14 2.10218 14 2.5V14.5C14 14.8978 13.842 15.2794 13.5607 15.5607C13.2794 15.842 12.8978 16 12.5 16H3.5C3.10218 16 2.72064 15.842 2.43934 15.5607C2.15804 15.2794 2 14.8978 2 14.5V2.5C2 2.10218 2.15804 1.72064 2.43934 1.43934C2.72064 1.15804 3.10218 1 3.5 1H4C4.13261 1 4.25979 1.05268 4.35355 1.14645C4.44732 1.24021 4.5 1.36739 4.5 1.5C4.5 1.63261 4.44732 1.75979 4.35355 1.85355C4.25979 1.94732 4.13261 2 4 2H3.5Z" fill="#1B1B1B"/>
<path d="M10 0.5C10 0.367392 9.94732 0.240215 9.85355 0.146447C9.75979 0.0526784 9.63261 0 9.5 0L6.5 0C6.36739 0 6.24021 0.0526784 6.14645 0.146447C6.05268 0.240215 6 0.367392 6 0.5C6 0.632608 5.94732 0.759785 5.85355 0.853553C5.75979 0.947322 5.63261 1 5.5 1C5.36739 1 5.24021 1.05268 5.14645 1.14645C5.05268 1.24021 5 1.36739 5 1.5V2C5 2.13261 5.05268 2.25979 5.14645 2.35355C5.24021 2.44732 5.36739 2.5 5.5 2.5H10.5C10.6326 2.5 10.7598 2.44732 10.8536 2.35355C10.9473 2.25979 11 2.13261 11 2V1.5C11 1.36739 10.9473 1.24021 10.8536 1.14645C10.7598 1.05268 10.6326 1 10.5 1C10.3674 1 10.2402 0.947322 10.1464 0.853553C10.0527 0.759785 10 0.632608 10 0.5V0.5Z" fill="#1B1B1B"/>
</svg>
