<svg width="16" height="16" viewBox="0 0 16 16" fill="none" xmlns="http://www.w3.org/2000/svg">
<path fill-rule="evenodd" clip-rule="evenodd" d="M10.058 0.501C10.058 0.3683 10.0053 0.24102 9.91158 0.147093C9.81784 0.0531655 9.69066 0.000264871 9.55796 0L6.57796 0C6.30196 0 6.07796 0.225 6.07796 0.501C6.07796 0.632825 6.0258 0.759295 5.93287 0.85279C5.83994 0.946285 5.71378 0.999207 5.58196 1C5.45015 1 5.32373 1.05236 5.23053 1.14557C5.13732 1.23877 5.08496 1.36519 5.08496 1.497V2C5.08496 2.13261 5.13764 2.25979 5.23141 2.35355C5.32518 2.44732 5.45235 2.5 5.58496 2.5H10.553C10.6856 2.5 10.8127 2.44732 10.9065 2.35355C11.0003 2.25979 11.053 2.13261 11.053 2V1.497C11.053 1.43165 11.0401 1.36694 11.015 1.30658C10.99 1.24621 10.9533 1.19138 10.907 1.14521C10.8608 1.09905 10.8059 1.06246 10.7455 1.03754C10.685 1.01263 10.6203 0.999869 10.555 1C10.423 0.999471 10.2966 0.946664 10.2034 0.853141C10.1103 0.759618 10.058 0.632997 10.058 0.501V0.501Z" fill="currentColor"/>
<path fill-rule="evenodd" clip-rule="evenodd" d="M4.174 1H3.604C3.20618 1 2.82465 1.15804 2.54334 1.43934C2.26204 1.72064 2.104 2.10218 2.104 2.5V14.5C2.104 14.8978 2.26204 15.2794 2.54334 15.5607C2.82465 15.842 3.20618 16 3.604 16H12.604C13.0018 16 13.3834 15.842 13.6647 15.5607C13.946 15.2794 14.104 14.8978 14.104 14.5V2.5C14.104 2.10218 13.946 1.72064 13.6647 1.43934C13.3834 1.15804 13.0018 1 12.604 1H11.962C12.017 1.156 12.047 1.325 12.047 1.5V2C12.047 2.828 11.379 3.5 10.555 3.5H5.581C5.18441 3.49868 4.80458 3.33993 4.52499 3.05865C4.2454 2.77738 4.08894 2.39659 4.09 2V1.5C4.09 1.325 4.12 1.156 4.175 1H4.174ZM8.068 6.482C9.724 4.809 13.863 7.736 8.068 11.5C2.273 7.736 6.412 4.81 8.068 6.482Z" fill="currentColor"/>
</svg>
