<svg width="16" height="16" viewBox="0 0 16 16" fill="none" xmlns="http://www.w3.org/2000/svg">
<path d="M6.5 0C6.10218 0 5.72064 0.158035 5.43934 0.43934C5.15804 0.720644 5 1.10218 5 1.5V2.5C5 2.89782 5.15804 3.27936 5.43934 3.56066C5.72064 3.84196 6.10218 4 6.5 4H9.5C9.89782 4 10.2794 3.84196 10.5607 3.56066C10.842 3.27936 11 2.89782 11 2.5V1.5C11 1.10218 10.842 0.720644 10.5607 0.43934C10.2794 0.158035 9.89782 0 9.5 0L6.5 0ZM9.5 1C9.63261 1 9.75979 1.05268 9.85355 1.14645C9.94732 1.24021 10 1.36739 10 1.5V2.5C10 2.63261 9.94732 2.75979 9.85355 2.85355C9.75979 2.94732 9.63261 3 9.5 3H6.5C6.36739 3 6.24021 2.94732 6.14645 2.85355C6.05268 2.75979 6 2.63261 6 2.5V1.5C6 1.36739 6.05268 1.24021 6.14645 1.14645C6.24021 1.05268 6.36739 1 6.5 1H9.5Z" fill="#1B1B1B"/>
<path d="M4 1.5H3C2.46957 1.5 1.96086 1.71071 1.58579 2.08579C1.21071 2.46086 1 2.96957 1 3.5V14C1 14.5304 1.21071 15.0391 1.58579 15.4142C1.96086 15.7893 2.46957 16 3 16H13C13.5304 16 14.0391 15.7893 14.4142 15.4142C14.7893 15.0391 15 14.5304 15 14V3.5C15 2.96957 14.7893 2.46086 14.4142 2.08579C14.0391 1.71071 13.5304 1.5 13 1.5H12V2.5C12 2.8283 11.9353 3.15339 11.8097 3.45671C11.6841 3.76002 11.4999 4.03562 11.2678 4.26777C11.0356 4.49991 10.76 4.68406 10.4567 4.8097C10.1534 4.93534 9.8283 5 9.5 5H6.5C5.83696 5 5.20107 4.73661 4.73223 4.26777C4.26339 3.79893 4 3.16304 4 2.5V1.5ZM8 9.293L9.146 8.146C9.23989 8.05211 9.36722 7.99937 9.5 7.99937C9.63278 7.99937 9.76011 8.05211 9.854 8.146C9.94789 8.23989 10.0006 8.36722 10.0006 8.5C10.0006 8.63278 9.94789 8.76011 9.854 8.854L8.707 10L9.854 11.146C9.94789 11.2399 10.0006 11.3672 10.0006 11.5C10.0006 11.6328 9.94789 11.7601 9.854 11.854C9.76011 11.9479 9.63278 12.0006 9.5 12.0006C9.36722 12.0006 9.23989 11.9479 9.146 11.854L8 10.707L6.854 11.854C6.76011 11.9479 6.63278 12.0006 6.5 12.0006C6.36722 12.0006 6.23989 11.9479 6.146 11.854C6.05211 11.7601 5.99937 11.6328 5.99937 11.5C5.99937 11.3672 6.05211 11.2399 6.146 11.146L7.293 10L6.146 8.854C6.09951 8.80751 6.06264 8.75232 6.03748 8.69158C6.01232 8.63084 5.99937 8.56574 5.99937 8.5C5.99937 8.43426 6.01232 8.36916 6.03748 8.30842C6.06264 8.24768 6.09951 8.19249 6.146 8.146C6.19249 8.09951 6.24768 8.06264 6.30842 8.03748C6.36916 8.01232 6.43426 7.99937 6.5 7.99937C6.56574 7.99937 6.63084 8.01232 6.69158 8.03748C6.75232 8.06264 6.80751 8.09951 6.854 8.146L8 9.293Z" fill="#1B1B1B"/>
</svg>
