<svg width="16" height="16" viewBox="0 0 16 16" fill="none" xmlns="http://www.w3.org/2000/svg">
<path d="M10 0.5C10 0.367392 9.94732 0.240215 9.85355 0.146447C9.75979 0.0526784 9.63261 0 9.5 0L6.5 0C6.36739 0 6.24021 0.0526784 6.14645 0.146447C6.05268 0.240215 6 0.367392 6 0.5C6 0.632608 5.94732 0.759785 5.85355 0.853553C5.75979 0.947322 5.63261 1 5.5 1C5.36739 1 5.24021 1.05268 5.14645 1.14645C5.05268 1.24021 5 1.36739 5 1.5V2C5 2.13261 5.05268 2.25979 5.14645 2.35355C5.24021 2.44732 5.36739 2.5 5.5 2.5H10.5C10.6326 2.5 10.7598 2.44732 10.8536 2.35355C10.9473 2.25979 11 2.13261 11 2V1.5C11 1.36739 10.9473 1.24021 10.8536 1.14645C10.7598 1.05268 10.6326 1 10.5 1C10.3674 1 10.2402 0.947322 10.1464 0.853553C10.0527 0.759785 10 0.632608 10 0.5V0.5Z" fill="currentColor"/>
<path d="M4.085 1H3.5C3.10218 1 2.72064 1.15804 2.43934 1.43934C2.15804 1.72064 2 2.10218 2 2.5V14.5C2 14.8978 2.15804 15.2794 2.43934 15.5607C2.72064 15.842 3.10218 16 3.5 16H12.5C12.8978 16 13.2794 15.842 13.5607 15.5607C13.842 15.2794 14 14.8978 14 14.5V2.5C14 2.10218 13.842 1.72064 13.5607 1.43934C13.2794 1.15804 12.8978 1 12.5 1H11.915C11.97 1.156 12 1.325 12 1.5V2C12 2.39782 11.842 2.77936 11.5607 3.06066C11.2794 3.34196 10.8978 3.5 10.5 3.5H5.5C5.10218 3.5 4.72064 3.34196 4.43934 3.06066C4.15804 2.77936 4 2.39782 4 2V1.5C4 1.325 4.03 1.156 4.085 1ZM9.98 5.356L11.372 10H11.5C11.6326 10 11.7598 10.0527 11.8536 10.1464C11.9473 10.2402 12 10.3674 12 10.5C12 10.6326 11.9473 10.7598 11.8536 10.8536C11.7598 10.9473 11.6326 11 11.5 11H11C10.8925 11 10.7878 10.9654 10.7016 10.9013C10.6153 10.8372 10.552 10.7469 10.521 10.644L9.581 7.509L8.489 12.605C8.46583 12.7136 8.40717 12.8114 8.32228 12.8829C8.23738 12.9545 8.13108 12.9958 8.02014 13.0002C7.9092 13.0047 7.79992 12.9721 7.70954 12.9076C7.61917 12.8431 7.55283 12.7504 7.521 12.644L6.383 8.85L5.447 10.723C5.40557 10.8061 5.34181 10.8761 5.26286 10.925C5.1839 10.9739 5.09288 10.9999 5 11H4.5C4.36739 11 4.24021 10.9473 4.14645 10.8536C4.05268 10.7598 4 10.6326 4 10.5C4 10.3674 4.05268 10.2402 4.14645 10.1464C4.24021 10.0527 4.36739 10 4.5 10H4.691L6.053 7.276C6.09783 7.18644 6.16852 7.1124 6.25591 7.06349C6.34331 7.01457 6.44338 6.99303 6.54316 7.00165C6.64294 7.01027 6.73783 7.04865 6.81554 7.11183C6.89325 7.17502 6.9502 7.26008 6.979 7.356L7.919 10.491L9.011 5.395C9.03417 5.28641 9.09283 5.18863 9.17772 5.11706C9.26262 5.0455 9.36892 5.00423 9.47986 4.99976C9.5908 4.99529 9.70008 5.02787 9.79046 5.09237C9.88083 5.15688 9.94717 5.24963 9.979 5.356H9.98Z" fill="currentColor"/>
</svg>
