<svg width="16" height="16" viewBox="0 0 16 16" fill="none" xmlns="http://www.w3.org/2000/svg">
<path d="M6.5 0C6.10218 0 5.72064 0.158035 5.43934 0.43934C5.15804 0.720644 5 1.10218 5 1.5V2.5C5 2.89782 5.15804 3.27936 5.43934 3.56066C5.72064 3.84196 6.10218 4 6.5 4H9.5C9.89782 4 10.2794 3.84196 10.5607 3.56066C10.842 3.27936 11 2.89782 11 2.5V1.5C11 1.10218 10.842 0.720644 10.5607 0.43934C10.2794 0.158035 9.89782 0 9.5 0L6.5 0ZM9.5 1C9.63261 1 9.75979 1.05268 9.85355 1.14645C9.94732 1.24021 10 1.36739 10 1.5V2.5C10 2.63261 9.94732 2.75979 9.85355 2.85355C9.75979 2.94732 9.63261 3 9.5 3H6.5C6.36739 3 6.24021 2.94732 6.14645 2.85355C6.05268 2.75979 6 2.63261 6 2.5V1.5C6 1.36739 6.05268 1.24021 6.14645 1.14645C6.24021 1.05268 6.36739 1 6.5 1H9.5Z" fill="currentColor"/>
<path d="M4 1.5H3C2.46957 1.5 1.96086 1.71071 1.58579 2.08579C1.21071 2.46086 1 2.96957 1 3.5V14C1 14.5304 1.21071 15.0391 1.58579 15.4142C1.96086 15.7893 2.46957 16 3 16H13C13.5304 16 14.0391 15.7893 14.4142 15.4142C14.7893 15.0391 15 14.5304 15 14V3.5C15 2.96957 14.7893 2.46086 14.4142 2.08579C14.0391 1.71071 13.5304 1.5 13 1.5H12V2.5C12 2.8283 11.9353 3.15339 11.8097 3.45671C11.6841 3.76002 11.4999 4.03562 11.2678 4.26777C11.0356 4.49991 10.76 4.68406 10.4567 4.8097C10.1534 4.93534 9.8283 5 9.5 5H6.5C5.83696 5 5.20107 4.73661 4.73223 4.26777C4.26339 3.79893 4 3.16304 4 2.5V1.5ZM10.854 8.854L7.854 11.854C7.80755 11.9006 7.75238 11.9375 7.69163 11.9627C7.63089 11.9879 7.56577 12.0009 7.5 12.0009C7.43423 12.0009 7.36911 11.9879 7.30837 11.9627C7.24762 11.9375 7.19245 11.9006 7.146 11.854L5.646 10.354C5.55211 10.2601 5.49937 10.1328 5.49937 10C5.49937 9.86722 5.55211 9.73989 5.646 9.646C5.73989 9.55211 5.86722 9.49937 6 9.49937C6.13278 9.49937 6.26011 9.55211 6.354 9.646L7.5 10.793L10.146 8.146C10.2399 8.05211 10.3672 7.99937 10.5 7.99937C10.6328 7.99937 10.7601 8.05211 10.854 8.146C10.9479 8.23989 11.0006 8.36722 11.0006 8.5C11.0006 8.63278 10.9479 8.76011 10.854 8.854V8.854Z" fill="currentColor"/>
</svg>
