<svg width="16" height="16" viewBox="0 0 16 16" fill="none" xmlns="http://www.w3.org/2000/svg">
<g clip-path="url(#clip0_1419_1210)">
<path d="M2.65792 11.0259C2.78358 11.0679 2.88743 11.158 2.94668 11.2765C3.00593 11.395 3.01573 11.5322 2.97392 11.6579L2.47392 13.1579C2.45509 13.2225 2.42343 13.2826 2.38082 13.3346C2.33822 13.3867 2.28555 13.4296 2.22598 13.4608C2.1664 13.492 2.10114 13.5109 2.0341 13.5163C1.96706 13.5217 1.89962 13.5135 1.83581 13.4923C1.772 13.471 1.71314 13.4371 1.66275 13.3925C1.61236 13.348 1.57148 13.2937 1.54255 13.233C1.51361 13.1723 1.49723 13.1064 1.49437 13.0392C1.49152 12.972 1.50225 12.9049 1.52592 12.8419L2.02592 11.3419C2.06791 11.2163 2.15805 11.1124 2.27654 11.0532C2.39504 10.9939 2.53221 10.9841 2.65792 11.0259V11.0259ZM12.1579 11.0259C12.2836 11.0679 12.3874 11.158 12.4467 11.2765C12.5059 11.395 12.5157 11.5322 12.4739 11.6579L11.9739 13.1579C11.9284 13.279 11.8377 13.3777 11.721 13.4333C11.6043 13.4889 11.4705 13.4972 11.3478 13.4563C11.2251 13.4154 11.1231 13.3285 11.063 13.214C11.003 13.0994 10.9897 12.9661 11.0259 12.8419L11.5259 11.3419C11.5679 11.2163 11.658 11.1124 11.7765 11.0532C11.895 10.9939 12.0322 10.9841 12.1579 11.0259V11.0259ZM4.65792 12.5259C4.78358 12.5679 4.88743 12.658 4.94668 12.7765C5.00593 12.895 5.01573 13.0322 4.97392 13.1579L4.47392 14.6579C4.45509 14.7225 4.42342 14.7826 4.38082 14.8346C4.33822 14.8867 4.28555 14.9296 4.22598 14.9608C4.1664 14.992 4.10114 15.0109 4.0341 15.0163C3.96706 15.0217 3.89962 15.0135 3.83581 14.9923C3.772 14.971 3.71314 14.9371 3.66275 14.8925C3.61236 14.848 3.57148 14.7937 3.54255 14.733C3.51361 14.6723 3.49723 14.6064 3.49437 14.5392C3.49152 14.472 3.50225 14.4049 3.52592 14.3419L4.02592 12.8419C4.06791 12.7163 4.15805 12.6124 4.27654 12.5532C4.39504 12.4939 4.53221 12.4841 4.65792 12.5259V12.5259ZM14.1579 12.5259C14.2836 12.5679 14.3874 12.658 14.4467 12.7765C14.5059 12.895 14.5157 13.0322 14.4739 13.1579L13.9739 14.6579C13.9284 14.779 13.8377 14.8777 13.721 14.9333C13.6043 14.9889 13.4705 14.9972 13.3478 14.9563C13.2251 14.9154 13.1231 14.8285 13.063 14.714C13.003 14.5994 12.9897 14.4661 13.0259 14.3419L13.5259 12.8419C13.5679 12.7163 13.658 12.6124 13.7765 12.5532C13.895 12.4939 14.0322 12.4841 14.1579 12.5259V12.5259ZM7.05292 11.2759C7.09449 11.193 7.15831 11.1232 7.23725 11.0745C7.3162 11.0257 7.40714 10.9999 7.49992 10.9999H8.49992C8.57911 11 8.65714 11.0188 8.72761 11.055C8.79808 11.0911 8.85896 11.1434 8.90524 11.2077C8.95152 11.2719 8.98189 11.3462 8.99383 11.4245C9.00577 11.5028 8.99894 11.5828 8.97392 11.6579L8.69392 12.4999H9.49992C9.59401 12.5001 9.68615 12.5267 9.76575 12.5769C9.84535 12.627 9.90919 12.6986 9.94992 12.7834C9.99065 12.8683 10.0066 12.9628 9.99602 13.0563C9.98541 13.1498 9.94863 13.2384 9.88992 13.3119L7.88992 15.8119C7.81856 15.9006 7.7191 15.9622 7.60797 15.9867C7.49683 16.0112 7.38067 15.997 7.27868 15.9465C7.17669 15.896 7.09496 15.8123 7.04701 15.7091C6.99905 15.6059 6.98773 15.4894 7.01492 15.3789L7.35992 13.9999H6.49992C6.41466 13.9999 6.33081 13.9781 6.25635 13.9366C6.18189 13.895 6.11929 13.8351 6.07449 13.7626C6.0297 13.69 6.00421 13.6072 6.00043 13.5221C5.99665 13.4369 6.01472 13.3522 6.05292 13.2759L7.05292 11.2759V11.2759ZM13.4049 4.02692C13.1973 2.98008 12.6601 2.02713 11.8721 1.3074C11.0841 0.58767 10.0865 0.138909 9.02517 0.0267313C7.96384 -0.0854458 6.89446 0.144845 5.97338 0.683932C5.05231 1.22302 4.32785 2.04263 3.90592 3.02292C3.43276 2.96841 2.95345 3.01105 2.49734 3.14823C2.04123 3.28541 1.61792 3.51423 1.25332 3.8207C0.888721 4.12717 0.59051 4.50482 0.376944 4.93055C0.163378 5.35628 0.0389514 5.82111 0.0112822 6.2966C-0.016387 6.77209 0.0532835 7.24822 0.216028 7.69585C0.378773 8.14347 0.631167 8.55317 0.957757 8.89986C1.28435 9.24654 1.67826 9.52293 2.11538 9.71208C2.5525 9.90124 3.02363 9.99918 3.49992 9.99992H12.9999C13.761 10.0008 14.494 9.71234 15.0504 9.19299C15.6068 8.67365 15.945 7.96224 15.9965 7.20287C16.048 6.44351 15.8089 5.69296 15.3277 5.10326C14.8465 4.51356 14.1592 4.1288 13.4049 4.02692V4.02692Z" fill="currentColor"/>
</g>
<defs>
<clipPath id="clip0_1419_1210">
<rect width="16" height="16" fill="white"/>
</clipPath>
</defs>
</svg>
