<svg width="16" height="16" viewBox="0 0 16 16" fill="none" xmlns="http://www.w3.org/2000/svg">
<g clip-path="url(#clip0_1419_1200)">
<path d="M2.99992 13.4999C2.99992 13.3673 3.0526 13.2401 3.14637 13.1464C3.24014 13.0526 3.36731 12.9999 3.49992 12.9999H12.4999C12.6325 12.9999 12.7597 13.0526 12.8535 13.1464C12.9472 13.2401 12.9999 13.3673 12.9999 13.4999C12.9999 13.6325 12.9472 13.7597 12.8535 13.8535C12.7597 13.9472 12.6325 13.9999 12.4999 13.9999H3.49992C3.36731 13.9999 3.24014 13.9472 3.14637 13.8535C3.0526 13.7597 2.99992 13.6325 2.99992 13.4999ZM2.99992 15.4999C2.99992 15.3673 3.0526 15.2401 3.14637 15.1464C3.24014 15.0526 3.36731 14.9999 3.49992 14.9999H12.4999C12.6325 14.9999 12.7597 15.0526 12.8535 15.1464C12.9472 15.2401 12.9999 15.3673 12.9999 15.4999C12.9999 15.6325 12.9472 15.7597 12.8535 15.8535C12.7597 15.9472 12.6325 15.9999 12.4999 15.9999H3.49992C3.36731 15.9999 3.24014 15.9472 3.14637 15.8535C3.0526 15.7597 2.99992 15.6325 2.99992 15.4999ZM13.4049 6.02692C13.1973 4.98008 12.6601 4.02713 11.8721 3.3074C11.0841 2.58767 10.0865 2.13891 9.02517 2.02673C7.96384 1.91455 6.89446 2.14484 5.97338 2.68393C5.05231 3.22302 4.32785 4.04263 3.90592 5.02292C3.43276 4.96841 2.95345 5.01105 2.49734 5.14823C2.04123 5.28541 1.61792 5.51423 1.25332 5.8207C0.888721 6.12717 0.59051 6.50482 0.376944 6.93055C0.163378 7.35628 0.0389514 7.82111 0.0112822 8.2966C-0.016387 8.77209 0.0532835 9.24822 0.216028 9.69585C0.378773 10.1435 0.631167 10.5532 0.957757 10.8999C1.28435 11.2465 1.67826 11.5229 2.11538 11.7121C2.5525 11.9012 3.02363 11.9992 3.49992 11.9999H12.9999C13.761 12.0008 14.494 11.7123 15.0504 11.193C15.6068 10.6736 15.945 9.96224 15.9965 9.20287C16.048 8.44351 15.8089 7.69296 15.3277 7.10326C14.8465 6.51356 14.1592 6.1288 13.4049 6.02692V6.02692ZM8.49992 2.99992C9.48388 2.99972 10.4334 3.36219 11.1669 4.01804C11.9004 4.67388 12.3665 5.57707 12.4759 6.55492C12.4895 6.67778 12.5481 6.79125 12.6405 6.87343C12.7328 6.95561 12.8523 7.00067 12.9759 6.99992H12.9999C13.5304 6.99992 14.0391 7.21064 14.4141 7.58571C14.7892 7.96078 14.9999 8.46949 14.9999 8.99992C14.9999 9.53036 14.7892 10.0391 14.4141 10.4141C14.0391 10.7892 13.5304 10.9999 12.9999 10.9999H3.49992C3.146 10.9997 2.79614 10.9244 2.4735 10.7789C2.15086 10.6334 1.86279 10.4211 1.62834 10.156C1.39389 9.89084 1.21841 9.57894 1.11351 9.24092C1.0086 8.9029 0.976666 8.54646 1.01981 8.19517C1.06295 7.84388 1.1802 7.50576 1.36378 7.20317C1.54736 6.90058 1.7931 6.64041 2.08474 6.43989C2.37638 6.23937 2.70727 6.10305 3.05553 6.03996C3.40379 5.97687 3.76147 5.98845 4.10492 6.07392C4.22745 6.10448 4.35701 6.08755 4.46756 6.02652C4.57812 5.96549 4.66149 5.86489 4.70092 5.74492C4.9652 4.9461 5.47454 4.25089 6.15654 3.7581C6.83854 3.26532 7.65852 3.00002 8.49992 2.99992V2.99992Z" fill="#1B1B1B"/>
</g>
<defs>
<clipPath id="clip0_1419_1200">
<rect width="16" height="16" fill="white"/>
</clipPath>
</defs>
</svg>
