<svg width="16" height="16" viewBox="0 0 16 16" fill="none" xmlns="http://www.w3.org/2000/svg">
<g clip-path="url(#clip0_1419_1209)">
<path d="M7.05292 11.2759C7.09449 11.193 7.15831 11.1232 7.23725 11.0745C7.3162 11.0257 7.40714 10.9999 7.49992 10.9999H8.49992C8.57911 11 8.65714 11.0188 8.72761 11.055C8.79808 11.0911 8.85896 11.1434 8.90524 11.2077C8.95152 11.2719 8.98189 11.3462 8.99383 11.4245C9.00577 11.5028 8.99894 11.5828 8.97392 11.6579L8.69392 12.4999H9.49992C9.59401 12.5001 9.68615 12.5267 9.76575 12.5769C9.84535 12.627 9.90919 12.6986 9.94992 12.7834C9.99065 12.8683 10.0066 12.9628 9.99602 13.0563C9.98541 13.1498 9.94863 13.2384 9.88992 13.3119L7.88992 15.8119C7.81856 15.9006 7.7191 15.9622 7.60797 15.9867C7.49683 16.0112 7.38067 15.997 7.27868 15.9465C7.17669 15.896 7.09496 15.8123 7.04701 15.7091C6.99905 15.6059 6.98773 15.4894 7.01492 15.3789L7.35992 13.9999H6.49992C6.41466 13.9999 6.33081 13.9781 6.25635 13.9366C6.18189 13.895 6.11929 13.8351 6.07449 13.7626C6.0297 13.69 6.00421 13.6072 6.00043 13.5221C5.99665 13.4369 6.01472 13.3522 6.05292 13.2759L7.05292 11.2759ZM13.4049 4.02692C13.1973 2.98008 12.6601 2.02713 11.8721 1.3074C11.0841 0.58767 10.0865 0.138909 9.02517 0.0267313C7.96384 -0.0854458 6.89446 0.144845 5.97338 0.683932C5.05231 1.22302 4.32785 2.04263 3.90592 3.02292C3.43276 2.96841 2.95345 3.01105 2.49734 3.14823C2.04123 3.28541 1.61792 3.51423 1.25332 3.8207C0.888721 4.12717 0.59051 4.50482 0.376944 4.93055C0.163378 5.35628 0.0389514 5.82111 0.0112822 6.2966C-0.016387 6.77209 0.0532835 7.24822 0.216028 7.69585C0.378773 8.14347 0.631167 8.55317 0.957757 8.89986C1.28435 9.24654 1.67826 9.52293 2.11538 9.71208C2.5525 9.90124 3.02363 9.99918 3.49992 9.99992H12.9999C13.761 10.0008 14.494 9.71234 15.0504 9.19299C15.6068 8.67365 15.945 7.96224 15.9965 7.20287C16.048 6.44351 15.8089 5.69296 15.3277 5.10326C14.8465 4.51356 14.1592 4.1288 13.4049 4.02692V4.02692Z" fill="#1B1B1B"/>
</g>
<defs>
<clipPath id="clip0_1419_1209">
<rect width="16" height="16" fill="white"/>
</clipPath>
</defs>
</svg>
