<svg width="16" height="16" viewBox="0 0 16 16" fill="none" xmlns="http://www.w3.org/2000/svg">
<g clip-path="url(#clip0_1419_1226)">
<path d="M7.00007 7.99978C7.46436 7.99973 7.92402 8.09205 8.35229 8.27137C8.78055 8.45069 9.16886 8.71343 9.49459 9.04428C9.82033 9.37513 10.077 9.76749 10.2496 10.1985C10.4222 10.6295 10.5074 11.0906 10.5001 11.5548C10.4989 11.6316 10.5155 11.7077 10.5485 11.7772C10.5815 11.8466 10.6301 11.9075 10.6904 11.9551C10.7508 12.0026 10.8213 12.0357 10.8965 12.0516C10.9717 12.0675 11.0496 12.0659 11.1241 12.0468C11.3458 11.99 11.5776 11.9846 11.8017 12.031C12.0259 12.0774 12.2364 12.1743 12.4174 12.3145C12.5984 12.4547 12.7449 12.6343 12.8459 12.8397C12.9469 13.0451 12.9996 13.2709 13.0001 13.4998C13.0001 13.8976 12.842 14.2791 12.5607 14.5604C12.2794 14.8417 11.8979 14.9998 11.5001 14.9998H3.00007C2.73417 14.9983 2.47124 14.9438 2.22666 14.8394C1.98208 14.7351 1.76076 14.5831 1.57564 14.3922C1.39053 14.2013 1.24533 13.9754 1.14855 13.7278C1.05177 13.4801 1.00534 13.2156 1.01199 12.9498C1.01864 12.684 1.07823 12.4222 1.18727 12.1796C1.29631 11.9371 1.45262 11.7188 1.64705 11.5374C1.84148 11.356 2.07012 11.2152 2.31961 11.1233C2.56911 11.0313 2.83443 10.99 3.10007 11.0018C3.21529 11.0077 3.32902 10.9736 3.42197 10.9053C3.51492 10.8369 3.58138 10.7385 3.61007 10.6268C3.80404 9.8751 4.24227 9.20917 4.8559 8.73365C5.46953 8.25814 6.22376 7.99999 7.00007 7.99978ZM11.4731 10.9998C11.3606 9.98592 10.9069 9.04037 10.1865 8.31815C9.46613 7.59593 8.52173 7.1399 7.50816 7.02482C6.49458 6.90975 5.47199 7.14246 4.60802 7.68481C3.74406 8.22715 3.09 9.04695 2.75307 10.0098C1.98101 10.073 1.26332 10.4324 0.750235 11.0127C0.237147 11.5931 -0.0315631 12.3494 0.000352415 13.1234C0.0322679 13.8974 0.362335 14.629 0.921462 15.1651C1.48059 15.7013 2.22543 16.0004 3.00007 15.9998H11.5001C12.1631 15.9998 12.799 15.7364 13.2678 15.2676C13.7367 14.7987 14.0001 14.1628 14.0001 13.4998C14.0001 12.8367 13.7367 12.2009 13.2678 11.732C12.799 11.2632 12.1631 10.9998 11.5001 10.9998H11.4731V10.9998Z" fill="#1B1B1B"/>
<path d="M10.5001 1.5C10.5001 1.36739 10.4474 1.24021 10.3536 1.14645C10.2598 1.05268 10.1327 1 10.0001 1C9.86745 1 9.74027 1.05268 9.6465 1.14645C9.55273 1.24021 9.50006 1.36739 9.50006 1.5V2.5C9.50006 2.63261 9.55273 2.75979 9.6465 2.85355C9.74027 2.94732 9.86745 3 10.0001 3C10.1327 3 10.2598 2.94732 10.3536 2.85355C10.4474 2.75979 10.5001 2.63261 10.5001 2.5V1.5ZM14.2431 3.464C14.2908 3.41788 14.3289 3.3627 14.3551 3.3017C14.3813 3.2407 14.3951 3.17509 14.3957 3.1087C14.3963 3.04231 14.3836 2.97647 14.3585 2.91502C14.3333 2.85357 14.2962 2.79775 14.2493 2.7508C14.2023 2.70386 14.1465 2.66673 14.085 2.64159C14.0236 2.61645 13.9577 2.6038 13.8914 2.60437C13.825 2.60495 13.7594 2.61874 13.6984 2.64495C13.6374 2.67115 13.5822 2.70924 13.5361 2.757L12.8281 3.464C12.7342 3.55789 12.6814 3.68522 12.6814 3.818C12.6814 3.95078 12.7342 4.07811 12.8281 4.172C12.9219 4.26589 13.0493 4.31863 13.1821 4.31863C13.3148 4.31863 13.4422 4.26589 13.5361 4.172L14.2431 3.464V3.464ZM6.46406 2.757C6.36975 2.66592 6.24345 2.61552 6.11235 2.61666C5.98126 2.6178 5.85585 2.67039 5.76315 2.76309C5.67044 2.85579 5.61786 2.9812 5.61672 3.1123C5.61558 3.2434 5.66598 3.3697 5.75706 3.464L6.46406 4.172C6.51054 4.21849 6.56573 4.25536 6.62647 4.28052C6.68721 4.30568 6.75231 4.31863 6.81806 4.31863C6.8838 4.31863 6.9489 4.30568 7.00964 4.28052C7.07038 4.25536 7.12557 4.21849 7.17206 4.172C7.21854 4.12551 7.25542 4.07032 7.28058 4.00958C7.30574 3.94884 7.31869 3.88374 7.31869 3.818C7.31869 3.75226 7.30574 3.68716 7.28058 3.62642C7.25542 3.56568 7.21854 3.51049 7.17206 3.464L6.46406 2.757V2.757ZM8.19806 6.131C8.32234 5.87344 8.50042 5.64553 8.72027 5.46264C8.94013 5.27975 9.19665 5.14614 9.47253 5.07082C9.74841 4.99549 10.0372 4.98021 10.3195 5.026C10.6018 5.07179 10.871 5.17758 11.1089 5.33625C11.3469 5.49492 11.548 5.70276 11.6988 5.94577C11.8495 6.18878 11.9464 6.46129 11.9829 6.74493C12.0194 7.02858 11.9947 7.31675 11.9104 7.59001C11.826 7.86327 11.6841 8.11527 11.4941 8.329C11.6931 8.61 11.8661 8.911 12.0101 9.227C12.349 8.9208 12.6135 8.54126 12.7834 8.11732C12.9534 7.69338 13.0243 7.23623 12.9907 6.78073C12.9572 6.32523 12.8201 5.88339 12.5899 5.48892C12.3597 5.09444 12.0424 4.75774 11.6623 4.50448C11.2822 4.25122 10.8493 4.08809 10.3966 4.02752C9.94394 3.96695 9.48338 4.01055 9.05009 4.15499C8.61679 4.29944 8.2222 4.5409 7.89639 4.86099C7.57058 5.18108 7.32215 5.57133 7.17006 6.002C7.52206 6.013 7.86606 6.057 8.19806 6.131ZM12.6821 10.205C13.2821 10.42 13.8071 10.795 14.2041 11.277C14.2585 11.2329 14.3031 11.1779 14.3349 11.1155C14.3667 11.053 14.385 10.9846 14.3887 10.9147C14.3924 10.8447 14.3813 10.7748 14.3562 10.7094C14.3311 10.644 14.2926 10.5846 14.2431 10.535L13.5361 9.828C13.4648 9.7563 13.3734 9.70789 13.2741 9.68916C13.1747 9.67043 13.072 9.68226 12.9795 9.72309C12.887 9.76392 12.8091 9.83184 12.756 9.91787C12.7029 10.0039 12.6771 10.104 12.6821 10.205ZM14.5001 6.5C14.3674 6.5 14.2403 6.55268 14.1465 6.64645C14.0527 6.74021 14.0001 6.86739 14.0001 7C14.0001 7.13261 14.0527 7.25979 14.1465 7.35355C14.2403 7.44732 14.3674 7.5 14.5001 7.5H15.5001C15.6327 7.5 15.7598 7.44732 15.8536 7.35355C15.9474 7.25979 16.0001 7.13261 16.0001 7C16.0001 6.86739 15.9474 6.74021 15.8536 6.64645C15.7598 6.55268 15.6327 6.5 15.5001 6.5H14.5001Z" fill="#1B1B1B"/>
</g>
<defs>
<clipPath id="clip0_1419_1226">
<rect width="16" height="16" fill="white"/>
</clipPath>
</defs>
</svg>
