<svg width="16" height="16" viewBox="0 0 16 16" fill="none" xmlns="http://www.w3.org/2000/svg">
<path fill-rule="evenodd" clip-rule="evenodd" d="M4.406 1.342C5.40548 0.480135 6.68024 0.00413852 8 0C10.69 0 12.923 2 13.166 4.579C14.758 4.804 16 6.137 16 7.773C16 9.569 14.502 11 12.687 11H10C9.86739 11 9.74021 10.9473 9.64645 10.8536C9.55268 10.7598 9.5 10.6326 9.5 10.5C9.5 10.3674 9.55268 10.2402 9.64645 10.1464C9.74021 10.0527 9.86739 10 10 10H12.688C13.979 10 15 8.988 15 7.773C15 6.557 13.98 5.545 12.687 5.545H12.187V5.045C12.188 2.825 10.328 1 8 1C6.91988 1.00431 5.87684 1.39443 5.059 2.1C4.302 2.752 3.906 3.538 3.906 4.155V4.603L3.461 4.652C2.064 4.805 1 5.952 1 7.318C1 8.785 2.23 10 3.781 10H6C6.13261 10 6.25979 10.0527 6.35355 10.1464C6.44732 10.2402 6.5 10.3674 6.5 10.5C6.5 10.6326 6.44732 10.7598 6.35355 10.8536C6.25979 10.9473 6.13261 11 6 11H3.781C1.708 11 0 9.366 0 7.318C0 5.555 1.266 4.095 2.942 3.725C3.085 2.862 3.64 2.002 4.406 1.342V1.342Z" fill="currentColor"/>
<path fill-rule="evenodd" clip-rule="evenodd" d="M7.646 4.14592C7.69244 4.09935 7.74762 4.06241 7.80836 4.0372C7.86911 4.012 7.93423 3.99902 8 3.99902C8.06577 3.99902 8.13089 4.012 8.19163 4.0372C8.25238 4.06241 8.30755 4.09935 8.354 4.14592L11.354 7.14592C11.4479 7.2398 11.5006 7.36714 11.5006 7.49992C11.5006 7.63269 11.4479 7.76003 11.354 7.85392C11.2601 7.9478 11.1328 8.00055 11 8.00055C10.8672 8.00055 10.7399 7.9478 10.646 7.85392L8.5 5.70692V14.4999C8.5 14.6325 8.44732 14.7597 8.35355 14.8535C8.25978 14.9472 8.13261 14.9999 8 14.9999C7.86739 14.9999 7.74021 14.9472 7.64645 14.8535C7.55268 14.7597 7.5 14.6325 7.5 14.4999V5.70692L5.354 7.85392C5.26011 7.9478 5.13277 8.00055 5 8.00055C4.86722 8.00055 4.73989 7.9478 4.646 7.85392C4.55211 7.76003 4.49937 7.63269 4.49937 7.49992C4.49937 7.36714 4.55211 7.2398 4.646 7.14592L7.646 4.14592Z" fill="currentColor"/>
</svg>
