<svg width="16" height="16" viewBox="0 0 16 16" fill="none" xmlns="http://www.w3.org/2000/svg">
<g clip-path="url(#clip0_1419_1229)">
<path d="M15.9999 7.50014C16 7.97845 15.8629 8.44675 15.6048 8.84946C15.3467 9.25217 14.9785 9.5724 14.5439 9.77214C14.3697 9.46648 14.1506 9.18871 13.8939 8.94814C14.278 8.84351 14.6047 8.59061 14.8023 8.24508C14.9998 7.89954 15.0521 7.48967 14.9474 7.10564C14.8428 6.72161 14.5899 6.39487 14.2444 6.1973C13.8988 5.99973 13.489 5.94751 13.1049 6.05214C13.0358 6.07087 12.9635 6.07454 12.8928 6.0629C12.8222 6.05126 12.7549 6.02458 12.6954 5.98466C12.636 5.94474 12.5858 5.89252 12.5483 5.83153C12.5107 5.77054 12.4868 5.7022 12.4779 5.63114C12.4072 5.05847 12.1728 4.51834 11.8029 4.0755C11.433 3.63265 10.9432 3.30589 10.3922 3.13438C9.8413 2.96287 9.25258 2.95389 8.69666 3.10851C8.14074 3.26313 7.6412 3.57479 7.25793 4.00614C6.83063 3.98653 6.4025 4.01606 5.98193 4.09414C6.36542 3.38795 6.95262 2.81357 7.6671 2.44576C8.38158 2.07795 9.19024 1.93376 9.98782 2.03194C10.7854 2.13013 11.5349 2.46615 12.1389 2.99626C12.7428 3.52638 13.1732 4.22603 13.3739 5.00414C13.7123 4.98706 14.0507 5.03896 14.3684 5.15667C14.6862 5.27439 14.9767 5.45547 15.2223 5.68891C15.4679 5.92236 15.6635 6.20329 15.7971 6.51465C15.9308 6.82601 15.9998 7.1613 15.9999 7.50014Z" fill="currentColor"/>
<path d="M7.00007 5C8.10712 4.99979 9.1754 5.40766 10.0006 6.14561C10.8258 6.88356 11.3501 7.89981 11.4731 9H11.5001C12.1631 9 12.799 9.26339 13.2678 9.73223C13.7367 10.2011 14.0001 10.837 14.0001 11.5C14.0001 12.163 13.7367 12.7989 13.2678 13.2678C12.799 13.7366 12.1631 14 11.5001 14H3.00007C2.22543 14.0006 1.48059 13.7015 0.921462 13.1654C0.362335 12.6292 0.0322679 11.8976 0.000352415 11.1236C-0.0315631 10.3496 0.237147 9.59329 0.750235 9.01294C1.26332 8.43258 1.98101 8.07319 2.75307 8.01C3.0621 7.13024 3.63667 6.36814 4.39743 5.82895C5.1582 5.28977 6.06761 5.00012 7.00007 5V5ZM10.5001 9.5C10.5007 8.64752 10.1901 7.82413 9.62669 7.18438C9.06328 6.54462 8.28574 6.13249 7.44002 6.02533C6.59431 5.91818 5.73855 6.12336 5.03338 6.60238C4.32821 7.0814 3.82211 7.80131 3.61007 8.627C3.58138 8.73875 3.51492 8.83714 3.42197 8.90549C3.32902 8.97383 3.21529 9.00793 3.10007 9.002C2.83443 8.99021 2.56911 9.0315 2.31961 9.12347C2.07012 9.21544 1.84148 9.35624 1.64705 9.53762C1.45262 9.71901 1.29631 9.93735 1.18727 10.1799C1.07823 10.4224 1.01864 10.6842 1.01199 10.95C1.00534 11.2158 1.05177 11.4803 1.14855 11.728C1.24533 11.9756 1.39053 12.2015 1.57564 12.3924C1.76076 12.5833 1.98208 12.7353 2.22666 12.8397C2.47124 12.944 2.73417 12.9985 3.00007 13H11.5001C11.7128 12.9995 11.9229 12.9538 12.1166 12.8659C12.3102 12.778 12.483 12.6499 12.6234 12.4901C12.7638 12.3303 12.8686 12.1425 12.9309 11.9392C12.9931 11.7358 13.0115 11.5215 12.9846 11.3105C12.9577 11.0996 12.8863 10.8967 12.7751 10.7154C12.6638 10.5342 12.5153 10.3786 12.3393 10.2591C12.1634 10.1396 11.964 10.0589 11.7545 10.0223C11.545 9.98577 11.3301 9.99418 11.1241 10.047C11.0496 10.0661 10.9717 10.0677 10.8965 10.0518C10.8213 10.0359 10.7508 10.0029 10.6904 9.95527C10.6301 9.90767 10.5815 9.8468 10.5485 9.77738C10.5155 9.70796 10.4989 9.63186 10.5001 9.555V9.5Z" fill="currentColor"/>
</g>
<defs>
<clipPath id="clip0_1419_1229">
<rect width="16" height="16" fill="white"/>
</clipPath>
</defs>
</svg>
