<svg width="16" height="16" viewBox="0 0 16 16" fill="none" xmlns="http://www.w3.org/2000/svg">
<g clip-path="url(#clip0_1419_1215)">
<path d="M11.4731 10.9998C11.3606 9.98592 10.9069 9.04037 10.1865 8.31815C9.46613 7.59593 8.52173 7.1399 7.50816 7.02482C6.49458 6.90975 5.47199 7.14246 4.60802 7.68481C3.74406 8.22715 3.09 9.04695 2.75307 10.0098C1.98101 10.073 1.26332 10.4324 0.750235 11.0127C0.237147 11.5931 -0.0315631 12.3494 0.000352415 13.1234C0.0322679 13.8974 0.362335 14.629 0.921462 15.1651C1.48059 15.7013 2.22543 16.0004 3.00007 15.9998H11.5001C12.1631 15.9998 12.799 15.7364 13.2678 15.2676C13.7367 14.7987 14.0001 14.1628 14.0001 13.4998C14.0001 12.8367 13.7367 12.2009 13.2678 11.732C12.799 11.2632 12.1631 10.9998 11.5001 10.9998H11.4731Z" fill="currentColor"/>
<path d="M11.286 1.7778C11.3435 1.69179 11.3729 1.59007 11.3701 1.48666C11.3674 1.38326 11.3326 1.28325 11.2706 1.20042C11.2086 1.1176 11.1225 1.05604 11.0241 1.02423C10.9256 0.992418 10.8198 0.991919 10.721 1.0228C9.68562 1.34706 8.79836 2.02724 8.21635 2.94292C7.63433 3.85859 7.3951 4.95067 7.54103 6.0258C7.89871 6.06058 8.25209 6.13059 8.59603 6.2348C8.44161 5.57671 8.47544 4.88844 8.69365 4.24866C8.91187 3.60888 9.30566 3.04339 9.83003 2.6168C9.65683 3.28463 9.63631 3.98288 9.76998 4.65972C9.90366 5.33656 10.1881 5.9746 10.6022 6.52643C11.0162 7.07827 11.5493 7.52974 12.1618 7.84731C12.7743 8.16488 13.4504 8.34039 14.14 8.3608C13.4847 8.81628 12.6958 9.03946 11.899 8.9948C12.061 9.3118 12.194 9.6468 12.293 9.9948C13.015 9.96406 13.7196 9.76327 14.3493 9.40878C14.9791 9.05429 15.5162 8.55612 15.917 7.9548C15.9745 7.86879 16.0039 7.76707 16.0011 7.66366C15.9984 7.56026 15.9636 7.46025 15.9016 7.37742C15.8396 7.2946 15.7535 7.23304 15.6551 7.20123C15.5566 7.16942 15.4508 7.16892 15.352 7.1998C14.6427 7.42244 13.8818 7.41958 13.1742 7.19162C12.4666 6.96365 11.8472 6.52181 11.4012 5.927C10.9553 5.33219 10.7048 4.6137 10.6844 3.87056C10.6639 3.12743 10.8745 2.39624 11.287 1.7778H11.286Z" fill="currentColor"/>
</g>
<defs>
<clipPath id="clip0_1419_1215">
<rect width="16" height="16" fill="white"/>
</clipPath>
</defs>
</svg>
