<svg width="16" height="16" viewBox="0 0 16 16" fill="none" xmlns="http://www.w3.org/2000/svg">
<g clip-path="url(#clip0_1419_1216)">
<path d="M7.00007 7.99978C7.46436 7.99973 7.92402 8.09205 8.35229 8.27137C8.78055 8.45069 9.16886 8.71343 9.49459 9.04428C9.82033 9.37513 10.077 9.76749 10.2496 10.1985C10.4222 10.6295 10.5074 11.0906 10.5001 11.5548C10.4989 11.6318 10.5154 11.708 10.5485 11.7775C10.5816 11.847 10.6302 11.9079 10.6907 11.9556C10.7512 12.0032 10.8219 12.0362 10.8972 12.052C10.9726 12.0678 11.0505 12.066 11.1251 12.0468C11.3467 11.9902 11.5784 11.9849 11.8024 12.0314C12.0264 12.0778 12.2369 12.1748 12.4177 12.315C12.5986 12.4551 12.745 12.6347 12.8459 12.84C12.9469 13.0453 12.9996 13.271 13.0001 13.4998C13.0001 13.8976 12.842 14.2791 12.5607 14.5604C12.2794 14.8417 11.8979 14.9998 11.5001 14.9998H3.00007C2.73417 14.9983 2.47124 14.9438 2.22666 14.8394C1.98208 14.7351 1.76076 14.5831 1.57564 14.3922C1.39053 14.2013 1.24533 13.9754 1.14855 13.7278C1.05177 13.4801 1.00534 13.2156 1.01199 12.9498C1.01864 12.684 1.07823 12.4222 1.18727 12.1796C1.29631 11.9371 1.45262 11.7188 1.64705 11.5374C1.84148 11.356 2.07012 11.2152 2.31961 11.1233C2.56911 11.0313 2.83443 10.99 3.10007 11.0018C3.21513 11.0075 3.32862 10.9733 3.42136 10.9049C3.51411 10.8366 3.58041 10.7384 3.60907 10.6268C3.80308 9.87493 4.24146 9.20888 4.85529 8.73335C5.46912 8.25781 6.22359 7.99977 7.00007 7.99978ZM11.4731 10.9998C11.3606 9.98592 10.9069 9.04037 10.1865 8.31815C9.46613 7.59593 8.52173 7.1399 7.50816 7.02482C6.49458 6.90975 5.47199 7.14246 4.60802 7.68481C3.74406 8.22715 3.09 9.04695 2.75307 10.0098C1.98101 10.073 1.26332 10.4324 0.750235 11.0127C0.237147 11.5931 -0.0315631 12.3494 0.000352415 13.1234C0.0322679 13.8974 0.362335 14.629 0.921462 15.1651C1.48059 15.7013 2.22543 16.0004 3.00007 15.9998H11.5001C12.1631 15.9998 12.799 15.7364 13.2678 15.2676C13.7367 14.7987 14.0001 14.1628 14.0001 13.4998C14.0001 12.8367 13.7367 12.2009 13.2678 11.732C12.799 11.2632 12.1631 10.9998 11.5001 10.9998H11.4731V10.9998Z" fill="currentColor"/>
<path d="M11.286 1.7778C11.3435 1.69179 11.3729 1.59007 11.3701 1.48666C11.3674 1.38326 11.3326 1.28325 11.2706 1.20042C11.2086 1.1176 11.1225 1.05604 11.0241 1.02423C10.9256 0.992418 10.8198 0.991919 10.721 1.0228C9.68562 1.34706 8.79836 2.02724 8.21635 2.94292C7.63433 3.85859 7.3951 4.95067 7.54103 6.0258C7.89871 6.06058 8.25209 6.13059 8.59603 6.2348C8.44161 5.57671 8.47544 4.88844 8.69365 4.24866C8.91187 3.60888 9.30566 3.04339 9.83003 2.6168C9.65683 3.28463 9.63631 3.98288 9.76998 4.65972C9.90366 5.33656 10.1881 5.9746 10.6022 6.52643C11.0162 7.07827 11.5493 7.52974 12.1618 7.84731C12.7743 8.16488 13.4504 8.34039 14.14 8.3608C13.4847 8.81628 12.6958 9.03946 11.899 8.9948C12.061 9.3118 12.194 9.6468 12.293 9.9948C13.015 9.96406 13.7196 9.76327 14.3493 9.40878C14.9791 9.05429 15.5162 8.55612 15.917 7.9548C15.9745 7.86879 16.0039 7.76707 16.0011 7.66366C15.9984 7.56026 15.9636 7.46025 15.9016 7.37742C15.8396 7.2946 15.7535 7.23304 15.6551 7.20123C15.5566 7.16942 15.4508 7.16892 15.352 7.1998C14.6427 7.42244 13.8818 7.41958 13.1742 7.19162C12.4666 6.96365 11.8472 6.52181 11.4012 5.927C10.9553 5.33219 10.7048 4.6137 10.6844 3.87056C10.6639 3.12743 10.8745 2.39624 11.287 1.7778H11.286Z" fill="currentColor"/>
</g>
<defs>
<clipPath id="clip0_1419_1216">
<rect width="16" height="16" fill="white"/>
</clipPath>
</defs>
</svg>
