<svg width="16" height="16" viewBox="0 0 16 16" fill="none" xmlns="http://www.w3.org/2000/svg">
<g clip-path="url(#clip0_1419_1199)">
<path d="M2.99992 13.4999C2.99992 13.3673 3.0526 13.2401 3.14637 13.1464C3.24014 13.0526 3.36731 12.9999 3.49992 12.9999H12.4999C12.6325 12.9999 12.7597 13.0526 12.8535 13.1464C12.9472 13.2401 12.9999 13.3673 12.9999 13.4999C12.9999 13.6325 12.9472 13.7597 12.8535 13.8535C12.7597 13.9472 12.6325 13.9999 12.4999 13.9999H3.49992C3.36731 13.9999 3.24014 13.9472 3.14637 13.8535C3.0526 13.7597 2.99992 13.6325 2.99992 13.4999ZM2.99992 15.4999C2.99992 15.3673 3.0526 15.2401 3.14637 15.1464C3.24014 15.0526 3.36731 14.9999 3.49992 14.9999H12.4999C12.6325 14.9999 12.7597 15.0526 12.8535 15.1464C12.9472 15.2401 12.9999 15.3673 12.9999 15.4999C12.9999 15.6325 12.9472 15.7597 12.8535 15.8535C12.7597 15.9472 12.6325 15.9999 12.4999 15.9999H3.49992C3.36731 15.9999 3.24014 15.9472 3.14637 15.8535C3.0526 15.7597 2.99992 15.6325 2.99992 15.4999ZM13.4049 6.02692C13.1973 4.98008 12.6601 4.02713 11.8721 3.3074C11.0841 2.58767 10.0865 2.13891 9.02517 2.02673C7.96384 1.91455 6.89446 2.14484 5.97338 2.68393C5.05231 3.22302 4.32785 4.04263 3.90592 5.02292C3.43276 4.96841 2.95345 5.01105 2.49734 5.14823C2.04123 5.28541 1.61792 5.51423 1.25332 5.8207C0.888721 6.12717 0.59051 6.50482 0.376944 6.93055C0.163378 7.35628 0.0389514 7.82111 0.0112822 8.2966C-0.016387 8.77209 0.0532835 9.24822 0.216028 9.69585C0.378773 10.1435 0.631167 10.5532 0.957757 10.8999C1.28435 11.2465 1.67826 11.5229 2.11538 11.7121C2.5525 11.9012 3.02363 11.9992 3.49992 11.9999H12.9999C13.761 12.0008 14.494 11.7123 15.0504 11.193C15.6068 10.6736 15.945 9.96224 15.9965 9.20287C16.048 8.44351 15.8089 7.69296 15.3277 7.10326C14.8465 6.51356 14.1592 6.1288 13.4049 6.02692V6.02692Z" fill="currentColor"/>
</g>
<defs>
<clipPath id="clip0_1419_1199">
<rect width="16" height="16" fill="white"/>
</clipPath>
</defs>
</svg>
