<svg width="16" height="16" viewBox="0 0 16 16" fill="none" xmlns="http://www.w3.org/2000/svg">
<g clip-path="url(#clip0_1419_1228)">
<path d="M11.4731 8.99978C11.3606 7.98592 10.9069 7.04037 10.1865 6.31815C9.46613 5.59593 8.52173 5.1399 7.50816 5.02482C6.49458 4.90975 5.47199 5.14246 4.60802 5.68481C3.74406 6.22715 3.09 7.04695 2.75307 8.00978C1.98101 8.07298 1.26332 8.43237 0.750235 9.01272C0.237147 9.59307 -0.0315631 10.3494 0.000352415 11.1234C0.0322679 11.8974 0.362335 12.629 0.921462 13.1651C1.48059 13.7013 2.22543 14.0004 3.00007 13.9998H11.5001C12.1631 13.9962 12.7976 13.7294 13.2639 13.258C13.7302 12.7866 13.9902 12.1493 13.9866 11.4863C13.983 10.8232 13.7162 10.1888 13.2448 9.72247C12.7734 9.25616 12.1361 8.9962 11.4731 8.99978V8.99978Z" fill="currentColor"/>
<path d="M14.5439 9.77214C14.3073 9.35558 13.9877 8.99194 13.605 8.70368C13.2223 8.41542 12.7846 8.20865 12.3189 8.09614C11.9638 6.75178 11.1129 5.59172 9.93724 4.84926C8.76159 4.10681 7.34842 3.83701 5.98193 4.09414C6.36542 3.38795 6.95262 2.81357 7.6671 2.44576C8.38158 2.07795 9.19024 1.93376 9.98782 2.03194C10.7854 2.13013 11.5349 2.46615 12.1389 2.99626C12.7428 3.52638 13.1732 4.22603 13.3739 5.00414C13.9545 4.9745 14.5272 5.14809 14.9936 5.49506C15.46 5.84202 15.7909 6.34066 15.9294 6.90522C16.0679 7.46977 16.0053 8.06495 15.7525 8.58837C15.4996 9.11179 15.0723 9.53073 14.5439 9.77314V9.77214Z" fill="currentColor"/>
</g>
<defs>
<clipPath id="clip0_1419_1228">
<rect width="16" height="16" fill="white"/>
</clipPath>
</defs>
</svg>
