<svg width="16" height="16" viewBox="0 0 16 16" fill="none" xmlns="http://www.w3.org/2000/svg">
<path fill-rule="evenodd" clip-rule="evenodd" d="M7.64599 5.14592C7.69244 5.09935 7.74761 5.06241 7.80836 5.0372C7.8691 5.012 7.93422 4.99902 7.99999 4.99902C8.06576 4.99902 8.13088 5.012 8.19162 5.0372C8.25237 5.06241 8.30755 5.09935 8.35399 5.14592L10.354 7.14592C10.4005 7.1924 10.4374 7.24759 10.4625 7.30833C10.4877 7.36907 10.5006 7.43417 10.5006 7.49992C10.5006 7.56566 10.4877 7.63076 10.4625 7.6915C10.4374 7.75224 10.4005 7.80743 10.354 7.85392C10.3075 7.90041 10.2523 7.93728 10.1916 7.96244C10.1308 7.9876 10.0657 8.00055 9.99999 8.00055C9.93425 8.00055 9.86915 7.9876 9.80841 7.96244C9.74767 7.93728 9.69248 7.90041 9.64599 7.85392L8.49999 6.70692V10.4999C8.49999 10.6325 8.44731 10.7597 8.35354 10.8535C8.25978 10.9472 8.1326 10.9999 7.99999 10.9999C7.86738 10.9999 7.74021 10.9472 7.64644 10.8535C7.55267 10.7597 7.49999 10.6325 7.49999 10.4999V6.70692L6.35399 7.85392C6.2601 7.9478 6.13277 8.00055 5.99999 8.00055C5.86722 8.00055 5.73988 7.9478 5.64599 7.85392C5.5521 7.76003 5.49936 7.63269 5.49936 7.49992C5.49936 7.36714 5.5521 7.2398 5.64599 7.14592L7.64599 5.14592Z" fill="#1B1B1B"/>
<path d="M4.406 3.342C5.40548 2.48014 6.68024 2.00414 8 2C10.69 2 12.923 4 13.166 6.579C14.758 6.804 16 8.137 16 9.773C16 11.569 14.502 13 12.687 13H3.781C1.708 13 0 11.366 0 9.318C0 7.555 1.266 6.095 2.942 5.725C3.085 4.862 3.64 4.002 4.406 3.342V3.342ZM5.059 4.099C4.302 4.752 3.906 5.539 3.906 6.155V6.603L3.461 6.652C2.064 6.805 1 7.952 1 9.318C1 10.785 2.23 12 3.781 12H12.687C13.98 12 15 10.988 15 9.773C15 8.557 13.98 7.545 12.687 7.545H12.187V7.045C12.188 4.825 10.328 3 8 3C6.91988 3.00431 5.87684 3.39443 5.059 4.1V4.099Z" fill="#1B1B1B"/>
</svg>
