<svg width="16" height="16" viewBox="0 0 16 16" fill="none" xmlns="http://www.w3.org/2000/svg">
<g clip-path="url(#clip0_1419_1205)">
<path d="M3.99992 11.4999C3.99992 11.3673 4.0526 11.2401 4.14637 11.1464C4.24014 11.0526 4.36731 10.9999 4.49992 10.9999H13.4999C13.6325 10.9999 13.7597 11.0526 13.8535 11.1464C13.9472 11.2401 13.9999 11.3673 13.9999 11.4999C13.9999 11.6325 13.9472 11.7597 13.8535 11.8535C13.7597 11.9472 13.6325 11.9999 13.4999 11.9999H4.49992C4.36731 11.9999 4.24014 11.9472 4.14637 11.8535C4.0526 11.7597 3.99992 11.6325 3.99992 11.4999ZM0.999923 13.4999C0.999923 13.3673 1.0526 13.2401 1.14637 13.1464C1.24014 13.0526 1.36731 12.9999 1.49992 12.9999H10.4999C10.6325 12.9999 10.7597 13.0526 10.8535 13.1464C10.9472 13.2401 10.9999 13.3673 10.9999 13.4999C10.9999 13.6325 10.9472 13.7597 10.8535 13.8535C10.7597 13.9472 10.6325 13.9999 10.4999 13.9999H1.49992C1.36731 13.9999 1.24014 13.9472 1.14637 13.8535C1.0526 13.7597 0.999923 13.6325 0.999923 13.4999V13.4999ZM2.99992 15.4999C2.99992 15.3673 3.0526 15.2401 3.14637 15.1464C3.24014 15.0526 3.36731 14.9999 3.49992 14.9999H12.4999C12.6325 14.9999 12.7597 15.0526 12.8535 15.1464C12.9472 15.2401 12.9999 15.3673 12.9999 15.4999C12.9999 15.6325 12.9472 15.7597 12.8535 15.8535C12.7597 15.9472 12.6325 15.9999 12.4999 15.9999H3.49992C3.36731 15.9999 3.24014 15.9472 3.14637 15.8535C3.0526 15.7597 2.99992 15.6325 2.99992 15.4999ZM13.4049 4.02692C13.1973 2.98008 12.6601 2.02713 11.8721 1.3074C11.0841 0.58767 10.0865 0.138909 9.02517 0.0267313C7.96384 -0.0854458 6.89446 0.144845 5.97338 0.683932C5.05231 1.22302 4.32785 2.04263 3.90592 3.02292C3.43276 2.96841 2.95345 3.01105 2.49734 3.14823C2.04123 3.28541 1.61792 3.51423 1.25332 3.8207C0.888721 4.12717 0.59051 4.50482 0.376944 4.93055C0.163378 5.35628 0.0389514 5.82111 0.0112822 6.2966C-0.016387 6.77209 0.0532835 7.24822 0.216028 7.69585C0.378773 8.14347 0.631167 8.55317 0.957757 8.89986C1.28435 9.24654 1.67826 9.52293 2.11538 9.71208C2.5525 9.90124 3.02363 9.99918 3.49992 9.99992H12.9999C13.761 10.0008 14.494 9.71234 15.0504 9.19299C15.6068 8.67365 15.945 7.96224 15.9965 7.20287C16.048 6.44351 15.8089 5.69296 15.3277 5.10326C14.8465 4.51356 14.1592 4.1288 13.4049 4.02692V4.02692Z" fill="#1B1B1B"/>
</g>
<defs>
<clipPath id="clip0_1419_1205">
<rect width="16" height="16" fill="white"/>
</clipPath>
</defs>
</svg>
