<svg width="16" height="16" viewBox="0 0 16 16" fill="none" xmlns="http://www.w3.org/2000/svg">
<g clip-path="url(#clip0_1419_1211)">
<path d="M2.65792 11.0259C2.78358 11.0679 2.88743 11.158 2.94668 11.2765C3.00593 11.395 3.01573 11.5322 2.97392 11.6579L2.47392 13.1579C2.45509 13.2225 2.42343 13.2826 2.38082 13.3346C2.33822 13.3867 2.28555 13.4296 2.22598 13.4608C2.1664 13.492 2.10114 13.5109 2.0341 13.5163C1.96706 13.5217 1.89962 13.5135 1.83581 13.4923C1.772 13.471 1.71314 13.4371 1.66275 13.3925C1.61236 13.348 1.57148 13.2937 1.54255 13.233C1.51361 13.1723 1.49723 13.1064 1.49437 13.0392C1.49152 12.972 1.50225 12.9049 1.52592 12.8419L2.02592 11.3419C2.06791 11.2163 2.15805 11.1124 2.27654 11.0532C2.39504 10.9939 2.53221 10.9841 2.65792 11.0259V11.0259ZM12.1579 11.0259C12.2836 11.0679 12.3874 11.158 12.4467 11.2765C12.5059 11.395 12.5157 11.5322 12.4739 11.6579L11.9739 13.1579C11.9551 13.2225 11.9234 13.2826 11.8808 13.3346C11.8382 13.3867 11.7856 13.4296 11.726 13.4608C11.6664 13.492 11.6011 13.5109 11.5341 13.5163C11.4671 13.5217 11.3996 13.5135 11.3358 13.4923C11.272 13.471 11.2131 13.4371 11.1628 13.3925C11.1124 13.348 11.0715 13.2937 11.0425 13.233C11.0136 13.1723 10.9972 13.1064 10.9944 13.0392C10.9915 12.972 11.0022 12.9049 11.0259 12.8419L11.5259 11.3419C11.5679 11.2163 11.658 11.1124 11.7765 11.0532C11.895 10.9939 12.0322 10.9841 12.1579 11.0259V11.0259ZM4.65792 12.5259C4.78358 12.5679 4.88743 12.658 4.94668 12.7765C5.00593 12.895 5.01573 13.0322 4.97392 13.1579L4.47392 14.6579C4.45509 14.7225 4.42342 14.7826 4.38082 14.8346C4.33822 14.8867 4.28555 14.9296 4.22598 14.9608C4.1664 14.992 4.10114 15.0109 4.0341 15.0163C3.96706 15.0217 3.89962 15.0135 3.83581 14.9923C3.772 14.971 3.71314 14.9371 3.66275 14.8925C3.61236 14.848 3.57148 14.7937 3.54255 14.733C3.51361 14.6723 3.49723 14.6064 3.49437 14.5392C3.49152 14.472 3.50225 14.4049 3.52592 14.3419L4.02592 12.8419C4.06791 12.7163 4.15805 12.6124 4.27654 12.5532C4.39504 12.4939 4.53221 12.4841 4.65792 12.5259V12.5259ZM14.1579 12.5259C14.2836 12.5679 14.3874 12.658 14.4467 12.7765C14.5059 12.895 14.5157 13.0322 14.4739 13.1579L13.9739 14.6579C13.9551 14.7225 13.9234 14.7826 13.8808 14.8346C13.8382 14.8867 13.7856 14.9296 13.726 14.9608C13.6664 14.992 13.6011 15.0109 13.5341 15.0163C13.4671 15.0217 13.3996 15.0135 13.3358 14.9923C13.272 14.971 13.2131 14.9371 13.1628 14.8925C13.1124 14.848 13.0715 14.7937 13.0425 14.733C13.0136 14.6723 12.9972 14.6064 12.9944 14.5392C12.9915 14.472 13.0022 14.4049 13.0259 14.3419L13.5259 12.8419C13.5679 12.7163 13.658 12.6124 13.7765 12.5532C13.895 12.4939 14.0322 12.4841 14.1579 12.5259V12.5259ZM13.4049 4.02692C13.1973 2.98008 12.6601 2.02713 11.8721 1.3074C11.0841 0.58767 10.0865 0.138909 9.02517 0.0267313C7.96384 -0.0854458 6.89446 0.144845 5.97338 0.683932C5.05231 1.22302 4.32785 2.04263 3.90592 3.02292C3.43276 2.96841 2.95345 3.01105 2.49734 3.14823C2.04123 3.28541 1.61792 3.51423 1.25332 3.8207C0.888721 4.12717 0.59051 4.50482 0.376944 4.93055C0.163378 5.35628 0.0389514 5.82111 0.0112822 6.2966C-0.016387 6.77209 0.0532835 7.24822 0.216028 7.69585C0.378773 8.14347 0.631167 8.55317 0.957757 8.89986C1.28435 9.24654 1.67826 9.52293 2.11538 9.71208C2.5525 9.90124 3.02363 9.99918 3.49992 9.99992H12.9999C13.761 10.0008 14.494 9.71234 15.0504 9.19299C15.6068 8.67365 15.945 7.96224 15.9965 7.20287C16.048 6.44351 15.8089 5.69296 15.3277 5.10326C14.8465 4.51356 14.1592 4.1288 13.4049 4.02692V4.02692ZM8.49992 0.999923C9.48388 0.999719 10.4334 1.36219 11.1669 2.01804C11.9004 2.67388 12.3665 3.57707 12.4759 4.55492C12.4895 4.67778 12.5481 4.79125 12.6405 4.87343C12.7328 4.95561 12.8523 5.00067 12.9759 4.99992H12.9999C13.5304 4.99992 14.0391 5.21064 14.4141 5.58571C14.7892 5.96078 14.9999 6.46949 14.9999 6.99992C14.9999 7.53036 14.7892 8.03906 14.4141 8.41414C14.0391 8.78921 13.5304 8.99992 12.9999 8.99992H3.49992C3.146 8.99975 2.79614 8.92442 2.4735 8.77894C2.15086 8.63345 1.86279 8.42111 1.62834 8.15598C1.39389 7.89084 1.21841 7.57894 1.11351 7.24092C1.0086 6.9029 0.976666 6.54646 1.01981 6.19517C1.06295 5.84388 1.1802 5.50576 1.36378 5.20317C1.54736 4.90058 1.7931 4.64041 2.08474 4.43989C2.37638 4.23937 2.70727 4.10305 3.05553 4.03996C3.40379 3.97687 3.76147 3.98845 4.10492 4.07392C4.22745 4.10448 4.35701 4.08755 4.46756 4.02652C4.57812 3.96549 4.66149 3.86489 4.70092 3.74492C4.9652 2.9461 5.47454 2.25089 6.15654 1.7581C6.83854 1.26532 7.65852 1.00002 8.49992 0.999923V0.999923ZM7.05292 11.2759C7.09449 11.193 7.15831 11.1232 7.23725 11.0745C7.3162 11.0257 7.40714 10.9999 7.49992 10.9999H8.49992C8.57911 11 8.65714 11.0188 8.72761 11.055C8.79808 11.0911 8.85896 11.1434 8.90524 11.2077C8.95152 11.2719 8.98189 11.3462 8.99383 11.4245C9.00577 11.5028 8.99894 11.5828 8.97392 11.6579L8.69392 12.4999H9.49992C9.59401 12.5001 9.68615 12.5267 9.76575 12.5769C9.84535 12.627 9.90919 12.6986 9.94992 12.7834C9.99065 12.8683 10.0066 12.9628 9.99602 13.0563C9.98541 13.1498 9.94863 13.2384 9.88992 13.3119L7.88992 15.8119C7.81856 15.9006 7.7191 15.9622 7.60797 15.9867C7.49683 16.0112 7.38067 15.997 7.27868 15.9465C7.17669 15.896 7.09496 15.8123 7.04701 15.7091C6.99905 15.6059 6.98773 15.4894 7.01492 15.3789L7.35992 13.9999H6.49992C6.41466 13.9999 6.33081 13.9781 6.25635 13.9366C6.18189 13.895 6.11929 13.8351 6.07449 13.7626C6.0297 13.69 6.00421 13.6072 6.00043 13.5221C5.99665 13.4369 6.01472 13.3522 6.05292 13.2759L7.05292 11.2759Z" fill="#1B1B1B"/>
</g>
<defs>
<clipPath id="clip0_1419_1211">
<rect width="16" height="16" fill="white"/>
</clipPath>
</defs>
</svg>
