<svg width="16" height="16" viewBox="0 0 16 16" fill="none" xmlns="http://www.w3.org/2000/svg">
<g clip-path="url(#clip0_1419_1203)">
<path d="M3.74992 15.2499C3.74992 15.4488 3.67091 15.6396 3.53025 15.7803C3.3896 15.9209 3.19884 15.9999 2.99992 15.9999C2.80101 15.9999 2.61024 15.9209 2.46959 15.7803C2.32894 15.6396 2.24992 15.4488 2.24992 15.2499C2.24992 15.051 2.32894 14.8602 2.46959 14.7196C2.61024 14.5789 2.80101 14.4999 2.99992 14.4999C3.19884 14.4999 3.3896 14.5789 3.53025 14.7196C3.67091 14.8602 3.74992 15.051 3.74992 15.2499ZM4.15792 11.5259C4.28358 11.5679 4.38743 11.658 4.44668 11.7765C4.50593 11.895 4.51573 12.0322 4.47392 12.1579L3.97392 13.6579C3.95509 13.7225 3.92343 13.7826 3.88082 13.8346C3.83822 13.8867 3.78555 13.9296 3.72598 13.9608C3.6664 13.992 3.60114 14.0109 3.5341 14.0163C3.46706 14.0217 3.39962 14.0135 3.33581 13.9923C3.272 13.971 3.21314 13.9371 3.16275 13.8925C3.11236 13.848 3.07148 13.7937 3.04255 13.733C3.01361 13.6723 2.99723 13.6064 2.99437 13.5392C2.99152 13.472 3.00225 13.4049 3.02592 13.3419L3.52592 11.8419C3.56791 11.7163 3.65805 11.6124 3.77654 11.5532C3.89504 11.4939 4.03221 11.4841 4.15792 11.5259V11.5259ZM7.74992 15.2499C7.74992 15.4488 7.67091 15.6396 7.53025 15.7803C7.3896 15.9209 7.19884 15.9999 6.99992 15.9999C6.80101 15.9999 6.61024 15.9209 6.46959 15.7803C6.32894 15.6396 6.24992 15.4488 6.24992 15.2499C6.24992 15.051 6.32894 14.8602 6.46959 14.7196C6.61024 14.5789 6.80101 14.4999 6.99992 14.4999C7.19884 14.4999 7.3896 14.5789 7.53025 14.7196C7.67091 14.8602 7.74992 15.051 7.74992 15.2499V15.2499ZM8.15792 11.5259C8.28358 11.5679 8.38743 11.658 8.44668 11.7765C8.50593 11.895 8.51573 12.0322 8.47392 12.1579L7.97392 13.6579C7.95509 13.7225 7.92342 13.7826 7.88082 13.8346C7.83822 13.8867 7.78555 13.9296 7.72598 13.9608C7.6664 13.992 7.60114 14.0109 7.5341 14.0163C7.46706 14.0217 7.39962 14.0135 7.33581 13.9923C7.272 13.971 7.21314 13.9371 7.16275 13.8925C7.11236 13.848 7.07148 13.7937 7.04255 13.733C7.01361 13.6723 6.99723 13.6064 6.99437 13.5392C6.99152 13.472 7.00225 13.4049 7.02592 13.3419L7.52592 11.8419C7.56791 11.7163 7.65805 11.6124 7.77654 11.5532C7.89504 11.4939 8.03221 11.4841 8.15792 11.5259V11.5259ZM11.7499 15.2499C11.7499 15.4488 11.6709 15.6396 11.5303 15.7803C11.3896 15.9209 11.1988 15.9999 10.9999 15.9999C10.801 15.9999 10.6102 15.9209 10.4696 15.7803C10.3289 15.6396 10.2499 15.4488 10.2499 15.2499C10.2499 15.051 10.3289 14.8602 10.4696 14.7196C10.6102 14.5789 10.801 14.4999 10.9999 14.4999C11.1988 14.4999 11.3896 14.5789 11.5303 14.7196C11.6709 14.8602 11.7499 15.051 11.7499 15.2499ZM12.1579 11.5259C12.2836 11.5679 12.3874 11.658 12.4467 11.7765C12.5059 11.895 12.5157 12.0322 12.4739 12.1579L11.9739 13.6579C11.9551 13.7225 11.9234 13.7826 11.8808 13.8346C11.8382 13.8867 11.7856 13.9296 11.726 13.9608C11.6664 13.992 11.6011 14.0109 11.5341 14.0163C11.4671 14.0217 11.3996 14.0135 11.3358 13.9923C11.272 13.971 11.2131 13.9371 11.1628 13.8925C11.1124 13.848 11.0715 13.7937 11.0425 13.733C11.0136 13.6723 10.9972 13.6064 10.9944 13.5392C10.9915 13.472 11.0022 13.4049 11.0259 13.3419L11.5259 11.8419C11.5679 11.7163 11.658 11.6124 11.7765 11.5532C11.895 11.4939 12.0322 11.4841 12.1579 11.5259V11.5259ZM13.4049 4.52692C13.1973 3.48008 12.6601 2.52713 11.8721 1.8074C11.0841 1.08767 10.0865 0.638909 9.02517 0.526731C7.96384 0.414554 6.89446 0.644845 5.97338 1.18393C5.05231 1.72302 4.32785 2.54263 3.90592 3.52292C3.43276 3.46841 2.95345 3.51105 2.49734 3.64823C2.04123 3.78541 1.61792 4.01423 1.25332 4.3207C0.888721 4.62717 0.59051 5.00482 0.376944 5.43055C0.163378 5.85628 0.0389514 6.32111 0.0112822 6.7966C-0.016387 7.27209 0.0532835 7.74822 0.216028 8.19585C0.378773 8.64347 0.631167 9.05317 0.957757 9.39986C1.28435 9.74654 1.67826 10.0229 2.11538 10.2121C2.5525 10.4012 3.02363 10.4992 3.49992 10.4999H12.9999C13.761 10.5008 14.494 10.2123 15.0504 9.69299C15.6068 9.17365 15.945 8.46224 15.9965 7.70287C16.048 6.94351 15.8089 6.19296 15.3277 5.60326C14.8465 5.01356 14.1592 4.6288 13.4049 4.52692V4.52692Z" fill="#1B1B1B"/>
</g>
<defs>
<clipPath id="clip0_1419_1203">
<rect width="16" height="16" fill="white"/>
</clipPath>
</defs>
</svg>
