<svg width="16" height="16" viewBox="0 0 16 16" fill="none" xmlns="http://www.w3.org/2000/svg">
<path fill-rule="evenodd" clip-rule="evenodd" d="M10.354 6.14592C10.4006 6.19236 10.4375 6.24754 10.4627 6.30828C10.4879 6.36903 10.5009 6.43415 10.5009 6.49992C10.5009 6.56568 10.4879 6.63081 10.4627 6.69155C10.4375 6.7523 10.4006 6.80747 10.354 6.85392L7.354 9.85392C7.30755 9.90048 7.25238 9.93742 7.19163 9.96263C7.13089 9.98784 7.06577 10.0008 7 10.0008C6.93423 10.0008 6.86911 9.98784 6.80836 9.96263C6.74762 9.93742 6.69244 9.90048 6.646 9.85392L5.146 8.35392C5.09951 8.30743 5.06263 8.25224 5.03748 8.1915C5.01232 8.13076 4.99937 8.06566 4.99937 7.99992C4.99937 7.93417 5.01232 7.86907 5.03748 7.80833C5.06263 7.74759 5.09951 7.6924 5.146 7.64592C5.19249 7.59943 5.24768 7.56255 5.30841 7.53739C5.36915 7.51223 5.43425 7.49929 5.5 7.49929C5.56574 7.49929 5.63084 7.51223 5.69158 7.53739C5.75232 7.56255 5.80751 7.59943 5.854 7.64592L7 8.79292L9.646 6.14592C9.69244 6.09935 9.74762 6.06241 9.80837 6.0372C9.86911 6.012 9.93423 5.99902 10 5.99902C10.0658 5.99902 10.1309 6.012 10.1916 6.0372C10.2524 6.06241 10.3076 6.09935 10.354 6.14592V6.14592Z" fill="#1B1B1B"/>
<path d="M4.406 3.342C5.40548 2.48014 6.68024 2.00414 8 2C10.69 2 12.923 4 13.166 6.579C14.758 6.804 16 8.137 16 9.773C16 11.569 14.502 13 12.687 13H3.781C1.708 13 0 11.366 0 9.318C0 7.555 1.266 6.095 2.942 5.725C3.085 4.862 3.64 4.002 4.406 3.342V3.342ZM5.059 4.099C4.302 4.752 3.906 5.539 3.906 6.155V6.603L3.461 6.652C2.064 6.805 1 7.952 1 9.318C1 10.785 2.23 12 3.781 12H12.687C13.98 12 15 10.988 15 9.773C15 8.557 13.98 7.545 12.687 7.545H12.187V7.045C12.188 4.825 10.328 3 8 3C6.91988 3.00431 5.87684 3.39443 5.059 4.1V4.099Z" fill="#1B1B1B"/>
</svg>
