<svg width="16" height="16" viewBox="0 0 16 16" fill="none" xmlns="http://www.w3.org/2000/svg">
<g clip-path="url(#clip0_1419_1411)">
<path d="M14 1C14.2652 1 14.5196 1.10536 14.7071 1.29289C14.8946 1.48043 15 1.73478 15 2V14C15 14.2652 14.8946 14.5196 14.7071 14.7071C14.5196 14.8946 14.2652 15 14 15H2C1.73478 15 1.48043 14.8946 1.29289 14.7071C1.10536 14.5196 1 14.2652 1 14V2C1 1.73478 1.10536 1.48043 1.29289 1.29289C1.48043 1.10536 1.73478 1 2 1H14ZM2 0C1.46957 0 0.960859 0.210714 0.585786 0.585786C0.210714 0.960859 0 1.46957 0 2L0 14C0 14.5304 0.210714 15.0391 0.585786 15.4142C0.960859 15.7893 1.46957 16 2 16H14C14.5304 16 15.0391 15.7893 15.4142 15.4142C15.7893 15.0391 16 14.5304 16 14V2C16 1.46957 15.7893 0.960859 15.4142 0.585786C15.0391 0.210714 14.5304 0 14 0L2 0Z" fill="currentColor"/>
<path d="M6.85401 4.64592C6.90057 4.69236 6.93752 4.74754 6.96272 4.80828C6.98793 4.86903 7.0009 4.93415 7.0009 4.99992C7.0009 5.06568 6.98793 5.13081 6.96272 5.19155C6.93752 5.2523 6.90057 5.30747 6.85401 5.35392L4.20701 7.99992L6.85401 10.6459C6.9479 10.7398 7.00064 10.8671 7.00064 10.9999C7.00064 11.1327 6.9479 11.26 6.85401 11.3539C6.76012 11.4478 6.63278 11.5005 6.50001 11.5005C6.36723 11.5005 6.2399 11.4478 6.14601 11.3539L3.14601 8.35392C3.09945 8.30747 3.0625 8.2523 3.0373 8.19155C3.01209 8.13081 2.99911 8.06568 2.99911 7.99992C2.99911 7.93415 3.01209 7.86903 3.0373 7.80828C3.0625 7.74754 3.09945 7.69236 3.14601 7.64592L6.14601 4.64592C6.19245 4.59935 6.24763 4.56241 6.30838 4.5372C6.36912 4.512 6.43424 4.49902 6.50001 4.49902C6.56578 4.49902 6.6309 4.512 6.69164 4.5372C6.75239 4.56241 6.80756 4.59935 6.85401 4.64592V4.64592ZM9.14601 4.64592C9.09945 4.69236 9.0625 4.74754 9.0373 4.80828C9.01209 4.86903 8.99911 4.93415 8.99911 4.99992C8.99911 5.06568 9.01209 5.13081 9.0373 5.19155C9.0625 5.2523 9.09945 5.30747 9.14601 5.35392L11.793 7.99992L9.14601 10.6459C9.05212 10.7398 8.99938 10.8671 8.99938 10.9999C8.99938 11.1327 9.05212 11.26 9.14601 11.3539C9.2399 11.4478 9.36723 11.5005 9.50001 11.5005C9.63278 11.5005 9.76012 11.4478 9.85401 11.3539L12.854 8.35392C12.9006 8.30747 12.9375 8.2523 12.9627 8.19155C12.9879 8.13081 13.0009 8.06568 13.0009 7.99992C13.0009 7.93415 12.9879 7.86903 12.9627 7.80828C12.9375 7.74754 12.9006 7.69236 12.854 7.64592L9.85401 4.64592C9.80756 4.59935 9.75239 4.56241 9.69164 4.5372C9.6309 4.512 9.56578 4.49902 9.50001 4.49902C9.43424 4.49902 9.36912 4.512 9.30838 4.5372C9.24763 4.56241 9.19245 4.59935 9.14601 4.64592V4.64592Z" fill="currentColor"/>
</g>
<defs>
<clipPath id="clip0_1419_1411">
<rect width="16" height="16" fill="white"/>
</clipPath>
</defs>
</svg>
