<svg width="16" height="16" viewBox="0 0 16 16" fill="none" xmlns="http://www.w3.org/2000/svg">
<path d="M5.85401 4.8539C5.9005 4.80741 5.93737 4.75222 5.96253 4.69148C5.98769 4.63074 6.00064 4.56564 6.00064 4.4999C6.00064 4.43416 5.98769 4.36905 5.96253 4.30832C5.93737 4.24758 5.9005 4.19239 5.85401 4.1459C5.80752 4.09941 5.75233 4.06253 5.69159 4.03738C5.63085 4.01222 5.56575 3.99927 5.50001 3.99927C5.43426 3.99927 5.36916 4.01222 5.30843 4.03738C5.24769 4.06253 5.1925 4.09941 5.14601 4.1459L1.64601 7.6459C1.59945 7.69234 1.5625 7.74752 1.5373 7.80827C1.51209 7.86901 1.49911 7.93413 1.49911 7.9999C1.49911 8.06567 1.51209 8.13079 1.5373 8.19153C1.5625 8.25228 1.59945 8.30745 1.64601 8.3539L5.14601 11.8539C5.2399 11.9478 5.36723 12.0005 5.50001 12.0005C5.63278 12.0005 5.76012 11.9478 5.85401 11.8539C5.9479 11.76 6.00064 11.6327 6.00064 11.4999C6.00064 11.3671 5.9479 11.2398 5.85401 11.1459L2.70701 7.9999L5.85401 4.8539V4.8539ZM10.146 4.8539C10.0521 4.76001 9.99938 4.63267 9.99938 4.4999C9.99938 4.36712 10.0521 4.23979 10.146 4.1459C10.2399 4.05201 10.3672 3.99927 10.5 3.99927C10.6328 3.99927 10.7601 4.05201 10.854 4.1459L14.354 7.6459C14.4006 7.69234 14.4375 7.74752 14.4627 7.80827C14.4879 7.86901 14.5009 7.93413 14.5009 7.9999C14.5009 8.06567 14.4879 8.13079 14.4627 8.19153C14.4375 8.25228 14.4006 8.30745 14.354 8.3539L10.854 11.8539C10.7601 11.9478 10.6328 12.0005 10.5 12.0005C10.3672 12.0005 10.2399 11.9478 10.146 11.8539C10.0521 11.76 9.99938 11.6327 9.99938 11.4999C9.99938 11.3671 10.0521 11.2398 10.146 11.1459L13.293 7.9999L10.146 4.8539V4.8539Z" fill="currentColor"/>
</svg>
