<svg width="16" height="16" viewBox="0 0 16 16" fill="none" xmlns="http://www.w3.org/2000/svg">
<path d="M10.478 1.64709C10.4973 1.58432 10.5041 1.51836 10.4979 1.45298C10.4917 1.3876 10.4727 1.32408 10.442 1.26604C10.4112 1.208 10.3693 1.15659 10.3187 1.11473C10.2681 1.07288 10.2098 1.0414 10.147 1.02209C10.0842 1.00279 10.0183 0.996037 9.9529 1.00222C9.88752 1.00841 9.82399 1.02742 9.76596 1.05815C9.70792 1.08889 9.65651 1.13075 9.61465 1.18136C9.57279 1.23197 9.54131 1.29032 9.52201 1.35309L5.52201 14.3531C5.48302 14.4799 5.49599 14.6169 5.55807 14.7341C5.62014 14.8514 5.72624 14.9391 5.85301 14.9781C5.97978 15.0171 6.11685 15.0041 6.23406 14.942C6.35127 14.88 6.43902 14.7739 6.47801 14.6471L10.478 1.64709V1.64709ZM4.85401 4.14609C4.90057 4.19254 4.93751 4.24771 4.96272 4.30846C4.98793 4.3692 5.0009 4.43433 5.0009 4.50009C5.0009 4.56586 4.98793 4.63098 4.96272 4.69173C4.93751 4.75247 4.90057 4.80765 4.85401 4.85409L1.70701 8.00009L4.85401 11.1461C4.9479 11.24 5.00064 11.3673 5.00064 11.5001C5.00064 11.6329 4.9479 11.7602 4.85401 11.8541C4.76012 11.948 4.63278 12.0007 4.50001 12.0007C4.36723 12.0007 4.2399 11.948 4.14601 11.8541L0.646009 8.35409C0.599446 8.30765 0.562503 8.25247 0.537296 8.19173C0.51209 8.13098 0.499115 8.06586 0.499115 8.00009C0.499115 7.93433 0.51209 7.8692 0.537296 7.80846C0.562503 7.74771 0.599446 7.69254 0.646009 7.64609L4.14601 4.14609C4.19245 4.09953 4.24763 4.06259 4.30838 4.03738C4.36912 4.01217 4.43424 3.9992 4.50001 3.9992C4.56578 3.9992 4.6309 4.01217 4.69164 4.03738C4.75239 4.06259 4.80756 4.09953 4.85401 4.14609V4.14609ZM11.146 4.14609C11.0994 4.19254 11.0625 4.24771 11.0373 4.30846C11.0121 4.3692 10.9991 4.43433 10.9991 4.50009C10.9991 4.56586 11.0121 4.63098 11.0373 4.69173C11.0625 4.75247 11.0994 4.80765 11.146 4.85409L14.293 8.00009L11.146 11.1461C11.0995 11.1926 11.0626 11.2478 11.0375 11.3085C11.0123 11.3692 10.9994 11.4343 10.9994 11.5001C10.9994 11.5658 11.0123 11.6309 11.0375 11.6917C11.0626 11.7524 11.0995 11.8076 11.146 11.8541C11.1925 11.9006 11.2477 11.9375 11.3084 11.9626C11.3692 11.9878 11.4343 12.0007 11.5 12.0007C11.5658 12.0007 11.6309 11.9878 11.6916 11.9626C11.7523 11.9375 11.8075 11.9006 11.854 11.8541L15.354 8.35409C15.4006 8.30765 15.4375 8.25247 15.4627 8.19173C15.4879 8.13098 15.5009 8.06586 15.5009 8.00009C15.5009 7.93433 15.4879 7.8692 15.4627 7.80846C15.4375 7.74771 15.4006 7.69254 15.354 7.64609L11.854 4.14609C11.8076 4.09953 11.7524 4.06259 11.6916 4.03738C11.6309 4.01217 11.5658 3.9992 11.5 3.9992C11.4342 3.9992 11.3691 4.01217 11.3084 4.03738C11.2476 4.06259 11.1925 4.09953 11.146 4.14609V4.14609Z" fill="#1B1B1B"/>
</svg>
