<svg width="16" height="16" viewBox="0 0 16 16" fill="none" xmlns="http://www.w3.org/2000/svg">
<path d="M9.96998 4.88006L10.923 8.69106C10.159 8.87806 9.13998 9.00006 7.99998 9.00006C6.85998 9.00006 5.84198 8.87806 5.07698 8.69106L6.02998 4.88006C6.63498 4.95706 7.29998 5.00006 7.99998 5.00006C8.69998 5.00006 9.36498 4.95706 9.96998 4.88006ZM9.72498 3.90206L8.96998 0.880059C8.71798 -0.129941 7.28198 -0.129941 7.02998 0.880059L6.27498 3.90006C6.79998 3.96506 7.38198 4.00006 7.99998 4.00006C8.61798 4.00006 9.19998 3.96406 9.72498 3.90206V3.90206ZM14.121 12.5151C14.2262 12.5411 14.3201 12.6007 14.3886 12.6847C14.457 12.7688 14.4963 12.8728 14.5004 12.9811C14.5046 13.0895 14.4735 13.1962 14.4117 13.2853C14.3499 13.3744 14.2609 13.441 14.158 13.4751L8.15798 15.4751C8.05541 15.5092 7.94454 15.5092 7.84198 15.4751L1.84198 13.4751C1.73907 13.441 1.65002 13.3744 1.58825 13.2853C1.52648 13.1962 1.49534 13.0895 1.49952 12.9811C1.50369 12.8728 1.54296 12.7688 1.6114 12.6847C1.67984 12.6007 1.77375 12.5411 1.87898 12.5151L4.26998 11.9171L4.83498 9.66006C5.69698 9.87206 6.79898 9.99906 7.99998 9.99906C9.20098 9.99906 10.303 9.87206 11.165 9.66006L11.73 11.9171L14.121 12.5151Z" fill="currentColor"/>
</svg>
