<svg width="16" height="16" viewBox="0 0 16 16" fill="none" xmlns="http://www.w3.org/2000/svg">
<g clip-path="url(#clip0_1419_2059)">
<path d="M2.82353 0C2.94834 0 3.06803 0.0495797 3.15629 0.137832C3.24454 0.226084 3.29412 0.34578 3.29412 0.470588V12.7059H15.5294C15.6542 12.7059 15.7739 12.7555 15.8622 12.8437C15.9504 12.932 16 13.0517 16 13.1765C16 13.3013 15.9504 13.421 15.8622 13.5092C15.7739 13.5975 15.6542 13.6471 15.5294 13.6471H13.6471V15.5294C13.6471 15.6542 13.5975 15.7739 13.5092 15.8622C13.421 15.9504 13.3013 16 13.1765 16C13.0517 16 12.932 15.9504 12.8437 15.8622C12.7555 15.7739 12.7059 15.6542 12.7059 15.5294V13.6471H2.82353C2.69872 13.6471 2.57903 13.5975 2.49077 13.5092C2.40252 13.421 2.35294 13.3013 2.35294 13.1765V3.29412H0.470588C0.34578 3.29412 0.226084 3.24454 0.137832 3.15629C0.0495797 3.06803 0 2.94834 0 2.82353C0 2.69872 0.0495797 2.57903 0.137832 2.49077C0.226084 2.40252 0.34578 2.35294 0.470588 2.35294H2.35294V0.470588C2.35294 0.34578 2.40252 0.226084 2.49077 0.137832C2.57903 0.0495797 2.69872 0 2.82353 0ZM5.17647 2.82353C5.17647 2.69872 5.22605 2.57903 5.3143 2.49077C5.40256 2.40252 5.52225 2.35294 5.64706 2.35294H13.1765C13.3013 2.35294 13.421 2.40252 13.5092 2.49077C13.5975 2.57903 13.6471 2.69872 13.6471 2.82353V10.3529C13.6471 10.4777 13.5975 10.5974 13.5092 10.6857C13.421 10.774 13.3013 10.8235 13.1765 10.8235C13.0517 10.8235 12.932 10.774 12.8437 10.6857C12.7555 10.5974 12.7059 10.4777 12.7059 10.3529V3.29412H5.64706C5.52225 3.29412 5.40256 3.24454 5.3143 3.15629C5.22605 3.06803 5.17647 2.94834 5.17647 2.82353Z" fill="#1B1B1B"/>
</g>
<defs>
<clipPath id="clip0_1419_2059">
<rect width="16" height="16" fill="white"/>
</clipPath>
</defs>
</svg>
