<svg width="16" height="16" viewBox="0 0 16 16" fill="none" xmlns="http://www.w3.org/2000/svg">
<path fill-rule="evenodd" clip-rule="evenodd" d="M0.110058 3.187C0.15692 3.12862 0.216291 3.08151 0.283792 3.04915C0.351293 3.01678 0.425199 2.99999 0.500058 3H13.5001C13.5749 3.00003 13.6487 3.01685 13.7162 3.04922C13.7836 3.08159 13.843 3.12868 13.8898 3.18703C13.9366 3.24537 13.9698 3.31349 13.9868 3.38635C14.0038 3.4592 14.0042 3.53495 13.9881 3.608L13.7681 4.599C14.5158 4.79864 15.1574 5.27941 15.5591 5.94091C15.9607 6.60242 16.0913 7.39352 15.9235 8.14902C15.7558 8.90451 15.3026 9.56598 14.6587 9.99531C14.0148 10.4246 13.23 10.5886 12.4681 10.453L12.3361 11.043C12.2125 11.5981 11.9035 12.0944 11.4599 12.4502C11.0163 12.806 10.4647 12.9999 9.89606 13H4.10406C3.53528 12.9999 2.98355 12.8058 2.53994 12.4498C2.09633 12.0939 1.78737 11.5972 1.66406 11.042L0.012058 3.608C-0.00398626 3.53512 -0.00351214 3.45957 0.0134456 3.38689C0.0304034 3.31421 0.0634146 3.24626 0.110058 3.188V3.187ZM12.6841 9.475C13.1887 9.55844 13.7061 9.44535 14.13 9.15899C14.5538 8.87263 14.8518 8.43477 14.9627 7.93544C15.0736 7.4361 14.989 6.91326 14.7262 6.4744C14.4635 6.03555 14.0426 5.71404 13.5501 5.576L12.6841 9.476V9.475ZM1.12406 4L2.64006 10.825C2.71401 11.1582 2.89936 11.4562 3.16553 11.6698C3.4317 11.8834 3.76276 11.9999 4.10406 12H9.89606C10.2374 11.9999 10.5684 11.8834 10.8346 11.6698C11.1008 11.4562 11.2861 11.1582 11.3601 10.825L12.8771 4H1.12306H1.12406Z" fill="#1B1B1B"/>
</svg>
