<svg width="16" height="16" viewBox="0 0 16 16" fill="none" xmlns="http://www.w3.org/2000/svg">
<g clip-path="url(#clip0_1419_1439)">
<path fill-rule="evenodd" clip-rule="evenodd" d="M12.096 6.223C12.4151 6.0806 12.7182 5.90461 13 5.698V7C13 7.289 12.787 7.654 12.247 8.007C12.8421 7.97322 13.438 8.05821 14 8.257V4C14 2.993 13.125 2.245 12.096 1.777C11.022 1.289 9.573 1 8 1C6.427 1 4.978 1.289 3.904 1.777C2.875 2.245 2 2.993 2 4V13C2 14.007 2.875 14.755 3.904 15.223C4.978 15.71 6.427 16 8 16C8.536 16 9.058 15.966 9.555 15.903C9.24297 15.6325 8.96943 15.3206 8.742 14.976C8.5 14.992 8.252 15 8 15C6.536 15 5.234 14.73 4.318 14.313C3.356 13.875 3 13.373 3 13V11.698C3.271 11.9 3.58 12.076 3.904 12.223C4.978 12.71 6.427 13 8 13H8.027C7.99028 12.6677 7.99028 12.3323 8.027 12H8C6.536 12 5.234 11.73 4.318 11.313C3.356 10.875 3 10.373 3 10V8.698C3.271 8.9 3.58 9.076 3.904 9.223C4.978 9.71 6.427 10 8 10C8.262 10 8.52 9.992 8.774 9.976C9.07211 9.53697 9.44513 9.15379 9.876 8.844C9.298 8.944 8.666 9 8 9C6.536 9 5.234 8.73 4.318 8.313C3.356 7.875 3 7.373 3 7V5.698C3.271 5.9 3.58 6.076 3.904 6.223C4.978 6.711 6.427 7 8 7C9.573 7 11.022 6.711 12.096 6.223ZM3 4C3 3.626 3.356 3.125 4.318 2.687C5.234 2.271 6.536 2 8 2C9.464 2 10.766 2.27 11.682 2.687C12.644 3.125 13 3.627 13 4C13 4.374 12.644 4.875 11.682 5.313C10.766 5.729 9.464 6 8 6C6.536 6 5.234 5.73 4.318 5.313C3.356 4.875 3 4.373 3 4Z" fill="#1B1B1B"/>
<path fill-rule="evenodd" clip-rule="evenodd" d="M11.886 9.45999C12.066 8.84699 12.934 8.84699 13.115 9.45999L13.158 9.60799C13.1849 9.6998 13.232 9.78442 13.2958 9.85562C13.3597 9.92683 13.4387 9.98281 13.5271 10.0195C13.6154 10.0561 13.7109 10.0725 13.8064 10.0674C13.9019 10.0623 13.9951 10.0358 14.079 9.98999L14.215 9.91599C14.776 9.60999 15.39 10.224 15.085 10.785L15.01 10.921C14.9643 11.0049 14.9381 11.098 14.933 11.1934C14.928 11.2888 14.9445 11.3841 14.9811 11.4723C15.0177 11.5605 15.0737 11.6394 15.1448 11.7032C15.2159 11.767 15.3003 11.8141 15.392 11.841L15.541 11.886C16.153 12.066 16.153 12.934 15.541 13.115L15.391 13.158C15.2994 13.1851 15.215 13.2323 15.144 13.2963C15.073 13.3603 15.0172 13.4393 14.9808 13.5276C14.9444 13.616 14.9282 13.7113 14.9334 13.8067C14.9386 13.9021 14.9651 13.9952 15.011 14.079L15.085 14.215C15.39 14.776 14.776 15.39 14.215 15.085L14.079 15.01C13.9951 14.9643 13.902 14.938 13.8066 14.933C13.7112 14.928 13.6159 14.9445 13.5277 14.9811C13.4395 15.0177 13.3606 15.0736 13.2968 15.1447C13.233 15.2158 13.1859 15.3003 13.159 15.392L13.114 15.541C12.934 16.153 12.066 16.153 11.885 15.541L11.842 15.391C11.8149 15.2994 11.7677 15.215 11.7037 15.144C11.6397 15.073 11.5607 15.0172 11.4724 14.9808C11.384 14.9444 11.2887 14.9281 11.1933 14.9334C11.0978 14.9386 11.0048 14.9651 10.921 15.011L10.785 15.085C10.224 15.39 9.61 14.776 9.915 14.215L9.99 14.079C10.0357 13.9951 10.062 13.902 10.067 13.8066C10.072 13.7112 10.0555 13.6159 10.0189 13.5277C9.98227 13.4395 9.92635 13.3606 9.85525 13.2968C9.78415 13.233 9.69967 13.1859 9.608 13.159L9.46 13.114C8.847 12.934 8.847 12.066 9.46 11.885L9.608 11.842C9.69981 11.8151 9.78442 11.768 9.85563 11.7042C9.92684 11.6403 9.98282 11.5613 10.0195 11.4729C10.0561 11.3846 10.0725 11.2891 10.0674 11.1936C10.0623 11.0981 10.0358 11.0049 9.99 10.921L9.916 10.785C9.61 10.224 10.224 9.60999 10.785 9.91499L10.921 9.98999C11.0049 10.0357 11.098 10.0619 11.1934 10.0669C11.2888 10.0719 11.3841 10.0555 11.4723 10.0189C11.5605 9.98226 11.6394 9.92635 11.7032 9.85524C11.767 9.78414 11.8141 9.69966 11.841 9.60799L11.886 9.45999V9.45999ZM14 12.5C14 12.697 13.9612 12.892 13.8858 13.074C13.8104 13.256 13.7 13.4214 13.5607 13.5607C13.4214 13.6999 13.256 13.8104 13.074 13.8858C12.892 13.9612 12.697 14 12.5 14C12.303 14 12.108 13.9612 11.926 13.8858C11.744 13.8104 11.5786 13.6999 11.4393 13.5607C11.3001 13.4214 11.1896 13.256 11.1142 13.074C11.0388 12.892 11 12.697 11 12.5C11 12.1022 11.158 11.7206 11.4393 11.4393C11.7206 11.158 12.1022 11 12.5 11C12.8978 11 13.2794 11.158 13.5607 11.4393C13.842 11.7206 14 12.1022 14 12.5V12.5Z" fill="#1B1B1B"/>
</g>
<defs>
<clipPath id="clip0_1419_1439">
<rect width="16" height="16" fill="white"/>
</clipPath>
</defs>
</svg>
