<svg width="16" height="16" viewBox="0 0 16 16" fill="none" xmlns="http://www.w3.org/2000/svg">
<path fill-rule="evenodd" clip-rule="evenodd" d="M3.904 1.777C4.978 1.289 6.427 1 8 1C9.573 1 11.022 1.289 12.096 1.777C13.125 2.245 14 2.993 14 4C14 5.007 13.125 5.755 12.096 6.223C11.022 6.711 9.573 7 8 7C6.427 7 4.978 6.711 3.904 6.223C2.875 5.755 2 5.007 2 4C2 2.993 2.875 2.245 3.904 1.777V1.777Z" fill="#1B1B1B"/>
<path d="M2 6.16089V6.99989C2 8.00689 2.875 8.75489 3.904 9.22289C4.978 9.70989 6.427 9.99989 8 9.99989C9.573 9.99989 11.022 9.71089 12.096 9.22289C13.125 8.75489 14 8.00689 14 6.99989V6.16089C13.543 6.59289 12.996 6.91189 12.51 7.13289C11.278 7.69289 9.682 7.99989 8 7.99989C6.318 7.99989 4.722 7.69289 3.49 7.13289C3.004 6.91289 2.457 6.59289 2 6.16089Z" fill="#1B1B1B"/>
<path d="M2 9.16089V9.99989C2 11.0069 2.875 11.7549 3.904 12.2229C4.978 12.7109 6.427 12.9999 8 12.9999C9.573 12.9999 11.022 12.7109 12.096 12.2229C13.125 11.7549 14 11.0069 14 9.99989V9.16089C13.543 9.59289 12.996 9.91189 12.51 10.1329C11.278 10.6929 9.682 10.9999 8 10.9999C6.318 10.9999 4.722 10.6929 3.49 10.1329C3.004 9.91289 2.457 9.59289 2 9.16089Z" fill="#1B1B1B"/>
<path d="M2 12.1609V12.9999C2 14.0069 2.875 14.7549 3.904 15.2229C4.978 15.7109 6.427 15.9999 8 15.9999C9.573 15.9999 11.022 15.7109 12.096 15.2229C13.125 14.7549 14 14.0069 14 12.9999V12.1609C13.543 12.5929 12.996 12.9119 12.51 13.1329C11.278 13.6929 9.682 13.9999 8 13.9999C6.318 13.9999 4.722 13.6929 3.49 13.1329C3.004 12.9129 2.457 12.5929 2 12.1609Z" fill="#1B1B1B"/>
</svg>
