<svg width="16" height="16" viewBox="0 0 16 16" fill="none" xmlns="http://www.w3.org/2000/svg">
<path d="M3.904 1.777C4.978 1.289 6.427 1 8 1C9.573 1 11.022 1.289 12.096 1.777C13.125 2.245 14 2.993 14 4C14 5.007 13.125 5.755 12.096 6.223C11.022 6.711 9.573 7 8 7C6.427 7 4.978 6.711 3.904 6.223C2.875 5.755 2 5.007 2 4C2 2.993 2.875 2.245 3.904 1.777V1.777Z" fill="#1B1B1B"/>
<path d="M2 6.16089V6.99989C2 8.00689 2.875 8.75489 3.904 9.22289C4.978 9.70989 6.427 9.99989 8 9.99989C8.262 9.99989 8.52 9.99189 8.774 9.97589C9.10704 9.48548 9.53309 9.0652 10.028 8.73889C10.3272 8.47718 10.6757 8.27781 11.0529 8.15246C11.4302 8.02711 11.8286 7.9783 12.225 8.00889C12.6833 7.98136 13.1432 8.02317 13.589 8.13289C13.845 7.80189 14 7.42289 14 6.99989V6.16089C13.543 6.59289 12.996 6.91189 12.51 7.13289C11.278 7.69289 9.682 7.99989 8 7.99989C6.318 7.99989 4.722 7.69289 3.49 7.13289C3.004 6.91289 2.457 6.59289 2 6.16089ZM8 13.9999C6.318 13.9999 4.722 13.6929 3.49 13.1329C3.004 12.9129 2.457 12.5929 2 12.1609V12.9999C2 14.0069 2.875 14.7549 3.904 15.2229C4.978 15.7109 6.427 15.9999 8 15.9999C8.09 15.9999 8.178 15.9999 8.266 15.9969C8.09121 15.6937 7.99946 15.3498 8 14.9999V13.9999ZM8.01 12.7999C7.97057 12.1887 8.05457 11.5759 8.257 10.9979L8 10.9999C6.318 10.9999 4.722 10.6929 3.49 10.1329C3.004 9.91289 2.457 9.59289 2 9.16089V9.99989C2 11.0069 2.875 11.7549 3.904 12.2229C4.978 12.7109 6.427 12.9999 8 12.9999C7.99982 12.9331 8.00315 12.8663 8.01 12.7999V12.7999ZM9 12.9999C9 12.7347 9.10536 12.4803 9.29289 12.2928C9.48043 12.1052 9.73478 11.9999 10 11.9999H14C14.2652 11.9999 14.5196 12.1052 14.7071 12.2928C14.8946 12.4803 15 12.7347 15 12.9999V14.9999C15 15.2651 14.8946 15.5195 14.7071 15.707C14.5196 15.8945 14.2652 15.9999 14 15.9999H10C9.73478 15.9999 9.48043 15.8945 9.29289 15.707C9.10536 15.5195 9 15.2651 9 14.9999V12.9999Z" fill="#1B1B1B"/>
<path fill-rule="evenodd" clip-rule="evenodd" d="M12 10C11.7348 10 11.4804 10.1054 11.2929 10.2929C11.1054 10.4804 11 10.7348 11 11V12.5C11 12.6326 10.9473 12.7598 10.8536 12.8536C10.7598 12.9473 10.6326 13 10.5 13C10.3674 13 10.2402 12.9473 10.1464 12.8536C10.0527 12.7598 10 12.6326 10 12.5V11C10 10.4696 10.2107 9.96086 10.5858 9.58579C10.9609 9.21071 11.4696 9 12 9C12.5304 9 13.0391 9.21071 13.4142 9.58579C13.7893 9.96086 14 10.4696 14 11V12.5C14 12.6326 13.9473 12.7598 13.8536 12.8536C13.7598 12.9473 13.6326 13 13.5 13C13.3674 13 13.2402 12.9473 13.1464 12.8536C13.0527 12.7598 13 12.6326 13 12.5V11C13 10.7348 12.8946 10.4804 12.7071 10.2929C12.5196 10.1054 12.2652 10 12 10Z" fill="#1B1B1B"/>
</svg>
