<svg width="16" height="16" viewBox="0 0 16 16" fill="none" xmlns="http://www.w3.org/2000/svg">
<path fill-rule="evenodd" clip-rule="evenodd" d="M12.5 16C13.4283 16 14.3185 15.6313 14.9749 14.9749C15.6313 14.3185 16 13.4283 16 12.5C16 11.5717 15.6313 10.6815 14.9749 10.0251C14.3185 9.36875 13.4283 9 12.5 9C11.5717 9 10.6815 9.36875 10.0251 10.0251C9.36875 10.6815 9 11.5717 9 12.5C9 13.4283 9.36875 14.3185 10.0251 14.9749C10.6815 15.6313 11.5717 16 12.5 16V16ZM13 11C13 10.8674 12.9473 10.7402 12.8536 10.6464C12.7598 10.5527 12.6326 10.5 12.5 10.5C12.3674 10.5 12.2402 10.5527 12.1464 10.6464C12.0527 10.7402 12 10.8674 12 11V12H11C10.8674 12 10.7402 12.0527 10.6464 12.1464C10.5527 12.2402 10.5 12.3674 10.5 12.5C10.5 12.6326 10.5527 12.7598 10.6464 12.8536C10.7402 12.9473 10.8674 13 11 13H12V14C12 14.1326 12.0527 14.2598 12.1464 14.3536C12.2402 14.4473 12.3674 14.5 12.5 14.5C12.6326 14.5 12.7598 14.4473 12.8536 14.3536C12.9473 14.2598 13 14.1326 13 14V13H14C14.1326 13 14.2598 12.9473 14.3536 12.8536C14.4473 12.7598 14.5 12.6326 14.5 12.5C14.5 12.3674 14.4473 12.2402 14.3536 12.1464C14.2598 12.0527 14.1326 12 14 12H13V11Z" fill="#1B1B1B"/>
<path d="M8 1C6.427 1 4.978 1.289 3.904 1.777C2.875 2.245 2 2.993 2 4C2 5.007 2.875 5.755 3.904 6.223C4.978 6.711 6.427 7 8 7C9.573 7 11.022 6.711 12.096 6.223C13.125 5.755 14 5.007 14 4C14 2.993 13.125 2.245 12.096 1.777C11.022 1.289 9.573 1 8 1Z" fill="#1B1B1B"/>
<path d="M2 6.99989V6.16089C2.457 6.59289 3.004 6.91189 3.49 7.13289C4.722 7.69289 6.318 7.99989 8 7.99989C9.682 7.99989 11.278 7.69289 12.51 7.13289C12.996 6.91289 13.543 6.59289 14 6.16089V6.99989C14 7.42389 13.845 7.80189 13.589 8.13289C12.6943 7.9112 11.7531 7.96901 10.8922 8.29853C10.0313 8.62804 9.29205 9.21344 8.774 9.97589C8.51632 9.992 8.25819 10 8 9.99989C6.427 9.99989 4.978 9.71089 3.904 9.22289C2.875 8.75489 2 8.00689 2 6.99989ZM8.257 10.9979L8 10.9999C6.318 10.9999 4.722 10.6929 3.49 10.1329C3.004 9.91289 2.457 9.59289 2 9.16089V9.99989C2 11.0069 2.875 11.7549 3.904 12.2229C4.978 12.7109 6.427 12.9999 8 12.9999H8.027C7.95314 12.3238 8.03173 11.6397 8.257 10.9979V10.9979ZM8.255 13.9979L8 13.9999C6.318 13.9999 4.722 13.6929 3.49 13.1329C3.004 12.9129 2.457 12.5929 2 12.1609V12.9999C2 14.0069 2.875 14.7549 3.904 15.2229C4.978 15.7109 6.427 15.9999 8 15.9999C8.536 15.9999 9.058 15.9659 9.555 15.9029C8.96378 15.3914 8.51578 14.7349 8.255 13.9979V13.9979Z" fill="#1B1B1B"/>
</svg>
