<svg width="16" height="16" viewBox="0 0 16 16" fill="none" xmlns="http://www.w3.org/2000/svg">
<path fill-rule="evenodd" clip-rule="evenodd" d="M12.5 16C13.4283 16 14.3185 15.6313 14.9749 14.9749C15.6313 14.3185 16 13.4283 16 12.5C16 11.5717 15.6313 10.6815 14.9749 10.0251C14.3185 9.36875 13.4283 9 12.5 9C11.5717 9 10.6815 9.36875 10.0251 10.0251C9.36875 10.6815 9 11.5717 9 12.5C9 13.4283 9.36875 14.3185 10.0251 14.9749C10.6815 15.6313 11.5717 16 12.5 16V16ZM11 12C10.8674 12 10.7402 12.0527 10.6464 12.1464C10.5527 12.2402 10.5 12.3674 10.5 12.5C10.5 12.6326 10.5527 12.7598 10.6464 12.8536C10.7402 12.9473 10.8674 13 11 13H14C14.1326 13 14.2598 12.9473 14.3536 12.8536C14.4473 12.7598 14.5 12.6326 14.5 12.5C14.5 12.3674 14.4473 12.2402 14.3536 12.1464C14.2598 12.0527 14.1326 12 14 12H11Z" fill="#1B1B1B"/>
<path fill-rule="evenodd" clip-rule="evenodd" d="M12.096 6.223C12.4151 6.0806 12.7182 5.90461 13 5.698V7C13 7.289 12.787 7.654 12.247 8.007C12.8421 7.97322 13.438 8.05821 14 8.257V4C14 2.993 13.125 2.245 12.096 1.777C11.022 1.289 9.573 1 8 1C6.427 1 4.978 1.289 3.904 1.777C2.875 2.245 2 2.993 2 4V13C2 14.007 2.875 14.755 3.904 15.223C4.978 15.71 6.427 16 8 16C8.536 16 9.058 15.966 9.555 15.903C9.24297 15.6325 8.96943 15.3206 8.742 14.976C8.5 14.992 8.252 15 8 15C6.536 15 5.234 14.73 4.318 14.313C3.356 13.875 3 13.373 3 13V11.698C3.271 11.9 3.58 12.076 3.904 12.223C4.978 12.71 6.427 13 8 13H8.027C7.99028 12.6677 7.99028 12.3323 8.027 12H8C6.536 12 5.234 11.73 4.318 11.313C3.356 10.875 3 10.373 3 10V8.698C3.271 8.9 3.58 9.076 3.904 9.223C4.978 9.71 6.427 10 8 10C8.262 10 8.52 9.992 8.774 9.976C9.07211 9.53697 9.44513 9.15379 9.876 8.844C9.298 8.944 8.666 9 8 9C6.536 9 5.234 8.73 4.318 8.313C3.356 7.875 3 7.373 3 7V5.698C3.271 5.9 3.58 6.076 3.904 6.223C4.978 6.711 6.427 7 8 7C9.573 7 11.022 6.711 12.096 6.223ZM3 4C3 3.626 3.356 3.125 4.318 2.687C5.234 2.271 6.536 2 8 2C9.464 2 10.766 2.27 11.682 2.687C12.644 3.125 13 3.627 13 4C13 4.374 12.644 4.875 11.682 5.313C10.766 5.729 9.464 6 8 6C6.536 6 5.234 5.73 4.318 5.313C3.356 4.875 3 4.373 3 4Z" fill="#1B1B1B"/>
</svg>
