<svg width="16" height="16" viewBox="0 0 16 16" fill="none" xmlns="http://www.w3.org/2000/svg">
<g clip-path="url(#clip0_1419_1435)">
<path fill-rule="evenodd" clip-rule="evenodd" d="M13.879 10.4141C13.3981 10.0967 12.8224 9.95512 12.2492 10.0132C11.6759 10.0713 11.1403 10.3256 10.7329 10.733C10.3255 11.1404 10.0712 11.676 10.0131 12.2492C9.95503 12.8225 10.0966 13.3982 10.414 13.8791L13.879 10.4141ZM14.586 11.1211L11.121 14.5861C11.6019 14.9035 12.1776 15.0451 12.7508 14.9869C13.3241 14.9288 13.8597 14.6746 14.2671 14.2672C14.6745 13.8598 14.9287 13.3242 14.9869 12.7509C15.045 12.1777 14.9034 11.602 14.586 11.1211V11.1211ZM10.026 10.0251C10.3498 9.69478 10.7359 9.43194 11.162 9.25176C11.588 9.07159 12.0455 8.97765 12.5081 8.97538C12.9707 8.97312 13.4291 9.06257 13.8569 9.23856C14.2847 9.41455 14.6733 9.6736 15.0004 10.0007C15.3274 10.3278 15.5864 10.7165 15.7623 11.1444C15.9382 11.5722 16.0276 12.0306 16.0252 12.4932C16.0228 12.9558 15.9288 13.4133 15.7485 13.8393C15.5683 14.2653 15.3054 14.6513 14.975 14.9751C14.3186 15.6315 13.4283 16.0003 12.5 16.0003C11.5717 16.0003 10.6814 15.6315 10.025 14.9751C9.36858 14.3187 8.99982 13.4284 8.99982 12.5001C8.99982 11.5718 9.36858 10.6815 10.025 10.0251H10.026Z" fill="#1B1B1B"/>
<path d="M8 1C6.427 1 4.978 1.289 3.904 1.777C2.875 2.245 2 2.993 2 4C2 5.007 2.875 5.755 3.904 6.223C4.978 6.711 6.427 7 8 7C9.573 7 11.022 6.711 12.096 6.223C13.125 5.755 14 5.007 14 4C14 2.993 13.125 2.245 12.096 1.777C11.022 1.289 9.573 1 8 1Z" fill="#1B1B1B"/>
<path d="M2 6.99989V6.16089C2.457 6.59289 3.004 6.91189 3.49 7.13289C4.722 7.69289 6.318 7.99989 8 7.99989C9.682 7.99989 11.278 7.69289 12.51 7.13289C12.996 6.91289 13.543 6.59289 14 6.16089V6.99989C14 7.42389 13.845 7.80189 13.589 8.13289C12.6943 7.9112 11.7531 7.96901 10.8922 8.29853C10.0313 8.62804 9.29205 9.21344 8.774 9.97589C8.51632 9.992 8.25819 10 8 9.99989C6.427 9.99989 4.978 9.71089 3.904 9.22289C2.875 8.75489 2 8.00689 2 6.99989ZM8.257 10.9979L8 10.9999C6.318 10.9999 4.722 10.6929 3.49 10.1329C3.004 9.91289 2.457 9.59289 2 9.16089V9.99989C2 11.0069 2.875 11.7549 3.904 12.2229C4.978 12.7109 6.427 12.9999 8 12.9999H8.027C7.95314 12.3238 8.03173 11.6397 8.257 10.9979V10.9979ZM8.255 13.9979L8 13.9999C6.318 13.9999 4.722 13.6929 3.49 13.1329C3.004 12.9129 2.457 12.5929 2 12.1609V12.9999C2 14.0069 2.875 14.7549 3.904 15.2229C4.978 15.7109 6.427 15.9999 8 15.9999C8.536 15.9999 9.058 15.9659 9.555 15.9029C8.96378 15.3914 8.51578 14.7349 8.255 13.9979V13.9979Z" fill="#1B1B1B"/>
</g>
<defs>
<clipPath id="clip0_1419_1435">
<rect width="16" height="16" fill="white"/>
</clipPath>
</defs>
</svg>
