<svg width="16" height="16" viewBox="0 0 16 16" fill="none" xmlns="http://www.w3.org/2000/svg">
<path d="M8 1C6.427 1 4.978 1.289 3.904 1.777C2.875 2.245 2 2.993 2 4C2 5.007 2.875 5.755 3.904 6.223C4.978 6.711 6.427 7 8 7C9.573 7 11.022 6.711 12.096 6.223C13.125 5.755 14 5.007 14 4C14 2.993 13.125 2.245 12.096 1.777C11.022 1.289 9.573 1 8 1Z" fill="#1B1B1B"/>
<path d="M2 6.99989V6.16089C2.457 6.59289 3.004 6.91189 3.49 7.13289C4.722 7.69289 6.318 7.99989 8 7.99989C9.682 7.99989 11.278 7.69289 12.51 7.13289C12.996 6.91289 13.543 6.59289 14 6.16089V6.99989C14 7.42389 13.845 7.80189 13.589 8.13289C12.6943 7.9112 11.7531 7.96901 10.8922 8.29853C10.0313 8.62804 9.29205 9.21344 8.774 9.97589C8.51632 9.992 8.25819 10 8 9.99989C6.427 9.99989 4.978 9.71089 3.904 9.22289C2.875 8.75489 2 8.00689 2 6.99989ZM8.257 10.9979L8 10.9999C6.318 10.9999 4.722 10.6929 3.49 10.1329C3.004 9.91289 2.457 9.59289 2 9.16089V9.99989C2 11.0069 2.875 11.7549 3.904 12.2229C4.978 12.7109 6.427 12.9999 8 12.9999H8.027C7.95314 12.3238 8.03173 11.6397 8.257 10.9979V10.9979ZM8.255 13.9979L8 13.9999C6.318 13.9999 4.722 13.6929 3.49 13.1329C3.004 12.9129 2.457 12.5929 2 12.1609V12.9999C2 14.0069 2.875 14.7549 3.904 15.2229C4.978 15.7109 6.427 15.9999 8 15.9999C8.536 15.9999 9.058 15.9659 9.555 15.9029C8.96378 15.3914 8.51578 14.7349 8.255 13.9979V13.9979Z" fill="#1B1B1B"/>
<path fill-rule="evenodd" clip-rule="evenodd" d="M12.5 16C13.4283 16 14.3185 15.6313 14.9749 14.9749C15.6313 14.3185 16 13.4283 16 12.5C16 11.5717 15.6313 10.6815 14.9749 10.0251C14.3185 9.36875 13.4283 9 12.5 9C11.5717 9 10.6815 9.36875 10.0251 10.0251C9.36875 10.6815 9 11.5717 9 12.5C9 13.4283 9.36875 14.3185 10.0251 14.9749C10.6815 15.6313 11.5717 16 12.5 16V16ZM11.854 11.146C11.7601 11.0521 11.6328 10.9994 11.5 10.9994C11.3672 10.9994 11.2399 11.0521 11.146 11.146C11.0521 11.2399 10.9994 11.3672 10.9994 11.5C10.9994 11.6328 11.0521 11.7601 11.146 11.854L11.793 12.5L11.146 13.146C11.0521 13.2399 10.9994 13.3672 10.9994 13.5C10.9994 13.6328 11.0521 13.7601 11.146 13.854C11.2399 13.9479 11.3672 14.0006 11.5 14.0006C11.6328 14.0006 11.7601 13.9479 11.854 13.854L12.5 13.207L13.146 13.854C13.2399 13.9479 13.3672 14.0006 13.5 14.0006C13.6328 14.0006 13.7601 13.9479 13.854 13.854C13.9479 13.7601 14.0006 13.6328 14.0006 13.5C14.0006 13.3672 13.9479 13.2399 13.854 13.146L13.207 12.5L13.854 11.854C13.9479 11.7601 14.0006 11.6328 14.0006 11.5C14.0006 11.3672 13.9479 11.2399 13.854 11.146C13.7601 11.0521 13.6328 10.9994 13.5 10.9994C13.3672 10.9994 13.2399 11.0521 13.146 11.146L12.5 11.793L11.854 11.146Z" fill="#1B1B1B"/>
</svg>
