<svg width="16" height="16" viewBox="0 0 16 16" fill="none" xmlns="http://www.w3.org/2000/svg">
<g clip-path="url(#clip0_1419_1441)">
<path fill-rule="evenodd" clip-rule="evenodd" d="M13.879 10.4141C13.3981 10.0967 12.8224 9.95512 12.2492 10.0132C11.6759 10.0713 11.1403 10.3256 10.7329 10.733C10.3255 11.1404 10.0712 11.676 10.0131 12.2492C9.95503 12.8225 10.0966 13.3982 10.414 13.8791L13.879 10.4141ZM14.586 11.1211L11.121 14.5861C11.6019 14.9035 12.1776 15.0451 12.7508 14.9869C13.3241 14.9288 13.8597 14.6746 14.2671 14.2672C14.6745 13.8598 14.9287 13.3242 14.9869 12.7509C15.045 12.1777 14.9034 11.602 14.586 11.1211V11.1211ZM10.026 10.0251C10.3498 9.69478 10.7359 9.43194 11.162 9.25176C11.588 9.07159 12.0455 8.97765 12.5081 8.97538C12.9707 8.97312 13.4291 9.06257 13.8569 9.23856C14.2847 9.41455 14.6733 9.6736 15.0004 10.0007C15.3274 10.3278 15.5864 10.7165 15.7623 11.1444C15.9382 11.5722 16.0276 12.0306 16.0252 12.4932C16.0228 12.9558 15.9288 13.4133 15.7485 13.8393C15.5683 14.2653 15.3054 14.6513 14.975 14.9751C14.3186 15.6315 13.4283 16.0003 12.5 16.0003C11.5717 16.0003 10.6814 15.6315 10.025 14.9751C9.36858 14.3187 8.99982 13.4284 8.99982 12.5001C8.99982 11.5718 9.36858 10.6815 10.025 10.0251H10.026Z" fill="#1B1B1B"/>
<path fill-rule="evenodd" clip-rule="evenodd" d="M12.096 6.223C12.4151 6.0806 12.7182 5.90461 13 5.698V7C13 7.289 12.787 7.654 12.247 8.007C12.8421 7.97322 13.438 8.05821 14 8.257V4C14 2.993 13.125 2.245 12.096 1.777C11.022 1.289 9.573 1 8 1C6.427 1 4.978 1.289 3.904 1.777C2.875 2.245 2 2.993 2 4V13C2 14.007 2.875 14.755 3.904 15.223C4.978 15.71 6.427 16 8 16C8.536 16 9.058 15.966 9.555 15.903C9.24297 15.6325 8.96943 15.3206 8.742 14.976C8.5 14.992 8.252 15 8 15C6.536 15 5.234 14.73 4.318 14.313C3.356 13.875 3 13.373 3 13V11.698C3.271 11.9 3.58 12.076 3.904 12.223C4.978 12.71 6.427 13 8 13H8.027C7.99028 12.6677 7.99028 12.3323 8.027 12H8C6.536 12 5.234 11.73 4.318 11.313C3.356 10.875 3 10.373 3 10V8.698C3.271 8.9 3.58 9.076 3.904 9.223C4.978 9.71 6.427 10 8 10C8.262 10 8.52 9.992 8.774 9.976C9.07211 9.53697 9.44513 9.15379 9.876 8.844C9.298 8.944 8.666 9 8 9C6.536 9 5.234 8.73 4.318 8.313C3.356 7.875 3 7.373 3 7V5.698C3.271 5.9 3.58 6.076 3.904 6.223C4.978 6.711 6.427 7 8 7C9.573 7 11.022 6.711 12.096 6.223ZM3 4C3 3.626 3.356 3.125 4.318 2.687C5.234 2.271 6.536 2 8 2C9.464 2 10.766 2.27 11.682 2.687C12.644 3.125 13 3.627 13 4C13 4.374 12.644 4.875 11.682 5.313C10.766 5.729 9.464 6 8 6C6.536 6 5.234 5.73 4.318 5.313C3.356 4.875 3 4.373 3 4Z" fill="#1B1B1B"/>
</g>
<defs>
<clipPath id="clip0_1419_1441">
<rect width="16" height="16" fill="white"/>
</clipPath>
</defs>
</svg>
