<svg width="16" height="16" viewBox="0 0 16 16" fill="none" xmlns="http://www.w3.org/2000/svg">
<path fill-rule="evenodd" clip-rule="evenodd" d="M13 5.698C12.7182 5.90461 12.4151 6.0806 12.096 6.223C11.022 6.711 9.573 7 8 7C6.427 7 4.978 6.711 3.904 6.223C3.58488 6.0806 3.28183 5.90461 3 5.698V7C3 7.374 3.356 7.875 4.318 8.313C5.234 8.729 6.536 9 8 9C8.666 9 9.298 8.944 9.876 8.844C9.446 9.154 9.072 9.537 8.774 9.976C8.51632 9.99211 8.25819 10.0001 8 10C6.427 10 4.978 9.711 3.904 9.223C3.58488 9.0806 3.28183 8.90461 3 8.698V10C3 10.374 3.356 10.875 4.318 11.313C5.234 11.729 6.536 12 8 12H8.027C7.99784 12.2656 7.99215 12.5334 8.01 12.8C8.00315 12.8664 7.99982 12.9332 8 13C6.427 13 4.978 12.711 3.904 12.223C3.58486 12.0806 3.28182 11.9046 3 11.698V13C3 13.374 3.356 13.875 4.318 14.313C5.234 14.729 6.536 15 8 15C8 15.363 8.097 15.704 8.266 15.997C8.178 16 8.089 16 8 16C6.427 16 4.978 15.711 3.904 15.223C2.875 14.755 2 14.007 2 13V4C2 2.993 2.875 2.245 3.904 1.777C4.978 1.289 6.427 1 8 1C9.573 1 11.022 1.289 12.096 1.777C13.125 2.245 14 2.993 14 4V8.256C13.438 8.05754 12.8421 7.9729 12.247 8.007C12.787 7.654 13 7.289 13 7V5.698ZM4.318 2.688C3.356 3.124 3 3.625 3 4C3 4.374 3.356 4.875 4.318 5.313C5.234 5.729 6.536 6 8 6C9.464 6 10.766 5.73 11.682 5.313C12.644 4.875 13 4.373 13 4C13 3.626 12.644 3.125 11.682 2.687C10.766 2.271 9.464 2 8 2C6.536 2 5.234 2.27 4.318 2.687V2.688Z" fill="#1B1B1B"/>
<path d="M9 13C9 12.7348 9.10536 12.4804 9.29289 12.2929C9.48043 12.1054 9.73478 12 10 12H14C14.2652 12 14.5196 12.1054 14.7071 12.2929C14.8946 12.4804 15 12.7348 15 13V15C15 15.2652 14.8946 15.5196 14.7071 15.7071C14.5196 15.8946 14.2652 16 14 16H10C9.73478 16 9.48043 15.8946 9.29289 15.7071C9.10536 15.5196 9 15.2652 9 15V13Z" fill="#1B1B1B"/>
<path fill-rule="evenodd" clip-rule="evenodd" d="M12 10C11.7348 10 11.4804 10.1054 11.2929 10.2929C11.1054 10.4804 11 10.7348 11 11V12.5C11 12.6326 10.9473 12.7598 10.8536 12.8536C10.7598 12.9473 10.6326 13 10.5 13C10.3674 13 10.2402 12.9473 10.1464 12.8536C10.0527 12.7598 10 12.6326 10 12.5V11C10 10.4696 10.2107 9.96086 10.5858 9.58579C10.9609 9.21071 11.4696 9 12 9C12.5304 9 13.0391 9.21071 13.4142 9.58579C13.7893 9.96086 14 10.4696 14 11V12.5C14 12.6326 13.9473 12.7598 13.8536 12.8536C13.7598 12.9473 13.6326 13 13.5 13C13.3674 13 13.2402 12.9473 13.1464 12.8536C13.0527 12.7598 13 12.6326 13 12.5V11C13 10.7348 12.8946 10.4804 12.7071 10.2929C12.5196 10.1054 12.2652 10 12 10Z" fill="#1B1B1B"/>
</svg>
