<svg width="16" height="16" viewBox="0 0 16 16" fill="none" xmlns="http://www.w3.org/2000/svg">
<path d="M8 1C6.427 1 4.978 1.289 3.904 1.777C2.875 2.245 2 2.993 2 4C2 5.007 2.875 5.755 3.904 6.223C4.978 6.711 6.427 7 8 7C9.573 7 11.022 6.711 12.096 6.223C13.125 5.755 14 5.007 14 4C14 2.993 13.125 2.245 12.096 1.777C11.022 1.289 9.573 1 8 1Z" fill="currentColor"/>
<path d="M2 6.99989V6.16089C2.457 6.59289 3.004 6.91189 3.49 7.13289C4.722 7.69289 6.318 7.99989 8 7.99989C9.682 7.99989 11.278 7.69289 12.51 7.13289C12.996 6.91289 13.543 6.59289 14 6.16089V6.99989C14 7.42389 13.845 7.80189 13.589 8.13289C12.6943 7.9112 11.7531 7.96901 10.8922 8.29853C10.0313 8.62804 9.29205 9.21344 8.774 9.97589C8.51632 9.992 8.25819 10 8 9.99989C6.427 9.99989 4.978 9.71089 3.904 9.22289C2.875 8.75489 2 8.00689 2 6.99989ZM8.257 10.9979L8 10.9999C6.318 10.9999 4.722 10.6929 3.49 10.1329C3.004 9.91289 2.457 9.59289 2 9.16089V9.99989C2 11.0069 2.875 11.7549 3.904 12.2229C4.978 12.7109 6.427 12.9999 8 12.9999H8.027C7.95314 12.3238 8.03173 11.6397 8.257 10.9979V10.9979ZM8.255 13.9979L8 13.9999C6.318 13.9999 4.722 13.6929 3.49 13.1329C3.004 12.9129 2.457 12.5929 2 12.1609V12.9999C2 14.0069 2.875 14.7549 3.904 15.2229C4.978 15.7109 6.427 15.9999 8 15.9999C8.536 15.9999 9.058 15.9659 9.555 15.9029C8.96378 15.3914 8.51578 14.7349 8.255 13.9979V13.9979Z" fill="currentColor"/>
<path fill-rule="evenodd" clip-rule="evenodd" d="M11.886 9.45999C12.066 8.84699 12.934 8.84699 13.115 9.45999L13.158 9.60799C13.1849 9.6998 13.2319 9.78442 13.2958 9.85562C13.3597 9.92683 13.4387 9.98281 13.5271 10.0195C13.6154 10.0561 13.7109 10.0725 13.8064 10.0674C13.9019 10.0623 13.995 10.0358 14.079 9.98999L14.215 9.91599C14.776 9.60999 15.39 10.224 15.085 10.785L15.01 10.921C14.9643 11.0049 14.938 11.098 14.933 11.1934C14.928 11.2888 14.9445 11.3841 14.9811 11.4723C15.0177 11.5605 15.0736 11.6394 15.1447 11.7032C15.2158 11.767 15.3003 11.8141 15.392 11.841L15.541 11.886C16.153 12.066 16.153 12.934 15.541 13.115L15.391 13.158C15.2994 13.1851 15.215 13.2323 15.144 13.2963C15.073 13.3603 15.0172 13.4393 14.9808 13.5276C14.9444 13.616 14.9281 13.7113 14.9334 13.8067C14.9386 13.9021 14.9651 13.9952 15.011 14.079L15.085 14.215C15.39 14.776 14.776 15.39 14.215 15.085L14.079 15.01C13.9951 14.9643 13.902 14.938 13.8066 14.933C13.7112 14.928 13.6159 14.9445 13.5277 14.9811C13.4395 15.0177 13.3606 15.0736 13.2968 15.1447C13.233 15.2158 13.1859 15.3003 13.159 15.392L13.114 15.541C12.934 16.153 12.066 16.153 11.885 15.541L11.842 15.391C11.8149 15.2994 11.7676 15.215 11.7037 15.144C11.6397 15.073 11.5607 15.0172 11.4723 14.9808C11.384 14.9444 11.2887 14.9281 11.1932 14.9334C11.0978 14.9386 11.0048 14.9651 10.921 15.011L10.785 15.085C10.224 15.39 9.60999 14.776 9.91499 14.215L9.98999 14.079C10.0357 13.9951 10.0619 13.902 10.0669 13.8066C10.0719 13.7112 10.0555 13.6159 10.0189 13.5277C9.98226 13.4395 9.92635 13.3606 9.85524 13.2968C9.78414 13.233 9.69966 13.1859 9.60799 13.159L9.45999 13.114C8.84699 12.934 8.84699 12.066 9.45999 11.885L9.60799 11.842C9.6998 11.8151 9.78442 11.768 9.85562 11.7042C9.92683 11.6403 9.98281 11.5613 10.0195 11.4729C10.0561 11.3846 10.0725 11.2891 10.0674 11.1936C10.0623 11.0981 10.0358 11.0049 9.98999 10.921L9.91599 10.785C9.60999 10.224 10.224 9.60999 10.785 9.91499L10.921 9.98999C11.0049 10.0357 11.098 10.0619 11.1934 10.0669C11.2888 10.0719 11.3841 10.0555 11.4723 10.0189C11.5605 9.98226 11.6394 9.92635 11.7032 9.85524C11.767 9.78414 11.8141 9.69966 11.841 9.60799L11.886 9.45999V9.45999ZM14 12.5C14 12.697 13.9612 12.892 13.8858 13.074C13.8104 13.256 13.6999 13.4214 13.5607 13.5607C13.4214 13.6999 13.256 13.8104 13.074 13.8858C12.892 13.9612 12.697 14 12.5 14C12.303 14 12.108 13.9612 11.926 13.8858C11.744 13.8104 11.5786 13.6999 11.4393 13.5607C11.3 13.4214 11.1896 13.256 11.1142 13.074C11.0388 12.892 11 12.697 11 12.5C11 12.1022 11.158 11.7206 11.4393 11.4393C11.7206 11.158 12.1022 11 12.5 11C12.8978 11 13.2794 11.158 13.5607 11.4393C13.842 11.7206 14 12.1022 14 12.5V12.5Z" fill="currentColor"/>
</svg>
