<svg width="16" height="16" viewBox="0 0 16 16" fill="none" xmlns="http://www.w3.org/2000/svg">
<path fill-rule="evenodd" clip-rule="evenodd" d="M12.5 9C13.4283 9 14.3185 9.36875 14.9749 10.0251C15.6313 10.6815 16 11.5717 16 12.5C16 13.4283 15.6313 14.3185 14.9749 14.9749C14.3185 15.6313 13.4283 16 12.5 16C11.5717 16 10.6815 15.6313 10.0251 14.9749C9.36875 14.3185 9 13.4283 9 12.5C9 11.5717 9.36875 10.6815 10.0251 10.0251C10.6815 9.36875 11.5717 9 12.5 9V9ZM12.854 14.854C12.8076 14.9006 12.7524 14.9375 12.6916 14.9627C12.6309 14.9879 12.5658 15.0009 12.5 15.0009C12.4342 15.0009 12.3691 14.9879 12.3084 14.9627C12.2476 14.9375 12.1924 14.9006 12.146 14.854L10.646 13.354C10.5521 13.2601 10.4994 13.1328 10.4994 13C10.4994 12.8672 10.5521 12.7399 10.646 12.646C10.7399 12.5521 10.8672 12.4994 11 12.4994C11.1328 12.4994 11.2601 12.5521 11.354 12.646L12 13.293V10.5C12 10.3674 12.0527 10.2402 12.1464 10.1464C12.2402 10.0527 12.3674 10 12.5 10C12.6326 10 12.7598 10.0527 12.8536 10.1464C12.9473 10.2402 13 10.3674 13 10.5V13.293L13.646 12.646C13.7399 12.5521 13.8672 12.4994 14 12.4994C14.1328 12.4994 14.2601 12.5521 14.354 12.646C14.4479 12.7399 14.5006 12.8672 14.5006 13C14.5006 13.1328 14.4479 13.2601 14.354 13.354L12.854 14.854V14.854Z" fill="currentColor"/>
<path d="M8 1C6.427 1 4.978 1.289 3.904 1.777C2.875 2.245 2 2.993 2 4C2 5.007 2.875 5.755 3.904 6.223C4.978 6.711 6.427 7 8 7C9.573 7 11.022 6.711 12.096 6.223C13.125 5.755 14 5.007 14 4C14 2.993 13.125 2.245 12.096 1.777C11.022 1.289 9.573 1 8 1Z" fill="currentColor"/>
<path d="M2 6.99989V6.16089C2.457 6.59289 3.004 6.91189 3.49 7.13289C4.722 7.69289 6.318 7.99989 8 7.99989C9.682 7.99989 11.278 7.69289 12.51 7.13289C12.996 6.91289 13.543 6.59289 14 6.16089V6.99989C14 7.42389 13.845 7.80189 13.589 8.13289C12.6943 7.9112 11.7531 7.96901 10.8922 8.29853C10.0313 8.62804 9.29205 9.21344 8.774 9.97589C8.51632 9.992 8.25819 10 8 9.99989C6.427 9.99989 4.978 9.71089 3.904 9.22289C2.875 8.75489 2 8.00689 2 6.99989ZM8.257 10.9979L8 10.9999C6.318 10.9999 4.722 10.6929 3.49 10.1329C3.004 9.91289 2.457 9.59289 2 9.16089V9.99989C2 11.0069 2.875 11.7549 3.904 12.2229C4.978 12.7109 6.427 12.9999 8 12.9999H8.027C7.95314 12.3238 8.03173 11.6397 8.257 10.9979V10.9979ZM8.255 13.9979L8 13.9999C6.318 13.9999 4.722 13.6929 3.49 13.1329C3.004 12.9129 2.457 12.5929 2 12.1609V12.9999C2 14.0069 2.875 14.7549 3.904 15.2229C4.978 15.7109 6.427 15.9999 8 15.9999C8.536 15.9999 9.058 15.9659 9.555 15.9029C8.96378 15.3914 8.51578 14.7349 8.255 13.9979V13.9979Z" fill="currentColor"/>
</svg>
