<svg width="16" height="16" viewBox="0 0 16 16" fill="none" xmlns="http://www.w3.org/2000/svg">
<path fill-rule="evenodd" clip-rule="evenodd" d="M4.318 2.687C3.356 3.125 3 3.627 3 4C3 4.374 3.356 4.875 4.318 5.313C5.234 5.729 6.536 6 8 6C9.464 6 10.766 5.73 11.682 5.313C12.644 4.875 13 4.373 13 4C13 3.626 12.644 3.125 11.682 2.687C10.766 2.271 9.464 2 8 2C6.536 2 5.234 2.27 4.318 2.687V2.687ZM13 5.698C12.7182 5.90461 12.4151 6.0806 12.096 6.223C11.022 6.711 9.573 7 8 7C6.427 7 4.978 6.711 3.904 6.223C3.58488 6.0806 3.28183 5.90461 3 5.698V7C3 7.374 3.356 7.875 4.318 8.313C5.234 8.729 6.536 9 8 9C9.464 9 10.766 8.73 11.682 8.313C12.644 7.875 13 7.373 13 7V5.698ZM14 4C14 2.993 13.125 2.245 12.096 1.777C11.022 1.289 9.573 1 8 1C6.427 1 4.978 1.289 3.904 1.777C2.875 2.245 2 2.993 2 4V13C2 14.007 2.875 14.755 3.904 15.223C4.978 15.71 6.427 16 8 16C9.573 16 11.022 15.711 12.096 15.223C13.125 14.755 14 14.007 14 13V4ZM13 8.698C12.7182 8.90461 12.4151 9.0806 12.096 9.223C11.022 9.71 9.573 10 8 10C6.427 10 4.978 9.711 3.904 9.223C3.58488 9.0806 3.28183 8.90461 3 8.698V10C3 10.374 3.356 10.875 4.318 11.313C5.234 11.729 6.536 12 8 12C9.464 12 10.766 11.73 11.682 11.313C12.644 10.875 13 10.373 13 10V8.698ZM13 11.698C12.729 11.9 12.42 12.076 12.096 12.223C11.022 12.71 9.573 13 8 13C6.427 13 4.978 12.711 3.904 12.223C3.58486 12.0806 3.28182 11.9046 3 11.698V13C3 13.374 3.356 13.875 4.318 14.313C5.234 14.729 6.536 15 8 15C9.464 15 10.766 14.73 11.682 14.313C12.644 13.875 13 13.373 13 13V11.698Z" fill="#1B1B1B"/>
</svg>
