<svg width="16" height="16" viewBox="0 0 16 16" fill="none" xmlns="http://www.w3.org/2000/svg">
<path d="M5 8V4H11V8H5Z" fill="currentColor"/>
<path d="M4 0C3.46957 0 2.96086 0.210714 2.58579 0.585786C2.21071 0.960859 2 1.46957 2 2V14C2 14.5304 2.21071 15.0391 2.58579 15.4142C2.96086 15.7893 3.46957 16 4 16H12C12.5304 16 13.0391 15.7893 13.4142 15.4142C13.7893 15.0391 14 14.5304 14 14V2C14 1.46957 13.7893 0.960859 13.4142 0.585786C13.0391 0.210714 12.5304 0 12 0L4 0ZM4 1.5C4 1.63261 3.94732 1.75979 3.85355 1.85355C3.75979 1.94732 3.63261 2 3.5 2C3.36739 2 3.24021 1.94732 3.14645 1.85355C3.05268 1.75979 3 1.63261 3 1.5C3 1.36739 3.05268 1.24021 3.14645 1.14645C3.24021 1.05268 3.36739 1 3.5 1C3.63261 1 3.75979 1.05268 3.85355 1.14645C3.94732 1.24021 4 1.36739 4 1.5V1.5ZM13 1.5C13 1.63261 12.9473 1.75979 12.8536 1.85355C12.7598 1.94732 12.6326 2 12.5 2C12.3674 2 12.2402 1.94732 12.1464 1.85355C12.0527 1.75979 12 1.63261 12 1.5C12 1.36739 12.0527 1.24021 12.1464 1.14645C12.2402 1.05268 12.3674 1 12.5 1C12.6326 1 12.7598 1.05268 12.8536 1.14645C12.9473 1.24021 13 1.36739 13 1.5V1.5ZM3.5 11C3.63261 11 3.75979 10.9473 3.85355 10.8536C3.94732 10.7598 4 10.6326 4 10.5C4 10.3674 3.94732 10.2402 3.85355 10.1464C3.75979 10.0527 3.63261 10 3.5 10C3.36739 10 3.24021 10.0527 3.14645 10.1464C3.05268 10.2402 3 10.3674 3 10.5C3 10.6326 3.05268 10.7598 3.14645 10.8536C3.24021 10.9473 3.36739 11 3.5 11ZM13 10.5C13 10.6326 12.9473 10.7598 12.8536 10.8536C12.7598 10.9473 12.6326 11 12.5 11C12.3674 11 12.2402 10.9473 12.1464 10.8536C12.0527 10.7598 12 10.6326 12 10.5C12 10.3674 12.0527 10.2402 12.1464 10.1464C12.2402 10.0527 12.3674 10 12.5 10C12.6326 10 12.7598 10.0527 12.8536 10.1464C12.9473 10.2402 13 10.3674 13 10.5ZM4.75 3H11.25C11.4489 3 11.6397 3.07902 11.7803 3.21967C11.921 3.36032 12 3.55109 12 3.75V8.25C12 8.44891 11.921 8.63968 11.7803 8.78033C11.6397 8.92098 11.4489 9 11.25 9H4.75C4.55109 9 4.36032 8.92098 4.21967 8.78033C4.07902 8.63968 4 8.44891 4 8.25V3.75C4 3.55109 4.07902 3.36032 4.21967 3.21967C4.36032 3.07902 4.55109 3 4.75 3ZM5 12H11C11.2652 12 11.5196 12.1054 11.7071 12.2929C11.8946 12.4804 12 12.7348 12 13V15H11V13H10.25V15H9.25V13H8.5V15H7.5V13H6.75V15H5.75V13H5V15H4V13C4 12.7348 4.10536 12.4804 4.29289 12.2929C4.48043 12.1054 4.73478 12 5 12Z" fill="currentColor"/>
</svg>
