<svg width="16" height="16" viewBox="0 0 16 16" fill="none" xmlns="http://www.w3.org/2000/svg">
<path d="M12 2.5C12 2.63261 11.9473 2.75979 11.8536 2.85355C11.7598 2.94732 11.6326 3 11.5 3C11.3674 3 11.2402 2.94732 11.1464 2.85355C11.0527 2.75979 11 2.63261 11 2.5C11 2.36739 11.0527 2.24021 11.1464 2.14645C11.2402 2.05268 11.3674 2 11.5 2C11.6326 2 11.7598 2.05268 11.8536 2.14645C11.9473 2.24021 12 2.36739 12 2.5ZM12 13.5C12 13.6326 11.9473 13.7598 11.8536 13.8536C11.7598 13.9473 11.6326 14 11.5 14C11.3674 14 11.2402 13.9473 11.1464 13.8536C11.0527 13.7598 11 13.6326 11 13.5C11 13.3674 11.0527 13.2402 11.1464 13.1464C11.2402 13.0527 11.3674 13 11.5 13C11.6326 13 11.7598 13.0527 11.8536 13.1464C11.9473 13.2402 12 13.3674 12 13.5ZM4.5 14C4.63261 14 4.75979 13.9473 4.85355 13.8536C4.94732 13.7598 5 13.6326 5 13.5C5 13.3674 4.94732 13.2402 4.85355 13.1464C4.75979 13.0527 4.63261 13 4.5 13C4.36739 13 4.24021 13.0527 4.14645 13.1464C4.05268 13.2402 4 13.3674 4 13.5C4 13.6326 4.05268 13.7598 4.14645 13.8536C4.24021 13.9473 4.36739 14 4.5 14V14ZM5 2.5C5 2.63261 4.94732 2.75979 4.85355 2.85355C4.75979 2.94732 4.63261 3 4.5 3C4.36739 3 4.24021 2.94732 4.14645 2.85355C4.05268 2.75979 4 2.63261 4 2.5C4 2.36739 4.05268 2.24021 4.14645 2.14645C4.24021 2.05268 4.36739 2 4.5 2C4.63261 2 4.75979 2.05268 4.85355 2.14645C4.94732 2.24021 5 2.36739 5 2.5ZM8 8C8.26522 8 8.51957 7.89464 8.70711 7.70711C8.89464 7.51957 9 7.26522 9 7C9 6.73478 8.89464 6.48043 8.70711 6.29289C8.51957 6.10536 8.26522 6 8 6C7.73478 6 7.48043 6.10536 7.29289 6.29289C7.10536 6.48043 7 6.73478 7 7C7 7.26522 7.10536 7.51957 7.29289 7.70711C7.48043 7.89464 7.73478 8 8 8Z" fill="#1B1B1B"/>
<path d="M12 7C12.0002 8.05004 11.5874 9.05802 10.8508 9.80638C10.1143 10.5547 9.11295 10.9835 8.06304 11C7.52604 11.813 7.04304 12.515 6.88204 12.677C6.67531 12.8839 6.39486 13.0001 6.1024 13.0002C5.80994 13.0003 5.52941 12.8842 5.32254 12.6775C5.11568 12.4708 4.99941 12.1903 4.99931 11.8979C4.99922 11.6054 5.11531 11.3249 5.32204 11.118C5.42204 11.02 5.71804 10.804 6.11704 10.53C5.32957 10.1103 4.70504 9.43941 4.34277 8.62394C3.98051 7.80846 3.90131 6.89528 4.11778 6.02961C4.33426 5.16395 4.83397 4.39553 5.53743 3.84656C6.2409 3.2976 7.10773 2.99961 8.00004 3C9.06091 3 10.0783 3.42143 10.8285 4.17157C11.5786 4.92172 12 5.93913 12 7ZM11 7C11 6.44514 10.846 5.90117 10.5553 5.42857C10.2646 4.95596 9.84853 4.57324 9.35334 4.32294C8.85814 4.07265 8.30323 3.96459 7.7503 4.01078C7.19737 4.05697 6.66808 4.2556 6.22127 4.58459C5.77447 4.91358 5.42766 5.36004 5.21939 5.87432C5.01113 6.38861 4.94957 6.95059 5.04157 7.49776C5.13356 8.04494 5.3755 8.55589 5.74049 8.9738C6.10548 9.39171 6.57922 9.70021 7.10904 9.865C7.77604 9.425 8.50504 8.955 9.06404 8.597C9.28804 8.453 9.54704 8.712 9.40404 8.937L8.78404 9.897C9.42033 9.72456 9.98213 9.3474 10.3827 8.82378C10.7832 8.30017 11.0002 7.65924 11 7Z" fill="#1B1B1B"/>
<path d="M2 2C2 1.46957 2.21071 0.960859 2.58579 0.585786C2.96086 0.210714 3.46957 0 4 0L12 0C12.5304 0 13.0391 0.210714 13.4142 0.585786C13.7893 0.960859 14 1.46957 14 2V14C14 14.5304 13.7893 15.0391 13.4142 15.4142C13.0391 15.7893 12.5304 16 12 16H4C3.46957 16 2.96086 15.7893 2.58579 15.4142C2.21071 15.0391 2 14.5304 2 14V2ZM4 1C3.73478 1 3.48043 1.10536 3.29289 1.29289C3.10536 1.48043 3 1.73478 3 2V14C3 14.2652 3.10536 14.5196 3.29289 14.7071C3.48043 14.8946 3.73478 15 4 15H12C12.2652 15 12.5196 14.8946 12.7071 14.7071C12.8946 14.5196 13 14.2652 13 14V2C13 1.73478 12.8946 1.48043 12.7071 1.29289C12.5196 1.10536 12.2652 1 12 1H4Z" fill="#1B1B1B"/>
</svg>
