<svg width="16" height="16" viewBox="0 0 16 16" fill="none" xmlns="http://www.w3.org/2000/svg">
<g clip-path="url(#clip0_1419_2112)">
<path d="M7.78797 2.34018L6.98897 3.61818C6.96545 3.65601 6.95247 3.69945 6.95136 3.74398C6.95026 3.78852 6.96107 3.83254 6.98269 3.87149C7.00431 3.91045 7.03594 3.94292 7.07432 3.96554C7.1127 3.98817 7.15642 4.00013 7.20097 4.00018H8.79897C8.84352 4.00013 8.88725 3.98817 8.92563 3.96554C8.964 3.94292 8.99564 3.91045 9.01726 3.87149C9.03887 3.83254 9.04969 3.78852 9.04859 3.74398C9.04748 3.69945 9.0345 3.65601 9.01097 3.61818L8.21197 2.33918C8.1895 2.30322 8.15825 2.27357 8.12117 2.25302C8.08408 2.23246 8.04238 2.22168 7.99997 2.22168C7.95757 2.22168 7.91587 2.23246 7.87878 2.25302C7.8417 2.27357 7.81045 2.30322 7.78797 2.33918V2.34018ZM7.78797 13.6602L6.98897 12.3832C6.96519 12.3453 6.95199 12.3018 6.95076 12.2571C6.94952 12.2124 6.96028 12.1682 6.98193 12.1291C7.00358 12.09 7.03532 12.0574 7.07385 12.0347C7.11237 12.0121 7.15627 12.0001 7.20097 12.0002H8.79897C8.84368 12.0001 8.88758 12.0121 8.9261 12.0347C8.96463 12.0574 8.99637 12.09 9.01802 12.1291C9.03966 12.1682 9.05043 12.2124 9.04919 12.2571C9.04795 12.3018 9.03476 12.3453 9.01097 12.3832L8.21197 13.6612C8.1895 13.6971 8.15825 13.7268 8.12117 13.7473C8.08408 13.7679 8.04238 13.7787 7.99997 13.7787C7.95757 13.7787 7.91587 13.7679 7.87878 13.7473C7.8417 13.7268 7.81045 13.6971 7.78797 13.6612V13.6602ZM3.61697 9.01018L2.33997 8.21318C2.30402 8.19071 2.27437 8.15946 2.25381 8.12237C2.23326 8.08529 2.22247 8.04358 2.22247 8.00118C2.22247 7.95878 2.23326 7.91707 2.25381 7.87999C2.27437 7.8429 2.30402 7.81165 2.33997 7.78918L3.61797 6.99018C3.65574 6.9667 3.69908 6.95372 3.74353 6.95257C3.78798 6.95143 3.83193 6.96215 3.87085 6.98365C3.90978 7.00515 3.94226 7.03664 3.96496 7.07488C3.98765 7.11312 3.99974 7.15672 3.99997 7.20118V8.80018C4.00003 8.84488 3.9881 8.88878 3.96542 8.92731C3.94275 8.96583 3.91016 8.99757 3.87105 9.01922C3.83193 9.04087 3.78773 9.05164 3.74305 9.0504C3.69836 9.04916 3.65483 9.03596 3.61697 9.01218V9.01018ZM13.66 8.21218L12.383 9.01118C12.3451 9.03496 12.3016 9.04816 12.2569 9.0494C12.2122 9.05064 12.168 9.03987 12.1289 9.01822C12.0898 8.99657 12.0572 8.96483 12.0345 8.92631C12.0118 8.88778 11.9999 8.84388 12 8.79918V7.20018C11.9999 7.15548 12.0118 7.11158 12.0345 7.07305C12.0572 7.03453 12.0898 7.00279 12.1289 6.98114C12.168 6.95949 12.2122 6.94872 12.2569 6.94996C12.3016 6.9512 12.3451 6.9644 12.383 6.98818L13.661 7.78718C13.6969 7.80965 13.7266 7.8409 13.7471 7.87799C13.7677 7.91507 13.7785 7.95678 13.7785 7.99918C13.7785 8.04158 13.7677 8.08329 13.7471 8.12037C13.7266 8.15746 13.6969 8.18871 13.661 8.21118L13.66 8.21218Z" fill="currentColor"/>
<path d="M6.5 0C6.10218 0 5.72064 0.158035 5.43934 0.43934C5.15804 0.720644 5 1.10218 5 1.5V4.5C5 4.63261 4.94732 4.75979 4.85355 4.85355C4.75979 4.94732 4.63261 5 4.5 5H1.5C1.10218 5 0.720644 5.15804 0.43934 5.43934C0.158035 5.72064 0 6.10218 0 6.5L0 9.5C0 9.89782 0.158035 10.2794 0.43934 10.5607C0.720644 10.842 1.10218 11 1.5 11H4.5C4.63261 11 4.75979 11.0527 4.85355 11.1464C4.94732 11.2402 5 11.3674 5 11.5V14.5C5 14.8978 5.15804 15.2794 5.43934 15.5607C5.72064 15.842 6.10218 16 6.5 16H9.5C9.89782 16 10.2794 15.842 10.5607 15.5607C10.842 15.2794 11 14.8978 11 14.5V11.5C11 11.3674 11.0527 11.2402 11.1464 11.1464C11.2402 11.0527 11.3674 11 11.5 11H14.5C14.8978 11 15.2794 10.842 15.5607 10.5607C15.842 10.2794 16 9.89782 16 9.5V6.5C16 6.10218 15.842 5.72064 15.5607 5.43934C15.2794 5.15804 14.8978 5 14.5 5H11.5C11.3674 5 11.2402 4.94732 11.1464 4.85355C11.0527 4.75979 11 4.63261 11 4.5V1.5C11 1.10218 10.842 0.720644 10.5607 0.43934C10.2794 0.158035 9.89782 0 9.5 0L6.5 0ZM6 1.5C6 1.36739 6.05268 1.24021 6.14645 1.14645C6.24021 1.05268 6.36739 1 6.5 1H9.5C9.63261 1 9.75979 1.05268 9.85355 1.14645C9.94732 1.24021 10 1.36739 10 1.5V4.5C10 4.89782 10.158 5.27936 10.4393 5.56066C10.7206 5.84196 11.1022 6 11.5 6H14.5C14.6326 6 14.7598 6.05268 14.8536 6.14645C14.9473 6.24021 15 6.36739 15 6.5V9.5C15 9.63261 14.9473 9.75979 14.8536 9.85355C14.7598 9.94732 14.6326 10 14.5 10H11.5C11.1022 10 10.7206 10.158 10.4393 10.4393C10.158 10.7206 10 11.1022 10 11.5V14.5C10 14.6326 9.94732 14.7598 9.85355 14.8536C9.75979 14.9473 9.63261 15 9.5 15H6.5C6.36739 15 6.24021 14.9473 6.14645 14.8536C6.05268 14.7598 6 14.6326 6 14.5V11.5C6 11.1022 5.84196 10.7206 5.56066 10.4393C5.27936 10.158 4.89782 10 4.5 10H1.5C1.36739 10 1.24021 9.94732 1.14645 9.85355C1.05268 9.75979 1 9.63261 1 9.5V6.5C1 6.36739 1.05268 6.24021 1.14645 6.14645C1.24021 6.05268 1.36739 6 1.5 6H4.5C4.89782 6 5.27936 5.84196 5.56066 5.56066C5.84196 5.27936 6 4.89782 6 4.5V1.5Z" fill="currentColor"/>
</g>
<defs>
<clipPath id="clip0_1419_2112">
<rect width="16" height="16" fill="white"/>
</clipPath>
</defs>
</svg>
