<svg width="16" height="16" viewBox="0 0 16 16" fill="none" xmlns="http://www.w3.org/2000/svg">
<g clip-path="url(#clip0_1419_2115)">
<path fill-rule="evenodd" clip-rule="evenodd" d="M6.82497 4.13808C7.42097 6.27908 6.46497 7.73108 4.43597 8.25508C3.77642 8.42808 3.08584 8.44656 2.41797 8.30908C2.36997 8.29908 3.31797 11.0871 3.93997 12.9191L4.34997 14.1241C4.3714 14.19 4.37942 14.2596 4.37355 14.3287C4.36769 14.3978 4.34806 14.4651 4.31582 14.5265C4.28358 14.5879 4.23938 14.6422 4.18582 14.6863C4.13227 14.7304 4.07044 14.7633 4.00397 14.7831L3.41097 14.9731C3.27436 15.0184 3.1254 15.0081 2.99629 14.9445C2.86719 14.8809 2.76829 14.769 2.72097 14.6331L0.183973 6.99008C-0.512027 4.85308 0.845973 2.68108 2.74797 2.19008C4.77697 1.66708 6.14997 2.19008 6.82397 4.13808H6.82497ZM5.95697 6.35908C6.38697 6.24708 6.51797 5.36608 6.24897 4.39008C5.97997 3.41508 5.41297 2.71508 4.98297 2.82708C4.55297 2.93908 4.42197 3.82108 4.69097 4.79608C4.95997 5.77108 5.52697 6.47108 5.95697 6.35908ZM9.17497 4.13808C8.57897 6.27908 9.53497 7.73108 11.564 8.25508C12.2235 8.42801 12.9141 8.44649 13.582 8.30908C13.63 8.29908 12.682 11.0871 12.06 12.9191L11.65 14.1241C11.6285 14.19 11.6205 14.2596 11.6264 14.3287C11.6323 14.3978 11.6519 14.4651 11.6841 14.5265C11.7164 14.5879 11.7606 14.6422 11.8141 14.6863C11.8677 14.7304 11.9295 14.7633 11.996 14.7831L12.589 14.9731C12.878 15.0651 13.189 14.9131 13.279 14.6331L15.815 6.99008C16.511 4.85308 15.153 2.68108 13.251 2.19008C11.222 1.66708 9.84897 2.19008 9.17497 4.13808V4.13808ZM10.043 6.35908C9.61297 6.24708 9.48197 5.36608 9.75097 4.39008C10.02 3.41508 10.587 2.71508 11.017 2.82708C11.447 2.93908 11.578 3.82108 11.309 4.79608C11.04 5.77108 10.473 6.47108 10.043 6.35908Z" fill="#1B1B1B"/>
</g>
<defs>
<clipPath id="clip0_1419_2115">
<rect width="16" height="16" fill="white"/>
</clipPath>
</defs>
</svg>
