<svg width="16" height="16" viewBox="0 0 16 16" fill="none" xmlns="http://www.w3.org/2000/svg">
<g clip-path="url(#clip0_1419_1458)">
<path d="M8 11C8.79565 11 9.55871 10.6839 10.1213 10.1213C10.6839 9.55871 11 8.79565 11 8C11 7.20435 10.6839 6.44129 10.1213 5.87868C9.55871 5.31607 8.79565 5 8 5C7.20435 5 6.44129 5.31607 5.87868 5.87868C5.31607 6.44129 5 7.20435 5 8C5 8.79565 5.31607 9.55871 5.87868 10.1213C6.44129 10.6839 7.20435 11 8 11V11Z" fill="currentColor"/>
<path d="M13.997 5.17007C14.0295 4.21646 13.7884 3.27347 13.3022 2.45244C12.8161 1.63142 12.1051 0.966642 11.2534 0.536606C10.4016 0.106571 9.44456 -0.0707666 8.49527 0.0255329C7.54597 0.121832 6.64405 0.487747 5.896 1.08007C4.86965 0.892653 3.81038 1.03099 2.86658 1.4757C1.92278 1.92041 1.14174 2.64922 0.632865 3.56003C0.123994 4.47084 -0.0872131 5.51802 0.0288325 6.55487C0.144878 7.59172 0.582362 8.5663 1.28 9.34207C0.900433 10.421 0.902229 11.5974 1.28509 12.6751C1.66795 13.7529 2.40873 14.6668 3.38388 15.2645C4.35903 15.8621 5.5096 16.1074 6.64371 15.9594C7.77782 15.8113 8.82691 15.279 9.616 14.4511C10.2264 14.8407 10.9426 15.0315 11.6659 14.997C12.3893 14.9625 13.0841 14.7045 13.6546 14.2586C14.2252 13.8127 14.6434 13.2007 14.8516 12.5072C15.0597 11.8136 15.0477 11.0725 14.817 10.3861C15.2472 10.0578 15.5807 9.6194 15.7821 9.11715C15.9835 8.6149 16.0454 8.06753 15.9611 7.533C15.8769 6.99846 15.6497 6.49665 15.3036 6.08069C14.9575 5.66472 14.5053 5.35008 13.995 5.17007H13.997ZM12.997 5.13607C12.9899 5.34882 13.0508 5.55829 13.1709 5.73401C13.2911 5.90973 13.4642 6.04252 13.665 6.11307C14.0052 6.23321 14.3066 6.4431 14.5373 6.72053C14.768 6.99795 14.9193 7.33258 14.9754 7.689C15.0315 8.04541 14.9901 8.41036 14.8557 8.74519C14.7213 9.08003 14.4989 9.3723 14.212 9.59107C14.0461 9.71779 13.924 9.89324 13.8629 10.0928C13.8017 10.2924 13.8046 10.5062 13.871 10.7041C14.0362 11.1945 14.0452 11.724 13.8967 12.2198C13.7481 12.7155 13.4495 13.1529 13.0418 13.4716C12.6342 13.7904 12.1377 13.9748 11.6208 13.9994C11.1039 14.024 10.5921 13.8876 10.156 13.6091C9.96064 13.4842 9.72795 13.431 9.49774 13.4588C9.26753 13.4865 9.05411 13.5934 8.894 13.7611C8.2629 14.4241 7.42348 14.8506 6.51587 14.9694C5.60825 15.0882 4.68735 14.8921 3.90686 14.4139C3.12637 13.9356 2.53351 13.2042 2.22725 12.3416C1.92098 11.479 1.91984 10.5374 2.224 9.67407C2.28344 9.50478 2.29624 9.32261 2.26105 9.14666C2.22586 8.97072 2.14398 8.80748 2.024 8.67407C1.4657 8.05346 1.11556 7.27373 1.02264 6.44414C0.929712 5.61455 1.09866 4.77668 1.50582 4.04793C1.91297 3.31918 2.53792 2.73607 3.2931 2.38031C4.04827 2.02455 4.89583 1.91398 5.717 2.06407C5.8569 2.08953 6.00062 2.08486 6.13857 2.05037C6.27653 2.01589 6.40554 1.95237 6.517 1.86407C7.11552 1.3904 7.83707 1.09785 8.59647 1.02098C9.35587 0.944105 10.1214 1.08611 10.8027 1.43023C11.484 1.77436 12.0526 2.30623 12.4415 2.96305C12.8303 3.61988 13.023 4.37424 12.997 5.13707V5.13607Z" fill="currentColor"/>
</g>
<defs>
<clipPath id="clip0_1419_1458">
<rect width="16" height="16" fill="white"/>
</clipPath>
</defs>
</svg>
