<svg width="16" height="16" viewBox="0 0 16 16" fill="none" xmlns="http://www.w3.org/2000/svg">
<g clip-path="url(#clip0_1419_1463)">
<path d="M8 15C6.14348 15 4.36301 14.2625 3.05025 12.9497C1.7375 11.637 1 9.85652 1 8C1 6.14348 1.7375 4.36301 3.05025 3.05025C4.36301 1.7375 6.14348 1 8 1C9.85652 1 11.637 1.7375 12.9497 3.05025C14.2625 4.36301 15 6.14348 15 8C15 9.85652 14.2625 11.637 12.9497 12.9497C11.637 14.2625 9.85652 15 8 15ZM8 16C10.1217 16 12.1566 15.1571 13.6569 13.6569C15.1571 12.1566 16 10.1217 16 8C16 5.87827 15.1571 3.84344 13.6569 2.34315C12.1566 0.842855 10.1217 0 8 0C5.87827 0 3.84344 0.842855 2.34315 2.34315C0.842855 3.84344 0 5.87827 0 8C0 10.1217 0.842855 12.1566 2.34315 13.6569C3.84344 15.1571 5.87827 16 8 16V16Z" fill="currentColor"/>
<path d="M9.14601 5.14592C9.19245 5.09935 9.24763 5.06241 9.30838 5.0372C9.36912 5.012 9.43424 4.99902 9.50001 4.99902C9.56578 4.99902 9.6309 5.012 9.69164 5.0372C9.75239 5.06241 9.80756 5.09935 9.85401 5.14592L10.5 5.79292L11.146 5.14592C11.2399 5.05203 11.3672 4.99929 11.5 4.99929C11.6328 4.99929 11.7601 5.05203 11.854 5.14592C11.9479 5.2398 12.0006 5.36714 12.0006 5.49992C12.0006 5.63269 11.9479 5.76003 11.854 5.85392L11.207 6.49992L11.854 7.14592C11.9479 7.2398 12.0006 7.36714 12.0006 7.49992C12.0006 7.63269 11.9479 7.76003 11.854 7.85392C11.7601 7.9478 11.6328 8.00055 11.5 8.00055C11.3672 8.00055 11.2399 7.9478 11.146 7.85392L10.5 7.20692L9.85401 7.85392C9.80752 7.90041 9.75233 7.93728 9.69159 7.96244C9.63085 7.9876 9.56575 8.00055 9.50001 8.00055C9.43426 8.00055 9.36916 7.9876 9.30842 7.96244C9.24769 7.93728 9.1925 7.90041 9.14601 7.85392C9.09952 7.80743 9.06264 7.75224 9.03749 7.6915C9.01233 7.63076 8.99938 7.56566 8.99938 7.49992C8.99938 7.43417 9.01233 7.36907 9.03749 7.30833C9.06264 7.24759 9.09952 7.1924 9.14601 7.14592L9.79301 6.49992L9.14601 5.85392C9.09945 5.80747 9.0625 5.7523 9.0373 5.69155C9.01209 5.63081 8.99911 5.56568 8.99911 5.49992C8.99911 5.43415 9.01209 5.36903 9.0373 5.30828C9.0625 5.24754 9.09945 5.19236 9.14601 5.14592ZM4.14601 5.14592C4.19245 5.09935 4.24763 5.06241 4.30838 5.0372C4.36912 5.012 4.43424 4.99902 4.50001 4.99902C4.56578 4.99902 4.6309 5.012 4.69164 5.0372C4.75239 5.06241 4.80756 5.09935 4.85401 5.14592L5.50001 5.79292L6.14601 5.14592C6.1925 5.09943 6.24769 5.06255 6.30843 5.03739C6.36916 5.01223 6.43426 4.99929 6.50001 4.99929C6.56575 4.99929 6.63085 5.01223 6.69159 5.03739C6.75233 5.06255 6.80752 5.09943 6.85401 5.14592C6.9005 5.1924 6.93737 5.24759 6.96253 5.30833C6.98769 5.36907 7.00064 5.43417 7.00064 5.49992C7.00064 5.56566 6.98769 5.63076 6.96253 5.6915C6.93737 5.75224 6.9005 5.80743 6.85401 5.85392L6.20701 6.49992L6.85401 7.14592C6.9005 7.1924 6.93737 7.24759 6.96253 7.30833C6.98769 7.36907 7.00064 7.43417 7.00064 7.49992C7.00064 7.56566 6.98769 7.63076 6.96253 7.6915C6.93737 7.75224 6.9005 7.80743 6.85401 7.85392C6.80752 7.90041 6.75233 7.93728 6.69159 7.96244C6.63085 7.9876 6.56575 8.00055 6.50001 8.00055C6.43426 8.00055 6.36916 7.9876 6.30843 7.96244C6.24769 7.93728 6.1925 7.90041 6.14601 7.85392L5.50001 7.20692L4.85401 7.85392C4.80752 7.90041 4.75233 7.93728 4.69159 7.96244C4.63085 7.9876 4.56575 8.00055 4.50001 8.00055C4.43426 8.00055 4.36916 7.9876 4.30843 7.96244C4.24769 7.93728 4.1925 7.90041 4.14601 7.85392C4.09952 7.80743 4.06264 7.75224 4.03749 7.6915C4.01233 7.63076 3.99938 7.56566 3.99938 7.49992C3.99938 7.43417 4.01233 7.36907 4.03749 7.30833C4.06264 7.24759 4.09952 7.1924 4.14601 7.14592L4.79301 6.49992L4.14601 5.85392C4.09945 5.80747 4.0625 5.7523 4.0373 5.69155C4.01209 5.63081 3.99911 5.56568 3.99911 5.49992C3.99911 5.43415 4.01209 5.36903 4.0373 5.30828C4.0625 5.24754 4.09945 5.19236 4.14601 5.14592V5.14592ZM10 10.9999C10 11.5304 9.78929 12.0391 9.41422 12.4141C9.03915 12.7892 8.53044 12.9999 8.00001 12.9999C7.46958 12.9999 6.96087 12.7892 6.5858 12.4141C6.21072 12.0391 6.00001 11.5304 6.00001 10.9999C6.00001 10.4695 6.21072 9.96078 6.5858 9.5857C6.96087 9.21063 7.46958 8.99992 8.00001 8.99992C8.53044 8.99992 9.03915 9.21063 9.41422 9.5857C9.78929 9.96078 10 10.4695 10 10.9999V10.9999Z" fill="currentColor"/>
</g>
<defs>
<clipPath id="clip0_1419_1463">
<rect width="16" height="16" fill="white"/>
</clipPath>
</defs>
</svg>
