<svg width="16" height="16" viewBox="0 0 16 16" fill="none" xmlns="http://www.w3.org/2000/svg">
<g clip-path="url(#clip0_1419_1461)">
<path d="M8 15C6.14348 15 4.36301 14.2625 3.05025 12.9497C1.7375 11.637 1 9.85652 1 8C1 6.14348 1.7375 4.36301 3.05025 3.05025C4.36301 1.7375 6.14348 1 8 1C9.85652 1 11.637 1.7375 12.9497 3.05025C14.2625 4.36301 15 6.14348 15 8C15 9.85652 14.2625 11.637 12.9497 12.9497C11.637 14.2625 9.85652 15 8 15ZM8 16C10.1217 16 12.1566 15.1571 13.6569 13.6569C15.1571 12.1566 16 10.1217 16 8C16 5.87827 15.1571 3.84344 13.6569 2.34315C12.1566 0.842855 10.1217 0 8 0C5.87827 0 3.84344 0.842855 2.34315 2.34315C0.842855 3.84344 0 5.87827 0 8C0 10.1217 0.842855 12.1566 2.34315 13.6569C3.84344 15.1571 5.87827 16 8 16V16Z" fill="currentColor"/>
<path d="M4.28499 12.433C4.39983 12.4993 4.5363 12.5173 4.66439 12.483C4.79247 12.4487 4.90168 12.3649 4.96799 12.25C5.2751 11.7177 5.71704 11.2757 6.24932 10.9684C6.78159 10.6612 7.38541 10.4997 7.99999 10.5C9.29499 10.5 10.426 11.203 11.032 12.25C11.0988 12.3639 11.2079 12.4468 11.3355 12.4805C11.4632 12.5143 11.599 12.4962 11.7133 12.4302C11.8277 12.3641 11.9113 12.2556 11.9459 12.1282C11.9805 12.0007 11.9632 11.8648 11.898 11.75C11.5031 11.0657 10.9349 10.4974 10.2506 10.1024C9.56635 9.70744 8.79009 9.49967 7.99999 9.50003C7.20992 9.49987 6.43374 9.70772 5.74948 10.1027C5.06523 10.4977 4.49702 11.0658 4.10199 11.75C4.03569 11.8649 4.01772 12.0013 4.05204 12.1294C4.08636 12.2575 4.17015 12.3667 4.28499 12.433ZM11.276 4.05303C11.3347 4.02301 11.3989 4.00492 11.4647 3.9998C11.5304 3.99468 11.5966 4.00263 11.6593 4.0232C11.722 4.04377 11.78 4.07654 11.83 4.11964C11.88 4.16273 11.9209 4.21529 11.9505 4.27428C11.98 4.33328 11.9976 4.39754 12.0022 4.46337C12.0068 4.52919 11.9984 4.59528 11.9773 4.65782C11.9563 4.72036 11.923 4.77811 11.8796 4.82774C11.8361 4.87738 11.7832 4.91792 11.724 4.94703L10.715 5.45103C10.891 5.72103 11 6.09103 11 6.50003C11 7.32803 10.552 8.00003 9.99999 8.00003C9.44799 8.00003 8.99999 7.32803 8.99999 6.50003C8.99999 6.25303 9.03999 6.02003 9.10999 5.81403C9.06347 5.7557 9.03055 5.68774 9.0136 5.6151C8.99665 5.54245 8.9961 5.46693 9.012 5.39405C9.0279 5.32116 9.05984 5.25273 9.10551 5.19374C9.15117 5.13475 9.20941 5.08668 9.27599 5.05303L11.276 4.05303V4.05303ZM4.72399 4.05303C4.60558 3.99483 4.46896 3.9858 4.34392 4.02789C4.21888 4.06999 4.11555 4.1598 4.05644 4.27775C3.99733 4.39571 3.98723 4.53225 4.02836 4.65761C4.06948 4.78298 4.15849 4.887 4.27599 4.94703L5.28499 5.45103C5.09196 5.76639 4.99308 6.13035 4.99999 6.50003C4.99999 7.32803 5.44799 8.00003 5.99999 8.00003C6.55199 8.00003 6.99999 7.32803 6.99999 6.50003C6.99999 6.25303 6.95999 6.02003 6.88999 5.81403C6.9365 5.7557 6.96943 5.68774 6.98638 5.6151C7.00333 5.54245 7.00387 5.46693 6.98797 5.39405C6.97208 5.32116 6.94013 5.25273 6.89447 5.19374C6.8488 5.13475 6.79056 5.08668 6.72399 5.05303L4.72399 4.05303V4.05303Z" fill="currentColor"/>
</g>
<defs>
<clipPath id="clip0_1419_1461">
<rect width="16" height="16" fill="white"/>
</clipPath>
</defs>
</svg>
