<svg width="16" height="16" viewBox="0 0 16 16" fill="none" xmlns="http://www.w3.org/2000/svg">
<g clip-path="url(#clip0_1419_1471)">
<path fill-rule="evenodd" clip-rule="evenodd" d="M12.493 13.3681C11.2546 14.4044 9.69604 14.9807 8.08136 14.9993C6.46668 15.0179 4.89521 14.4777 3.63326 13.4703C2.37131 12.4628 1.49649 11.05 1.15704 9.47126C0.817599 7.89255 1.03441 6.24503 1.77073 4.80789C2.50705 3.37075 3.7176 2.23237 5.19723 1.58567C6.67687 0.938969 8.33459 0.823716 9.88948 1.25944C11.4444 1.69517 12.8008 2.65508 13.7289 3.9765C14.657 5.29792 15.0997 6.89959 14.982 8.51008C15.326 8.54308 15.662 8.65708 15.957 8.83808C16.1527 6.98237 15.6935 5.11665 14.6589 3.56373C13.6243 2.01081 12.0794 0.868393 10.2915 0.334155C8.50365 -0.200083 6.58525 -0.0925334 4.86829 0.638195C3.15132 1.36892 1.74381 2.67685 0.889279 4.33568C0.0347506 5.99451 -0.213028 7.89987 0.188817 9.72208C0.590662 11.5443 1.61685 13.1687 3.08982 14.3143C4.56278 15.4598 6.38986 16.0544 8.25492 15.9952C10.12 15.936 11.9057 15.2267 13.303 13.9901C13.0209 13.799 12.7504 13.5913 12.493 13.3681V13.3681ZM8.76201 10.1481C8.3885 10.2377 8.01913 10.3438 7.65501 10.4661C7.59192 10.4893 7.52479 10.4996 7.45763 10.4963C7.39048 10.493 7.32468 10.4762 7.26418 10.4468C7.20367 10.4175 7.1497 10.3763 7.10549 10.3256C7.06129 10.275 7.02775 10.2159 7.00689 10.152C6.98604 10.0881 6.97829 10.0206 6.9841 9.95362C6.98992 9.88664 7.00919 9.82152 7.04075 9.76215C7.07232 9.70278 7.11553 9.6504 7.16781 9.60812C7.22009 9.56584 7.28036 9.53453 7.34501 9.51608C7.72501 9.39108 8.14701 9.26208 8.53701 9.17308C8.90701 9.08708 9.31701 9.02008 9.64001 9.06508C9.80001 9.08708 10.034 9.15008 10.201 9.35108C10.389 9.57708 10.388 9.84808 10.332 10.0561C10.2647 10.2706 10.1598 10.4714 10.022 10.6491C9.94501 10.7561 9.85401 10.8691 9.74701 10.9921C9.85401 11.1161 9.94601 11.2321 10.023 11.3391C10.165 11.5361 10.279 11.7361 10.333 11.9341C10.388 12.1421 10.389 12.4131 10.201 12.6401C10.033 12.8401 9.79701 12.9021 9.63801 12.9241C9.31501 12.9671 8.90501 12.8971 8.53601 12.8111C8.13439 12.7127 7.73704 12.5976 7.34501 12.4661C7.28036 12.4476 7.22009 12.4163 7.16781 12.374C7.11553 12.3318 7.07232 12.2794 7.04075 12.22C7.00919 12.1606 6.98992 12.0955 6.9841 12.0285C6.97829 11.9616 6.98604 11.8941 7.00689 11.8302C7.02775 11.7663 7.06129 11.7072 7.10549 11.6565C7.1497 11.6059 7.20367 11.5647 7.26418 11.5353C7.32468 11.506 7.39048 11.4892 7.45763 11.4859C7.52479 11.4826 7.59192 11.4928 7.65501 11.5161C8.02601 11.6361 8.41601 11.7561 8.76401 11.8371C8.94001 11.8781 9.08901 11.9061 9.21001 11.9211C9.05626 11.7151 8.88853 11.52 8.70801 11.3371C8.61816 11.2436 8.56814 11.1188 8.56852 10.9892C8.56889 10.8595 8.61962 10.7351 8.71001 10.6421C8.8898 10.4615 9.05686 10.2687 9.21001 10.0651C9.05938 10.0848 8.90985 10.1121 8.76201 10.1471V10.1481ZM9.52801 10.0611L9.52501 10.0601L9.52201 10.0591C9.52601 10.0591 9.52801 10.0611 9.52801 10.0611V10.0611ZM9.53001 11.9281L9.52401 11.9291C9.52595 11.9282 9.52796 11.9276 9.53001 11.9271V11.9281ZM6.00001 8.00008C6.55201 8.00008 7.00001 7.32808 7.00001 6.50008C7.00001 5.67208 6.55201 5.00008 6.00001 5.00008C5.44801 5.00008 5.00001 5.67208 5.00001 6.50008C5.00001 7.32808 5.44801 8.00008 6.00001 8.00008ZM8.75701 7.43708C8.8144 7.469 8.87751 7.48929 8.94274 7.49682C9.00798 7.50434 9.07405 7.49894 9.13719 7.48092C9.20034 7.46291 9.25932 7.43263 9.31076 7.39182C9.3622 7.35101 9.4051 7.30047 9.43701 7.24308C9.51597 7.09564 9.63307 6.97211 9.77609 6.88539C9.9191 6.79867 10.0828 6.75194 10.25 6.75008C10.589 6.75008 10.895 6.94008 11.063 7.24308C11.1275 7.35898 11.2353 7.44453 11.3628 7.48091C11.4904 7.5173 11.6271 7.50153 11.743 7.43708C11.8589 7.37263 11.9445 7.26479 11.9808 7.13726C12.0172 7.00974 12.0015 6.87298 11.937 6.75708C11.7714 6.45384 11.5276 6.2005 11.2309 6.02341C10.9342 5.84632 10.5955 5.75194 10.25 5.75008C9.52001 5.75008 8.89401 6.16208 8.56301 6.75708C8.5311 6.81447 8.5108 6.87758 8.50328 6.94281C8.49576 7.00804 8.50116 7.07412 8.51917 7.13726C8.53719 7.20041 8.56746 7.25938 8.60827 7.31083C8.64908 7.36227 8.69962 7.40517 8.75701 7.43708V7.43708ZM14 9.82808C15.11 8.68808 17.884 10.6841 14 13.2501C10.116 10.6841 12.89 8.68808 14 9.82908V9.82808Z" fill="#1B1B1B"/>
</g>
<defs>
<clipPath id="clip0_1419_1471">
<rect width="16" height="16" fill="white"/>
</clipPath>
</defs>
</svg>
