<svg width="16" height="16" viewBox="0 0 16 16" fill="none" xmlns="http://www.w3.org/2000/svg">
<g clip-path="url(#clip0_1419_454)">
<path d="M0.05 3.555C0.150818 3.11324 0.398655 2.71881 0.752922 2.43631C1.10719 2.1538 1.54688 1.99997 2 2H14C14.4531 1.99997 14.8928 2.1538 15.2471 2.43631C15.6013 2.71881 15.8492 3.11324 15.95 3.555L8 8.414L0.05 3.555ZM0 4.697V11.801L5.803 8.243L0 4.697ZM6.761 8.83L0.191 12.856C0.353183 13.1985 0.609322 13.4878 0.929588 13.6904C1.24985 13.8929 1.62107 14.0003 2 14H8.256C8.086 13.5182 7.99943 13.0109 8 12.5C7.99931 11.8431 8.14278 11.194 8.42027 10.5986C8.69776 10.0032 9.10252 9.47594 9.606 9.054L9.239 8.829L8 9.586L6.761 8.829V8.83ZM16 4.697V9.671C15.5785 9.14863 15.0454 8.72738 14.4397 8.4382C13.834 8.14903 13.1712 7.99929 12.5 8C11.8194 7.99912 11.1474 8.153 10.535 8.45L10.197 8.243L16 4.697Z" fill="currentColor"/>
<path d="M14.9751 10.0252C14.65 9.70016 14.2642 9.44234 13.8395 9.26643C13.4149 9.09053 12.9597 9 12.5001 9C12.0404 9 11.5853 9.09053 11.1606 9.26643C10.7359 9.44234 10.3501 9.70016 10.0251 10.0252C9.70003 10.3502 9.44221 10.7361 9.26631 11.1607C9.09041 11.5854 8.99988 12.0405 8.99988 12.5002C8.99988 12.9598 9.09041 13.415 9.26631 13.8396C9.44221 14.2643 9.70003 14.6502 10.0251 14.9752C10.6815 15.6316 11.5718 16.0004 12.5001 16.0004C13.4284 16.0004 14.3186 15.6316 14.9751 14.9752C15.6315 14.3188 16.0002 13.4285 16.0002 12.5002C16.0002 11.5719 15.6315 10.6816 14.9751 10.0252V10.0252ZM10.7321 10.7322C11.1396 10.3247 11.6755 10.0705 12.2489 10.0125C12.8223 9.95457 13.3982 10.0965 13.8791 10.4142L10.4141 13.8792C10.0963 13.3983 9.95444 12.8225 10.0124 12.249C10.0703 11.6756 10.3246 11.1398 10.7321 10.7322V10.7322ZM11.1221 14.5862L14.5861 11.1212C14.9034 11.6021 15.045 12.1778 14.9869 12.751C14.9288 13.3243 14.6746 13.8598 14.2671 14.2673C13.8597 14.6747 13.3241 14.9289 12.7509 14.987C12.1777 15.0451 11.6019 14.9035 11.1211 14.5862H11.1221Z" fill="currentColor"/>
</g>
<defs>
<clipPath id="clip0_1419_454">
<rect width="16" height="16" fill="white"/>
</clipPath>
</defs>
</svg>
