<svg width="16" height="16" viewBox="0 0 16 16" fill="none" xmlns="http://www.w3.org/2000/svg">
<path d="M0.05 3.555C0.150818 3.11324 0.398655 2.71881 0.752922 2.43631C1.10719 2.1538 1.54688 1.99997 2 2H14C14.4531 1.99997 14.8928 2.1538 15.2471 2.43631C15.6013 2.71881 15.8492 3.11324 15.95 3.555L11.75 6.123C11.7337 6.08765 11.7167 6.05264 11.699 6.018C11.033 4.718 9.336 4.101 8 4.768C6.664 4.101 4.967 4.718 4.301 6.018L4.251 6.123L0.05 3.555ZM11.584 8.91C11.5604 8.95674 11.5361 9.00308 11.511 9.049L16 11.8V4.697L11.997 7.144C12.024 7.706 11.89 8.307 11.584 8.911V8.91ZM7.449 11.96C6.401 11.267 5.609 10.57 5.051 9.878L0.19 12.856C0.352256 13.1986 0.60855 13.4881 0.92901 13.6906C1.24947 13.8932 1.6209 14.0005 2 14H14C14.3788 14.0001 14.7498 13.8926 15.0698 13.6901C15.3899 13.4876 15.6459 13.1983 15.808 12.856L10.95 9.878C10.391 10.57 9.6 11.267 8.552 11.959L8 12.324L7.449 11.959V11.96ZM4.416 8.91C4.11 8.307 3.976 7.706 4.003 7.144L0 4.697V11.801L4.49 9.049C4.46458 9.00341 4.43991 8.9574 4.416 8.911V8.91Z" fill="#1B1B1B"/>
<path d="M7.99999 5.99295C9.66399 4.28195 13.825 7.27595 7.99999 11.1249C2.17499 7.27495 6.33599 4.28195 7.99999 5.99295Z" fill="#1B1B1B"/>
</svg>
