<svg width="16" height="16" viewBox="0 0 16 16" fill="none" xmlns="http://www.w3.org/2000/svg">
<path d="M2 2C1.46957 2 0.960859 2.21071 0.585786 2.58579C0.210714 2.96086 0 3.46957 0 4L0 12.01C0.00264352 12.5387 0.214524 13.0448 0.58931 13.4178C0.964097 13.7907 1.4713 14 2 14H7.5C7.63261 14 7.75979 13.9473 7.85355 13.8536C7.94732 13.7598 8 13.6326 8 13.5C8 13.3674 7.94732 13.2402 7.85355 13.1464C7.75979 13.0527 7.63261 13 7.5 13H2C1.77988 13 1.5659 12.9274 1.39124 12.7934C1.21658 12.6595 1.09101 12.4716 1.034 12.259L6.674 8.788L8 9.583L15 5.383V8.5C15 8.63261 15.0527 8.75979 15.1464 8.85355C15.2402 8.94732 15.3674 9 15.5 9C15.6326 9 15.7598 8.94732 15.8536 8.85355C15.9473 8.75979 16 8.63261 16 8.5V4C16 3.46957 15.7893 2.96086 15.4142 2.58579C15.0391 2.21071 14.5304 2 14 2H2ZM5.708 8.208L1 11.105V5.383L5.708 8.208ZM1 4.217V4C1 3.73478 1.10536 3.48043 1.29289 3.29289C1.48043 3.10536 1.73478 3 2 3H14C14.2652 3 14.5196 3.10536 14.7071 3.29289C14.8946 3.48043 15 3.73478 15 4V4.217L8 8.417L1 4.217Z" fill="#1B1B1B"/>
<path d="M16 12.5C16 13.4283 15.6313 14.3185 14.9749 14.9749C14.3185 15.6313 13.4283 16 12.5 16C11.5717 16 10.6815 15.6313 10.0251 14.9749C9.36875 14.3185 9 13.4283 9 12.5C9 11.5717 9.36875 10.6815 10.0251 10.0251C10.6815 9.36875 11.5717 9 12.5 9C13.4283 9 14.3185 9.36875 14.9749 10.0251C15.6313 10.6815 16 11.5717 16 12.5V12.5ZM11.146 11.146C11.0994 11.1924 11.0625 11.2476 11.0373 11.3084C11.0121 11.3691 10.9991 11.4342 10.9991 11.5C10.9991 11.5658 11.0121 11.6309 11.0373 11.6916C11.0625 11.7524 11.0994 11.8076 11.146 11.854L11.793 12.5L11.146 13.146C11.0521 13.2399 10.9994 13.3672 10.9994 13.5C10.9994 13.6328 11.0521 13.7601 11.146 13.854C11.2399 13.9479 11.3672 14.0006 11.5 14.0006C11.6328 14.0006 11.7601 13.9479 11.854 13.854L12.5 13.207L13.146 13.854C13.2399 13.9479 13.3672 14.0006 13.5 14.0006C13.6328 14.0006 13.7601 13.9479 13.854 13.854C13.9479 13.7601 14.0006 13.6328 14.0006 13.5C14.0006 13.3672 13.9479 13.2399 13.854 13.146L13.207 12.5L13.854 11.854C13.9479 11.7601 14.0006 11.6328 14.0006 11.5C14.0006 11.3672 13.9479 11.2399 13.854 11.146C13.7601 11.0521 13.6328 10.9994 13.5 10.9994C13.3672 10.9994 13.2399 11.0521 13.146 11.146L12.5 11.793L11.854 11.146C11.8076 11.0994 11.7524 11.0625 11.6916 11.0373C11.6309 11.0121 11.5658 10.9991 11.5 10.9991C11.4342 10.9991 11.3691 11.0121 11.3084 11.0373C11.2476 11.0625 11.1924 11.0994 11.146 11.146Z" fill="#1B1B1B"/>
</svg>
