<svg width="16" height="16" viewBox="0 0 16 16" fill="none" xmlns="http://www.w3.org/2000/svg">
<path d="M2 2C1.54688 1.99997 1.10719 2.1538 0.752922 2.43631C0.398655 2.71881 0.150818 3.11324 0.05 3.555L8 8.414L15.95 3.555C15.8492 3.11324 15.6013 2.71881 15.2471 2.43631C14.8928 2.1538 14.4531 1.99997 14 2H2ZM0 11.8V4.698L5.803 8.244L0 11.801V11.8ZM6.761 8.83L0.191 12.856C0.353183 13.1985 0.609322 13.4878 0.929588 13.6904C1.24985 13.8929 1.62107 14.0003 2 14H8.256C8.086 13.5182 7.99943 13.0109 8 12.5C7.99931 11.8431 8.14278 11.194 8.42027 10.5986C8.69776 10.0032 9.10252 9.47594 9.606 9.054L9.239 8.829L8 9.586L6.761 8.829V8.83ZM16 9.671V4.697L10.197 8.243L10.535 8.451C11.1473 8.15339 11.8192 7.99915 12.5 8C13.914 8 15.175 8.652 16 9.671Z" fill="currentColor"/>
<path d="M15.834 12.244C15.834 13.412 15.257 14.269 14.247 14.269C13.744 14.269 13.245 14.041 13.127 13.621H13.084C12.966 14.037 12.541 14.264 12.069 14.264C11.299 14.264 10.81 13.722 10.81 12.83V12.301C10.81 11.457 11.291 10.901 12.07 10.901C12.655 10.901 12.94 11.234 13.023 11.531H13.053V10.963H13.958V13.153C13.958 13.425 14.138 13.573 14.369 13.573C14.684 13.573 15.008 13.158 15.008 12.183V12.065C15.008 10.788 14.058 9.739 12.524 9.739H12.484C10.902 9.739 9.844 10.806 9.844 12.463V12.62C9.844 14.487 11.081 15.274 12.414 15.274H12.459C12.966 15.274 13.394 15.204 13.639 15.094V15.825C13.42 15.925 12.996 16 12.402 16H12.358C10.438 16 9 14.82 9 12.646V12.432C9 10.36 10.421 9 12.485 9H12.52C14.64 9 15.834 10.43 15.834 12.034V12.244ZM11.794 12.454V12.681C11.794 13.267 12.021 13.481 12.375 13.481C12.685 13.481 12.939 13.311 12.939 12.738V12.371C12.939 11.855 12.664 11.663 12.367 11.663C12.021 11.663 11.794 11.908 11.794 12.454V12.454Z" fill="currentColor"/>
</svg>
