<svg width="16" height="16" viewBox="0 0 16 16" fill="none" xmlns="http://www.w3.org/2000/svg">
<path d="M2 2C1.46957 2 0.960859 2.21071 0.585786 2.58579C0.210714 2.96086 0 3.46957 0 4L0 12.01C0.00264352 12.5387 0.214524 13.0448 0.58931 13.4178C0.964097 13.7907 1.4713 14 2 14H7.5C7.63261 14 7.75979 13.9473 7.85355 13.8536C7.94732 13.7598 8 13.6326 8 13.5C8 13.3674 7.94732 13.2402 7.85355 13.1464C7.75979 13.0527 7.63261 13 7.5 13H2C1.77988 13 1.5659 12.9274 1.39124 12.7934C1.21658 12.6595 1.09101 12.4716 1.034 12.259L6.674 8.788L8 9.583L15 5.383V8.5C15 8.63261 15.0527 8.75979 15.1464 8.85355C15.2402 8.94732 15.3674 9 15.5 9C15.6326 9 15.7598 8.94732 15.8536 8.85355C15.9473 8.75979 16 8.63261 16 8.5V4C16 3.46957 15.7893 2.96086 15.4142 2.58579C15.0391 2.21071 14.5304 2 14 2H2ZM5.708 8.208L1 11.105V5.383L5.708 8.208ZM1 4.217V4C1 3.73478 1.10536 3.48043 1.29289 3.29289C1.48043 3.10536 1.73478 3 2 3H14C14.2652 3 14.5196 3.10536 14.7071 3.29289C14.8946 3.48043 15 3.73478 15 4V4.217L8 8.417L1 4.217Z" fill="currentColor"/>
<path d="M16 12.5C16 13.4283 15.6313 14.3185 14.9749 14.9749C14.3185 15.6313 13.4283 16 12.5 16C11.5717 16 10.6815 15.6313 10.0251 14.9749C9.36875 14.3185 9 13.4283 9 12.5C9 11.5717 9.36875 10.6815 10.0251 10.0251C10.6815 9.36875 11.5717 9 12.5 9C13.4283 9 14.3185 9.36875 14.9749 10.0251C15.6313 10.6815 16 11.5717 16 12.5V12.5ZM12.5 10.5C12.3674 10.5 12.2402 10.5527 12.1464 10.6464C12.0527 10.7402 12 10.8674 12 11V12H11C10.8674 12 10.7402 12.0527 10.6464 12.1464C10.5527 12.2402 10.5 12.3674 10.5 12.5C10.5 12.6326 10.5527 12.7598 10.6464 12.8536C10.7402 12.9473 10.8674 13 11 13H12V14C12 14.1326 12.0527 14.2598 12.1464 14.3536C12.2402 14.4473 12.3674 14.5 12.5 14.5C12.6326 14.5 12.7598 14.4473 12.8536 14.3536C12.9473 14.2598 13 14.1326 13 14V13H14C14.1326 13 14.2598 12.9473 14.3536 12.8536C14.4473 12.7598 14.5 12.6326 14.5 12.5C14.5 12.3674 14.4473 12.2402 14.3536 12.1464C14.2598 12.0527 14.1326 12 14 12H13V11C13 10.8674 12.9473 10.7402 12.8536 10.6464C12.7598 10.5527 12.6326 10.5 12.5 10.5Z" fill="currentColor"/>
</svg>
