<svg width="16" height="16" viewBox="0 0 16 16" fill="none" xmlns="http://www.w3.org/2000/svg">
<g clip-path="url(#clip0_1419_445)">
<path d="M8.941 0.434907C8.65138 0.280482 8.32821 0.199707 8 0.199707C7.67179 0.199707 7.34862 0.280482 7.059 0.434907L1.059 3.63491C0.739081 3.80549 0.471548 4.05983 0.285014 4.37072C0.0984807 4.6816 -3.62467e-05 5.03735 1.00039e-08 5.39991V5.71291L4.222 8.18791C4.246 8.12991 4.272 8.07391 4.302 8.01791C4.967 6.71791 6.664 6.10091 8 6.76791C9.336 6.10091 11.033 6.71791 11.699 8.01791C11.7273 8.0738 11.754 8.13049 11.779 8.18791L16 5.71291V5.39991C16 5.03735 15.9015 4.6816 15.715 4.37072C15.5285 4.05983 15.2609 3.80549 14.941 3.63491L8.941 0.434907V0.434907ZM1.00039e-08 6.87291L4 9.21691C3.988 9.75891 4.124 10.3339 4.416 10.9109L4.42 10.9169L1.00039e-08 13.3719V6.87191V6.87291ZM0.059 14.4839L4.959 11.7609C5.522 12.4909 6.342 13.2279 7.449 13.9589L8 14.3239L8.551 13.9589C9.658 13.2289 10.478 12.4919 11.041 11.7609L15.941 14.4839C15.833 14.9169 15.5833 15.3014 15.2315 15.5761C14.8798 15.8508 14.4463 16 14 15.9999H2C1.5537 16 1.1202 15.8508 0.768469 15.5761C0.416741 15.3014 0.167004 14.9169 0.059 14.4839V14.4839ZM16 13.3719L11.58 10.9169L11.584 10.9109C11.876 10.3339 12.012 9.75891 11.999 9.21691L16 6.87291V13.3729V13.3719Z" fill="currentColor"/>
<path d="M7.99999 7.99295C9.66399 6.28195 13.825 9.27595 7.99999 13.1249C2.17499 9.27495 6.33599 6.28195 7.99999 7.99295Z" fill="currentColor"/>
</g>
<defs>
<clipPath id="clip0_1419_445">
<rect width="16" height="16" fill="white"/>
</clipPath>
</defs>
</svg>
