<svg width="16" height="16" viewBox="0 0 16 16" fill="none" xmlns="http://www.w3.org/2000/svg">
<g clip-path="url(#clip0_1419_455)">
<path d="M2 2C1.46957 2 0.960859 2.21071 0.585786 2.58579C0.210714 2.96086 0 3.46957 0 4L0 12.01C0.00264352 12.5387 0.214524 13.0448 0.58931 13.4178C0.964097 13.7907 1.4713 14 2 14H7.5C7.63261 14 7.75979 13.9473 7.85355 13.8536C7.94732 13.7598 8 13.6326 8 13.5C8 13.3674 7.94732 13.2402 7.85355 13.1464C7.75979 13.0527 7.63261 13 7.5 13H2C1.77988 13 1.5659 12.9274 1.39124 12.7934C1.21658 12.6595 1.09101 12.4716 1.034 12.259L6.674 8.788L8 9.583L15 5.383V8.5C15 8.63261 15.0527 8.75979 15.1464 8.85355C15.2402 8.94732 15.3674 9 15.5 9C15.6326 9 15.7598 8.94732 15.8536 8.85355C15.9473 8.75979 16 8.63261 16 8.5V4C16 3.46957 15.7893 2.96086 15.4142 2.58579C15.0391 2.21071 14.5304 2 14 2H2ZM5.708 8.208L1 11.105V5.383L5.708 8.208ZM1 4.217V4C1 3.73478 1.10536 3.48043 1.29289 3.29289C1.48043 3.10536 1.73478 3 2 3H14C14.2652 3 14.5196 3.10536 14.7071 3.29289C14.8946 3.48043 15 3.73478 15 4V4.217L8 8.417L1 4.217Z" fill="currentColor"/>
<path d="M14.9751 10.0252C14.65 9.70016 14.2642 9.44234 13.8395 9.26643C13.4149 9.09053 12.9597 9 12.5001 9C12.0404 9 11.5853 9.09053 11.1606 9.26643C10.7359 9.44234 10.3501 9.70016 10.0251 10.0252C9.70003 10.3502 9.44221 10.7361 9.26631 11.1607C9.09041 11.5854 8.99988 12.0405 8.99988 12.5002C8.99988 12.9598 9.09041 13.415 9.26631 13.8396C9.44221 14.2643 9.70003 14.6502 10.0251 14.9752C10.6815 15.6316 11.5718 16.0004 12.5001 16.0004C13.4284 16.0004 14.3186 15.6316 14.9751 14.9752C15.6315 14.3188 16.0002 13.4285 16.0002 12.5002C16.0002 11.5719 15.6315 10.6816 14.9751 10.0252V10.0252ZM10.7321 10.7322C11.1396 10.3247 11.6755 10.0705 12.2489 10.0125C12.8223 9.95457 13.3982 10.0965 13.8791 10.4142L10.4141 13.8792C10.0963 13.3983 9.95444 12.8225 10.0124 12.249C10.0703 11.6756 10.3246 11.1398 10.7321 10.7322V10.7322ZM11.1221 14.5862L14.5861 11.1212C14.9034 11.6021 15.045 12.1778 14.9869 12.751C14.9288 13.3243 14.6746 13.8598 14.2671 14.2673C13.8597 14.6747 13.3241 14.9289 12.7509 14.987C12.1777 15.0451 11.6019 14.9035 11.1211 14.5862H11.1221Z" fill="currentColor"/>
</g>
<defs>
<clipPath id="clip0_1419_455">
<rect width="16" height="16" fill="white"/>
</clipPath>
</defs>
</svg>
