<svg width="16" height="16" viewBox="0 0 16 16" fill="none" xmlns="http://www.w3.org/2000/svg">
<path d="M0.05 3.555C0.150818 3.11324 0.398655 2.71881 0.752922 2.43631C1.10719 2.1538 1.54688 1.99997 2 2H14C14.4531 1.99997 14.8928 2.1538 15.2471 2.43631C15.6013 2.71881 15.8492 3.11324 15.95 3.555L8 8.414L0.05 3.555ZM0 4.697V11.801L5.803 8.243L0 4.697ZM6.761 8.83L0.191 12.856C0.353183 13.1985 0.609322 13.4878 0.929588 13.6904C1.24985 13.8929 1.62107 14.0003 2 14H8.256C8.086 13.5182 7.99943 13.0109 8 12.5C7.99931 11.8431 8.14278 11.194 8.42027 10.5986C8.69776 10.0032 9.10252 9.47594 9.606 9.054L9.239 8.829L8 9.586L6.761 8.829V8.83ZM16 4.697V9.671C15.5785 9.14863 15.0454 8.72738 14.4397 8.4382C13.834 8.14903 13.1712 7.99929 12.5 8C11.8194 7.99912 11.1474 8.153 10.535 8.45L10.197 8.243L16 4.697Z" fill="currentColor"/>
<path d="M16 12.5C16 13.4283 15.6313 14.3185 14.9749 14.9749C14.3185 15.6313 13.4283 16 12.5 16C11.5717 16 10.6815 15.6313 10.0251 14.9749C9.36875 14.3185 9 13.4283 9 12.5C9 11.5717 9.36875 10.6815 10.0251 10.0251C10.6815 9.36875 11.5717 9 12.5 9C13.4283 9 14.3185 9.36875 14.9749 10.0251C15.6313 10.6815 16 11.5717 16 12.5V12.5ZM14.007 10.821C13.9507 10.7872 13.8882 10.7649 13.8233 10.7553C13.7583 10.7457 13.6921 10.7489 13.6284 10.7649C13.5647 10.7809 13.5047 10.8092 13.452 10.8484C13.3993 10.8875 13.3547 10.9367 13.321 10.993L12.151 12.943L11.604 12.396C11.5101 12.3021 11.3828 12.2494 11.25 12.2494C11.1172 12.2494 10.9899 12.3021 10.896 12.396C10.8021 12.4899 10.7494 12.6172 10.7494 12.75C10.7494 12.8828 10.8021 13.0101 10.896 13.104L11.67 13.877C11.7506 13.9577 11.8485 14.019 11.9563 14.0562C12.0641 14.0934 12.179 14.1055 12.2922 14.0916C12.4053 14.0777 12.5139 14.0382 12.6095 13.9761C12.7051 13.9139 12.7853 13.8308 12.844 13.733L14.179 11.507C14.2128 11.4507 14.2351 11.3882 14.2447 11.3233C14.2543 11.2583 14.2511 11.1921 14.2351 11.1284C14.2191 11.0647 14.1908 11.0047 14.1516 10.952C14.1125 10.8993 14.0633 10.8547 14.007 10.821V10.821Z" fill="currentColor"/>
</svg>
