<svg width="16" height="16" viewBox="0 0 16 16" fill="none" xmlns="http://www.w3.org/2000/svg">
<path d="M8.086 2.20691C8.46105 1.83197 8.96967 1.62134 9.5 1.62134C10.0303 1.62134 10.5389 1.83197 10.914 2.20691L14.793 6.08591C15.1679 6.46097 15.3786 6.96958 15.3786 7.49991C15.3786 8.03024 15.1679 8.53886 14.793 8.91391L9.293 14.4139C8.91801 14.789 8.40939 14.9998 7.879 14.9999H5.12C4.58961 14.9998 4.08098 14.789 3.706 14.4139L1.206 11.9139C0.831053 11.5389 0.620422 11.0302 0.620422 10.4999C0.620422 9.96958 0.831053 9.46097 1.206 9.08591L8.085 2.20691H8.086ZM10.207 2.91391C10.0195 2.72644 9.76516 2.62112 9.5 2.62112C9.23483 2.62112 8.98052 2.72644 8.793 2.91391L4.16 7.54691L9.453 12.8399L14.086 8.20691C14.2735 8.01938 14.3788 7.76507 14.3788 7.49991C14.3788 7.23475 14.2735 6.98044 14.086 6.79291L10.207 2.91391V2.91391ZM8.746 13.5469L3.453 8.25391L1.914 9.79291C1.72652 9.98044 1.62121 10.2347 1.62121 10.4999C1.62121 10.7651 1.72652 11.0194 1.914 11.2069L4.414 13.7069C4.60149 13.8945 4.8558 13.9999 5.121 13.9999H7.88C8.14519 13.9999 8.3995 13.8945 8.587 13.7069L8.74699 13.5469H8.746Z" fill="#1B1B1B"/>
</svg>
