<svg width="16" height="16" viewBox="0 0 16 16" fill="none" xmlns="http://www.w3.org/2000/svg">
<path d="M8.53799 1.02C8.47246 1.01501 8.40659 1.02297 8.34414 1.04344C8.28168 1.06391 8.22388 1.09648 8.17401 1.13928C8.12415 1.18209 8.0832 1.2343 8.05351 1.29293C8.02383 1.35156 8.00598 1.41547 8.00099 1.481C7.996 1.54653 8.00396 1.6124 8.02443 1.67485C8.0449 1.7373 8.07746 1.79511 8.12027 1.84498C8.16308 1.89484 8.21529 1.93579 8.27392 1.96547C8.33255 1.99516 8.39646 2.01301 8.46199 2.018C9.60587 2.1065 10.7004 2.5211 11.6158 3.21266C12.5313 3.90423 13.2293 4.84376 13.627 5.9199C14.0248 6.99604 14.1057 8.16366 13.8601 9.28437C13.6146 10.4051 13.0528 11.4319 12.2415 12.2431C11.4302 13.0543 10.4033 13.6159 9.28252 13.8613C8.16177 14.1067 6.99416 14.0256 5.91809 13.6276C4.84201 13.2297 3.90258 12.5316 3.21116 11.616C2.51974 10.7005 2.1053 9.6059 2.01699 8.462C2.00508 8.3312 1.9422 8.21034 1.84191 8.12553C1.74163 8.04072 1.612 7.99877 1.48104 8.00876C1.35008 8.01874 1.22831 8.07985 1.14204 8.17888C1.05577 8.27791 1.01193 8.40691 1.01999 8.538C1.12301 9.8726 1.60653 11.1497 2.41324 12.2179C3.21994 13.286 4.316 14.1005 5.57149 14.5648C6.82698 15.029 8.18925 15.1235 9.49683 14.8372C10.8044 14.5508 12.0025 13.8955 12.949 12.949C13.8955 12.0025 14.5508 10.8044 14.8371 9.49684C15.1235 8.18926 15.029 6.82699 14.5647 5.5715C14.1005 4.31601 13.286 3.21995 12.2178 2.41325C11.1497 1.60655 9.87259 1.12302 8.53799 1.02V1.02Z" fill="#1B1B1B"/>
<path d="M7.096 7.8279C7.1903 7.91898 7.3166 7.96938 7.4477 7.96824C7.5788 7.9671 7.70421 7.91452 7.79691 7.82181C7.88961 7.72911 7.9422 7.6037 7.94334 7.4726C7.94448 7.3415 7.89408 7.2152 7.803 7.1209L2.707 2.0249H5.475C5.60761 2.0249 5.73479 1.97222 5.82855 1.87846C5.92232 1.78469 5.975 1.65751 5.975 1.5249C5.975 1.39229 5.92232 1.26512 5.82855 1.17135C5.73479 1.07758 5.60761 1.0249 5.475 1.0249H1.5C1.36739 1.0249 1.24021 1.07758 1.14645 1.17135C1.05268 1.26512 1 1.39229 1 1.5249V5.4999C1 5.63251 1.05268 5.75969 1.14645 5.85346C1.24021 5.94722 1.36739 5.9999 1.5 5.9999C1.63261 5.9999 1.75979 5.94722 1.85355 5.85346C1.94732 5.75969 2 5.63251 2 5.4999V2.7319L7.096 7.8279Z" fill="#1B1B1B"/>
</svg>
