<svg width="16" height="16" viewBox="0 0 16 16" fill="none" xmlns="http://www.w3.org/2000/svg">
<g clip-path="url(#clip0_1419_1094)">
<path d="M14 13.5V6.5C14 6.36739 13.9473 6.24021 13.8536 6.14645C13.7598 6.05268 13.6326 6 13.5 6H12V4.5C12 4.36739 11.9473 4.24021 11.8536 4.14645C11.7598 4.05268 11.6326 4 11.5 4H10.5V3.5C10.5 3.36739 10.4473 3.24021 10.3536 3.14645C10.2598 3.05268 10.1326 3 10 3H6C5.86739 3 5.74021 3.05268 5.64645 3.14645C5.55268 3.24021 5.5 3.36739 5.5 3.5V4H4.5C4.36739 4 4.24021 4.05268 4.14645 4.14645C4.05268 4.24021 4 4.36739 4 4.5V6H2.5C2.36739 6 2.24021 6.05268 2.14645 6.14645C2.05268 6.24021 2 6.36739 2 6.5V13.5C2 13.6326 2.05268 13.7598 2.14645 13.8536C2.24021 13.9473 2.36739 14 2.5 14H13.5C13.6326 14 13.7598 13.9473 13.8536 13.8536C13.9473 13.7598 14 13.6326 14 13.5ZM3.75 11H4.25C4.3163 11 4.37989 11.0263 4.42678 11.0732C4.47366 11.1201 4.5 11.1837 4.5 11.25V12.75C4.5 12.8163 4.47366 12.8799 4.42678 12.9268C4.37989 12.9737 4.3163 13 4.25 13H3.75C3.6837 13 3.62011 12.9737 3.57322 12.9268C3.52634 12.8799 3.5 12.8163 3.5 12.75V11.25C3.5 11.1837 3.52634 11.1201 3.57322 11.0732C3.62011 11.0263 3.6837 11 3.75 11V11ZM5.75 11H6.25C6.3163 11 6.37989 11.0263 6.42678 11.0732C6.47366 11.1201 6.5 11.1837 6.5 11.25V12.75C6.5 12.8163 6.47366 12.8799 6.42678 12.9268C6.37989 12.9737 6.3163 13 6.25 13H5.75C5.6837 13 5.62011 12.9737 5.57322 12.9268C5.52634 12.8799 5.5 12.8163 5.5 12.75V11.25C5.5 11.1837 5.52634 11.1201 5.57322 11.0732C5.62011 11.0263 5.6837 11 5.75 11ZM7.5 11.25C7.5 11.1837 7.52634 11.1201 7.57322 11.0732C7.62011 11.0263 7.6837 11 7.75 11H8.25C8.3163 11 8.37989 11.0263 8.42678 11.0732C8.47366 11.1201 8.5 11.1837 8.5 11.25V12.75C8.5 12.8163 8.47366 12.8799 8.42678 12.9268C8.37989 12.9737 8.3163 13 8.25 13H7.75C7.6837 13 7.62011 12.9737 7.57322 12.9268C7.52634 12.8799 7.5 12.8163 7.5 12.75V11.25ZM9.75 11H10.25C10.3163 11 10.3799 11.0263 10.4268 11.0732C10.4737 11.1201 10.5 11.1837 10.5 11.25V12.75C10.5 12.8163 10.4737 12.8799 10.4268 12.9268C10.3799 12.9737 10.3163 13 10.25 13H9.75C9.6837 13 9.62011 12.9737 9.57322 12.9268C9.52634 12.8799 9.5 12.8163 9.5 12.75V11.25C9.5 11.1837 9.52634 11.1201 9.57322 11.0732C9.62011 11.0263 9.6837 11 9.75 11ZM11.5 11.25C11.5 11.1837 11.5263 11.1201 11.5732 11.0732C11.6201 11.0263 11.6837 11 11.75 11H12.25C12.3163 11 12.3799 11.0263 12.4268 11.0732C12.4737 11.1201 12.5 11.1837 12.5 11.25V12.75C12.5 12.8163 12.4737 12.8799 12.4268 12.9268C12.3799 12.9737 12.3163 13 12.25 13H11.75C11.6837 13 11.6201 12.9737 11.5732 12.9268C11.5263 12.8799 11.5 12.8163 11.5 12.75V11.25Z" fill="#1B1B1B"/>
<path d="M2 0C1.46957 0 0.960859 0.210714 0.585786 0.585786C0.210714 0.960859 0 1.46957 0 2L0 14C0 14.5304 0.210714 15.0391 0.585786 15.4142C0.960859 15.7893 1.46957 16 2 16H14C14.5304 16 15.0391 15.7893 15.4142 15.4142C15.7893 15.0391 16 14.5304 16 14V2C16 1.46957 15.7893 0.960859 15.4142 0.585786C15.0391 0.210714 14.5304 0 14 0L2 0ZM1 2C1 1.73478 1.10536 1.48043 1.29289 1.29289C1.48043 1.10536 1.73478 1 2 1H14C14.2652 1 14.5196 1.10536 14.7071 1.29289C14.8946 1.48043 15 1.73478 15 2V14C15 14.2652 14.8946 14.5196 14.7071 14.7071C14.5196 14.8946 14.2652 15 14 15H2C1.73478 15 1.48043 14.8946 1.29289 14.7071C1.10536 14.5196 1 14.2652 1 14V2Z" fill="#1B1B1B"/>
</g>
<defs>
<clipPath id="clip0_1419_1094">
<rect width="16" height="16" fill="white"/>
</clipPath>
</defs>
</svg>
