<svg width="16" height="16" viewBox="0 0 16 16" fill="none" xmlns="http://www.w3.org/2000/svg">
<g clip-path="url(#clip0_1419_595)">
<path d="M2.51998 3.515C2.71288 3.065 3.03367 2.68155 3.44255 2.41223C3.85142 2.1429 4.33037 1.99957 4.81998 2H11.182C12.182 2 13.086 2.596 13.48 3.515L14.272 5.363C14.347 5.538 14.482 5.682 14.652 5.767C15.152 6.017 15.507 6.482 15.617 7.029L15.952 8.708C15.985 8.869 16.001 9.033 16.001 9.198V9.611C16.001 10.425 15.611 11.154 15.001 11.608V13.5C15.001 13.6326 14.9483 13.7598 14.8545 13.8536C14.7608 13.9473 14.6336 14 14.501 14H12.501C12.3684 14 12.2412 13.9473 12.1474 13.8536C12.0537 13.7598 12.001 13.6326 12.001 13.5V12.162C10.709 12.21 9.25598 12.25 8.00098 12.25C6.74598 12.25 5.29298 12.21 4.00098 12.162V13.5C4.00098 13.6326 3.9483 13.7598 3.85453 13.8536C3.76076 13.9473 3.63358 14 3.50098 14H1.50098C1.36837 14 1.24119 13.9473 1.14742 13.8536C1.05365 13.7598 1.00098 13.6326 1.00098 13.5V11.608C0.390977 11.154 0.000976562 10.425 0.000976562 9.611V9.198C0.00114439 9.03345 0.0175573 8.86932 0.0499766 8.708L0.384977 7.028C0.494977 6.482 0.849976 6.016 1.34898 5.767C1.51977 5.68165 1.65477 5.5385 1.72998 5.363L2.52198 3.515H2.51998ZM9.26998 4.025C9.23348 4.0037 9.19081 3.99546 9.14901 4.00164C9.1072 4.00782 9.06875 4.02805 9.03998 4.059L6.04998 7.246C6.0251 7.27276 6.00856 7.3062 6.00238 7.34221C5.9962 7.37822 6.00065 7.41526 6.01518 7.44878C6.02972 7.48231 6.05371 7.51087 6.08422 7.53098C6.11473 7.55109 6.15044 7.56187 6.18698 7.562H7.42798L6.75498 9.757C6.74242 9.7976 6.74399 9.84125 6.75943 9.88084C6.77487 9.92043 6.80326 9.95362 6.83998 9.975C6.91498 10.018 7.00998 10.005 7.06998 9.941L9.94998 6.754C9.97485 6.72724 9.9914 6.69381 9.99757 6.65779C10.0038 6.62178 9.9993 6.58474 9.98477 6.55122C9.97023 6.51769 9.94625 6.48913 9.91574 6.46902C9.88522 6.44892 9.84952 6.43814 9.81298 6.438H8.57198L9.35398 4.243C9.36653 4.20241 9.36496 4.15875 9.34952 4.11917C9.33409 4.07958 9.3057 4.04638 9.26898 4.025H9.26998Z" fill="currentColor"/>
</g>
<defs>
<clipPath id="clip0_1419_595">
<rect width="16" height="16" fill="white"/>
</clipPath>
</defs>
</svg>
