<svg width="16" height="16" viewBox="0 0 16 16" fill="none" xmlns="http://www.w3.org/2000/svg">
<g clip-path="url(#clip0_1419_596)">
<path d="M9.35404 4.24312C9.3666 4.20253 9.36503 4.15887 9.34959 4.11929C9.33416 4.0797 9.30576 4.0465 9.26904 4.02512C9.23255 4.00382 9.18988 3.99558 9.14808 4.00176C9.10627 4.00794 9.06782 4.02817 9.03904 4.05912L6.05104 7.24612C6.02622 7.27282 6.0097 7.30616 6.00348 7.34208C5.99727 7.37801 6.00163 7.41496 6.01605 7.44845C6.03046 7.48194 6.0543 7.51051 6.08466 7.53069C6.11502 7.55087 6.15059 7.56179 6.18704 7.56212H7.42804L6.75504 9.75712C6.74249 9.79772 6.74406 9.84137 6.7595 9.88096C6.77493 9.92055 6.80332 9.95374 6.84004 9.97512C6.91504 10.0181 7.01004 10.0051 7.07004 9.94112L9.95004 6.75412C9.97492 6.72736 9.99146 6.69393 9.99764 6.65791C10.0038 6.6219 9.99937 6.58486 9.98484 6.55134C9.9703 6.51781 9.94631 6.48925 9.9158 6.46914C9.88529 6.44904 9.84958 6.43826 9.81304 6.43812H8.57204L9.35404 4.24312Z" fill="currentColor"/>
<path d="M4.81898 2C4.32954 1.99976 3.8508 2.14319 3.44213 2.4125C3.03345 2.68181 2.71281 3.06516 2.51998 3.515L1.72798 5.363C1.65302 5.53833 1.5184 5.68146 1.34798 5.767C0.847977 6.017 0.492977 6.482 0.382977 7.029L0.0499766 8.708C0.0175573 8.86932 0.00114439 9.03345 0.000976562 9.198V9.611C0.000976562 10.425 0.390977 11.154 1.00098 11.608V13.5C1.00098 13.6326 1.05365 13.7598 1.14742 13.8536C1.24119 13.9473 1.36837 14 1.50098 14H3.50098C3.63358 14 3.76076 13.9473 3.85453 13.8536C3.9483 13.7598 4.00098 13.6326 4.00098 13.5V12.162C5.29298 12.21 6.74598 12.25 8.00098 12.25C9.25598 12.25 10.709 12.21 12.001 12.162V13.5C12.001 13.6326 12.0537 13.7598 12.1474 13.8536C12.2412 13.9473 12.3684 14 12.501 14H14.501C14.6336 14 14.7608 13.9473 14.8545 13.8536C14.9483 13.7598 15.001 13.6326 15.001 13.5V11.608C15.611 11.154 16.001 10.425 16.001 9.611V9.198C16.001 9.033 15.985 8.869 15.952 8.708L15.617 7.028C15.5629 6.7583 15.4479 6.50452 15.2808 6.28599C15.1138 6.06746 14.899 5.88995 14.653 5.767C14.4822 5.68165 14.3472 5.5385 14.272 5.363L13.48 3.515C13.2871 3.06516 12.9665 2.68181 12.5578 2.4125C12.1491 2.14319 11.6704 1.99976 11.181 2H4.81998H4.81898ZM3.43998 3.91C3.55557 3.63981 3.74798 3.40953 3.99331 3.24775C4.23865 3.08597 4.5261 2.99982 4.81998 3H11.182C11.4757 3.00002 11.7629 3.08626 12.0081 3.24803C12.2532 3.4098 12.4455 3.63997 12.561 3.91L13.353 5.757C13.521 6.15006 13.8233 6.47051 14.206 6.661C14.428 6.773 14.587 6.981 14.636 7.225L14.972 8.904C14.992 9.001 15.001 9.099 15.001 9.198V9.611C15.0025 9.99205 14.8569 10.359 14.5946 10.6354C14.3324 10.9118 13.9736 11.0765 13.593 11.095C12.038 11.165 9.80698 11.25 8.00098 11.25C6.19498 11.25 3.96398 11.166 2.40898 11.095C2.02811 11.077 1.66893 10.9125 1.4064 10.636C1.14386 10.3595 0.99826 9.99229 0.999977 9.611V9.198C0.999977 9.099 1.00998 9.001 1.02998 8.904L1.36498 7.224C1.38911 7.10363 1.44038 6.99036 1.5149 6.89279C1.58941 6.79523 1.6852 6.71596 1.79498 6.661C2.17798 6.471 2.47998 6.15 2.64798 5.757L3.43998 3.909V3.91Z" fill="currentColor"/>
</g>
<defs>
<clipPath id="clip0_1419_596">
<rect width="16" height="16" fill="white"/>
</clipPath>
</defs>
</svg>
