<svg width="16" height="16" viewBox="0 0 16 16" fill="none" xmlns="http://www.w3.org/2000/svg">
<path d="M1 2C1 1.46957 1.21071 0.960859 1.58579 0.585786C1.96086 0.210714 2.46957 0 3 0L9 0C9.53043 0 10.0391 0.210714 10.4142 0.585786C10.7893 0.960859 11 1.46957 11 2V10C11.5304 10 12.0391 10.2107 12.4142 10.5858C12.7893 10.9609 13 11.4696 13 12V12.5C13 12.6326 13.0527 12.7598 13.1464 12.8536C13.2402 12.9473 13.3674 13 13.5 13C13.6326 13 13.7598 12.9473 13.8536 12.8536C13.9473 12.7598 14 12.6326 14 12.5V9C14 8.742 13.896 8.623 13.643 8.365L13.636 8.357C13.379 8.096 13 7.71 13 7V4C12.9999 3.9343 13.0127 3.86921 13.0378 3.80847C13.0628 3.74773 13.0996 3.69252 13.146 3.646L13.646 3.146C13.6924 3.09944 13.7476 3.06249 13.8084 3.03729C13.8691 3.01208 13.9342 2.99911 14 2.99911C14.0658 2.99911 14.1309 3.01208 14.1916 3.03729C14.2524 3.06249 14.3076 3.09944 14.354 3.146L14.854 3.646C14.9004 3.69252 14.9372 3.74773 14.9622 3.80847C14.9873 3.86921 15.0001 3.9343 15 4V12.5C15 12.8978 14.842 13.2794 14.5607 13.5607C14.2794 13.842 13.8978 14 13.5 14C13.1022 14 12.7206 13.842 12.4393 13.5607C12.158 13.2794 12 12.8978 12 12.5V12C12 11.7348 11.8946 11.4804 11.7071 11.2929C11.5196 11.1054 11.2652 11 11 11V15H11.5C11.6326 15 11.7598 15.0527 11.8536 15.1464C11.9473 15.2402 12 15.3674 12 15.5C12 15.6326 11.9473 15.7598 11.8536 15.8536C11.7598 15.9473 11.6326 16 11.5 16H0.5C0.367392 16 0.240215 15.9473 0.146447 15.8536C0.0526784 15.7598 0 15.6326 0 15.5C0 15.3674 0.0526784 15.2402 0.146447 15.1464C0.240215 15.0527 0.367392 15 0.5 15H1V2ZM3 2.5V7.5C3 7.63261 3.05268 7.75979 3.14645 7.85355C3.24021 7.94732 3.36739 8 3.5 8H8.5C8.63261 8 8.75979 7.94732 8.85355 7.85355C8.94732 7.75979 9 7.63261 9 7.5V2.5C9 2.36739 8.94732 2.24021 8.85355 2.14645C8.75979 2.05268 8.63261 2 8.5 2H3.5C3.36739 2 3.24021 2.05268 3.14645 2.14645C3.05268 2.24021 3 2.36739 3 2.5ZM5.631 12.46H4.14V11.567H5.543V11.062H4.14V10.207H5.63V9.667H3.485V13H5.631V12.46ZM6.947 13H7.741L8.847 9.667H8.114L7.374 12.282H7.343L6.596 9.667H5.832L6.947 13Z" fill="#1B1B1B"/>
</svg>
