<svg width="16" height="16" viewBox="0 0 16 16" fill="none" xmlns="http://www.w3.org/2000/svg">
<path d="M3.5 2C3.36739 2 3.24021 2.05268 3.14645 2.14645C3.05268 2.24021 3 2.36739 3 2.5V7.5C3 7.63261 3.05268 7.75979 3.14645 7.85355C3.24021 7.94732 3.36739 8 3.5 8H8.5C8.63261 8 8.75979 7.94732 8.85355 7.85355C8.94732 7.75979 9 7.63261 9 7.5V2.5C9 2.36739 8.94732 2.24021 8.85355 2.14645C8.75979 2.05268 8.63261 2 8.5 2H3.5ZM5.631 12.46H4.14V11.567H5.543V11.062H4.14V10.207H5.63V9.667H3.485V13H5.631V12.46ZM6.947 13H7.741L8.847 9.667H8.114L7.374 12.282H7.343L6.596 9.667H5.832L6.947 13Z" fill="currentColor"/>
<path d="M3 0C2.46957 0 1.96086 0.210714 1.58579 0.585786C1.21071 0.960859 1 1.46957 1 2V15H0.5C0.367392 15 0.240215 15.0527 0.146447 15.1464C0.0526784 15.2402 0 15.3674 0 15.5C0 15.6326 0.0526784 15.7598 0.146447 15.8536C0.240215 15.9473 0.367392 16 0.5 16H11.5C11.6326 16 11.7598 15.9473 11.8536 15.8536C11.9473 15.7598 12 15.6326 12 15.5C12 15.3674 11.9473 15.2402 11.8536 15.1464C11.7598 15.0527 11.6326 15 11.5 15H11V11C11.2652 11 11.5196 11.1054 11.7071 11.2929C11.8946 11.4804 12 11.7348 12 12V12.5C12 12.8978 12.158 13.2794 12.4393 13.5607C12.7206 13.842 13.1022 14 13.5 14C13.8978 14 14.2794 13.842 14.5607 13.5607C14.842 13.2794 15 12.8978 15 12.5V4C15.0001 3.9343 14.9873 3.86921 14.9622 3.80847C14.9372 3.74773 14.9004 3.69252 14.854 3.646L14.354 3.146C14.2602 3.05226 14.1331 2.99961 14.0005 2.99961C13.8679 2.99961 13.7408 3.05226 13.647 3.146L13.147 3.646C13.1004 3.69244 13.0635 3.74761 13.0382 3.80835C13.013 3.8691 13 3.93423 13 4V7C13 7.71 13.38 8.096 13.636 8.357L13.643 8.365C13.896 8.623 14 8.742 14 9V12.5C14 12.6326 13.9473 12.7598 13.8536 12.8536C13.7598 12.9473 13.6326 13 13.5 13C13.3674 13 13.2402 12.9473 13.1464 12.8536C13.0527 12.7598 13 12.6326 13 12.5V12C13 11.4696 12.7893 10.9609 12.4142 10.5858C12.0391 10.2107 11.5304 10 11 10V2C11 1.46957 10.7893 0.960859 10.4142 0.585786C10.0391 0.210714 9.53043 0 9 0L3 0ZM10 2V15H2V2C2 1.73478 2.10536 1.48043 2.29289 1.29289C2.48043 1.10536 2.73478 1 3 1H9C9.26522 1 9.51957 1.10536 9.70711 1.29289C9.89464 1.48043 10 1.73478 10 2Z" fill="currentColor"/>
</svg>
