<svg width="16" height="16" viewBox="0 0 16 16" fill="none" xmlns="http://www.w3.org/2000/svg">
<path d="M7.002 11.0001C7.002 10.8688 7.02786 10.7388 7.07812 10.6174C7.12837 10.4961 7.20203 10.3859 7.29489 10.293C7.38775 10.2002 7.49799 10.1265 7.61932 10.0762C7.74064 10.026 7.87068 10.0001 8.002 10.0001C8.13332 10.0001 8.26336 10.026 8.38468 10.0762C8.50601 10.1265 8.61625 10.2002 8.70911 10.293C8.80196 10.3859 8.87562 10.4961 8.92588 10.6174C8.97613 10.7388 9.002 10.8688 9.002 11.0001C9.002 11.2653 8.89664 11.5197 8.70911 11.7072C8.52157 11.8948 8.26722 12.0001 8.002 12.0001C7.73678 12.0001 7.48243 11.8948 7.29489 11.7072C7.10736 11.5197 7.002 11.2653 7.002 11.0001V11.0001ZM7.1 4.99512C7.08668 4.86896 7.10004 4.74141 7.1392 4.62075C7.17836 4.50008 7.24245 4.389 7.32732 4.2947C7.41218 4.20041 7.51592 4.12501 7.63181 4.0734C7.7477 4.02179 7.87314 3.99512 8 3.99512C8.12686 3.99512 8.2523 4.02179 8.36819 4.0734C8.48407 4.12501 8.58782 4.20041 8.67268 4.2947C8.75754 4.389 8.82164 4.50008 8.8608 4.62075C8.89996 4.74141 8.91332 4.86896 8.9 4.99512L8.55 8.50212C8.53578 8.63808 8.4717 8.76396 8.37013 8.85546C8.26856 8.94696 8.1367 8.99759 8 8.99759C7.86329 8.99759 7.73143 8.94696 7.62987 8.85546C7.5283 8.76396 7.46422 8.63808 7.45 8.50212L7.1 4.99512Z" fill="currentColor"/>
</svg>
