<svg width="16" height="16" viewBox="0 0 16 16" fill="none" xmlns="http://www.w3.org/2000/svg">
<g clip-path="url(#clip0_1419_1615)">
<path d="M7.93801 2.01595C7.95761 2.0052 7.97965 1.99969 8.00201 1.99995C8.02402 1.99986 8.0457 2.00537 8.06501 2.01595C8.08787 2.02966 8.10655 2.04938 8.11901 2.07295L14.976 13.74C15.012 13.8 15.011 13.864 14.978 13.923C14.9653 13.9472 14.9468 13.9678 14.924 13.983C14.9042 13.9951 14.8812 14.001 14.858 14H1.14601C1.12279 14.0011 1.09978 13.9952 1.08001 13.983C1.05726 13.9678 1.03869 13.9472 1.02601 13.923C1.00953 13.8952 1.001 13.8634 1.00135 13.8312C1.0017 13.7989 1.01092 13.7673 1.02801 13.74L7.88401 2.07295C7.89651 2.04941 7.91517 2.0297 7.93801 2.01595V2.01595ZM8.98201 1.56595C8.88302 1.39352 8.74028 1.25025 8.56821 1.15062C8.39615 1.051 8.20084 0.998535 8.00201 0.998535C7.80318 0.998535 7.60787 1.051 7.4358 1.15062C7.26373 1.25025 7.121 1.39352 7.02201 1.56595L0.165007 13.233C-0.291993 14.011 0.256007 15 1.14501 15H14.858C15.747 15 16.296 14.01 15.838 13.233L8.98201 1.56595Z" fill="currentColor"/>
<path d="M7.002 12.0001C7.002 11.8688 7.02786 11.7388 7.07812 11.6174C7.12837 11.4961 7.20203 11.3859 7.29489 11.293C7.38775 11.2002 7.49799 11.1265 7.61932 11.0762C7.74064 11.026 7.87068 11.0001 8.002 11.0001C8.13332 11.0001 8.26336 11.026 8.38468 11.0762C8.50601 11.1265 8.61625 11.2002 8.70911 11.293C8.80196 11.3859 8.87562 11.4961 8.92588 11.6174C8.97613 11.7388 9.002 11.8688 9.002 12.0001C9.002 12.2653 8.89664 12.5197 8.70911 12.7072C8.52157 12.8948 8.26722 13.0001 8.002 13.0001C7.73678 13.0001 7.48243 12.8948 7.29489 12.7072C7.10736 12.5197 7.002 12.2653 7.002 12.0001V12.0001ZM7.1 5.99512C7.08668 5.86896 7.10004 5.74141 7.1392 5.62075C7.17836 5.50008 7.24245 5.389 7.32732 5.2947C7.41218 5.20041 7.51592 5.12501 7.63181 5.0734C7.7477 5.02179 7.87314 4.99512 8 4.99512C8.12686 4.99512 8.2523 5.02179 8.36819 5.0734C8.48407 5.12501 8.58782 5.20041 8.67268 5.2947C8.75754 5.389 8.82164 5.50008 8.8608 5.62075C8.89996 5.74141 8.91332 5.86896 8.9 5.99512L8.55 9.50212C8.53824 9.63989 8.4752 9.76823 8.37335 9.86175C8.27151 9.95528 8.13827 10.0072 8 10.0072C7.86173 10.0072 7.72849 9.95528 7.62664 9.86175C7.5248 9.76823 7.46176 9.63989 7.45 9.50212L7.1 5.99512Z" fill="currentColor"/>
</g>
<defs>
<clipPath id="clip0_1419_1615">
<rect width="16" height="16" fill="white"/>
</clipPath>
</defs>
</svg>
