<svg width="16" height="16" viewBox="0 0 16 16" fill="none" xmlns="http://www.w3.org/2000/svg">
<g clip-path="url(#clip0_1419_1613)">
<path d="M14 1C14.2652 1 14.5196 1.10536 14.7071 1.29289C14.8946 1.48043 15 1.73478 15 2V14C15 14.2652 14.8946 14.5196 14.7071 14.7071C14.5196 14.8946 14.2652 15 14 15H2C1.73478 15 1.48043 14.8946 1.29289 14.7071C1.10536 14.5196 1 14.2652 1 14V2C1 1.73478 1.10536 1.48043 1.29289 1.29289C1.48043 1.10536 1.73478 1 2 1H14ZM2 0C1.46957 0 0.960859 0.210714 0.585786 0.585786C0.210714 0.960859 0 1.46957 0 2L0 14C0 14.5304 0.210714 15.0391 0.585786 15.4142C0.960859 15.7893 1.46957 16 2 16H14C14.5304 16 15.0391 15.7893 15.4142 15.4142C15.7893 15.0391 16 14.5304 16 14V2C16 1.46957 15.7893 0.960859 15.4142 0.585786C15.0391 0.210714 14.5304 0 14 0L2 0Z" fill="currentColor"/>
<path d="M7.002 11.0001C7.002 10.8688 7.02786 10.7388 7.07812 10.6174C7.12837 10.4961 7.20203 10.3859 7.29489 10.293C7.38775 10.2002 7.49799 10.1265 7.61932 10.0762C7.74064 10.026 7.87068 10.0001 8.002 10.0001C8.13332 10.0001 8.26336 10.026 8.38468 10.0762C8.50601 10.1265 8.61625 10.2002 8.70911 10.293C8.80196 10.3859 8.87562 10.4961 8.92588 10.6174C8.97613 10.7388 9.002 10.8688 9.002 11.0001C9.002 11.2653 8.89664 11.5197 8.70911 11.7072C8.52157 11.8948 8.26722 12.0001 8.002 12.0001C7.73678 12.0001 7.48243 11.8948 7.29489 11.7072C7.10736 11.5197 7.002 11.2653 7.002 11.0001V11.0001ZM7.1 4.99512C7.08668 4.86896 7.10004 4.74141 7.1392 4.62075C7.17836 4.50008 7.24245 4.389 7.32732 4.2947C7.41218 4.20041 7.51592 4.12501 7.63181 4.0734C7.7477 4.02179 7.87314 3.99512 8 3.99512C8.12686 3.99512 8.2523 4.02179 8.36819 4.0734C8.48407 4.12501 8.58782 4.20041 8.67268 4.2947C8.75754 4.389 8.82164 4.50008 8.8608 4.62075C8.89996 4.74141 8.91332 4.86896 8.9 4.99512L8.55 8.50212C8.53824 8.63989 8.4752 8.76823 8.37335 8.86175C8.27151 8.95528 8.13827 9.00717 8 9.00717C7.86173 9.00717 7.72849 8.95528 7.62664 8.86175C7.5248 8.76823 7.46176 8.63989 7.45 8.50212L7.1 4.99512Z" fill="currentColor"/>
</g>
<defs>
<clipPath id="clip0_1419_1613">
<rect width="16" height="16" fill="white"/>
</clipPath>
</defs>
</svg>
