<svg width="16" height="16" viewBox="0 0 16 16" fill="none" xmlns="http://www.w3.org/2000/svg">
<g clip-path="url(#clip0_1419_1610)">
<path d="M6.95001 0.435C7.53001 -0.145 8.47001 -0.145 9.05001 0.435L15.565 6.951C16.145 7.531 16.145 8.47 15.565 9.049L9.05001 15.565C8.47001 16.145 7.53101 16.145 6.95201 15.565L0.435015 9.05C0.297078 8.91234 0.187644 8.74884 0.112978 8.56883C0.0383112 8.38883 -0.00012207 8.19587 -0.00012207 8.001C-0.00012207 7.80613 0.0383112 7.61317 0.112978 7.43317C0.187644 7.25316 0.297078 7.08966 0.435015 6.952L6.95001 0.435ZM8.35001 1.135C8.25719 1.04218 8.13129 0.990036 8.00001 0.990036C7.86874 0.990036 7.74284 1.04218 7.65001 1.135L1.13401 7.65C1.04119 7.74283 0.98905 7.86873 0.98905 8C0.98905 8.13127 1.04119 8.25717 1.13401 8.35L7.65001 14.866C7.74284 14.9588 7.86874 15.011 8.00001 15.011C8.13129 15.011 8.25719 14.9588 8.35001 14.866L14.866 8.35C14.9588 8.25717 15.011 8.13127 15.011 8C15.011 7.86873 14.9588 7.74283 14.866 7.65L8.35001 1.134V1.135Z" fill="currentColor"/>
<path d="M7.00201 11.0001C7.00201 10.8688 7.02788 10.7388 7.07813 10.6174C7.12839 10.4961 7.20205 10.3859 7.29491 10.293C7.38777 10.2002 7.49801 10.1265 7.61933 10.0762C7.74066 10.026 7.87069 10.0001 8.00201 10.0001C8.13334 10.0001 8.26337 10.026 8.3847 10.0762C8.50602 10.1265 8.61626 10.2002 8.70912 10.293C8.80198 10.3859 8.87564 10.4961 8.92589 10.6174C8.97615 10.7388 9.00201 10.8688 9.00201 11.0001C9.00201 11.2653 8.89666 11.5197 8.70912 11.7072C8.52158 11.8948 8.26723 12.0001 8.00201 12.0001C7.7368 12.0001 7.48244 11.8948 7.29491 11.7072C7.10737 11.5197 7.00201 11.2653 7.00201 11.0001V11.0001ZM7.10001 4.99512C7.0867 4.86896 7.10005 4.74141 7.13921 4.62075C7.17838 4.50008 7.24247 4.389 7.32733 4.2947C7.4122 4.20041 7.51594 4.12501 7.63183 4.0734C7.74771 4.02179 7.87315 3.99512 8.00001 3.99512C8.12687 3.99512 8.25232 4.02179 8.3682 4.0734C8.48409 4.12501 8.58783 4.20041 8.6727 4.2947C8.75756 4.389 8.82165 4.50008 8.86081 4.62075C8.89998 4.74141 8.91333 4.86896 8.90001 4.99512L8.55001 8.50212C8.53825 8.63989 8.47522 8.76823 8.37337 8.86175C8.27152 8.95528 8.13829 9.00717 8.00001 9.00717C7.86174 9.00717 7.7285 8.95528 7.62666 8.86175C7.52481 8.76823 7.46177 8.63989 7.45001 8.50212L7.10001 4.99512Z" fill="currentColor"/>
</g>
<defs>
<clipPath id="clip0_1419_1610">
<rect width="16" height="16" fill="white"/>
</clipPath>
</defs>
</svg>
