<svg width="16" height="16" viewBox="0 0 16 16" fill="none" xmlns="http://www.w3.org/2000/svg">
<g clip-path="url(#clip0_1419_1619)">
<path d="M10 3.00001C10 4.31301 9.69601 5.50801 9.20001 6.40001C8.98999 6.24182 8.75072 6.12679 8.49602 6.06157C8.24131 5.99635 7.9762 5.98222 7.71601 6.02001C7.43601 5.03801 6.80601 3.98001 5.87801 3.05101C5.72045 2.89319 5.55666 2.74174 5.38701 2.59701C6.20157 2.20273 7.09504 1.99859 8.00001 2.00001C8.69101 2.00001 9.35501 2.11701 9.97301 2.33201C9.99101 2.55101 10 2.77401 10 3.00001ZM10 8.00001C10 8.07301 9.99601 8.14601 9.98801 8.21701C11.006 8.19801 12.188 7.86401 13.319 7.21101C13.5138 7.09837 13.7039 6.97793 13.889 6.85001C13.5845 5.2912 12.6748 3.91654 11.359 3.02701C11.3185 3.24203 11.2701 3.4555 11.214 3.66701C10.874 4.93601 10.27 6.01301 9.55801 6.74601C9.83501 7.08901 10 7.52601 10 8.00001ZM9.86301 8.72801C9.76652 8.97424 9.62231 9.19898 9.43869 9.3893C9.25506 9.57962 9.03563 9.73177 8.79301 9.83701C9.31801 10.707 10.198 11.562 11.328 12.214C11.528 12.33 11.73 12.436 11.933 12.531C12.5291 12.0148 13.0174 11.3858 13.3697 10.6803C13.722 9.97485 13.9315 9.2067 13.986 8.42001C13.778 8.49301 13.565 8.56001 13.345 8.61901C12.081 8.95801 10.852 8.97501 9.86301 8.72901V8.72801ZM8.00001 10C7.55001 10 7.13401 9.85101 6.80001 9.60001C6.30601 10.49 6.00401 11.682 6.00401 12.991C6.00401 13.221 6.01401 13.448 6.03101 13.669C6.6642 13.8887 7.32978 14.0006 8.00001 14C8.94001 14 9.83001 13.784 10.623 13.398C10.4512 13.2521 10.2854 13.0993 10.126 12.94C9.20101 12.014 8.57101 10.959 8.29001 9.98001C8.19601 9.99301 8.09901 10 8.00001 10V10ZM6.00001 8.00001C6.00001 7.92001 6.00501 7.84001 6.01401 7.76101C4.99401 7.77801 3.80901 8.11201 2.67401 8.76801C2.47994 8.88002 2.29046 8.99978 2.10601 9.12701C2.25417 9.90137 2.55341 10.639 2.98665 11.2977C3.4199 11.9564 3.97865 12.5233 4.63101 12.966C4.67161 12.7465 4.72098 12.5286 4.77901 12.313C5.11901 11.046 5.71901 9.97101 6.42901 9.23801C6.15022 8.88567 5.999 8.44929 6.00001 8.00001ZM2.65301 7.36801C3.92001 7.02801 5.15101 7.01301 6.14101 7.26101C6.33701 6.76701 6.72401 6.37101 7.21101 6.16101C6.68701 5.28701 5.80501 4.42801 4.67001 3.77301C4.47626 3.6611 4.2781 3.55702 4.07601 3.46101C3.47922 3.97609 2.99004 4.60395 2.63653 5.30857C2.28302 6.01319 2.07214 6.78068 2.01601 7.56701C2.22201 7.49301 2.43401 7.42701 2.65301 7.36801V7.36801ZM8.00001 9.00001C8.26522 9.00001 8.51958 8.89465 8.70711 8.70711C8.89465 8.51958 9.00001 8.26522 9.00001 8.00001C9.00001 7.73479 8.89465 7.48044 8.70711 7.2929C8.51958 7.10536 8.26522 7.00001 8.00001 7.00001C7.73479 7.00001 7.48044 7.10536 7.2929 7.2929C7.10536 7.48044 7.00001 7.73479 7.00001 8.00001C7.00001 8.26522 7.10536 8.51958 7.2929 8.70711C7.48044 8.89465 7.73479 9.00001 8.00001 9.00001Z" fill="#1B1B1B"/>
<path d="M8 15C6.14348 15 4.36301 14.2625 3.05025 12.9497C1.7375 11.637 1 9.85652 1 8C1 6.14348 1.7375 4.36301 3.05025 3.05025C4.36301 1.7375 6.14348 1 8 1C9.85652 1 11.637 1.7375 12.9497 3.05025C14.2625 4.36301 15 6.14348 15 8C15 9.85652 14.2625 11.637 12.9497 12.9497C11.637 14.2625 9.85652 15 8 15ZM8 16C10.1217 16 12.1566 15.1571 13.6569 13.6569C15.1571 12.1566 16 10.1217 16 8C16 5.87827 15.1571 3.84344 13.6569 2.34315C12.1566 0.842855 10.1217 0 8 0C5.87827 0 3.84344 0.842855 2.34315 2.34315C0.842855 3.84344 0 5.87827 0 8C0 10.1217 0.842855 12.1566 2.34315 13.6569C3.84344 15.1571 5.87827 16 8 16V16Z" fill="#1B1B1B"/>
</g>
<defs>
<clipPath id="clip0_1419_1619">
<rect width="16" height="16" fill="white"/>
</clipPath>
</defs>
</svg>
