<svg width="16" height="16" viewBox="0 0 16 16" fill="none" xmlns="http://www.w3.org/2000/svg">
<path d="M8.79 5.09318C8.71524 5.03995 8.62726 5.00832 8.53572 5.00177C8.44418 4.99521 8.3526 5.01397 8.27101 5.05601C8.18942 5.09804 8.12098 5.16172 8.07318 5.24006C8.02537 5.31841 8.00006 5.4084 8 5.50018V7.38618L4.79 5.09318C4.71524 5.03995 4.62726 5.00832 4.53572 5.00177C4.44418 4.99521 4.35259 5.01397 4.27101 5.05601C4.18942 5.09804 4.12098 5.16172 4.07317 5.24006C4.02537 5.31841 4.00006 5.4084 4 5.50018V10.5002C4.00006 10.592 4.02537 10.6819 4.07317 10.7603C4.12098 10.8386 4.18942 10.9023 4.27101 10.9444C4.35259 10.9864 4.44418 11.0052 4.53572 10.9986C4.62726 10.992 4.71524 10.9604 4.79 10.9072L8 8.61418V10.5002C8.00006 10.592 8.02537 10.6819 8.07318 10.7603C8.12098 10.8386 8.18942 10.9023 8.27101 10.9444C8.3526 10.9864 8.44418 11.0052 8.53572 10.9986C8.62726 10.992 8.71524 10.9604 8.79 10.9072L12.29 8.40718C12.3548 8.36093 12.4076 8.29986 12.4441 8.22907C12.4806 8.15828 12.4996 8.07981 12.4996 8.00018C12.4996 7.92055 12.4806 7.84208 12.4441 7.77129C12.4076 7.70049 12.3548 7.63943 12.29 7.59318L8.79 5.09318Z" fill="currentColor"/>
<path d="M0 4C0 3.46957 0.210714 2.96086 0.585786 2.58579C0.960859 2.21071 1.46957 2 2 2H14C14.5304 2 15.0391 2.21071 15.4142 2.58579C15.7893 2.96086 16 3.46957 16 4V12C16 12.5304 15.7893 13.0391 15.4142 13.4142C15.0391 13.7893 14.5304 14 14 14H2C1.46957 14 0.960859 13.7893 0.585786 13.4142C0.210714 13.0391 0 12.5304 0 12V4ZM15 4C15 3.73478 14.8946 3.48043 14.7071 3.29289C14.5196 3.10536 14.2652 3 14 3H2C1.73478 3 1.48043 3.10536 1.29289 3.29289C1.10536 3.48043 1 3.73478 1 4V12C1 12.2652 1.10536 12.5196 1.29289 12.7071C1.48043 12.8946 1.73478 13 2 13H14C14.2652 13 14.5196 12.8946 14.7071 12.7071C14.8946 12.5196 15 12.2652 15 12V4Z" fill="currentColor"/>
</svg>
