<svg width="16" height="16" viewBox="0 0 16 16" fill="none" xmlns="http://www.w3.org/2000/svg">
<path d="M6.804 7.99995L1 4.63295V11.3669L6.804 7.99995ZM7.596 7.30395C7.7186 7.37414 7.82049 7.47547 7.89134 7.59769C7.9622 7.71991 7.99952 7.85868 7.99952 7.99995C7.99952 8.14122 7.9622 8.27999 7.89134 8.40221C7.82049 8.52442 7.7186 8.62576 7.596 8.69595L1.233 12.3879C0.713 12.6899 0 12.3449 0 11.6919V4.30795C0 3.65495 0.713 3.30995 1.233 3.61195L7.596 7.30395Z" fill="#1B1B1B"/>
<path d="M14.804 7.99995L9 4.63295V11.3669L14.804 7.99995ZM15.596 7.30395C15.7186 7.37414 15.8205 7.47547 15.8913 7.59769C15.9622 7.71991 15.9995 7.85868 15.9995 7.99995C15.9995 8.14122 15.9622 8.27999 15.8913 8.40221C15.8205 8.52442 15.7186 8.62576 15.596 8.69595L9.233 12.3879C8.713 12.6899 8 12.3449 8 11.6919V4.30795C8 3.65495 8.713 3.30995 9.233 3.61195L15.596 7.30395Z" fill="#1B1B1B"/>
</svg>
