<svg width="16" height="16" viewBox="0 0 16 16" fill="none" xmlns="http://www.w3.org/2000/svg">
<g clip-path="url(#clip0_1419_2125)">
<path d="M8 15C6.14348 15 4.36301 14.2625 3.05025 12.9497C1.7375 11.637 1 9.85652 1 8C1 6.14348 1.7375 4.36301 3.05025 3.05025C4.36301 1.7375 6.14348 1 8 1C9.85652 1 11.637 1.7375 12.9497 3.05025C14.2625 4.36301 15 6.14348 15 8C15 9.85652 14.2625 11.637 12.9497 12.9497C11.637 14.2625 9.85652 15 8 15ZM8 16C10.1217 16 12.1566 15.1571 13.6569 13.6569C15.1571 12.1566 16 10.1217 16 8C16 5.87827 15.1571 3.84344 13.6569 2.34315C12.1566 0.842855 10.1217 0 8 0C5.87827 0 3.84344 0.842855 2.34315 2.34315C0.842855 3.84344 0 5.87827 0 8C0 10.1217 0.842855 12.1566 2.34315 13.6569C3.84344 15.1571 5.87827 16 8 16V16Z" fill="#1B1B1B"/>
<path d="M4.271 5.05499C4.35278 5.01287 4.4446 4.99414 4.53635 5.00084C4.62809 5.00755 4.71621 5.03943 4.791 5.09299L8 7.38599V5.49999C8.00006 5.40821 8.02537 5.31822 8.07318 5.23987C8.12098 5.16152 8.18942 5.09785 8.27101 5.05581C8.3526 5.01378 8.44418 4.99502 8.53572 5.00157C8.62726 5.00813 8.71524 5.03975 8.79 5.09299L12.29 7.59299C12.3548 7.63924 12.4076 7.7003 12.4441 7.77109C12.4806 7.84189 12.4996 7.92036 12.4996 7.99999C12.4996 8.07961 12.4806 8.15809 12.4441 8.22888C12.4076 8.29967 12.3548 8.36073 12.29 8.40699L8.79 10.907C8.71524 10.9602 8.62726 10.9918 8.53572 10.9984C8.44418 11.005 8.3526 10.9862 8.27101 10.9442C8.18942 10.9021 8.12098 10.8384 8.07318 10.7601C8.02537 10.6818 8.00006 10.5918 8 10.5V8.61399L4.79 10.907C4.71524 10.9602 4.62726 10.9918 4.53572 10.9984C4.44418 11.005 4.3526 10.9862 4.27101 10.9442C4.18942 10.9021 4.12098 10.8384 4.07318 10.7601C4.02537 10.6818 4.00006 10.5918 4 10.5V5.49999C3.9999 5.40807 4.02515 5.3179 4.07296 5.2394C4.12077 5.16089 4.18929 5.09708 4.271 5.05499V5.05499Z" fill="#1B1B1B"/>
</g>
<defs>
<clipPath id="clip0_1419_2125">
<rect width="16" height="16" fill="white"/>
</clipPath>
</defs>
</svg>
