<svg width="16" height="16" viewBox="0 0 16 16" fill="none" xmlns="http://www.w3.org/2000/svg">
<g clip-path="url(#clip0_1419_2124)">
<path d="M8 16C10.1217 16 12.1566 15.1571 13.6569 13.6569C15.1571 12.1566 16 10.1217 16 8C16 5.87827 15.1571 3.84344 13.6569 2.34315C12.1566 0.842855 10.1217 0 8 0C5.87827 0 3.84344 0.842855 2.34315 2.34315C0.842855 3.84344 0 5.87827 0 8C0 10.1217 0.842855 12.1566 2.34315 13.6569C3.84344 15.1571 5.87827 16 8 16V16ZM4.79 5.093L8 7.386V5.5C8.00006 5.40822 8.02537 5.31823 8.07318 5.23988C8.12098 5.16154 8.18942 5.09786 8.27101 5.05583C8.3526 5.01379 8.44418 4.99503 8.53572 5.00159C8.62726 5.00814 8.71524 5.03977 8.79 5.093L12.29 7.593C12.3548 7.63925 12.4076 7.70031 12.4441 7.77111C12.4806 7.8419 12.4996 7.92037 12.4996 8C12.4996 8.07963 12.4806 8.1581 12.4441 8.22889C12.4076 8.29968 12.3548 8.36075 12.29 8.407L8.79 10.907C8.71524 10.9602 8.62726 10.9919 8.53572 10.9984C8.44418 11.005 8.3526 10.9862 8.27101 10.9442C8.18942 10.9021 8.12098 10.8385 8.07318 10.7601C8.02537 10.6818 8.00006 10.5918 8 10.5V8.614L4.79 10.907C4.71524 10.9602 4.62726 10.9919 4.53572 10.9984C4.44418 11.005 4.35259 10.9862 4.27101 10.9442C4.18942 10.9021 4.12098 10.8385 4.07317 10.7601C4.02537 10.6818 4.00006 10.5918 4 10.5V5.5C4.00006 5.40822 4.02537 5.31823 4.07317 5.23988C4.12098 5.16154 4.18942 5.09786 4.27101 5.05583C4.35259 5.01379 4.44418 4.99503 4.53572 5.00159C4.62726 5.00814 4.71524 5.03977 4.79 5.093V5.093Z" fill="#1B1B1B"/>
</g>
<defs>
<clipPath id="clip0_1419_2124">
<rect width="16" height="16" fill="white"/>
</clipPath>
</defs>
</svg>
