<svg width="16" height="16" viewBox="0 0 16 16" fill="none" xmlns="http://www.w3.org/2000/svg">
<path d="M0 4V12C0 12.5304 0.210714 13.0391 0.585786 13.4142C0.960859 13.7893 1.46957 14 2 14H14C14.5304 14 15.0391 13.7893 15.4142 13.4142C15.7893 13.0391 16 12.5304 16 12V4C16 3.46957 15.7893 2.96086 15.4142 2.58579C15.0391 2.21071 14.5304 2 14 2H2C1.46957 2 0.960859 2.21071 0.585786 2.58579C0.210714 2.96086 0 3.46957 0 4H0ZM4.271 5.055C4.35278 5.01289 4.4446 4.99415 4.53635 5.00086C4.62809 5.00756 4.71621 5.03944 4.791 5.093L8 7.386V5.5C8.00006 5.40822 8.02537 5.31823 8.07318 5.23988C8.12098 5.16154 8.18942 5.09786 8.27101 5.05583C8.3526 5.01379 8.44418 4.99503 8.53572 5.00159C8.62726 5.00814 8.71524 5.03977 8.79 5.093L12.29 7.593C12.3548 7.63925 12.4076 7.70031 12.4441 7.77111C12.4806 7.8419 12.4996 7.92037 12.4996 8C12.4996 8.07963 12.4806 8.1581 12.4441 8.22889C12.4076 8.29968 12.3548 8.36075 12.29 8.407L8.79 10.907C8.71524 10.9602 8.62726 10.9919 8.53572 10.9984C8.44418 11.005 8.3526 10.9862 8.27101 10.9442C8.18942 10.9021 8.12098 10.8385 8.07318 10.7601C8.02537 10.6818 8.00006 10.5918 8 10.5V8.614L4.79 10.907C4.71524 10.9602 4.62726 10.9919 4.53572 10.9984C4.44418 11.005 4.35259 10.9862 4.27101 10.9442C4.18942 10.9021 4.12098 10.8385 4.07317 10.7601C4.02537 10.6818 4.00006 10.5918 4 10.5V5.5C3.9999 5.40808 4.02515 5.31792 4.07296 5.23941C4.12077 5.16091 4.18929 5.0971 4.271 5.055V5.055Z" fill="currentColor"/>
</svg>
