<svg width="16" height="16" viewBox="0 0 16 16" fill="none" xmlns="http://www.w3.org/2000/svg">
<path d="M5.48512 6.879C5.47049 6.81399 5.44301 6.75256 5.4043 6.69832C5.3656 6.64408 5.31644 6.59813 5.25972 6.56316C5.20299 6.52819 5.13985 6.50491 5.07401 6.49469C5.00816 6.48447 4.94094 6.48751 4.87628 6.50364C4.81163 6.51977 4.75085 6.54866 4.69752 6.58861C4.64419 6.62857 4.59939 6.67878 4.56574 6.73629C4.53209 6.79381 4.51028 6.85747 4.50159 6.92354C4.49289 6.9896 4.49749 7.05674 4.51512 7.121L6.01512 13.121C6.04213 13.2281 6.10383 13.3232 6.1906 13.3915C6.27738 13.4599 6.38433 13.4975 6.49476 13.4987C6.6052 13.4998 6.71291 13.4644 6.80107 13.3979C6.88924 13.3313 6.9529 13.2375 6.98212 13.131L8.00012 9.402L9.01812 13.132C9.04734 13.2385 9.111 13.3323 9.19916 13.3989C9.28733 13.4654 9.39503 13.5008 9.50547 13.4997C9.61591 13.4985 9.72286 13.4609 9.80963 13.3925C9.8964 13.3242 9.95811 13.2291 9.98512 13.122L11.4851 7.122C11.5138 6.99458 11.4915 6.86101 11.4229 6.74983C11.3544 6.63866 11.2451 6.55872 11.1183 6.5271C10.9916 6.49549 10.8576 6.51471 10.7448 6.58066C10.6321 6.64661 10.5497 6.75405 10.5151 6.88L9.47912 11.024L8.48212 7.369C8.45302 7.2635 8.39011 7.17046 8.30304 7.10416C8.21597 7.03786 8.10956 7.00195 8.00012 7.00195C7.89068 7.00195 7.78426 7.03786 7.69719 7.10416C7.61013 7.17046 7.54722 7.2635 7.51812 7.369L6.52112 11.024L5.48512 6.88V6.879Z" fill="currentColor"/>
<path d="M14 14V4.5L9.5 0H4C3.46957 0 2.96086 0.210714 2.58579 0.585786C2.21071 0.960859 2 1.46957 2 2V14C2 14.5304 2.21071 15.0391 2.58579 15.4142C2.96086 15.7893 3.46957 16 4 16H12C12.5304 16 13.0391 15.7893 13.4142 15.4142C13.7893 15.0391 14 14.5304 14 14ZM9.5 3C9.5 3.39782 9.65804 3.77936 9.93934 4.06066C10.2206 4.34196 10.6022 4.5 11 4.5H13V14C13 14.2652 12.8946 14.5196 12.7071 14.7071C12.5196 14.8946 12.2652 15 12 15H4C3.73478 15 3.48043 14.8946 3.29289 14.7071C3.10536 14.5196 3 14.2652 3 14V2C3 1.73478 3.10536 1.48043 3.29289 1.29289C3.48043 1.10536 3.73478 1 4 1H9.5V3Z" fill="currentColor"/>
</svg>
