<svg width="16" height="16" viewBox="0 0 16 16" fill="none" xmlns="http://www.w3.org/2000/svg">
<path d="M4.87908 4.51508C5.00771 4.48303 5.1438 4.50337 5.25744 4.57162C5.37108 4.63988 5.45296 4.75047 5.48508 4.87908L6.52108 9.02308L7.51808 5.36808C7.54718 5.26258 7.61009 5.16955 7.69716 5.10324C7.78423 5.03694 7.89064 5.00103 8.00008 5.00103C8.10952 5.00103 8.21594 5.03694 8.30301 5.10324C8.39007 5.16955 8.45298 5.26258 8.48208 5.36808L9.47908 9.02308L10.5151 4.87908C10.5496 4.75313 10.6321 4.64569 10.7448 4.57974C10.8575 4.51379 10.9916 4.49457 11.1183 4.52618C11.245 4.5578 11.3544 4.63774 11.4229 4.74891C11.4914 4.86009 11.5138 4.99367 11.4851 5.12108L9.98508 11.1211C9.95807 11.2282 9.89637 11.3233 9.8096 11.3916C9.72283 11.46 9.61587 11.4976 9.50544 11.4988C9.395 11.4999 9.28729 11.4645 9.19913 11.3979C9.11096 11.3314 9.0473 11.2376 9.01808 11.1311L8.00008 7.40208L6.98208 11.1321C6.95286 11.2386 6.8892 11.3324 6.80104 11.3989C6.71287 11.4655 6.60517 11.5009 6.49473 11.4998C6.38429 11.4986 6.27734 11.461 6.19057 11.3926C6.1038 11.3243 6.04209 11.2292 6.01508 11.1221L4.51508 5.12208C4.48303 4.99346 4.50337 4.85736 4.57162 4.74373C4.63988 4.63009 4.75047 4.54821 4.87908 4.51608V4.51508Z" fill="#1B1B1B"/>
<path d="M4 0C3.46957 0 2.96086 0.210714 2.58579 0.585786C2.21071 0.960859 2 1.46957 2 2V14C2 14.5304 2.21071 15.0391 2.58579 15.4142C2.96086 15.7893 3.46957 16 4 16H12C12.5304 16 13.0391 15.7893 13.4142 15.4142C13.7893 15.0391 14 14.5304 14 14V2C14 1.46957 13.7893 0.960859 13.4142 0.585786C13.0391 0.210714 12.5304 0 12 0L4 0ZM4 1H12C12.2652 1 12.5196 1.10536 12.7071 1.29289C12.8946 1.48043 13 1.73478 13 2V14C13 14.2652 12.8946 14.5196 12.7071 14.7071C12.5196 14.8946 12.2652 15 12 15H4C3.73478 15 3.48043 14.8946 3.29289 14.7071C3.10536 14.5196 3 14.2652 3 14V2C3 1.73478 3.10536 1.48043 3.29289 1.29289C3.48043 1.10536 3.73478 1 4 1V1Z" fill="#1B1B1B"/>
</svg>
