<svg width="16" height="16" viewBox="0 0 16 16" fill="none" xmlns="http://www.w3.org/2000/svg">
<path d="M7.00002 7.77998V5.21998C7.00002 5.12398 7.10602 5.06398 7.19002 5.11398L9.32002 6.39298C9.33844 6.40411 9.35368 6.4198 9.36426 6.43855C9.37484 6.4573 9.3804 6.47846 9.3804 6.49998C9.3804 6.5215 9.37484 6.54266 9.36426 6.56141C9.35368 6.58016 9.33844 6.59585 9.32002 6.60698L7.19002 7.88698C7.17091 7.89862 7.14902 7.90492 7.12664 7.90521C7.10426 7.9055 7.08221 7.89978 7.0628 7.88865C7.04339 7.87751 7.02732 7.86136 7.01628 7.8419C7.00523 7.82243 6.99962 7.80036 7.00002 7.77798V7.77998Z" fill="#1B1B1B"/>
<path d="M12 0H4C3.46957 0 2.96086 0.210714 2.58579 0.585786C2.21071 0.960859 2 1.46957 2 2V14C2 14.5304 2.21071 15.0391 2.58579 15.4142C2.96086 15.7893 3.46957 16 4 16H12C12.5304 16 13.0391 15.7893 13.4142 15.4142C13.7893 15.0391 14 14.5304 14 14V2C14 1.46957 13.7893 0.960859 13.4142 0.585786C13.0391 0.210714 12.5304 0 12 0V0ZM5 4H11C11.1218 4.00003 11.2395 4.04456 11.3308 4.12521C11.4222 4.20587 11.4809 4.31709 11.496 4.438L11.996 8.438C12.0048 8.50834 11.9985 8.57974 11.9776 8.64747C11.9567 8.7152 11.9216 8.77771 11.8747 8.83086C11.8278 8.884 11.7702 8.92657 11.7056 8.95573C11.641 8.98489 11.5709 8.99998 11.5 9H8.5V11.016C9.363 11.071 10 11.267 10 11.5C10 11.776 9.105 12 8 12C6.895 12 6 11.776 6 11.5C6 11.267 6.637 11.071 7.5 11.016V9H4.5C4.42912 8.99998 4.35905 8.98489 4.29444 8.95573C4.22983 8.92657 4.17217 8.884 4.12526 8.83086C4.07836 8.77771 4.04329 8.7152 4.02238 8.64747C4.00148 8.57974 3.99521 8.50834 4.004 8.438L4.504 4.438C4.51911 4.31709 4.57785 4.20587 4.66918 4.12521C4.76051 4.04456 4.87815 4.00003 5 4V4Z" fill="#1B1B1B"/>
</svg>
