<svg width="16" height="16" viewBox="0 0 16 16" fill="none" xmlns="http://www.w3.org/2000/svg">
<g clip-path="url(#clip0_1419_810)">
<path fill-rule="evenodd" clip-rule="evenodd" d="M14.0001 4.5V11H13.0001V4.5H11.0001C10.6023 4.5 10.2208 4.34196 9.93945 4.06066C9.65815 3.77936 9.50011 3.39782 9.50011 3V1H4.00011C3.7349 1 3.48054 1.10536 3.293 1.29289C3.10547 1.48043 3.00011 1.73478 3.00011 2V11H2.00011V2C2.00011 1.46957 2.21083 0.960859 2.5859 0.585786C2.96097 0.210714 3.46968 0 4.00011 0L9.50011 0L14.0001 4.5ZM4.15111 15.29C4.08475 15.1492 4.04703 14.9965 4.04011 14.841H4.80411C4.818 14.9191 4.84781 14.9935 4.89168 15.0595C4.93554 15.1256 4.99254 15.1819 5.05911 15.225C5.12911 15.274 5.21311 15.312 5.30911 15.339C5.40411 15.367 5.51011 15.38 5.62811 15.38C5.79211 15.38 5.92911 15.357 6.04111 15.31C6.14309 15.2719 6.23172 15.2048 6.29611 15.117C6.35291 15.0311 6.38221 14.93 6.38011 14.827C6.38306 14.7644 6.37076 14.7021 6.34429 14.6453C6.31781 14.5885 6.27794 14.539 6.22811 14.501C6.12711 14.421 5.97211 14.357 5.76511 14.308L5.14711 14.165C4.95663 14.1247 4.77437 14.0523 4.60811 13.951C4.46114 13.861 4.3399 13.7346 4.25611 13.584C4.17105 13.4227 4.1287 13.2423 4.13311 13.06C4.13311 12.816 4.19711 12.603 4.32311 12.421C4.45111 12.24 4.62711 12.099 4.85111 11.999C5.07611 11.899 5.33511 11.85 5.62811 11.85C5.93211 11.85 6.19211 11.9 6.40711 12.002C6.62411 12.104 6.79111 12.241 6.90711 12.412C7.02711 12.582 7.09311 12.771 7.10711 12.978H6.35711C6.33999 12.8831 6.29866 12.7942 6.23711 12.72C6.17137 12.6402 6.08684 12.578 5.99111 12.539C5.87375 12.4912 5.74781 12.468 5.62111 12.471C5.40511 12.471 5.23411 12.521 5.10911 12.623C5.05032 12.668 5.00294 12.7262 4.9708 12.7929C4.93866 12.8596 4.92267 12.933 4.92411 13.007C4.92411 13.128 4.97211 13.227 5.06811 13.307C5.18758 13.3955 5.32581 13.4554 5.47211 13.482L6.09311 13.625C6.31011 13.675 6.49911 13.745 6.65911 13.836C6.81341 13.9203 6.94276 14.0438 7.03411 14.194C7.12411 14.342 7.16911 14.529 7.16911 14.754C7.16911 15.001 7.10611 15.22 6.98111 15.41C6.84799 15.6057 6.66067 15.7582 6.44211 15.849C6.20811 15.954 5.92211 16.007 5.58411 16.007C5.33011 16.007 5.10811 15.977 4.91911 15.917C4.74496 15.8647 4.58263 15.7792 4.44111 15.665C4.31902 15.5619 4.22018 15.4341 4.15111 15.29V15.29ZM1.04711 15.257C0.991934 15.1079 0.964155 14.95 0.965112 14.791H1.72911C1.7312 14.8857 1.75662 14.9785 1.80311 15.061C1.84916 15.1395 1.9158 15.2039 1.99582 15.2473C2.07584 15.2906 2.1662 15.3113 2.25711 15.307C2.44711 15.307 2.58711 15.252 2.67911 15.143C2.77011 15.033 2.81611 14.878 2.81611 14.677V11.932H3.60711V14.657C3.60711 15.097 3.48811 15.431 3.25011 15.662C3.01311 15.892 2.68511 16.007 2.26511 16.007C2.07164 16.0105 1.87915 15.9786 1.69711 15.913C1.54397 15.8545 1.40517 15.7638 1.29011 15.647C1.18348 15.5348 1.1008 15.4021 1.04711 15.257V15.257ZM10.1381 13.672V14.194C10.1381 14.45 10.0991 14.664 10.0211 14.835C9.95468 14.9932 9.84256 15.1279 9.69911 15.222C9.55747 15.3075 9.39453 15.3512 9.22911 15.348C9.06374 15.3508 8.90089 15.3072 8.75911 15.222C8.61673 15.1273 8.50542 14.9926 8.43911 14.835C8.35513 14.632 8.31525 14.4135 8.32211 14.194V13.672C8.32211 13.414 8.36111 13.201 8.43911 13.031C8.50542 12.8734 8.61673 12.7387 8.75911 12.644C8.90024 12.557 9.06334 12.5122 9.22911 12.515C9.40611 12.515 9.56211 12.558 9.69911 12.644C9.84256 12.7381 9.95468 12.8728 10.0211 13.031C10.0991 13.201 10.1381 13.414 10.1381 13.672ZM10.9411 14.191V13.678C10.9411 13.301 10.8721 12.977 10.7361 12.705C10.6074 12.4403 10.4018 12.2207 10.1461 12.075C9.89311 11.929 9.58711 11.855 9.23011 11.855C8.87411 11.855 8.56811 11.929 8.31011 12.075C8.05437 12.2194 7.84886 12.4385 7.72111 12.703C7.58411 12.974 7.51611 13.299 7.51611 13.678V14.191C7.51611 14.566 7.58411 14.89 7.72111 15.164C7.85811 15.435 8.05411 15.644 8.31011 15.79C8.56811 15.935 8.87411 16.007 9.23011 16.007C9.58711 16.007 9.89311 15.935 10.1471 15.79C10.4031 15.644 10.5991 15.435 10.7361 15.164C10.8721 14.89 10.9411 14.566 10.9411 14.191V14.191ZM12.2311 13.256V15.931H11.4851V11.932H12.1471L13.8991 14.592H13.9311V11.932H14.6811V15.932H14.0251L12.2641 13.256H12.2321H12.2311Z" fill="currentColor"/>
</g>
<defs>
<clipPath id="clip0_1419_810">
<rect width="16" height="16" fill="white"/>
</clipPath>
</defs>
</svg>
