<svg width="16" height="16" viewBox="0 0 16 16" fill="none" xmlns="http://www.w3.org/2000/svg">
<path d="M8.4999 11.4999C8.4999 11.6325 8.44722 11.7597 8.35345 11.8535C8.25968 11.9472 8.13251 11.9999 7.9999 11.9999C7.86729 11.9999 7.74011 11.9472 7.64635 11.8535C7.55258 11.7597 7.4999 11.6325 7.4999 11.4999V7.70692L6.3539 8.85392C6.26001 8.9478 6.13268 9.00055 5.9999 9.00055C5.86712 9.00055 5.73979 8.9478 5.6459 8.85392C5.55201 8.76003 5.49927 8.63269 5.49927 8.49992C5.49927 8.36714 5.55201 8.2398 5.6459 8.14592L7.6459 6.14592C7.69234 6.09935 7.74752 6.06241 7.80827 6.0372C7.86901 6.012 7.93413 5.99902 7.9999 5.99902C8.06567 5.99902 8.13079 6.012 8.19153 6.0372C8.25228 6.06241 8.30745 6.09935 8.3539 6.14592L10.3539 8.14592C10.4478 8.2398 10.5005 8.36714 10.5005 8.49992C10.5005 8.63269 10.4478 8.76003 10.3539 8.85392C10.26 8.9478 10.1327 9.00055 9.9999 9.00055C9.86712 9.00055 9.73979 8.9478 9.6459 8.85392L8.4999 7.70692V11.4999Z" fill="#1B1B1B"/>
<path d="M14 14V4.5L9.5 0H4C3.46957 0 2.96086 0.210714 2.58579 0.585786C2.21071 0.960859 2 1.46957 2 2V14C2 14.5304 2.21071 15.0391 2.58579 15.4142C2.96086 15.7893 3.46957 16 4 16H12C12.5304 16 13.0391 15.7893 13.4142 15.4142C13.7893 15.0391 14 14.5304 14 14ZM9.5 3C9.5 3.39782 9.65804 3.77936 9.93934 4.06066C10.2206 4.34196 10.6022 4.5 11 4.5H13V14C13 14.2652 12.8946 14.5196 12.7071 14.7071C12.5196 14.8946 12.2652 15 12 15H4C3.73478 15 3.48043 14.8946 3.29289 14.7071C3.10536 14.5196 3 14.2652 3 14V2C3 1.73478 3.10536 1.48043 3.29289 1.29289C3.48043 1.10536 3.73478 1 4 1H9.5V3Z" fill="#1B1B1B"/>
</svg>
