<svg width="16" height="16" viewBox="0 0 16 16" fill="none" xmlns="http://www.w3.org/2000/svg">
<path d="M5.52295 12.4241C5.66295 12.3421 5.81595 12.2621 5.98195 12.1861C5.84172 12.3952 5.69154 12.5974 5.53195 12.7921C5.25195 13.1291 5.03395 13.3081 4.89695 13.3641C4.88557 13.3689 4.87388 13.3729 4.86195 13.3761C4.85197 13.3623 4.84327 13.3475 4.83595 13.3321C4.77995 13.2221 4.78195 13.1161 4.87595 12.9721C4.98195 12.8071 5.19495 12.6181 5.52295 12.4241ZM7.97795 10.7771C7.85895 10.8021 7.74095 10.8271 7.62195 10.8551C7.79821 10.5098 7.96494 10.1596 8.12195 9.80511C8.28002 10.098 8.45017 10.3843 8.63195 10.6631C8.41495 10.6951 8.19595 10.7331 7.97795 10.7771ZM10.5029 11.7161C10.3476 11.5908 10.2022 11.4538 10.0679 11.3061C10.2959 11.3111 10.5019 11.3281 10.6799 11.3601C10.9969 11.4171 11.1459 11.5071 11.1979 11.5691C11.2143 11.5864 11.2236 11.6093 11.2239 11.6331C11.2204 11.7036 11.1999 11.7723 11.1639 11.8331C11.1438 11.8818 11.1114 11.9245 11.0699 11.9571C11.0493 11.9698 11.025 11.9751 11.0009 11.9721C10.9109 11.9691 10.7429 11.9061 10.5029 11.7161ZM8.27795 6.97011C8.23795 7.21411 8.16995 7.49411 8.07795 7.79911C8.04405 7.6849 8.01436 7.56949 7.98895 7.45311C7.91295 7.10011 7.90195 6.82311 7.94295 6.63111C7.98095 6.45411 8.05295 6.38311 8.13895 6.34811C8.18507 6.32777 8.23392 6.3143 8.28395 6.30811C8.29695 6.33811 8.31195 6.40011 8.31595 6.50611C8.32095 6.62811 8.30895 6.78311 8.27795 6.97111V6.97011Z" fill="#1B1B1B"/>
<path fill-rule="evenodd" clip-rule="evenodd" d="M4 0H9.293C9.5582 5.66374e-05 9.81251 0.105451 10 0.293L13.707 4C13.8945 4.18749 13.9999 4.4418 14 4.707V14C14 14.5304 13.7893 15.0391 13.4142 15.4142C13.0391 15.7893 12.5304 16 12 16H4C3.46957 16 2.96086 15.7893 2.58579 15.4142C2.21071 15.0391 2 14.5304 2 14V2C2 1.46957 2.21071 0.960859 2.58579 0.585786C2.96086 0.210714 3.46957 0 4 0V0ZM9.5 1.5V3.5C9.5 3.76522 9.60536 4.01957 9.79289 4.20711C9.98043 4.39464 10.2348 4.5 10.5 4.5H12.5L9.5 1.5ZM4.165 13.668C4.255 13.848 4.395 14.011 4.603 14.087C4.81 14.162 5.015 14.127 5.183 14.057C5.501 13.927 5.818 13.621 6.109 13.271C6.442 12.87 6.792 12.344 7.13 11.761C7.78253 11.5676 8.45075 11.4317 9.127 11.355C9.427 11.738 9.737 12.068 10.037 12.305C10.317 12.525 10.64 12.708 10.971 12.722C11.1513 12.7309 11.3298 12.6826 11.481 12.584C11.636 12.483 11.751 12.337 11.835 12.168C11.925 11.987 11.98 11.798 11.973 11.605C11.9667 11.4147 11.8962 11.2322 11.773 11.087C11.547 10.817 11.177 10.687 10.813 10.622C10.3714 10.5536 9.92343 10.5368 9.478 10.572C9.10186 10.0403 8.77389 9.47602 8.498 8.886C8.748 8.226 8.935 7.602 9.018 7.092C9.054 6.874 9.073 6.666 9.066 6.478C9.06476 6.29139 9.02134 6.10747 8.939 5.94C8.89156 5.84758 8.82414 5.76687 8.74164 5.70374C8.65913 5.64061 8.56361 5.59663 8.462 5.575C8.26 5.532 8.052 5.575 7.861 5.652C7.484 5.802 7.285 6.122 7.21 6.475C7.137 6.815 7.17 7.211 7.256 7.611C7.344 8.017 7.494 8.459 7.686 8.906C7.37889 9.6698 7.02419 10.4136 6.624 11.133C6.10864 11.2951 5.61188 11.5114 5.142 11.778C4.772 11.998 4.443 12.258 4.245 12.565C4.035 12.891 3.97 13.279 4.165 13.668V13.668Z" fill="#1B1B1B"/>
</svg>
