<svg width="16" height="16" viewBox="0 0 16 16" fill="none" xmlns="http://www.w3.org/2000/svg">
<path d="M5.52295 10.4241C5.66295 10.3421 5.81595 10.2621 5.98195 10.1861C5.84172 10.3952 5.69154 10.5974 5.53195 10.7921C5.25195 11.1291 5.03395 11.3081 4.89695 11.3641C4.88557 11.3689 4.87388 11.3729 4.86195 11.3761C4.85197 11.3623 4.84327 11.3475 4.83595 11.3321C4.77995 11.2221 4.78195 11.1161 4.87595 10.9721C4.98195 10.8071 5.19495 10.6181 5.52295 10.4241ZM7.97795 8.77711C7.85895 8.80211 7.74095 8.8271 7.62195 8.8551C7.79826 8.50978 7.96499 8.15965 8.12195 7.80511C8.27993 8.09808 8.45008 8.38433 8.63195 8.66311C8.41495 8.69511 8.19595 8.73311 7.97795 8.77711ZM10.5029 9.7161C10.3476 9.5908 10.2022 9.45373 10.0679 9.30611C10.2959 9.31111 10.5019 9.32811 10.6799 9.36011C10.9969 9.41711 11.1459 9.50711 11.1979 9.56911C11.2143 9.58642 11.2236 9.60927 11.2239 9.63311C11.2204 9.70365 11.1999 9.77228 11.1639 9.83311C11.1438 9.88183 11.1114 9.92453 11.0699 9.95711C11.0493 9.96977 11.025 9.97506 11.0009 9.97211C10.9109 9.96911 10.7429 9.9061 10.5029 9.7161ZM8.27795 4.97011C8.23795 5.21411 8.16995 5.49411 8.07795 5.79911C8.04405 5.6849 8.01436 5.56949 7.98895 5.45311C7.91295 5.10011 7.90195 4.82311 7.94295 4.63111C7.98095 4.45411 8.05295 4.38311 8.13895 4.34811C8.18507 4.32777 8.23392 4.3143 8.28395 4.30811C8.29695 4.33811 8.31195 4.40011 8.31595 4.50611C8.32095 4.62811 8.30895 4.78311 8.27795 4.97111V4.97011Z" fill="#1B1B1B"/>
<path fill-rule="evenodd" clip-rule="evenodd" d="M4 0H12C12.5304 0 13.0391 0.210714 13.4142 0.585786C13.7893 0.960859 14 1.46957 14 2V14C14 14.5304 13.7893 15.0391 13.4142 15.4142C13.0391 15.7893 12.5304 16 12 16H4C3.46957 16 2.96086 15.7893 2.58579 15.4142C2.21071 15.0391 2 14.5304 2 14V2C2 1.46957 2.21071 0.960859 2.58579 0.585786C2.96086 0.210714 3.46957 0 4 0V0ZM4.165 11.668C4.255 11.848 4.395 12.011 4.603 12.087C4.81 12.162 5.015 12.127 5.183 12.057C5.501 11.927 5.818 11.621 6.109 11.271C6.442 10.87 6.792 10.344 7.13 9.761C7.78252 9.56754 8.45074 9.43169 9.127 9.355C9.427 9.738 9.737 10.068 10.037 10.305C10.317 10.525 10.64 10.708 10.971 10.722C11.1513 10.7309 11.3298 10.6826 11.481 10.584C11.636 10.483 11.751 10.337 11.835 10.168C11.925 9.987 11.98 9.798 11.973 9.605C11.9667 9.41472 11.8962 9.23217 11.773 9.087C11.547 8.817 11.177 8.687 10.813 8.622C10.3714 8.55361 9.92343 8.53683 9.478 8.572C9.10186 8.04025 8.77389 7.47602 8.498 6.886C8.748 6.226 8.935 5.602 9.018 5.092C9.054 4.874 9.073 4.666 9.066 4.478C9.06476 4.29139 9.02134 4.10747 8.939 3.94C8.89156 3.84758 8.82414 3.76687 8.74164 3.70374C8.65913 3.64061 8.56361 3.59663 8.462 3.575C8.26 3.532 8.052 3.575 7.861 3.652C7.484 3.802 7.285 4.122 7.21 4.475C7.137 4.815 7.17 5.211 7.256 5.611C7.344 6.017 7.494 6.459 7.686 6.906C7.37886 7.66979 7.02417 8.41358 6.624 9.133C6.10864 9.29515 5.61188 9.51135 5.142 9.778C4.772 9.998 4.443 10.258 4.245 10.565C4.035 10.891 3.97 11.279 4.165 11.668V11.668Z" fill="#1B1B1B"/>
</svg>
