<svg width="16" height="16" viewBox="0 0 16 16" fill="none" xmlns="http://www.w3.org/2000/svg">
<path d="M14 14V4.5L9.5 0H4C3.46957 0 2.96086 0.210714 2.58579 0.585786C2.21071 0.960859 2 1.46957 2 2V14C2 14.5304 2.21071 15.0391 2.58579 15.4142C2.96086 15.7893 3.46957 16 4 16H12C12.5304 16 13.0391 15.7893 13.4142 15.4142C13.7893 15.0391 14 14.5304 14 14ZM9.5 3C9.5 3.39782 9.65804 3.77936 9.93934 4.06066C10.2206 4.34196 10.6022 4.5 11 4.5H13V14C13 14.2652 12.8946 14.5196 12.7071 14.7071C12.5196 14.8946 12.2652 15 12 15H4C3.73478 15 3.48043 14.8946 3.29289 14.7071C3.10536 14.5196 3 14.2652 3 14V2C3 1.73478 3.10536 1.48043 3.29289 1.29289C3.48043 1.10536 3.73478 1 4 1H9.5V3Z" fill="currentColor"/>
<path d="M4.603 14.0869C4.40809 14.009 4.25106 13.8584 4.165 13.6669C3.97 13.2789 4.035 12.8909 4.245 12.5649C4.443 12.2579 4.771 11.9969 5.142 11.7779C5.61194 11.5114 6.10869 11.2952 6.624 11.1329C7.02419 10.4135 7.37889 9.66971 7.686 8.90591C7.50238 8.48868 7.35841 8.0551 7.256 7.61091C7.17 7.21091 7.137 6.81491 7.21 6.47491C7.285 6.12091 7.484 5.80291 7.86 5.65191C8.052 5.57491 8.26 5.53191 8.462 5.57491C8.56361 5.59654 8.65914 5.64052 8.74164 5.70365C8.82414 5.76678 8.89156 5.84749 8.939 5.93991C9.027 6.10391 9.059 6.29591 9.066 6.47791C9.073 6.66591 9.054 6.87391 9.019 7.09191C8.935 7.60191 8.749 8.22591 8.499 8.88591C8.77489 9.47593 9.10286 10.0402 9.479 10.5719C9.9241 10.5368 10.3718 10.5535 10.813 10.6219C11.177 10.6879 11.547 10.8169 11.773 11.0869C11.893 11.2309 11.966 11.4069 11.973 11.6049C11.98 11.7969 11.926 11.9869 11.835 12.1679C11.7562 12.3356 11.634 12.4793 11.481 12.5839C11.3298 12.6825 11.1513 12.7308 10.971 12.7219C10.64 12.7079 10.317 12.5259 10.038 12.3049C9.69874 12.0244 9.39305 11.7056 9.127 11.3549C8.45076 11.4317 7.78253 11.5675 7.13 11.7609C6.83118 12.2909 6.49007 12.7958 6.11 13.2709C5.818 13.6209 5.501 13.9269 5.183 14.0579C5.00029 14.1406 4.79305 14.1509 4.603 14.0869V14.0869ZM5.982 12.1859C5.816 12.2619 5.662 12.3419 5.523 12.4239C5.195 12.6179 4.982 12.8069 4.876 12.9709C4.782 13.1159 4.78 13.2209 4.836 13.3319C4.846 13.3539 4.856 13.3679 4.862 13.3759C4.87393 13.3727 4.88563 13.3687 4.897 13.3639C5.034 13.3079 5.252 13.1289 5.532 12.7919C5.69125 12.5969 5.84141 12.3947 5.982 12.1859V12.1859ZM7.622 10.8559C7.95593 10.778 8.29287 10.7136 8.632 10.6629C8.44992 10.3843 8.27977 10.098 8.122 9.80491C7.96515 10.1595 7.79842 10.5096 7.622 10.8549V10.8559ZM10.068 11.3059C10.218 11.4689 10.364 11.6059 10.503 11.7159C10.743 11.9059 10.91 11.9689 11.001 11.9719C11.0254 11.9751 11.0501 11.9698 11.071 11.9569C11.1126 11.9241 11.145 11.881 11.165 11.8319C11.2006 11.771 11.2208 11.7024 11.224 11.6319C11.2234 11.6084 11.2142 11.586 11.198 11.5689C11.146 11.5069 10.998 11.4169 10.68 11.3599C10.4777 11.3261 10.2731 11.3084 10.068 11.3069V11.3059ZM8.078 7.79991C8.16216 7.52843 8.22897 7.25187 8.278 6.97191C8.309 6.78391 8.321 6.62891 8.316 6.50691C8.31628 6.4396 8.30547 6.3727 8.284 6.30891C8.23398 6.3151 8.18513 6.32858 8.139 6.34891C8.052 6.38391 7.981 6.45491 7.943 6.63191C7.903 6.82391 7.913 7.10091 7.989 7.45391C8.013 7.56491 8.043 7.68091 8.079 7.79991H8.078Z" fill="currentColor"/>
</svg>
