<svg width="16" height="16" viewBox="0 0 16 16" fill="none" xmlns="http://www.w3.org/2000/svg">
<path d="M5.17993 4.61595C5.28179 4.53111 5.41317 4.4902 5.54518 4.5022C5.6772 4.5142 5.79904 4.57814 5.88393 4.67995L7.99993 7.21895L10.1159 4.67895C10.2009 4.5771 10.3229 4.5132 10.455 4.50129C10.5872 4.48938 10.7186 4.53044 10.8204 4.61545C10.9223 4.70045 10.9862 4.82242 10.9981 4.95454C11.01 5.08666 10.9689 5.2181 10.8839 5.31995L8.65093 7.99995L10.8839 10.6799C10.9651 10.7822 11.003 10.9121 10.9896 11.042C10.9762 11.1718 10.9126 11.2913 10.8123 11.3748C10.7121 11.4584 10.5831 11.4994 10.453 11.4892C10.3228 11.4789 10.2019 11.4182 10.1159 11.3199L7.99993 8.78095L5.88393 11.3209C5.79893 11.4228 5.67695 11.4867 5.54483 11.4986C5.41272 11.5105 5.28128 11.4694 5.17943 11.3844C5.07759 11.2994 5.01369 11.1775 5.00178 11.0453C4.98987 10.9132 5.03093 10.7818 5.11593 10.6799L7.34893 7.99995L5.11593 5.31995C5.0311 5.21809 4.99019 5.08671 5.00219 4.9547C5.01419 4.82268 5.07812 4.70084 5.17993 4.61595V4.61595Z" fill="currentColor"/>
<path d="M4 0C3.46957 0 2.96086 0.210714 2.58579 0.585786C2.21071 0.960859 2 1.46957 2 2V14C2 14.5304 2.21071 15.0391 2.58579 15.4142C2.96086 15.7893 3.46957 16 4 16H12C12.5304 16 13.0391 15.7893 13.4142 15.4142C13.7893 15.0391 14 14.5304 14 14V2C14 1.46957 13.7893 0.960859 13.4142 0.585786C13.0391 0.210714 12.5304 0 12 0L4 0ZM4 1H12C12.2652 1 12.5196 1.10536 12.7071 1.29289C12.8946 1.48043 13 1.73478 13 2V14C13 14.2652 12.8946 14.5196 12.7071 14.7071C12.5196 14.8946 12.2652 15 12 15H4C3.73478 15 3.48043 14.8946 3.29289 14.7071C3.10536 14.5196 3 14.2652 3 14V2C3 1.73478 3.10536 1.48043 3.29289 1.29289C3.48043 1.10536 3.73478 1 4 1V1Z" fill="currentColor"/>
</svg>
