<svg width="16" height="16" viewBox="0 0 16 16" fill="none" xmlns="http://www.w3.org/2000/svg">
<path d="M7.05 11.8849C7.05 13.2999 6.502 14.0909 5.526 14.0909C4.548 14.0899 4 13.2999 4 11.8849C4 10.4729 4.548 9.68188 5.526 9.68188C6.502 9.68188 7.05 10.4719 7.05 11.8849ZM5.526 10.2729C4.984 10.2729 4.694 10.8359 4.694 11.8849C4.694 11.9729 4.697 12.0579 4.7 12.1369L6.259 10.9939C6.133 10.5199 5.884 10.2739 5.526 10.2739V10.2729ZM4.794 12.7809C4.92 13.2529 5.166 13.4989 5.526 13.4989C6.066 13.4989 6.356 12.9359 6.356 11.8849C6.356 11.7999 6.353 11.7149 6.35 11.6349L4.794 12.7809ZM10.855 13.4049V13.9999H7.855V13.4049H9.036V10.4999H8.986L7.85 11.2469V10.5589L9.04 9.77288H9.73V13.4059H10.855V13.4049Z" fill="#1B1B1B"/>
<path d="M14 14V4.5L9.5 0H4C3.46957 0 2.96086 0.210714 2.58579 0.585786C2.21071 0.960859 2 1.46957 2 2V14C2 14.5304 2.21071 15.0391 2.58579 15.4142C2.96086 15.7893 3.46957 16 4 16H12C12.5304 16 13.0391 15.7893 13.4142 15.4142C13.7893 15.0391 14 14.5304 14 14ZM9.5 3C9.5 3.39782 9.65804 3.77936 9.93934 4.06066C10.2206 4.34196 10.6022 4.5 11 4.5H13V14C13 14.2652 12.8946 14.5196 12.7071 14.7071C12.5196 14.8946 12.2652 15 12 15H4C3.73478 15 3.48043 14.8946 3.29289 14.7071C3.10536 14.5196 3 14.2652 3 14V2C3 1.73478 3.10536 1.48043 3.29289 1.29289C3.48043 1.10536 3.73478 1 4 1H9.5V3Z" fill="#1B1B1B"/>
</svg>
