<svg width="16" height="16" viewBox="0 0 16 16" fill="none" xmlns="http://www.w3.org/2000/svg">
<path d="M4 0C3.46957 0 2.96086 0.210714 2.58579 0.585786C2.21071 0.960859 2 1.46957 2 2V14C2 14.5304 2.21071 15.0391 2.58579 15.4142C2.96086 15.7893 3.46957 16 4 16H12C12.5304 16 13.0391 15.7893 13.4142 15.4142C13.7893 15.0391 14 14.5304 14 14V2C14 1.46957 13.7893 0.960859 13.4142 0.585786C13.0391 0.210714 12.5304 0 12 0L4 0ZM4 1H12C12.2652 1 12.5196 1.10536 12.7071 1.29289C12.8946 1.48043 13 1.73478 13 2V14C13 14.2652 12.8946 14.5196 12.7071 14.7071C12.5196 14.8946 12.2652 15 12 15H4C3.73478 15 3.48043 14.8946 3.29289 14.7071C3.10536 14.5196 3 14.2652 3 14V2C3 1.73478 3.10536 1.48043 3.29289 1.29289C3.48043 1.10536 3.73478 1 4 1V1Z" fill="#1B1B1B"/>
<path d="M4.603 12.0869C4.40809 12.009 4.25106 11.8584 4.165 11.6669C3.97 11.2789 4.035 10.8909 4.245 10.5649C4.443 10.2579 4.771 9.99691 5.142 9.77791C5.61194 9.51138 6.10869 9.29518 6.624 9.13291C7.02418 8.41349 7.37888 7.6697 7.686 6.90591C7.50238 6.48868 7.35841 6.0551 7.256 5.61091C7.17 5.21091 7.137 4.81491 7.21 4.47491C7.285 4.12091 7.484 3.80291 7.86 3.65191C8.052 3.57491 8.26 3.53191 8.462 3.57491C8.56361 3.59654 8.65914 3.64052 8.74164 3.70365C8.82414 3.76678 8.89156 3.84748 8.939 3.93991C9.027 4.10391 9.059 4.29591 9.066 4.47791C9.073 4.66491 9.054 4.87291 9.019 5.09191C8.935 5.60191 8.749 6.22591 8.499 6.88591C8.77489 7.47593 9.10286 8.04016 9.479 8.57191C9.9241 8.53675 10.3718 8.55353 10.813 8.62191C11.177 8.68691 11.547 8.81691 11.773 9.08691C11.893 9.23091 11.966 9.40691 11.973 9.60491C11.98 9.79691 11.926 9.98691 11.835 10.1679C11.7562 10.3356 11.634 10.4793 11.481 10.5839C11.3298 10.6825 11.1513 10.7308 10.971 10.7219C10.64 10.7079 10.317 10.5259 10.038 10.3049C9.69877 10.0244 9.39308 9.7056 9.127 9.35491C8.45075 9.43161 7.78252 9.56746 7.13 9.76091C6.83085 10.2909 6.4894 10.7959 6.109 11.2709C5.819 11.6209 5.501 11.9259 5.183 12.0579C5.00029 12.1406 4.79305 12.1509 4.603 12.0869V12.0869ZM5.982 10.1859C5.816 10.2619 5.662 10.3419 5.523 10.4239C5.195 10.6179 4.982 10.8069 4.876 10.9709C4.782 11.1159 4.78 11.2209 4.836 11.3319C4.846 11.3539 4.856 11.3679 4.862 11.3759C4.87393 11.3727 4.88562 11.3687 4.897 11.3639C5.034 11.3079 5.252 11.1289 5.532 10.7919C5.69125 10.5969 5.84141 10.3947 5.982 10.1859V10.1859ZM7.622 8.85591C7.95591 8.77791 8.29286 8.71352 8.632 8.66291C8.44984 8.38431 8.27968 8.09805 8.122 7.80491C7.96518 8.15951 7.79845 8.50965 7.622 8.85491V8.85591ZM10.068 9.30591C10.218 9.46791 10.364 9.60591 10.503 9.71591C10.743 9.90591 10.91 9.96891 11.001 9.97191C11.0254 9.97509 11.0501 9.9698 11.071 9.95691C11.1126 9.92405 11.145 9.88099 11.165 9.83191C11.2006 9.77099 11.2208 9.70237 11.224 9.63191C11.2234 9.60841 11.2142 9.58597 11.198 9.56891C11.146 9.50691 10.998 9.41691 10.68 9.35991C10.4777 9.3261 10.2731 9.30838 10.068 9.30691V9.30591ZM8.078 5.79991C8.16216 5.52843 8.22897 5.25187 8.278 4.97191C8.309 4.78391 8.321 4.62891 8.316 4.50691C8.31628 4.4396 8.30547 4.3727 8.284 4.30891C8.23398 4.3151 8.18513 4.32858 8.139 4.34891C8.052 4.38391 7.981 4.45491 7.943 4.63191C7.903 4.82391 7.913 5.10091 7.989 5.45391C8.013 5.56491 8.043 5.68091 8.079 5.79991H8.078Z" fill="#1B1B1B"/>
</svg>
