<svg width="16" height="16" viewBox="0 0 16 16" fill="none" xmlns="http://www.w3.org/2000/svg">
<path d="M7.9999 10.9999C8.13251 10.9999 8.25968 10.9472 8.35345 10.8535C8.44722 10.7597 8.4999 10.6325 8.4999 10.4999V6.70692L9.6459 7.85392C9.73979 7.9478 9.86712 8.00055 9.9999 8.00055C10.1327 8.00055 10.26 7.9478 10.3539 7.85392C10.4478 7.76003 10.5005 7.63269 10.5005 7.49992C10.5005 7.36714 10.4478 7.2398 10.3539 7.14592L8.3539 5.14592C8.30745 5.09935 8.25228 5.06241 8.19153 5.0372C8.13079 5.012 8.06567 4.99902 7.9999 4.99902C7.93413 4.99902 7.86901 5.012 7.80827 5.0372C7.74752 5.06241 7.69234 5.09935 7.6459 5.14592L5.6459 7.14592C5.55201 7.2398 5.49927 7.36714 5.49927 7.49992C5.49927 7.63269 5.55201 7.76003 5.6459 7.85392C5.73979 7.9478 5.86712 8.00055 5.9999 8.00055C6.13268 8.00055 6.26001 7.9478 6.3539 7.85392L7.4999 6.70692V10.4999C7.4999 10.6325 7.55258 10.7597 7.64635 10.8535C7.74011 10.9472 7.86729 10.9999 7.9999 10.9999Z" fill="currentColor"/>
<path d="M4 0C3.46957 0 2.96086 0.210714 2.58579 0.585786C2.21071 0.960859 2 1.46957 2 2V14C2 14.5304 2.21071 15.0391 2.58579 15.4142C2.96086 15.7893 3.46957 16 4 16H12C12.5304 16 13.0391 15.7893 13.4142 15.4142C13.7893 15.0391 14 14.5304 14 14V2C14 1.46957 13.7893 0.960859 13.4142 0.585786C13.0391 0.210714 12.5304 0 12 0L4 0ZM4 1H12C12.2652 1 12.5196 1.10536 12.7071 1.29289C12.8946 1.48043 13 1.73478 13 2V14C13 14.2652 12.8946 14.5196 12.7071 14.7071C12.5196 14.8946 12.2652 15 12 15H4C3.73478 15 3.48043 14.8946 3.29289 14.7071C3.10536 14.5196 3 14.2652 3 14V2C3 1.73478 3.10536 1.48043 3.29289 1.29289C3.48043 1.10536 3.73478 1 4 1V1Z" fill="currentColor"/>
</svg>
