<svg width="16" height="16" viewBox="0 0 16 16" fill="none" xmlns="http://www.w3.org/2000/svg">
<g clip-path="url(#clip0_1419_829)">
<path fill-rule="evenodd" clip-rule="evenodd" d="M14.0001 4.5V11H13.0001V4.5H11.0001C10.6022 4.5 10.2207 4.34196 9.93941 4.06066C9.65811 3.77936 9.50007 3.39782 9.50007 3V1H4.00007C3.73486 1 3.4805 1.10536 3.29297 1.29289C3.10543 1.48043 3.00007 1.73478 3.00007 2V11H2.00007V2C2.00007 1.46957 2.21079 0.960859 2.58586 0.585786C2.96093 0.210714 3.46964 0 4.00007 0L9.50007 0L14.0001 4.5ZM1.41007 15.29C1.34372 15.1492 1.30599 14.9965 1.29907 14.841H2.06307C2.07696 14.9191 2.10677 14.9935 2.15064 15.0595C2.19451 15.1256 2.2515 15.1819 2.31807 15.225C2.39431 15.277 2.47885 15.3155 2.56807 15.339C2.66307 15.367 2.76907 15.38 2.88707 15.38C3.05107 15.38 3.18807 15.357 3.30007 15.31C3.40205 15.2719 3.49068 15.2048 3.55507 15.117C3.61193 15.0311 3.64124 14.93 3.63907 14.827C3.64202 14.7644 3.62972 14.7021 3.60325 14.6453C3.57677 14.5885 3.5369 14.539 3.48707 14.501C3.38607 14.421 3.23107 14.357 3.02407 14.308L2.40607 14.165C2.21559 14.1247 2.03333 14.0523 1.86707 13.951C1.7201 13.861 1.59886 13.7346 1.51507 13.584C1.43001 13.4227 1.38766 13.2423 1.39207 13.06C1.39207 12.816 1.45607 12.603 1.58207 12.421C1.71007 12.24 1.88607 12.099 2.11007 11.999C2.33507 11.899 2.59407 11.85 2.88707 11.85C3.19107 11.85 3.45107 11.9 3.66607 12.002C3.88307 12.104 4.05007 12.241 4.16607 12.412C4.28607 12.582 4.35207 12.771 4.36607 12.978H3.61607C3.59895 12.8831 3.55762 12.7942 3.49607 12.72C3.43033 12.6402 3.3458 12.578 3.25007 12.539C3.13271 12.4912 3.00677 12.468 2.88007 12.471C2.66407 12.471 2.49307 12.521 2.36807 12.623C2.30928 12.668 2.2619 12.7262 2.22976 12.7929C2.19762 12.8596 2.18163 12.933 2.18307 13.007C2.18307 13.128 2.23107 13.227 2.32707 13.307C2.44655 13.3955 2.58477 13.4554 2.73107 13.482L3.35207 13.625C3.56907 13.675 3.75807 13.745 3.91807 13.836C4.07807 13.926 4.20307 14.046 4.29307 14.194C4.38307 14.342 4.42807 14.529 4.42807 14.754C4.42807 15.001 4.36507 15.22 4.24007 15.41C4.10695 15.6057 3.91963 15.7582 3.70107 15.849C3.46707 15.954 3.18107 16.007 2.84307 16.007C2.58907 16.007 2.36707 15.977 2.17807 15.917C2.00392 15.8647 1.84159 15.7792 1.70007 15.665C1.57798 15.5619 1.47914 15.4341 1.41007 15.29V15.29ZM5.59807 14.903L5.28507 15.931H4.48507L5.82707 11.932H6.75307L8.08807 15.932H7.24807L6.93407 14.902H5.59807V14.903ZM6.77607 14.313L6.28607 12.697H6.25207L5.76207 14.314H6.77607V14.313ZM8.12807 14.841C8.1338 14.9986 8.17243 15.1532 8.24149 15.2949C8.31056 15.4367 8.40851 15.5624 8.52907 15.664C8.65907 15.772 8.81807 15.856 9.00707 15.916C9.19707 15.977 9.41807 16.007 9.67207 16.007C10.0101 16.007 10.2961 15.954 10.5311 15.849C10.7671 15.744 10.9471 15.597 11.0701 15.409C11.1951 15.22 11.2571 15.001 11.2571 14.753C11.2571 14.529 11.2121 14.343 11.1231 14.193C11.0315 14.0432 10.9022 13.9201 10.7481 13.836C10.5709 13.7382 10.3802 13.6674 10.1821 13.626L9.56107 13.482C9.41469 13.4551 9.27645 13.3949 9.15707 13.306C9.11145 13.2708 9.07467 13.2255 9.04967 13.1736C9.02467 13.1216 9.01214 13.0646 9.01307 13.007C9.01307 12.851 9.07507 12.723 9.19807 12.623C9.32307 12.522 9.49407 12.471 9.71007 12.471C9.85307 12.471 9.97607 12.494 10.0801 12.539C10.1758 12.578 10.2604 12.6402 10.3261 12.72C10.3876 12.7942 10.429 12.8831 10.4461 12.978H11.1961C11.1835 12.7744 11.1143 12.5783 10.9961 12.412C10.8697 12.2325 10.6968 12.0908 10.4961 12.002C10.2505 11.8943 9.98411 11.8424 9.71607 11.85C9.42307 11.85 9.16407 11.9 8.94007 12C8.71507 12.099 8.54007 12.24 8.41307 12.421C8.28607 12.603 8.22307 12.816 8.22307 13.06C8.22307 13.261 8.26307 13.436 8.34507 13.584C8.42707 13.733 8.54507 13.854 8.69707 13.951C8.84907 14.046 9.02907 14.118 9.23607 14.164L9.85407 14.308C10.0611 14.357 10.2151 14.421 10.3171 14.501C10.3669 14.539 10.4068 14.5885 10.4332 14.6453C10.4597 14.7021 10.472 14.7644 10.4691 14.827C10.471 14.9301 10.4413 15.0313 10.3841 15.117C10.3197 15.2048 10.2311 15.2719 10.1291 15.31C10.0181 15.357 9.88007 15.38 9.71607 15.38C9.59907 15.38 9.49307 15.367 9.39607 15.34C9.30767 15.3155 9.22389 15.2766 9.14807 15.225C9.0815 15.1819 9.02451 15.1256 8.98064 15.0595C8.93677 14.9935 8.90696 14.9191 8.89307 14.841H8.12807V14.841ZM11.6311 15.29C11.5648 15.1491 11.527 14.9965 11.5201 14.841H12.2841C12.2981 14.919 12.3279 14.9934 12.3718 15.0594C12.4156 15.1255 12.4726 15.1818 12.5391 15.225C12.6091 15.274 12.6931 15.312 12.7891 15.339C12.8841 15.367 12.9901 15.38 13.1081 15.38C13.2721 15.38 13.4091 15.357 13.5211 15.31C13.6231 15.2719 13.7117 15.2048 13.7761 15.117C13.8332 15.0312 13.8629 14.9301 13.8611 14.827C13.8639 14.7643 13.8515 14.7019 13.8248 14.6451C13.7981 14.5883 13.7581 14.5389 13.7081 14.501C13.6071 14.421 13.4521 14.357 13.2451 14.308L12.6271 14.165C12.4366 14.1247 12.2543 14.0523 12.0881 13.951C11.9415 13.8608 11.8206 13.7344 11.7371 13.584C11.652 13.4227 11.6097 13.2423 11.6141 13.06C11.6141 12.816 11.6771 12.603 11.8041 12.421C11.9311 12.24 12.1071 12.099 12.3311 11.999C12.5561 11.899 12.8151 11.85 13.1081 11.85C13.4121 11.85 13.6721 11.9 13.8871 12.002C14.1041 12.104 14.2711 12.241 14.3871 12.412C14.5071 12.582 14.5731 12.771 14.5871 12.978H13.8371C13.82 12.8831 13.7786 12.7942 13.7171 12.72C13.6514 12.6402 13.5668 12.578 13.4711 12.539C13.3537 12.4912 13.2278 12.468 13.1011 12.471C12.8851 12.471 12.7141 12.521 12.5891 12.623C12.5305 12.6681 12.4833 12.7264 12.4513 12.7931C12.4193 12.8598 12.4035 12.9331 12.4051 13.007C12.4051 13.128 12.4521 13.227 12.5481 13.307C12.6675 13.3955 12.8058 13.4554 12.9521 13.482L13.5731 13.625C13.7901 13.675 13.9791 13.745 14.1391 13.836C14.2991 13.926 14.4241 14.046 14.5141 14.194C14.6041 14.342 14.6491 14.529 14.6491 14.754C14.6491 15.001 14.5861 15.22 14.4611 15.41C14.328 15.6057 14.1406 15.7582 13.9221 15.849C13.6881 15.954 13.4021 16.007 13.0641 16.007C12.8391 16.0113 12.6148 15.981 12.3991 15.917C12.2249 15.8647 12.0626 15.7792 11.9211 15.665C11.799 15.5619 11.7002 15.4341 11.6311 15.29V15.29Z" fill="currentColor"/>
</g>
<defs>
<clipPath id="clip0_1419_829">
<rect width="16" height="16" fill="white"/>
</clipPath>
</defs>
</svg>
