<svg width="16" height="16" viewBox="0 0 16 16" fill="none" xmlns="http://www.w3.org/2000/svg">
<path d="M10.8539 7.8539C10.9478 7.76001 11.0005 7.63268 11.0005 7.4999C11.0005 7.36712 10.9478 7.23979 10.8539 7.1459C10.76 7.05201 10.6327 6.99927 10.4999 6.99927C10.3671 6.99927 10.2398 7.05201 10.1459 7.1459L7.4999 9.7929L6.3539 8.6459C6.26001 8.55201 6.13268 8.49927 5.9999 8.49927C5.86712 8.49927 5.73979 8.55201 5.6459 8.6459C5.55201 8.73979 5.49927 8.86712 5.49927 8.9999C5.49927 9.13268 5.55201 9.26001 5.6459 9.3539L7.1459 10.8539C7.19234 10.9005 7.24752 10.9374 7.30827 10.9626C7.36901 10.9878 7.43413 11.0008 7.4999 11.0008C7.56567 11.0008 7.63079 10.9878 7.69153 10.9626C7.75228 10.9374 7.80745 10.9005 7.8539 10.8539L10.8539 7.8539V7.8539Z" fill="#1B1B1B"/>
<path d="M14 14V4.5L9.5 0H4C3.46957 0 2.96086 0.210714 2.58579 0.585786C2.21071 0.960859 2 1.46957 2 2V14C2 14.5304 2.21071 15.0391 2.58579 15.4142C2.96086 15.7893 3.46957 16 4 16H12C12.5304 16 13.0391 15.7893 13.4142 15.4142C13.7893 15.0391 14 14.5304 14 14ZM9.5 3C9.5 3.39782 9.65804 3.77936 9.93934 4.06066C10.2206 4.34196 10.6022 4.5 11 4.5H13V14C13 14.2652 12.8946 14.5196 12.7071 14.7071C12.5196 14.8946 12.2652 15 12 15H4C3.73478 15 3.48043 14.8946 3.29289 14.7071C3.10536 14.5196 3 14.2652 3 14V2C3 1.73478 3.10536 1.48043 3.29289 1.29289C3.48043 1.10536 3.73478 1 4 1H9.5V3Z" fill="#1B1B1B"/>
</svg>
