<svg width="16" height="16" viewBox="0 0 16 16" fill="none" xmlns="http://www.w3.org/2000/svg">
<path d="M5.0001 4C4.87826 4.00003 4.76062 4.04456 4.66928 4.12521C4.57795 4.20587 4.51921 4.31709 4.5041 4.438L4.0041 8.438C3.99531 8.50834 4.00158 8.57974 4.02249 8.64747C4.04339 8.7152 4.07846 8.77771 4.12536 8.83086C4.17227 8.884 4.22994 8.92657 4.29454 8.95573C4.35915 8.98489 4.42922 8.99998 4.5001 9H7.5001V11.016C6.6371 11.071 6.0001 11.267 6.0001 11.5C6.0001 11.776 6.8951 12 8.0001 12C9.1051 12 10.0001 11.776 10.0001 11.5C10.0001 11.267 9.3631 11.071 8.5001 11.016V9H11.5001C11.571 8.99998 11.6411 8.98489 11.7057 8.95573C11.7703 8.92657 11.8279 8.884 11.8748 8.83086C11.9217 8.77771 11.9568 8.7152 11.9777 8.64747C11.9986 8.57974 12.0049 8.50834 11.9961 8.438L11.4961 4.438C11.481 4.31709 11.4223 4.20587 11.3309 4.12521C11.2396 4.04456 11.1219 4.00003 11.0001 4H5.0001ZM7.0001 7.78V5.22C7.0001 5.124 7.1061 5.064 7.1901 5.114L9.3201 6.393C9.33853 6.40413 9.35377 6.41982 9.36434 6.43857C9.37492 6.45732 9.38048 6.47848 9.38048 6.5C9.38048 6.52152 9.37492 6.54268 9.36434 6.56143C9.35377 6.58018 9.33853 6.59587 9.3201 6.607L7.1901 7.887C7.17099 7.89864 7.1491 7.90494 7.12672 7.90523C7.10434 7.90552 7.08229 7.8998 7.06288 7.88867C7.04347 7.87753 7.0274 7.86138 7.01636 7.84192C7.00532 7.82245 6.9997 7.80038 7.0001 7.778V7.78Z" fill="#1B1B1B"/>
<path d="M2 2C2 1.46957 2.21071 0.960859 2.58579 0.585786C2.96086 0.210714 3.46957 0 4 0L12 0C12.5304 0 13.0391 0.210714 13.4142 0.585786C13.7893 0.960859 14 1.46957 14 2V14C14 14.5304 13.7893 15.0391 13.4142 15.4142C13.0391 15.7893 12.5304 16 12 16H4C3.46957 16 2.96086 15.7893 2.58579 15.4142C2.21071 15.0391 2 14.5304 2 14V2ZM12 1H4C3.73478 1 3.48043 1.10536 3.29289 1.29289C3.10536 1.48043 3 1.73478 3 2V14C3 14.2652 3.10536 14.5196 3.29289 14.7071C3.48043 14.8946 3.73478 15 4 15H12C12.2652 15 12.5196 14.8946 12.7071 14.7071C12.8946 14.5196 13 14.2652 13 14V2C13 1.73478 12.8946 1.48043 12.7071 1.29289C12.5196 1.10536 12.2652 1 12 1Z" fill="#1B1B1B"/>
</svg>
