<svg width="16" height="16" viewBox="0 0 16 16" fill="none" xmlns="http://www.w3.org/2000/svg">
<path d="M10.8539 6.14592C10.9005 6.19236 10.9374 6.24754 10.9626 6.30828C10.9878 6.36903 11.0008 6.43415 11.0008 6.49992C11.0008 6.56568 10.9878 6.63081 10.9626 6.69155C10.9374 6.7523 10.9005 6.80747 10.8539 6.85392L7.8539 9.85392C7.80745 9.90048 7.75228 9.93742 7.69153 9.96263C7.63079 9.98784 7.56567 10.0008 7.4999 10.0008C7.43413 10.0008 7.36901 9.98784 7.30827 9.96263C7.24752 9.93742 7.19234 9.90048 7.1459 9.85392L5.6459 8.35392C5.59941 8.30743 5.56254 8.25224 5.53738 8.1915C5.51222 8.13076 5.49927 8.06566 5.49927 7.99992C5.49927 7.93417 5.51222 7.86907 5.53738 7.80833C5.56254 7.74759 5.59941 7.6924 5.6459 7.64592C5.69239 7.59943 5.74758 7.56255 5.80832 7.53739C5.86906 7.51223 5.93416 7.49929 5.9999 7.49929C6.06564 7.49929 6.13074 7.51223 6.19148 7.53739C6.25222 7.56255 6.30741 7.59943 6.3539 7.64592L7.4999 8.79292L10.1459 6.14592C10.1923 6.09935 10.2475 6.06241 10.3083 6.0372C10.369 6.012 10.4341 5.99902 10.4999 5.99902C10.5657 5.99902 10.6308 6.012 10.6915 6.0372C10.7523 6.06241 10.8075 6.09935 10.8539 6.14592V6.14592Z" fill="#1B1B1B"/>
<path d="M4 0C3.46957 0 2.96086 0.210714 2.58579 0.585786C2.21071 0.960859 2 1.46957 2 2V14C2 14.5304 2.21071 15.0391 2.58579 15.4142C2.96086 15.7893 3.46957 16 4 16H12C12.5304 16 13.0391 15.7893 13.4142 15.4142C13.7893 15.0391 14 14.5304 14 14V2C14 1.46957 13.7893 0.960859 13.4142 0.585786C13.0391 0.210714 12.5304 0 12 0L4 0ZM4 1H12C12.2652 1 12.5196 1.10536 12.7071 1.29289C12.8946 1.48043 13 1.73478 13 2V14C13 14.2652 12.8946 14.5196 12.7071 14.7071C12.5196 14.8946 12.2652 15 12 15H4C3.73478 15 3.48043 14.8946 3.29289 14.7071C3.10536 14.5196 3 14.2652 3 14V2C3 1.73478 3.10536 1.48043 3.29289 1.29289C3.48043 1.10536 3.73478 1 4 1V1Z" fill="#1B1B1B"/>
</svg>
