<svg width="16" height="16" viewBox="0 0 16 16" fill="none" xmlns="http://www.w3.org/2000/svg">
<path d="M6.50011 7.5C6.50011 7.23478 6.60547 6.98043 6.793 6.79289C6.98054 6.60536 7.23489 6.5 7.50011 6.5H8.50011C8.76532 6.5 9.01968 6.60536 9.20721 6.79289C9.39475 6.98043 9.50011 7.23478 9.50011 7.5V8.438L9.90011 10.037C9.94994 10.2371 9.93672 10.4476 9.86225 10.6399C9.78778 10.8322 9.65571 10.9967 9.48411 11.111L8.55411 11.731C8.38988 11.8404 8.19695 11.8988 7.99961 11.8988C7.80226 11.8988 7.60933 11.8404 7.44511 11.731L6.51511 11.111C6.34369 10.9966 6.21181 10.832 6.13753 10.6397C6.06324 10.4475 6.05017 10.237 6.10011 10.037L6.50011 8.438V7.5V7.5ZM8.50011 7.5H7.50011V8.438C7.5001 8.51992 7.49002 8.60153 7.47011 8.681L7.07011 10.279L8.00011 10.899L8.93011 10.279L8.53011 8.681C8.51019 8.60153 8.50012 8.51992 8.50011 8.438V7.5Z" fill="currentColor"/>
<path d="M2 2C2 1.46957 2.21071 0.960859 2.58579 0.585786C2.96086 0.210714 3.46957 0 4 0L12 0C12.5304 0 13.0391 0.210714 13.4142 0.585786C13.7893 0.960859 14 1.46957 14 2V14C14 14.5304 13.7893 15.0391 13.4142 15.4142C13.0391 15.7893 12.5304 16 12 16H4C3.46957 16 2.96086 15.7893 2.58579 15.4142C2.21071 15.0391 2 14.5304 2 14V2ZM7.5 1H4C3.73478 1 3.48043 1.10536 3.29289 1.29289C3.10536 1.48043 3 1.73478 3 2V14C3 14.2652 3.10536 14.5196 3.29289 14.7071C3.48043 14.8946 3.73478 15 4 15H12C12.2652 15 12.5196 14.8946 12.7071 14.7071C12.8946 14.5196 13 14.2652 13 14V2C13 1.73478 12.8946 1.48043 12.7071 1.29289C12.5196 1.10536 12.2652 1 12 1H9V2H8V3H9V4H8V5H9V6H7.5V5H6.5V4H7.5V3H6.5V2H7.5V1Z" fill="currentColor"/>
</svg>
