<svg width="16" height="16" viewBox="0 0 16 16" fill="none" xmlns="http://www.w3.org/2000/svg">
<path d="M6 10.1169V5.88292C5.99998 5.79445 6.02344 5.70756 6.06797 5.63112C6.1125 5.55468 6.17651 5.49143 6.25348 5.44781C6.33045 5.40419 6.41761 5.38178 6.50607 5.38285C6.59452 5.38392 6.68112 5.40845 6.757 5.45392L10.285 7.57092C10.3592 7.61531 10.4205 7.67817 10.4632 7.75335C10.5058 7.82854 10.5282 7.91349 10.5282 7.99992C10.5282 8.08634 10.5058 8.17129 10.4632 8.24648C10.4205 8.32167 10.3592 8.38452 10.285 8.42892L6.757 10.5459C6.68104 10.5914 6.59436 10.616 6.50582 10.617C6.41727 10.618 6.33004 10.5955 6.25304 10.5518C6.17605 10.508 6.11205 10.4446 6.06759 10.3681C6.02313 10.2915 5.99981 10.2045 6 10.1159V10.1169Z" fill="currentColor"/>
<path d="M4 0C3.46957 0 2.96086 0.210714 2.58579 0.585786C2.21071 0.960859 2 1.46957 2 2V14C2 14.5304 2.21071 15.0391 2.58579 15.4142C2.96086 15.7893 3.46957 16 4 16H12C12.5304 16 13.0391 15.7893 13.4142 15.4142C13.7893 15.0391 14 14.5304 14 14V2C14 1.46957 13.7893 0.960859 13.4142 0.585786C13.0391 0.210714 12.5304 0 12 0L4 0ZM4 1H12C12.2652 1 12.5196 1.10536 12.7071 1.29289C12.8946 1.48043 13 1.73478 13 2V14C13 14.2652 12.8946 14.5196 12.7071 14.7071C12.5196 14.8946 12.2652 15 12 15H4C3.73478 15 3.48043 14.8946 3.29289 14.7071C3.10536 14.5196 3 14.2652 3 14V2C3 1.73478 3.10536 1.48043 3.29289 1.29289C3.48043 1.10536 3.73478 1 4 1V1Z" fill="currentColor"/>
</svg>
