<svg width="16" height="16" viewBox="0 0 16 16" fill="none" xmlns="http://www.w3.org/2000/svg">
<g clip-path="url(#clip0_1419_832)">
<path fill-rule="evenodd" clip-rule="evenodd" d="M14 4.5V14C14 14.5304 13.7893 15.0391 13.4142 15.4142C13.0391 15.7893 12.5304 16 12 16V15C12.2652 15 12.5196 14.8946 12.7071 14.7071C12.8946 14.5196 13 14.2652 13 14V4.5H11C10.6022 4.5 10.2206 4.34196 9.93934 4.06066C9.65804 3.77936 9.5 3.39782 9.5 3V1H4C3.73478 1 3.48043 1.10536 3.29289 1.29289C3.10536 1.48043 3 1.73478 3 2V11H2V2C2 1.46957 2.21071 0.960859 2.58579 0.585786C2.96086 0.210714 3.46957 0 4 0L9.5 0L14 4.5ZM0 14.841C0.00566319 14.9986 0.0442712 15.1532 0.113337 15.295C0.182403 15.4367 0.280394 15.5624 0.401 15.664C0.531 15.772 0.689 15.856 0.879 15.916C1.069 15.976 1.29 16.007 1.544 16.007C1.882 16.007 2.168 15.954 2.402 15.849C2.639 15.743 2.818 15.597 2.942 15.409C3.06811 15.2138 3.13321 14.9854 3.129 14.753C3.129 14.529 3.084 14.343 2.994 14.193C2.90251 14.0431 2.77317 13.92 2.619 13.836C2.44219 13.7382 2.25175 13.6675 2.054 13.626L1.433 13.482C1.28626 13.4553 1.14767 13.395 1.028 13.306C0.982499 13.2708 0.945871 13.2254 0.921041 13.1735C0.896212 13.1215 0.883869 13.0645 0.885 13.007C0.885 12.851 0.946 12.723 1.069 12.623C1.194 12.522 1.365 12.471 1.582 12.471C1.725 12.471 1.848 12.493 1.952 12.539C2.04736 12.5782 2.13154 12.6404 2.197 12.72C2.25855 12.7942 2.29988 12.8831 2.317 12.978H3.067C3.05481 12.7745 2.98588 12.5784 2.868 12.412C2.74161 12.2325 2.56877 12.0908 2.368 12.002C2.12244 11.8943 1.85604 11.8424 1.588 11.85C1.295 11.85 1.036 11.9 0.812 12C0.587 12.099 0.412 12.24 0.284 12.421C0.157 12.603 0.094 12.816 0.094 13.06C0.094 13.261 0.134 13.436 0.217 13.584C0.299 13.733 0.416 13.854 0.568 13.951C0.721 14.046 0.9 14.118 1.108 14.164L1.726 14.308C1.933 14.357 2.086 14.421 2.188 14.501C2.23787 14.5388 2.27785 14.5881 2.30449 14.6447C2.33114 14.7013 2.34367 14.7635 2.341 14.826C2.341 14.936 2.312 15.033 2.256 15.116C2.19153 15.2044 2.1025 15.2718 2 15.31C1.889 15.357 1.751 15.38 1.587 15.38C1.47 15.38 1.363 15.367 1.267 15.34C1.17858 15.3156 1.09479 15.2767 1.019 15.225C0.952467 15.1819 0.895503 15.1255 0.851639 15.0595C0.807775 14.9934 0.777945 14.9191 0.764 14.841H0V14.841ZM6.878 16.33L6.371 15.591C6.547 15.429 6.681 15.229 6.772 14.991C6.864 14.752 6.91 14.484 6.91 14.185V13.684C6.91 13.313 6.84 12.991 6.702 12.717C6.57279 12.4515 6.36784 12.2302 6.113 12.081C5.857 11.931 5.552 11.856 5.196 11.856C4.845 11.856 4.54 11.931 4.282 12.081C4.026 12.23 3.829 12.441 3.69 12.717C3.54707 13.0189 3.47686 13.3501 3.485 13.684V14.184C3.485 14.554 3.554 14.875 3.69 15.149C3.829 15.422 4.026 15.634 4.282 15.785C4.56161 15.9387 4.87704 16.0153 5.196 16.007C5.40022 16.0079 5.60312 15.9741 5.796 15.907L6.09 16.329H6.878V16.33ZM4.262 14.2V13.678C4.262 13.432 4.3 13.222 4.376 13.048C4.44385 12.8869 4.55668 12.7487 4.701 12.65C4.84872 12.5561 5.02098 12.508 5.196 12.512C5.388 12.512 5.553 12.558 5.691 12.65C5.83652 12.7474 5.94967 12.886 6.016 13.048C6.093 13.222 6.131 13.432 6.131 13.678V14.2C6.131 14.364 6.113 14.512 6.078 14.645C6.043 14.775 5.991 14.889 5.923 14.985L5.817 14.845L5.712 14.698H4.979L5.43 15.348C5.35036 15.3804 5.26498 15.3964 5.179 15.395C5.00566 15.3955 4.83611 15.3443 4.692 15.248C4.54887 15.1467 4.4378 15.0065 4.372 14.844C4.29329 14.6387 4.25591 14.4198 4.262 14.2V14.2ZM8.248 15.257H9.944V15.931H7.457V11.932H8.247V15.257H8.248Z" fill="currentColor"/>
</g>
<defs>
<clipPath id="clip0_1419_832">
<rect width="16" height="16" fill="white"/>
</clipPath>
</defs>
</svg>
