<svg width="16" height="16" viewBox="0 0 16 16" fill="none" xmlns="http://www.w3.org/2000/svg">
<path d="M7.9999 5C8.13251 5 8.25968 5.05268 8.35345 5.14645C8.44722 5.24021 8.4999 5.36739 8.4999 5.5V9.293L9.6459 8.146C9.73979 8.05211 9.86712 7.99937 9.9999 7.99937C10.1327 7.99937 10.26 8.05211 10.3539 8.146C10.4478 8.23989 10.5005 8.36722 10.5005 8.5C10.5005 8.63278 10.4478 8.76011 10.3539 8.854L8.3539 10.854C8.30745 10.9006 8.25228 10.9375 8.19153 10.9627C8.13079 10.9879 8.06567 11.0009 7.9999 11.0009C7.93413 11.0009 7.86901 10.9879 7.80827 10.9627C7.74752 10.9375 7.69234 10.9006 7.6459 10.854L5.6459 8.854C5.59941 8.80751 5.56254 8.75232 5.53738 8.69158C5.51222 8.63084 5.49927 8.56574 5.49927 8.5C5.49927 8.43426 5.51222 8.36916 5.53738 8.30842C5.56254 8.24768 5.59941 8.19249 5.6459 8.146C5.73979 8.05211 5.86712 7.99937 5.9999 7.99937C6.06564 7.99937 6.13074 8.01232 6.19148 8.03748C6.25222 8.06264 6.30741 8.09951 6.3539 8.146L7.4999 9.293V5.5C7.4999 5.36739 7.55258 5.24021 7.64635 5.14645C7.74011 5.05268 7.86729 5 7.9999 5V5Z" fill="currentColor"/>
<path d="M4 0C3.46957 0 2.96086 0.210714 2.58579 0.585786C2.21071 0.960859 2 1.46957 2 2V14C2 14.5304 2.21071 15.0391 2.58579 15.4142C2.96086 15.7893 3.46957 16 4 16H12C12.5304 16 13.0391 15.7893 13.4142 15.4142C13.7893 15.0391 14 14.5304 14 14V2C14 1.46957 13.7893 0.960859 13.4142 0.585786C13.0391 0.210714 12.5304 0 12 0L4 0ZM4 1H12C12.2652 1 12.5196 1.10536 12.7071 1.29289C12.8946 1.48043 13 1.73478 13 2V14C13 14.2652 12.8946 14.5196 12.7071 14.7071C12.5196 14.8946 12.2652 15 12 15H4C3.73478 15 3.48043 14.8946 3.29289 14.7071C3.10536 14.5196 3 14.2652 3 14V2C3 1.73478 3.10536 1.48043 3.29289 1.29289C3.48043 1.10536 3.73478 1 4 1V1Z" fill="currentColor"/>
</svg>
