<svg width="16" height="16" viewBox="0 0 16 16" fill="none" xmlns="http://www.w3.org/2000/svg">
<path d="M6.64592 5.6459C6.6924 5.59941 6.74759 5.56254 6.80833 5.53738C6.86907 5.51222 6.93417 5.49927 6.99992 5.49927C7.06566 5.49927 7.13076 5.51222 7.1915 5.53738C7.25224 5.56254 7.30743 5.59941 7.35392 5.6459C7.40041 5.69239 7.43728 5.74758 7.46244 5.80832C7.4876 5.86906 7.50055 5.93416 7.50055 5.9999C7.50055 6.06564 7.4876 6.13074 7.46244 6.19148C7.43728 6.25222 7.40041 6.30741 7.35392 6.3539L5.70692 7.9999L7.35392 9.6459C7.4478 9.73979 7.50055 9.86712 7.50055 9.9999C7.50055 10.1327 7.4478 10.26 7.35392 10.3539C7.26003 10.4478 7.13269 10.5005 6.99992 10.5005C6.86714 10.5005 6.7398 10.4478 6.64592 10.3539L4.64592 8.3539C4.59935 8.30745 4.56241 8.25228 4.5372 8.19153C4.512 8.13079 4.49902 8.06567 4.49902 7.9999C4.49902 7.93413 4.512 7.86901 4.5372 7.80827C4.56241 7.74752 4.59935 7.69234 4.64592 7.6459L6.64592 5.6459V5.6459ZM9.35392 5.6459C9.30743 5.59941 9.25224 5.56254 9.1915 5.53738C9.13076 5.51222 9.06566 5.49927 8.99992 5.49927C8.93417 5.49927 8.86907 5.51222 8.80833 5.53738C8.74759 5.56254 8.6924 5.59941 8.64592 5.6459C8.59943 5.69239 8.56255 5.74758 8.53739 5.80832C8.51223 5.86906 8.49929 5.93416 8.49929 5.9999C8.49929 6.06564 8.51223 6.13074 8.53739 6.19148C8.56255 6.25222 8.59943 6.30741 8.64592 6.3539L10.2929 7.9999L8.64592 9.6459C8.55203 9.73979 8.49929 9.86712 8.49929 9.9999C8.49929 10.1327 8.55203 10.26 8.64592 10.3539C8.7398 10.4478 8.86714 10.5005 8.99992 10.5005C9.13269 10.5005 9.26003 10.4478 9.35392 10.3539L11.3539 8.3539C11.4005 8.30745 11.4374 8.25228 11.4626 8.19153C11.4878 8.13079 11.5008 8.06567 11.5008 7.9999C11.5008 7.93413 11.4878 7.86901 11.4626 7.80827C11.4374 7.74752 11.4005 7.69234 11.3539 7.6459L9.35392 5.6459V5.6459Z" fill="currentColor"/>
<path d="M2 2C2 1.46957 2.21071 0.960859 2.58579 0.585786C2.96086 0.210714 3.46957 0 4 0L12 0C12.5304 0 13.0391 0.210714 13.4142 0.585786C13.7893 0.960859 14 1.46957 14 2V14C14 14.5304 13.7893 15.0391 13.4142 15.4142C13.0391 15.7893 12.5304 16 12 16H4C3.46957 16 2.96086 15.7893 2.58579 15.4142C2.21071 15.0391 2 14.5304 2 14V2ZM12 1H4C3.73478 1 3.48043 1.10536 3.29289 1.29289C3.10536 1.48043 3 1.73478 3 2V14C3 14.2652 3.10536 14.5196 3.29289 14.7071C3.48043 14.8946 3.73478 15 4 15H12C12.2652 15 12.5196 14.8946 12.7071 14.7071C12.8946 14.5196 13 14.2652 13 14V2C13 1.73478 12.8946 1.48043 12.7071 1.29289C12.5196 1.10536 12.2652 1 12 1Z" fill="currentColor"/>
</svg>
