<svg width="16" height="16" viewBox="0 0 16 16" fill="none" xmlns="http://www.w3.org/2000/svg">
<path d="M6.8539 7.1459C6.80741 7.09941 6.75222 7.06254 6.69148 7.03738C6.63074 7.01222 6.56564 6.99927 6.4999 6.99927C6.43416 6.99927 6.36906 7.01222 6.30832 7.03738C6.24758 7.06254 6.19239 7.09941 6.1459 7.1459C6.09941 7.19239 6.06254 7.24758 6.03738 7.30832C6.01222 7.36906 5.99927 7.43416 5.99927 7.4999C5.99927 7.56564 6.01222 7.63074 6.03738 7.69148C6.06254 7.75222 6.09941 7.80741 6.1459 7.8539L7.2929 8.9999L6.1459 10.1459C6.05201 10.2398 5.99927 10.3671 5.99927 10.4999C5.99927 10.6327 6.05201 10.76 6.1459 10.8539C6.23979 10.9478 6.36712 11.0005 6.4999 11.0005C6.63268 11.0005 6.76001 10.9478 6.8539 10.8539L7.9999 9.7069L9.1459 10.8539C9.23979 10.9478 9.36712 11.0005 9.4999 11.0005C9.63268 11.0005 9.76001 10.9478 9.8539 10.8539C9.94779 10.76 10.0005 10.6327 10.0005 10.4999C10.0005 10.3671 9.94779 10.2398 9.8539 10.1459L8.7069 8.9999L9.8539 7.8539C9.94779 7.76001 10.0005 7.63268 10.0005 7.4999C10.0005 7.36712 9.94779 7.23979 9.8539 7.1459C9.76001 7.05201 9.63268 6.99927 9.4999 6.99927C9.36712 6.99927 9.23979 7.05201 9.1459 7.1459L7.9999 8.2929L6.8539 7.1459Z" fill="currentColor"/>
<path d="M14 14V4.5L9.5 0H4C3.46957 0 2.96086 0.210714 2.58579 0.585786C2.21071 0.960859 2 1.46957 2 2V14C2 14.5304 2.21071 15.0391 2.58579 15.4142C2.96086 15.7893 3.46957 16 4 16H12C12.5304 16 13.0391 15.7893 13.4142 15.4142C13.7893 15.0391 14 14.5304 14 14ZM9.5 3C9.5 3.39782 9.65804 3.77936 9.93934 4.06066C10.2206 4.34196 10.6022 4.5 11 4.5H13V14C13 14.2652 12.8946 14.5196 12.7071 14.7071C12.5196 14.8946 12.2652 15 12 15H4C3.73478 15 3.48043 14.8946 3.29289 14.7071C3.10536 14.5196 3 14.2652 3 14V2C3 1.73478 3.10536 1.48043 3.29289 1.29289C3.48043 1.10536 3.73478 1 4 1H9.5V3Z" fill="currentColor"/>
</svg>
