<svg width="16" height="16" viewBox="0 0 16 16" fill="none" xmlns="http://www.w3.org/2000/svg">
<path d="M5.88411 6.67994C5.84267 6.62771 5.79121 6.5843 5.73274 6.55226C5.67428 6.52021 5.60999 6.50019 5.54367 6.49336C5.47735 6.48652 5.41034 6.49302 5.34657 6.51247C5.28279 6.53192 5.22356 6.56393 5.17234 6.60661C5.12112 6.64929 5.07896 6.70179 5.04833 6.76101C5.0177 6.82022 4.99922 6.88497 4.99398 6.95143C4.98874 7.0179 4.99685 7.08474 5.01782 7.14803C5.0388 7.21131 5.07222 7.26976 5.11611 7.31994L7.34911 9.99994L5.11611 12.6799C5.03498 12.7822 4.99705 12.9121 5.01043 13.042C5.02381 13.1718 5.08743 13.2913 5.1877 13.3748C5.28798 13.4584 5.41696 13.4994 5.54708 13.4892C5.67721 13.4789 5.79817 13.4182 5.88411 13.3199L8.00011 10.7809L10.1161 13.3209C10.2011 13.4228 10.3231 13.4867 10.4552 13.4986C10.5206 13.5045 10.5866 13.4974 10.6493 13.4779C10.712 13.4583 10.7702 13.4265 10.8206 13.3844C10.871 13.3424 10.9127 13.2907 10.9432 13.2326C10.9737 13.1744 10.9924 13.1108 10.9983 13.0453C11.0042 12.9799 10.9971 12.914 10.9775 12.8513C10.9579 12.7886 10.9262 12.7304 10.8841 12.6799L8.65111 9.99994L10.8841 7.31994C10.9652 7.21769 11.0032 7.08776 10.9898 6.95792C10.9764 6.82808 10.9128 6.70861 10.8125 6.62505C10.7122 6.54149 10.5833 6.50045 10.4531 6.51071C10.323 6.52096 10.2021 6.5817 10.1161 6.67994L8.00011 9.21894L5.88411 6.67894V6.67994Z" fill="currentColor"/>
<path d="M14 14V4.5L9.5 0H4C3.46957 0 2.96086 0.210714 2.58579 0.585786C2.21071 0.960859 2 1.46957 2 2V14C2 14.5304 2.21071 15.0391 2.58579 15.4142C2.96086 15.7893 3.46957 16 4 16H12C12.5304 16 13.0391 15.7893 13.4142 15.4142C13.7893 15.0391 14 14.5304 14 14ZM9.5 3C9.5 3.39782 9.65804 3.77936 9.93934 4.06066C10.2206 4.34196 10.6022 4.5 11 4.5H13V14C13 14.2652 12.8946 14.5196 12.7071 14.7071C12.5196 14.8946 12.2652 15 12 15H4C3.73478 15 3.48043 14.8946 3.29289 14.7071C3.10536 14.5196 3 14.2652 3 14V2C3 1.73478 3.10536 1.48043 3.29289 1.29289C3.48043 1.10536 3.73478 1 4 1H9.5V3Z" fill="currentColor"/>
</svg>
