<svg width="16" height="16" viewBox="0 0 16 16" fill="none" xmlns="http://www.w3.org/2000/svg">
<path d="M8.4999 6.5C8.4999 6.36739 8.44722 6.24021 8.35345 6.14645C8.25968 6.05268 8.13251 6 7.9999 6C7.86729 6 7.74011 6.05268 7.64635 6.14645C7.55258 6.24021 7.4999 6.36739 7.4999 6.5V10.293L6.3539 9.146C6.30741 9.09951 6.25222 9.06264 6.19148 9.03748C6.13074 9.01232 6.06564 8.99937 5.9999 8.99937C5.93416 8.99937 5.86906 9.01232 5.80832 9.03748C5.74758 9.06264 5.69239 9.09951 5.6459 9.146C5.59941 9.19249 5.56254 9.24768 5.53738 9.30842C5.51222 9.36916 5.49927 9.43426 5.49927 9.5C5.49927 9.56574 5.51222 9.63084 5.53738 9.69158C5.56254 9.75232 5.59941 9.80751 5.6459 9.854L7.6459 11.854C7.69234 11.9006 7.74752 11.9375 7.80827 11.9627C7.86901 11.9879 7.93413 12.0009 7.9999 12.0009C8.06567 12.0009 8.13079 11.9879 8.19153 11.9627C8.25228 11.9375 8.30745 11.9006 8.3539 11.854L10.3539 9.854C10.4004 9.80751 10.4373 9.75232 10.4624 9.69158C10.4876 9.63084 10.5005 9.56574 10.5005 9.5C10.5005 9.43426 10.4876 9.36916 10.4624 9.30842C10.4373 9.24768 10.4004 9.19249 10.3539 9.146C10.3074 9.09951 10.2522 9.06264 10.1915 9.03748C10.1307 9.01232 10.0656 8.99937 9.9999 8.99937C9.93416 8.99937 9.86906 9.01232 9.80832 9.03748C9.74758 9.06264 9.69239 9.09951 9.6459 9.146L8.4999 10.293V6.5Z" fill="currentColor"/>
<path d="M14 14V4.5L9.5 0H4C3.46957 0 2.96086 0.210714 2.58579 0.585786C2.21071 0.960859 2 1.46957 2 2V14C2 14.5304 2.21071 15.0391 2.58579 15.4142C2.96086 15.7893 3.46957 16 4 16H12C12.5304 16 13.0391 15.7893 13.4142 15.4142C13.7893 15.0391 14 14.5304 14 14ZM9.5 3C9.5 3.39782 9.65804 3.77936 9.93934 4.06066C10.2206 4.34196 10.6022 4.5 11 4.5H13V14C13 14.2652 12.8946 14.5196 12.7071 14.7071C12.5196 14.8946 12.2652 15 12 15H4C3.73478 15 3.48043 14.8946 3.29289 14.7071C3.10536 14.5196 3 14.2652 3 14V2C3 1.73478 3.10536 1.48043 3.29289 1.29289C3.48043 1.10536 3.73478 1 4 1H9.5V3Z" fill="currentColor"/>
</svg>
