<svg width="16" height="16" viewBox="0 0 16 16" fill="none" xmlns="http://www.w3.org/2000/svg">
<path d="M5.0001 6C4.87826 6.00003 4.76062 6.04456 4.66928 6.12521C4.57795 6.20587 4.51921 6.31709 4.5041 6.438L4.0041 10.438C3.99531 10.5083 4.00158 10.5797 4.02249 10.6475C4.04339 10.7152 4.07846 10.7777 4.12536 10.8309C4.17227 10.884 4.22994 10.9266 4.29454 10.9557C4.35915 10.9849 4.42922 11 4.5001 11H7.5001V13.016C6.6371 13.071 6.0001 13.267 6.0001 13.5C6.0001 13.776 6.8951 14 8.0001 14C9.1051 14 10.0001 13.776 10.0001 13.5C10.0001 13.267 9.3631 13.071 8.5001 13.016V11H11.5001C11.571 11 11.6411 10.9849 11.7057 10.9557C11.7703 10.9266 11.8279 10.884 11.8748 10.8309C11.9217 10.7777 11.9568 10.7152 11.9777 10.6475C11.9986 10.5797 12.0049 10.5083 11.9961 10.438L11.4961 6.438C11.481 6.31709 11.4223 6.20587 11.3309 6.12521C11.2396 6.04456 11.1219 6.00003 11.0001 6H5.0001ZM7.0001 9.78V7.22C7.0001 7.124 7.1061 7.064 7.1901 7.114L9.3201 8.393C9.33853 8.40413 9.35377 8.41982 9.36434 8.43857C9.37492 8.45732 9.38048 8.47848 9.38048 8.5C9.38048 8.52152 9.37492 8.54268 9.36434 8.56143C9.35377 8.58018 9.33853 8.59587 9.3201 8.607L7.1901 9.887C7.17099 9.89864 7.1491 9.90494 7.12672 9.90523C7.10434 9.90552 7.08229 9.8998 7.06288 9.88867C7.04347 9.87753 7.0274 9.86138 7.01636 9.84192C7.00532 9.82245 6.9997 9.80038 7.0001 9.778V9.78Z" fill="currentColor"/>
<path d="M14 14V4.5L9.5 0H4C3.46957 0 2.96086 0.210714 2.58579 0.585786C2.21071 0.960859 2 1.46957 2 2V14C2 14.5304 2.21071 15.0391 2.58579 15.4142C2.96086 15.7893 3.46957 16 4 16H12C12.5304 16 13.0391 15.7893 13.4142 15.4142C13.7893 15.0391 14 14.5304 14 14ZM9.5 3C9.5 3.39782 9.65804 3.77936 9.93934 4.06066C10.2206 4.34196 10.6022 4.5 11 4.5H13V14C13 14.2652 12.8946 14.5196 12.7071 14.7071C12.5196 14.8946 12.2652 15 12 15H4C3.73478 15 3.48043 14.8946 3.29289 14.7071C3.10536 14.5196 3 14.2652 3 14V2C3 1.73478 3.10536 1.48043 3.29289 1.29289C3.48043 1.10536 3.73478 1 4 1H9.5V3Z" fill="currentColor"/>
</svg>
