<svg width="16" height="16" viewBox="0 0 16 16" fill="none" xmlns="http://www.w3.org/2000/svg">
<path d="M14 4.5V14C14 14.5304 13.7893 15.0391 13.4142 15.4142C13.0391 15.7893 12.5304 16 12 16H4C3.46957 16 2.96086 15.7893 2.58579 15.4142C2.21071 15.0391 2 14.5304 2 14V2C2 1.46957 2.21071 0.960859 2.58579 0.585786C2.96086 0.210714 3.46957 0 4 0L9.5 0L14 4.5ZM11 4.5C10.6022 4.5 10.2206 4.34196 9.93934 4.06066C9.65804 3.77936 9.5 3.39782 9.5 3V1H4C3.73478 1 3.48043 1.10536 3.29289 1.29289C3.10536 1.48043 3 1.73478 3 2V14C3 14.2652 3.10536 14.5196 3.29289 14.7071C3.48043 14.8946 3.73478 15 4 15H12C12.2652 15 12.5196 14.8946 12.7071 14.7071C12.8946 14.5196 13 14.2652 13 14V4.5H11Z" fill="#1B1B1B"/>
<path d="M8.64592 6.64592C8.69236 6.59935 8.74754 6.56241 8.80828 6.5372C8.86903 6.512 8.93415 6.49902 8.99992 6.49902C9.06568 6.49902 9.13081 6.512 9.19155 6.5372C9.2523 6.56241 9.30747 6.59935 9.35392 6.64592L11.3539 8.64592C11.4005 8.69236 11.4374 8.74754 11.4626 8.80828C11.4878 8.86903 11.5008 8.93415 11.5008 8.99992C11.5008 9.06568 11.4878 9.13081 11.4626 9.19155C11.4374 9.2523 11.4005 9.30747 11.3539 9.35392L9.35392 11.3539C9.26003 11.4478 9.13269 11.5005 8.99992 11.5005C8.86714 11.5005 8.7398 11.4478 8.64592 11.3539C8.55203 11.26 8.49929 11.1327 8.49929 10.9999C8.49929 10.8671 8.55203 10.7398 8.64592 10.6459L10.2929 8.99992L8.64592 7.35392C8.59935 7.30747 8.56241 7.2523 8.5372 7.19155C8.512 7.13081 8.49902 7.06568 8.49902 6.99992C8.49902 6.93415 8.512 6.86903 8.5372 6.80828C8.56241 6.74754 8.59935 6.69236 8.64592 6.64592ZM7.35392 6.64592C7.30747 6.59935 7.2523 6.56241 7.19155 6.5372C7.13081 6.512 7.06568 6.49902 6.99992 6.49902C6.93415 6.49902 6.86903 6.512 6.80828 6.5372C6.74754 6.56241 6.69236 6.59935 6.64592 6.64592L4.64592 8.64592C4.59935 8.69236 4.56241 8.74754 4.5372 8.80828C4.512 8.86903 4.49902 8.93415 4.49902 8.99992C4.49902 9.06568 4.512 9.13081 4.5372 9.19155C4.56241 9.2523 4.59935 9.30747 4.64592 9.35392L6.64592 11.3539C6.7398 11.4478 6.86714 11.5005 6.99992 11.5005C7.13269 11.5005 7.26003 11.4478 7.35392 11.3539C7.4478 11.26 7.50055 11.1327 7.50055 10.9999C7.50055 10.8671 7.4478 10.7398 7.35392 10.6459L5.70692 8.99992L7.35392 7.35392C7.40048 7.30747 7.43742 7.2523 7.46263 7.19155C7.48784 7.13081 7.50081 7.06568 7.50081 6.99992C7.50081 6.93415 7.48784 6.86903 7.46263 6.80828C7.43742 6.74754 7.40048 6.69236 7.35392 6.64592V6.64592Z" fill="#1B1B1B"/>
</svg>
