<svg width="16" height="16" viewBox="0 0 16 16" fill="none" xmlns="http://www.w3.org/2000/svg">
<path d="M8.06001 6.5C8.19261 6.5 8.31979 6.55268 8.41356 6.64645C8.50733 6.74021 8.56001 6.86739 8.56001 7V7.776C8.55989 8.97055 8.37366 10.1578 8.00801 11.295L6.67701 15.435C6.63403 15.5581 6.54468 15.6595 6.42801 15.7177C6.31133 15.7758 6.17656 15.7861 6.05241 15.7463C5.92826 15.7066 5.82455 15.6199 5.76339 15.5047C5.70223 15.3896 5.68846 15.2551 5.72501 15.13L7.05501 10.989C7.38886 9.95068 7.5589 8.86668 7.55901 7.776V7C7.55901 6.86739 7.61168 6.74021 7.70545 6.64645C7.79922 6.55268 7.9264 6.5 8.05901 6.5H8.06001Z" fill="#1B1B1B"/>
<path d="M6.06001 7C6.06001 6.73736 6.11174 6.47728 6.21225 6.23463C6.31276 5.99198 6.46008 5.7715 6.6458 5.58579C6.83151 5.40007 7.05199 5.25275 7.29464 5.15224C7.53729 5.05173 7.79737 5 8.06001 5C8.32265 5 8.58273 5.05173 8.82538 5.15224C9.06803 5.25275 9.28851 5.40007 9.47422 5.58579C9.65994 5.7715 9.80726 5.99198 9.90777 6.23463C10.0083 6.47728 10.06 6.73736 10.06 7C10.06 7.13261 10.0073 7.25979 9.91356 7.35355C9.81979 7.44732 9.69262 7.5 9.56001 7.5C9.4274 7.5 9.30022 7.44732 9.20646 7.35355C9.11269 7.25979 9.06001 7.13261 9.06001 7C9.06001 6.73478 8.95465 6.48043 8.76712 6.29289C8.57958 6.10536 8.32523 6 8.06001 6C7.79479 6 7.54044 6.10536 7.3529 6.29289C7.16537 6.48043 7.06001 6.73478 7.06001 7V7.332C7.06001 7.741 7.03801 8.148 6.99401 8.553C6.97671 8.68212 6.90969 8.79938 6.80723 8.87984C6.70477 8.96029 6.57496 8.99758 6.44542 8.98377C6.31588 8.96995 6.19685 8.90613 6.11366 8.80588C6.03047 8.70562 5.9897 8.57686 6.00001 8.447C6.04001 8.077 6.06001 7.705 6.06001 7.332V7ZM9.56901 8C9.63468 8.00169 9.69937 8.01629 9.75939 8.04299C9.81941 8.06969 9.87358 8.10795 9.91881 8.15559C9.96403 8.20323 9.99943 8.25932 10.023 8.32064C10.0465 8.38197 10.0577 8.44733 10.056 8.513C10.0264 9.64889 9.82856 10.7741 9.46901 11.852L8.20301 15.652C8.16097 15.7778 8.07067 15.8818 7.95196 15.9411C7.83324 16.0004 7.69585 16.01 7.57001 15.968C7.44416 15.926 7.34017 15.8357 7.28091 15.7169C7.22165 15.5982 7.21197 15.4608 7.25401 15.335L8.52101 11.535C8.84891 10.551 9.0292 9.52385 9.05601 8.487C9.05769 8.42133 9.0723 8.35664 9.099 8.29662C9.1257 8.2366 9.16396 8.18243 9.2116 8.1372C9.25924 8.09198 9.31533 8.05658 9.37665 8.03304C9.43798 8.0095 9.50334 7.99827 9.56901 8V8ZM6.21301 10.115C6.27581 10.1344 6.33417 10.166 6.38475 10.2079C6.43534 10.2499 6.47715 10.3014 6.5078 10.3596C6.53845 10.4177 6.55734 10.4813 6.56338 10.5468C6.56942 10.6122 6.5625 10.6782 6.54301 10.741L5.24001 14.939C5.22154 15.0028 5.19053 15.0624 5.14879 15.1141C5.10705 15.1658 5.05542 15.2087 4.99692 15.2402C4.93842 15.2717 4.87421 15.2913 4.80807 15.2977C4.74192 15.3041 4.67516 15.2973 4.61168 15.2776C4.5482 15.258 4.48928 15.2258 4.43836 15.1831C4.38745 15.1404 4.34556 15.088 4.31514 15.0289C4.28473 14.9698 4.2664 14.9052 4.26122 14.839C4.25605 14.7727 4.26413 14.7061 4.28501 14.643L5.58801 10.444C5.62739 10.3176 5.71531 10.2119 5.83248 10.1503C5.94965 10.0886 6.0865 10.0759 6.21301 10.115V10.115Z" fill="#1B1B1B"/>
<path d="M4.75899 5.83292C5.03516 5.05553 5.57699 4.40064 6.2889 3.98377C7.00081 3.56689 7.83707 3.41482 8.65017 3.55436C9.46326 3.6939 10.201 4.1161 10.7332 4.74648C11.2653 5.37686 11.5578 6.17493 11.559 6.99992C11.559 7.13253 11.5063 7.2597 11.4125 7.35347C11.3188 7.44724 11.1916 7.49992 11.059 7.49992C10.9264 7.49992 10.7992 7.44724 10.7054 7.35347C10.6117 7.2597 10.559 7.13253 10.559 6.99992C10.5589 6.41022 10.3503 5.83953 9.9702 5.38872C9.59006 4.9379 9.06279 4.63597 8.48158 4.53629C7.90036 4.43661 7.30262 4.54559 6.79399 4.84398C6.28535 5.14237 5.89857 5.61095 5.70199 6.16692C5.65769 6.29197 5.56554 6.3943 5.4458 6.4514C5.32606 6.50851 5.18854 6.51571 5.06349 6.47142C4.93844 6.42713 4.8361 6.33497 4.779 6.21523C4.72189 6.09549 4.71469 5.95797 4.75899 5.83292V5.83292ZM5.05899 7.50292C5.19092 7.51582 5.31232 7.58058 5.39652 7.68296C5.48072 7.78535 5.52081 7.91698 5.50799 8.04892C5.44048 8.73723 5.30652 9.4174 5.10799 10.0799L3.88599 14.1519C3.84793 14.279 3.76096 14.3857 3.64422 14.4486C3.52748 14.5115 3.39052 14.5255 3.26349 14.4874C3.13645 14.4494 3.02973 14.3624 2.96681 14.2457C2.90389 14.1289 2.88993 13.992 2.92799 13.8649L4.14999 9.79292C4.33014 9.19207 4.45171 8.57519 4.51299 7.95092C4.52589 7.81899 4.59065 7.69758 4.69303 7.61338C4.79542 7.52918 4.92705 7.48909 5.05899 7.50192V7.50292ZM11.059 8.14992C11.1916 8.14992 11.3188 8.2026 11.4125 8.29636C11.5063 8.39013 11.559 8.51731 11.559 8.64992C11.559 9.92992 11.346 11.2019 10.927 12.4119L9.83699 15.5569C9.78951 15.6767 9.69767 15.7734 9.58059 15.8271C9.46351 15.8808 9.33023 15.8873 9.20853 15.8451C9.08682 15.8029 8.98608 15.7154 8.9273 15.6008C8.86851 15.4862 8.85622 15.3534 8.89299 15.2299L9.98199 12.0849C10.364 10.9799 10.56 9.81892 10.56 8.64992C10.56 8.51731 10.6127 8.39013 10.7064 8.29636C10.8002 8.2026 10.9274 8.14992 11.06 8.14992H11.059Z" fill="#1B1B1B"/>
<path d="M3.90199 4.22197C4.45754 3.38909 5.25051 2.74234 6.17808 2.36557C7.10564 1.9888 8.125 1.89941 9.10399 2.10897C9.16827 2.12263 9.22923 2.14881 9.28339 2.18603C9.33756 2.22325 9.38386 2.27077 9.41966 2.32588C9.45545 2.38099 9.48004 2.44261 9.49203 2.50723C9.50401 2.57185 9.50315 2.63819 9.48949 2.70247C9.47583 2.76675 9.44965 2.82771 9.41243 2.88188C9.37521 2.93604 9.32769 2.98234 9.27258 3.01814C9.21747 3.05394 9.15584 3.07853 9.09123 3.09051C9.02661 3.10249 8.96027 3.10163 8.89599 3.08797C8.11263 2.91986 7.29683 2.99112 6.55448 3.29248C5.81212 3.59384 5.1775 4.1114 4.73299 4.77797C4.6582 4.88565 4.54411 4.95964 4.4153 4.98402C4.28648 5.00839 4.15325 4.9812 4.04429 4.9083C3.93532 4.8354 3.85935 4.72261 3.83274 4.59424C3.80612 4.46587 3.83099 4.33218 3.90199 4.22197V4.22197ZM10.622 3.26697C10.7086 3.16662 10.8315 3.10477 10.9637 3.09502C11.0959 3.08526 11.2266 3.12841 11.327 3.21497C11.8711 3.68401 12.3076 4.26501 12.6065 4.91825C12.9054 5.5715 13.0598 6.28158 13.059 6.99997V8.49997C13.059 8.63258 13.0063 8.75976 12.9125 8.85352C12.8188 8.94729 12.6916 8.99997 12.559 8.99997C12.4264 8.99997 12.2992 8.94729 12.2054 8.85352C12.1117 8.75976 12.059 8.63258 12.059 8.49997V6.99997C12.0597 6.42521 11.9362 5.85708 11.697 5.33446C11.4578 4.81184 11.1085 4.34708 10.673 3.97197C10.5728 3.88522 10.5111 3.76223 10.5016 3.63003C10.492 3.49783 10.5353 3.36724 10.622 3.26697ZM3.67999 5.84197C3.74501 5.85151 3.80752 5.87378 3.86393 5.9075C3.92034 5.94122 3.96955 5.98573 4.00874 6.03848C4.04794 6.09124 4.07635 6.1512 4.09235 6.21494C4.10835 6.27869 4.11162 6.34496 4.10199 6.40997C4.07299 6.60197 4.05799 6.79997 4.05799 6.99997C4.05799 7.70997 3.95799 8.41697 3.75999 9.09997L2.61999 13.023C2.6029 13.0874 2.57311 13.1478 2.53236 13.2005C2.49161 13.2533 2.44072 13.2973 2.38269 13.3301C2.32466 13.3629 2.26066 13.3838 2.19445 13.3915C2.12824 13.3992 2.06116 13.3936 1.99715 13.375C1.93314 13.3564 1.8735 13.3251 1.82173 13.2832C1.76996 13.2412 1.72711 13.1893 1.6957 13.1305C1.66428 13.0717 1.64494 13.0072 1.63881 12.9408C1.63268 12.8744 1.63988 12.8075 1.65999 12.744L2.79999 8.82097C2.97145 8.22918 3.05831 7.6161 3.05799 6.99997C3.05799 6.74997 3.07699 6.50397 3.11199 6.26397C3.12153 6.19895 3.1438 6.13644 3.17752 6.08003C3.21124 6.02362 3.25575 5.97441 3.3085 5.93522C3.36126 5.89602 3.42122 5.86761 3.48496 5.85161C3.54871 5.83561 3.61498 5.83234 3.67999 5.84197V5.84197ZM12.562 9.50197C12.694 9.51317 12.8162 9.57634 12.9018 9.67759C12.9873 9.77885 13.0291 9.90991 13.018 10.042C12.934 11.042 12.72 12.028 12.378 12.976L11.634 15.044C11.5876 15.1667 11.4949 15.2662 11.3758 15.3212C11.2566 15.3761 11.1207 15.3821 10.9973 15.3377C10.8738 15.2934 10.7727 15.2023 10.7158 15.0841C10.6589 14.966 10.6507 14.8301 10.693 14.706L11.438 12.636C11.7487 11.7726 11.9451 10.8723 12.022 9.95797C12.0332 9.82592 12.0964 9.70371 12.1976 9.61821C12.2989 9.5327 12.4299 9.49089 12.562 9.50197V9.50197Z" fill="#1B1B1B"/>
<path d="M4.81001 1.3701C5.7982 0.799573 6.91916 0.499231 8.06022 0.499268C9.20128 0.499304 10.3222 0.799718 11.3104 1.37031C12.2985 1.9409 13.1191 2.76157 13.6895 3.74981C14.2599 4.73805 14.5602 5.85904 14.56 7.0001C14.56 7.13271 14.5073 7.25989 14.4136 7.35366C14.3198 7.44742 14.1926 7.5001 14.06 7.5001C13.9274 7.5001 13.8002 7.44742 13.7065 7.35366C13.6127 7.25989 13.56 7.13271 13.56 7.0001C13.5603 6.03449 13.3064 5.08582 12.8238 4.24945C12.3413 3.41309 11.647 2.71851 10.8108 2.23557C9.97466 1.75262 9.02609 1.49832 8.06048 1.49824C7.09487 1.49816 6.14625 1.7523 5.31001 2.2351C5.19574 2.29488 5.06279 2.30819 4.93894 2.27226C4.81509 2.23633 4.7099 2.15393 4.64537 2.04228C4.58083 1.93063 4.56193 1.79836 4.59261 1.6731C4.62329 1.54785 4.70118 1.43929 4.81001 1.3701V1.3701ZM3.92001 2.6271C3.969 2.67083 4.00889 2.72378 4.03741 2.78293C4.06593 2.84207 4.08252 2.90626 4.08624 2.97182C4.08995 3.03738 4.08072 3.10303 4.05906 3.16501C4.0374 3.227 4.00374 3.28412 3.96001 3.3331C3.05641 4.34054 2.5577 5.6468 2.56001 7.0001C2.56001 7.13271 2.50733 7.25989 2.41357 7.35366C2.3198 7.44742 2.19262 7.5001 2.06001 7.5001C1.9274 7.5001 1.80023 7.44742 1.70646 7.35366C1.61269 7.25989 1.56001 7.13271 1.56001 7.0001C1.56001 5.3361 2.18601 3.8161 3.21501 2.6671C3.25874 2.61812 3.31169 2.57823 3.37084 2.5497C3.42998 2.52118 3.49417 2.50459 3.55973 2.50088C3.62529 2.49716 3.69093 2.5064 3.75292 2.52806C3.81491 2.54971 3.87203 2.58337 3.92101 2.6271H3.92001ZM1.91501 8.0201C2.04252 8.056 2.15057 8.14103 2.21544 8.25653C2.28031 8.37202 2.2967 8.50854 2.26101 8.6361L1.48201 11.4031C1.46646 11.4687 1.43782 11.5304 1.39781 11.5846C1.35781 11.6388 1.30726 11.6844 1.2492 11.7186C1.19114 11.7527 1.12677 11.7748 1.05996 11.7835C0.993147 11.7922 0.925269 11.7873 0.860402 11.7691C0.795535 11.7509 0.735016 11.7198 0.68248 11.6776C0.629944 11.6354 0.586474 11.583 0.554682 11.5236C0.52289 11.4642 0.503431 11.399 0.497473 11.3319C0.491515 11.2648 0.499182 11.1972 0.520012 11.1331L1.29801 8.3661C1.31578 8.30286 1.34584 8.24373 1.38647 8.19211C1.42711 8.14049 1.47751 8.09738 1.53481 8.06524C1.59211 8.03311 1.65518 8.01259 1.72042 8.00484C1.78566 7.99709 1.85178 8.00228 1.91501 8.0201V8.0201ZM14.065 8.5011C14.1307 8.5024 14.1954 8.51663 14.2556 8.54296C14.3158 8.5693 14.3702 8.60723 14.4157 8.65459C14.4612 8.70195 14.4969 8.75781 14.5208 8.81898C14.5447 8.88016 14.5563 8.94544 14.555 9.0111C14.525 10.5101 14.394 12.0361 13.828 13.5441L13.758 13.7311C13.709 13.8519 13.6149 13.9487 13.4955 14.0011C13.3762 14.0534 13.2411 14.0571 13.1191 14.0114C12.9971 13.9656 12.8978 13.874 12.8423 13.7561C12.7868 13.6382 12.7795 13.5033 12.822 13.3801L12.892 13.1931C13.398 11.8431 13.526 10.4531 13.555 8.9911C13.5563 8.92544 13.5705 8.86067 13.5969 8.80051C13.6232 8.74034 13.6611 8.68595 13.7085 8.64045C13.7559 8.59494 13.8117 8.55922 13.8729 8.53531C13.9341 8.5114 13.9993 8.49978 14.065 8.5011V8.5011Z" fill="#1B1B1B"/>
</svg>
