<svg width="16" height="16" viewBox="0 0 16 16" fill="none" xmlns="http://www.w3.org/2000/svg">
<g clip-path="url(#clip0_1419_1662)">
<path d="M6.174 1.18408C6.33156 0.831487 6.58782 0.532049 6.91185 0.32193C7.23588 0.111811 7.61381 0 8 0C8.3862 0 8.76413 0.111811 9.08816 0.32193C9.41219 0.532049 9.66845 0.831487 9.826 1.18408C10.1387 0.9571 10.5105 0.825575 10.8964 0.805412C11.2823 0.785248 11.6658 0.877309 12.0005 1.07046C12.3352 1.26362 12.6067 1.54959 12.7823 1.89381C12.9579 2.23802 13.0301 2.62574 12.99 3.01008C13.3743 2.97001 13.7621 3.04214 14.1063 3.21774C14.4505 3.39335 14.7365 3.66492 14.9296 3.9996C15.1228 4.33429 15.2148 4.71776 15.1947 5.10366C15.1745 5.48956 15.043 5.86135 14.816 6.17408C15.1686 6.33163 15.468 6.5879 15.6782 6.91193C15.8883 7.23596 16.0001 7.61389 16.0001 8.00008C16.0001 8.38627 15.8883 8.76421 15.6782 9.08824C15.468 9.41226 15.1686 9.66853 14.816 9.82608C15.043 10.1388 15.1745 10.5106 15.1947 10.8965C15.2148 11.2824 15.1228 11.6659 14.9296 12.0006C14.7365 12.3352 14.4505 12.6068 14.1063 12.7824C13.7621 12.958 13.3743 13.0302 12.99 12.9901C13.0301 13.3744 12.9579 13.7621 12.7823 14.1064C12.6067 14.4506 12.3352 14.7365 12.0005 14.9297C11.6658 15.1229 11.2823 15.2149 10.8964 15.1947C10.5105 15.1746 10.1387 15.0431 9.826 14.8161C9.66845 15.1687 9.41219 15.4681 9.08816 15.6782C8.76413 15.8884 8.3862 16.0002 8 16.0002C7.61381 16.0002 7.23588 15.8884 6.91185 15.6782C6.58782 15.4681 6.33156 15.1687 6.174 14.8161C5.86127 15.0431 5.48948 15.1746 5.10358 15.1947C4.71769 15.2149 4.33421 15.1229 3.99952 14.9297C3.66484 14.7365 3.39327 14.4506 3.21767 14.1064C3.04206 13.7621 2.96993 13.3744 3.01 12.9901C2.62566 13.0302 2.23795 12.958 1.89373 12.7824C1.54951 12.6068 1.26354 12.3352 1.07039 12.0006C0.877233 11.6659 0.785172 11.2824 0.805336 10.8965C0.825499 10.5106 0.957023 10.1388 1.184 9.82608C0.831411 9.66853 0.531972 9.41226 0.321854 9.08824C0.111735 8.76421 -7.62939e-05 8.38627 -7.62939e-05 8.00008C-7.62939e-05 7.61389 0.111735 7.23596 0.321854 6.91193C0.531972 6.5879 0.831411 6.33163 1.184 6.17408C0.957023 5.86135 0.825499 5.48956 0.805336 5.10366C0.785172 4.71776 0.877233 4.33429 1.07039 3.9996C1.26354 3.66492 1.54951 3.39335 1.89373 3.21774C2.23795 3.04214 2.62566 2.97001 3.01 3.01008C2.96993 2.62574 3.04206 2.23802 3.21767 1.89381C3.39327 1.54959 3.66484 1.26362 3.99952 1.07046C4.33421 0.877309 4.71769 0.785248 5.10358 0.805412C5.48948 0.825575 5.86127 0.9571 6.174 1.18408V1.18408ZM8 1.00008C7.86629 1.00029 7.73397 1.02731 7.61088 1.07955C7.48779 1.13179 7.37643 1.20819 7.28338 1.30422C7.19033 1.40025 7.11749 1.51397 7.06916 1.63864C7.02083 1.76332 6.99799 1.89642 7.002 2.03008L7.012 2.12108C7.024 2.19808 7.041 2.29708 7.066 2.41708C7.115 2.65808 7.188 2.95908 7.279 3.30408C7.461 3.99208 7.707 4.81708 7.955 5.61808L8 5.76208L8.045 5.61808C8.293 4.81808 8.539 3.99208 8.721 3.30408C8.812 2.95908 8.885 2.65808 8.934 2.41708C8.96037 2.2893 8.98172 2.16053 8.998 2.03108L9 2.00008C9 1.73486 8.89465 1.48051 8.70711 1.29297C8.51957 1.10544 8.26522 1.00008 8 1.00008V1.00008ZM2 9.00008L2.03 8.99808L2.121 8.98808C2.22019 8.97306 2.3189 8.95505 2.417 8.93408C2.658 8.88508 2.959 8.81208 3.304 8.72108C4.07974 8.51112 4.85123 8.28574 5.618 8.04508L5.762 8.00008L5.618 7.95508C4.85123 7.71442 4.07974 7.48905 3.304 7.27908C3.01033 7.20002 2.71456 7.12899 2.417 7.06608C2.28922 7.03971 2.16046 7.01836 2.031 7.00208L2 7.00008C1.73479 7.00008 1.48043 7.10544 1.2929 7.29297C1.10536 7.48051 1 7.73486 1 8.00008C1 8.2653 1.10536 8.51965 1.2929 8.70719C1.48043 8.89472 1.73479 9.00008 2 9.00008V9.00008ZM9 14.0001L8.998 13.9701C8.98171 13.8406 8.96036 13.7119 8.934 13.5841C8.87126 13.2862 8.80023 12.99 8.721 12.6961C8.51104 11.9203 8.28566 11.1489 8.045 10.3821L8 10.2381L7.955 10.3821C7.707 11.1821 7.461 12.0081 7.279 12.6961C7.188 13.0411 7.115 13.3421 7.066 13.5831C7.03964 13.7109 7.01829 13.8396 7.002 13.9691L7 14.0001C7 14.2653 7.10536 14.5197 7.2929 14.7072C7.48043 14.8947 7.73479 15.0001 8 15.0001C8.26522 15.0001 8.51957 14.8947 8.70711 14.7072C8.89465 14.5197 9 14.2653 9 14.0001ZM3.304 11.8661L3.329 11.8491C3.4332 11.7704 3.53428 11.6877 3.632 11.6011C3.816 11.4371 4.04 11.2241 4.293 10.9721C4.86017 10.4025 5.41594 9.82174 5.96 9.23008L6.063 9.11908L5.916 9.15208C5.1313 9.32726 4.35015 9.51796 3.573 9.72408C3.229 9.81708 2.933 9.90408 2.699 9.98208C2.57494 10.0233 2.45251 10.0694 2.332 10.1201L2.305 10.1341C2.19036 10.1993 2.08974 10.2865 2.00894 10.3907C1.92814 10.4949 1.86875 10.6141 1.83419 10.7414C1.79964 10.8687 1.7906 11.0015 1.8076 11.1323C1.8246 11.2631 1.8673 11.3892 1.93324 11.5034C1.99918 11.6176 2.08706 11.7177 2.19183 11.7978C2.29659 11.8779 2.41616 11.9365 2.54366 11.9702C2.67116 12.0039 2.80407 12.012 2.93473 11.9942C3.06539 11.9763 3.19123 11.9328 3.305 11.8661H3.304ZM4.5 14.0621C4.72968 14.1947 5.00263 14.2306 5.2588 14.162C5.51498 14.0933 5.73339 13.9258 5.866 13.6961L5.88 13.6691C5.89 13.6491 5.901 13.6211 5.916 13.5851C5.95279 13.4918 5.9868 13.3974 6.018 13.3021C6.096 13.0691 6.183 12.7721 6.276 12.4281C6.4822 11.651 6.6729 10.8698 6.848 10.0851L6.881 9.93808L6.771 10.0401C6.17905 10.5842 5.59793 11.14 5.028 11.7071C4.8125 11.9214 4.60276 12.1415 4.399 12.3671C4.31244 12.4652 4.22971 12.5666 4.151 12.6711L4.134 12.6961C4.0014 12.9258 3.96547 13.1987 4.03411 13.4549C4.10274 13.7111 4.27033 13.9295 4.5 14.0621V14.0621ZM13.696 5.86608C13.9238 5.73253 14.0895 5.51429 14.157 5.259C14.2245 5.0037 14.1883 4.73207 14.0563 4.50339C13.9242 4.2747 13.7071 4.10752 13.4523 4.03833C13.1974 3.96914 12.9256 4.00356 12.696 4.13408L12.671 4.15108C12.5668 4.22972 12.4657 4.31245 12.368 4.39908C12.142 4.60268 11.9216 4.81243 11.707 5.02808C11.1399 5.59766 10.5841 6.17844 10.04 6.77008L9.938 6.88108L10.085 6.84808C10.8694 6.67296 11.6502 6.48226 12.427 6.27608C12.772 6.18308 13.069 6.09608 13.302 6.01808C13.4261 5.9769 13.5485 5.93087 13.669 5.88008C13.6781 5.87567 13.6871 5.87101 13.696 5.86608V5.86608ZM11.5 1.93808C11.2703 1.80548 10.9974 1.76954 10.7412 1.83818C10.485 1.90682 10.2666 2.07441 10.134 2.30408L10.12 2.33108C10.11 2.35108 10.099 2.37908 10.084 2.41508C10.0472 2.50839 10.0132 2.60276 9.98201 2.69808C9.90401 2.93108 9.817 3.22808 9.724 3.57308C9.51783 4.34988 9.32713 5.1307 9.15201 5.91508L9.11901 6.06208L9.229 5.96008C9.82096 5.41598 10.4021 4.86021 10.972 4.29308C11.224 4.04008 11.437 3.81608 11.601 3.63308C11.6876 3.53503 11.7703 3.43362 11.849 3.32908L11.866 3.30408C11.9986 3.0744 12.0345 2.80146 11.9659 2.54528C11.8973 2.28911 11.7297 2.07069 11.5 1.93808V1.93808ZM14 9.00008C14.2652 9.00008 14.5196 8.89472 14.7071 8.70719C14.8946 8.51965 15 8.2653 15 8.00008C15 7.73486 14.8946 7.48051 14.7071 7.29297C14.5196 7.10544 14.2652 7.00008 14 7.00008L13.97 7.00208C13.8406 7.01837 13.7118 7.03972 13.584 7.06608C13.342 7.11508 13.041 7.18808 12.696 7.27908C12.008 7.46108 11.183 7.70708 10.382 7.95508L10.238 8.00008L10.382 8.04508C11.182 8.29308 12.008 8.53908 12.696 8.72108C13.041 8.81208 13.342 8.88508 13.583 8.93408C13.7108 8.96045 13.8396 8.9818 13.969 8.99808L14 9.00008ZM1.938 4.50008C1.87121 4.61602 1.82837 4.74418 1.812 4.87697C1.79563 5.00976 1.80609 5.14449 1.84273 5.27317C1.87938 5.40185 1.94148 5.52187 2.02535 5.62612C2.10922 5.73037 2.21315 5.81673 2.331 5.88008L2.415 5.91508C2.487 5.94508 2.581 5.97908 2.698 6.01808C2.931 6.09608 3.228 6.18308 3.572 6.27608C4.34915 6.4822 5.1303 6.6729 5.915 6.84808L6.062 6.88108L5.959 6.77008C5.41528 6.17842 4.85984 5.59764 4.293 5.02808C4.07877 4.81245 3.85869 4.6027 3.633 4.39908C3.53496 4.31247 3.43355 4.22974 3.329 4.15108L3.304 4.13408C3.07433 4.00148 2.80138 3.96554 2.54521 4.03418C2.28903 4.10282 2.07062 4.27041 1.938 4.50008V4.50008ZM4.134 3.30408L4.151 3.32908C4.22968 3.43328 4.31241 3.53436 4.399 3.63208C4.563 3.81608 4.776 4.04008 5.028 4.29308C5.59756 4.86025 6.17834 5.41602 6.77 5.96008L6.881 6.06208L6.848 5.91508C6.67289 5.1307 6.48218 4.34988 6.276 3.57308C6.183 3.22808 6.096 2.93108 6.018 2.69808C5.97682 2.57399 5.93078 2.45157 5.88 2.33108L5.866 2.30408C5.80082 2.18944 5.71361 2.08882 5.60938 2.00801C5.50515 1.92721 5.38597 1.86782 5.2587 1.83327C5.13142 1.79872 4.99857 1.78968 4.86779 1.80668C4.73701 1.82368 4.61089 1.86638 4.49668 1.93232C4.38247 1.99826 4.28243 2.08614 4.20232 2.1909C4.12221 2.29566 4.06361 2.41524 4.02991 2.54273C3.9962 2.67023 3.98804 2.80314 4.00591 2.93381C4.02377 3.06447 4.06731 3.19031 4.134 3.30408V3.30408ZM14.062 11.5001C14.1946 11.2704 14.2305 10.9975 14.1619 10.7413C14.0933 10.4851 13.9257 10.2667 13.696 10.1341L13.669 10.1201C13.5485 10.0693 13.4261 10.0233 13.302 9.98208C13.069 9.90408 12.772 9.81708 12.427 9.72408C11.6502 9.51791 10.8694 9.3272 10.085 9.15208L9.938 9.11908L10.04 9.23008C10.5841 9.82172 11.1399 10.4025 11.707 10.9721C11.96 11.2241 12.184 11.4371 12.367 11.6011C12.465 11.6877 12.5664 11.7705 12.671 11.8491L12.696 11.8661C12.9257 11.9987 13.1986 12.0346 13.4548 11.966C13.711 11.8973 13.9294 11.7298 14.062 11.5001ZM10.134 13.6961C10.2676 13.9239 10.4858 14.0896 10.7411 14.1571C10.9964 14.2246 11.268 14.1884 11.4967 14.0564C11.7254 13.9243 11.8926 13.7072 11.9618 13.4523C12.0309 13.1975 11.9965 12.9256 11.866 12.6961L11.849 12.6711C11.7703 12.5669 11.6875 12.4658 11.601 12.3681C11.3974 12.1421 11.1877 11.9216 10.972 11.7071C10.4025 11.1399 9.82169 10.5841 9.23 10.0401L9.11901 9.93808L9.15201 10.0851C9.32712 10.8695 9.51783 11.6503 9.724 12.4271C9.817 12.7721 9.90401 13.0691 9.98201 13.3021C10.0232 13.4262 10.0692 13.5486 10.12 13.6691C10.1244 13.6782 10.1291 13.6872 10.134 13.6961V13.6961ZM8 9.50008C8.39783 9.50008 8.77936 9.34205 9.06067 9.06074C9.34197 8.77944 9.5 8.39791 9.5 8.00008C9.5 7.60226 9.34197 7.22073 9.06067 6.93942C8.77936 6.65812 8.39783 6.50008 8 6.50008C7.60218 6.50008 7.22065 6.65812 6.93934 6.93942C6.65804 7.22073 6.5 7.60226 6.5 8.00008C6.5 8.39791 6.65804 8.77944 6.93934 9.06074C7.22065 9.34205 7.60218 9.50008 8 9.50008V9.50008Z" fill="currentColor"/>
</g>
<defs>
<clipPath id="clip0_1419_1662">
<rect width="16" height="16" fill="white"/>
</clipPath>
</defs>
</svg>
