<svg width="16" height="16" viewBox="0 0 16 16" fill="none" xmlns="http://www.w3.org/2000/svg">
<path d="M0.540068 3.87L0.500068 3C0.500068 2.46957 0.710782 1.96086 1.08585 1.58579C1.46093 1.21071 1.96963 1 2.50007 1H6.17207C6.70246 1.00011 7.21108 1.2109 7.58607 1.586L8.41407 2.414C8.78905 2.7891 9.29768 2.99989 9.82807 3H13.8101C14.088 2.99997 14.3629 3.05787 14.6172 3.16999C14.8715 3.28212 15.0996 3.44601 15.287 3.65122C15.4745 3.85643 15.6171 4.09845 15.7057 4.36184C15.7944 4.62524 15.8272 4.90422 15.8021 5.181L15.1651 12.181C15.1199 12.6779 14.8906 13.14 14.5223 13.4766C14.1539 13.8131 13.673 13.9998 13.1741 14H2.82607C2.32711 13.9998 1.84624 13.8131 1.47787 13.4766C1.10949 13.14 0.880224 12.6779 0.835068 12.181L0.198068 5.181C0.155454 4.71778 0.276462 4.25427 0.540068 3.871V3.87ZM2.19007 4C2.05115 3.99999 1.91376 4.02893 1.78665 4.08496C1.65954 4.14099 1.54549 4.22289 1.45179 4.32544C1.35808 4.42799 1.28677 4.54894 1.2424 4.68058C1.19803 4.81221 1.18157 4.95165 1.19407 5.09L1.83107 12.09C1.85352 12.3385 1.96803 12.5696 2.15213 12.7379C2.33622 12.9063 2.57659 12.9998 2.82607 13H13.1741C13.4235 12.9998 13.6639 12.9063 13.848 12.7379C14.0321 12.5696 14.1466 12.3385 14.1691 12.09L14.8061 5.09C14.8186 4.95165 14.8021 4.81221 14.7577 4.68058C14.7134 4.54894 14.6421 4.42799 14.5483 4.32544C14.4546 4.22289 14.3406 4.14099 14.2135 4.08496C14.0864 4.02893 13.949 3.99999 13.8101 4H2.19007ZM6.88007 2.293C6.78711 2.20002 6.67673 2.12628 6.55524 2.076C6.43376 2.02572 6.30355 1.9999 6.17207 2H2.50007C2.23811 1.99995 1.98659 2.1027 1.79959 2.28614C1.6126 2.46959 1.50505 2.71909 1.50007 2.981L1.50607 3.12C1.72007 3.042 1.95007 3 2.19007 3H7.58607L6.87907 2.293H6.88007Z" fill="#1B1B1B"/>
</svg>
