<svg width="16" height="16" viewBox="0 0 16 16" fill="none" xmlns="http://www.w3.org/2000/svg">
<path d="M9.82809 3H13.8101C14.088 2.99997 14.3629 3.05787 14.6172 3.16999C14.8715 3.28212 15.0996 3.44601 15.287 3.65122C15.4745 3.85643 15.6171 4.09845 15.7058 4.36184C15.7944 4.62524 15.8272 4.90422 15.8021 5.181L15.1651 12.181C15.1199 12.6779 14.8907 13.14 14.5223 13.4766C14.1539 13.8131 13.6731 13.9998 13.1741 14H2.82509C2.32613 13.9998 1.84526 13.8131 1.47689 13.4766C1.10852 13.14 0.879248 12.6779 0.834091 12.181L0.197092 5.181C0.154478 4.71778 0.275485 4.25427 0.539091 3.871L0.500091 3C0.500091 2.46957 0.710805 1.96086 1.08588 1.58579C1.46095 1.21071 1.96966 1 2.50009 1H6.17209C6.70248 1.00011 7.21111 1.2109 7.58609 1.586L8.41409 2.414C8.78908 2.7891 9.2977 2.99989 9.82809 3V3ZM1.50609 3.12C1.72009 3.042 1.95009 3 2.19009 3H7.58609L6.87909 2.293C6.6916 2.10545 6.43729 2.00006 6.17209 2H2.50009C2.23813 1.99995 1.98662 2.1027 1.79962 2.28614C1.61262 2.46959 1.50507 2.71909 1.50009 2.981L1.50609 3.12V3.12Z" fill="currentColor"/>
</svg>
