<svg width="16" height="16" viewBox="0 0 16 16" fill="none" xmlns="http://www.w3.org/2000/svg">
<g clip-path="url(#clip0_1419_988)">
<path d="M0.499905 3L0.539905 3.87C0.276071 4.25355 0.155053 4.71745 0.197905 5.181L0.834905 12.181C0.880061 12.6779 1.10933 13.14 1.4777 13.4766C1.84607 13.8131 2.32694 13.9998 2.82591 14H8.99991V13H2.82591C2.57643 12.9998 2.33605 12.9063 2.15196 12.7379C1.96787 12.5696 1.85336 12.3385 1.83091 12.09L1.19391 5.09C1.1814 4.95165 1.19786 4.81221 1.24224 4.68058C1.28661 4.54894 1.35792 4.42799 1.45163 4.32544C1.54533 4.22289 1.65937 4.14099 1.78649 4.08496C1.9136 4.02893 2.05099 3.99999 2.18991 4H13.8099C13.9488 3.99999 14.0862 4.02893 14.2133 4.08496C14.3404 4.14099 14.4545 4.22289 14.5482 4.32544C14.6419 4.42799 14.7132 4.54894 14.7576 4.68058C14.8019 4.81221 14.8184 4.95165 14.8059 5.09L14.5399 8H15.5449L15.8009 5.181C15.826 4.9043 15.7933 4.6254 15.7046 4.36208C15.616 4.09876 15.4735 3.85678 15.2862 3.65159C15.0989 3.4464 14.8709 3.28248 14.6167 3.17029C14.3625 3.05811 14.0877 3.00011 13.8099 3H9.82791C9.29752 2.99989 8.78889 2.7891 8.41391 2.414L7.58591 1.586C7.21092 1.2109 6.70229 1.00011 6.17191 1H2.49991C1.96947 1 1.46076 1.21071 1.08569 1.58579C0.710619 1.96086 0.499905 2.46957 0.499905 3V3ZM6.17191 2C6.4371 2.00006 6.69141 2.10545 6.87891 2.293L7.58591 3H2.18991C1.94991 3 1.71991 3.042 1.50691 3.12L1.49991 2.98C1.50514 2.71826 1.6128 2.46902 1.79978 2.28579C1.98675 2.10255 2.23812 1.99995 2.49991 2H6.17191V2Z" fill="currentColor"/>
<path d="M15.854 10.1459C15.9006 10.1924 15.9375 10.2475 15.9627 10.3083C15.9879 10.369 16.0009 10.4341 16.0009 10.4999C16.0009 10.5657 15.9879 10.6308 15.9627 10.6916C15.9375 10.7523 15.9006 10.8075 15.854 10.8539L12.854 13.8539C12.7603 13.9477 12.6331 14.0003 12.5005 14.0003C12.3679 14.0003 12.2408 13.9477 12.147 13.8539L10.647 12.3539C10.5531 12.2602 10.5003 12.133 10.5002 12.0003C10.5002 11.8676 10.5528 11.7403 10.6465 11.6464C10.7403 11.5525 10.8675 11.4997 11.0002 11.4996C11.1329 11.4995 11.2601 11.5522 11.354 11.6459L12.5 12.7929L15.146 10.1459C15.1925 10.0994 15.2476 10.0624 15.3084 10.0372C15.3691 10.012 15.4343 9.99902 15.5 9.99902C15.5658 9.99902 15.6309 10.012 15.6917 10.0372C15.7524 10.0624 15.8076 10.0994 15.854 10.1459V10.1459Z" fill="currentColor"/>
</g>
<defs>
<clipPath id="clip0_1419_988">
<rect width="16" height="16" fill="white"/>
</clipPath>
</defs>
</svg>
