<svg width="16" height="16" viewBox="0 0 16 16" fill="none" xmlns="http://www.w3.org/2000/svg">
<path d="M0.540068 3.87L0.500068 3C0.500068 2.46957 0.710782 1.96086 1.08585 1.58579C1.46093 1.21071 1.96963 1 2.50007 1H6.17207C6.70246 1.00011 7.21108 1.2109 7.58607 1.586L8.41407 2.414C8.78905 2.7891 9.29768 2.99989 9.82807 3H13.8101C14.088 2.99997 14.3629 3.05787 14.6172 3.16999C14.8715 3.28212 15.0996 3.44601 15.287 3.65122C15.4745 3.85643 15.6171 4.09845 15.7057 4.36184C15.7944 4.62524 15.8272 4.90422 15.8021 5.181L15.5461 8H14.5401L14.8051 5.09C14.8176 4.95173 14.8011 4.81238 14.7568 4.68081C14.7125 4.54924 14.6413 4.42834 14.5477 4.32581C14.4541 4.22328 14.3402 4.14135 14.2132 4.08526C14.0862 4.02917 13.9489 4.00013 13.8101 4H2.19007C2.05115 3.99999 1.91376 4.02893 1.78665 4.08496C1.65954 4.14099 1.54549 4.22289 1.45179 4.32544C1.35808 4.42799 1.28677 4.54894 1.2424 4.68058C1.19803 4.81221 1.18157 4.95165 1.19407 5.09L1.83107 12.09C1.85352 12.3385 1.96803 12.5696 2.15213 12.7379C2.33622 12.9063 2.57659 12.9998 2.82607 13H9.00007V14H2.82607C2.32711 13.9998 1.84624 13.8131 1.47787 13.4766C1.10949 13.14 0.880224 12.6779 0.835068 12.181L0.198068 5.181C0.155454 4.71778 0.276462 4.25427 0.540068 3.871V3.87ZM6.87907 2.293C6.69158 2.10545 6.43726 2.00006 6.17207 2H2.50007C2.23811 1.99995 1.98659 2.1027 1.79959 2.28614C1.6126 2.46959 1.50505 2.71909 1.50007 2.981L1.50607 3.12C1.72007 3.042 1.95007 3 2.19007 3H7.58607L6.87907 2.293Z" fill="#1B1B1B"/>
<path d="M11.854 10.146C11.7601 10.0523 11.6329 9.99966 11.5002 9.99976C11.3675 9.99985 11.2403 10.0526 11.1465 10.1465C11.0528 10.2404 11.0002 10.3677 11.0002 10.5004C11.0003 10.6331 11.0531 10.7603 11.147 10.854L12.293 12L11.147 13.146C11.1005 13.1925 11.0636 13.2476 11.0385 13.3083C11.0133 13.3689 11.0003 13.434 11.0002 13.4997C11.0002 13.6324 11.0528 13.7596 11.1465 13.8535C11.2403 13.9474 11.3675 14.0002 11.5002 14.0003C11.6329 14.0004 11.7601 13.9478 11.854 13.854L13 12.707L14.146 13.854C14.2399 13.9479 14.3672 14.0007 14.5 14.0007C14.6328 14.0007 14.7601 13.9479 14.854 13.854C14.9479 13.7601 15.0007 13.6328 15.0007 13.5C15.0007 13.3673 14.9479 13.2399 14.854 13.146L13.707 12L14.854 10.854C14.9479 10.7603 15.0007 10.6331 15.0008 10.5004C15.0009 10.3677 14.9483 10.2404 14.8545 10.1465C14.7608 10.0526 14.6336 9.99985 14.5009 9.99976C14.3682 9.99966 14.2409 10.0523 14.147 10.146L13 11.293L11.854 10.146V10.146Z" fill="#1B1B1B"/>
</svg>
