<svg width="16" height="16" viewBox="0 0 16 16" fill="none" xmlns="http://www.w3.org/2000/svg">
<g clip-path="url(#clip0_1419_578)">
<path d="M4.974 9.80591H5.666C5.972 9.80591 6.222 9.86891 6.416 9.99591C6.614 10.1229 6.759 10.3129 6.853 10.5639C6.949 10.8159 6.997 11.1289 6.997 11.5049C6.997 11.7889 6.97 12.0349 6.914 12.2449C6.861 12.4549 6.781 12.6309 6.673 12.7729C6.56624 12.9128 6.42398 13.0216 6.261 13.0879C6.07117 13.1603 5.86912 13.1953 5.666 13.1909H4.974V9.80591V9.80591Z" fill="#1B1B1B"/>
<path d="M1 2C1 1.46957 1.21071 0.960859 1.58579 0.585786C1.96086 0.210714 2.46957 0 3 0L9 0C9.53043 0 10.0391 0.210714 10.4142 0.585786C10.7893 0.960859 11 1.46957 11 2V10C11.5304 10 12.0391 10.2107 12.4142 10.5858C12.7893 10.9609 13 11.4696 13 12V12.5C13 12.6326 13.0527 12.7598 13.1464 12.8536C13.2402 12.9473 13.3674 13 13.5 13C13.6326 13 13.7598 12.9473 13.8536 12.8536C13.9473 12.7598 14 12.6326 14 12.5V8H13.5C13.3674 8 13.2402 7.94732 13.1464 7.85355C13.0527 7.75979 13 7.63261 13 7.5V4.375C13 4.24239 13.0527 4.11521 13.1464 4.02145C13.2402 3.92768 13.3674 3.875 13.5 3.875H14.995C14.984 3.399 14.942 2.981 14.794 2.653C14.7148 2.46228 14.5767 2.30183 14.4 2.195C14.216 2.085 13.936 2 13.5 2C13.3674 2 13.2402 1.94732 13.1464 1.85355C13.0527 1.75979 13 1.63261 13 1.5C13 1.36739 13.0527 1.24021 13.1464 1.14645C13.2402 1.05268 13.3674 1 13.5 1C14.064 1 14.534 1.11 14.912 1.336C15.295 1.564 15.546 1.887 15.706 2.243C16.001 2.898 16 3.708 16 4.324V7.5C16 7.63261 15.9473 7.75979 15.8536 7.85355C15.7598 7.94732 15.6326 8 15.5 8H15V12.5C15 12.8978 14.842 13.2794 14.5607 13.5607C14.2794 13.842 13.8978 14 13.5 14C13.1022 14 12.7206 13.842 12.4393 13.5607C12.158 13.2794 12 12.8978 12 12.5V12C12 11.7348 11.8946 11.4804 11.7071 11.2929C11.5196 11.1054 11.2652 11 11 11V15H11.5C11.6326 15 11.7598 15.0527 11.8536 15.1464C11.9473 15.2402 12 15.3674 12 15.5C12 15.6326 11.9473 15.7598 11.8536 15.8536C11.7598 15.9473 11.6326 16 11.5 16H0.5C0.367392 16 0.240215 15.9473 0.146447 15.8536C0.0526784 15.7598 0 15.6326 0 15.5C0 15.3674 0.0526784 15.2402 0.146447 15.1464C0.240215 15.0527 0.367392 15 0.5 15H1V2ZM3 2.5V7.5C3 7.63261 3.05268 7.75979 3.14645 7.85355C3.24021 7.94732 3.36739 8 3.5 8H8.5C8.63261 8 8.75979 7.94732 8.85355 7.85355C8.94732 7.75979 9 7.63261 9 7.5V2.5C9 2.36739 8.94732 2.24021 8.85355 2.14645C8.75979 2.05268 8.63261 2 8.5 2H3.5C3.36739 2 3.24021 2.05268 3.14645 2.14645C3.05268 2.24021 3 2.36739 3 2.5ZM4 9V14H5.796C6.292 14 6.702 13.901 7.026 13.703C7.353 13.506 7.597 13.219 7.758 12.843C7.919 12.466 8 12.015 8 11.487C8 10.962 7.92 10.514 7.758 10.143C7.61412 9.78902 7.35986 9.49091 7.033 9.293C6.71 9.098 6.296 9 5.796 9H4Z" fill="#1B1B1B"/>
</g>
<defs>
<clipPath id="clip0_1419_578">
<rect width="16" height="16" fill="white"/>
</clipPath>
</defs>
</svg>
