<svg width="16" height="16" viewBox="0 0 16 16" fill="none" xmlns="http://www.w3.org/2000/svg">
<g clip-path="url(#clip0_1419_579)">
<path d="M3.5 2C3.36739 2 3.24021 2.05268 3.14645 2.14645C3.05268 2.24021 3 2.36739 3 2.5V7.5C3 7.63261 3.05268 7.75979 3.14645 7.85355C3.24021 7.94732 3.36739 8 3.5 8H8.5C8.63261 8 8.75979 7.94732 8.85355 7.85355C8.94732 7.75979 9 7.63261 9 7.5V2.5C9 2.36739 8.94732 2.24021 8.85355 2.14645C8.75979 2.05268 8.63261 2 8.5 2H3.5ZM4 14V9H5.796C6.296 9 6.709 9.098 7.033 9.293C7.358 9.488 7.6 9.772 7.758 10.143C7.919 10.514 8 10.963 8 11.487C8 12.015 7.92 12.467 7.758 12.842C7.61245 13.2 7.35587 13.5018 7.026 13.703C6.702 13.901 6.292 14 5.796 14H4ZM5.666 9.806H4.974V13.191H5.666C5.895 13.191 6.093 13.156 6.261 13.088C6.42398 13.0216 6.56624 12.9129 6.673 12.773C6.781 12.631 6.861 12.455 6.914 12.245C6.97 12.035 6.997 11.789 6.997 11.505C6.997 11.129 6.949 10.815 6.853 10.565C6.7746 10.3323 6.62126 10.1322 6.417 9.996C6.222 9.869 5.972 9.806 5.667 9.806H5.666Z" fill="currentColor"/>
<path d="M3 0C2.46957 0 1.96086 0.210714 1.58579 0.585786C1.21071 0.960859 1 1.46957 1 2V15H0.5C0.367392 15 0.240215 15.0527 0.146447 15.1464C0.0526784 15.2402 0 15.3674 0 15.5C0 15.6326 0.0526784 15.7598 0.146447 15.8536C0.240215 15.9473 0.367392 16 0.5 16H11.5C11.6326 16 11.7598 15.9473 11.8536 15.8536C11.9473 15.7598 12 15.6326 12 15.5C12 15.3674 11.9473 15.2402 11.8536 15.1464C11.7598 15.0527 11.6326 15 11.5 15H11V11C11.2652 11 11.5196 11.1054 11.7071 11.2929C11.8946 11.4804 12 11.7348 12 12V12.5C12 12.8978 12.158 13.2794 12.4393 13.5607C12.7206 13.842 13.1022 14 13.5 14C13.8978 14 14.2794 13.842 14.5607 13.5607C14.842 13.2794 15 12.8978 15 12.5V8H15.5C15.6326 8 15.7598 7.94732 15.8536 7.85355C15.9473 7.75979 16 7.63261 16 7.5V4.324C16 3.708 16 2.898 15.706 2.243C15.5427 1.86509 15.265 1.54789 14.912 1.336C14.534 1.111 14.064 1 13.5 1C13.3674 1 13.2402 1.05268 13.1464 1.14645C13.0527 1.24021 13 1.36739 13 1.5C13 1.63261 13.0527 1.75979 13.1464 1.85355C13.2402 1.94732 13.3674 2 13.5 2C13.936 2 14.216 2.086 14.4 2.195C14.5767 2.30183 14.7148 2.46228 14.794 2.653C14.941 2.981 14.984 3.399 14.995 3.875H13.5C13.3674 3.875 13.2402 3.92768 13.1464 4.02145C13.0527 4.11521 13 4.24239 13 4.375V7.5C13 7.63261 13.0527 7.75979 13.1464 7.85355C13.2402 7.94732 13.3674 8 13.5 8H14V12.5C14 12.6326 13.9473 12.7598 13.8536 12.8536C13.7598 12.9473 13.6326 13 13.5 13C13.3674 13 13.2402 12.9473 13.1464 12.8536C13.0527 12.7598 13 12.6326 13 12.5V12C13 11.4696 12.7893 10.9609 12.4142 10.5858C12.0391 10.2107 11.5304 10 11 10V2C11 1.46957 10.7893 0.960859 10.4142 0.585786C10.0391 0.210714 9.53043 0 9 0L3 0ZM10 2V15H2V2C2 1.73478 2.10536 1.48043 2.29289 1.29289C2.48043 1.10536 2.73478 1 3 1H9C9.26522 1 9.51957 1.10536 9.70711 1.29289C9.89464 1.48043 10 1.73478 10 2Z" fill="currentColor"/>
</g>
<defs>
<clipPath id="clip0_1419_579">
<rect width="16" height="16" fill="white"/>
</clipPath>
</defs>
</svg>
