<svg width="16" height="16" viewBox="0 0 16 16" fill="none" xmlns="http://www.w3.org/2000/svg">
<path fill-rule="evenodd" clip-rule="evenodd" d="M9.50001 2C9.36741 2 9.24023 1.94732 9.14646 1.85355C9.05269 1.75979 9.00001 1.63261 9.00001 1.5C9.00001 1.36739 9.05269 1.24021 9.14646 1.14645C9.24023 1.05268 9.36741 1 9.50001 1H14.5C14.6326 1 14.7598 1.05268 14.8536 1.14645C14.9473 1.24021 15 1.36739 15 1.5V6.5C15 6.63261 14.9473 6.75979 14.8536 6.85355C14.7598 6.94732 14.6326 7 14.5 7C14.3674 7 14.2402 6.94732 14.1465 6.85355C14.0527 6.75979 14 6.63261 14 6.5V2.707L9.87101 6.836C10.6828 7.82919 11.0819 9.0964 10.9856 10.3755C10.8893 11.6547 10.3051 12.8479 9.35383 13.7084C8.40252 14.5689 7.15687 15.0309 5.87452 14.9987C4.59217 14.9666 3.37121 14.4429 2.46416 13.5359C1.55712 12.6288 1.03338 11.4078 1.00126 10.1255C0.969149 8.84314 1.43112 7.5975 2.29162 6.64619C3.15213 5.69488 4.34534 5.11068 5.62448 5.01442C6.90362 4.91815 8.17082 5.31719 9.16401 6.129L13.293 2H9.50001ZM6.00001 6C4.93915 6 3.92173 6.42143 3.17159 7.17157C2.42144 7.92172 2.00001 8.93913 2.00001 10C2.00001 11.0609 2.42144 12.0783 3.17159 12.8284C3.92173 13.5786 4.93915 14 6.00001 14C7.06088 14 8.0783 13.5786 8.82844 12.8284C9.57859 12.0783 10 11.0609 10 10C10 8.93913 9.57859 7.92172 8.82844 7.17157C8.0783 6.42143 7.06088 6 6.00001 6V6Z" fill="currentColor"/>
</svg>
