<svg width="16" height="16" viewBox="0 0 16 16" fill="none" xmlns="http://www.w3.org/2000/svg">
<g clip-path="url(#clip0_1419_1941)">
<path d="M15.698 7.2871L8.71202 0.302104C8.61637 0.206406 8.5028 0.130491 8.3778 0.078697C8.2528 0.0269028 8.11882 0.000244141 7.98352 0.000244141C7.84822 0.000244141 7.71424 0.0269028 7.58924 0.078697C7.46424 0.130491 7.35067 0.206406 7.25502 0.302104L5.80502 1.7521L7.64502 3.5921C7.86202 3.51801 8.09549 3.50642 8.31876 3.55865C8.54204 3.61088 8.74613 3.72483 8.90775 3.8875C9.06937 4.05016 9.18201 4.25498 9.2328 4.47859C9.2836 4.7022 9.2705 4.93558 9.19502 5.1521L10.968 6.9261C11.2303 6.83374 11.5163 6.83346 11.7788 6.92531C12.0413 7.01716 12.2647 7.19565 12.4122 7.4314C12.5597 7.66716 12.6225 7.94611 12.5903 8.22234C12.5581 8.49857 12.4328 8.7556 12.235 8.9511C12.0348 9.15255 11.7709 9.27823 11.4883 9.30668C11.2057 9.33513 10.922 9.26459 10.6856 9.1071C10.4493 8.94961 10.2749 8.71494 10.1924 8.44319C10.1098 8.17143 10.1242 7.87945 10.233 7.6171L8.58002 5.9631V10.3161C8.83128 10.4405 9.03232 10.6472 9.14964 10.9018C9.26695 11.1565 9.29345 11.4436 9.22473 11.7154C9.156 11.9872 8.99619 12.2272 8.77194 12.3955C8.5477 12.5638 8.27255 12.6501 7.99238 12.6401C7.7122 12.6301 7.44392 12.5243 7.23224 12.3405C7.02057 12.1567 6.8783 11.9059 6.82913 11.6299C6.77997 11.3538 6.82689 11.0693 6.96207 10.8237C7.09725 10.5781 7.31253 10.3862 7.57202 10.2801V5.8871C7.42231 5.82576 7.28622 5.73539 7.1716 5.6212C7.05698 5.50701 6.96609 5.37126 6.90418 5.22179C6.84227 5.07231 6.81056 4.91205 6.81088 4.75026C6.81119 4.58847 6.84353 4.42834 6.90602 4.2791L5.09302 2.4651L0.30302 7.2551C0.207321 7.35076 0.131407 7.46432 0.0796125 7.58932C0.0278183 7.71432 0.00115967 7.8483 0.00115967 7.9836C0.00115967 8.11891 0.0278183 8.25289 0.0796125 8.37789C0.131407 8.50288 0.207321 8.61645 0.30302 8.7121L7.28902 15.6981C7.38467 15.7938 7.49824 15.8697 7.62324 15.9215C7.74824 15.9733 7.88222 16 8.01752 16C8.15282 16 8.2868 15.9733 8.4118 15.9215C8.5368 15.8697 8.65037 15.7938 8.74602 15.6981L15.699 8.7451C15.892 8.5518 16.0005 8.28978 16.0005 8.0166C16.0005 7.74342 15.892 7.48141 15.699 7.2881" fill="#1B1B1B"/>
</g>
<defs>
<clipPath id="clip0_1419_1941">
<rect width="16" height="16" fill="white"/>
</clipPath>
</defs>
</svg>
