<svg width="16" height="16" viewBox="0 0 16 16" fill="none" xmlns="http://www.w3.org/2000/svg">
<g clip-path="url(#clip0_1419_524)">
<path fill-rule="evenodd" clip-rule="evenodd" d="M8 0C5.87827 0 3.84344 0.842855 2.34315 2.34315C0.842855 3.84344 0 5.87827 0 8C0 10.1217 0.842855 12.1566 2.34315 13.6569C3.84344 15.1571 5.87827 16 8 16C10.1217 16 12.1566 15.1571 13.6569 13.6569C15.1571 12.1566 16 10.1217 16 8C16 5.87827 15.1571 3.84344 13.6569 2.34315C12.1566 0.842855 10.1217 0 8 0V0ZM4.882 1.731C4.89382 1.84121 4.94326 1.94398 5.022 2.022C5.0766 2.07653 5.11746 2.14324 5.14121 2.21666C5.16497 2.29007 5.17094 2.36808 5.15863 2.44425C5.14633 2.52042 5.1161 2.59258 5.07044 2.65478C5.02477 2.71698 4.96499 2.76744 4.896 2.802L4.605 2.948C4.53547 2.98258 4.47199 3.02817 4.417 3.083L3.937 3.563C3.80576 3.69433 3.64054 3.78653 3.45986 3.82927C3.27919 3.87201 3.09017 3.86361 2.914 3.805L2.894 3.798C2.74529 3.7485 2.587 3.7348 2.432 3.758C3.08313 2.90408 3.92124 2.21068 4.882 1.731V1.731ZM1.882 11.405C2.53042 12.5692 3.49754 13.5242 4.6698 14.1579C5.84205 14.7916 7.17079 15.0777 8.49997 14.9826C9.82915 14.8874 11.1036 14.415 12.1737 13.6209C13.2437 12.8267 14.065 11.7437 14.541 10.499C14.5273 10.4998 14.5137 10.5001 14.5 10.5C13.765 10.5 12.692 9.093 12.135 8.218C12.0933 8.15162 12.0355 8.09684 11.967 8.05873C11.8984 8.02063 11.8214 8.00043 11.743 8C11.6682 7.99994 11.5946 8.01835 11.5287 8.05359C11.4627 8.08883 11.4065 8.13981 11.365 8.202L10.575 9.389C10.5256 9.46279 10.4863 9.54282 10.458 9.627L9.728 11.817C9.66148 12.016 9.53404 12.1891 9.36372 12.3116C9.1934 12.4342 8.98884 12.5001 8.779 12.5H8.721C8.51104 12.5001 8.30638 12.434 8.13605 12.3112C7.96572 12.1885 7.83835 12.0152 7.772 11.816L7.042 9.627C7.01405 9.54288 6.97504 9.46284 6.926 9.389L6.13 8.197C6.04487 8.06866 5.99964 7.918 6 7.764V7.309C6 7.22374 5.97819 7.13989 5.93665 7.06543C5.89511 6.99097 5.83522 6.92836 5.76267 6.88357C5.69012 6.83878 5.60732 6.81328 5.52214 6.80951C5.43696 6.80573 5.35223 6.8238 5.276 6.862C5.19304 6.90343 5.10019 6.92098 5.00783 6.91268C4.91547 6.90438 4.82724 6.87056 4.753 6.815L3.663 5.997C3.57935 5.93268 3.47429 5.90274 3.3693 5.91328C3.2643 5.92382 3.1673 5.97406 3.0981 6.05372C3.02891 6.13339 2.99274 6.23647 2.997 6.34191C3.00125 6.44734 3.04561 6.54717 3.121 6.621L4.137 7.637C4.24179 7.74159 4.32205 7.86815 4.37198 8.00754C4.42191 8.14692 4.44027 8.29566 4.42573 8.443C4.41118 8.59034 4.3641 8.73262 4.28789 8.85955C4.21167 8.98648 4.10822 9.09491 3.985 9.177L3.945 9.203C3.80808 9.29435 3.69583 9.41808 3.61821 9.56322C3.54058 9.70835 3.49998 9.87041 3.5 10.035V10.219C3.49999 10.4419 3.4255 10.6585 3.28834 10.8342C3.15119 11.01 2.95925 11.1348 2.743 11.189L1.883 11.405H1.882Z" fill="currentColor"/>
</g>
<defs>
<clipPath id="clip0_1419_524">
<rect width="16" height="16" fill="white"/>
</clipPath>
</defs>
</svg>
