<svg width="16" height="16" viewBox="0 0 16 16" fill="none" xmlns="http://www.w3.org/2000/svg">
<g clip-path="url(#clip0_1419_525)">
<path d="M8 0C5.87827 0 3.84344 0.842855 2.34315 2.34315C0.842855 3.84344 0 5.87827 0 8C0 10.1217 0.842855 12.1566 2.34315 13.6569C3.84344 15.1571 5.87827 16 8 16C10.1217 16 12.1566 15.1571 13.6569 13.6569C15.1571 12.1566 16 10.1217 16 8C16 5.87827 15.1571 3.84344 13.6569 2.34315C12.1566 0.842855 10.1217 0 8 0V0ZM3.668 2.501L3.38 3.147C3.29227 3.34113 3.28092 3.5612 3.34821 3.76333C3.4155 3.96546 3.55648 4.13481 3.74307 4.23762C3.92965 4.34044 4.14812 4.36917 4.35494 4.31809C4.56177 4.267 4.74174 4.13986 4.859 3.962L5.104 3.594C5.21332 3.43013 5.37868 3.31179 5.56905 3.26116C5.75942 3.21053 5.96172 3.23109 6.138 3.319C6.25039 3.37523 6.37433 3.40451 6.5 3.40451C6.62567 3.40451 6.74961 3.37523 6.862 3.319L7.123 3.189C7.24232 3.1294 7.37235 3.09428 7.50545 3.08569C7.63854 3.07711 7.77201 3.09523 7.898 3.139L8.882 3.479C8.96 3.507 9.042 3.523 9.125 3.533C9.909 3.626 9.98 3.91 9.819 4.334C9.664 4.744 9.203 4.951 8.784 4.821L8.774 4.818C8.274 4.663 7.748 4.5 6 4.5C4.8 4.5 3.5 5.62 3.5 7C3.5 8.96 4.326 9.166 5.196 9.382C5.656 9.497 6.131 9.615 6.5 10C6.949 10.467 6.893 11.181 6.839 11.877C6.755 12.96 6.674 14 8.5 14C10.25 14 11.5 10.5 11.5 9.5C11.5 9.238 11.708 9.032 11.944 8.8C12.34 8.408 12.814 7.94 12.5 7C12.403 6.709 12.104 6.432 11.859 6.244C11.685 6.111 11.652 5.848 11.807 5.693C11.8614 5.63855 11.9329 5.60461 12.0095 5.59696C12.0861 5.5893 12.1629 5.6084 12.227 5.651L13.312 6.375C13.422 6.447 13.567 6.433 13.66 6.34C13.81 6.19 14.075 6.257 14.149 6.457C14.309 6.887 14.594 7.507 14.998 7.814L15 8C14.9999 9.18613 14.6984 10.3528 14.1239 11.3904C13.5493 12.4281 12.7204 13.3028 11.7152 13.9323C10.7099 14.5618 9.56111 14.9256 8.3767 14.9894C7.1923 15.0532 6.01109 14.815 4.94397 14.2972C3.87685 13.7794 2.95882 12.9989 2.27604 12.029C1.59327 11.0591 1.16815 9.93156 1.0406 8.75231C0.913038 7.57306 1.08723 6.38074 1.54681 5.28727C2.00639 4.1938 2.73629 3.23504 3.668 2.501V2.501Z" fill="#1B1B1B"/>
</g>
<defs>
<clipPath id="clip0_1419_525">
<rect width="16" height="16" fill="white"/>
</clipPath>
</defs>
</svg>
