<svg width="16" height="16" viewBox="0 0 16 16" fill="none" xmlns="http://www.w3.org/2000/svg">
<g clip-path="url(#clip0_1419_522)">
<path d="M8 0C5.87827 0 3.84344 0.842855 2.34315 2.34315C0.842855 3.84344 0 5.87827 0 8C0 10.1217 0.842855 12.1566 2.34315 13.6569C3.84344 15.1571 5.87827 16 8 16C10.1217 16 12.1566 15.1571 13.6569 13.6569C15.1571 12.1566 16 10.1217 16 8C16 5.87827 15.1571 3.84344 13.6569 2.34315C12.1566 0.842855 10.1217 0 8 0V0ZM2.04 4.326C2.365 5.655 4.572 6.866 5.757 7.516C6.237 7.779 6.55 7.95 6.5 8C6.42 8.08 6.338 8.158 6.258 8.234C5.842 8.63 5.471 8.983 5.5 9.5C5.535 10.134 6.118 10.324 6.714 10.517C7.291 10.705 7.882 10.897 8 11.5C8.082 11.917 7.925 12.488 7.78 13.02C7.565 13.802 7.374 14.5 8 14.5C9.5 14 11.798 11.314 12 9.5C12.138 8.257 10 7.5 8.5 7C8.022 6.84 7.745 7.081 7.51 7.284C7.338 7.434 7.188 7.563 7 7.5C6.555 7.352 4.5 5.5 5.5 5C6.28 4.61 6.452 4.829 6.727 5.182C6.805 5.281 6.89 5.39 7 5.5C7.609 5.804 7.662 5.368 7.723 4.867C7.762 4.545 7.804 4.196 8 4C8.434 3.566 9.265 3.209 10.028 2.88C10.74 2.574 11.393 2.293 11.607 2C12.7962 2.71513 13.7461 3.76759 14.3359 5.02369C14.9257 6.2798 15.1288 7.68286 14.9195 9.05468C14.7103 10.4265 14.0979 11.7051 13.1604 12.7282C12.2229 13.7513 11.0024 14.4726 9.65401 14.8006C8.30564 15.1286 6.89021 15.0484 5.58751 14.5702C4.28482 14.092 3.15364 13.2374 2.33766 12.115C1.52169 10.9926 1.05773 9.65293 1.00473 8.26625C0.951732 6.87958 1.31208 5.50844 2.04 4.327V4.326Z" fill="currentColor"/>
</g>
<defs>
<clipPath id="clip0_1419_522">
<rect width="16" height="16" fill="white"/>
</clipPath>
</defs>
</svg>
