<svg width="16" height="16" viewBox="0 0 16 16" fill="none" xmlns="http://www.w3.org/2000/svg">
<g clip-path="url(#clip0_1419_1914)">
<path d="M2 0C1.46957 0 0.960859 0.210714 0.585786 0.585786C0.210714 0.960859 0 1.46957 0 2L0 14C0 14.5304 0.210714 15.0391 0.585786 15.4142C0.960859 15.7893 1.46957 16 2 16H14C14.5304 16 15.0391 15.7893 15.4142 15.4142C15.7893 15.0391 16 14.5304 16 14V2C16 1.46957 15.7893 0.960859 15.4142 0.585786C15.0391 0.210714 14.5304 0 14 0L2 0ZM11 4.002V12H9.67V8.455H6.33V12H5V4.002H6.33V7.324H9.67V4.002H11Z" fill="currentColor"/>
</g>
<defs>
<clipPath id="clip0_1419_1914">
<rect width="16" height="16" fill="white"/>
</clipPath>
</defs>
</svg>
