<svg width="16" height="16" viewBox="0 0 16 16" fill="none" xmlns="http://www.w3.org/2000/svg">
<path d="M9.97199 2.50803C10.0062 2.4102 10.0092 2.30415 9.98057 2.20454C9.95191 2.10493 9.893 2.01669 9.81199 1.95203L9.63399 1.82303C9.00922 1.41012 8.29982 1.14256 7.55799 1.04003C6.21499 0.862031 4.50399 1.22903 2.83999 3.13303H1.78599C1.72021 3.13304 1.65509 3.14604 1.59434 3.17126C1.53359 3.19649 1.47842 3.23345 1.43199 3.28003L0.145986 4.56703C0.0525555 4.66075 9.15527e-05 4.78769 9.15527e-05 4.92003C9.15527e-05 5.05237 0.0525555 5.17931 0.145986 5.27303L2.71699 7.85203C2.76343 7.89859 2.81861 7.93554 2.87935 7.96074C2.9401 7.98595 3.00522 7.99892 3.07099 7.99892C3.13675 7.99892 3.20187 7.98595 3.26262 7.96074C3.32336 7.93554 3.37854 7.89859 3.42499 7.85203L4.71099 6.56203C4.80445 6.46833 4.85696 6.34138 4.85699 6.20903V5.57003L13.244 14.443C13.2867 14.501 13.3414 14.549 13.4044 14.5839C13.4674 14.6187 13.5371 14.6396 13.6089 14.645C13.6807 14.6504 13.7528 14.6403 13.8203 14.6152C13.8878 14.5902 13.9491 14.5509 14 14.5L15.5 13C15.5907 12.9093 15.643 12.7872 15.6462 12.6589C15.6493 12.5307 15.6031 12.4061 15.517 12.311L6.38799 3.68103C7.13499 3.22503 8.15999 2.84203 9.49999 2.84203C9.60357 2.84211 9.70461 2.81001 9.78916 2.75018C9.87371 2.69035 9.9376 2.60574 9.97199 2.50803V2.50803Z" fill="currentColor"/>
</svg>
