<svg width="16" height="16" viewBox="0 0 16 16" fill="none" xmlns="http://www.w3.org/2000/svg">
<g clip-path="url(#clip0_1419_1684)">
<path d="M8.5 1.75V4.466L8.547 4.464C8.859 4.452 9.289 4.448 9.598 4.51C9.878 4.566 10.141 4.69 10.336 4.798C10.609 4.95 10.792 5.183 10.896 5.44L11.028 5.428C11.34 5.404 11.822 5.39 12.186 5.536C12.556 5.684 12.875 6.023 13.066 6.252C13.141 6.342 13.207 6.427 13.261 6.5H13.843C14.1224 6.50001 14.3987 6.55857 14.6541 6.67191C14.9095 6.78524 15.1384 6.95083 15.3259 7.15801C15.5133 7.36519 15.6553 7.60936 15.7427 7.87478C15.83 8.14019 15.8608 8.42097 15.833 8.699L15.561 11.414C15.5122 11.903 15.3609 12.3763 15.117 12.803L13.722 15.244C13.5909 15.4736 13.4014 15.6644 13.1727 15.7972C12.9441 15.9299 12.6844 15.9999 12.42 16H6.118C5.83929 16 5.56609 15.9223 5.32905 15.7757C5.092 15.6291 4.9005 15.4194 4.776 15.17L3.561 12.74L1.07 8.589C0.880924 8.27159 0.814178 7.89609 0.882292 7.53296C0.950406 7.16984 1.1487 6.84405 1.43995 6.61674C1.73121 6.38943 2.09541 6.27622 2.4642 6.29837C2.833 6.32051 3.18104 6.47648 3.443 6.737L5 8.293V1.75C5 1.28587 5.18438 0.840752 5.51257 0.512563C5.84076 0.184374 6.28587 0 6.75 0C7.21413 0 7.65925 0.184374 7.98744 0.512563C8.31563 0.840752 8.5 1.28587 8.5 1.75V1.75Z" fill="#1B1B1B"/>
</g>
<defs>
<clipPath id="clip0_1419_1684">
<rect width="16" height="16" fill="white"/>
</clipPath>
</defs>
</svg>
