<svg width="16" height="16" viewBox="0 0 16 16" fill="none" xmlns="http://www.w3.org/2000/svg">
<path d="M8.5 4.466V1.75C8.5 1.28587 8.31563 0.840752 7.98744 0.512563C7.65925 0.184374 7.21413 0 6.75 0C6.28587 0 5.84075 0.184374 5.51256 0.512563C5.18437 0.840752 5 1.28587 5 1.75V7.09L3.8 7.33C3.43218 7.40374 3.10534 7.61264 2.88394 7.91548C2.66255 8.21833 2.56267 8.59314 2.604 8.966L2.949 12.072C2.99337 12.469 3.13225 12.8497 3.354 13.182L4.787 15.332C4.92397 15.5375 5.10954 15.7059 5.32725 15.8225C5.54496 15.939 5.78807 16 6.035 16H12.42C12.6844 15.9999 12.9441 15.9299 13.1727 15.7972C13.4014 15.6644 13.5909 15.4736 13.722 15.244L15.117 12.803C15.3609 12.3763 15.5122 11.903 15.561 11.414L15.832 8.699C15.8598 8.42097 15.829 8.14019 15.7417 7.87478C15.6543 7.60936 15.5123 7.36519 15.3249 7.15801C15.1374 6.95083 14.9085 6.78524 14.6531 6.67191C14.3977 6.55857 14.1214 6.50001 13.842 6.5H13.261C13.1986 6.41535 13.1335 6.33264 13.066 6.252C12.875 6.023 12.556 5.684 12.186 5.536C11.822 5.39 11.34 5.404 11.028 5.428L10.896 5.44C10.7895 5.16747 10.5915 4.94049 10.336 4.798C10.1059 4.66532 9.85712 4.56822 9.598 4.51C9.288 4.448 8.859 4.452 8.548 4.464L8.5 4.466Z" fill="currentColor"/>
</svg>
