<svg width="16" height="16" viewBox="0 0 16 16" fill="none" xmlns="http://www.w3.org/2000/svg">
<g clip-path="url(#clip0_1419_1072)">
<path d="M8.00004 1C7.46961 1 6.9609 1.21071 6.58583 1.58579C6.21076 1.96086 6.00004 2.46957 6.00004 3V5H5.00004V3C5.00004 2.20435 5.31611 1.44129 5.87872 0.87868C6.44133 0.31607 7.20439 0 8.00004 0C8.79569 0 9.55875 0.31607 10.1214 0.87868C10.684 1.44129 11 2.20435 11 3V5H10V3C10 2.46957 9.78933 1.96086 9.41426 1.58579C9.03918 1.21071 8.53047 1 8.00004 1ZM5.00004 5H3.36004C3.00092 5.00008 2.65374 5.129 2.3816 5.36334C2.10946 5.59767 1.93043 5.92187 1.87704 6.277L0.850042 13.13C0.796829 13.4856 0.820941 13.8485 0.920732 14.1939C1.02052 14.5393 1.19364 14.8591 1.42829 15.1315C1.66293 15.404 1.95357 15.6226 2.28039 15.7724C2.6072 15.9223 2.9625 15.9999 3.32204 16H12.677C13.0367 16.0001 13.3921 15.9226 13.719 15.7728C14.046 15.6229 14.3367 15.4044 14.5715 15.1319C14.8062 14.8595 14.9794 14.5396 15.0793 14.1941C15.1791 13.8486 15.2033 13.4857 15.15 13.13L14.122 6.277C14.0687 5.92204 13.8898 5.59798 13.6179 5.36366C13.3459 5.12935 12.999 5.00032 12.64 5H11V6.5C11 6.63261 10.9474 6.75979 10.8536 6.85355C10.7598 6.94732 10.6327 7 10.5 7C10.3674 7 10.2403 6.94732 10.1465 6.85355C10.0527 6.75979 10 6.63261 10 6.5V5H6.00004V6.5C6.00004 6.63261 5.94736 6.75979 5.85359 6.85355C5.75983 6.94732 5.63265 7 5.50004 7C5.36743 7 5.24026 6.94732 5.14649 6.85355C5.05272 6.75979 5.00004 6.63261 5.00004 6.5V5Z" fill="currentColor"/>
</g>
<defs>
<clipPath id="clip0_1419_1072">
<rect width="16" height="16" fill="white"/>
</clipPath>
</defs>
</svg>
