<svg width="16" height="16" viewBox="0 0 16 16" fill="none" xmlns="http://www.w3.org/2000/svg">
<path d="M2.5 7C2.36739 7 2.24021 7.05268 2.14645 7.14645C2.05268 7.24021 2 7.36739 2 7.5C2 7.63261 2.05268 7.75979 2.14645 7.85355C2.24021 7.94732 2.36739 8 2.5 8H13.5C13.6326 8 13.7598 7.94732 13.8536 7.85355C13.9473 7.75979 14 7.63261 14 7.5C14 7.36739 13.9473 7.24021 13.8536 7.14645C13.7598 7.05268 13.6326 7 13.5 7H2.5Z" fill="#1B1B1B"/>
<path d="M1 5C0.734784 5 0.48043 5.10536 0.292893 5.29289C0.105357 5.48043 0 5.73478 0 6L0 9C0 9.26522 0.105357 9.51957 0.292893 9.70711C0.48043 9.89464 0.734784 10 1 10H1.293L2 10.707C2.18749 10.8945 2.44181 10.9999 2.707 11H13.293C13.5582 10.9999 13.8125 10.8945 14 10.707L14.707 10H15C15.2652 10 15.5196 9.89464 15.7071 9.70711C15.8946 9.51957 16 9.26522 16 9V6C16 5.73478 15.8946 5.48043 15.7071 5.29289C15.5196 5.10536 15.2652 5 15 5H1ZM1 6H15V9H14.707C14.4418 9.00006 14.1875 9.10545 14 9.293L13.293 10H2.707L2 9.293C1.81251 9.10545 1.55819 9.00006 1.293 9H1V6Z" fill="#1B1B1B"/>
</svg>
