<svg width="16" height="16" viewBox="0 0 16 16" fill="none" xmlns="http://www.w3.org/2000/svg">
<g clip-path="url(#clip0_1419_1497)">
<path d="M6.70699 8.9999H11.071C10.535 10.5729 13.099 12.8059 16 8.4999C13.1 4.1939 10.535 6.4269 11.071 7.9999H6.70699L4.85399 6.1459C4.8075 6.09941 4.75231 6.06254 4.69157 6.03738C4.63084 6.01222 4.56573 5.99927 4.49999 5.99927C4.43425 5.99927 4.36915 6.01222 4.30841 6.03738C4.24767 6.06254 4.19248 6.09941 4.14599 6.1459C4.0995 6.19239 4.06263 6.24758 4.03747 6.30832C4.01231 6.36906 3.99936 6.43416 3.99936 6.4999C3.99936 6.56564 4.01231 6.63074 4.03747 6.69148C4.06263 6.75222 4.0995 6.80741 4.14599 6.8539L5.29299 7.9999H4.70699L2.85399 6.1459C2.8075 6.09941 2.75231 6.06254 2.69157 6.03738C2.63083 6.01222 2.56573 5.99927 2.49999 5.99927C2.43425 5.99927 2.36915 6.01222 2.30841 6.03738C2.24767 6.06254 2.19248 6.09941 2.14599 6.1459C2.0995 6.19239 2.06263 6.24758 2.03747 6.30832C2.01231 6.36906 1.99936 6.43416 1.99936 6.4999C1.99936 6.56564 2.01231 6.63074 2.03747 6.69148C2.06263 6.75222 2.0995 6.80741 2.14599 6.8539L3.29299 7.9999H2.70699L0.853991 6.1459C0.807503 6.09941 0.752314 6.06254 0.691574 6.03738C0.630835 6.01222 0.565735 5.99927 0.499991 5.99927C0.434247 5.99927 0.369147 6.01222 0.308407 6.03738C0.247668 6.06254 0.192479 6.09941 0.145991 6.1459C0.0995028 6.19239 0.0626265 6.24758 0.0374674 6.30832C0.0123083 6.36906 -0.00064087 6.43416 -0.000640869 6.4999C-0.000640868 6.56564 0.0123084 6.63074 0.0374674 6.69148C0.0626265 6.75222 0.0995028 6.80741 0.145991 6.8539L1.79299 8.4999L0.145991 10.1459C0.0521041 10.2398 -0.000640845 10.3671 -0.000640842 10.4999C-0.000640839 10.6327 0.0521041 10.76 0.145991 10.8539C0.239877 10.9478 0.367215 11.0005 0.499991 11.0005C0.632767 11.0005 0.760104 10.9478 0.853991 10.8539L2.70699 8.9999H3.29299L2.14599 10.1459C2.0521 10.2398 1.99936 10.3671 1.99936 10.4999C1.99936 10.6327 2.0521 10.76 2.14599 10.8539C2.23988 10.9478 2.36721 11.0005 2.49999 11.0005C2.63277 11.0005 2.7601 10.9478 2.85399 10.8539L4.70699 8.9999H5.29299L4.14599 10.1459C4.0521 10.2398 3.99936 10.3671 3.99936 10.4999C3.99936 10.6327 4.0521 10.76 4.14599 10.8539C4.23988 10.9478 4.36722 11.0005 4.49999 11.0005C4.63277 11.0005 4.7601 10.9478 4.85399 10.8539L6.70699 8.9999Z" fill="currentColor"/>
</g>
<defs>
<clipPath id="clip0_1419_1497">
<rect width="16" height="16" fill="white"/>
</clipPath>
</defs>
</svg>
