<svg width="16" height="16" viewBox="0 0 16 16" fill="none" xmlns="http://www.w3.org/2000/svg">
<g clip-path="url(#clip0_1419_1504)">
<path d="M8.867 14.4101C22.175 5.08807 13.657 -2.15293 8.931 0.586068L7 3.00007L8.5 7.00007L6.5 10.0001L8 15.0001C8.2917 14.8074 8.58072 14.6107 8.867 14.4101V14.4101ZM8.564 13.4001L7.593 10.1631L9.333 7.55507C9.42076 7.42303 9.47587 7.27202 9.49378 7.11449C9.51169 6.95696 9.49188 6.79744 9.436 6.64907L8.136 3.18107L9.586 1.36807C11.447 0.420068 14.032 1.37007 14.783 3.47807C15.474 5.41807 14.728 8.99907 8.564 13.4001V13.4001ZM7.314 14.5371C6.79701 14.1784 6.2895 13.8063 5.792 13.4211C-5.077 4.97007 1.842 -1.47193 6.454 0.293068C6.768 0.413068 7.072 0.572068 7.358 0.770068L5.5 3.00007L7 7.00007L5.5 10.0001L7.315 14.5371H7.314ZM5.014 11.4771L4.572 10.3711C4.51964 10.24 4.49559 10.0994 4.50145 9.95843C4.50731 9.81745 4.54294 9.6793 4.606 9.55307L5.911 6.94307L4.564 3.35007C4.50203 3.18476 4.48494 3.00599 4.51444 2.83193C4.54395 2.65787 4.61901 2.49472 4.732 2.35907L5.764 1.11907C4.076 0.670068 2.064 1.51707 1.308 3.24707C0.597001 4.87407 0.895001 7.79707 5.014 11.4761V11.4771Z" fill="#1B1B1B"/>
</g>
<defs>
<clipPath id="clip0_1419_1504">
<rect width="16" height="16" fill="white"/>
</clipPath>
</defs>
</svg>
