<svg width="16" height="16" viewBox="0 0 16 16" fill="none" xmlns="http://www.w3.org/2000/svg">
<g clip-path="url(#clip0_1419_1501)">
<path fill-rule="evenodd" clip-rule="evenodd" d="M8 2.7481L7.283 2.0111C5.6 0.281099 2.514 0.878099 1.4 3.0531C0.918 3.9951 0.780001 5.3231 1.508 7.0001H0.43C-1.698 1.3031 4.595 -1.8299 7.824 1.1431C7.884 1.1981 7.943 1.2551 8 1.3141C8.05642 1.25515 8.11513 1.19844 8.176 1.1441C11.406 -1.8299 17.698 1.3031 15.57 7.0001H14.492C15.22 5.3231 15.082 3.9951 14.6 3.0531C13.486 0.878099 10.4 0.280099 8.717 2.0101L8 2.7481ZM2.212 10.0001H3.527C4.593 11.1831 6.05 12.4581 8 13.7951C9.949 12.4581 11.407 11.1831 12.473 10.0001H13.788C12.523 11.5661 10.648 13.2501 8 15.0001C5.352 13.2501 3.477 11.5661 2.212 10.0001V10.0001ZM10.464 3.3141C10.4252 3.21728 10.3571 3.13503 10.2692 3.07884C10.1814 3.02265 10.0781 2.99534 9.97398 3.00074C9.86983 3.00614 9.76996 3.04398 9.68838 3.10896C9.6068 3.17393 9.54757 3.26279 9.519 3.3631L7.921 8.9561L6.464 5.3141C6.43007 5.22961 6.37371 5.156 6.30101 5.10119C6.22831 5.04638 6.14202 5.01247 6.05146 5.0031C5.96089 4.99374 5.86949 5.00928 5.78711 5.04805C5.70473 5.08682 5.6345 5.14734 5.584 5.2231L3.732 8.0001H0.5C0.367392 8.0001 0.240215 8.05278 0.146447 8.14655C0.0526789 8.24031 4.88697e-07 8.36749 4.88697e-07 8.5001C4.88697e-07 8.63271 0.0526789 8.75988 0.146447 8.85365C0.240215 8.94742 0.367392 9.0001 0.5 9.0001H4C4.08234 9.00006 4.1634 8.97968 4.23597 8.94078C4.30854 8.90187 4.37038 8.84565 4.416 8.7771L5.889 6.5681L7.536 10.6861C7.57479 10.7829 7.64289 10.8652 7.73076 10.9214C7.81862 10.9776 7.92186 11.0049 8.02602 10.9995C8.13018 10.9941 8.23004 10.9562 8.31162 10.8912C8.39321 10.8263 8.45243 10.7374 8.481 10.6371L10.079 5.0441L11.536 8.6861C11.5731 8.77879 11.6372 8.85823 11.7199 8.91419C11.8026 8.97016 11.9001 9.00008 12 9.0001H15.5C15.6326 9.0001 15.7598 8.94742 15.8536 8.85365C15.9473 8.75988 16 8.63271 16 8.5001C16 8.36749 15.9473 8.24031 15.8536 8.14655C15.7598 8.05278 15.6326 8.0001 15.5 8.0001H12.338L10.464 3.3141Z" fill="#1B1B1B"/>
</g>
<defs>
<clipPath id="clip0_1419_1501">
<rect width="16" height="16" fill="white"/>
</clipPath>
</defs>
</svg>
