<svg width="16" height="16" viewBox="0 0 16 16" fill="none" xmlns="http://www.w3.org/2000/svg">
<g clip-path="url(#clip0_1419_1500)">
<path fill-rule="evenodd" clip-rule="evenodd" d="M1.475 9.00006C2.702 10.8401 4.779 12.8711 8 15.0001C11.221 12.8711 13.298 10.8401 14.525 9.00006H12C11.9001 9.00004 11.8026 8.97012 11.7199 8.91415C11.6372 8.85819 11.5731 8.77875 11.536 8.68606L10.079 5.04406L8.481 10.6371C8.45243 10.7374 8.3932 10.8262 8.31162 10.8912C8.23003 10.9562 8.13017 10.994 8.02602 10.9994C7.92186 11.0048 7.81862 10.9775 7.73075 10.9213C7.64289 10.8651 7.57479 10.7829 7.536 10.6861L5.889 6.56806L4.416 8.77806C4.37027 8.84642 4.30838 8.90245 4.23581 8.94118C4.16325 8.9799 4.08225 9.00013 4 9.00006H1.475ZM0.878998 8.00006C-2.426 1.68006 4.41 -1.99994 7.824 1.14306C7.884 1.19806 7.943 1.25506 8 1.31406C8.05642 1.25511 8.11513 1.1984 8.176 1.14406C11.59 -1.99994 18.426 1.68006 15.12 8.00006H12.337L10.463 3.31406C10.4242 3.21725 10.3561 3.13499 10.2682 3.0788C10.1804 3.02261 10.0771 2.9953 9.97298 3.0007C9.86882 3.0061 9.76896 3.04394 9.68738 3.10892C9.60579 3.17389 9.54657 3.26275 9.518 3.36306L7.921 8.95606L6.464 5.31406C6.43007 5.22957 6.37371 5.15596 6.30101 5.10115C6.2283 5.04634 6.14202 5.01243 6.05145 5.00306C5.96089 4.9937 5.86949 5.00924 5.78711 5.04801C5.70473 5.08678 5.6345 5.1473 5.584 5.22306L3.732 8.00006H0.879998H0.878998Z" fill="currentColor"/>
</g>
<defs>
<clipPath id="clip0_1419_1500">
<rect width="16" height="16" fill="white"/>
</clipPath>
</defs>
</svg>
