<svg width="16" height="16" viewBox="0 0 16 16" fill="none" xmlns="http://www.w3.org/2000/svg">
<g clip-path="url(#clip0_1419_529)">
<path d="M8.5 5.03394V6.13394L9.453 5.58394L9.953 6.45094L9 6.99994L9.953 7.54994L9.453 8.41594L8.5 7.86594V8.96594H7.5V7.86594L6.547 8.41594L6.047 7.54994L7 6.99994L6.047 6.44994L6.547 5.58394L7.5 6.13394V5.03394H8.5V5.03394ZM13.25 8.99994C13.1837 8.99994 13.1201 9.02627 13.0732 9.07316C13.0263 9.12004 13 9.18363 13 9.24994V9.74994C13 9.88794 13.112 9.99994 13.25 9.99994H13.75C13.8163 9.99994 13.8799 9.9736 13.9268 9.92671C13.9737 9.87983 14 9.81624 14 9.74994V9.24994C14 9.18363 13.9737 9.12004 13.9268 9.07316C13.8799 9.02627 13.8163 8.99994 13.75 8.99994H13.25ZM13 11.2499C13 11.1836 13.0263 11.12 13.0732 11.0732C13.1201 11.0263 13.1837 10.9999 13.25 10.9999H13.75C13.8163 10.9999 13.8799 11.0263 13.9268 11.0732C13.9737 11.12 14 11.1836 14 11.2499V11.7499C14 11.8162 13.9737 11.8798 13.9268 11.9267C13.8799 11.9736 13.8163 11.9999 13.75 11.9999H13.25C13.1837 11.9999 13.1201 11.9736 13.0732 11.9267C13.0263 11.8798 13 11.8162 13 11.7499V11.2499ZM13.25 12.9999C13.1837 12.9999 13.1201 13.0263 13.0732 13.0732C13.0263 13.12 13 13.1836 13 13.2499V13.7499C13 13.8879 13.112 13.9999 13.25 13.9999H13.75C13.8163 13.9999 13.8799 13.9736 13.9268 13.9267C13.9737 13.8798 14 13.8162 14 13.7499V13.2499C14 13.1836 13.9737 13.12 13.9268 13.0732C13.8799 13.0263 13.8163 12.9999 13.75 12.9999H13.25ZM2.25 8.99994C2.1837 8.99994 2.12011 9.02627 2.07322 9.07316C2.02634 9.12004 2 9.18363 2 9.24994V9.74994C2 9.88794 2.112 9.99994 2.25 9.99994H2.75C2.8163 9.99994 2.87989 9.9736 2.92678 9.92671C2.97366 9.87983 3 9.81624 3 9.74994V9.24994C3 9.18363 2.97366 9.12004 2.92678 9.07316C2.87989 9.02627 2.8163 8.99994 2.75 8.99994H2.25ZM2.25 10.9999C2.1837 10.9999 2.12011 11.0263 2.07322 11.0732C2.02634 11.12 2 11.1836 2 11.2499V11.7499C2 11.8879 2.112 11.9999 2.25 11.9999H2.75C2.8163 11.9999 2.87989 11.9736 2.92678 11.9267C2.97366 11.8798 3 11.8162 3 11.7499V11.2499C3 11.1836 2.97366 11.12 2.92678 11.0732C2.87989 11.0263 2.8163 10.9999 2.75 10.9999H2.25ZM2 13.2499C2 13.1836 2.02634 13.12 2.07322 13.0732C2.12011 13.0263 2.1837 12.9999 2.25 12.9999H2.75C2.8163 12.9999 2.87989 13.0263 2.92678 13.0732C2.97366 13.12 3 13.1836 3 13.2499V13.7499C3 13.8162 2.97366 13.8798 2.92678 13.9267C2.87989 13.9736 2.8163 13.9999 2.75 13.9999H2.25C2.1837 13.9999 2.12011 13.9736 2.07322 13.9267C2.02634 13.8798 2 13.8162 2 13.7499V13.2499Z" fill="#1B1B1B"/>
<path d="M5 1C5 0.734784 5.10536 0.48043 5.29289 0.292893C5.48043 0.105357 5.73478 0 6 0L10 0C10.2652 0 10.5196 0.105357 10.7071 0.292893C10.8946 0.48043 11 0.734784 11 1V2C11.2652 2 11.5196 2.10536 11.7071 2.29289C11.8946 2.48043 12 2.73478 12 3V7H15C15.2652 7 15.5196 7.10536 15.7071 7.29289C15.8946 7.48043 16 7.73478 16 8V15C16 15.2652 15.8946 15.5196 15.7071 15.7071C15.5196 15.8946 15.2652 16 15 16H1C0.734784 16 0.48043 15.8946 0.292893 15.7071C0.105357 15.5196 0 15.2652 0 15V8C0 7.73478 0.105357 7.48043 0.292893 7.29289C0.48043 7.10536 0.734784 7 1 7H4V3C4 2.73478 4.10536 2.48043 4.29289 2.29289C4.48043 2.10536 4.73478 2 5 2V1ZM7 15H9V12H7V15ZM10 15H11V3H5V15H6V12C6 11.7348 6.10536 11.4804 6.29289 11.2929C6.48043 11.1054 6.73478 11 7 11H9C9.26522 11 9.51957 11.1054 9.70711 11.2929C9.89464 11.4804 10 11.7348 10 12V15ZM10 1H6V2H10V1ZM12 8V15H15V8H12ZM4 15V8H1V15H4Z" fill="#1B1B1B"/>
</g>
<defs>
<clipPath id="clip0_1419_529">
<rect width="16" height="16" fill="white"/>
</clipPath>
</defs>
</svg>
