<svg width="16" height="16" viewBox="0 0 16 16" fill="none" xmlns="http://www.w3.org/2000/svg">
<path d="M7.29302 1.50006C7.48055 1.31259 7.73486 1.20728 8.00002 1.20728C8.26519 1.20728 8.51949 1.31259 8.70702 1.50006L11 3.79306V2.50006C11 2.36745 11.0527 2.24028 11.1465 2.14651C11.2402 2.05274 11.3674 2.00006 11.5 2.00006H12.5C12.6326 2.00006 12.7598 2.05274 12.8536 2.14651C12.9473 2.24028 13 2.36745 13 2.50006V5.79306L15.354 8.14606C15.4005 8.19255 15.4374 8.24774 15.4625 8.30848C15.4877 8.36922 15.5007 8.43432 15.5007 8.50006C15.5007 8.56581 15.4877 8.63091 15.4625 8.69165C15.4374 8.75239 15.4005 8.80757 15.354 8.85406C15.3075 8.90055 15.2523 8.93743 15.1916 8.96259C15.1309 8.98774 15.0658 9.00069 15 9.00069C14.9343 9.00069 14.8692 8.98774 14.8084 8.96259C14.7477 8.93743 14.6925 8.90055 14.646 8.85406L8.00002 2.20706L1.35402 8.85406C1.26013 8.94795 1.1328 9.00069 1.00002 9.00069C0.867245 9.00069 0.739908 8.94795 0.646021 8.85406C0.552135 8.76018 0.49939 8.63284 0.49939 8.50006C0.49939 8.36729 0.552135 8.23995 0.646021 8.14606L7.29302 1.50006Z" fill="#1B1B1B"/>
<path d="M11.07 9.04697C10.7893 8.90109 10.4697 8.84768 10.1568 8.89437C9.84395 8.94107 9.55386 9.08548 9.328 9.30697L9.308 9.32797C9.08635 9.55371 8.94175 9.84375 8.89487 10.1566C8.848 10.4695 8.90124 10.7892 9.047 11.07C8.74319 11.1662 8.47792 11.3567 8.28965 11.6138C8.10137 11.8709 7.99988 12.1813 7.99988 12.5C7.99988 12.8186 8.10137 13.129 8.28965 13.3862C8.47792 13.6433 8.74319 13.8338 9.047 13.93C8.87633 14.2596 8.83359 14.6407 8.927 15H3.5C3.10218 15 2.72064 14.8419 2.43934 14.5606C2.15804 14.2793 2 13.8978 2 13.5V9.29297L8 3.29297L12.724 8.01697C12.3708 7.96361 12.0102 8.03803 11.707 8.22684C11.4038 8.41566 11.1779 8.70647 11.07 9.04697V9.04697Z" fill="#1B1B1B"/>
<path fill-rule="evenodd" clip-rule="evenodd" d="M13.158 9.60799L13.115 9.45999C12.934 8.84699 12.066 8.84699 11.885 9.45999L11.842 9.60799C11.8151 9.6998 11.768 9.78442 11.7042 9.85562C11.6403 9.92683 11.5613 9.98281 11.4729 10.0195C11.3846 10.0561 11.2891 10.0725 11.1936 10.0674C11.0981 10.0623 11.0049 10.0358 10.921 9.98999L10.785 9.91599C10.224 9.60999 9.60999 10.224 9.91499 10.785L9.98999 10.921C10.0357 11.0049 10.0619 11.098 10.0669 11.1934C10.0719 11.2888 10.0555 11.3841 10.0189 11.4723C9.98226 11.5605 9.92635 11.6394 9.85524 11.7032C9.78414 11.767 9.69966 11.8141 9.60799 11.841L9.45999 11.886C8.84699 12.066 8.84699 12.934 9.45999 13.115L9.60799 13.158C9.6998 13.1849 9.78442 13.2319 9.85562 13.2958C9.92683 13.3597 9.98281 13.4387 10.0195 13.5271C10.0561 13.6154 10.0725 13.7109 10.0674 13.8064C10.0623 13.9019 10.0358 13.995 9.98999 14.079L9.91599 14.215C9.60999 14.776 10.224 15.39 10.785 15.085L10.921 15.01C11.0049 14.9643 11.098 14.938 11.1934 14.933C11.2888 14.928 11.3841 14.9445 11.4723 14.9811C11.5605 15.0177 11.6394 15.0736 11.7032 15.1447C11.767 15.2158 11.8141 15.3003 11.841 15.392L11.886 15.541C12.066 16.153 12.934 16.153 13.115 15.541L13.158 15.391C13.1851 15.2994 13.2323 15.215 13.2963 15.144C13.3603 15.073 13.4393 15.0172 13.5276 14.9808C13.616 14.9444 13.7113 14.9281 13.8067 14.9334C13.9021 14.9386 13.9952 14.9651 14.079 15.011L14.215 15.085C14.776 15.39 15.39 14.776 15.085 14.215L15.01 14.079C14.9643 13.9951 14.938 13.902 14.933 13.8066C14.928 13.7112 14.9445 13.6159 14.9811 13.5277C15.0177 13.4395 15.0736 13.3606 15.1447 13.2968C15.2158 13.233 15.3003 13.1859 15.392 13.159L15.541 13.115C16.153 12.934 16.153 12.066 15.541 11.885L15.391 11.842C15.2994 11.8149 15.215 11.7676 15.144 11.7037C15.073 11.6397 15.0172 11.5607 14.9808 11.4723C14.9444 11.384 14.9281 11.2887 14.9334 11.1932C14.9386 11.0978 14.9651 11.0048 15.011 10.921L15.085 10.785C15.39 10.224 14.776 9.60999 14.215 9.91499L14.079 9.98999C13.9951 10.0357 13.902 10.0619 13.8066 10.0669C13.7112 10.0719 13.6159 10.0555 13.5277 10.0189C13.4395 9.98226 13.3606 9.92635 13.2968 9.85524C13.233 9.78414 13.1859 9.69966 13.159 9.60799H13.158ZM12.5 14C12.697 14 12.892 13.9612 13.074 13.8858C13.256 13.8104 13.4214 13.6999 13.5607 13.5607C13.6999 13.4214 13.8104 13.256 13.8858 13.074C13.9612 12.892 14 12.697 14 12.5C14 12.303 13.9612 12.108 13.8858 11.926C13.8104 11.744 13.6999 11.5786 13.5607 11.4393C13.4214 11.3 13.256 11.1896 13.074 11.1142C12.892 11.0388 12.697 11 12.5 11C12.1022 11 11.7206 11.158 11.4393 11.4393C11.158 11.7206 11 12.1022 11 12.5C11 12.8978 11.158 13.2794 11.4393 13.5607C11.7206 13.842 12.1022 14 12.5 14V14Z" fill="#1B1B1B"/>
</svg>
