<svg width="16" height="16" viewBox="0 0 16 16" fill="none" xmlns="http://www.w3.org/2000/svg">
<path d="M7.29303 1.50006C7.48056 1.31259 7.73487 1.20728 8.00003 1.20728C8.2652 1.20728 8.51951 1.31259 8.70703 1.50006L11 3.79306V2.50006C11 2.36745 11.0527 2.24028 11.1465 2.14651C11.2402 2.05274 11.3674 2.00006 11.5 2.00006H12.5C12.6326 2.00006 12.7598 2.05274 12.8536 2.14651C12.9474 2.24028 13 2.36745 13 2.50006V5.79306L15.354 8.14606C15.4478 8.23995 15.5004 8.36723 15.5003 8.49992C15.5002 8.6326 15.4474 8.75981 15.3535 8.85356C15.2596 8.94732 15.1324 8.99993 14.9997 8.99984C14.867 8.99975 14.7398 8.94695 14.646 8.85306L8.00003 2.20706L1.35403 8.85306C1.26028 8.94695 1.13307 8.99975 1.00039 8.99984C0.867706 8.99993 0.740421 8.94732 0.646534 8.85356C0.552647 8.75981 0.49985 8.6326 0.499756 8.49992C0.499662 8.36723 0.55228 8.23995 0.646034 8.14606L7.29303 1.50006Z" fill="#1B1B1B"/>
<path d="M14 9.29297L8 3.29297L2 9.29297V13.5C2 13.8978 2.15804 14.2793 2.43934 14.5606C2.72064 14.8419 3.10218 15 3.5 15H12.5C12.8978 15 13.2794 14.8419 13.5607 14.5606C13.842 14.2793 14 13.8978 14 13.5V9.29297ZM8 8.48197C9.664 6.80897 13.825 9.73597 8 13.5C2.175 9.73597 6.336 6.80897 8 8.48197Z" fill="#1B1B1B"/>
</svg>
