<svg width="16" height="16" viewBox="0 0 16 16" fill="none" xmlns="http://www.w3.org/2000/svg">
<path d="M7.99999 6.98196C9.66399 5.30896 13.825 8.23596 7.99999 12C2.17499 8.23596 6.33599 5.30896 7.99999 6.98196Z" fill="#1B1B1B"/>
<path d="M8.70703 1.50006C8.51951 1.31259 8.2652 1.20728 8.00003 1.20728C7.73487 1.20728 7.48056 1.31259 7.29303 1.50006L0.646034 8.14606C0.55228 8.23995 0.499662 8.36723 0.499756 8.49992C0.49985 8.6326 0.552647 8.75981 0.646534 8.85356C0.740421 8.94732 0.867706 8.99993 1.00039 8.99984C1.13307 8.99975 1.26028 8.94695 1.35403 8.85306L2.00003 8.20706V13.5001C2.00003 13.8979 2.15807 14.2794 2.43937 14.5607C2.72068 14.842 3.10221 15.0001 3.50003 15.0001H12.5C12.8979 15.0001 13.2794 14.842 13.5607 14.5607C13.842 14.2794 14 13.8979 14 13.5001V8.20706L14.646 8.85306C14.7398 8.94695 14.867 8.99975 14.9997 8.99984C15.1324 8.99993 15.2596 8.94732 15.3535 8.85356C15.4474 8.75981 15.5002 8.6326 15.5003 8.49992C15.5004 8.36723 15.4478 8.23995 15.354 8.14606L13 5.79306V2.50006C13 2.36745 12.9474 2.24028 12.8536 2.14651C12.7598 2.05274 12.6326 2.00006 12.5 2.00006H11.5C11.3674 2.00006 11.2402 2.05274 11.1465 2.14651C11.0527 2.24028 11 2.36745 11 2.50006V3.79306L8.70703 1.50006ZM13 7.20706V13.5001C13 13.6327 12.9474 13.7598 12.8536 13.8536C12.7598 13.9474 12.6326 14.0001 12.5 14.0001H3.50003C3.36743 14.0001 3.24025 13.9474 3.14648 13.8536C3.05271 13.7598 3.00003 13.6327 3.00003 13.5001V7.20706L8.00003 2.20706L13 7.20706Z" fill="#1B1B1B"/>
</svg>
