<svg width="16" height="16" viewBox="0 0 16 16" fill="none" xmlns="http://www.w3.org/2000/svg">
<path d="M8.70702 1.50006C8.51949 1.31259 8.26519 1.20728 8.00002 1.20728C7.73486 1.20728 7.48055 1.31259 7.29302 1.50006L0.646021 8.14606C0.599533 8.19255 0.562657 8.24774 0.537498 8.30848C0.512339 8.36922 0.49939 8.43432 0.49939 8.50006C0.49939 8.56581 0.512339 8.63091 0.537498 8.69165C0.562657 8.75239 0.599533 8.80757 0.646021 8.85406C0.739908 8.94795 0.867245 9.00069 1.00002 9.00069C1.06577 9.00069 1.13087 8.98774 1.1916 8.96259C1.25234 8.93743 1.30753 8.90055 1.35402 8.85406L8.00002 2.20706L14.646 8.85406C14.7399 8.94795 14.8672 9.00069 15 9.00069C15.1328 9.00069 15.2601 8.94795 15.354 8.85406C15.4479 8.76018 15.5007 8.63284 15.5007 8.50006C15.5007 8.36729 15.4479 8.23995 15.354 8.14606L13 5.79306V2.50006C13 2.36745 12.9473 2.24028 12.8536 2.14651C12.7598 2.05274 12.6326 2.00006 12.5 2.00006H11.5C11.3674 2.00006 11.2402 2.05274 11.1465 2.14651C11.0527 2.24028 11 2.36745 11 2.50006V3.79306L8.70702 1.50006Z" fill="#1B1B1B"/>
<path d="M8 3.29297L12.712 8.00497C11.88 7.96566 11.0534 8.15805 10.3243 8.5607C9.59514 8.96335 8.99206 9.56047 8.58219 10.2856C8.17232 11.0107 7.97173 11.8353 8.00277 12.6677C8.03381 13.5 8.29526 14.3074 8.758 15H3.5C3.10218 15 2.72064 14.8419 2.43934 14.5606C2.15804 14.2793 2 13.8978 2 13.5V9.29297L8 3.29297V3.29297Z" fill="#1B1B1B"/>
<path fill-rule="evenodd" clip-rule="evenodd" d="M16 12.5C16 13.4283 15.6313 14.3185 14.9749 14.9749C14.3185 15.6313 13.4283 16 12.5 16C11.5717 16 10.6815 15.6313 10.0251 14.9749C9.36875 14.3185 9 13.4283 9 12.5C9 11.5717 9.36875 10.6815 10.0251 10.0251C10.6815 9.36875 11.5717 9 12.5 9C13.4283 9 14.3185 9.36875 14.9749 10.0251C15.6313 10.6815 16 11.5717 16 12.5V12.5ZM12.5 10.5C12.6326 10.5 12.7598 10.5527 12.8536 10.6464C12.9473 10.7402 13 10.8674 13 11V12.5C13 12.6326 12.9473 12.7598 12.8536 12.8536C12.7598 12.9473 12.6326 13 12.5 13C12.3674 13 12.2402 12.9473 12.1464 12.8536C12.0527 12.7598 12 12.6326 12 12.5V11C12 10.8674 12.0527 10.7402 12.1464 10.6464C12.2402 10.5527 12.3674 10.5 12.5 10.5ZM12.5 14.5C12.6326 14.5 12.7598 14.4473 12.8536 14.3536C12.9473 14.2598 13 14.1326 13 14C13 13.8674 12.9473 13.7402 12.8536 13.6464C12.7598 13.5527 12.6326 13.5 12.5 13.5C12.3674 13.5 12.2402 13.5527 12.1464 13.6464C12.0527 13.7402 12 13.8674 12 14C12 14.1326 12.0527 14.2598 12.1464 14.3536C12.2402 14.4473 12.3674 14.5 12.5 14.5Z" fill="#1B1B1B"/>
</svg>
