<svg width="16" height="16" viewBox="0 0 16 16" fill="none" xmlns="http://www.w3.org/2000/svg">
<g clip-path="url(#clip0_1419_550)">
<path fill-rule="evenodd" clip-rule="evenodd" d="M13.8791 10.4141C13.3983 10.0954 12.8221 9.95282 12.2482 10.0104C11.6743 10.068 11.138 10.3223 10.7301 10.7302C10.3223 11.138 10.068 11.6743 10.0104 12.2482C9.9528 12.8221 10.0954 13.3983 10.4141 13.8791L13.8791 10.4141ZM14.5861 11.1211L11.1211 14.5861C11.6019 14.9035 12.1777 15.0451 12.7509 14.9869C13.3241 14.9288 13.8597 14.6746 14.2671 14.2672C14.6746 13.8598 14.9288 13.3242 14.9869 12.7509C15.045 12.1777 14.9034 11.602 14.5861 11.1211V11.1211ZM10.0261 10.0251C10.3499 9.69478 10.736 9.43194 11.162 9.25176C11.5881 9.07159 12.0456 8.97765 12.5082 8.97538C12.9707 8.97312 13.4292 9.06257 13.8569 9.23856C14.2847 9.41455 14.6734 9.6736 15.0004 10.0007C15.3275 10.3278 15.5864 10.7165 15.7624 11.1444C15.9383 11.5722 16.0276 12.0306 16.0253 12.4932C16.0229 12.9558 15.9289 13.4133 15.7486 13.8393C15.5683 14.2653 15.3054 14.6513 14.9751 14.9751C14.3186 15.6315 13.4284 16.0003 12.5001 16.0003C11.5718 16.0003 10.6815 15.6315 10.0251 14.9751C9.36865 14.3187 8.99988 13.4284 8.99988 12.5001C8.99988 11.5718 9.36865 10.6815 10.0251 10.0251H10.0261Z" fill="#1B1B1B"/>
<path d="M7.29302 1.50006C7.48055 1.31259 7.73486 1.20728 8.00002 1.20728C8.26519 1.20728 8.51949 1.31259 8.70702 1.50006L11 3.79306V2.50006C11 2.36745 11.0527 2.24028 11.1465 2.14651C11.2402 2.05274 11.3674 2.00006 11.5 2.00006H12.5C12.6326 2.00006 12.7598 2.05274 12.8536 2.14651C12.9473 2.24028 13 2.36745 13 2.50006V5.79306L15.354 8.14606C15.4005 8.19255 15.4374 8.24774 15.4625 8.30848C15.4877 8.36922 15.5007 8.43432 15.5007 8.50006C15.5007 8.56581 15.4877 8.63091 15.4625 8.69165C15.4374 8.75239 15.4005 8.80757 15.354 8.85406C15.3075 8.90055 15.2523 8.93743 15.1916 8.96259C15.1309 8.98774 15.0658 9.00069 15 9.00069C14.9343 9.00069 14.8692 8.98774 14.8084 8.96259C14.7477 8.93743 14.6925 8.90055 14.646 8.85406L8.00002 2.20706L3.00002 7.20706V13.5001C3.00002 13.6327 3.0527 13.7598 3.14647 13.8536C3.24024 13.9474 3.36741 14.0001 3.50002 14.0001H7.50002C7.63263 14.0001 7.75981 14.0527 7.85357 14.1465C7.94734 14.2403 8.00002 14.3675 8.00002 14.5001C8.00002 14.6327 7.94734 14.7598 7.85357 14.8536C7.75981 14.9474 7.63263 15.0001 7.50002 15.0001H3.50002C3.1022 15.0001 2.72067 14.842 2.43936 14.5607C2.15806 14.2794 2.00002 13.8979 2.00002 13.5001V8.20706L1.35402 8.85406C1.30753 8.90055 1.25234 8.93743 1.1916 8.96259C1.13087 8.98774 1.06577 9.00069 1.00002 9.00069C0.934277 9.00069 0.869177 8.98774 0.808438 8.96259C0.747698 8.93743 0.692509 8.90055 0.646021 8.85406C0.599533 8.80757 0.562657 8.75239 0.537498 8.69165C0.512339 8.63091 0.49939 8.56581 0.49939 8.50006C0.49939 8.43432 0.512339 8.36922 0.537498 8.30848C0.562657 8.24774 0.599533 8.19255 0.646021 8.14606L7.29302 1.50006Z" fill="#1B1B1B"/>
</g>
<defs>
<clipPath id="clip0_1419_550">
<rect width="16" height="16" fill="white"/>
</clipPath>
</defs>
</svg>
