<svg width="16" height="16" viewBox="0 0 16 16" fill="none" xmlns="http://www.w3.org/2000/svg">
<path fill-rule="evenodd" clip-rule="evenodd" d="M12.5 16C13.4283 16 14.3185 15.6313 14.9749 14.9749C15.6313 14.3185 16 13.4283 16 12.5C16 11.5717 15.6313 10.6815 14.9749 10.0251C14.3185 9.36875 13.4283 9 12.5 9C11.5717 9 10.6815 9.36875 10.0251 10.0251C9.36875 10.6815 9 11.5717 9 12.5C9 13.4283 9.36875 14.3185 10.0251 14.9749C10.6815 15.6313 11.5717 16 12.5 16V16ZM12.854 10.146C12.8076 10.0994 12.7524 10.0625 12.6916 10.0373C12.6309 10.0121 12.5658 9.99911 12.5 9.99911C12.4342 9.99911 12.3691 10.0121 12.3084 10.0373C12.2476 10.0625 12.1924 10.0994 12.146 10.146L10.646 11.646C10.5521 11.7399 10.4994 11.8672 10.4994 12C10.4994 12.1328 10.5521 12.2601 10.646 12.354C10.7399 12.4479 10.8672 12.5006 11 12.5006C11.1328 12.5006 11.2601 12.4479 11.354 12.354L12 11.707V14.5C12 14.6326 12.0527 14.7598 12.1464 14.8536C12.2402 14.9473 12.3674 15 12.5 15C12.6326 15 12.7598 14.9473 12.8536 14.8536C12.9473 14.7598 13 14.6326 13 14.5V11.707L13.646 12.354C13.7398 12.4479 13.867 12.5007 13.9996 12.5008C14.1323 12.5009 14.2596 12.4483 14.3535 12.3545C14.4474 12.2607 14.5002 12.1335 14.5003 12.0009C14.5004 11.8682 14.4478 11.7409 14.354 11.647L12.854 10.147V10.146Z" fill="#1B1B1B"/>
<path d="M8.70702 1.50006C8.51949 1.31259 8.26519 1.20728 8.00002 1.20728C7.73486 1.20728 7.48055 1.31259 7.29302 1.50006L0.646021 8.14606C0.599533 8.19255 0.562657 8.24774 0.537498 8.30848C0.512339 8.36922 0.49939 8.43432 0.49939 8.50006C0.49939 8.56581 0.512339 8.63091 0.537498 8.69165C0.562657 8.75239 0.599533 8.80757 0.646021 8.85406C0.739908 8.94795 0.867245 9.00069 1.00002 9.00069C1.06577 9.00069 1.13087 8.98774 1.1916 8.96259C1.25234 8.93743 1.30753 8.90055 1.35402 8.85406L8.00002 2.20706L14.646 8.85406C14.7399 8.94795 14.8672 9.00069 15 9.00069C15.1328 9.00069 15.2601 8.94795 15.354 8.85406C15.4479 8.76018 15.5007 8.63284 15.5007 8.50006C15.5007 8.36729 15.4479 8.23995 15.354 8.14606L13 5.79306V2.50006C13 2.36745 12.9473 2.24028 12.8536 2.14651C12.7598 2.05274 12.6326 2.00006 12.5 2.00006H11.5C11.3674 2.00006 11.2402 2.05274 11.1465 2.14651C11.0527 2.24028 11 2.36745 11 2.50006V3.79306L8.70702 1.50006Z" fill="#1B1B1B"/>
<path d="M8 3.29297L12.712 8.00497C11.88 7.96566 11.0534 8.15805 10.3243 8.5607C9.59514 8.96335 8.99206 9.56047 8.58219 10.2856C8.17232 11.0107 7.97173 11.8353 8.00277 12.6677C8.03381 13.5 8.29526 14.3074 8.758 15H3.5C3.10218 15 2.72064 14.8419 2.43934 14.5606C2.15804 14.2793 2 13.8978 2 13.5V9.29297L8 3.29297V3.29297Z" fill="#1B1B1B"/>
</svg>
