<svg width="16" height="16" viewBox="0 0 16 16" fill="none" xmlns="http://www.w3.org/2000/svg">
<path d="M7.29302 1.50006C7.48055 1.31259 7.73486 1.20728 8.00002 1.20728C8.26519 1.20728 8.51949 1.31259 8.70702 1.50006L11 3.79306V2.50006C11 2.36745 11.0527 2.24028 11.1465 2.14651C11.2402 2.05274 11.3674 2.00006 11.5 2.00006H12.5C12.6326 2.00006 12.7598 2.05274 12.8536 2.14651C12.9473 2.24028 13 2.36745 13 2.50006V5.79306L15.354 8.14606C15.4005 8.19255 15.4374 8.24774 15.4625 8.30848C15.4877 8.36922 15.5007 8.43432 15.5007 8.50006C15.5007 8.56581 15.4877 8.63091 15.4625 8.69165C15.4374 8.75239 15.4005 8.80757 15.354 8.85406C15.3075 8.90055 15.2523 8.93743 15.1916 8.96259C15.1309 8.98774 15.0658 9.00069 15 9.00069C14.9343 9.00069 14.8692 8.98774 14.8084 8.96259C14.7477 8.93743 14.6925 8.90055 14.646 8.85406L8.00002 2.20706L3.00002 7.20706V13.5001C3.00002 13.6327 3.0527 13.7598 3.14647 13.8536C3.24024 13.9474 3.36741 14.0001 3.50002 14.0001H7.50002C7.63263 14.0001 7.75981 14.0527 7.85357 14.1465C7.94734 14.2403 8.00002 14.3675 8.00002 14.5001C8.00002 14.6327 7.94734 14.7598 7.85357 14.8536C7.75981 14.9474 7.63263 15.0001 7.50002 15.0001H3.50002C3.1022 15.0001 2.72067 14.842 2.43936 14.5607C2.15806 14.2794 2.00002 13.8979 2.00002 13.5001V8.20706L1.35402 8.85406C1.30753 8.90055 1.25234 8.93743 1.1916 8.96259C1.13087 8.98774 1.06577 9.00069 1.00002 9.00069C0.934277 9.00069 0.869177 8.98774 0.808438 8.96259C0.747698 8.93743 0.692509 8.90055 0.646021 8.85406C0.599533 8.80757 0.562657 8.75239 0.537498 8.69165C0.512339 8.63091 0.49939 8.56581 0.49939 8.50006C0.49939 8.43432 0.512339 8.36922 0.537498 8.30848C0.562657 8.24774 0.599533 8.19255 0.646021 8.14606L7.29302 1.50006Z" fill="currentColor"/>
<path fill-rule="evenodd" clip-rule="evenodd" d="M12.5 16C13.4283 16 14.3185 15.6313 14.9749 14.9749C15.6313 14.3185 16 13.4283 16 12.5C16 11.5717 15.6313 10.6815 14.9749 10.0251C14.3185 9.36875 13.4283 9 12.5 9C11.5717 9 10.6815 9.36875 10.0251 10.0251C9.36875 10.6815 9 11.5717 9 12.5C9 13.4283 9.36875 14.3185 10.0251 14.9749C10.6815 15.6313 11.5717 16 12.5 16V16ZM12.854 10.146C12.8076 10.0994 12.7524 10.0625 12.6916 10.0373C12.6309 10.0121 12.5658 9.99911 12.5 9.99911C12.4342 9.99911 12.3691 10.0121 12.3084 10.0373C12.2476 10.0625 12.1924 10.0994 12.146 10.146L10.646 11.646C10.5521 11.7399 10.4994 11.8672 10.4994 12C10.4994 12.1328 10.5521 12.2601 10.646 12.354C10.7399 12.4479 10.8672 12.5006 11 12.5006C11.1328 12.5006 11.2601 12.4479 11.354 12.354L12 11.707V14.5C12 14.6326 12.0527 14.7598 12.1464 14.8536C12.2402 14.9473 12.3674 15 12.5 15C12.6326 15 12.7598 14.9473 12.8536 14.8536C12.9473 14.7598 13 14.6326 13 14.5V11.707L13.646 12.354C13.7398 12.4479 13.867 12.5007 13.9996 12.5008C14.1323 12.5009 14.2596 12.4483 14.3535 12.3545C14.4474 12.2607 14.5002 12.1335 14.5003 12.0009C14.5004 11.8682 14.4478 11.7409 14.354 11.647L12.854 10.147V10.146Z" fill="currentColor"/>
</svg>
