<svg width="16" height="16" viewBox="0 0 16 16" fill="none" xmlns="http://www.w3.org/2000/svg">
<path d="M8.70702 1.50006C8.51949 1.31259 8.26519 1.20728 8.00002 1.20728C7.73486 1.20728 7.48055 1.31259 7.29302 1.50006L0.646021 8.14606C0.599533 8.19255 0.562657 8.24774 0.537498 8.30848C0.512339 8.36922 0.49939 8.43432 0.49939 8.50006C0.49939 8.56581 0.512339 8.63091 0.537498 8.69165C0.562657 8.75239 0.599533 8.80757 0.646021 8.85406C0.739908 8.94795 0.867245 9.00069 1.00002 9.00069C1.06577 9.00069 1.13087 8.98774 1.1916 8.96259C1.25234 8.93743 1.30753 8.90055 1.35402 8.85406L8.00002 2.20706L14.646 8.85406C14.7399 8.94795 14.8672 9.00069 15 9.00069C15.1328 9.00069 15.2601 8.94795 15.354 8.85406C15.4479 8.76018 15.5007 8.63284 15.5007 8.50006C15.5007 8.36729 15.4479 8.23995 15.354 8.14606L13 5.79306V2.50006C13 2.36745 12.9473 2.24028 12.8536 2.14651C12.7598 2.05274 12.6326 2.00006 12.5 2.00006H11.5C11.3674 2.00006 11.2402 2.05274 11.1465 2.14651C11.0527 2.24028 11 2.36745 11 2.50006V3.79306L8.70702 1.50006Z" fill="currentColor"/>
<path d="M8 3.29297L12.72 8.01297C11.931 8.08683 11.2033 8.46984 10.6958 9.07838C10.1882 9.68692 9.94204 10.4716 10.011 11.261C9.70389 11.4357 9.44855 11.6887 9.27097 11.9941C9.09338 12.2996 8.99989 12.6466 9 13V15H3.5C3.10218 15 2.72064 14.8419 2.43934 14.5606C2.15804 14.2793 2 13.8978 2 13.5V9.29297L8 3.29297V3.29297Z" fill="currentColor"/>
<path fill-rule="evenodd" clip-rule="evenodd" d="M13 9C12.4696 9 11.9609 9.21071 11.5858 9.58579C11.2107 9.96086 11 10.4696 11 11V12C10.7348 12 10.4804 12.1054 10.2929 12.2929C10.1054 12.4804 10 12.7348 10 13V15C10 15.2652 10.1054 15.5196 10.2929 15.7071C10.4804 15.8946 10.7348 16 11 16H15C15.2652 16 15.5196 15.8946 15.7071 15.7071C15.8946 15.5196 16 15.2652 16 15V13C16 12.7348 15.8946 12.4804 15.7071 12.2929C15.5196 12.1054 15.2652 12 15 12V11C15 10.4696 14.7893 9.96086 14.4142 9.58579C14.0391 9.21071 13.5304 9 13 9ZM13 10C12.7348 10 12.4804 10.1054 12.2929 10.2929C12.1054 10.4804 12 10.7348 12 11V12H14V11C14 10.7348 13.8946 10.4804 13.7071 10.2929C13.5196 10.1054 13.2652 10 13 10Z" fill="currentColor"/>
</svg>
