<svg width="16" height="16" viewBox="0 0 16 16" fill="none" xmlns="http://www.w3.org/2000/svg">
<g clip-path="url(#clip0_1419_549)">
<path d="M8.70702 1.50006C8.51949 1.31259 8.26519 1.20728 8.00002 1.20728C7.73486 1.20728 7.48055 1.31259 7.29302 1.50006L0.646021 8.14606C0.599533 8.19255 0.562657 8.24774 0.537498 8.30848C0.512339 8.36922 0.49939 8.43432 0.49939 8.50006C0.49939 8.56581 0.512339 8.63091 0.537498 8.69165C0.562657 8.75239 0.599533 8.80757 0.646021 8.85406C0.739908 8.94795 0.867245 9.00069 1.00002 9.00069C1.06577 9.00069 1.13087 8.98774 1.1916 8.96259C1.25234 8.93743 1.30753 8.90055 1.35402 8.85406L8.00002 2.20706L14.646 8.85406C14.7399 8.94795 14.8672 9.00069 15 9.00069C15.1328 9.00069 15.2601 8.94795 15.354 8.85406C15.4479 8.76018 15.5007 8.63284 15.5007 8.50006C15.5007 8.36729 15.4479 8.23995 15.354 8.14606L13 5.79306V2.50006C13 2.36745 12.9473 2.24028 12.8536 2.14651C12.7598 2.05274 12.6326 2.00006 12.5 2.00006H11.5C11.3674 2.00006 11.2402 2.05274 11.1465 2.14651C11.0527 2.24028 11 2.36745 11 2.50006V3.79306L8.70702 1.50006Z" fill="#1B1B1B"/>
<path d="M8 3.29297L12.712 8.00497C11.88 7.96566 11.0534 8.15805 10.3243 8.5607C9.59514 8.96335 8.99206 9.56047 8.58219 10.2856C8.17232 11.0107 7.97173 11.8353 8.00277 12.6677C8.03381 13.5 8.29526 14.3074 8.758 15H3.5C3.10218 15 2.72064 14.8419 2.43934 14.5606C2.15804 14.2793 2 13.8978 2 13.5V9.29297L8 3.29297V3.29297Z" fill="#1B1B1B"/>
<path fill-rule="evenodd" clip-rule="evenodd" d="M13.8791 10.4141C13.3983 10.0954 12.8221 9.95282 12.2482 10.0104C11.6743 10.068 11.138 10.3223 10.7301 10.7302C10.3223 11.138 10.068 11.6743 10.0104 12.2482C9.9528 12.8221 10.0954 13.3983 10.4141 13.8791L13.8791 10.4141ZM14.5861 11.1211L11.1211 14.5861C11.6019 14.9035 12.1777 15.0451 12.7509 14.9869C13.3241 14.9288 13.8597 14.6746 14.2671 14.2672C14.6746 13.8598 14.9288 13.3242 14.9869 12.7509C15.045 12.1777 14.9034 11.602 14.5861 11.1211V11.1211ZM10.0261 10.0251C10.3499 9.69478 10.736 9.43194 11.162 9.25176C11.5881 9.07159 12.0456 8.97765 12.5082 8.97538C12.9707 8.97312 13.4292 9.06257 13.8569 9.23856C14.2847 9.41455 14.6734 9.6736 15.0004 10.0007C15.3275 10.3278 15.5864 10.7165 15.7624 11.1444C15.9383 11.5722 16.0276 12.0306 16.0253 12.4932C16.0229 12.9558 15.9289 13.4133 15.7486 13.8393C15.5683 14.2653 15.3054 14.6513 14.9751 14.9751C14.3186 15.6315 13.4284 16.0003 12.5001 16.0003C11.5718 16.0003 10.6815 15.6315 10.0251 14.9751C9.36865 14.3187 8.99988 13.4284 8.99988 12.5001C8.99988 11.5718 9.36865 10.6815 10.0251 10.0251H10.0261Z" fill="#1B1B1B"/>
</g>
<defs>
<clipPath id="clip0_1419_549">
<rect width="16" height="16" fill="white"/>
</clipPath>
</defs>
</svg>
