<svg width="16" height="16" viewBox="0 0 16 16" fill="none" xmlns="http://www.w3.org/2000/svg">
<g clip-path="url(#clip0_1419_557)">
<path fill-rule="evenodd" clip-rule="evenodd" d="M5.79302 1.00006C5.98055 0.812591 6.23486 0.707275 6.50002 0.707275C6.76519 0.707275 7.01949 0.812591 7.20702 1.00006L7.85402 1.64606C7.94791 1.73995 8.00065 1.86729 8.00065 2.00006C8.00065 2.13284 7.94791 2.26018 7.85402 2.35406C7.76013 2.44795 7.6328 2.50069 7.50002 2.50069C7.36725 2.50069 7.23991 2.44795 7.14602 2.35406L6.50002 1.70706L2.00002 6.20706V12.5001C2.00002 12.6327 2.0527 12.7598 2.14647 12.8536C2.24024 12.9474 2.36741 13.0001 2.50002 13.0001C2.63263 13.0001 2.75981 13.0527 2.85357 13.1465C2.94734 13.2403 3.00002 13.3675 3.00002 13.5001C3.00002 13.6327 2.94734 13.7598 2.85357 13.8536C2.75981 13.9474 2.63263 14.0001 2.50002 14.0001C2.1022 14.0001 1.72067 13.842 1.43936 13.5607C1.15806 13.2794 1.00002 12.8979 1.00002 12.5001V7.20706L0.854021 7.35406C0.760135 7.44795 0.632797 7.50069 0.500021 7.50069C0.367245 7.50069 0.239908 7.44795 0.146021 7.35406C0.0521346 7.26018 -0.00061035 7.13284 -0.000610352 7.00006C-0.000610354 6.86729 0.0521346 6.73995 0.146021 6.64606L5.79302 1.00006ZM8.79302 2.00006C8.98055 1.81259 9.23486 1.70728 9.50002 1.70728C9.76519 1.70728 10.0195 1.81259 10.207 2.00006L12 3.79306V2.50006C12 2.36745 12.0527 2.24028 12.1465 2.14651C12.2402 2.05274 12.3674 2.00006 12.5 2.00006H13.5C13.6326 2.00006 13.7598 2.05274 13.8536 2.14651C13.9473 2.24028 14 2.36745 14 2.50006V5.79306L15.854 7.64606C15.9479 7.73995 16.0007 7.86729 16.0007 8.00006C16.0007 8.13284 15.9479 8.26018 15.854 8.35406C15.7601 8.44795 15.6328 8.50069 15.5 8.50069C15.3672 8.50069 15.2399 8.44795 15.146 8.35406L15 8.20706V13.5001C15 13.8979 14.842 14.2794 14.5607 14.5607C14.2794 14.842 13.8978 15.0001 13.5 15.0001H5.50002C5.1022 15.0001 4.72067 14.842 4.43936 14.5607C4.15806 14.2794 4.00002 13.8979 4.00002 13.5001V8.20706L3.85402 8.35406C3.80753 8.40055 3.75234 8.43743 3.6916 8.46259C3.63087 8.48774 3.56577 8.50069 3.50002 8.50069C3.43428 8.50069 3.36918 8.48774 3.30844 8.46259C3.2477 8.43743 3.19251 8.40055 3.14602 8.35406C3.09953 8.30757 3.06266 8.25239 3.0375 8.19165C3.01234 8.13091 2.99939 8.06581 2.99939 8.00006C2.99939 7.93432 3.01234 7.86922 3.0375 7.80848C3.06266 7.74774 3.09953 7.69255 3.14602 7.64606L8.79302 2.00006ZM9.50002 2.70706L14 7.20706V13.5001C14 13.6327 13.9473 13.7598 13.8536 13.8536C13.7598 13.9474 13.6326 14.0001 13.5 14.0001H5.50002C5.36741 14.0001 5.24024 13.9474 5.14647 13.8536C5.0527 13.7598 5.00002 13.6327 5.00002 13.5001V7.20706L9.50002 2.70706Z" fill="#1B1B1B"/>
</g>
<defs>
<clipPath id="clip0_1419_557">
<rect width="16" height="16" fill="white"/>
</clipPath>
</defs>
</svg>
