<svg width="16" height="16" viewBox="0 0 16 16" fill="none" xmlns="http://www.w3.org/2000/svg">
<path d="M7.29302 1.50006C7.48055 1.31259 7.73486 1.20728 8.00002 1.20728C8.26519 1.20728 8.51949 1.31259 8.70702 1.50006L11 3.79306V2.50006C11 2.36745 11.0527 2.24028 11.1465 2.14651C11.2402 2.05274 11.3674 2.00006 11.5 2.00006H12.5C12.6326 2.00006 12.7598 2.05274 12.8536 2.14651C12.9473 2.24028 13 2.36745 13 2.50006V5.79306L15.354 8.14606C15.4005 8.19255 15.4374 8.24774 15.4625 8.30848C15.4877 8.36922 15.5007 8.43432 15.5007 8.50006C15.5007 8.56581 15.4877 8.63091 15.4625 8.69165C15.4374 8.75239 15.4005 8.80757 15.354 8.85406C15.3075 8.90055 15.2523 8.93743 15.1916 8.96259C15.1309 8.98774 15.0658 9.00069 15 9.00069C14.9343 9.00069 14.8692 8.98774 14.8084 8.96259C14.7477 8.93743 14.6925 8.90055 14.646 8.85406L8.00002 2.20706L3.00002 7.20706V13.5001C3.00002 13.6327 3.0527 13.7598 3.14647 13.8536C3.24024 13.9474 3.36741 14.0001 3.50002 14.0001H7.50002C7.63263 14.0001 7.75981 14.0527 7.85357 14.1465C7.94734 14.2403 8.00002 14.3675 8.00002 14.5001C8.00002 14.6327 7.94734 14.7598 7.85357 14.8536C7.75981 14.9474 7.63263 15.0001 7.50002 15.0001H3.50002C3.1022 15.0001 2.72067 14.842 2.43936 14.5607C2.15806 14.2794 2.00002 13.8979 2.00002 13.5001V8.20706L1.35402 8.85406C1.30753 8.90055 1.25234 8.93743 1.1916 8.96259C1.13087 8.98774 1.06577 9.00069 1.00002 9.00069C0.934277 9.00069 0.869177 8.98774 0.808438 8.96259C0.747698 8.93743 0.692509 8.90055 0.646021 8.85406C0.599533 8.80757 0.562657 8.75239 0.537498 8.69165C0.512339 8.63091 0.49939 8.56581 0.49939 8.50006C0.49939 8.43432 0.512339 8.36922 0.537498 8.30848C0.562657 8.24774 0.599533 8.19255 0.646021 8.14606L7.29302 1.50006Z" fill="#1B1B1B"/>
<path fill-rule="evenodd" clip-rule="evenodd" d="M12.5 16C13.4283 16 14.3185 15.6313 14.9749 14.9749C15.6313 14.3185 16 13.4283 16 12.5C16 11.5717 15.6313 10.6815 14.9749 10.0251C14.3185 9.36875 13.4283 9 12.5 9C11.5717 9 10.6815 9.36875 10.0251 10.0251C9.36875 10.6815 9 11.5717 9 12.5C9 13.4283 9.36875 14.3185 10.0251 14.9749C10.6815 15.6313 11.5717 16 12.5 16V16ZM11.854 11.146C11.7601 11.0521 11.6328 10.9994 11.5 10.9994C11.3672 10.9994 11.2399 11.0521 11.146 11.146C11.0521 11.2399 10.9994 11.3672 10.9994 11.5C10.9994 11.6328 11.0521 11.7601 11.146 11.854L11.793 12.5L11.146 13.146C11.0521 13.2399 10.9994 13.3672 10.9994 13.5C10.9994 13.6328 11.0521 13.7601 11.146 13.854C11.2399 13.9479 11.3672 14.0006 11.5 14.0006C11.6328 14.0006 11.7601 13.9479 11.854 13.854L12.5 13.207L13.146 13.854C13.2398 13.9479 13.367 14.0007 13.4996 14.0008C13.5653 14.0008 13.6304 13.9879 13.6911 13.9628C13.7518 13.9377 13.807 13.9009 13.8535 13.8545C13.9 13.8081 13.9369 13.753 13.9621 13.6923C13.9872 13.6316 14.0002 13.5666 14.0003 13.5009C14.0003 13.4352 13.9874 13.3701 13.9623 13.3094C13.9372 13.2487 13.9004 13.1935 13.854 13.147L13.207 12.5L13.854 11.854C13.9478 11.7601 14.0004 11.6328 14.0003 11.5001C14.0002 11.3675 13.9474 11.2403 13.8535 11.1465C13.807 11.1001 13.7518 11.0633 13.6911 11.0382C13.6304 11.0131 13.5653 11.0002 13.4996 11.0002C13.367 11.0003 13.2398 11.0531 13.146 11.147L12.5 11.793L11.854 11.147V11.146Z" fill="#1B1B1B"/>
</svg>
