<svg width="16" height="16" viewBox="0 0 16 16" fill="none" xmlns="http://www.w3.org/2000/svg">
<g clip-path="url(#clip0_1419_556)">
<path d="M7.20702 1.00006C7.01949 0.812591 6.76519 0.707275 6.50002 0.707275C6.23486 0.707275 5.98055 0.812591 5.79302 1.00006L0.146021 6.64606C0.0521346 6.73995 -0.000610354 6.86729 -0.000610352 7.00006C-0.00061035 7.13284 0.0521346 7.26018 0.146021 7.35406C0.239908 7.44795 0.367245 7.50069 0.500021 7.50069C0.632797 7.50069 0.760135 7.44795 0.854021 7.35406L1.00002 7.20706V12.5001C1.00002 12.8979 1.15806 13.2794 1.43936 13.5607C1.72067 13.842 2.1022 14.0001 2.50002 14.0001H3.05002C3.01667 13.8355 2.99992 13.668 3.00002 13.5001V9.41506C2.76115 9.33053 2.54759 9.18687 2.37926 8.99748C2.21093 8.8081 2.09332 8.57915 2.0374 8.33201C1.98148 8.08488 1.98908 7.8276 2.05948 7.5842C2.12989 7.34079 2.26081 7.11919 2.44002 6.94006L7.79302 1.58606L7.20702 1.00006Z" fill="currentColor"/>
<path d="M8.79302 2.00006C8.98055 1.81259 9.23486 1.70728 9.50002 1.70728C9.76519 1.70728 10.0195 1.81259 10.207 2.00006L12 3.79306V2.50006C12 2.36745 12.0527 2.24028 12.1465 2.14651C12.2402 2.05274 12.3674 2.00006 12.5 2.00006H13.5C13.6326 2.00006 13.7598 2.05274 13.8536 2.14651C13.9473 2.24028 14 2.36745 14 2.50006V5.79306L15.854 7.64606C15.9479 7.73995 16.0007 7.86729 16.0007 8.00006C16.0007 8.13284 15.9479 8.26018 15.854 8.35406C15.7601 8.44795 15.6328 8.50069 15.5 8.50069C15.3672 8.50069 15.2399 8.44795 15.146 8.35406L15 8.20706V13.5001C15 13.8979 14.842 14.2794 14.5607 14.5607C14.2794 14.842 13.8978 15.0001 13.5 15.0001H5.50002C5.1022 15.0001 4.72067 14.842 4.43936 14.5607C4.15806 14.2794 4.00002 13.8979 4.00002 13.5001V8.20706L3.85402 8.35406C3.80753 8.40055 3.75234 8.43743 3.6916 8.46259C3.63087 8.48774 3.56577 8.50069 3.50002 8.50069C3.43428 8.50069 3.36918 8.48774 3.30844 8.46259C3.2477 8.43743 3.19251 8.40055 3.14602 8.35406C3.09953 8.30757 3.06266 8.25239 3.0375 8.19165C3.01234 8.13091 2.99939 8.06581 2.99939 8.00006C2.99939 7.93432 3.01234 7.86922 3.0375 7.80848C3.06266 7.74774 3.09953 7.69255 3.14602 7.64606L8.79302 2.00006Z" fill="currentColor"/>
</g>
<defs>
<clipPath id="clip0_1419_556">
<rect width="16" height="16" fill="white"/>
</clipPath>
</defs>
</svg>
