<svg width="16" height="16" viewBox="0 0 16 16" fill="none" xmlns="http://www.w3.org/2000/svg">
<path d="M7.29302 1.50006C7.48055 1.31259 7.73486 1.20728 8.00002 1.20728C8.26519 1.20728 8.51949 1.31259 8.70702 1.50006L11 3.79306V2.50006C11 2.36745 11.0527 2.24028 11.1465 2.14651C11.2402 2.05274 11.3674 2.00006 11.5 2.00006H12.5C12.6326 2.00006 12.7598 2.05274 12.8536 2.14651C12.9473 2.24028 13 2.36745 13 2.50006V5.79306L15.354 8.14606C15.4005 8.19255 15.4374 8.24774 15.4625 8.30848C15.4877 8.36922 15.5007 8.43432 15.5007 8.50006C15.5007 8.56581 15.4877 8.63091 15.4625 8.69165C15.4374 8.75239 15.4005 8.80757 15.354 8.85406C15.3075 8.90055 15.2523 8.93743 15.1916 8.96259C15.1309 8.98774 15.0658 9.00069 15 9.00069C14.9343 9.00069 14.8692 8.98774 14.8084 8.96259C14.7477 8.93743 14.6925 8.90055 14.646 8.85406L8.00002 2.20706L3.00002 7.20706V13.5001C3.00002 13.6327 3.0527 13.7598 3.14647 13.8536C3.24024 13.9474 3.36741 14.0001 3.50002 14.0001H7.50002C7.63263 14.0001 7.75981 14.0527 7.85357 14.1465C7.94734 14.2403 8.00002 14.3675 8.00002 14.5001C8.00002 14.6327 7.94734 14.7598 7.85357 14.8536C7.75981 14.9474 7.63263 15.0001 7.50002 15.0001H3.50002C3.1022 15.0001 2.72067 14.842 2.43936 14.5607C2.15806 14.2794 2.00002 13.8979 2.00002 13.5001V8.20706L1.35402 8.85406C1.30753 8.90055 1.25234 8.93743 1.1916 8.96259C1.13087 8.98774 1.06577 9.00069 1.00002 9.00069C0.934277 9.00069 0.869177 8.98774 0.808438 8.96259C0.747698 8.93743 0.692509 8.90055 0.646021 8.85406C0.599533 8.80757 0.562657 8.75239 0.537498 8.69165C0.512339 8.63091 0.49939 8.56581 0.49939 8.50006C0.49939 8.43432 0.512339 8.36922 0.537498 8.30848C0.562657 8.24774 0.599533 8.19255 0.646021 8.14606L7.29302 1.50006Z" fill="currentColor"/>
<path d="M10 13C10 12.7348 10.1054 12.4804 10.2929 12.2929C10.4804 12.1054 10.7348 12 11 12H15C15.2652 12 15.5196 12.1054 15.7071 12.2929C15.8946 12.4804 16 12.7348 16 13V15C16 15.2652 15.8946 15.5196 15.7071 15.7071C15.5196 15.8946 15.2652 16 15 16H11C10.7348 16 10.4804 15.8946 10.2929 15.7071C10.1054 15.5196 10 15.2652 10 15V13Z" fill="currentColor"/>
<path fill-rule="evenodd" clip-rule="evenodd" d="M13 10C12.7348 10 12.4804 10.1054 12.2929 10.2929C12.1054 10.4804 12 10.7348 12 11V12.5C12 12.6326 11.9473 12.7598 11.8536 12.8536C11.7598 12.9473 11.6326 13 11.5 13C11.3674 13 11.2402 12.9473 11.1464 12.8536C11.0527 12.7598 11 12.6326 11 12.5V11C11 10.4696 11.2107 9.96086 11.5858 9.58579C11.9609 9.21071 12.4696 9 13 9C13.5304 9 14.0391 9.21071 14.4142 9.58579C14.7893 9.96086 15 10.4696 15 11V12.5C15 12.6326 14.9473 12.7598 14.8536 12.8536C14.7598 12.9473 14.6326 13 14.5 13C14.3674 13 14.2402 12.9473 14.1464 12.8536C14.0527 12.7598 14 12.6326 14 12.5V11C14 10.7348 13.8946 10.4804 13.7071 10.2929C13.5196 10.1054 13.2652 10 13 10Z" fill="currentColor"/>
</svg>
