<svg width="16" height="16" viewBox="0 0 16 16" fill="none" xmlns="http://www.w3.org/2000/svg">
<path fill-rule="evenodd" clip-rule="evenodd" d="M12.5 16C13.4283 16 14.3185 15.6313 14.9749 14.9749C15.6313 14.3185 16 13.4283 16 12.5C16 11.5717 15.6313 10.6815 14.9749 10.0251C14.3185 9.36875 13.4283 9 12.5 9C11.5717 9 10.6815 9.36875 10.0251 10.0251C9.36875 10.6815 9 11.5717 9 12.5C9 13.4283 9.36875 14.3185 10.0251 14.9749C10.6815 15.6313 11.5717 16 12.5 16V16ZM11 12C10.8674 12 10.7402 12.0527 10.6464 12.1464C10.5527 12.2402 10.5 12.3674 10.5 12.5C10.5 12.6326 10.5527 12.7598 10.6464 12.8536C10.7402 12.9473 10.8674 13 11 13H14C14.1326 13 14.2598 12.9473 14.3536 12.8536C14.4473 12.7598 14.5 12.6326 14.5 12.5C14.5 12.3674 14.4473 12.2402 14.3536 12.1464C14.2598 12.0527 14.1326 12 14 12H11Z" fill="#1B1B1B"/>
<path d="M7.29302 1.50006C7.48055 1.31259 7.73486 1.20728 8.00002 1.20728C8.26519 1.20728 8.51949 1.31259 8.70702 1.50006L11 3.79306V2.50006C11 2.36745 11.0527 2.24028 11.1465 2.14651C11.2402 2.05274 11.3674 2.00006 11.5 2.00006H12.5C12.6326 2.00006 12.7598 2.05274 12.8536 2.14651C12.9473 2.24028 13 2.36745 13 2.50006V5.79306L15.354 8.14606C15.4005 8.19255 15.4374 8.24774 15.4625 8.30848C15.4877 8.36922 15.5007 8.43432 15.5007 8.50006C15.5007 8.56581 15.4877 8.63091 15.4625 8.69165C15.4374 8.75239 15.4005 8.80757 15.354 8.85406C15.3075 8.90055 15.2523 8.93743 15.1916 8.96259C15.1309 8.98774 15.0658 9.00069 15 9.00069C14.9343 9.00069 14.8692 8.98774 14.8084 8.96259C14.7477 8.93743 14.6925 8.90055 14.646 8.85406L8.00002 2.20706L3.00002 7.20706V13.5001C3.00002 13.6327 3.0527 13.7598 3.14647 13.8536C3.24024 13.9474 3.36741 14.0001 3.50002 14.0001H7.50002C7.63263 14.0001 7.75981 14.0527 7.85357 14.1465C7.94734 14.2403 8.00002 14.3675 8.00002 14.5001C8.00002 14.6327 7.94734 14.7598 7.85357 14.8536C7.75981 14.9474 7.63263 15.0001 7.50002 15.0001H3.50002C3.1022 15.0001 2.72067 14.842 2.43936 14.5607C2.15806 14.2794 2.00002 13.8979 2.00002 13.5001V8.20706L1.35402 8.85406C1.30753 8.90055 1.25234 8.93743 1.1916 8.96259C1.13087 8.98774 1.06577 9.00069 1.00002 9.00069C0.934277 9.00069 0.869177 8.98774 0.808438 8.96259C0.747698 8.93743 0.692509 8.90055 0.646021 8.85406C0.599533 8.80757 0.562657 8.75239 0.537498 8.69165C0.512339 8.63091 0.49939 8.56581 0.49939 8.50006C0.49939 8.43432 0.512339 8.36922 0.537498 8.30848C0.562657 8.24774 0.599533 8.19255 0.646021 8.14606L7.29302 1.50006Z" fill="#1B1B1B"/>
</svg>
