<svg width="16" height="16" viewBox="0 0 16 16" fill="none" xmlns="http://www.w3.org/2000/svg">
<g clip-path="url(#clip0_1419_2135)">
<path d="M4.50201 9C4.89984 9 5.28137 8.84196 5.56267 8.56066C5.84398 8.27936 6.00201 7.89782 6.00201 7.5C6.00201 7.10218 5.84398 6.72064 5.56267 6.43934C5.28137 6.15804 4.89984 6 4.50201 6C4.10419 6 3.72266 6.15804 3.44135 6.43934C3.16005 6.72064 3.00201 7.10218 3.00201 7.5C3.00201 7.89782 3.16005 8.27936 3.44135 8.56066C3.72266 8.84196 4.10419 9 4.50201 9V9Z" fill="currentColor"/>
<path d="M14.002 13C14.002 13.5304 13.7913 14.0391 13.4162 14.4142C13.0412 14.7893 12.5324 15 12.002 15H2.00201C1.47158 15 0.962873 14.7893 0.587801 14.4142C0.212728 14.0391 0.00201416 13.5304 0.00201416 13V5C0.0020139 4.46991 0.212453 3.96151 0.587093 3.58649C0.961734 3.21148 1.46993 3.00053 2.00001 3C2.00001 2.46957 2.21073 1.96086 2.5858 1.58579C2.96087 1.21071 3.46958 1 4.00001 1H14C14.5304 1 15.0392 1.21071 15.4142 1.58579C15.7893 1.96086 16 2.46957 16 3V11C16 11.5301 15.7896 12.0385 15.4149 12.4135C15.0403 12.7885 14.5321 12.9995 14.002 13ZM14 2H4.00001C3.7348 2 3.48044 2.10536 3.29291 2.29289C3.10537 2.48043 3.00001 2.73478 3.00001 3H12.002C12.5324 3 13.0412 3.21071 13.4162 3.58579C13.7913 3.96086 14.002 4.46957 14.002 5V12C14.2669 11.9995 14.5207 11.8939 14.7078 11.7064C14.8949 11.5189 15 11.2649 15 11V3C15 2.73478 14.8947 2.48043 14.7071 2.29289C14.5196 2.10536 14.2652 2 14 2V2ZM2.00201 4C1.7368 4 1.48244 4.10536 1.29491 4.29289C1.10737 4.48043 1.00201 4.73478 1.00201 5V13L3.64801 10.646C3.72975 10.5646 3.83713 10.5139 3.95195 10.5026C4.06678 10.4913 4.18197 10.5201 4.27801 10.584L6.93801 12.357L10.648 8.647C10.7222 8.57277 10.8178 8.52376 10.9213 8.50689C11.0249 8.49002 11.1311 8.50615 11.225 8.553L13.002 10.5V5C13.002 4.73478 12.8967 4.48043 12.7091 4.29289C12.5216 4.10536 12.2672 4 12.002 4H2.00201V4Z" fill="currentColor"/>
</g>
<defs>
<clipPath id="clip0_1419_2135">
<rect width="16" height="16" fill="white"/>
</clipPath>
</defs>
</svg>
