<svg width="16" height="16" viewBox="0 0 16 16" fill="none" xmlns="http://www.w3.org/2000/svg">
<g clip-path="url(#clip0_1419_2133)">
<path d="M0.00201416 3C0.00201416 2.46957 0.212728 1.96086 0.587801 1.58579C0.962873 1.21071 1.47158 1 2.00201 1H14.002C14.5324 1 15.0412 1.21071 15.4162 1.58579C15.7913 1.96086 16.002 2.46957 16.002 3V13C16.002 13.5304 15.7913 14.0391 15.4162 14.4142C15.0412 14.7893 14.5324 15 14.002 15H2.00201C1.47158 15 0.962873 14.7893 0.587801 14.4142C0.212728 14.0391 0.00201416 13.5304 0.00201416 13V3V3ZM1.00201 12V13C1.00201 13.2652 1.10737 13.5196 1.29491 13.7071C1.48244 13.8946 1.7368 14 2.00201 14H14.002C14.2672 14 14.5216 13.8946 14.7091 13.7071C14.8967 13.5196 15.002 13.2652 15.002 13V9.5L11.225 7.553C11.1312 7.50602 11.0251 7.48973 10.9215 7.50642C10.818 7.52311 10.7223 7.57194 10.648 7.646L6.93801 11.356L4.27801 9.584C4.18197 9.52006 4.06678 9.4913 3.95195 9.5026C3.83713 9.5139 3.72975 9.56456 3.64801 9.646L1.00201 12ZM6.00201 5.5C6.00201 5.10218 5.84398 4.72064 5.56267 4.43934C5.28137 4.15804 4.89984 4 4.50201 4C4.10419 4 3.72266 4.15804 3.44135 4.43934C3.16005 4.72064 3.00201 5.10218 3.00201 5.5C3.00201 5.89782 3.16005 6.27936 3.44135 6.56066C3.72266 6.84196 4.10419 7 4.50201 7C4.89984 7 5.28137 6.84196 5.56267 6.56066C5.84398 6.27936 6.00201 5.89782 6.00201 5.5Z" fill="currentColor"/>
</g>
<defs>
<clipPath id="clip0_1419_2133">
<rect width="16" height="16" fill="white"/>
</clipPath>
</defs>
</svg>
