<svg width="16" height="16" viewBox="0 0 16 16" fill="none" xmlns="http://www.w3.org/2000/svg">
<g clip-path="url(#clip0_1419_2132)">
<path d="M7.00001 2.5C7.00001 3.16304 6.73662 3.79893 6.26778 4.26777C5.79894 4.73661 5.16306 5 4.50001 5C3.83697 5 3.20109 4.73661 2.73225 4.26777C2.26341 3.79893 2.00001 3.16304 2.00001 2.5C2.00001 1.83696 2.26341 1.20107 2.73225 0.732233C3.20109 0.263392 3.83697 0 4.50001 0C5.16306 0 5.79894 0.263392 6.26778 0.732233C6.73662 1.20107 7.00001 1.83696 7.00001 2.5V2.5ZM11.225 6.553C11.1312 6.50602 11.0251 6.48973 10.9215 6.50642C10.818 6.52311 10.7223 6.57194 10.648 6.646L6.93801 11.356L4.27801 8.584C4.18197 8.52006 4.06678 8.4913 3.95195 8.5026C3.83713 8.5139 3.72975 8.56456 3.64801 8.646L0.00201416 13V15C0.00201416 15.2652 0.107371 15.5196 0.294907 15.7071C0.482444 15.8946 0.736798 16 1.00201 16H15.002C15.1333 16 15.2634 15.9741 15.3847 15.9239C15.506 15.8736 15.6163 15.8 15.7091 15.7071C15.802 15.6142 15.8756 15.504 15.9259 15.3827C15.9761 15.2614 16.002 15.1313 16.002 15V10.5L11.225 6.553V6.553Z" fill="currentColor"/>
</g>
<defs>
<clipPath id="clip0_1419_2132">
<rect width="16" height="16" fill="white"/>
</clipPath>
</defs>
</svg>
