<svg width="16" height="16" viewBox="0 0 16 16" fill="none" xmlns="http://www.w3.org/2000/svg">
<path d="M4.98003 4C4.90509 4.00011 4.83113 4.01706 4.76362 4.0496C4.69612 4.08214 4.63679 4.12944 4.59003 4.188L1.54003 8H6.00003C6.13263 8 6.25981 8.05268 6.35358 8.14645C6.44735 8.24021 6.50003 8.36739 6.50003 8.5C6.50003 8.89782 6.65806 9.27936 6.93937 9.56066C7.22067 9.84196 7.6022 10 8.00003 10C8.39785 10 8.77938 9.84196 9.06069 9.56066C9.34199 9.27936 9.50003 8.89782 9.50003 8.5C9.50003 8.36739 9.5527 8.24021 9.64647 8.14645C9.74024 8.05268 9.86742 8 10 8H14.46L11.41 4.188C11.3633 4.12944 11.3039 4.08214 11.2364 4.0496C11.1689 4.01706 11.095 4.00011 11.02 4H4.98003ZM14.934 9H10.45C10.3353 9.56514 10.0287 10.0732 9.58216 10.4382C9.13565 10.8031 8.5767 11.0025 8.00003 11.0025C7.42335 11.0025 6.8644 10.8031 6.4179 10.4382C5.97139 10.0732 5.66478 9.56514 5.55003 9H1.06603L1.38603 11.562C1.40116 11.6831 1.46004 11.7944 1.55158 11.8751C1.64312 11.9558 1.76101 12.0002 1.88303 12H14.117C14.2389 12 14.3565 11.9554 14.4478 11.8748C14.5392 11.7941 14.5979 11.6829 14.613 11.562L14.933 9H14.934ZM3.80903 3.563C3.94962 3.38724 4.12797 3.24537 4.33085 3.14791C4.53374 3.05045 4.75595 2.9999 4.98103 3H11.019C11.2441 2.9999 11.4663 3.05045 11.6692 3.14791C11.8721 3.24537 12.0504 3.38724 12.191 3.563L15.891 8.188C15.9326 8.24018 15.9633 8.30016 15.9813 8.36439C15.9994 8.42862 16.0044 8.49581 15.996 8.562L15.606 11.686C15.5607 12.0489 15.3843 12.3827 15.1101 12.6247C14.8359 12.8667 14.4827 13.0001 14.117 13H1.88303C1.51731 13.0001 1.16415 12.8667 0.889942 12.6247C0.615734 12.3827 0.439374 12.0489 0.394026 11.686L0.00402623 8.562C-0.00417002 8.49574 0.000986652 8.42851 0.0191921 8.36428C0.0373974 8.30004 0.0682828 8.2401 0.110026 8.188L3.81003 3.563H3.80903Z" fill="#1B1B1B"/>
</svg>
