<svg width="16" height="16" viewBox="0 0 16 16" fill="none" xmlns="http://www.w3.org/2000/svg">
<path d="M4.98003 4C4.90509 4.00011 4.83113 4.01706 4.76362 4.0496C4.69612 4.08214 4.63679 4.12944 4.59003 4.188L1.54003 8H6.00003C6.13263 8 6.25981 8.05268 6.35358 8.14645C6.44735 8.24021 6.50003 8.36739 6.50003 8.5C6.50003 8.89782 6.65806 9.27936 6.93937 9.56066C7.22067 9.84196 7.6022 10 8.00003 10C8.39785 10 8.77938 9.84196 9.06069 9.56066C9.34199 9.27936 9.50003 8.89782 9.50003 8.5C9.50003 8.36739 9.5527 8.24021 9.64647 8.14645C9.74024 8.05268 9.86742 8 10 8H14.46L11.41 4.188C11.3633 4.12944 11.3039 4.08214 11.2364 4.0496C11.1689 4.01706 11.095 4.00011 11.02 4H4.98003ZM3.81003 3.563C3.95041 3.3875 4.12844 3.24579 4.33095 3.14835C4.53347 3.0509 4.75529 3.0002 4.98003 3H11.02C11.2448 3.0002 11.4666 3.0509 11.6691 3.14835C11.8716 3.24579 12.0496 3.3875 12.19 3.563L15.89 8.188C15.9318 8.2401 15.9627 8.30004 15.9809 8.36428C15.9991 8.42851 16.0042 8.49574 15.996 8.562L15.606 11.686C15.5607 12.0489 15.3843 12.3827 15.1101 12.6247C14.8359 12.8667 14.4827 13.0001 14.117 13H1.88303C1.51731 13.0001 1.16415 12.8667 0.889942 12.6247C0.615734 12.3827 0.439374 12.0489 0.394026 11.686L0.00402623 8.562C-0.00417002 8.49574 0.000986652 8.42851 0.0191921 8.36428C0.0373974 8.30004 0.0682828 8.2401 0.110026 8.188L3.81003 3.563V3.563Z" fill="#1B1B1B"/>
</svg>
