<svg width="16" height="16" viewBox="0 0 16 16" fill="none" xmlns="http://www.w3.org/2000/svg">
<path fill-rule="evenodd" clip-rule="evenodd" d="M3 8.00014C3 7.86754 3.05268 7.74036 3.14645 7.64659C3.24021 7.55282 3.36739 7.50014 3.5 7.50014H10.293L8.146 5.35414C8.05211 5.26026 7.99937 5.13292 7.99937 5.00014C7.99937 4.86737 8.05211 4.74003 8.146 4.64614C8.23989 4.55226 8.36722 4.49951 8.5 4.49951C8.63278 4.49951 8.76011 4.55226 8.854 4.64614L11.854 7.64614C11.9006 7.69259 11.9375 7.74776 11.9627 7.80851C11.9879 7.86925 12.0009 7.93438 12.0009 8.00014C12.0009 8.06591 11.9879 8.13103 11.9627 8.19178C11.9375 8.25252 11.9006 8.3077 11.854 8.35414L8.854 11.3541C8.76011 11.448 8.63278 11.5008 8.5 11.5008C8.36722 11.5008 8.23989 11.448 8.146 11.3541C8.05211 11.2603 7.99937 11.1329 7.99937 11.0001C7.99937 10.8674 8.05211 10.74 8.146 10.6461L10.293 8.50014H3.5C3.36739 8.50014 3.24021 8.44747 3.14645 8.3537C3.05268 8.25993 3 8.13275 3 8.00014Z" fill="currentColor"/>
<path fill-rule="evenodd" clip-rule="evenodd" d="M12.5 4C12.6326 4 12.7598 4.05268 12.8536 4.14645C12.9473 4.24021 13 4.36739 13 4.5V11.5C13 11.6326 12.9473 11.7598 12.8536 11.8536C12.7598 11.9473 12.6326 12 12.5 12C12.3674 12 12.2402 11.9473 12.1464 11.8536C12.0527 11.7598 12 11.6326 12 11.5V4.5C12 4.36739 12.0527 4.24021 12.1464 4.14645C12.2402 4.05268 12.3674 4 12.5 4Z" fill="currentColor"/>
</svg>
