<svg width="16" height="16" viewBox="0 0 16 16" fill="none" xmlns="http://www.w3.org/2000/svg">
<path d="M5.68 5.792L7.345 7.75L5.681 9.708C5.29491 10.0888 4.80485 10.3469 4.27245 10.4499C3.74006 10.5529 3.18909 10.4963 2.68881 10.287C2.18854 10.0777 1.76131 9.72525 1.46082 9.27385C1.16033 8.82244 1.00001 8.29227 1.00001 7.75C1.00001 7.20773 1.16033 6.67756 1.46082 6.22616C1.76131 5.77475 2.18854 5.42226 2.68881 5.213C3.18909 5.00375 3.74006 4.94706 4.27245 5.05008C4.80485 5.15311 5.29491 5.41123 5.681 5.792H5.68ZM8 6.978L6.416 5.113L6.402 5.098C5.87752 4.57365 5.20933 4.2166 4.48193 4.07198C3.75453 3.92737 3.00058 4.00169 2.31541 4.28555C1.63025 4.56941 1.04463 5.05005 0.632622 5.66672C0.220611 6.28338 0.000701904 7.00836 0.000701904 7.75C0.000701904 8.49164 0.220611 9.21662 0.632622 9.83329C1.04463 10.45 1.63025 10.9306 2.31541 11.2145C3.00058 11.4983 3.75453 11.5726 4.48193 11.428C5.20933 11.2834 5.87752 10.9264 6.402 10.402L6.416 10.387L8 8.522L9.584 10.387L9.598 10.402C10.1225 10.9264 10.7907 11.2834 11.5181 11.428C12.2455 11.5726 12.9994 11.4983 13.6846 11.2145C14.3698 10.9306 14.9554 10.45 15.3674 9.83329C15.7794 9.21662 15.9993 8.49164 15.9993 7.75C15.9993 7.00836 15.7794 6.28338 15.3674 5.66672C14.9554 5.05005 14.3698 4.56941 13.6846 4.28555C12.9994 4.00169 12.2455 3.92737 11.5181 4.07198C10.7907 4.2166 10.1225 4.57365 9.598 5.098L9.584 5.113L8 6.978ZM8.656 7.75L10.319 5.792C10.7051 5.41123 11.1952 5.15311 11.7276 5.05008C12.2599 4.94706 12.8109 5.00375 13.3112 5.213C13.8115 5.42226 14.2387 5.77475 14.5392 6.22616C14.8397 6.67756 15 7.20773 15 7.75C15 8.29227 14.8397 8.82244 14.5392 9.27385C14.2387 9.72525 13.8115 10.0777 13.3112 10.287C12.8109 10.4963 12.2599 10.5529 11.7276 10.4499C11.1952 10.3469 10.7051 10.0888 10.319 9.708L8.656 7.75Z" fill="currentColor"/>
</svg>
