<svg width="16" height="16" viewBox="0 0 16 16" fill="none" xmlns="http://www.w3.org/2000/svg">
<path fill-rule="evenodd" clip-rule="evenodd" d="M8.64592 5.64592C8.69236 5.59935 8.74754 5.56241 8.80828 5.5372C8.86903 5.512 8.93415 5.49902 8.99992 5.49902C9.06568 5.49902 9.13081 5.512 9.19155 5.5372C9.2523 5.56241 9.30747 5.59935 9.35392 5.64592L11.3539 7.64592C11.4005 7.69236 11.4374 7.74754 11.4626 7.80828C11.4878 7.86903 11.5008 7.93415 11.5008 7.99992C11.5008 8.06568 11.4878 8.13081 11.4626 8.19155C11.4374 8.2523 11.4005 8.30747 11.3539 8.35392L9.35392 10.3539C9.26003 10.4478 9.13269 10.5005 8.99992 10.5005C8.86714 10.5005 8.7398 10.4478 8.64592 10.3539C8.55203 10.26 8.49929 10.1327 8.49929 9.99992C8.49929 9.86714 8.55203 9.7398 8.64592 9.64592L10.2929 7.99992L8.64592 6.35392C8.59935 6.30747 8.56241 6.2523 8.5372 6.19155C8.512 6.13081 8.49902 6.06568 8.49902 5.99992C8.49902 5.93415 8.512 5.86903 8.5372 5.80828C8.56241 5.74754 8.59935 5.69236 8.64592 5.64592ZM7.35392 5.64592C7.30747 5.59935 7.2523 5.56241 7.19155 5.5372C7.13081 5.512 7.06568 5.49902 6.99992 5.49902C6.93415 5.49902 6.86903 5.512 6.80828 5.5372C6.74754 5.56241 6.69236 5.59935 6.64592 5.64592L4.64592 7.64592C4.59935 7.69236 4.56241 7.74754 4.5372 7.80828C4.512 7.86903 4.49902 7.93415 4.49902 7.99992C4.49902 8.06568 4.512 8.13081 4.5372 8.19155C4.56241 8.2523 4.59935 8.30747 4.64592 8.35392L6.64592 10.3539C6.7398 10.4478 6.86714 10.5005 6.99992 10.5005C7.13269 10.5005 7.26003 10.4478 7.35392 10.3539C7.4478 10.26 7.50055 10.1327 7.50055 9.99992C7.50055 9.86714 7.4478 9.7398 7.35392 9.64592L5.70692 7.99992L7.35392 6.35392C7.40048 6.30747 7.43742 6.2523 7.46263 6.19155C7.48784 6.13081 7.50081 6.06568 7.50081 5.99992C7.50081 5.93415 7.48784 5.86903 7.46263 5.80828C7.43742 5.74754 7.40048 5.69236 7.35392 5.64592V5.64592Z" fill="currentColor"/>
<path d="M3 0H13C13.5304 0 14.0391 0.210714 14.4142 0.585786C14.7893 0.960859 15 1.46957 15 2V14C15 14.5304 14.7893 15.0391 14.4142 15.4142C14.0391 15.7893 13.5304 16 13 16H3C2.46957 16 1.96086 15.7893 1.58579 15.4142C1.21071 15.0391 1 14.5304 1 14V13H2V14C2 14.2652 2.10536 14.5196 2.29289 14.7071C2.48043 14.8946 2.73478 15 3 15H13C13.2652 15 13.5196 14.8946 13.7071 14.7071C13.8946 14.5196 14 14.2652 14 14V2C14 1.73478 13.8946 1.48043 13.7071 1.29289C13.5196 1.10536 13.2652 1 13 1H3C2.73478 1 2.48043 1.10536 2.29289 1.29289C2.10536 1.48043 2 1.73478 2 2V3H1V2C1 1.46957 1.21071 0.960859 1.58579 0.585786C1.96086 0.210714 2.46957 0 3 0V0Z" fill="currentColor"/>
<path d="M1 5V4.5C1 4.36739 1.05268 4.24021 1.14645 4.14645C1.24021 4.05268 1.36739 4 1.5 4C1.63261 4 1.75979 4.05268 1.85355 4.14645C1.94732 4.24021 2 4.36739 2 4.5V5H2.5C2.63261 5 2.75979 5.05268 2.85355 5.14645C2.94732 5.24021 3 5.36739 3 5.5C3 5.63261 2.94732 5.75979 2.85355 5.85355C2.75979 5.94732 2.63261 6 2.5 6H0.5C0.367392 6 0.240215 5.94732 0.146447 5.85355C0.0526784 5.75979 0 5.63261 0 5.5C0 5.36739 0.0526784 5.24021 0.146447 5.14645C0.240215 5.05268 0.367392 5 0.5 5H1ZM1 8V7.5C1 7.36739 1.05268 7.24021 1.14645 7.14645C1.24021 7.05268 1.36739 7 1.5 7C1.63261 7 1.75979 7.05268 1.85355 7.14645C1.94732 7.24021 2 7.36739 2 7.5V8H2.5C2.63261 8 2.75979 8.05268 2.85355 8.14645C2.94732 8.24021 3 8.36739 3 8.5C3 8.63261 2.94732 8.75979 2.85355 8.85355C2.75979 8.94732 2.63261 9 2.5 9H0.5C0.367392 9 0.240215 8.94732 0.146447 8.85355C0.0526784 8.75979 0 8.63261 0 8.5C0 8.36739 0.0526784 8.24021 0.146447 8.14645C0.240215 8.05268 0.367392 8 0.5 8H1ZM1 11V10.5C1 10.3674 1.05268 10.2402 1.14645 10.1464C1.24021 10.0527 1.36739 10 1.5 10C1.63261 10 1.75979 10.0527 1.85355 10.1464C1.94732 10.2402 2 10.3674 2 10.5V11H2.5C2.63261 11 2.75979 11.0527 2.85355 11.1464C2.94732 11.2402 3 11.3674 3 11.5C3 11.6326 2.94732 11.7598 2.85355 11.8536C2.75979 11.9473 2.63261 12 2.5 12H0.5C0.367392 12 0.240215 11.9473 0.146447 11.8536C0.0526784 11.7598 0 11.6326 0 11.5C0 11.3674 0.0526784 11.2402 0.146447 11.1464C0.240215 11.0527 0.367392 11 0.5 11H1Z" fill="currentColor"/>
</svg>
