<svg width="16" height="16" viewBox="0 0 16 16" fill="none" xmlns="http://www.w3.org/2000/svg">
<g clip-path="url(#clip0_1419_2064)">
<path d="M10 1.99998C10.0001 2.44346 9.85282 2.8744 9.58129 3.22503C9.30976 3.57567 8.9294 3.82611 8.5 3.93698V9.02398C9.363 9.10698 10 9.40098 10 9.74998C10 10.164 9.105 10.5 8 10.5C6.895 10.5 6 10.164 6 9.74998C6 9.39998 6.637 9.10698 7.5 9.02398V3.93698C7.13783 3.84347 6.80914 3.65027 6.55127 3.37932C6.2934 3.10838 6.11667 2.77055 6.04117 2.4042C5.96567 2.03785 5.99441 1.65768 6.12414 1.30685C6.25386 0.956018 6.47937 0.648599 6.77505 0.419506C7.07073 0.190413 7.42473 0.0488289 7.79684 0.0108341C8.16896 -0.0271606 8.54426 0.0399571 8.88014 0.204564C9.21602 0.369171 9.49901 0.62467 9.69696 0.942041C9.89492 1.25941 9.99991 1.62594 10 1.99998V1.99998Z" fill="#1B1B1B"/>
<path d="M1.513e-10 9.66509V11.3821C9.91488e-05 11.5677 0.0518831 11.7497 0.149552 11.9076C0.247222 12.0655 0.386919 12.1931 0.553 12.2761L7.106 15.5531C7.3836 15.6918 7.68967 15.764 8 15.764C8.31033 15.764 8.6164 15.6918 8.894 15.5531L15.447 12.2761C15.6131 12.1931 15.7528 12.0655 15.8504 11.9076C15.9481 11.7497 15.9999 11.5677 16 11.3821V9.66509C16 9.56509 15.94 9.47509 15.848 9.43509L9.5 6.71509V7.70809L14.727 9.88609C14.7496 9.89559 14.7689 9.91153 14.7825 9.93192C14.7961 9.95231 14.8034 9.97625 14.8035 10.0008C14.8036 10.0253 14.7965 10.0493 14.7831 10.0698C14.7697 10.0903 14.7505 10.1064 14.728 10.1161L8.788 12.6621C8.539 12.7688 8.27091 12.8239 8 12.8239C7.72909 12.8239 7.461 12.7688 7.212 12.6621L1.272 10.1161C1.24949 10.1064 1.23033 10.0903 1.21691 10.0698C1.20348 10.0493 1.19638 10.0253 1.19649 10.0008C1.19659 9.97625 1.2039 9.95231 1.21751 9.93192C1.23111 9.91153 1.25041 9.89559 1.273 9.88609L6.5 7.70809L6.487 6.72009L0.152 9.43509C0.106906 9.4543 0.0684562 9.48635 0.0414311 9.52724C0.0144059 9.56814 -1.70479e-06 9.61607 1.513e-10 9.66509H1.513e-10Z" fill="#1B1B1B"/>
</g>
<defs>
<clipPath id="clip0_1419_2064">
<rect width="16" height="16" fill="white"/>
</clipPath>
</defs>
</svg>
