<svg width="16" height="16" viewBox="0 0 16 16" fill="none" xmlns="http://www.w3.org/2000/svg">
<path d="M3.5 11.5C2.87367 11.4999 2.25886 11.3317 1.71969 11.013C1.18052 10.6943 0.736757 10.2367 0.434685 9.68803C0.132614 9.13937 -0.0166958 8.5197 0.00233328 7.89366C0.0213623 7.26763 0.208033 6.65817 0.542871 6.12887C0.877709 5.59956 1.34845 5.16981 1.90598 4.88443C2.46351 4.59905 3.0874 4.46851 3.71257 4.50642C4.33775 4.54433 4.9413 4.74931 5.46026 5.09996C5.97921 5.45062 6.39457 5.93411 6.663 6.5H14L15.5 8L14 9.5L13 8.5L12 9.5L11 8.5L10 9.5L9 8.5L8 9.5H6.663C6.37909 10.0985 5.93115 10.6042 5.37124 10.9582C4.81133 11.3123 4.16245 11.5001 3.5 11.5V11.5ZM2.5 9C2.76521 9 3.01957 8.89464 3.2071 8.70711C3.39464 8.51957 3.5 8.26522 3.5 8C3.5 7.73478 3.39464 7.48043 3.2071 7.29289C3.01957 7.10536 2.76521 7 2.5 7C2.23478 7 1.98042 7.10536 1.79289 7.29289C1.60535 7.48043 1.5 7.73478 1.5 8C1.5 8.26522 1.60535 8.51957 1.79289 8.70711C1.98042 8.89464 2.23478 9 2.5 9V9Z" fill="currentColor"/>
</svg>
