<svg width="16" height="16" viewBox="0 0 16 16" fill="none" xmlns="http://www.w3.org/2000/svg">
<path fill-rule="evenodd" clip-rule="evenodd" d="M5.03995 0.303C5.07853 0.213 5.14269 0.13631 5.22447 0.0824451C5.30624 0.0285805 5.40203 -8.6892e-05 5.49995 1.97842e-07H10.5C10.7 1.97842e-07 10.88 0.12 10.96 0.303L13.96 7.303C13.9892 7.37148 14.0028 7.44562 13.9997 7.52003C13.9967 7.59443 13.977 7.66721 13.9422 7.73305C13.9075 7.79889 13.8584 7.85612 13.7987 7.90058C13.7389 7.94503 13.67 7.97559 13.597 7.99H13.595C13.445 8.02 13.295 8.046 13.145 8.071C11.6087 8.32295 10.0564 8.46498 8.49995 8.496V13.5C8.49995 13.6326 8.44728 13.7598 8.35351 13.8536C8.25974 13.9473 8.13256 14 7.99995 14C7.86735 14 7.74017 13.9473 7.6464 13.8536C7.55263 13.7598 7.49995 13.6326 7.49995 13.5V8.495C5.94349 8.4639 4.39122 8.32188 2.85495 8.07C2.70495 8.045 2.55495 8.02 2.40495 7.99H2.40195C2.32886 7.9755 2.25993 7.94484 2.20021 7.90026C2.14048 7.85569 2.09148 7.79833 2.05678 7.73238C2.02208 7.66643 2.00256 7.59356 1.99965 7.5191C1.99674 7.44463 2.01051 7.37046 2.03995 7.302L5.03995 0.302V0.303Z" fill="currentColor"/>
<path d="M6.493 12.5738C6.51469 12.7045 6.48358 12.8385 6.40651 12.9464C6.32944 13.0542 6.21272 13.127 6.082 13.1488C5.37 13.2668 4.802 13.4438 4.427 13.6418C4.28924 13.708 4.16405 13.7977 4.057 13.9068C4.03596 13.929 4.01842 13.9543 4.005 13.9818L4.004 13.9858L4 13.9958V13.9998L4.002 14.0078C4.00593 14.0194 4.01131 14.0305 4.018 14.0408C4.05751 14.0986 4.10654 14.1493 4.163 14.1908C4.328 14.3208 4.598 14.4608 4.976 14.5858C5.727 14.8358 6.796 14.9998 8 14.9998C9.204 14.9998 10.273 14.8368 11.024 14.5858C11.402 14.4598 11.672 14.3208 11.837 14.1908C11.8938 14.1494 11.9432 14.0987 11.983 14.0408C11.9893 14.0304 11.9944 14.0194 11.998 14.0078L12 13.9998V13.9958C11.9865 13.9626 11.9672 13.9322 11.943 13.9058C11.8359 13.797 11.7107 13.7077 11.573 13.6418C11.197 13.4438 10.63 13.2668 9.918 13.1488C9.85168 13.1398 9.78783 13.1176 9.73025 13.0835C9.67267 13.0494 9.62253 13.004 9.58279 12.9502C9.54306 12.8963 9.51454 12.835 9.49893 12.7699C9.48332 12.7049 9.48093 12.6373 9.49191 12.5713C9.5029 12.5053 9.52702 12.4421 9.56286 12.3856C9.5987 12.3291 9.64552 12.2803 9.70055 12.2422C9.75558 12.2041 9.81769 12.1775 9.88322 12.1638C9.94874 12.1502 10.0163 12.1498 10.082 12.1628C10.852 12.2898 11.534 12.4908 12.039 12.7568C12.5 12.9998 13 13.3998 13 13.9998C13 14.4258 12.74 14.7518 12.456 14.9768C12.166 15.2048 11.776 15.3898 11.34 15.5348C10.462 15.8278 9.281 15.9998 8 15.9998C6.719 15.9998 5.538 15.8278 4.66 15.5348C4.224 15.3898 3.834 15.2048 3.544 14.9768C3.26 14.7518 3 14.4258 3 13.9998C3 13.4008 3.5 12.9998 3.961 12.7568C4.466 12.4908 5.148 12.2898 5.918 12.1628C6.04874 12.1411 6.18275 12.1722 6.29057 12.2493C6.39838 12.3263 6.4712 12.4431 6.493 12.5738Z" fill="currentColor"/>
</svg>
