<svg width="16" height="16" viewBox="0 0 16 16" fill="none" xmlns="http://www.w3.org/2000/svg">
<g clip-path="url(#clip0_1419_1525)">
<path d="M8.23501 1.55891C8.16267 1.52039 8.08197 1.50024 8.00001 1.50024C7.91805 1.50024 7.83735 1.52039 7.76501 1.55891L0.265009 5.55891C0.185137 5.60159 0.118354 5.66515 0.071791 5.74282C0.0252282 5.82049 0.000633789 5.90935 0.000633789 5.99991C0.000633789 6.09047 0.0252282 6.17933 0.071791 6.257C0.118354 6.33467 0.185137 6.39824 0.265009 6.44091L3.18801 7.99991L0.264009 9.55891C0.184137 9.60159 0.117354 9.66515 0.070791 9.74282C0.0242282 9.8205 -0.000366211 9.90935 -0.000366211 9.99991C-0.000366211 10.0905 0.0242282 10.1793 0.070791 10.257C0.117354 10.3347 0.184137 10.3982 0.264009 10.4409L7.76401 14.4409C7.83635 14.4794 7.91705 14.4996 7.99901 14.4996C8.08097 14.4996 8.16167 14.4794 8.23401 14.4409L15.734 10.4409C15.8139 10.3982 15.8807 10.3347 15.9272 10.257C15.9738 10.1793 15.9984 10.0905 15.9984 9.99991C15.9984 9.90935 15.9738 9.8205 15.9272 9.74282C15.8807 9.66515 15.8139 9.60159 15.734 9.55891L12.813 7.99991L15.735 6.44091C15.8149 6.39824 15.8817 6.33467 15.9282 6.257C15.9748 6.17933 15.9994 6.09047 15.9994 5.99991C15.9994 5.90935 15.9748 5.82049 15.9282 5.74282C15.8817 5.66515 15.8149 5.60159 15.735 5.55891L8.23501 1.55891V1.55891ZM11.75 8.56691L14.438 9.99991L8.00001 13.4329L1.56201 9.99991L4.25001 8.56691L7.76501 10.4409C7.83735 10.4794 7.91805 10.4996 8.00001 10.4996C8.08197 10.4996 8.16267 10.4794 8.23501 10.4409L11.75 8.56691V8.56691ZM8.00001 9.43291L1.56201 5.99991L8.00001 2.56691L14.438 5.99991L8.00001 9.43291Z" fill="currentColor"/>
</g>
<defs>
<clipPath id="clip0_1419_1525">
<rect width="16" height="16" fill="white"/>
</clipPath>
</defs>
</svg>
