<svg width="16" height="16" viewBox="0 0 16 16" fill="none" xmlns="http://www.w3.org/2000/svg">
<g clip-path="url(#clip0_1419_1522)">
<path d="M8.354 0.145917C8.30755 0.099354 8.25238 0.0624111 8.19163 0.0372047C8.13089 0.0119982 8.06577 -0.000976562 8 -0.000976562C7.93423 -0.000976562 7.86911 0.0119982 7.80837 0.0372047C7.74762 0.0624111 7.69245 0.099354 7.646 0.145917L4.646 3.14592C4.59944 3.19236 4.56249 3.24754 4.53729 3.30828C4.51208 3.36903 4.49911 3.43415 4.49911 3.49992C4.49911 3.56568 4.51208 3.63081 4.53729 3.69155C4.56249 3.7523 4.59944 3.80747 4.646 3.85392L5.646 4.85392C5.69245 4.90048 5.74762 4.93742 5.80837 4.96263C5.86911 4.98784 5.93423 5.00081 6 5.00081C6.06577 5.00081 6.13089 4.98784 6.19163 4.96263C6.25238 4.93742 6.30755 4.90048 6.354 4.85392L7 4.20692V11.9999H1C0.734784 11.9999 0.48043 12.1053 0.292893 12.2928C0.105357 12.4803 0 12.7347 0 12.9999L0 14.9999C0 15.2651 0.105357 15.5195 0.292893 15.707C0.48043 15.8946 0.734784 15.9999 1 15.9999H15C15.2652 15.9999 15.5196 15.8946 15.7071 15.707C15.8946 15.5195 16 15.2651 16 14.9999V12.9999C16 12.7347 15.8946 12.4803 15.7071 12.2928C15.5196 12.1053 15.2652 11.9999 15 11.9999H9V4.20692L9.646 4.85392C9.69245 4.90048 9.74762 4.93742 9.80837 4.96263C9.86911 4.98784 9.93423 5.00081 10 5.00081C10.0658 5.00081 10.1309 4.98784 10.1916 4.96263C10.2524 4.93742 10.3076 4.90048 10.354 4.85392L11.354 3.85392C11.4006 3.80747 11.4375 3.7523 11.4627 3.69155C11.4879 3.63081 11.5009 3.56568 11.5009 3.49992C11.5009 3.43415 11.4879 3.36903 11.4627 3.30828C11.4375 3.24754 11.4006 3.19236 11.354 3.14592L8.354 0.145917V0.145917Z" fill="currentColor"/>
<path d="M1 7C0.734784 7 0.48043 7.10536 0.292893 7.29289C0.105357 7.48043 0 7.73478 0 8L0 10C0 10.2652 0.105357 10.5196 0.292893 10.7071C0.48043 10.8946 0.734784 11 1 11H5.5C5.63261 11 5.75979 10.9473 5.85355 10.8536C5.94732 10.7598 6 10.6326 6 10.5C6 10.3674 5.94732 10.2402 5.85355 10.1464C5.75979 10.0527 5.63261 10 5.5 10H1V8H5.5C5.63261 8 5.75979 7.94732 5.85355 7.85355C5.94732 7.75979 6 7.63261 6 7.5C6 7.36739 5.94732 7.24021 5.85355 7.14645C5.75979 7.05268 5.63261 7 5.5 7H1ZM10.5 7C10.3674 7 10.2402 7.05268 10.1464 7.14645C10.0527 7.24021 10 7.36739 10 7.5C10 7.63261 10.0527 7.75979 10.1464 7.85355C10.2402 7.94732 10.3674 8 10.5 8H15V10H10.5C10.3674 10 10.2402 10.0527 10.1464 10.1464C10.0527 10.2402 10 10.3674 10 10.5C10 10.6326 10.0527 10.7598 10.1464 10.8536C10.2402 10.9473 10.3674 11 10.5 11H15C15.2652 11 15.5196 10.8946 15.7071 10.7071C15.8946 10.5196 16 10.2652 16 10V8C16 7.73478 15.8946 7.48043 15.7071 7.29289C15.5196 7.10536 15.2652 7 15 7H10.5Z" fill="currentColor"/>
</g>
<defs>
<clipPath id="clip0_1419_1522">
<rect width="16" height="16" fill="white"/>
</clipPath>
</defs>
</svg>
