<svg width="16" height="16" viewBox="0 0 16 16" fill="none" xmlns="http://www.w3.org/2000/svg">
<path d="M7.765 1.55891C7.83734 1.52039 7.91804 1.50024 8 1.50024C8.08196 1.50024 8.16266 1.52039 8.235 1.55891L15.735 5.55891C15.8149 5.60159 15.8817 5.66515 15.9282 5.74282C15.9748 5.82049 15.9994 5.90935 15.9994 5.99991C15.9994 6.09047 15.9748 6.17933 15.9282 6.257C15.8817 6.33467 15.8149 6.39824 15.735 6.44091L8.235 10.4409C8.16266 10.4794 8.08196 10.4996 8 10.4996C7.91804 10.4996 7.83734 10.4794 7.765 10.4409L0.265001 6.44091C0.185128 6.39824 0.118346 6.33467 0.0717828 6.257C0.02522 6.17933 0.00062561 6.09047 0.00062561 5.99991C0.00062561 5.90935 0.02522 5.82049 0.0717828 5.74282C0.118346 5.66515 0.185128 5.60159 0.265001 5.55891L7.765 1.55891V1.55891Z" fill="#1B1B1B"/>
<path d="M2.125 8.56689L0.265001 9.55889C0.185128 9.60157 0.118346 9.66514 0.0717828 9.74281C0.02522 9.82048 0.00062561 9.90934 0.00062561 9.99989C0.00062561 10.0905 0.02522 10.1793 0.0717828 10.257C0.118346 10.3347 0.185128 10.3982 0.265001 10.4409L7.765 14.4409C7.83734 14.4794 7.91804 14.4996 8 14.4996C8.08196 14.4996 8.16266 14.4794 8.235 14.4409L15.735 10.4409C15.8149 10.3982 15.8817 10.3347 15.9282 10.257C15.9748 10.1793 15.9994 10.0905 15.9994 9.99989C15.9994 9.90934 15.9748 9.82048 15.9282 9.74281C15.8817 9.66514 15.8149 9.60157 15.735 9.55889L13.875 8.56689L8.705 11.3229C8.48798 11.4385 8.24587 11.4989 8 11.4989C7.75413 11.4989 7.51202 11.4385 7.295 11.3229L2.125 8.56689Z" fill="#1B1B1B"/>
</svg>
