<svg width="16" height="16" viewBox="0 0 16 16" fill="none" xmlns="http://www.w3.org/2000/svg">
<g clip-path="url(#clip0_1419_2144)">
<path d="M5.51999 0.359C5.55046 0.255329 5.6137 0.164319 5.70023 0.0996C5.78676 0.0348812 5.89193 -6.31864e-05 5.99999 8.57716e-08H9.99999C10.0792 6.01937e-05 10.1572 0.018926 10.2277 0.0550444C10.2981 0.0911628 10.359 0.143501 10.4053 0.20775C10.4516 0.271999 10.4819 0.346322 10.4939 0.424601C10.5058 0.502879 10.499 0.582874 10.474 0.658L8.69399 6H12.5C12.5936 5.99994 12.6854 6.02616 12.7648 6.0757C12.8443 6.12523 12.9083 6.19609 12.9494 6.28019C12.9906 6.36429 13.0073 6.45825 12.9977 6.55139C12.9881 6.64453 12.9525 6.73309 12.895 6.807L5.89499 15.807C5.82328 15.8996 5.72131 15.9642 5.60689 15.9893C5.49246 16.0144 5.37284 15.9986 5.2689 15.9446C5.16497 15.8905 5.08331 15.8017 5.03818 15.6935C4.99305 15.5854 4.98732 15.4649 5.02199 15.353L6.82299 9.5H3.49999C3.42225 9.50005 3.34558 9.48197 3.27605 9.4472C3.20653 9.41243 3.14606 9.36192 3.09947 9.2997C3.05288 9.23748 3.02143 9.16525 3.00763 9.08875C2.99384 9.01225 2.99807 8.93358 3.01999 8.859L5.51999 0.359ZM6.37399 1L4.16799 8.5H7.49999C7.57824 8.49998 7.65539 8.51833 7.72526 8.55357C7.79512 8.58881 7.85574 8.63996 7.90224 8.70289C7.94873 8.76583 7.97981 8.8388 7.99297 8.91593C8.00612 8.99306 8.00099 9.07221 7.97799 9.147L6.77999 13.04L11.478 7H7.99999C7.9208 6.99994 7.84277 6.98107 7.7723 6.94496C7.70183 6.90884 7.64095 6.8565 7.59467 6.79225C7.54839 6.728 7.51803 6.65368 7.50608 6.5754C7.49414 6.49712 7.50097 6.41713 7.52599 6.342L9.30599 1H6.37399Z" fill="#1B1B1B"/>
</g>
<defs>
<clipPath id="clip0_1419_2144">
<rect width="16" height="16" fill="white"/>
</clipPath>
</defs>
</svg>
