<svg width="16" height="16" viewBox="0 0 16 16" fill="none" xmlns="http://www.w3.org/2000/svg">
<path d="M2.00002 5.99997C2.00002 5.42797 2.08002 4.87497 2.23002 4.34997L10.788 12.909C10.7037 12.9683 10.6031 13 10.5 13H5.50002C5.40221 13.0001 5.3065 12.9716 5.22474 12.9179C5.14298 12.8643 5.07875 12.7878 5.04002 12.698L4.27902 10.928C4.17006 10.6942 4.01613 10.4842 3.82602 10.31C3.24764 9.75113 2.78785 9.08145 2.47411 8.34092C2.16038 7.60039 1.99914 6.80421 2.00002 5.99997V5.99997ZM12.303 10.181L3.81802 1.69697C4.94963 0.604018 6.46525 -0.000748387 8.03843 0.0129221C9.61161 0.0265926 11.1165 0.657606 12.2289 1.77005C13.3414 2.8825 13.9724 4.38738 13.9861 5.96056C13.9997 7.53374 13.395 9.04935 12.302 10.181H12.303ZM5.00002 14.5C5.00002 14.3674 5.0527 14.2402 5.14647 14.1464C5.24024 14.0526 5.36741 14 5.50002 14H10.5C10.6326 14 10.7598 14.0526 10.8536 14.1464C10.9473 14.2402 11 14.3674 11 14.5C11 14.6326 10.9473 14.7598 10.8536 14.8535C10.7598 14.9473 10.6326 15 10.5 15L10.276 15.447C10.193 15.613 10.0654 15.7527 9.90755 15.8504C9.74965 15.9481 9.56768 15.9999 9.38202 16H6.61802C6.43236 15.9999 6.25039 15.9481 6.09249 15.8504C5.9346 15.7527 5.80701 15.613 5.72402 15.447L5.50002 15C5.36741 15 5.24024 14.9473 5.14647 14.8535C5.0527 14.7598 5.00002 14.6326 5.00002 14.5ZM2.35402 1.64597C2.30753 1.59948 2.25234 1.5626 2.1916 1.53744C2.13087 1.51228 2.06577 1.49933 2.00002 1.49933C1.93428 1.49933 1.86918 1.51228 1.80844 1.53744C1.7477 1.5626 1.69251 1.59948 1.64602 1.64597C1.59953 1.69245 1.56266 1.74764 1.5375 1.80838C1.51234 1.86912 1.49939 1.93422 1.49939 1.99997C1.49939 2.06571 1.51234 2.13081 1.5375 2.19155C1.56266 2.25229 1.59953 2.30748 1.64602 2.35397L13.646 14.354C13.7399 14.4479 13.8672 14.5006 14 14.5006C14.1328 14.5006 14.2601 14.4479 14.354 14.354C14.4479 14.2601 14.5007 14.1327 14.5007 14C14.5007 13.8672 14.4479 13.7399 14.354 13.646L2.35402 1.64597V1.64597Z" fill="currentColor"/>
</svg>
