<svg width="16" height="16" viewBox="0 0 16 16" fill="none" xmlns="http://www.w3.org/2000/svg">
<path d="M4.71499 6.542L3.34299 7.914C2.78033 8.47666 2.46423 9.23978 2.46423 10.0355C2.46423 10.8312 2.78033 11.5943 3.34299 12.157C3.90564 12.7197 4.66877 13.0358 5.46449 13.0358C6.2602 13.0358 7.02333 12.7197 7.58599 12.157L9.41399 10.328C9.75328 9.98866 10.0062 9.57287 10.1516 9.11555C10.2969 8.65822 10.3305 8.1727 10.2493 7.69974C10.1682 7.22677 9.97485 6.78016 9.68542 6.3974C9.39599 6.01464 9.01896 5.7069 8.58599 5.5L7.99999 6.086C7.9405 6.1456 7.88875 6.21246 7.84599 6.285C8.18051 6.38117 8.48415 6.56298 8.72688 6.81246C8.96961 7.06194 9.14303 7.37044 9.22999 7.70748C9.31695 8.04452 9.31444 8.39842 9.22272 8.73419C9.13099 9.06996 8.95323 9.37598 8.70699 9.622L6.87999 11.45C6.50471 11.8253 5.99572 12.0361 5.46499 12.0361C4.93426 12.0361 4.42527 11.8253 4.04999 11.45C3.67471 11.0747 3.46388 10.5657 3.46388 10.035C3.46388 9.50427 3.67471 8.99528 4.04999 8.62L4.84299 7.828C4.7311 7.40873 4.68788 6.9741 4.71499 6.541V6.542Z" fill="currentColor"/>
<path d="M6.58599 4.67209C6.24669 5.01143 5.99375 5.42721 5.8484 5.88454C5.70304 6.34186 5.66951 6.82739 5.75063 7.30035C5.83174 7.77332 6.02513 8.21992 6.31456 8.60268C6.60399 8.98544 6.98101 9.29319 7.41399 9.50009L8.18899 8.72409C7.84994 8.63314 7.54079 8.45456 7.29262 8.20629C7.04445 7.95802 6.866 7.6488 6.7752 7.30971C6.6844 6.97062 6.68444 6.6136 6.77533 6.27453C6.86622 5.93547 7.04475 5.62629 7.29299 5.37809L9.11999 3.55009C9.49527 3.1748 10.0043 2.96397 10.535 2.96397C11.0657 2.96397 11.5747 3.1748 11.95 3.55009C12.3253 3.92537 12.5361 4.43436 12.5361 4.96509C12.5361 5.49581 12.3253 6.0048 11.95 6.38009L11.157 7.17209C11.269 7.59209 11.312 8.02709 11.285 8.45909L12.657 7.08709C13.2196 6.52443 13.5357 5.7613 13.5357 4.96559C13.5357 4.16987 13.2196 3.40674 12.657 2.84409C12.0943 2.28143 11.3312 1.96533 10.5355 1.96533C9.73977 1.96533 8.97664 2.28143 8.41399 2.84409L6.58599 4.67209Z" fill="currentColor"/>
</svg>
