<svg width="16" height="16" viewBox="0 0 16 16" fill="none" xmlns="http://www.w3.org/2000/svg">
<path fill-rule="evenodd" clip-rule="evenodd" d="M5 11.5C5 11.3674 5.05268 11.2402 5.14645 11.1464C5.24021 11.0527 5.36739 11 5.5 11H14.5C14.6326 11 14.7598 11.0527 14.8536 11.1464C14.9473 11.2402 15 11.3674 15 11.5C15 11.6326 14.9473 11.7598 14.8536 11.8536C14.7598 11.9473 14.6326 12 14.5 12H5.5C5.36739 12 5.24021 11.9473 5.14645 11.8536C5.05268 11.7598 5 11.6326 5 11.5ZM5 7.5C5 7.36739 5.05268 7.24021 5.14645 7.14645C5.24021 7.05268 5.36739 7 5.5 7H14.5C14.6326 7 14.7598 7.05268 14.8536 7.14645C14.9473 7.24021 15 7.36739 15 7.5C15 7.63261 14.9473 7.75979 14.8536 7.85355C14.7598 7.94732 14.6326 8 14.5 8H5.5C5.36739 8 5.24021 7.94732 5.14645 7.85355C5.05268 7.75979 5 7.63261 5 7.5ZM5 3.5C5 3.36739 5.05268 3.24021 5.14645 3.14645C5.24021 3.05268 5.36739 3 5.5 3H14.5C14.6326 3 14.7598 3.05268 14.8536 3.14645C14.9473 3.24021 15 3.36739 15 3.5C15 3.63261 14.9473 3.75979 14.8536 3.85355C14.7598 3.94732 14.6326 4 14.5 4H5.5C5.36739 4 5.24021 3.94732 5.14645 3.85355C5.05268 3.75979 5 3.63261 5 3.5Z" fill="#1B1B1B"/>
<path d="M2.24199 2.19406C2.25901 2.13892 2.29324 2.09068 2.33967 2.05642C2.3861 2.02215 2.44229 2.00366 2.49999 2.00366C2.5577 2.00366 2.61389 2.02215 2.66032 2.05642C2.70675 2.09068 2.74098 2.13892 2.75799 2.19406L2.91999 2.72406C2.95499 2.83906 3.05999 2.91806 3.17799 2.91806H3.72899C3.98799 2.91806 4.09899 3.25106 3.89299 3.41106L3.42499 3.77406C3.38077 3.80865 3.3481 3.85586 3.33131 3.90944C3.31452 3.96301 3.31441 4.02042 3.33099 4.07406L3.50399 4.64306C3.58199 4.89906 3.29099 5.10506 3.08099 4.94306L2.66399 4.61906C2.61711 4.58257 2.5594 4.56276 2.49999 4.56276C2.44059 4.56276 2.38287 4.58257 2.33599 4.61906L1.91899 4.94206C1.70899 5.10506 1.41899 4.89906 1.49599 4.64306L1.66899 4.07306C1.68535 4.01956 1.68513 3.96236 1.66835 3.90899C1.65157 3.85562 1.61902 3.80858 1.57499 3.77406L1.10699 3.41106C0.900994 3.25106 1.01199 2.91806 1.27099 2.91806H1.82099C1.87929 2.91788 1.93597 2.89891 1.98263 2.86396C2.02929 2.82902 2.06343 2.77996 2.07999 2.72406L2.24199 2.19406V2.19406ZM2.24199 6.19406C2.25901 6.13892 2.29324 6.09068 2.33967 6.05642C2.3861 6.02215 2.44229 6.00366 2.49999 6.00366C2.5577 6.00366 2.61389 6.02215 2.66032 6.05642C2.70675 6.09068 2.74098 6.13892 2.75799 6.19406L2.91999 6.72406C2.95499 6.83906 3.05999 6.91806 3.17799 6.91806H3.72899C3.98799 6.91806 4.09899 7.25106 3.89299 7.41106L3.42499 7.77406C3.38077 7.80865 3.3481 7.85586 3.33131 7.90944C3.31452 7.96301 3.31441 8.02042 3.33099 8.07406L3.50399 8.64306C3.58199 8.89806 3.29099 9.10506 3.08099 8.94306L2.66399 8.61906C2.61711 8.58257 2.5594 8.56276 2.49999 8.56276C2.44059 8.56276 2.38287 8.58257 2.33599 8.61906L1.91899 8.94206C1.70899 9.10506 1.41899 8.89906 1.49599 8.64306L1.66899 8.07306C1.68535 8.01956 1.68513 7.96236 1.66835 7.90899C1.65157 7.85562 1.61902 7.80858 1.57499 7.77406L1.10699 7.41106C0.900994 7.25106 1.01199 6.91806 1.27099 6.91806H1.82099C1.87929 6.91788 1.93597 6.89891 1.98263 6.86397C2.02929 6.82902 2.06343 6.77996 2.07999 6.72406L2.24199 6.19406V6.19406ZM2.24199 10.1941C2.25901 10.1389 2.29324 10.0907 2.33967 10.0564C2.3861 10.0221 2.44229 10.0037 2.49999 10.0037C2.5577 10.0037 2.61389 10.0221 2.66032 10.0564C2.70675 10.0907 2.74098 10.1389 2.75799 10.1941L2.91999 10.7241C2.95499 10.8391 3.05999 10.9181 3.17799 10.9181H3.72899C3.98799 10.9181 4.09899 11.2511 3.89299 11.4111L3.42499 11.7741C3.38077 11.8087 3.3481 11.8559 3.33131 11.9094C3.31452 11.963 3.31441 12.0204 3.33099 12.0741L3.50399 12.6431C3.58199 12.8981 3.29099 13.1051 3.08099 12.9431L2.66399 12.6191C2.61711 12.5826 2.5594 12.5628 2.49999 12.5628C2.44059 12.5628 2.38287 12.5826 2.33599 12.6191L1.91899 12.9421C1.70899 13.1051 1.41899 12.8991 1.49599 12.6431L1.66899 12.0731C1.68535 12.0196 1.68513 11.9624 1.66835 11.909C1.65157 11.8556 1.61902 11.8086 1.57499 11.7741L1.10699 11.4111C0.900994 11.2511 1.01199 10.9181 1.27099 10.9181H1.82099C1.87929 10.9179 1.93597 10.8989 1.98263 10.864C2.02929 10.829 2.06343 10.78 2.07999 10.7241L2.24199 10.1941V10.1941Z" fill="#1B1B1B"/>
</svg>
