<svg width="16" height="16" viewBox="0 0 16 16" fill="none" xmlns="http://www.w3.org/2000/svg">
<path fill-rule="evenodd" clip-rule="evenodd" d="M5.00002 11.4999C5.00002 11.3673 5.0527 11.2401 5.14647 11.1464C5.24024 11.0526 5.36741 10.9999 5.50002 10.9999H14.5C14.6326 10.9999 14.7598 11.0526 14.8536 11.1464C14.9473 11.2401 15 11.3673 15 11.4999C15 11.6325 14.9473 11.7597 14.8536 11.8535C14.7598 11.9472 14.6326 11.9999 14.5 11.9999H5.50002C5.36741 11.9999 5.24024 11.9472 5.14647 11.8535C5.0527 11.7597 5.00002 11.6325 5.00002 11.4999ZM5.00002 7.49992C5.00002 7.36731 5.0527 7.24013 5.14647 7.14636C5.24024 7.0526 5.36741 6.99992 5.50002 6.99992H14.5C14.6326 6.99992 14.7598 7.0526 14.8536 7.14636C14.9473 7.24013 15 7.36731 15 7.49992C15 7.63253 14.9473 7.7597 14.8536 7.85347C14.7598 7.94724 14.6326 7.99992 14.5 7.99992H5.50002C5.36741 7.99992 5.24024 7.94724 5.14647 7.85347C5.0527 7.7597 5.00002 7.63253 5.00002 7.49992ZM5.00002 3.49992C5.00002 3.36731 5.0527 3.24013 5.14647 3.14636C5.24024 3.0526 5.36741 2.99992 5.50002 2.99992H14.5C14.6326 2.99992 14.7598 3.0526 14.8536 3.14636C14.9473 3.24013 15 3.36731 15 3.49992C15 3.63253 14.9473 3.7597 14.8536 3.85347C14.7598 3.94724 14.6326 3.99992 14.5 3.99992H5.50002C5.36741 3.99992 5.24024 3.94724 5.14647 3.85347C5.0527 3.7597 5.00002 3.63253 5.00002 3.49992ZM3.85402 2.14592C3.90058 2.19236 3.93753 2.24754 3.96273 2.30828C3.98794 2.36903 4.00091 2.43415 4.00091 2.49992C4.00091 2.56568 3.98794 2.63081 3.96273 2.69155C3.93753 2.7523 3.90058 2.80747 3.85402 2.85392L2.35402 4.35392C2.30758 4.40048 2.2524 4.43742 2.19165 4.46263C2.13091 4.48784 2.06579 4.50081 2.00002 4.50081C1.93425 4.50081 1.86913 4.48784 1.80839 4.46263C1.74764 4.43742 1.69247 4.40048 1.64602 4.35392L1.14602 3.85392C1.09953 3.80743 1.06266 3.75224 1.0375 3.6915C1.01234 3.63076 0.99939 3.56566 0.99939 3.49992C0.99939 3.43417 1.01234 3.36907 1.0375 3.30833C1.06266 3.24759 1.09953 3.19241 1.14602 3.14592C1.19251 3.09943 1.2477 3.06255 1.30844 3.03739C1.36918 3.01223 1.43428 2.99929 1.50002 2.99929C1.56577 2.99929 1.63087 3.01223 1.6916 3.03739C1.75234 3.06255 1.80753 3.09943 1.85402 3.14592L2.00002 3.29292L3.14602 2.14592C3.19247 2.09935 3.24764 2.06241 3.30839 2.0372C3.36913 2.012 3.43425 1.99902 3.50002 1.99902C3.56579 1.99902 3.63091 2.012 3.69165 2.0372C3.7524 2.06241 3.80758 2.09935 3.85402 2.14592V2.14592ZM3.85402 6.14592C3.90058 6.19236 3.93753 6.24754 3.96273 6.30828C3.98794 6.36903 4.00091 6.43415 4.00091 6.49992C4.00091 6.56568 3.98794 6.63081 3.96273 6.69155C3.93753 6.7523 3.90058 6.80747 3.85402 6.85392L2.35402 8.35392C2.30758 8.40048 2.2524 8.43742 2.19165 8.46263C2.13091 8.48784 2.06579 8.50081 2.00002 8.50081C1.93425 8.50081 1.86913 8.48784 1.80839 8.46263C1.74764 8.43742 1.69247 8.40048 1.64602 8.35392L1.14602 7.85392C1.05213 7.76003 0.99939 7.63269 0.99939 7.49992C0.99939 7.36714 1.05213 7.2398 1.14602 7.14592C1.23991 7.05203 1.36725 6.99929 1.50002 6.99929C1.6328 6.99929 1.76013 7.05203 1.85402 7.14592L2.00002 7.29292L3.14602 6.14592C3.19247 6.09935 3.24764 6.06241 3.30839 6.0372C3.36913 6.012 3.43425 5.99902 3.50002 5.99902C3.56579 5.99902 3.63091 6.012 3.69165 6.0372C3.7524 6.06241 3.80758 6.09935 3.85402 6.14592V6.14592ZM3.85402 10.1459C3.90058 10.1924 3.93753 10.2475 3.96273 10.3083C3.98794 10.369 4.00091 10.4341 4.00091 10.4999C4.00091 10.5657 3.98794 10.6308 3.96273 10.6916C3.93753 10.7523 3.90058 10.8075 3.85402 10.8539L2.35402 12.3539C2.30758 12.4005 2.2524 12.4374 2.19165 12.4626C2.13091 12.4878 2.06579 12.5008 2.00002 12.5008C1.93425 12.5008 1.86913 12.4878 1.80839 12.4626C1.74764 12.4374 1.69247 12.4005 1.64602 12.3539L1.14602 11.8539C1.05213 11.76 0.99939 11.6327 0.99939 11.4999C0.99939 11.3671 1.05213 11.2398 1.14602 11.1459C1.23991 11.052 1.36725 10.9993 1.50002 10.9993C1.6328 10.9993 1.76013 11.052 1.85402 11.1459L2.00002 11.2929L3.14602 10.1459C3.19247 10.0994 3.24764 10.0624 3.30839 10.0372C3.36913 10.012 3.43425 9.99902 3.50002 9.99902C3.56579 9.99902 3.63091 10.012 3.69165 10.0372C3.7524 10.0624 3.80758 10.0994 3.85402 10.1459V10.1459Z" fill="currentColor"/>
</svg>
