<svg width="16" height="16" viewBox="0 0 16 16" fill="none" xmlns="http://www.w3.org/2000/svg">
<path fill-rule="evenodd" clip-rule="evenodd" d="M2 10.5C2 10.3674 2.05747 10.2402 2.15976 10.1464C2.26205 10.0527 2.40079 10 2.54545 10H13.4545C13.5992 10 13.7379 10.0527 13.8402 10.1464C13.9425 10.2402 14 10.3674 14 10.5C14 10.6326 13.9425 10.7598 13.8402 10.8536C13.7379 10.9473 13.5992 11 13.4545 11H2.54545C2.40079 11 2.26205 10.9473 2.15976 10.8536C2.05747 10.7598 2 10.6326 2 10.5ZM2 5.5C2 5.36739 2.05747 5.24021 2.15976 5.14645C2.26205 5.05268 2.40079 5 2.54545 5H13.4545C13.5992 5 13.7379 5.05268 13.8402 5.14645C13.9425 5.24021 14 5.36739 14 5.5C14 5.63261 13.9425 5.75979 13.8402 5.85355C13.7379 5.94732 13.5992 6 13.4545 6H2.54545C2.40079 6 2.26205 5.94732 2.15976 5.85355C2.05747 5.75979 2 5.63261 2 5.5Z" fill="currentColor"/>
</svg>
