<svg width="16" height="16" viewBox="0 0 16 16" fill="none" xmlns="http://www.w3.org/2000/svg">
<path fill-rule="evenodd" clip-rule="evenodd" d="M8 1C8.13261 1 8.25979 1.05268 8.35356 1.14645C8.44733 1.24021 8.5 1.36739 8.5 1.5V6.743L9 7.1V4.72C9 3.77 9.77001 3 10.72 3C11.244 3 11.743 3.27 12.163 3.592C12.594 3.924 13.01 4.365 13.379 4.821C14.115 5.729 14.726 6.767 14.959 7.301C15.135 7.706 15.352 8.461 15.515 9.312C15.68 10.169 15.798 11.169 15.755 12.071C15.715 12.938 15.523 13.861 14.918 14.401C14.248 15.001 13.296 14.957 12.177 14.397L10.382 13.5C9.96674 13.2924 9.6175 12.9732 9.37341 12.5783C9.12932 12.1834 9.00002 11.7283 9 11.264V8.329L8 7.614L7 8.329V7.214C6.9 7.214 6.798 7.244 6.71 7.307L4.21 9.093C4.15424 9.13013 4.1065 9.17808 4.06963 9.23402C4.03276 9.28996 4.00751 9.35273 3.99537 9.41862C3.98324 9.4845 3.98447 9.55216 3.99899 9.61756C4.01351 9.68296 4.04102 9.74478 4.0799 9.79934C4.11877 9.8539 4.16822 9.90009 4.2253 9.93517C4.28237 9.97025 4.34592 9.9935 4.41215 10.0035C4.47839 10.0136 4.54597 10.0102 4.61088 9.99363C4.67579 9.97705 4.7367 9.94759 4.79 9.907L7 8.329V11.264C6.99999 11.7283 6.87069 12.1834 6.6266 12.5783C6.38251 12.9732 6.03327 13.2924 5.618 13.5L3.823 14.397C2.703 14.957 1.753 15 1.082 14.401C0.477005 13.861 0.284005 12.938 0.244005 12.071C0.202005 11.169 0.320005 10.169 0.484005 9.312C0.648005 8.46 0.864005 7.706 1.042 7.3C1.274 6.767 1.885 5.729 2.621 4.821C2.991 4.365 3.406 3.924 3.837 3.592C4.257 3.27 4.756 3 5.28 3C6.23 3 7 3.77 7 4.72V7.1L7.5 6.743V1.5C7.5 1.36739 7.55268 1.24021 7.64645 1.14645C7.74022 1.05268 7.8674 1 8 1V1ZM11.21 9.907L9 8.329V7.214C9.1 7.214 9.202 7.244 9.29 7.307L11.79 9.093C11.8933 9.17167 11.962 9.28746 11.9815 9.41586C12.0009 9.54425 11.9697 9.67519 11.8943 9.78095C11.8189 9.88672 11.7054 9.95901 11.5777 9.98253C11.45 10.0061 11.3181 9.97897 11.21 9.907V9.907Z" fill="currentColor"/>
</svg>
