<svg width="16" height="16" viewBox="0 0 16 16" fill="none" xmlns="http://www.w3.org/2000/svg">
<path d="M8.5 1.5C8.5 1.36739 8.44732 1.24021 8.35356 1.14645C8.25979 1.05268 8.13261 1 8 1C7.86739 1 7.74022 1.05268 7.64645 1.14645C7.55268 1.24021 7.5 1.36739 7.5 1.5V6.743L7 7.1V4.72C7 3.77 6.23 3 5.28 3C4.756 3 4.257 3.27 3.837 3.592C3.406 3.924 2.99 4.365 2.621 4.821C1.885 5.729 1.274 6.767 1.041 7.301C0.865002 7.706 0.648002 8.461 0.485002 9.312C0.320002 10.169 0.202002 11.169 0.244002 12.071C0.284002 12.938 0.477002 13.861 1.082 14.401C1.752 15.001 2.704 14.957 3.823 14.397L5.618 13.5C6.03326 13.2924 6.38251 12.9732 6.6266 12.5783C6.87069 12.1834 6.99999 11.7283 7 11.264V10.5C7 10.3674 6.94732 10.2402 6.85356 10.1464C6.75979 10.0527 6.63261 10 6.5 10C6.36739 10 6.24022 10.0527 6.14645 10.1464C6.05268 10.2402 6 10.3674 6 10.5V11.264C5.99999 11.5427 5.92233 11.8159 5.77572 12.053C5.62912 12.29 5.41937 12.4815 5.17 12.606L3.376 13.503C2.398 13.992 1.961 13.846 1.748 13.655C1.468 13.405 1.281 12.854 1.243 12.025C1.206 11.23 1.311 10.315 1.467 9.5C1.624 8.68 1.824 8.009 1.958 7.7C2.148 7.262 2.708 6.3 3.398 5.45C3.74 5.028 4.101 4.651 4.447 4.385C4.805 4.109 5.086 4 5.28 4C5.47096 4 5.65409 4.07586 5.78912 4.21088C5.92415 4.34591 6 4.52904 6 4.72V7.814L4.21 9.094C4.10962 9.17369 4.04367 9.28889 4.02578 9.4158C4.00788 9.54271 4.03941 9.67165 4.11384 9.77599C4.18828 9.88033 4.29994 9.9521 4.42577 9.97648C4.5516 10.0009 4.68198 9.97599 4.79 9.907L8 7.614L11.21 9.907C11.2633 9.94759 11.3242 9.97705 11.3891 9.99363C11.454 10.0102 11.5216 10.0136 11.5879 10.0035C11.6541 9.9935 11.7176 9.97025 11.7747 9.93517C11.8318 9.90009 11.8812 9.8539 11.9201 9.79934C11.959 9.74478 11.9865 9.68296 12.001 9.61756C12.0155 9.55216 12.0168 9.4845 12.0046 9.41862C11.9925 9.35273 11.9672 9.28996 11.9304 9.23402C11.8935 9.17808 11.8458 9.13013 11.79 9.093L10 7.814V4.72C10 4.52904 10.0759 4.34591 10.2109 4.21088C10.3459 4.07586 10.529 4 10.72 4C10.914 4 11.195 4.11 11.553 4.385C11.899 4.651 12.259 5.028 12.603 5.451C13.291 6.301 13.851 7.262 14.042 7.7C14.176 8.009 14.376 8.68 14.533 9.5C14.689 10.314 14.793 11.23 14.757 12.025C14.719 12.854 14.533 13.405 14.252 13.655C14.039 13.845 13.602 13.992 12.624 13.503L10.829 12.606C10.5798 12.4814 10.3703 12.2898 10.2239 12.0528C10.0774 11.8157 9.99992 11.5426 10 11.264V10.5C10 10.3674 9.94732 10.2402 9.85356 10.1464C9.75979 10.0527 9.63261 10 9.5 10C9.36739 10 9.24022 10.0527 9.14645 10.1464C9.05268 10.2402 9 10.3674 9 10.5V11.264C9.00002 11.7283 9.12932 12.1834 9.37341 12.5783C9.6175 12.9732 9.96674 13.2924 10.382 13.5L12.177 14.397C13.297 14.957 14.247 15 14.918 14.401C15.523 13.861 15.716 12.938 15.756 12.071C15.798 11.169 15.68 10.169 15.516 9.312C15.352 8.46 15.136 7.706 14.958 7.3C14.726 6.767 14.115 5.729 13.379 4.821C13.009 4.365 12.594 3.924 12.163 3.592C11.743 3.27 11.244 3 10.72 3C9.77 3 9 3.77 9 4.72V7.1L8.5 6.743V1.5Z" fill="#1B1B1B"/>
</svg>
