<svg width="16" height="16" viewBox="0 0 16 16" fill="none" xmlns="http://www.w3.org/2000/svg">
<path d="M14 3C14.2652 3 14.5196 3.10536 14.7071 3.29289C14.8946 3.48043 15 3.73478 15 4V12C15 12.2652 14.8946 12.5196 14.7071 12.7071C14.5196 12.8946 14.2652 13 14 13H2C1.73478 13 1.48043 12.8946 1.29289 12.7071C1.10536 12.5196 1 12.2652 1 12V4C1 3.73478 1.10536 3.48043 1.29289 3.29289C1.48043 3.10536 1.73478 3 2 3H14ZM2 2C1.46957 2 0.960859 2.21071 0.585786 2.58579C0.210714 2.96086 0 3.46957 0 4L0 12C0 12.5304 0.210714 13.0391 0.585786 13.4142C0.960859 13.7893 1.46957 14 2 14H14C14.5304 14 15.0391 13.7893 15.4142 13.4142C15.7893 13.0391 16 12.5304 16 12V4C16 3.46957 15.7893 2.96086 15.4142 2.58579C15.0391 2.21071 14.5304 2 14 2H2Z" fill="#1B1B1B"/>
<path fill-rule="evenodd" clip-rule="evenodd" d="M9.14604 8.14592C9.19248 8.09935 9.24766 8.06241 9.30841 8.0372C9.36915 8.012 9.43427 7.99902 9.50004 7.99902C9.56581 7.99902 9.63093 8.012 9.69167 8.0372C9.75242 8.06241 9.80759 8.09935 9.85404 8.14592L11.5 9.79292L13.146 8.14592C13.1925 8.09943 13.2477 8.06255 13.3085 8.03739C13.3692 8.01223 13.4343 7.99929 13.5 7.99929C13.5658 7.99929 13.6309 8.01223 13.6916 8.03739C13.7524 8.06255 13.8076 8.09943 13.854 8.14592C13.9005 8.1924 13.9374 8.24759 13.9626 8.30833C13.9877 8.36907 14.0007 8.43417 14.0007 8.49992C14.0007 8.56566 13.9877 8.63076 13.9626 8.6915C13.9374 8.75224 13.9005 8.80743 13.854 8.85392L11.854 10.8539C11.8076 10.9005 11.7524 10.9374 11.6917 10.9626C11.6309 10.9878 11.5658 11.0008 11.5 11.0008C11.4343 11.0008 11.3692 10.9878 11.3084 10.9626C11.2477 10.9374 11.1925 10.9005 11.146 10.8539L9.14604 8.85392C9.09948 8.80747 9.06253 8.7523 9.03733 8.69155C9.01212 8.63081 8.99915 8.56568 8.99915 8.49992C8.99915 8.43415 9.01212 8.36903 9.03733 8.30828C9.06253 8.24754 9.09948 8.19236 9.14604 8.14592V8.14592Z" fill="#1B1B1B"/>
<path fill-rule="evenodd" clip-rule="evenodd" d="M11.5 5C11.6326 5 11.7598 5.05268 11.8536 5.14645C11.9473 5.24021 12 5.36739 12 5.5V9.5C12 9.63261 11.9473 9.75979 11.8536 9.85355C11.7598 9.94732 11.6326 10 11.5 10C11.3674 10 11.2402 9.94732 11.1464 9.85355C11.0527 9.75979 11 9.63261 11 9.5V5.5C11 5.36739 11.0527 5.24021 11.1464 5.14645C11.2402 5.05268 11.3674 5 11.5 5Z" fill="#1B1B1B"/>
<path d="M3.56 11V7.00998H3.616L5.044 10.249H5.818L7.238 7.00898H7.294V11H8.367V5.00098H7.167L5.457 8.89498H5.418L3.708 5.00098H2.5V11H3.56Z" fill="#1B1B1B"/>
</svg>
