<svg width="16" height="16" viewBox="0 0 16 16" fill="none" xmlns="http://www.w3.org/2000/svg">
<g clip-path="url(#clip0_1419_1968)">
<path d="M11.19 12.195C13.206 11.955 14.96 10.72 15.18 9.592C15.528 7.814 15.5 5.253 15.5 5.253C15.5 1.783 13.214 0.765 13.214 0.765C12.062 0.238 10.083 0.017 8.02698 0H7.97698C5.91998 0.017 3.94198 0.238 2.78998 0.765C2.78998 0.765 0.504979 1.782 0.504979 5.253L0.502979 5.915C0.498979 6.555 0.495979 7.265 0.513979 8.006C0.596979 11.4 1.13998 14.746 4.29398 15.576C5.74798 15.959 6.99698 16.039 8.00298 15.984C9.82598 15.884 10.85 15.337 10.85 15.337L10.79 14.02C10.79 14.02 9.48698 14.43 8.02298 14.38C6.57298 14.33 5.04298 14.224 4.80798 12.452C4.78561 12.2876 4.77458 12.1219 4.77498 11.956C4.77498 11.956 6.19898 12.302 8.00298 12.384C9.10598 12.434 10.14 12.32 11.191 12.195H11.19ZM12.803 9.725H11.13V5.645C11.13 4.786 10.766 4.35 10.039 4.35C9.23498 4.35 8.83198 4.867 8.83198 5.891V8.124H7.16798V5.89C7.16798 4.866 6.76498 4.349 5.96098 4.349C5.23398 4.349 4.86998 4.785 4.86998 5.645V9.724H3.19698V5.522C3.19698 4.663 3.41698 3.981 3.85698 3.476C4.31298 2.971 4.90898 2.712 5.64998 2.712C6.50598 2.712 7.15398 3.04 7.58298 3.695L7.99998 4.39L8.41698 3.695C8.84598 3.04 9.49398 2.712 10.351 2.712C11.091 2.712 11.687 2.971 12.142 3.476C12.584 3.981 12.803 4.663 12.803 5.522V9.725V9.725Z" fill="currentColor"/>
</g>
<defs>
<clipPath id="clip0_1419_1968">
<rect width="16" height="16" fill="white"/>
</clipPath>
</defs>
</svg>
