<svg width="16" height="16" viewBox="0 0 16 16" fill="none" xmlns="http://www.w3.org/2000/svg">
<g clip-path="url(#clip0_1419_1970)">
<path d="M9.18599 4.79704C9.63519 4.7138 10.0517 4.5051 10.3872 4.19508C10.7228 3.88507 10.9637 3.4864 11.0822 3.04518C11.2007 2.60396 11.1919 2.13822 11.0568 1.7018C10.9216 1.26539 10.6657 0.876145 10.3187 0.57907C9.97159 0.281996 9.54752 0.0892325 9.09549 0.0230715C8.64345 -0.0430896 8.18192 0.0200545 7.76427 0.205202C7.34662 0.390349 6.98991 0.689936 6.73538 1.06932C6.48086 1.4487 6.33893 1.89238 6.32599 2.34904H7.50399C8.43299 2.34904 9.18599 3.10204 9.18599 4.03104V4.79704ZM4.89099 12.535H7.50399C8.43299 12.535 9.18599 11.782 9.18599 10.853V5.58004H11.969C12.1543 5.58476 12.3302 5.66279 12.458 5.79702C12.5859 5.93125 12.6553 6.11072 12.651 6.29604V10.59C12.6768 11.7019 12.2602 12.7785 11.4928 13.5834C10.7253 14.3884 9.6698 14.8558 8.55799 14.883C6.93999 14.843 5.55799 13.893 4.89099 12.533V12.535ZM15.628 3.16304C15.628 3.38294 15.5847 3.60069 15.5005 3.80385C15.4164 4.00701 15.293 4.1916 15.1375 4.34709C14.9821 4.50259 14.7975 4.62593 14.5943 4.71008C14.3911 4.79423 14.1734 4.83754 13.9535 4.83754C13.7336 4.83754 13.5158 4.79423 13.3127 4.71008C13.1095 4.62593 12.9249 4.50259 12.7694 4.34709C12.6139 4.1916 12.4906 4.00701 12.4065 3.80385C12.3223 3.60069 12.279 3.38294 12.279 3.16304C12.279 2.71894 12.4554 2.29302 12.7694 1.97899C13.0835 1.66496 13.5094 1.48854 13.9535 1.48854C14.3976 1.48854 14.8235 1.66496 15.1375 1.97899C15.4516 2.29302 15.628 2.71894 15.628 3.16304ZM13.39 12.651C13.35 12.651 13.31 12.651 13.27 12.649C13.537 11.9923 13.6667 11.2878 13.651 10.579V6.30604C13.6551 6.05627 13.6039 5.80867 13.501 5.58104H15.293C15.683 5.58104 16 5.89804 16 6.28804V10.053C16 10.7421 15.7263 11.4029 15.2391 11.8901C14.7518 12.3773 14.091 12.651 13.402 12.651H13.389H13.39Z" fill="currentColor"/>
<path d="M0.682 3.3489H7.504C7.881 3.3489 8.186 3.6539 8.186 4.0309V10.8529C8.186 11.0338 8.11415 11.2072 7.98625 11.3351C7.85835 11.463 7.68488 11.5349 7.504 11.5349H0.682C0.592438 11.5349 0.503754 11.5173 0.42101 11.483C0.338266 11.4487 0.263083 11.3985 0.199753 11.3351C0.136424 11.2718 0.0861879 11.1966 0.0519142 11.1139C0.0176404 11.0311 0 10.9425 0 10.8529L0 4.0299C0 3.6529 0.305 3.3479 0.682 3.3479V3.3489ZM5.888 5.9449V5.2249H2.298V5.9449H3.655V9.6599H4.525V5.9449H5.888V5.9449Z" fill="currentColor"/>
</g>
<defs>
<clipPath id="clip0_1419_1970">
<rect width="16" height="16" fill="white"/>
</clipPath>
</defs>
</svg>
