<svg width="16" height="16" viewBox="0 0 16 16" fill="none" xmlns="http://www.w3.org/2000/svg">
<path d="M5.5 1.5C5.5 1.10218 5.65803 0.720644 5.93934 0.43934C6.22064 0.158035 6.60217 0 7 0L9 0C9.39782 0 9.77935 0.158035 10.0607 0.43934C10.342 0.720644 10.5 1.10218 10.5 1.5V12.5C10.5 12.8812 10.3549 13.2481 10.0941 13.5262C9.83331 13.8043 9.47644 13.9726 9.096 13.997C9.446 14.302 9.968 14.675 10.724 15.053C10.8247 15.1034 10.9053 15.1864 10.953 15.2884C11.0006 15.3904 11.0125 15.5055 10.9865 15.6151C10.9606 15.7247 10.8985 15.8223 10.8102 15.8921C10.7219 15.962 10.6126 16 10.5 16H5.5C5.38741 16 5.27811 15.962 5.18981 15.8921C5.10151 15.8223 5.03937 15.7247 5.01346 15.6151C4.98754 15.5055 4.99936 15.3904 5.04701 15.2884C5.09466 15.1864 5.17534 15.1034 5.276 15.053C6.032 14.675 6.553 14.303 6.904 13.997C6.52356 13.9726 6.16668 13.8043 5.9059 13.5262C5.64511 13.2481 5.49998 12.8812 5.5 12.5V1.5ZM7 1C6.86739 1 6.74021 1.05268 6.64644 1.14645C6.55268 1.24021 6.5 1.36739 6.5 1.5V12.5C6.5 12.6326 6.55268 12.7598 6.64644 12.8536C6.74021 12.9473 6.86739 13 7 13H9C9.13261 13 9.25978 12.9473 9.35355 12.8536C9.44732 12.7598 9.5 12.6326 9.5 12.5V1.5C9.5 1.36739 9.44732 1.24021 9.35355 1.14645C9.25978 1.05268 9.13261 1 9 1H7Z" fill="currentColor"/>
<path d="M8.5 2.5C8.5 2.63261 8.44732 2.75979 8.35355 2.85355C8.25979 2.94732 8.13261 3 8 3C7.86739 3 7.74021 2.94732 7.64645 2.85355C7.55268 2.75979 7.5 2.63261 7.5 2.5C7.5 2.36739 7.55268 2.24021 7.64645 2.14645C7.74021 2.05268 7.86739 2 8 2C8.13261 2 8.25979 2.05268 8.35355 2.14645C8.44732 2.24021 8.5 2.36739 8.5 2.5ZM8.5 4.5C8.5 4.63261 8.44732 4.75979 8.35355 4.85355C8.25979 4.94732 8.13261 5 8 5C7.86739 5 7.74021 4.94732 7.64645 4.85355C7.55268 4.75979 7.5 4.63261 7.5 4.5C7.5 4.36739 7.55268 4.24021 7.64645 4.14645C7.74021 4.05268 7.86739 4 8 4C8.13261 4 8.25979 4.05268 8.35355 4.14645C8.44732 4.24021 8.5 4.36739 8.5 4.5V4.5ZM8.5 6.5C8.5 6.63261 8.44732 6.75979 8.35355 6.85355C8.25979 6.94732 8.13261 7 8 7C7.86739 7 7.74021 6.94732 7.64645 6.85355C7.55268 6.75979 7.5 6.63261 7.5 6.5C7.5 6.36739 7.55268 6.24021 7.64645 6.14645C7.74021 6.05268 7.86739 6 8 6C8.13261 6 8.25979 6.05268 8.35355 6.14645C8.44732 6.24021 8.5 6.36739 8.5 6.5V6.5ZM8.5 8.5C8.5 8.63261 8.44732 8.75979 8.35355 8.85355C8.25979 8.94732 8.13261 9 8 9C7.86739 9 7.74021 8.94732 7.64645 8.85355C7.55268 8.75979 7.5 8.63261 7.5 8.5C7.5 8.36739 7.55268 8.24021 7.64645 8.14645C7.74021 8.05268 7.86739 8 8 8C8.13261 8 8.25979 8.05268 8.35355 8.14645C8.44732 8.24021 8.5 8.36739 8.5 8.5Z" fill="currentColor"/>
</svg>
