<svg width="16" height="16" viewBox="0 0 16 16" fill="none" xmlns="http://www.w3.org/2000/svg">
<path d="M7 0C6.60217 0 6.22064 0.158035 5.93934 0.43934C5.65803 0.720644 5.5 1.10218 5.5 1.5V12.5C5.49998 12.8812 5.64511 13.2481 5.9059 13.5262C6.16668 13.8043 6.52356 13.9726 6.904 13.997C6.554 14.302 6.032 14.675 5.276 15.053C5.17534 15.1034 5.09466 15.1864 5.04701 15.2884C4.99936 15.3904 4.98754 15.5055 5.01346 15.6151C5.03937 15.7247 5.10151 15.8223 5.18981 15.8921C5.27811 15.962 5.38741 16 5.5 16H10.5C10.6126 16 10.7219 15.962 10.8102 15.8921C10.8985 15.8223 10.9606 15.7247 10.9865 15.6151C11.0125 15.5055 11.0006 15.3904 10.953 15.2884C10.9053 15.1864 10.8247 15.1034 10.724 15.053C9.968 14.675 9.446 14.303 9.096 13.997C9.47644 13.9726 9.83331 13.8043 10.0941 13.5262C10.3549 13.2481 10.5 12.8812 10.5 12.5V1.5C10.5 1.10218 10.342 0.720644 10.0607 0.43934C9.77935 0.158035 9.39782 0 9 0L7 0ZM8 3C7.86739 3 7.74021 2.94732 7.64644 2.85355C7.55268 2.75979 7.5 2.63261 7.5 2.5C7.5 2.36739 7.55268 2.24021 7.64644 2.14645C7.74021 2.05268 7.86739 2 8 2C8.13261 2 8.25978 2.05268 8.35355 2.14645C8.44732 2.24021 8.5 2.36739 8.5 2.5C8.5 2.63261 8.44732 2.75979 8.35355 2.85355C8.25978 2.94732 8.13261 3 8 3ZM8 5C7.86739 5 7.74021 4.94732 7.64644 4.85355C7.55268 4.75979 7.5 4.63261 7.5 4.5C7.5 4.36739 7.55268 4.24021 7.64644 4.14645C7.74021 4.05268 7.86739 4 8 4C8.13261 4 8.25978 4.05268 8.35355 4.14645C8.44732 4.24021 8.5 4.36739 8.5 4.5C8.5 4.63261 8.44732 4.75979 8.35355 4.85355C8.25978 4.94732 8.13261 5 8 5ZM8.5 6.5C8.5 6.63261 8.44732 6.75979 8.35355 6.85355C8.25978 6.94732 8.13261 7 8 7C7.86739 7 7.74021 6.94732 7.64644 6.85355C7.55268 6.75979 7.5 6.63261 7.5 6.5C7.5 6.36739 7.55268 6.24021 7.64644 6.14645C7.74021 6.05268 7.86739 6 8 6C8.13261 6 8.25978 6.05268 8.35355 6.14645C8.44732 6.24021 8.5 6.36739 8.5 6.5V6.5ZM8 9C7.86739 9 7.74021 8.94732 7.64644 8.85355C7.55268 8.75979 7.5 8.63261 7.5 8.5C7.5 8.36739 7.55268 8.24021 7.64644 8.14645C7.74021 8.05268 7.86739 8 8 8C8.13261 8 8.25978 8.05268 8.35355 8.14645C8.44732 8.24021 8.5 8.36739 8.5 8.5C8.5 8.63261 8.44732 8.75979 8.35355 8.85355C8.25978 8.94732 8.13261 9 8 9Z" fill="#1B1B1B"/>
</svg>
