<svg width="16" height="16" viewBox="0 0 16 16" fill="none" xmlns="http://www.w3.org/2000/svg">
<g clip-path="url(#clip0_1419_1539)">
<path d="M8.21101 2.04719C8.14492 2.01643 8.07291 2.00049 8.00001 2.00049C7.92711 2.00049 7.8551 2.01643 7.78901 2.04719L0.289011 5.54719C0.200693 5.58841 0.126349 5.65455 0.0751219 5.73747C0.0238946 5.82038 -0.00198212 5.91646 0.000674054 6.01389C0.00333023 6.11132 0.0344035 6.20585 0.0900724 6.28585C0.145741 6.36585 0.223578 6.42784 0.314011 6.46419L7.81401 9.46419C7.9334 9.51203 8.06663 9.51203 8.18601 9.46419L14 7.14019V13.0002C13.7348 13.0002 13.4804 13.1055 13.2929 13.2931C13.1054 13.4806 13 13.735 13 14.0002V16.0002H16V14.0002C16 13.735 15.8947 13.4806 15.7071 13.2931C15.5196 13.1055 15.2652 13.0002 15 13.0002V6.73919L15.686 6.46419C15.7764 6.42784 15.8543 6.36585 15.9099 6.28585C15.9656 6.20585 15.9967 6.11132 15.9993 6.01389C16.002 5.91646 15.9761 5.82038 15.9249 5.73747C15.8737 5.65455 15.7993 5.58841 15.711 5.54719L8.21101 2.04719V2.04719ZM8.00001 8.46019L1.75801 5.96519L8.00001 3.05219L14.242 5.96519L8.00001 8.46019Z" fill="#1B1B1B"/>
<path d="M4.17599 9.0321C4.1116 9.00784 4.04291 8.99714 3.9742 9.00065C3.90548 9.00416 3.83824 9.02182 3.77666 9.05251C3.71509 9.08321 3.66051 9.12628 3.61634 9.17903C3.57218 9.23179 3.53938 9.29309 3.51999 9.3591L3.01999 11.0591C2.98497 11.1784 2.99568 11.3066 3.05004 11.4184C3.10441 11.5303 3.19851 11.6179 3.31399 11.6641L7.81399 13.4641C7.93337 13.5119 8.0666 13.5119 8.18599 13.4641L12.686 11.6641C12.8015 11.6179 12.8956 11.5303 12.9499 11.4184C13.0043 11.3066 13.015 11.1784 12.98 11.0591L12.48 9.3591C12.4606 9.29309 12.4278 9.23179 12.3836 9.17903C12.3395 9.12628 12.2849 9.08321 12.2233 9.05251C12.1617 9.02182 12.0945 9.00416 12.0258 9.00065C11.9571 8.99714 11.8884 9.00784 11.824 9.0321L7.99999 10.4661L4.17599 9.0321ZM4.10799 10.9051L4.32799 10.1571L7.82399 11.4681C7.93744 11.5108 8.06253 11.5108 8.17599 11.4681L11.672 10.1571L11.892 10.9051L7.99999 12.4601L4.10799 10.9041V10.9051Z" fill="#1B1B1B"/>
</g>
<defs>
<clipPath id="clip0_1419_1539">
<rect width="16" height="16" fill="white"/>
</clipPath>
</defs>
</svg>
