<svg width="16" height="16" viewBox="0 0 16 16" fill="none" xmlns="http://www.w3.org/2000/svg">
<g clip-path="url(#clip0_1419_1538)">
<path d="M8.211 2.04719C8.14491 2.01643 8.07289 2.00049 8 2.00049C7.9271 2.00049 7.85508 2.01643 7.789 2.04719L0.288996 5.54719C0.200678 5.58841 0.126334 5.65455 0.0751066 5.73747C0.0238794 5.82038 -0.00199738 5.91646 0.000658795 6.01389C0.00331497 6.11132 0.0343882 6.20585 0.0900571 6.28585C0.145726 6.36585 0.223563 6.42784 0.313996 6.46419L7.814 9.46419C7.93338 9.51203 8.06661 9.51203 8.186 9.46419L14 7.14019V13.0002C13.7348 13.0002 13.4804 13.1055 13.2929 13.2931C13.1054 13.4806 13 13.735 13 14.0002V16.0002H16V14.0002C16 13.735 15.8946 13.4806 15.7071 13.2931C15.5196 13.1055 15.2652 13.0002 15 13.0002V6.73919L15.686 6.46419C15.7764 6.42784 15.8543 6.36585 15.9099 6.28585C15.9656 6.20585 15.9967 6.11132 15.9993 6.01389C16.002 5.91646 15.9761 5.82038 15.9249 5.73747C15.8737 5.65455 15.7993 5.58841 15.711 5.54719L8.211 2.04719V2.04719Z" fill="currentColor"/>
<path d="M4.176 9.0321C4.11162 9.00784 4.04292 8.99714 3.97421 9.00065C3.9055 9.00416 3.83825 9.02182 3.77668 9.05251C3.7151 9.08321 3.66053 9.12628 3.61636 9.17903C3.57219 9.23179 3.53939 9.29309 3.52 9.3591L3.02 11.0591C2.98498 11.1784 2.9957 11.3066 3.05006 11.4184C3.10442 11.5303 3.19853 11.6179 3.314 11.6641L7.814 13.4641C7.93339 13.5119 8.06662 13.5119 8.186 13.4641L12.686 11.6641C12.8015 11.6179 12.8956 11.5303 12.9499 11.4184C13.0043 11.3066 13.015 11.1784 12.98 11.0591L12.48 9.3591C12.4606 9.29309 12.4278 9.23179 12.3836 9.17903C12.3395 9.12628 12.2849 9.08321 12.2233 9.05251C12.1618 9.02182 12.0945 9.00416 12.0258 9.00065C11.9571 8.99714 11.8884 9.00784 11.824 9.0321L8 10.4661L4.176 9.0321Z" fill="currentColor"/>
</g>
<defs>
<clipPath id="clip0_1419_1538">
<rect width="16" height="16" fill="white"/>
</clipPath>
</defs>
</svg>
