<svg width="16" height="16" viewBox="0 0 16 16" fill="none" xmlns="http://www.w3.org/2000/svg">
<path d="M11.5 2C11.6326 2 11.7598 2.05268 11.8536 2.14645C11.9473 2.24021 12 2.36739 12 2.5V9.5C12 9.63261 11.9473 9.75979 11.8536 9.85355C11.7598 9.94732 11.6326 10 11.5 10C11.3674 10 11.2402 9.94732 11.1464 9.85355C11.0527 9.75979 11 9.63261 11 9.5V2.5C11 2.36739 11.0527 2.24021 11.1464 2.14645C11.2402 2.05268 11.3674 2 11.5 2V2ZM13.5 2C13.6326 2 13.7598 2.05268 13.8536 2.14645C13.9473 2.24021 14 2.36739 14 2.5V9.5C14 9.63261 13.9473 9.75979 13.8536 9.85355C13.7598 9.94732 13.6326 10 13.5 10C13.3674 10 13.2402 9.94732 13.1464 9.85355C13.0527 9.75979 13 9.63261 13 9.5V2.5C13 2.36739 13.0527 2.24021 13.1464 2.14645C13.2402 2.05268 13.3674 2 13.5 2V2ZM3.5 10C3.36739 10 3.24021 10.0527 3.14645 10.1464C3.05268 10.2402 3 10.3674 3 10.5C3 10.6326 3.05268 10.7598 3.14645 10.8536C3.24021 10.9473 3.36739 11 3.5 11H9.5C9.63261 11 9.75979 10.9473 9.85355 10.8536C9.94732 10.7598 10 10.6326 10 10.5C10 10.3674 9.94732 10.2402 9.85355 10.1464C9.75979 10.0527 9.63261 10 9.5 10H3.5ZM3.5 12C3.36739 12 3.24021 12.0527 3.14645 12.1464C3.05268 12.2402 3 12.3674 3 12.5C3 12.6326 3.05268 12.7598 3.14645 12.8536C3.24021 12.9473 3.36739 13 3.5 13H9.5C9.63261 13 9.75979 12.9473 9.85355 12.8536C9.94732 12.7598 10 12.6326 10 12.5C10 12.3674 9.94732 12.2402 9.85355 12.1464C9.75979 12.0527 9.63261 12 9.5 12H3.5ZM5 3C4.73478 3 4.48043 3.10536 4.29289 3.29289C4.10536 3.48043 4 3.73478 4 4H3.5C3.36739 4 3.24021 4.05268 3.14645 4.14645C3.05268 4.24021 3 4.36739 3 4.5C3 4.63261 3.05268 4.75979 3.14645 4.85355C3.24021 4.94732 3.36739 5 3.5 5H4V6H3.5C3.36739 6 3.24021 6.05268 3.14645 6.14645C3.05268 6.24021 3 6.36739 3 6.5C3 6.63261 3.05268 6.75979 3.14645 6.85355C3.24021 6.94732 3.36739 7 3.5 7H4C4 7.26522 4.10536 7.51957 4.29289 7.70711C4.48043 7.89464 4.73478 8 5 8V8.5C5 8.63261 5.05268 8.75979 5.14645 8.85355C5.24021 8.94732 5.36739 9 5.5 9C5.63261 9 5.75979 8.94732 5.85355 8.85355C5.94732 8.75979 6 8.63261 6 8.5V8H7V8.5C7 8.63261 7.05268 8.75979 7.14645 8.85355C7.24021 8.94732 7.36739 9 7.5 9C7.63261 9 7.75979 8.94732 7.85355 8.85355C7.94732 8.75979 8 8.63261 8 8.5V8C8.26522 8 8.51957 7.89464 8.70711 7.70711C8.89464 7.51957 9 7.26522 9 7H9.5C9.63261 7 9.75979 6.94732 9.85355 6.85355C9.94732 6.75979 10 6.63261 10 6.5C10 6.36739 9.94732 6.24021 9.85355 6.14645C9.75979 6.05268 9.63261 6 9.5 6H9V5H9.5C9.63261 5 9.75979 4.94732 9.85355 4.85355C9.94732 4.75979 10 4.63261 10 4.5C10 4.36739 9.94732 4.24021 9.85355 4.14645C9.75979 4.05268 9.63261 4 9.5 4H9C9 3.73478 8.89464 3.48043 8.70711 3.29289C8.51957 3.10536 8.26522 3 8 3V2.5C8 2.36739 7.94732 2.24021 7.85355 2.14645C7.75979 2.05268 7.63261 2 7.5 2C7.36739 2 7.24021 2.05268 7.14645 2.14645C7.05268 2.24021 7 2.36739 7 2.5V3H6V2.5C6 2.36739 5.94732 2.24021 5.85355 2.14645C5.75979 2.05268 5.63261 2 5.5 2C5.36739 2 5.24021 2.05268 5.14645 2.14645C5.05268 2.24021 5 2.36739 5 2.5V3ZM5 4H8V7H5V4ZM11.5 11C11.3674 11 11.2402 11.0527 11.1464 11.1464C11.0527 11.2402 11 11.3674 11 11.5V12.5C11 12.6326 11.0527 12.7598 11.1464 12.8536C11.2402 12.9473 11.3674 13 11.5 13H13.5C13.6326 13 13.7598 12.9473 13.8536 12.8536C13.9473 12.7598 14 12.6326 14 12.5V11.5C14 11.3674 13.9473 11.2402 13.8536 11.1464C13.7598 11.0527 13.6326 11 13.5 11H11.5Z" fill="currentColor"/>
<path d="M1 2C1 1.46957 1.21071 0.960859 1.58579 0.585786C1.96086 0.210714 2.46957 0 3 0L14 0C14.5304 0 15.0391 0.210714 15.4142 0.585786C15.7893 0.960859 16 1.46957 16 2V13C16 13.5304 15.7893 14.0391 15.4142 14.4142C15.0391 14.7893 14.5304 15 14 15H3C2.46957 15 1.96086 14.7893 1.58579 14.4142C1.21071 14.0391 1 13.5304 1 13V11H0.5C0.367392 11 0.240215 10.9473 0.146447 10.8536C0.0526784 10.7598 0 10.6326 0 10.5V9.5C0 9.36739 0.0526784 9.24021 0.146447 9.14645C0.240215 9.05268 0.367392 9 0.5 9H1V8H0.5C0.367392 8 0.240215 7.94732 0.146447 7.85355C0.0526784 7.75979 0 7.63261 0 7.5V6.5C0 6.36739 0.0526784 6.24021 0.146447 6.14645C0.240215 6.05268 0.367392 6 0.5 6H1V5H0.5C0.367392 5 0.240215 4.94732 0.146447 4.85355C0.0526784 4.75979 0 4.63261 0 4.5V2.5C0 2.36739 0.0526784 2.24021 0.146447 2.14645C0.240215 2.05268 0.367392 2 0.5 2H1ZM2 13C2 13.2652 2.10536 13.5196 2.29289 13.7071C2.48043 13.8946 2.73478 14 3 14H14C14.2652 14 14.5196 13.8946 14.7071 13.7071C14.8946 13.5196 15 13.2652 15 13V2C15 1.73478 14.8946 1.48043 14.7071 1.29289C14.5196 1.10536 14.2652 1 14 1H3C2.73478 1 2.48043 1.10536 2.29289 1.29289C2.10536 1.48043 2 1.73478 2 2V13Z" fill="currentColor"/>
</svg>
