<svg width="16" height="16" viewBox="0 0 16 16" fill="none" xmlns="http://www.w3.org/2000/svg">
<path d="M9 13C9 14.105 7.88 15 6.5 15C5.12 15 4 14.105 4 13C4 11.895 5.12 11 6.5 11C7.88 11 9 11.895 9 13Z" fill="currentColor"/>
<path fill-rule="evenodd" clip-rule="evenodd" d="M9 3V13H8V3H9Z" fill="currentColor"/>
<path d="M8 2.8201C8.00014 2.58901 8.08031 2.3651 8.22689 2.18643C8.37346 2.00777 8.57739 1.88539 8.804 1.8401L11.804 1.2401C11.949 1.21111 12.0987 1.21465 12.2422 1.25047C12.3856 1.28628 12.5194 1.35347 12.6338 1.44721C12.7482 1.54094 12.8404 1.65888 12.9037 1.79253C12.967 1.92618 12.9999 2.07221 13 2.2201V4.0001L8 5.0001V2.8201Z" fill="currentColor"/>
</svg>
