<svg width="16" height="16" viewBox="0 0 16 16" fill="none" xmlns="http://www.w3.org/2000/svg">
<g clip-path="url(#clip0_1419_1972)">
<path d="M9.34 8.005C9.34 3.625 9.35 0.033 9.363 0.023C9.373 0.01 10.036 0 10.831 0C11.984 0 12.341 0.01 12.574 0.05C14.304 0.348 15.619 1.65 15.947 3.376C15.993 3.618 16 4.185 16 7.986C16 12.046 16.005 12.523 15.877 12.962C15.855 13.038 15.829 13.112 15.797 13.204C15.5445 13.9411 15.089 14.5919 14.4829 15.0814C13.8768 15.5709 13.1447 15.8793 12.371 15.971C12.054 16.004 9.482 16.017 9.393 15.984C9.343 15.964 9.34 15.232 9.34 8.005V8.005ZM14.015 8.274C13.9281 8.02384 13.7812 7.7988 13.5871 7.61854C13.3931 7.43829 13.1579 7.30832 12.902 7.24C12.503 7.13659 12.0795 7.19024 11.7189 7.38989C11.3584 7.58954 11.0881 7.91996 10.964 8.313C10.8815 8.61863 10.8767 8.94003 10.95 9.248C11.0721 9.64714 11.3425 9.98433 11.7055 10.1902C12.0686 10.3961 12.4968 10.4551 12.902 10.355C13.412 10.219 13.81 9.851 14.012 9.327C14.122 9.042 14.125 8.585 14.015 8.274ZM3.71 3.317C3.502 3.357 3.184 3.516 3.015 3.665C2.667 3.966 2.495 4.394 2.521 4.897C2.534 5.159 2.551 5.229 2.657 5.441C2.812 5.762 3.047 5.997 3.369 6.156C3.591 6.266 3.647 6.279 3.936 6.289C4.197 6.299 4.29 6.289 4.466 6.229C5.185 5.987 5.619 5.289 5.496 4.573C5.354 3.721 4.546 3.151 3.71 3.317V3.317Z" fill="#1B1B1B"/>
<path d="M3.425 0.0529703C2.64755 0.190085 1.92557 0.546841 1.34436 1.0811C0.763146 1.61535 0.346975 2.30479 0.145004 3.06797C3.65078e-06 3.62797 -0.00999635 3.95597 0.00500365 8.29997C0.0150036 12.29 0.0190036 12.382 0.0850036 12.69C0.453004 14.35 1.633 15.534 3.309 15.925C3.529 15.975 3.806 15.985 5.599 15.995C7.455 16.007 7.647 16.004 7.696 15.955C7.746 15.905 7.749 15.265 7.749 8.01497C7.749 2.64097 7.739 0.10897 7.716 0.0629703C7.683 0.00297029 7.626 -2.97084e-05 5.686 0.00297029C4.108 0.00697029 3.634 0.0169703 3.426 0.0529703H3.425ZM6.425 14.718L5.075 14.702C3.833 14.689 3.7 14.682 3.452 14.619C2.9358 14.4916 2.46635 14.2203 2.09816 13.8367C1.72998 13.4531 1.47818 12.973 1.372 12.452C1.298 12.117 1.298 3.87297 1.368 3.54497C1.46419 3.08883 1.67099 2.66332 1.97021 2.30585C2.26944 1.94839 2.65191 1.66993 3.084 1.49497C3.522 1.31897 3.724 1.29897 5.142 1.29497L6.424 1.29197V14.718H6.425Z" fill="#1B1B1B"/>
</g>
<defs>
<clipPath id="clip0_1419_1972">
<rect width="16" height="16" fill="white"/>
</clipPath>
</defs>
</svg>
