<svg width="16" height="16" viewBox="0 0 16 16" fill="none" xmlns="http://www.w3.org/2000/svg">
<path d="M4.57999 1C4.40373 1.00006 4.23061 1.0467 4.07818 1.13521C3.92575 1.22372 3.79942 1.35095 3.71199 1.504L0.283991 7.504C0.1977 7.65506 0.152313 7.82603 0.152313 8C0.152313 8.17397 0.1977 8.34494 0.283991 8.496L3.71199 14.496C3.79942 14.6491 3.92575 14.7763 4.07818 14.8648C4.23061 14.9533 4.40373 14.9999 4.57999 15H11.42C11.5963 14.9999 11.7694 14.9533 11.9218 14.8648C12.0742 14.7763 12.2006 14.6491 12.288 14.496L15.717 8.496C15.8033 8.34494 15.8487 8.17397 15.8487 8C15.8487 7.82603 15.8033 7.65506 15.717 7.504L12.288 1.504C12.2006 1.35095 12.0742 1.22372 11.9218 1.13521C11.7694 1.0467 11.5963 1.00006 11.42 1H4.57999ZM9.59799 10.696C9.25668 10.8961 8.87916 11.0267 8.48717 11.0803C8.09517 11.1339 7.69645 11.1094 7.31395 11.0083C6.93145 10.9072 6.57274 10.7314 6.25845 10.4911C5.94417 10.2507 5.68052 9.95061 5.4827 9.60798C5.28488 9.26535 5.15678 8.88697 5.10578 8.49463C5.05479 8.10229 5.0819 7.70374 5.18556 7.32192C5.28922 6.9401 5.46738 6.58256 5.70979 6.26988C5.95219 5.95719 6.25405 5.69555 6.59799 5.5C7.28667 5.10845 8.10226 5.00519 8.86678 5.21275C9.63131 5.42032 10.2827 5.92186 10.6788 6.60792C11.0749 7.29398 11.1836 8.10887 10.9811 8.87475C10.7786 9.64064 10.2814 10.2953 9.59799 10.696V10.696Z" fill="currentColor"/>
</svg>
