<svg width="16" height="16" viewBox="0 0 16 16" fill="none" xmlns="http://www.w3.org/2000/svg">
<path d="M11.42 2L14.848 8L11.42 14H4.57999L1.15199 8L4.57999 2H11.42ZM4.57999 1C4.40373 1.00006 4.23061 1.0467 4.07818 1.13521C3.92575 1.22372 3.79942 1.35095 3.71199 1.504L0.283991 7.504C0.1977 7.65506 0.152313 7.82603 0.152313 8C0.152313 8.17397 0.1977 8.34494 0.283991 8.496L3.71199 14.496C3.79942 14.6491 3.92575 14.7763 4.07818 14.8648C4.23061 14.9533 4.40373 14.9999 4.57999 15H11.42C11.5963 14.9999 11.7694 14.9533 11.9218 14.8648C12.0742 14.7763 12.2006 14.6491 12.288 14.496L15.717 8.496C15.8033 8.34494 15.8487 8.17397 15.8487 8C15.8487 7.82603 15.8033 7.65506 15.717 7.504L12.288 1.504C12.2006 1.35095 12.0742 1.22372 11.9218 1.13521C11.7694 1.0467 11.5963 1.00006 11.42 1H4.57999Z" fill="currentColor"/>
<path d="M6.84801 5.93313C6.5614 6.09608 6.30985 6.31412 6.10784 6.57469C5.90584 6.83526 5.75737 7.13321 5.67099 7.4514C5.5846 7.76958 5.56201 8.10171 5.60451 8.42865C5.647 8.7556 5.75375 9.07092 5.9186 9.35645C6.08346 9.64197 6.30316 9.89207 6.56506 10.0923C6.82697 10.2926 7.1259 10.4391 7.44465 10.5234C7.76339 10.6076 8.09566 10.628 8.42232 10.5834C8.74899 10.5387 9.06359 10.4299 9.34801 10.2631C9.91753 9.92925 10.3319 9.38366 10.5006 8.74542C10.6693 8.10718 10.5788 7.42811 10.2487 6.85639C9.91861 6.28467 9.37578 5.86673 8.73867 5.69376C8.10157 5.52079 7.42191 5.60684 6.84801 5.93313V5.93313ZM5.06801 9.84813C4.82882 9.44977 4.67133 9.00777 4.60475 8.54791C4.53817 8.08805 4.56382 7.61954 4.68021 7.1697C4.7966 6.71985 5.00139 6.29769 5.28265 5.92783C5.56391 5.55796 5.916 5.24781 6.31838 5.01545C6.72076 4.78308 7.16539 4.63317 7.62631 4.57445C8.08724 4.51573 8.55525 4.54937 9.00304 4.67342C9.45083 4.79747 9.86944 5.00945 10.2344 5.29698C10.5995 5.5845 10.9036 5.94184 11.129 6.34813C11.5858 7.15158 11.7063 8.1031 11.4641 8.99505C11.222 9.887 10.6368 10.647 9.83644 11.1091C9.03604 11.5712 8.08533 11.698 7.1918 11.4618C6.29826 11.2255 5.53444 10.6454 5.06701 9.84813H5.06801Z" fill="currentColor"/>
</svg>
