<svg width="16" height="16" viewBox="0 0 16 16" fill="none" xmlns="http://www.w3.org/2000/svg">
<g clip-path="url(#clip0_1419_2187)">
<path d="M8 6C8.79565 6 9.55871 6.31607 10.1213 6.87868C10.6839 7.44129 11 8.20435 11 9C11 9.79565 10.6839 10.5587 10.1213 11.1213C9.55871 11.6839 8.79565 12 8 12C7.20435 12 6.44129 11.6839 5.87868 11.1213C5.31607 10.5587 5 9.79565 5 9C5 8.20435 5.31607 7.44129 5.87868 6.87868C6.44129 6.31607 7.20435 6 8 6V6ZM9 9C9 8.73478 8.89464 8.48043 8.70711 8.29289C8.51957 8.10536 8.26522 8 8 8C7.73478 8 7.48043 8.10536 7.29289 8.29289C7.10536 8.48043 7 8.73478 7 9C7 9.26522 7.10536 9.51957 7.29289 9.70711C7.48043 9.89464 7.73478 10 8 10C8.26522 10 8.51957 9.89464 8.70711 9.70711C8.89464 9.51957 9 9.26522 9 9Z" fill="#1B1B1B"/>
<path d="M2.5 15C2.3674 15 2.24022 14.9473 2.14645 14.8536C2.05268 14.7598 2 14.6326 2 14.5V11.45C1.43486 11.3352 0.926766 11.0286 0.561815 10.5821C0.196863 10.1356 -0.00250244 9.57668 -0.00250244 9C-0.00250244 8.42332 0.196863 7.86438 0.561815 7.41787C0.926766 6.97137 1.43486 6.66476 2 6.55V4.5C1.99989 4.4343 2.01272 4.36921 2.03777 4.30847C2.06282 4.24773 2.0996 4.19252 2.146 4.146L4.146 2.146C4.19252 2.0996 4.24773 2.06282 4.30847 2.03777C4.36921 2.01272 4.4343 1.99988 4.5 2H11.5C11.5657 1.99988 11.6308 2.01272 11.6915 2.03777C11.7523 2.06282 11.8075 2.0996 11.854 2.146L13.854 4.146C13.9004 4.19252 13.9372 4.24773 13.9622 4.30847C13.9873 4.36921 14.0001 4.4343 14 4.5V6.55C14.5651 6.66476 15.0732 6.97137 15.4382 7.41787C15.8031 7.86438 16.0025 8.42332 16.0025 9C16.0025 9.57668 15.8031 10.1356 15.4382 10.5821C15.0732 11.0286 14.5651 11.3352 14 11.45V14.5C14 14.6326 13.9473 14.7598 13.8536 14.8536C13.7598 14.9473 13.6326 15 13.5 15H2.5ZM8 5C6.93914 5 5.92172 5.42143 5.17158 6.17157C4.42143 6.92172 4 7.93913 4 9C4 10.0609 4.42143 11.0783 5.17158 11.8284C5.92172 12.5786 6.93914 13 8 13C9.06087 13 10.0783 12.5786 10.8284 11.8284C11.5786 11.0783 12 10.0609 12 9C12 7.93913 11.5786 6.92172 10.8284 6.17157C10.0783 5.42143 9.06087 5 8 5Z" fill="#1B1B1B"/>
</g>
<defs>
<clipPath id="clip0_1419_2187">
<rect width="16" height="16" fill="white"/>
</clipPath>
</defs>
</svg>
