<svg width="16" height="16" viewBox="0 0 16 16" fill="none" xmlns="http://www.w3.org/2000/svg">
<g clip-path="url(#clip0_1419_2188)">
<path d="M8 10C8.26522 10 8.51957 9.89464 8.70711 9.70711C8.89464 9.51957 9 9.26522 9 9C9 8.73478 8.89464 8.48043 8.70711 8.29289C8.51957 8.10536 8.26522 8 8 8C7.73478 8 7.48043 8.10536 7.29289 8.29289C7.10536 8.48043 7 8.73478 7 9C7 9.26522 7.10536 9.51957 7.29289 9.70711C7.48043 9.89464 7.73478 10 8 10Z" fill="currentColor"/>
<path d="M4.5 9C4.5 8.07174 4.86875 7.1815 5.52513 6.52513C6.1815 5.86875 7.07174 5.5 8 5.5C8.92826 5.5 9.8185 5.86875 10.4749 6.52513C11.1313 7.1815 11.5 8.07174 11.5 9C11.5 9.92826 11.1313 10.8185 10.4749 11.4749C9.8185 12.1313 8.92826 12.5 8 12.5C7.07174 12.5 6.1815 12.1313 5.52513 11.4749C4.86875 10.8185 4.5 9.92826 4.5 9ZM8 6.5C7.33696 6.5 6.70107 6.76339 6.23223 7.23223C5.76339 7.70107 5.5 8.33696 5.5 9C5.5 9.66304 5.76339 10.2989 6.23223 10.7678C6.70107 11.2366 7.33696 11.5 8 11.5C8.66304 11.5 9.29893 11.2366 9.76777 10.7678C10.2366 10.2989 10.5 9.66304 10.5 9C10.5 8.33696 10.2366 7.70107 9.76777 7.23223C9.29893 6.76339 8.66304 6.5 8 6.5V6.5Z" fill="currentColor"/>
<path d="M2 14.5C2 14.6326 2.05268 14.7598 2.14645 14.8536C2.24022 14.9473 2.3674 15 2.5 15H13.5C13.6326 15 13.7598 14.9473 13.8536 14.8536C13.9473 14.7598 14 14.6326 14 14.5V11.45C14.5651 11.3352 15.0732 11.0286 15.4382 10.5821C15.8031 10.1356 16.0025 9.57668 16.0025 9C16.0025 8.42332 15.8031 7.86438 15.4382 7.41787C15.0732 6.97137 14.5651 6.66476 14 6.55V4.5C14.0001 4.4343 13.9873 4.36921 13.9622 4.30847C13.9372 4.24773 13.9004 4.19252 13.854 4.146L11.854 2.146C11.8075 2.0996 11.7523 2.06282 11.6915 2.03777C11.6308 2.01272 11.5657 1.99988 11.5 2H4.5C4.4343 1.99988 4.36921 2.01272 4.30847 2.03777C4.24773 2.06282 4.19252 2.0996 4.146 2.146L2.146 4.146C2.0996 4.19252 2.06282 4.24773 2.03777 4.30847C2.01272 4.36921 1.99989 4.4343 2 4.5V6.55C1.43486 6.66476 0.926766 6.97137 0.561815 7.41787C0.196863 7.86438 -0.00250244 8.42332 -0.00250244 9C-0.00250244 9.57668 0.196863 10.1356 0.561815 10.5821C0.926766 11.0286 1.43486 11.3352 2 11.45V14.5ZM3 14V11C3 10.8674 2.94733 10.7402 2.85356 10.6464C2.75979 10.5527 2.63261 10.5 2.5 10.5C2.10218 10.5 1.72065 10.342 1.43934 10.0607C1.15804 9.77936 1 9.39783 1 9C1 8.60218 1.15804 8.22065 1.43934 7.93934C1.72065 7.65804 2.10218 7.5 2.5 7.5C2.63261 7.5 2.75979 7.44732 2.85356 7.35355C2.94733 7.25979 3 7.13261 3 7V4.707L4.707 3H11.293L13 4.707V7C13 7.13261 13.0527 7.25979 13.1465 7.35355C13.2402 7.44732 13.3674 7.5 13.5 7.5C13.8978 7.5 14.2794 7.65804 14.5607 7.93934C14.842 8.22065 15 8.60218 15 9C15 9.39783 14.842 9.77936 14.5607 10.0607C14.2794 10.342 13.8978 10.5 13.5 10.5C13.3674 10.5 13.2402 10.5527 13.1465 10.6464C13.0527 10.7402 13 10.8674 13 11V14H3Z" fill="currentColor"/>
</g>
<defs>
<clipPath id="clip0_1419_2188">
<rect width="16" height="16" fill="white"/>
</clipPath>
</defs>
</svg>
