<svg width="16" height="16" viewBox="0 0 16 16" fill="none" xmlns="http://www.w3.org/2000/svg">
<path d="M6.192 2.77987C5.734 2.10287 5.265 1.53186 4.842 1.13686C4.6321 0.931028 4.39283 0.757471 4.132 0.621865C3.915 0.517865 3.572 0.416865 3.25 0.601865C2.883 0.814865 2.823 1.23187 2.82 1.49787C2.817 1.80187 2.884 2.16187 2.993 2.54187C3.189 3.22887 3.549 4.06986 4.028 4.94386L0.751996 8.21987C0.474996 8.49687 0.482996 8.87586 0.533996 9.13786C0.588996 9.42086 0.720996 9.73086 0.893996 10.0409C1.242 10.6679 1.814 11.4019 2.52 12.1089C3.227 12.8159 3.961 13.3869 4.588 13.7349C4.898 13.9079 5.208 14.0399 5.491 14.0949C5.753 14.1449 6.131 14.1539 6.409 13.8769L12.024 8.26187C12.142 8.51887 12.116 8.77386 12.074 9.20086C12.044 9.49286 12.006 9.86586 12.001 10.3769V10.4999H12.004C12.025 10.7497 12.139 10.9826 12.3236 11.1523C12.5082 11.3221 12.7497 11.4163 13.0005 11.4163C13.2512 11.4163 13.4928 11.3221 13.6774 11.1523C13.862 10.9826 13.976 10.7497 13.997 10.4999H14V10.4429C14.0009 10.4038 13.9996 10.3648 13.996 10.3259C13.941 9.07586 13.296 7.58786 12.136 6.83186C12.0738 6.68338 12.0034 6.53849 11.925 6.39786C11.576 5.77186 11.005 5.03786 10.298 4.33086C9.591 3.62386 8.857 3.05187 8.23 2.70387C7.92 2.53187 7.61 2.39987 7.327 2.34387C7.065 2.29387 6.687 2.28587 6.409 2.56287L6.192 2.77887V2.77987ZM4.16 1.86686C4.541 2.22286 5.004 2.78887 5.471 3.49887L4.767 4.20387C4.385 3.47687 4.107 2.80186 3.954 2.26586C3.88696 2.04672 3.84305 1.82116 3.823 1.59286C3.914 1.65386 4.027 1.74286 4.16 1.86686ZM4.554 5.83186C5.094 6.68386 5.661 7.39886 6.161 7.86486C6.20906 7.90965 6.26547 7.94452 6.32701 7.9675C6.38856 7.99048 6.45402 8.00111 6.51967 7.99879C6.58532 7.99647 6.64988 7.98124 6.70964 7.95397C6.76941 7.9267 6.82321 7.88793 6.868 7.83987C6.91278 7.7918 6.94765 7.73539 6.97063 7.67385C6.99361 7.6123 7.00424 7.54684 7.00192 7.48119C6.9996 7.41554 6.98437 7.35099 6.9571 7.29122C6.92983 7.23145 6.89106 7.17765 6.843 7.13286C6.39 6.71086 5.826 5.99686 5.279 5.10587L6.367 4.01787C6.421 4.13787 6.482 4.26086 6.55 4.38286C6.899 5.00986 7.47 5.74387 8.177 6.45087C8.883 7.15787 9.617 7.72886 10.245 8.07686C10.367 8.14486 10.489 8.20687 10.61 8.25987L5.749 13.1219C5.72615 13.1199 5.70344 13.1166 5.681 13.1119C5.544 13.0849 5.339 13.0079 5.073 12.8599C4.549 12.5679 3.887 12.0599 3.227 11.3999C2.567 10.7399 2.059 10.0799 1.767 9.55386C1.62 9.28886 1.542 9.08386 1.516 8.94686C1.5113 8.92442 1.50797 8.90171 1.506 8.87886L4.554 5.83186V5.83186ZM7.424 3.89687C7.32049 3.72069 7.23952 3.53222 7.183 3.33587C7.318 3.36887 7.507 3.44586 7.745 3.57686C8.269 3.86886 8.93099 4.37687 9.59099 5.03687C10.041 5.48687 10.421 5.93787 10.709 6.34687C10.3511 6.32234 9.99156 6.35303 9.64299 6.43787C9.37923 6.21823 9.12563 5.98665 8.883 5.74387C8.223 5.08386 7.716 4.42187 7.425 3.89687H7.424Z" fill="#1B1B1B"/>
</svg>
