<svg width="16" height="16" viewBox="0 0 16 16" fill="none" xmlns="http://www.w3.org/2000/svg">
<g clip-path="url(#clip0_1419_1556)">
<path d="M5.93299 0.870195C6.20216 0.594736 6.52367 0.375856 6.87864 0.226418C7.2336 0.0769807 7.61485 0 7.99999 0C8.38513 0 8.76638 0.0769807 9.12134 0.226418C9.47631 0.375856 9.79782 0.594736 10.067 0.870195L10.689 1.5082L11.579 1.4972C11.9642 1.49264 12.3465 1.56515 12.7033 1.71048C13.0601 1.85581 13.3843 2.07102 13.6567 2.34345C13.9292 2.61589 14.1444 2.94004 14.2897 3.29686C14.435 3.65367 14.5075 4.03595 14.503 4.4212L14.493 5.3112L15.129 5.9332C15.4044 6.20237 15.6233 6.52388 15.7728 6.87884C15.9222 7.23381 15.9992 7.61506 15.9992 8.0002C15.9992 8.38533 15.9222 8.76659 15.7728 9.12155C15.6233 9.47651 15.4044 9.79803 15.129 10.0672L14.492 10.6892L14.503 11.5792C14.5075 11.9644 14.435 12.3467 14.2897 12.7035C14.1444 13.0603 13.9292 13.3845 13.6567 13.6569C13.3843 13.9294 13.0601 14.1446 12.7033 14.2899C12.3465 14.4352 11.9642 14.5078 11.579 14.5032L10.689 14.4932L10.067 15.1292C9.79782 15.4047 9.47631 15.6235 9.12134 15.773C8.76638 15.9224 8.38513 15.9994 7.99999 15.9994C7.61485 15.9994 7.2336 15.9224 6.87864 15.773C6.52367 15.6235 6.20216 15.4047 5.93299 15.1292L5.31099 14.4922L4.42099 14.5032C4.03574 14.5078 3.65347 14.4352 3.29665 14.2899C2.93983 14.1446 2.61568 13.9294 2.34325 13.6569C2.07082 13.3845 1.85561 13.0603 1.71028 12.7035C1.56495 12.3467 1.49243 11.9644 1.49699 11.5792L1.50699 10.6892L0.870989 10.0672C0.595529 9.79803 0.376649 9.47651 0.227212 9.12155C0.0777741 8.76659 0.000793457 8.38533 0.000793457 8.0002C0.000793457 7.61506 0.0777741 7.23381 0.227212 6.87884C0.376649 6.52388 0.595529 6.20237 0.870989 5.9332L1.50799 5.3112L1.49699 4.4212C1.49243 4.03595 1.56495 3.65367 1.71028 3.29686C1.85561 2.94004 2.07082 2.61589 2.34325 2.34345C2.61568 2.07102 2.93983 1.85581 3.29665 1.71048C3.65347 1.56515 4.03574 1.49264 4.42099 1.4972L5.31099 1.5072L5.93299 0.871195V0.870195ZM7.00199 11.0002C7.00199 11.1315 7.02785 11.2616 7.07811 11.3829C7.12836 11.5042 7.20202 11.6144 7.29488 11.7073C7.38774 11.8002 7.49798 11.8738 7.61931 11.9241C7.74063 11.9743 7.87067 12.0002 8.00199 12.0002C8.13331 12.0002 8.26335 11.9743 8.38467 11.9241C8.506 11.8738 8.61624 11.8002 8.7091 11.7073C8.80195 11.6144 8.87561 11.5042 8.92587 11.3829C8.97612 11.2616 9.00199 11.1315 9.00199 11.0002C9.00199 10.735 8.89663 10.4806 8.7091 10.2931C8.52156 10.1056 8.2672 10.0002 8.00199 10.0002C7.73677 10.0002 7.48242 10.1056 7.29488 10.2931C7.10735 10.4806 7.00199 10.735 7.00199 11.0002V11.0002ZM8.60399 8.9732C8.64399 8.4392 8.80199 8.1582 9.44999 7.7132C10.124 7.2382 10.5 6.6232 10.5 5.7272C10.5 4.4022 9.57999 3.5002 8.23799 3.5002C7.21799 3.5002 6.44599 3.9922 6.13799 4.7902C6.04465 5.00814 5.99766 5.24312 5.99999 5.4802C5.99999 5.8732 6.20299 6.1202 6.54499 6.1202C6.81699 6.1202 6.99999 5.9732 7.10899 5.6102C7.26699 5.0182 7.63399 4.6952 8.18299 4.6952C8.79299 4.6952 9.21299 5.1412 9.21299 5.7792C9.21299 6.3422 9.00499 6.6642 8.39099 7.1042C7.77199 7.5372 7.46499 8.0182 7.46499 8.7442V8.8552C7.46499 9.2832 7.67299 9.6002 8.04999 9.6002C8.38599 9.6002 8.55399 9.3602 8.60399 8.9732V8.9732Z" fill="#1B1B1B"/>
</g>
<defs>
<clipPath id="clip0_1419_1556">
<rect width="16" height="16" fill="white"/>
</clipPath>
</defs>
</svg>
