<svg width="16" height="16" viewBox="0 0 16 16" fill="none" xmlns="http://www.w3.org/2000/svg">
<g clip-path="url(#clip0_1419_1552)">
<path d="M7.001 11.0001C7.001 10.7349 7.10636 10.4805 7.29389 10.293C7.48143 10.1055 7.73578 10.0001 8.001 10.0001C8.26622 10.0001 8.52057 10.1055 8.70811 10.293C8.89564 10.4805 9.001 10.7349 9.001 11.0001C9.001 11.2653 8.89564 11.5197 8.70811 11.7072C8.52057 11.8948 8.26622 12.0001 8.001 12.0001C7.73578 12.0001 7.48143 11.8948 7.29389 11.7072C7.10636 11.5197 7.001 11.2653 7.001 11.0001V11.0001ZM7.1 4.99512C7.08668 4.86896 7.10004 4.74141 7.1392 4.62075C7.17836 4.50008 7.24245 4.389 7.32732 4.2947C7.41218 4.20041 7.51592 4.12501 7.63181 4.0734C7.7477 4.02179 7.87314 3.99512 8 3.99512C8.12686 3.99512 8.2523 4.02179 8.36819 4.0734C8.48407 4.12501 8.58782 4.20041 8.67268 4.2947C8.75755 4.389 8.82164 4.50008 8.8608 4.62075C8.89996 4.74141 8.91332 4.86896 8.9 4.99512L8.55 8.50212C8.53578 8.63808 8.4717 8.76396 8.37013 8.85546C8.26857 8.94696 8.1367 8.99759 8 8.99759C7.86329 8.99759 7.73143 8.94696 7.62987 8.85546C7.5283 8.76396 7.46422 8.63808 7.45 8.50212L7.1 4.99512Z" fill="currentColor"/>
<path d="M10.273 2.51317L9.352 1.56917L10.067 0.871172L10.689 1.50817L11.579 1.49717C11.9642 1.49261 12.3465 1.56513 12.7033 1.71046C13.0602 1.85579 13.3843 2.071 13.6567 2.34343C13.9292 2.61586 14.1444 2.94002 14.2897 3.29683C14.435 3.65365 14.5076 4.03592 14.503 4.42117L14.493 5.31117L15.129 5.93317C15.4045 6.20234 15.6233 6.52386 15.7728 6.87882C15.9222 7.23378 15.9992 7.61503 15.9992 8.00017C15.9992 8.38531 15.9222 8.76656 15.7728 9.12152C15.6233 9.47649 15.4045 9.798 15.129 10.0672L14.492 10.6892L14.503 11.5792C14.5076 11.9644 14.435 12.3467 14.2897 12.7035C14.1444 13.0603 13.9292 13.3845 13.6567 13.6569C13.3843 13.9293 13.0602 14.1446 12.7033 14.2899C12.3465 14.4352 11.9642 14.5077 11.579 14.5032L10.689 14.4932L10.067 15.1292C9.79783 15.4046 9.47631 15.6235 9.12135 15.7729C8.76639 15.9224 8.38513 15.9994 8 15.9994C7.61486 15.9994 7.23361 15.9224 6.87864 15.7729C6.52368 15.6235 6.20217 15.4046 5.933 15.1292L5.311 14.4922L4.421 14.5032C4.03575 14.5077 3.65347 14.4352 3.29666 14.2899C2.93984 14.1446 2.61569 13.9293 2.34326 13.6569C2.07082 13.3845 1.85561 13.0603 1.71028 12.7035C1.56495 12.3467 1.49244 11.9644 1.497 11.5792L1.507 10.6892L0.870996 10.0672C0.595537 9.798 0.376657 9.47649 0.227219 9.12152C0.0777818 8.76656 0.000801086 8.38531 0.000801086 8.00017C0.000801086 7.61503 0.0777818 7.23378 0.227219 6.87882C0.376657 6.52386 0.595537 6.20234 0.870996 5.93317L1.508 5.31117L1.497 4.42117C1.49244 4.03592 1.56495 3.65365 1.71028 3.29683C1.85561 2.94002 2.07082 2.61586 2.34326 2.34343C2.61569 2.071 2.93984 1.85579 3.29666 1.71046C3.65347 1.56513 4.03575 1.49261 4.421 1.49717L5.311 1.50717L5.933 0.871172C6.20217 0.595712 6.52368 0.376832 6.87864 0.227395C7.23361 0.0779572 7.61486 0.000976562 8 0.000976562C8.38513 0.000976562 8.76639 0.0779572 9.12135 0.227395C9.47631 0.376832 9.79783 0.595712 10.067 0.871172L9.352 1.56917C9.17596 1.38896 8.96567 1.24576 8.73349 1.14799C8.50131 1.05022 8.25192 0.999852 8 0.999852C7.74807 0.999852 7.49869 1.05022 7.26651 1.14799C7.03433 1.24576 6.82403 1.38896 6.648 1.56917L5.728 2.51317L4.408 2.49717C4.15617 2.49436 3.90633 2.5419 3.67314 2.637C3.43995 2.7321 3.22812 2.87285 3.05009 3.05097C2.87206 3.22909 2.73142 3.441 2.63644 3.67424C2.54146 3.90748 2.49405 4.15735 2.497 4.40917L2.513 5.72717L1.569 6.64817C1.38878 6.82421 1.24558 7.0345 1.14781 7.26668C1.05004 7.49886 0.999676 7.74825 0.999676 8.00017C0.999676 8.2521 1.05004 8.50148 1.14781 8.73366C1.24558 8.96584 1.38878 9.17613 1.569 9.35217L2.513 10.2722L2.497 11.5922C2.49418 11.844 2.54172 12.0938 2.63682 12.327C2.73193 12.5602 2.87267 12.7721 3.0508 12.9501C3.22892 13.1281 3.44083 13.2687 3.67407 13.3637C3.90731 13.4587 4.15718 13.5061 4.409 13.5032L5.727 13.4872L6.648 14.4312C6.82403 14.6114 7.03433 14.7546 7.26651 14.8524C7.49869 14.9501 7.74807 15.0005 8 15.0005C8.25192 15.0005 8.50131 14.9501 8.73349 14.8524C8.96567 14.7546 9.17596 14.6114 9.352 14.4312L10.272 13.4872L11.592 13.5032C11.8438 13.506 12.0937 13.4584 12.3269 13.3633C12.56 13.2682 12.7719 13.1275 12.9499 12.9494C13.1279 12.7712 13.2686 12.5593 13.3636 12.3261C13.4585 12.0929 13.5059 11.843 13.503 11.5912L13.487 10.2732L14.431 9.35217C14.6112 9.17613 14.7544 8.96584 14.8522 8.73366C14.95 8.50148 15.0003 8.2521 15.0003 8.00017C15.0003 7.74825 14.95 7.49886 14.8522 7.26668C14.7544 7.0345 14.6112 6.82421 14.431 6.64817L13.487 5.72817L13.503 4.40817C13.5058 4.15635 13.4583 3.9065 13.3632 3.67331C13.2681 3.44012 13.1273 3.22829 12.9492 3.05026C12.7711 2.87223 12.5592 2.7316 12.3259 2.63661C12.0927 2.54163 11.8428 2.49422 11.591 2.49717L10.273 2.51317V2.51317Z" fill="currentColor"/>
</g>
<defs>
<clipPath id="clip0_1419_1552">
<rect width="16" height="16" fill="white"/>
</clipPath>
</defs>
</svg>
