<svg width="16" height="16" viewBox="0 0 16 16" fill="none" xmlns="http://www.w3.org/2000/svg">
<g clip-path="url(#clip0_1419_1688)">
<path fill-rule="evenodd" clip-rule="evenodd" d="M10.354 6.14592C10.4006 6.19236 10.4375 6.24754 10.4627 6.30828C10.4879 6.36903 10.5009 6.43415 10.5009 6.49992C10.5009 6.56568 10.4879 6.63081 10.4627 6.69155C10.4375 6.7523 10.4006 6.80747 10.354 6.85392L7.35401 9.85392C7.30756 9.90048 7.25239 9.93742 7.19164 9.96263C7.13089 9.98784 7.06577 10.0008 7.00001 10.0008C6.93424 10.0008 6.86912 9.98784 6.80837 9.96263C6.74763 9.93742 6.69245 9.90048 6.64601 9.85392L5.14601 8.35392C5.09952 8.30743 5.06264 8.25224 5.03748 8.1915C5.01232 8.13076 4.99937 8.06566 4.99937 7.99992C4.99937 7.93417 5.01232 7.86907 5.03748 7.80833C5.06264 7.74759 5.09952 7.6924 5.14601 7.64592C5.19249 7.59943 5.24768 7.56255 5.30842 7.53739C5.36916 7.51223 5.43426 7.49929 5.50001 7.49929C5.56575 7.49929 5.63085 7.51223 5.69159 7.53739C5.75233 7.56255 5.80752 7.59943 5.85401 7.64592L7.00001 8.79292L9.64601 6.14592C9.69245 6.09935 9.74763 6.06241 9.80837 6.0372C9.86912 6.012 9.93424 5.99902 10 5.99902C10.0658 5.99902 10.1309 6.012 10.1916 6.0372C10.2524 6.06241 10.3076 6.09935 10.354 6.14592V6.14592Z" fill="#1B1B1B"/>
<path d="M10.273 2.51293L9.352 1.56893L10.067 0.870928L10.689 1.50793L11.579 1.49693C11.9643 1.49237 12.3465 1.56489 12.7033 1.71022C13.0602 1.85555 13.3843 2.07075 13.6567 2.34319C13.9292 2.61562 14.1444 2.93977 14.2897 3.29659C14.435 3.65341 14.5076 4.03568 14.503 4.42093L14.493 5.31093L15.129 5.93293C15.4045 6.2021 15.6233 6.52361 15.7728 6.87857C15.9222 7.23354 15.9992 7.61479 15.9992 7.99993C15.9992 8.38506 15.9222 8.76632 15.7728 9.12128C15.6233 9.47624 15.4045 9.79776 15.129 10.0669L14.492 10.6889L14.503 11.5789C14.5076 11.9642 14.435 12.3465 14.2897 12.7033C14.1444 13.0601 13.9292 13.3842 13.6567 13.6567C13.3843 13.9291 13.0602 14.1443 12.7033 14.2896C12.3465 14.435 11.9643 14.5075 11.579 14.5029L10.689 14.4929L10.067 15.1289C9.79783 15.4044 9.47632 15.6233 9.12136 15.7727C8.76639 15.9221 8.38514 15.9991 8 15.9991C7.61487 15.9991 7.23361 15.9221 6.87865 15.7727C6.52369 15.6233 6.20217 15.4044 5.933 15.1289L5.311 14.4919L4.421 14.5029C4.03575 14.5075 3.65348 14.435 3.29667 14.2896C2.93985 14.1443 2.6157 13.9291 2.34326 13.6567C2.07083 13.3842 1.85562 13.0601 1.71029 12.7033C1.56496 12.3465 1.49244 11.9642 1.497 11.5789L1.507 10.6889L0.871004 10.0669C0.595544 9.79776 0.376665 9.47624 0.227227 9.12128C0.0777894 8.76632 0.000808716 8.38506 0.000808716 7.99993C0.000808716 7.61479 0.0777894 7.23354 0.227227 6.87857C0.376665 6.52361 0.595544 6.2021 0.871004 5.93293L1.508 5.31093L1.497 4.42093C1.49244 4.03568 1.56496 3.65341 1.71029 3.29659C1.85562 2.93977 2.07083 2.61562 2.34326 2.34319C2.6157 2.07075 2.93985 1.85555 3.29667 1.71022C3.65348 1.56489 4.03575 1.49237 4.421 1.49693L5.311 1.50693L5.933 0.870928C6.20217 0.595468 6.52369 0.376588 6.87865 0.227151C7.23361 0.0777131 7.61487 0.000732422 8 0.000732422C8.38514 0.000732422 8.76639 0.0777131 9.12136 0.227151C9.47632 0.376588 9.79783 0.595468 10.067 0.870928L9.352 1.56893C9.17597 1.38871 8.96567 1.24551 8.73349 1.14774C8.50131 1.04997 8.25193 0.999608 8 0.999608C7.74808 0.999608 7.49869 1.04997 7.26651 1.14774C7.03433 1.24551 6.82404 1.38871 6.648 1.56893L5.728 2.51293L4.408 2.49693C4.15618 2.49411 3.90634 2.54165 3.67315 2.63675C3.43996 2.73186 3.22812 2.8726 3.05009 3.05073C2.87206 3.22885 2.73143 3.44076 2.63645 3.674C2.54147 3.90724 2.49406 4.15711 2.497 4.40893L2.513 5.72693L1.569 6.64793C1.38879 6.82397 1.24559 7.03426 1.14782 7.26644C1.05005 7.49862 0.999684 7.748 0.999684 7.99993C0.999684 8.25185 1.05005 8.50124 1.14782 8.73342C1.24559 8.9656 1.38879 9.17589 1.569 9.35193L2.513 10.2719L2.497 11.5919C2.49419 11.8437 2.54173 12.0936 2.63683 12.3268C2.73193 12.56 2.87268 12.7718 3.0508 12.9498C3.22893 13.1279 3.44083 13.2685 3.67407 13.3635C3.90731 13.4585 4.15718 13.5059 4.409 13.5029L5.727 13.4869L6.648 14.4309C6.82404 14.6111 7.03433 14.7543 7.26651 14.8521C7.49869 14.9499 7.74808 15.0002 8 15.0002C8.25193 15.0002 8.50131 14.9499 8.73349 14.8521C8.96567 14.7543 9.17597 14.6111 9.352 14.4309L10.272 13.4869L11.592 13.5029C11.8438 13.5057 12.0937 13.4582 12.3269 13.3631C12.5601 13.268 12.7719 13.1273 12.9499 12.9491C13.1279 12.771 13.2686 12.5591 13.3636 12.3259C13.4585 12.0926 13.506 11.8427 13.503 11.5909L13.487 10.2729L14.431 9.35193C14.6112 9.17589 14.7544 8.9656 14.8522 8.73342C14.95 8.50124 15.0003 8.25185 15.0003 7.99993C15.0003 7.748 14.95 7.49862 14.8522 7.26644C14.7544 7.03426 14.6112 6.82397 14.431 6.64793L13.487 5.72793L13.503 4.40793C13.5058 4.15611 13.4583 3.90626 13.3632 3.67307C13.2681 3.43988 13.1273 3.22805 12.9492 3.05002C12.7711 2.87199 12.5592 2.73135 12.3259 2.63637C12.0927 2.54139 11.8428 2.49398 11.591 2.49693L10.273 2.51293V2.51293Z" fill="#1B1B1B"/>
</g>
<defs>
<clipPath id="clip0_1419_1688">
<rect width="16" height="16" fill="white"/>
</clipPath>
</defs>
</svg>
