<svg width="16" height="16" viewBox="0 0 16 16" fill="none" xmlns="http://www.w3.org/2000/svg">
<g clip-path="url(#clip0_1419_1557)">
<path d="M8.04999 9.6C8.38599 9.6 8.55399 9.36 8.60399 8.973C8.64399 8.439 8.80199 8.158 9.45099 7.713C10.124 7.238 10.5 6.623 10.5 5.727C10.5 4.402 9.57999 3.5 8.23799 3.5C7.21799 3.5 6.44599 3.992 6.13799 4.79C6.04465 5.00795 5.99766 5.24292 5.99999 5.48C5.99999 5.873 6.20299 6.12 6.54499 6.12C6.81699 6.12 6.99999 5.973 7.10899 5.61C7.26699 5.018 7.63399 4.695 8.18299 4.695C8.79299 4.695 9.21299 5.141 9.21299 5.779C9.21299 6.342 9.00499 6.664 8.39099 7.104C7.77199 7.537 7.46499 8.018 7.46499 8.744V8.855C7.46499 9.283 7.67299 9.6 8.04999 9.6Z" fill="#1B1B1B"/>
<path d="M10.273 2.51317L9.35199 1.56917L10.067 0.871172L10.689 1.50817L11.579 1.49717C11.9642 1.49261 12.3465 1.56513 12.7033 1.71046C13.0601 1.85579 13.3843 2.071 13.6567 2.34343C13.9292 2.61586 14.1444 2.94002 14.2897 3.29683C14.435 3.65365 14.5075 4.03592 14.503 4.42117L14.493 5.31117L15.129 5.93317C15.4044 6.20234 15.6233 6.52386 15.7728 6.87882C15.9222 7.23378 15.9992 7.61503 15.9992 8.00017C15.9992 8.38531 15.9222 8.76656 15.7728 9.12152C15.6233 9.47649 15.4044 9.798 15.129 10.0672L14.492 10.6892L14.503 11.5792C14.5075 11.9644 14.435 12.3467 14.2897 12.7035C14.1444 13.0603 13.9292 13.3845 13.6567 13.6569C13.3843 13.9293 13.0601 14.1446 12.7033 14.2899C12.3465 14.4352 11.9642 14.5077 11.579 14.5032L10.689 14.4932L10.067 15.1292C9.79782 15.4046 9.47631 15.6235 9.12134 15.7729C8.76638 15.9224 8.38513 15.9994 7.99999 15.9994C7.61485 15.9994 7.2336 15.9224 6.87864 15.7729C6.52367 15.6235 6.20216 15.4046 5.93299 15.1292L5.31099 14.4922L4.42099 14.5032C4.03574 14.5077 3.65347 14.4352 3.29665 14.2899C2.93983 14.1446 2.61568 13.9293 2.34325 13.6569C2.07082 13.3845 1.85561 13.0603 1.71028 12.7035C1.56495 12.3467 1.49243 11.9644 1.49699 11.5792L1.50699 10.6892L0.870989 10.0672C0.595529 9.798 0.376649 9.47649 0.227212 9.12152C0.0777741 8.76656 0.000793457 8.38531 0.000793457 8.00017C0.000793457 7.61503 0.0777741 7.23378 0.227212 6.87882C0.376649 6.52386 0.595529 6.20234 0.870989 5.93317L1.50799 5.31117L1.49699 4.42117C1.49243 4.03592 1.56495 3.65365 1.71028 3.29683C1.85561 2.94002 2.07082 2.61586 2.34325 2.34343C2.61568 2.071 2.93983 1.85579 3.29665 1.71046C3.65347 1.56513 4.03574 1.49261 4.42099 1.49717L5.31099 1.50717L5.93299 0.871172C6.20216 0.595712 6.52367 0.376832 6.87864 0.227395C7.2336 0.0779572 7.61485 0.000976562 7.99999 0.000976562C8.38513 0.000976562 8.76638 0.0779572 9.12134 0.227395C9.47631 0.376832 9.79782 0.595712 10.067 0.871172L9.35199 1.56917C9.17595 1.38896 8.96566 1.24576 8.73348 1.14799C8.5013 1.05022 8.25191 0.999852 7.99999 0.999852C7.74806 0.999852 7.49868 1.05022 7.2665 1.14799C7.03432 1.24576 6.82403 1.38896 6.64799 1.56917L5.72799 2.51317L4.40799 2.49717C4.15617 2.49436 3.90632 2.5419 3.67313 2.637C3.43994 2.7321 3.22811 2.87285 3.05008 3.05097C2.87205 3.22909 2.73141 3.441 2.63643 3.67424C2.54145 3.90748 2.49404 4.15735 2.49699 4.40917L2.51299 5.72717L1.56899 6.64817C1.38878 6.82421 1.24557 7.0345 1.1478 7.26668C1.05003 7.49886 0.999669 7.74825 0.999669 8.00017C0.999669 8.2521 1.05003 8.50148 1.1478 8.73366C1.24557 8.96584 1.38878 9.17613 1.56899 9.35217L2.51299 10.2722L2.49699 11.5922C2.49417 11.844 2.54171 12.0938 2.63682 12.327C2.73192 12.5602 2.87267 12.7721 3.05079 12.9501C3.22891 13.1281 3.44082 13.2687 3.67406 13.3637C3.9073 13.4587 4.15717 13.5061 4.40899 13.5032L5.72699 13.4872L6.64799 14.4312C6.82403 14.6114 7.03432 14.7546 7.2665 14.8524C7.49868 14.9501 7.74806 15.0005 7.99999 15.0005C8.25191 15.0005 8.5013 14.9501 8.73348 14.8524C8.96566 14.7546 9.17595 14.6114 9.35199 14.4312L10.272 13.4872L11.592 13.5032C11.8438 13.506 12.0937 13.4584 12.3268 13.3633C12.56 13.2682 12.7719 13.1275 12.9499 12.9494C13.1279 12.7712 13.2686 12.5593 13.3635 12.3261C13.4585 12.0929 13.5059 11.843 13.503 11.5912L13.487 10.2732L14.431 9.35217C14.6112 9.17613 14.7544 8.96584 14.8522 8.73366C14.9499 8.50148 15.0003 8.2521 15.0003 8.00017C15.0003 7.74825 14.9499 7.49886 14.8522 7.26668C14.7544 7.0345 14.6112 6.82421 14.431 6.64817L13.487 5.72817L13.503 4.40817C13.5058 4.15635 13.4583 3.9065 13.3632 3.67331C13.2681 3.44012 13.1273 3.22829 12.9492 3.05026C12.7711 2.87223 12.5592 2.7316 12.3259 2.63661C12.0927 2.54163 11.8428 2.49422 11.591 2.49717L10.273 2.51317V2.51317Z" fill="#1B1B1B"/>
<path d="M7.00101 11C7.00101 10.7348 7.10636 10.4804 7.2939 10.2929C7.48144 10.1054 7.73579 10 8.00101 10C8.26622 10 8.52058 10.1054 8.70811 10.2929C8.89565 10.4804 9.00101 10.7348 9.00101 11C9.00101 11.2652 8.89565 11.5196 8.70811 11.7071C8.52058 11.8946 8.26622 12 8.00101 12C7.73579 12 7.48144 11.8946 7.2939 11.7071C7.10636 11.5196 7.00101 11.2652 7.00101 11V11Z" fill="#1B1B1B"/>
</g>
<defs>
<clipPath id="clip0_1419_1557">
<rect width="16" height="16" fill="white"/>
</clipPath>
</defs>
</svg>
