<svg width="16" height="16" viewBox="0 0 16 16" fill="none" xmlns="http://www.w3.org/2000/svg">
<g clip-path="url(#clip0_1419_1551)">
<path d="M10.067 0.870195C9.79782 0.594736 9.47631 0.375856 9.12134 0.226418C8.76638 0.0769807 8.38513 0 7.99999 0C7.61485 0 7.2336 0.0769807 6.87864 0.226418C6.52367 0.375856 6.20216 0.594736 5.93299 0.870195L5.31099 1.5082L4.42099 1.4972C4.03574 1.49264 3.65347 1.56515 3.29665 1.71048C2.93983 1.85581 2.61568 2.07102 2.34325 2.34345C2.07082 2.61589 1.85561 2.94004 1.71028 3.29686C1.56495 3.65367 1.49243 4.03595 1.49699 4.4212L1.50699 5.3112L0.870989 5.9332C0.595529 6.20237 0.376649 6.52388 0.227212 6.87884C0.0777741 7.23381 0.000793457 7.61506 0.000793457 8.0002C0.000793457 8.38533 0.0777741 8.76659 0.227212 9.12155C0.376649 9.47651 0.595529 9.79803 0.870989 10.0672L1.50799 10.6892L1.49699 11.5792C1.49243 11.9644 1.56495 12.3467 1.71028 12.7035C1.85561 13.0603 2.07082 13.3845 2.34325 13.6569C2.61568 13.9294 2.93983 14.1446 3.29665 14.2899C3.65347 14.4352 4.03574 14.5078 4.42099 14.5032L5.31099 14.4932L5.93299 15.1292C6.20216 15.4047 6.52367 15.6235 6.87864 15.773C7.2336 15.9224 7.61485 15.9994 7.99999 15.9994C8.38513 15.9994 8.76638 15.9224 9.12134 15.773C9.47631 15.6235 9.79782 15.4047 10.067 15.1292L10.689 14.4922L11.579 14.5032C11.9642 14.5078 12.3465 14.4352 12.7033 14.2899C13.0601 14.1446 13.3843 13.9294 13.6567 13.6569C13.9292 13.3845 14.1444 13.0603 14.2897 12.7035C14.435 12.3467 14.5075 11.9644 14.503 11.5792L14.493 10.6892L15.129 10.0672C15.4044 9.79803 15.6233 9.47651 15.7728 9.12155C15.9222 8.76659 15.9992 8.38533 15.9992 8.0002C15.9992 7.61506 15.9222 7.23381 15.7728 6.87884C15.6233 6.52388 15.4044 6.20237 15.129 5.9332L14.492 5.3112L14.503 4.4212C14.5075 4.03595 14.435 3.65367 14.2897 3.29686C14.1444 2.94004 13.9292 2.61589 13.6567 2.34345C13.3843 2.07102 13.0601 1.85581 12.7033 1.71048C12.3465 1.56515 11.9642 1.49264 11.579 1.4972L10.689 1.5072L10.067 0.871195V0.870195ZM10.354 6.8542L7.35399 9.8542C7.30754 9.90076 7.25237 9.9377 7.19162 9.96291C7.13088 9.98811 7.06576 10.0011 6.99999 10.0011C6.93422 10.0011 6.8691 9.98811 6.80835 9.96291C6.74761 9.9377 6.69243 9.90076 6.64599 9.8542L5.14599 8.3542C5.0995 8.30771 5.06262 8.25252 5.03747 8.19178C5.01231 8.13104 4.99936 8.06594 4.99936 8.0002C4.99936 7.93445 5.01231 7.86935 5.03747 7.80861C5.06262 7.74787 5.0995 7.69268 5.14599 7.6462C5.19248 7.59971 5.24767 7.56283 5.3084 7.53767C5.36914 7.51251 5.43424 7.49956 5.49999 7.49956C5.56573 7.49956 5.63083 7.51251 5.69157 7.53767C5.75231 7.56283 5.8075 7.59971 5.85399 7.6462L6.99999 8.7932L9.64599 6.1462C9.73988 6.05231 9.86721 5.99956 9.99999 5.99956C10.1328 5.99956 10.2601 6.05231 10.354 6.1462C10.4479 6.24008 10.5006 6.36742 10.5006 6.5002C10.5006 6.63297 10.4479 6.76031 10.354 6.8542V6.8542Z" fill="#1B1B1B"/>
</g>
<defs>
<clipPath id="clip0_1419_1551">
<rect width="16" height="16" fill="white"/>
</clipPath>
</defs>
</svg>
