<svg width="16" height="16" viewBox="0 0 16 16" fill="none" xmlns="http://www.w3.org/2000/svg">
<g clip-path="url(#clip0_1419_1553)">
<path d="M10.067 0.870195C9.79783 0.594736 9.47631 0.375856 9.12135 0.226418C8.76639 0.0769807 8.38513 0 8 0C7.61486 0 7.23361 0.0769807 6.87864 0.226418C6.52368 0.375856 6.20217 0.594736 5.933 0.870195L5.311 1.5082L4.421 1.4972C4.03575 1.49264 3.65347 1.56515 3.29666 1.71048C2.93984 1.85581 2.61569 2.07102 2.34326 2.34345C2.07082 2.61589 1.85561 2.94004 1.71028 3.29686C1.56495 3.65367 1.49244 4.03595 1.497 4.4212L1.507 5.3112L0.870996 5.9332C0.595537 6.20237 0.376657 6.52388 0.227219 6.87884C0.0777818 7.23381 0.000801086 7.61506 0.000801086 8.0002C0.000801086 8.38533 0.0777818 8.76659 0.227219 9.12155C0.376657 9.47651 0.595537 9.79803 0.870996 10.0672L1.508 10.6892L1.497 11.5792C1.49244 11.9644 1.56495 12.3467 1.71028 12.7035C1.85561 13.0603 2.07082 13.3845 2.34326 13.6569C2.61569 13.9294 2.93984 14.1446 3.29666 14.2899C3.65347 14.4352 4.03575 14.5078 4.421 14.5032L5.311 14.4932L5.933 15.1292C6.20217 15.4047 6.52368 15.6235 6.87864 15.773C7.23361 15.9224 7.61486 15.9994 8 15.9994C8.38513 15.9994 8.76639 15.9224 9.12135 15.773C9.47631 15.6235 9.79783 15.4047 10.067 15.1292L10.689 14.4922L11.579 14.5032C11.9642 14.5078 12.3465 14.4352 12.7033 14.2899C13.0602 14.1446 13.3843 13.9294 13.6567 13.6569C13.9292 13.3845 14.1444 13.0603 14.2897 12.7035C14.435 12.3467 14.5076 11.9644 14.503 11.5792L14.493 10.6892L15.129 10.0672C15.4045 9.79803 15.6233 9.47651 15.7728 9.12155C15.9222 8.76659 15.9992 8.38533 15.9992 8.0002C15.9992 7.61506 15.9222 7.23381 15.7728 6.87884C15.6233 6.52388 15.4045 6.20237 15.129 5.9332L14.492 5.3112L14.503 4.4212C14.5076 4.03595 14.435 3.65367 14.2897 3.29686C14.1444 2.94004 13.9292 2.61589 13.6567 2.34345C13.3843 2.07102 13.0602 1.85581 12.7033 1.71048C12.3465 1.56515 11.9642 1.49264 11.579 1.4972L10.689 1.5072L10.067 0.871195V0.870195ZM6 7.5002H10C10.1326 7.5002 10.2598 7.55287 10.3535 7.64664C10.4473 7.74041 10.5 7.86759 10.5 8.0002C10.5 8.1328 10.4473 8.25998 10.3535 8.35375C10.2598 8.44752 10.1326 8.5002 10 8.5002H6C5.86739 8.5002 5.74021 8.44752 5.64644 8.35375C5.55267 8.25998 5.5 8.1328 5.5 8.0002C5.5 7.86759 5.55267 7.74041 5.64644 7.64664C5.74021 7.55287 5.86739 7.5002 6 7.5002V7.5002Z" fill="#1B1B1B"/>
</g>
<defs>
<clipPath id="clip0_1419_1553">
<rect width="16" height="16" fill="white"/>
</clipPath>
</defs>
</svg>
