<svg width="16" height="16" viewBox="0 0 16 16" fill="none" xmlns="http://www.w3.org/2000/svg">
<g clip-path="url(#clip0_1419_1689)">
<path d="M10.067 0.869951C9.79783 0.594492 9.47632 0.375612 9.12136 0.226174C8.76639 0.0767365 8.38514 -0.000244141 8 -0.000244141C7.61487 -0.000244141 7.23361 0.0767365 6.87865 0.226174C6.52369 0.375612 6.20217 0.594492 5.933 0.869951L5.311 1.50795L4.421 1.49695C4.03575 1.49239 3.65348 1.56491 3.29667 1.71024C2.93985 1.85557 2.6157 2.07078 2.34326 2.34321C2.07083 2.61564 1.85562 2.9398 1.71029 3.29661C1.56496 3.65343 1.49244 4.0357 1.497 4.42095L1.507 5.31095L0.871004 5.93295C0.595544 6.20212 0.376665 6.52364 0.227227 6.8786C0.0777894 7.23356 0.000808716 7.61481 0.000808716 7.99995C0.000808716 8.38509 0.0777894 8.76634 0.227227 9.1213C0.376665 9.47627 0.595544 9.79778 0.871004 10.067L1.508 10.689L1.497 11.579C1.49244 11.9642 1.56496 12.3465 1.71029 12.7033C1.85562 13.0601 2.07083 13.3843 2.34326 13.6567C2.6157 13.9291 2.93985 14.1443 3.29667 14.2897C3.65348 14.435 4.03575 14.5075 4.421 14.503L5.311 14.493L5.933 15.129C6.20217 15.4044 6.52369 15.6233 6.87865 15.7727C7.23361 15.9222 7.61487 15.9991 8 15.9991C8.38514 15.9991 8.76639 15.9222 9.12136 15.7727C9.47632 15.6233 9.79783 15.4044 10.067 15.129L10.689 14.492L11.579 14.503C11.9643 14.5075 12.3465 14.435 12.7033 14.2897C13.0602 14.1443 13.3843 13.9291 13.6567 13.6567C13.9292 13.3843 14.1444 13.0601 14.2897 12.7033C14.435 12.3465 14.5076 11.9642 14.503 11.579L14.493 10.689L15.129 10.067C15.4045 9.79778 15.6233 9.47627 15.7728 9.1213C15.9222 8.76634 15.9992 8.38509 15.9992 7.99995C15.9992 7.61481 15.9222 7.23356 15.7728 6.8786C15.6233 6.52364 15.4045 6.20212 15.129 5.93295L14.492 5.31095L14.503 4.42095C14.5076 4.0357 14.435 3.65343 14.2897 3.29661C14.1444 2.9398 13.9292 2.61564 13.6567 2.34321C13.3843 2.07078 13.0602 1.85557 12.7033 1.71024C12.3465 1.56491 11.9643 1.49239 11.579 1.49695L10.689 1.50695L10.067 0.870951V0.869951ZM8 3.99995C8.535 3.99995 8.954 4.46195 8.9 4.99495L8.55 8.50195C8.53824 8.63972 8.47521 8.76806 8.37336 8.86159C8.27151 8.95511 8.13828 9.007 8 9.007C7.86173 9.007 7.72849 8.95511 7.62665 8.86159C7.5248 8.76806 7.46176 8.63972 7.45 8.50195L7.1 4.99495C7.08743 4.86918 7.10135 4.74218 7.14085 4.62212C7.18035 4.50206 7.24456 4.3916 7.32935 4.29786C7.41413 4.20413 7.51762 4.12919 7.63312 4.07788C7.74863 4.02657 7.87361 4.00002 8 3.99995V3.99995ZM8.002 9.99995C8.26722 9.99995 8.52157 10.1053 8.70911 10.2928C8.89665 10.4804 9.002 10.7347 9.002 11C9.002 11.2652 8.89665 11.5195 8.70911 11.7071C8.52157 11.8946 8.26722 12 8.002 12C7.73679 12 7.48243 11.8946 7.2949 11.7071C7.10736 11.5195 7.002 11.2652 7.002 11C7.002 10.7347 7.10736 10.4804 7.2949 10.2928C7.48243 10.1053 7.73679 9.99995 8.002 9.99995Z" fill="currentColor"/>
</g>
<defs>
<clipPath id="clip0_1419_1689">
<rect width="16" height="16" fill="white"/>
</clipPath>
</defs>
</svg>
