<svg width="16" height="16" viewBox="0 0 16 16" fill="none" xmlns="http://www.w3.org/2000/svg">
<g clip-path="url(#clip0_1419_1974)">
<path d="M14.06 3.713C14.18 2.642 13.967 1.881 13.358 1.187C12.628 0.356 11.312 0 9.62597 0H4.73397C4.56744 7.21157e-05 4.40639 0.0595142 4.27974 0.167651C4.15309 0.275788 4.06914 0.425535 4.04297 0.59L2.00497 13.509C1.99543 13.569 1.99901 13.6304 2.01548 13.6888C2.03195 13.7473 2.06091 13.8015 2.10036 13.8477C2.13981 13.8939 2.18882 13.931 2.244 13.9565C2.29918 13.9819 2.35922 13.995 2.41997 13.995H5.17597L4.97397 15.275C4.95982 15.3646 4.96524 15.4562 4.98989 15.5436C5.01453 15.6309 5.0578 15.7118 5.11673 15.7808C5.17565 15.8498 5.24882 15.9052 5.33121 15.9432C5.4136 15.9813 5.50324 16.001 5.59397 16.001H8.13997C8.56897 16.001 8.93297 15.691 9.00197 15.27L9.02697 15.14L9.50697 12.097L9.53697 11.933L9.53797 11.926C9.55089 11.8431 9.59309 11.7675 9.65694 11.713C9.72078 11.6585 9.80204 11.6287 9.88597 11.629H10.266C11.532 11.629 12.691 11.373 13.611 10.719C13.99 10.449 14.323 10.116 14.604 9.714C15.0706 9.06433 15.3726 8.3111 15.484 7.519C15.726 6.273 15.614 5.163 14.914 4.365C14.6982 4.12421 14.4407 3.92434 14.154 3.775L14.06 3.714V3.713ZM6.54297 8.82C6.64206 8.76823 6.75218 8.74113 6.86397 8.741H8.29997C11.12 8.741 13.327 7.597 13.972 4.285L13.975 4.269C14.192 4.393 14.375 4.539 14.523 4.707C15.069 5.33 15.202 6.242 14.973 7.417C14.701 8.814 14.107 9.724 13.31 10.291C12.508 10.861 11.468 11.106 10.267 11.106H9.88697C9.67934 11.1057 9.4784 11.1795 9.32024 11.314C9.16207 11.4485 9.05703 11.635 9.02397 11.84L8.99397 12.004L8.51397 15.047L8.48997 15.177L8.48897 15.181C8.47565 15.2637 8.4333 15.3389 8.36952 15.3931C8.30574 15.4474 8.22471 15.4771 8.14097 15.477H5.59497C5.57958 15.4771 5.56437 15.4738 5.55038 15.4673C5.53639 15.4609 5.52397 15.4515 5.51398 15.4398C5.50399 15.4281 5.49667 15.4144 5.49252 15.3996C5.48837 15.3847 5.48751 15.3692 5.48997 15.354L5.69797 14.034L6.54297 8.82V8.82Z" fill="currentColor"/>
</g>
<defs>
<clipPath id="clip0_1419_1974">
<rect width="16" height="16" fill="white"/>
</clipPath>
</defs>
</svg>
