<svg width="16" height="16" viewBox="0 0 16 16" fill="none" xmlns="http://www.w3.org/2000/svg">
<path d="M0 1.5C0 1.36739 0.0526784 1.24021 0.146447 1.14645C0.240215 1.05268 0.367392 1 0.5 1H1.5C1.63261 1 1.75979 1.05268 1.85355 1.14645C1.94732 1.24021 2 1.36739 2 1.5V4H15.5C15.6326 4 15.7598 4.05268 15.8536 4.14645C15.9473 4.24021 16 4.36739 16 4.5V11.5C16 11.6326 15.9473 11.7598 15.8536 11.8536C15.7598 11.9473 15.6326 12 15.5 12H2V14.5C2 14.6326 1.94732 14.7598 1.85355 14.8536C1.75979 14.9473 1.63261 15 1.5 15C1.36739 15 1.24021 14.9473 1.14645 14.8536C1.05268 14.7598 1 14.6326 1 14.5V2H0.5C0.367392 2 0.240215 1.94732 0.146447 1.85355C0.0526784 1.75979 0 1.63261 0 1.5Z" fill="#1B1B1B"/>
<path d="M3 12.5H6.5V13.5C6.5 13.6326 6.44732 13.7598 6.35355 13.8536C6.25979 13.9473 6.13261 14 6 14H3.5C3.36739 14 3.24021 13.9473 3.14645 13.8536C3.05268 13.7598 3 13.6326 3 13.5V12.5ZM7 12.5H11V13.5C11 13.6326 10.9473 13.7598 10.8536 13.8536C10.7598 13.9473 10.6326 14 10.5 14H7.5C7.36739 14 7.24021 13.9473 7.14645 13.8536C7.05268 13.7598 7 13.6326 7 13.5V12.5Z" fill="#1B1B1B"/>
</svg>
