<svg width="16" height="16" viewBox="0 0 16 16" fill="none" xmlns="http://www.w3.org/2000/svg">
<g clip-path="url(#clip0_1419_1945)">
<path d="M14 13.2919C14.9905 12.1691 15.6461 10.7909 15.8922 9.31405C16.1382 7.83717 15.9649 6.32087 15.3919 4.93761C14.8189 3.55436 13.8692 2.35967 12.6508 1.48942C11.4324 0.619169 9.99431 0.108292 8.49998 0.0148926V7.79289L14 13.2929V13.2919ZM13.292 13.9999L8.49998 9.20589V15.9839C10.2741 15.875 11.9609 15.1759 13.292 13.9979V13.9999ZM7.49998 15.9849V9.20689L2.70798 13.9999C4.03918 15.1776 5.72595 15.8763 7.49998 15.9849V15.9849ZM1.99998 13.2919C1.00944 12.1691 0.353862 10.7909 0.107801 9.31405C-0.138261 7.83717 0.0350724 6.32087 0.608086 4.93761C1.1811 3.55436 2.1308 2.35967 3.34916 1.48942C4.56752 0.619169 6.00565 0.108292 7.49998 0.0148926V7.79289L1.99998 13.2929V13.2919Z" fill="currentColor"/>
</g>
<defs>
<clipPath id="clip0_1419_1945">
<rect width="16" height="16" fill="white"/>
</clipPath>
</defs>
</svg>
