<svg width="16" height="16" viewBox="0 0 16 16" fill="none" xmlns="http://www.w3.org/2000/svg">
<g clip-path="url(#clip0_1419_1692)">
<path d="M13.498 0.79511L13.647 0.64611C13.7591 0.534026 13.8923 0.44513 14.0388 0.384496C14.1853 0.323862 14.3423 0.292678 14.5009 0.292725C14.6594 0.292771 14.8164 0.324047 14.9629 0.384767C15.1093 0.445486 15.2424 0.534461 15.3545 0.646609C15.4666 0.758758 15.5555 0.891886 15.6161 1.03839C15.6767 1.18489 15.7079 1.34191 15.7079 1.50046C15.7078 1.65902 15.6766 1.81601 15.6158 1.96248C15.5551 2.10895 15.4661 2.24203 15.354 2.35411L15.205 2.50211C15.4599 2.78797 15.5958 3.1605 15.5848 3.54334C15.5738 3.92617 15.4168 4.29031 15.146 4.56111L4.854 14.8541C4.78966 14.9181 4.70911 14.9634 4.621 14.9851L0.620999 15.9851C0.537292 16.006 0.449615 16.0048 0.366492 15.9817C0.283369 15.9587 0.207627 15.9145 0.14663 15.8535C0.085632 15.7925 0.0414533 15.7167 0.0183878 15.6336C-0.00467757 15.5505 -0.00584496 15.4628 0.0149991 15.3791L1.015 11.3791C1.03688 11.2914 1.08215 11.2112 1.146 11.1471L10.788 1.50511C10.6916 1.43724 10.5742 1.40564 10.4568 1.41588C10.3393 1.42613 10.2292 1.47757 10.146 1.56111L6.854 4.85411C6.80751 4.9006 6.75232 4.93747 6.69158 4.96263C6.63084 4.98779 6.56574 5.00074 6.5 5.00074C6.43426 5.00074 6.36915 4.98779 6.30842 4.96263C6.24768 4.93747 6.19249 4.9006 6.146 4.85411C6.09951 4.80762 6.06263 4.75243 6.03748 4.69169C6.01232 4.63095 5.99937 4.56585 5.99937 4.50011C5.99937 4.43437 6.01232 4.36927 6.03748 4.30853C6.06263 4.24779 6.09951 4.1926 6.146 4.14611L9.44 0.854109C9.71097 0.583125 10.0754 0.42613 10.4585 0.415345C10.8415 0.404559 11.2142 0.540801 11.5 0.796109C11.7748 0.550548 12.1303 0.414721 12.4988 0.414537C12.8673 0.414353 13.223 0.549823 13.498 0.79511V0.79511ZM12.854 1.56111C12.7602 1.46737 12.6331 1.41472 12.5005 1.41472C12.3679 1.41472 12.2408 1.46737 12.147 1.56111L1.95 11.7561L1.186 14.8131L4.243 14.0491L14.44 3.85411C14.4866 3.80766 14.5235 3.75249 14.5487 3.69174C14.5739 3.631 14.5869 3.56588 14.5869 3.50011C14.5869 3.43434 14.5739 3.36922 14.5487 3.30848C14.5235 3.24773 14.4866 3.19256 14.44 3.14611L12.855 1.56111H12.854Z" fill="currentColor"/>
</g>
<defs>
<clipPath id="clip0_1419_1692">
<rect width="16" height="16" fill="white"/>
</clipPath>
</defs>
</svg>
