<svg width="16" height="16" viewBox="0 0 16 16" fill="none" xmlns="http://www.w3.org/2000/svg">
<path d="M15.502 1.93991C15.5954 2.03363 15.6479 2.16057 15.6479 2.2929C15.6479 2.42524 15.5954 2.55218 15.502 2.6459L14.459 3.6899L12.459 1.68991L13.502 0.645905C13.5958 0.552169 13.7229 0.499512 13.8555 0.499512C13.9881 0.499512 14.1152 0.552169 14.209 0.645905L15.502 1.93891V1.93991ZM13.752 4.3959L11.752 2.3959L4.93899 9.2099C4.88395 9.26493 4.84252 9.33204 4.81799 9.4059L4.01299 11.8199C3.99839 11.8639 3.99632 11.9111 4.007 11.9562C4.01769 12.0014 4.04071 12.0426 4.0735 12.0754C4.10628 12.1082 4.14754 12.1312 4.19266 12.1419C4.23778 12.1526 4.28498 12.1505 4.32899 12.1359L6.74299 11.3309C6.81675 11.3067 6.88386 11.2656 6.93899 11.2109L13.752 4.3969V4.3959Z" fill="#1B1B1B"/>
<path fill-rule="evenodd" clip-rule="evenodd" d="M1 13.5C1 13.8978 1.15804 14.2794 1.43934 14.5607C1.72064 14.842 2.10218 15 2.5 15H13.5C13.8978 15 14.2794 14.842 14.5607 14.5607C14.842 14.2794 15 13.8978 15 13.5V7.5C15 7.36739 14.9473 7.24021 14.8536 7.14645C14.7598 7.05268 14.6326 7 14.5 7C14.3674 7 14.2402 7.05268 14.1464 7.14645C14.0527 7.24021 14 7.36739 14 7.5V13.5C14 13.6326 13.9473 13.7598 13.8536 13.8536C13.7598 13.9473 13.6326 14 13.5 14H2.5C2.36739 14 2.24021 13.9473 2.14645 13.8536C2.05268 13.7598 2 13.6326 2 13.5V2.5C2 2.36739 2.05268 2.24021 2.14645 2.14645C2.24021 2.05268 2.36739 2 2.5 2H9C9.13261 2 9.25979 1.94732 9.35355 1.85355C9.44732 1.75979 9.5 1.63261 9.5 1.5C9.5 1.36739 9.44732 1.24021 9.35355 1.14645C9.25979 1.05268 9.13261 1 9 1H2.5C2.10218 1 1.72064 1.15804 1.43934 1.43934C1.15804 1.72064 1 2.10218 1 2.5V13.5Z" fill="#1B1B1B"/>
</svg>
