<svg width="16" height="16" viewBox="0 0 16 16" fill="none" xmlns="http://www.w3.org/2000/svg">
<g clip-path="url(#clip0_1419_1693)">
<path d="M12.854 0.145905C12.7602 0.0521694 12.6331 -0.000488281 12.5005 -0.000488281C12.3679 -0.000488281 12.2408 0.0521694 12.147 0.145905L10.5 1.7929L14.207 5.49991L15.854 3.8539C15.9006 3.80746 15.9375 3.75228 15.9627 3.69154C15.9879 3.63079 16.0009 3.56567 16.0009 3.4999C16.0009 3.43414 15.9879 3.36902 15.9627 3.30827C15.9375 3.24753 15.9006 3.19235 15.854 3.1459L12.854 0.145905V0.145905ZM13.5 6.2069L9.79299 2.4999L3.29299 8.9999H3.49999C3.6326 8.9999 3.75977 9.05258 3.85354 9.14635C3.94731 9.24012 3.99999 9.3673 3.99999 9.4999V9.9999H4.49999C4.6326 9.9999 4.75977 10.0526 4.85354 10.1464C4.94731 10.2401 4.99999 10.3673 4.99999 10.4999V10.9999H5.49999C5.6326 10.9999 5.75977 11.0526 5.85354 11.1464C5.94731 11.2401 5.99999 11.3673 5.99999 11.4999V11.9999H6.49999C6.6326 11.9999 6.75977 12.0526 6.85354 12.1464C6.94731 12.2401 6.99999 12.3673 6.99999 12.4999V12.7069L13.5 6.2069V6.2069ZM6.03199 13.6749C6.01095 13.619 6.00011 13.5597 5.99999 13.4999V12.9999H5.49999C5.36738 12.9999 5.2402 12.9472 5.14644 12.8535C5.05267 12.7597 4.99999 12.6325 4.99999 12.4999V11.9999H4.49999C4.36738 11.9999 4.2402 11.9472 4.14644 11.8535C4.05267 11.7597 3.99999 11.6325 3.99999 11.4999V10.9999H3.49999C3.36738 10.9999 3.2402 10.9472 3.14644 10.8535C3.05267 10.7597 2.99999 10.6325 2.99999 10.4999V9.9999H2.49999C2.44021 9.99981 2.38093 9.98897 2.32499 9.96791L2.14599 10.1459C2.09834 10.1939 2.06092 10.251 2.03599 10.3139L0.0359892 15.3139C-0.000381488 15.4048 -0.00928499 15.5043 0.0103825 15.6002C0.0300499 15.6961 0.0774234 15.7841 0.14663 15.8533C0.215836 15.9225 0.303832 15.9698 0.399709 15.9895C0.495585 16.0092 0.595125 16.0003 0.685989 15.9639L5.68599 13.9639C5.74885 13.939 5.806 13.9016 5.85399 13.8539L6.03199 13.6759V13.6749Z" fill="#1B1B1B"/>
</g>
<defs>
<clipPath id="clip0_1419_1693">
<rect width="16" height="16" fill="white"/>
</clipPath>
</defs>
</svg>
