<svg width="16" height="16" viewBox="0 0 16 16" fill="none" xmlns="http://www.w3.org/2000/svg">
<g clip-path="url(#clip0_1419_1559)">
<path d="M12.146 0.145917C12.1924 0.099354 12.2476 0.0624111 12.3084 0.0372047C12.3691 0.0119982 12.4342 -0.000976563 12.5 -0.000976562C12.5658 -0.000976562 12.6309 0.0119982 12.6916 0.0372047C12.7524 0.0624111 12.8075 0.099354 12.854 0.145917L15.854 3.14592C15.9006 3.19236 15.9375 3.24754 15.9627 3.30828C15.9879 3.36903 16.0009 3.43415 16.0009 3.49992C16.0009 3.56568 15.9879 3.63081 15.9627 3.69155C15.9375 3.7523 15.9006 3.80747 15.854 3.85392L5.85399 13.8539C5.806 13.9016 5.74885 13.939 5.68599 13.9639L0.685989 15.9639C0.595125 16.0003 0.495585 16.0092 0.399709 15.9895C0.303832 15.9699 0.215836 15.9225 0.14663 15.8533C0.0774234 15.7841 0.0300499 15.6961 0.0103825 15.6002C-0.00928499 15.5043 -0.000381488 15.4048 0.0359892 15.3139L2.03599 10.3139C2.06092 10.2511 2.09834 10.1939 2.14599 10.1459L12.146 0.145917V0.145917ZM11.207 2.49992L13.5 4.79292L14.793 3.49992L12.5 1.20692L11.207 2.49992ZM12.793 5.49992L10.5 3.20692L3.99999 9.70692V9.99992H4.49999C4.6326 9.99992 4.75977 10.0526 4.85354 10.1464C4.94731 10.2401 4.99999 10.3673 4.99999 10.4999V10.9999H5.49999C5.6326 10.9999 5.75977 11.0526 5.85354 11.1464C5.94731 11.2401 5.99999 11.3673 5.99999 11.4999V11.9999H6.29299L12.793 5.49992V5.49992ZM3.03199 10.6749L2.92599 10.7809L1.39799 14.6019L5.21899 13.0739L5.32499 12.9679C5.22961 12.9323 5.14738 12.8684 5.0893 12.7847C5.03123 12.7011 5.00007 12.6017 4.99999 12.4999V11.9999H4.49999C4.36738 11.9999 4.2402 11.9472 4.14644 11.8535C4.05267 11.7597 3.99999 11.6325 3.99999 11.4999V10.9999H3.49999C3.39817 10.9998 3.2988 10.9687 3.21517 10.9106C3.13153 10.8525 3.06763 10.7703 3.03199 10.6749V10.6749Z" fill="currentColor"/>
</g>
<defs>
<clipPath id="clip0_1419_1559">
<rect width="16" height="16" fill="white"/>
</clipPath>
</defs>
</svg>
