<svg width="16" height="16" viewBox="0 0 16 16" fill="none" xmlns="http://www.w3.org/2000/svg">
<g clip-path="url(#clip0_1419_1561)">
<path d="M7.99999 1.28815L14.578 6.63315C14.6558 6.69647 14.7128 6.78174 14.7415 6.87786C14.7702 6.97399 14.7693 7.07653 14.739 7.17215L12.377 14.6512C12.3449 14.7523 12.2816 14.8406 12.196 14.9034C12.1104 14.9661 12.0071 15 11.901 15.0002H7.99999V1.28815ZM15.898 6.82415C15.928 6.72857 15.9286 6.62617 15.8997 6.53024C15.8708 6.43432 15.8138 6.34928 15.736 6.28615L8.31599 0.256152C8.22683 0.183634 8.11542 0.144043 8.00049 0.144043C7.88556 0.144043 7.77415 0.183634 7.68499 0.256152L0.26399 6.28615C0.186197 6.34928 0.12916 6.43432 0.100275 6.53024C0.0713891 6.62617 0.0719868 6.72857 0.10199 6.82415L2.88999 15.6512C2.92203 15.7523 2.98543 15.8406 3.071 15.9034C3.15657 15.9661 3.25988 16 3.36599 16.0002H12.634C12.7402 15.9999 12.8436 15.9659 12.9292 15.903C13.0148 15.84 13.0781 15.7515 13.11 15.6502L15.898 6.82415Z" fill="currentColor"/>
</g>
<defs>
<clipPath id="clip0_1419_1561">
<rect width="16" height="16" fill="white"/>
</clipPath>
</defs>
</svg>
