<svg width="16" height="16" viewBox="0 0 16 16" fill="none" xmlns="http://www.w3.org/2000/svg">
<g clip-path="url(#clip0_1419_1560)">
<path d="M7.68499 0.256234C7.77407 0.18397 7.88529 0.144531 7.99999 0.144531C8.11469 0.144531 8.22591 0.18397 8.31499 0.256234L15.736 6.28623C15.8138 6.34936 15.8708 6.4344 15.8997 6.53033C15.9286 6.62626 15.928 6.72865 15.898 6.82423L13.11 15.6512C13.0779 15.7524 13.0146 15.8407 12.929 15.9035C12.8434 15.9662 12.7401 16.0001 12.634 16.0002H3.36599C3.25976 16 3.15635 15.966 3.07076 15.9031C2.98518 15.8401 2.92186 15.7516 2.88999 15.6502L0.10199 6.82523C0.0719868 6.72965 0.0713891 6.62726 0.100275 6.53133C0.12916 6.4354 0.186197 6.35036 0.26399 6.28723L7.68399 0.257234L7.68499 0.256234Z" fill="currentColor"/>
</g>
<defs>
<clipPath id="clip0_1419_1560">
<rect width="16" height="16" fill="white"/>
</clipPath>
</defs>
</svg>
