<svg width="16" height="16" viewBox="0 0 16 16" fill="none" xmlns="http://www.w3.org/2000/svg">
<g clip-path="url(#clip0_1419_1694)">
<path d="M7.68501 1.54488C7.77408 1.47262 7.8853 1.43318 8.00001 1.43318C8.11471 1.43318 8.22593 1.47262 8.31501 1.54488L14.578 6.63288C14.6558 6.69621 14.7128 6.78147 14.7415 6.8776C14.7702 6.97372 14.7693 7.07626 14.739 7.17188L12.377 14.6509C12.345 14.752 12.2816 14.8404 12.196 14.9031C12.1104 14.9659 12.0071 14.9997 11.901 14.9999H4.09901C3.99277 14.9997 3.88937 14.9656 3.80378 14.9027C3.71819 14.8398 3.65488 14.7512 3.62301 14.6499L1.26001 7.17288C1.22945 7.07712 1.22847 6.97437 1.25719 6.87804C1.28591 6.78172 1.343 6.69628 1.42101 6.63288L7.68401 1.54588L7.68501 1.54488ZM15.898 6.82488C15.9284 6.72902 15.9293 6.62621 15.9004 6.52987C15.8715 6.43354 15.8142 6.34816 15.736 6.28488L8.31601 0.256884C8.22685 0.184366 8.11543 0.144775 8.00051 0.144775C7.88558 0.144775 7.77416 0.184366 7.68501 0.256884L0.264006 6.28588C0.186212 6.34901 0.129175 6.43405 0.10029 6.52998C0.0714043 6.62591 0.072002 6.7283 0.102006 6.82388L2.89001 15.6509C2.92205 15.752 2.98544 15.8404 3.07101 15.9031C3.15659 15.9659 3.2599 15.9997 3.36601 15.9999H12.634C12.7402 15.9997 12.8436 15.9656 12.9292 15.9027C13.0148 15.8398 13.0781 15.7512 13.11 15.6499L15.898 6.82388V6.82488Z" fill="#1B1B1B"/>
</g>
<defs>
<clipPath id="clip0_1419_1694">
<rect width="16" height="16" fill="white"/>
</clipPath>
</defs>
</svg>
