<svg width="16" height="16" viewBox="0 0 16 16" fill="none" xmlns="http://www.w3.org/2000/svg">
<path fill-rule="evenodd" clip-rule="evenodd" d="M12.5 16C13.4283 16 14.3185 15.6313 14.9749 14.9749C15.6313 14.3185 16 13.4283 16 12.5C16 11.5717 15.6313 10.6815 14.9749 10.0251C14.3185 9.36875 13.4283 9 12.5 9C11.5717 9 10.6815 9.36875 10.0251 10.0251C9.36875 10.6815 9 11.5717 9 12.5C9 13.4283 9.36875 14.3185 10.0251 14.9749C10.6815 15.6313 11.5717 16 12.5 16V16ZM13 11C13 10.8674 12.9473 10.7402 12.8536 10.6464C12.7598 10.5527 12.6326 10.5 12.5 10.5C12.3674 10.5 12.2402 10.5527 12.1464 10.6464C12.0527 10.7402 12 10.8674 12 11V12H11C10.8674 12 10.7402 12.0527 10.6464 12.1464C10.5527 12.2402 10.5 12.3674 10.5 12.5C10.5 12.6326 10.5527 12.7598 10.6464 12.8536C10.7402 12.9473 10.8674 13 11 13H12V14C12 14.1326 12.0527 14.2598 12.1464 14.3536C12.2402 14.4473 12.3674 14.5 12.5 14.5C12.6326 14.5 12.7598 14.4473 12.8536 14.3536C12.9473 14.2598 13 14.1326 13 14V13H14C14.1326 13 14.2598 12.9473 14.3536 12.8536C14.4473 12.7598 14.5 12.6326 14.5 12.5C14.5 12.3674 14.4473 12.2402 14.3536 12.1464C14.2598 12.0527 14.1326 12 14 12H13V11ZM11 5C11 5.79565 10.6839 6.55871 10.1213 7.12132C9.55871 7.68393 8.79565 8 8 8C7.20435 8 6.44129 7.68393 5.87868 7.12132C5.31607 6.55871 5 5.79565 5 5C5 4.20435 5.31607 3.44129 5.87868 2.87868C6.44129 2.31607 7.20435 2 8 2C8.79565 2 9.55871 2.31607 10.1213 2.87868C10.6839 3.44129 11 4.20435 11 5V5ZM8 7C8.53043 7 9.03914 6.78929 9.41421 6.41421C9.78929 6.03914 10 5.53043 10 5C10 4.46957 9.78929 3.96086 9.41421 3.58579C9.03914 3.21071 8.53043 3 8 3C7.46957 3 6.96086 3.21071 6.58579 3.58579C6.21071 3.96086 6 4.46957 6 5C6 5.53043 6.21071 6.03914 6.58579 6.41421C6.96086 6.78929 7.46957 7 8 7V7Z" fill="#1B1B1B"/>
<path d="M8.256 14C8.14128 13.6753 8.06444 13.3384 8.027 12.996H3C3.001 12.75 3.154 12.01 3.832 11.332C4.484 10.68 5.711 10 8 10C8.26 10 8.507 10.009 8.74 10.025C8.966 9.684 9.236 9.375 9.544 9.107C9.077 9.038 8.564 9 8 9C3 9 2 12 2 13C2 14 3 14 3 14H8.256Z" fill="#1B1B1B"/>
</svg>
