<svg width="16" height="16" viewBox="0 0 16 16" fill="none" xmlns="http://www.w3.org/2000/svg">
<g clip-path="url(#clip0_1419_362)">
<path fill-rule="evenodd" clip-rule="evenodd" d="M13.8791 10.4141C13.3982 10.0967 12.8225 9.95512 12.2492 10.0132C11.676 10.0713 11.1404 10.3256 10.733 10.733C10.3256 11.1404 10.0713 11.676 10.0132 12.2492C9.95509 12.8225 10.0967 13.3982 10.4141 13.8791L13.8791 10.4141ZM14.5861 11.1211L11.1211 14.5861C11.6019 14.9035 12.1777 15.0451 12.7509 14.9869C13.3241 14.9288 13.8597 14.6746 14.2671 14.2672C14.6746 13.8598 14.9288 13.3242 14.9869 12.7509C15.045 12.1777 14.9034 11.602 14.5861 11.1211V11.1211ZM10.0261 10.0251C10.3499 9.69478 10.736 9.43194 11.162 9.25176C11.5881 9.07159 12.0456 8.97765 12.5082 8.97538C12.9707 8.97312 13.4292 9.06257 13.8569 9.23856C14.2847 9.41455 14.6734 9.6736 15.0004 10.0007C15.3275 10.3278 15.5864 10.7165 15.7624 11.1444C15.9383 11.5722 16.0276 12.0306 16.0253 12.4932C16.0229 12.9558 15.9289 13.4133 15.7486 13.8393C15.5683 14.2653 15.3054 14.6513 14.9751 14.9751C14.3186 15.6315 13.4284 16.0003 12.5001 16.0003C11.5718 16.0003 10.6815 15.6315 10.0251 14.9751C9.36865 14.3187 8.99988 13.4284 8.99988 12.5001C8.99988 11.5718 9.36865 10.6815 10.0251 10.0251H10.0261Z" fill="currentColor"/>
<path d="M11 5C11 5.79565 10.6839 6.55871 10.1213 7.12132C9.55871 7.68393 8.79565 8 8 8C7.20435 8 6.44129 7.68393 5.87868 7.12132C5.31607 6.55871 5 5.79565 5 5C5 4.20435 5.31607 3.44129 5.87868 2.87868C6.44129 2.31607 7.20435 2 8 2C8.79565 2 9.55871 2.31607 10.1213 2.87868C10.6839 3.44129 11 4.20435 11 5V5ZM2 13C2 14 3 14 3 14H8.256C8.086 13.5182 7.99943 13.0109 8 12.5C7.99934 11.8569 8.13685 11.2211 8.40324 10.6357C8.66962 10.0503 9.05865 9.52898 9.544 9.107C9.077 9.038 8.564 9 8 9C3 9 2 12 2 13Z" fill="currentColor"/>
</g>
<defs>
<clipPath id="clip0_1419_362">
<rect width="16" height="16" fill="white"/>
</clipPath>
</defs>
</svg>
