<svg width="16" height="16" viewBox="0 0 16 16" fill="none" xmlns="http://www.w3.org/2000/svg">
<path fill-rule="evenodd" clip-rule="evenodd" d="M12.5 16C13.4283 16 14.3185 15.6313 14.9749 14.9749C15.6313 14.3185 16 13.4283 16 12.5C16 11.5717 15.6313 10.6815 14.9749 10.0251C14.3185 9.36875 13.4283 9 12.5 9C11.5717 9 10.6815 9.36875 10.0251 10.0251C9.36875 10.6815 9 11.5717 9 12.5C9 13.4283 9.36875 14.3185 10.0251 14.9749C10.6815 15.6313 11.5717 16 12.5 16V16ZM13 11C13 10.8674 12.9473 10.7402 12.8536 10.6464C12.7598 10.5527 12.6326 10.5 12.5 10.5C12.3674 10.5 12.2402 10.5527 12.1464 10.6464C12.0527 10.7402 12 10.8674 12 11V12H11C10.8674 12 10.7402 12.0527 10.6464 12.1464C10.5527 12.2402 10.5 12.3674 10.5 12.5C10.5 12.6326 10.5527 12.7598 10.6464 12.8536C10.7402 12.9473 10.8674 13 11 13H12V14C12 14.1326 12.0527 14.2598 12.1464 14.3536C12.2402 14.4473 12.3674 14.5 12.5 14.5C12.6326 14.5 12.7598 14.4473 12.8536 14.3536C12.9473 14.2598 13 14.1326 13 14V13H14C14.1326 13 14.2598 12.9473 14.3536 12.8536C14.4473 12.7598 14.5 12.6326 14.5 12.5C14.5 12.3674 14.4473 12.2402 14.3536 12.1464C14.2598 12.0527 14.1326 12 14 12H13V11Z" fill="currentColor"/>
<path d="M11 5C11 5.79565 10.6839 6.55871 10.1213 7.12132C9.55871 7.68393 8.79565 8 8 8C7.20435 8 6.44129 7.68393 5.87868 7.12132C5.31607 6.55871 5 5.79565 5 5C5 4.20435 5.31607 3.44129 5.87868 2.87868C6.44129 2.31607 7.20435 2 8 2C8.79565 2 9.55871 2.31607 10.1213 2.87868C10.6839 3.44129 11 4.20435 11 5V5ZM2 13C2 14 3 14 3 14H8.256C8.086 13.5182 7.99943 13.0109 8 12.5C7.99934 11.8569 8.13685 11.2211 8.40324 10.6357C8.66962 10.0503 9.05865 9.52898 9.544 9.107C9.077 9.038 8.564 9 8 9C3 9 2 12 2 13Z" fill="currentColor"/>
</svg>
