<svg width="16" height="16" viewBox="0 0 16 16" fill="none" xmlns="http://www.w3.org/2000/svg">
<path fill-rule="evenodd" clip-rule="evenodd" d="M12.5 16C13.4283 16 14.3185 15.6313 14.9749 14.9749C15.6313 14.3185 16 13.4283 16 12.5C16 11.5717 15.6313 10.6815 14.9749 10.0251C14.3185 9.36875 13.4283 9 12.5 9C11.5717 9 10.6815 9.36875 10.0251 10.0251C9.36875 10.6815 9 11.5717 9 12.5C9 13.4283 9.36875 14.3185 10.0251 14.9749C10.6815 15.6313 11.5717 16 12.5 16V16ZM14.179 11.507C14.2127 11.4507 14.2351 11.3882 14.2447 11.3233C14.2543 11.2583 14.251 11.1921 14.2351 11.1284C14.2191 11.0647 14.1907 11.0047 14.1516 10.952C14.1125 10.8993 14.0633 10.8547 14.007 10.821C13.9507 10.7873 13.8882 10.7649 13.8233 10.7553C13.7583 10.7457 13.6921 10.749 13.6284 10.7649C13.5647 10.7809 13.5047 10.8093 13.452 10.8484C13.3993 10.8875 13.3547 10.9367 13.321 10.993L12.151 12.943L11.604 12.396C11.5101 12.3021 11.3828 12.2494 11.25 12.2494C11.1172 12.2494 10.9899 12.3021 10.896 12.396C10.8021 12.4899 10.7494 12.6172 10.7494 12.75C10.7494 12.8828 10.8021 13.0101 10.896 13.104L11.67 13.877C11.7506 13.9577 11.8485 14.019 11.9563 14.0562C12.0641 14.0934 12.179 14.1055 12.2922 14.0916C12.4053 14.0777 12.5139 14.0382 12.6095 13.9761C12.7051 13.9139 12.7853 13.8308 12.844 13.733L14.179 11.507V11.507Z" fill="#1B1B1B"/>
<path d="M11 5C11 5.79565 10.6839 6.55871 10.1213 7.12132C9.55871 7.68393 8.79565 8 8 8C7.20435 8 6.44129 7.68393 5.87868 7.12132C5.31607 6.55871 5 5.79565 5 5C5 4.20435 5.31607 3.44129 5.87868 2.87868C6.44129 2.31607 7.20435 2 8 2C8.79565 2 9.55871 2.31607 10.1213 2.87868C10.6839 3.44129 11 4.20435 11 5V5ZM2 13C2 14 3 14 3 14H8.256C8.086 13.5182 7.99943 13.0109 8 12.5C7.99934 11.8569 8.13685 11.2211 8.40324 10.6357C8.66962 10.0503 9.05865 9.52898 9.544 9.107C9.077 9.038 8.564 9 8 9C3 9 2 12 2 13Z" fill="#1B1B1B"/>
</svg>
