<svg width="16" height="16" viewBox="0 0 16 16" fill="none" xmlns="http://www.w3.org/2000/svg">
<g clip-path="url(#clip0_1419_368)">
<path fill-rule="evenodd" clip-rule="evenodd" d="M11.5 1.24595C12.332 0.390945 14.413 1.88795 11.5 3.81195C8.587 1.88795 10.668 0.390945 11.5 1.24595ZM9 4.99995C9 5.79559 8.68393 6.55866 8.12132 7.12127C7.55871 7.68387 6.79565 7.99995 6 7.99995C5.20435 7.99995 4.44129 7.68387 3.87868 7.12127C3.31607 6.55866 3 5.79559 3 4.99995C3 4.2043 3.31607 3.44123 3.87868 2.87863C4.44129 2.31602 5.20435 1.99995 6 1.99995C6.79565 1.99995 7.55871 2.31602 8.12132 2.87863C8.68393 3.44123 9 4.2043 9 4.99995V4.99995ZM0 12.9999C0 13.9999 1 13.9999 1 13.9999H11C11 13.9999 12 13.9999 12 12.9999C12 11.9999 11 8.99995 6 8.99995C1 8.99995 0 11.9999 0 12.9999ZM13.5 4.90995C14.887 3.48495 18.355 5.97995 13.5 9.18695C8.646 5.97995 12.113 3.48495 13.5 4.91095V4.90995ZM15 2.16495C15.555 1.59495 16.942 2.59295 15 3.87595C13.058 2.59295 14.445 1.59495 15 2.16595V2.16495Z" fill="currentColor"/>
</g>
<defs>
<clipPath id="clip0_1419_368">
<rect width="16" height="16" fill="white"/>
</clipPath>
</defs>
</svg>
