<svg width="16" height="16" viewBox="0 0 16 16" fill="none" xmlns="http://www.w3.org/2000/svg">
<path fill-rule="evenodd" clip-rule="evenodd" d="M8 8C8.79565 8 9.55871 7.68393 10.1213 7.12132C10.6839 6.55871 11 5.79565 11 5C11 4.20435 10.6839 3.44129 10.1213 2.87868C9.55871 2.31607 8.79565 2 8 2C7.20435 2 6.44129 2.31607 5.87868 2.87868C5.31607 3.44129 5 4.20435 5 5C5 5.79565 5.31607 6.55871 5.87868 7.12132C6.44129 7.68393 7.20435 8 8 8V8ZM10 5C10 5.53043 9.78929 6.03914 9.41421 6.41421C9.03914 6.78929 8.53043 7 8 7C7.46957 7 6.96086 6.78929 6.58579 6.41421C6.21071 6.03914 6 5.53043 6 5C6 4.46957 6.21071 3.96086 6.58579 3.58579C6.96086 3.21071 7.46957 3 8 3C8.53043 3 9.03914 3.21071 9.41421 3.58579C9.78929 3.96086 10 4.46957 10 5V5Z" fill="#1B1B1B"/>
<path d="M8 14V12.996H3C3.001 12.75 3.154 12.01 3.832 11.332C4.484 10.68 5.711 10 8 10C8.26 10 8.507 10.009 8.74 10.025C8.966 9.684 9.236 9.375 9.544 9.107C9.077 9.038 8.564 9 8 9C3 9 2 12 2 13C2 14 3 14 3 14H8ZM9 13C9 12.7348 9.10536 12.4804 9.29289 12.2929C9.48043 12.1054 9.73478 12 10 12H14C14.2652 12 14.5196 12.1054 14.7071 12.2929C14.8946 12.4804 15 12.7348 15 13V15C15 15.2652 14.8946 15.5196 14.7071 15.7071C14.5196 15.8946 14.2652 16 14 16H10C9.73478 16 9.48043 15.8946 9.29289 15.7071C9.10536 15.5196 9 15.2652 9 15V13Z" fill="#1B1B1B"/>
<path fill-rule="evenodd" clip-rule="evenodd" d="M12 10C11.7348 10 11.4804 10.1054 11.2929 10.2929C11.1054 10.4804 11 10.7348 11 11V12.5C11 12.6326 10.9473 12.7598 10.8536 12.8536C10.7598 12.9473 10.6326 13 10.5 13C10.3674 13 10.2402 12.9473 10.1464 12.8536C10.0527 12.7598 10 12.6326 10 12.5V11C10 10.4696 10.2107 9.96086 10.5858 9.58579C10.9609 9.21071 11.4696 9 12 9C12.5304 9 13.0391 9.21071 13.4142 9.58579C13.7893 9.96086 14 10.4696 14 11V12.5C14 12.6326 13.9473 12.7598 13.8536 12.8536C13.7598 12.9473 13.6326 13 13.5 13C13.3674 13 13.2402 12.9473 13.1464 12.8536C13.0527 12.7598 13 12.6326 13 12.5V11C13 10.7348 12.8946 10.4804 12.7071 10.2929C12.5196 10.1054 12.2652 10 12 10Z" fill="#1B1B1B"/>
</svg>
