<svg width="16" height="16" viewBox="0 0 16 16" fill="none" xmlns="http://www.w3.org/2000/svg">
<g clip-path="url(#clip0_1419_374)">
<path fill-rule="evenodd" clip-rule="evenodd" d="M13.879 10.414C13.3981 10.0966 12.8224 9.95503 12.2492 10.0131C11.6759 10.0712 11.1403 10.3255 10.7329 10.7329C10.3255 11.1403 10.0712 11.6759 10.0131 12.2492C9.95503 12.8224 10.0966 13.3981 10.414 13.879L13.879 10.414ZM14.586 11.121L11.121 14.586C11.6019 14.9034 12.1776 15.045 12.7508 14.9869C13.3241 14.9288 13.8597 14.6745 14.2671 14.2671C14.6745 13.8597 14.9288 13.3241 14.9869 12.7508C15.045 12.1776 14.9034 11.6019 14.586 11.121V11.121ZM10.026 10.025C10.3498 9.69469 10.7359 9.43185 11.162 9.25168C11.588 9.0715 12.0455 8.97756 12.5081 8.9753C12.9707 8.97303 13.4291 9.06248 13.8569 9.23847C14.2847 9.41447 14.6733 9.67351 15.0004 10.0006C15.3274 10.3278 15.5864 10.7165 15.7623 11.1443C15.9382 11.5721 16.0276 12.0305 16.0252 12.4931C16.0228 12.9557 15.9288 13.4132 15.7486 13.8392C15.5683 14.2652 15.3054 14.6512 14.975 14.975C14.3186 15.6314 13.4283 16.0002 12.5 16.0002C11.5717 16.0002 10.6814 15.6314 10.025 14.975C9.36859 14.3186 8.99982 13.4283 8.99982 12.5C8.99982 11.5717 9.36859 10.6814 10.025 10.025H10.026ZM11 5C11 5.79565 10.6839 6.55871 10.1213 7.12132C9.55871 7.68393 8.79565 8 8 8C7.20435 8 6.44129 7.68393 5.87868 7.12132C5.31607 6.55871 5 5.79565 5 5C5 4.20435 5.31607 3.44129 5.87868 2.87868C6.44129 2.31607 7.20435 2 8 2C8.79565 2 9.55871 2.31607 10.1213 2.87868C10.6839 3.44129 11 4.20435 11 5V5ZM8 7C8.53043 7 9.03914 6.78929 9.41421 6.41421C9.78929 6.03914 10 5.53043 10 5C10 4.46957 9.78929 3.96086 9.41421 3.58579C9.03914 3.21071 8.53043 3 8 3C7.46957 3 6.96086 3.21071 6.58579 3.58579C6.21071 3.96086 6 4.46957 6 5C6 5.53043 6.21071 6.03914 6.58579 6.41421C6.96086 6.78929 7.46957 7 8 7V7Z" fill="currentColor"/>
<path d="M8.256 14C8.14128 13.6753 8.06444 13.3384 8.027 12.996H3C3.001 12.75 3.154 12.01 3.832 11.332C4.484 10.68 5.711 10 8 10C8.26 10 8.507 10.009 8.74 10.025C8.966 9.684 9.236 9.375 9.544 9.107C9.077 9.038 8.564 9 8 9C3 9 2 12 2 13C2 14 3 14 3 14H8.256Z" fill="currentColor"/>
</g>
<defs>
<clipPath id="clip0_1419_374">
<rect width="16" height="16" fill="white"/>
</clipPath>
</defs>
</svg>
