<svg width="16" height="16" viewBox="0 0 16 16" fill="none" xmlns="http://www.w3.org/2000/svg">
<path d="M11 5C11 5.79565 10.6839 6.55871 10.1213 7.12132C9.55871 7.68393 8.79565 8 8 8C7.20435 8 6.44129 7.68393 5.87868 7.12132C5.31607 6.55871 5 5.79565 5 5C5 4.20435 5.31607 3.44129 5.87868 2.87868C6.44129 2.31607 7.20435 2 8 2C8.79565 2 9.55871 2.31607 10.1213 2.87868C10.6839 3.44129 11 4.20435 11 5V5ZM2 13C2 14 3 14 3 14H8.256C8.086 13.5182 7.99943 13.0109 8 12.5C7.99934 11.8569 8.13685 11.2211 8.40324 10.6357C8.66962 10.0503 9.05865 9.52898 9.544 9.107C9.077 9.038 8.564 9 8 9C3 9 2 12 2 13Z" fill="currentColor"/>
<path fill-rule="evenodd" clip-rule="evenodd" d="M12.5 16C13.4283 16 14.3185 15.6313 14.9749 14.9749C15.6313 14.3185 16 13.4283 16 12.5C16 11.5717 15.6313 10.6815 14.9749 10.0251C14.3185 9.36875 13.4283 9 12.5 9C11.5717 9 10.6815 9.36875 10.0251 10.0251C9.36875 10.6815 9 11.5717 9 12.5C9 13.4283 9.36875 14.3185 10.0251 14.9749C10.6815 15.6313 11.5717 16 12.5 16V16ZM11.854 11.146C11.7601 11.0521 11.6328 10.9994 11.5 10.9994C11.3672 10.9994 11.2399 11.0521 11.146 11.146C11.0521 11.2399 10.9994 11.3672 10.9994 11.5C10.9994 11.6328 11.0521 11.7601 11.146 11.854L11.793 12.5L11.146 13.146C11.0521 13.2399 10.9994 13.3672 10.9994 13.5C10.9994 13.6328 11.0521 13.7601 11.146 13.854C11.2399 13.9479 11.3672 14.0006 11.5 14.0006C11.6328 14.0006 11.7601 13.9479 11.854 13.854L12.5 13.207L13.146 13.854C13.2399 13.9479 13.3672 14.0006 13.5 14.0006C13.6328 14.0006 13.7601 13.9479 13.854 13.854C13.9479 13.7601 14.0006 13.6328 14.0006 13.5C14.0006 13.3672 13.9479 13.2399 13.854 13.146L13.207 12.5L13.854 11.854C13.9479 11.7601 14.0006 11.6328 14.0006 11.5C14.0006 11.3672 13.9479 11.2399 13.854 11.146C13.7601 11.0521 13.6328 10.9994 13.5 10.9994C13.3672 10.9994 13.2399 11.0521 13.146 11.146L12.5 11.793L11.854 11.146Z" fill="currentColor"/>
</svg>
