<svg width="16" height="16" viewBox="0 0 16 16" fill="none" xmlns="http://www.w3.org/2000/svg">
<g clip-path="url(#clip0_1419_1137)">
<path d="M10 3C10.2652 3 10.5196 3.10536 10.7071 3.29289C10.8946 3.48043 11 3.73478 11 4V12C11 12.2652 10.8946 12.5196 10.7071 12.7071C10.5196 12.8946 10.2652 13 10 13H6C5.73478 13 5.48043 12.8946 5.29289 12.7071C5.10536 12.5196 5 12.2652 5 12V4C5 3.73478 5.10536 3.48043 5.29289 3.29289C5.48043 3.10536 5.73478 3 6 3H10ZM6 2C5.46957 2 4.96086 2.21071 4.58579 2.58579C4.21071 2.96086 4 3.46957 4 4V12C4 12.5304 4.21071 13.0391 4.58579 13.4142C4.96086 13.7893 5.46957 14 6 14H10C10.5304 14 11.0391 13.7893 11.4142 13.4142C11.7893 13.0391 12 12.5304 12 12V4C12 3.46957 11.7893 2.96086 11.4142 2.58579C11.0391 2.21071 10.5304 2 10 2H6Z" fill="currentColor"/>
<path d="M8.00001 12.0002C8.26523 12.0002 8.51958 11.8948 8.70712 11.7073C8.89465 11.5197 9.00001 11.2654 9.00001 11.0002C9.00001 10.7349 8.89465 10.4806 8.70712 10.2931C8.51958 10.1055 8.26523 10.0002 8.00001 10.0002C7.73479 10.0002 7.48044 10.1055 7.2929 10.2931C7.10537 10.4806 7.00001 10.7349 7.00001 11.0002C7.00001 11.2654 7.10537 11.5197 7.2929 11.7073C7.48044 11.8948 7.73479 12.0002 8.00001 12.0002ZM1.59901 4.05816C1.65706 4.08888 1.7085 4.13073 1.75037 4.18134C1.79225 4.23194 1.82374 4.29029 1.84306 4.35307C1.86238 4.41585 1.86913 4.48181 1.86295 4.5472C1.85676 4.61259 1.83775 4.67612 1.80701 4.73416C1.27525 5.74056 0.998175 6.86192 1.00001 8.00016C1.00001 9.18016 1.29201 10.2922 1.80701 11.2662C1.86907 11.3834 1.88202 11.5205 1.84301 11.6472C1.804 11.774 1.71623 11.8801 1.59901 11.9422C1.48178 12.0042 1.3447 12.0172 1.21793 11.9782C1.09116 11.9392 0.985069 11.8514 0.923008 11.7342C0.315032 10.5835 -0.00186755 9.30153 8.27941e-06 8.00016C8.27941e-06 6.65316 0.334008 5.38116 0.923008 4.26616C0.953726 4.20811 0.995581 4.15667 1.04618 4.1148C1.09678 4.07292 1.15514 4.04143 1.21792 4.02211C1.28069 4.00279 1.34666 3.99604 1.41205 4.00222C1.47744 4.00841 1.54097 4.02742 1.59901 4.05816V4.05816ZM14.401 4.05816C14.459 4.02742 14.5226 4.00841 14.588 4.00222C14.6534 3.99604 14.7193 4.00279 14.7821 4.02211C14.8449 4.04143 14.9032 4.07292 14.9538 4.1148C15.0044 4.15667 15.0463 4.20811 15.077 4.26616C15.685 5.41676 16.0019 6.69879 16 8.00016C16.0019 9.30153 15.685 10.5836 15.077 11.7342C15.0149 11.8514 14.9089 11.9392 14.7821 11.9782C14.6553 12.0172 14.5182 12.0042 14.401 11.9422C14.2838 11.8801 14.196 11.774 14.157 11.6472C14.118 11.5205 14.1309 11.3834 14.193 11.2662C14.7248 10.2598 15.0018 9.13841 15 8.00016C15 6.82016 14.708 5.70816 14.193 4.73416C14.1623 4.67612 14.1433 4.61259 14.1371 4.5472C14.1309 4.48181 14.1376 4.41585 14.157 4.35307C14.1763 4.29029 14.2078 4.23194 14.2496 4.18134C14.2915 4.13073 14.343 4.08888 14.401 4.05816ZM3.05701 5.53416C3.11823 5.55803 3.17414 5.59373 3.22155 5.63923C3.26896 5.68472 3.30694 5.73912 3.33332 5.7993C3.3597 5.85948 3.37395 5.92427 3.37527 5.98996C3.37659 6.05566 3.36495 6.12097 3.34101 6.18216C3.11495 6.76159 2.99929 7.3782 3.00001 8.00016C3.00001 8.64216 3.12001 9.25516 3.34001 9.81816C3.36791 9.87996 3.38296 9.9468 3.38422 10.0146C3.38549 10.0824 3.37295 10.1497 3.34737 10.2125C3.32179 10.2753 3.2837 10.3323 3.23542 10.3799C3.18715 10.4275 3.12969 10.4648 3.06655 10.4895C3.0034 10.5142 2.93589 10.5259 2.86811 10.5237C2.80034 10.5215 2.73372 10.5055 2.67231 10.4768C2.6109 10.448 2.55597 10.4071 2.51088 10.3564C2.46579 10.3058 2.43147 10.2465 2.41001 10.1822C2.13847 9.48676 1.99942 8.7467 2.00001 8.00016C2.00001 7.23116 2.14501 6.49516 2.41001 5.81816C2.45823 5.69477 2.55344 5.59555 2.67475 5.5423C2.79606 5.48905 2.93354 5.48613 3.05701 5.53416V5.53416ZM12.943 5.53416C13.0042 5.51022 13.0695 5.49858 13.1352 5.4999C13.2009 5.50122 13.2657 5.51547 13.3259 5.54185C13.3861 5.56823 13.4404 5.60621 13.4859 5.65362C13.5314 5.70103 13.5671 5.75694 13.591 5.81816C13.855 6.49516 14 7.23116 14 8.00016C14 8.76916 13.855 9.50516 13.59 10.1822C13.5373 10.299 13.4416 10.3911 13.3229 10.4395C13.2042 10.4878 13.0714 10.4887 12.9521 10.442C12.8327 10.3953 12.7358 10.3045 12.6815 10.1884C12.6271 10.0723 12.6194 9.93976 12.66 9.81816C12.88 9.25516 13 8.64216 13 8.00016C13 7.35816 12.88 6.74516 12.66 6.18216C12.6116 6.0587 12.6142 5.92107 12.6673 5.79955C12.7204 5.67803 12.8196 5.58256 12.943 5.53416V5.53416Z" fill="currentColor"/>
</g>
<defs>
<clipPath id="clip0_1419_1137">
<rect width="16" height="16" fill="white"/>
</clipPath>
</defs>
</svg>
