<svg width="16" height="16" viewBox="0 0 16 16" fill="none" xmlns="http://www.w3.org/2000/svg">
<g clip-path="url(#clip0_1419_1623)">
<path d="M15.985 8.49989H8.20699L2.70699 13.9999C3.82975 14.9904 5.20794 15.646 6.68483 15.8921C8.16172 16.1381 9.67802 15.9648 11.0613 15.3918C12.4445 14.8188 13.6392 13.8691 14.5095 12.6507C15.3797 11.4323 15.8906 9.99422 15.984 8.49989H15.985ZM1.99999 13.2919C1.00946 12.1691 0.353877 10.7909 0.107816 9.31405C-0.138246 7.83717 0.0350877 6.32087 0.608102 4.93761C1.18112 3.55436 2.13081 2.35967 3.34917 1.48942C4.56754 0.619169 6.00566 0.108292 7.49999 0.0148926V7.79289L1.99999 13.2929V13.2919ZM8.49999 0.0148926V7.49989H15.985C15.8631 5.55468 15.0354 3.72084 13.6572 2.34267C12.279 0.9645 10.4452 0.136775 8.49999 0.0148926V0.0148926Z" fill="currentColor"/>
</g>
<defs>
<clipPath id="clip0_1419_1623">
<rect width="16" height="16" fill="white"/>
</clipPath>
</defs>
</svg>
