<svg width="16" height="16" viewBox="0 0 16 16" fill="none" xmlns="http://www.w3.org/2000/svg">
<path d="M5 6.25001C5 6.44892 4.92098 6.63969 4.78033 6.78034C4.63968 6.92099 4.44891 7.00001 4.25 7.00001C4.05109 7.00001 3.86032 6.92099 3.71967 6.78034C3.57902 6.63969 3.5 6.44892 3.5 6.25001C3.5 6.0511 3.57902 5.86033 3.71967 5.71968C3.86032 5.57903 4.05109 5.50001 4.25 5.50001C4.44891 5.50001 4.63968 5.57903 4.78033 5.71968C4.92098 5.86033 5 6.0511 5 6.25001V6.25001ZM6.138 4.75401C6.73182 4.5845 7.34646 4.499 7.964 4.50001C8.63 4.50001 9.267 4.59701 9.857 4.77301C9.98308 4.80779 10.1178 4.79178 10.2322 4.72841C10.3466 4.66505 10.4316 4.55937 10.4691 4.43404C10.5065 4.30872 10.4933 4.17372 10.4323 4.058C10.3714 3.94228 10.2675 3.85505 10.143 3.81501C9.4358 3.60483 8.70177 3.49872 7.964 3.50001C7.23 3.50001 6.523 3.60301 5.862 3.79201C5.73443 3.82861 5.62663 3.91439 5.5623 4.03047C5.49798 4.14656 5.4824 4.28344 5.519 4.41101C5.5556 4.53858 5.64138 4.64639 5.75746 4.71071C5.87355 4.77504 6.01043 4.79061 6.138 4.75401V4.75401Z" fill="currentColor"/>
<path fill-rule="evenodd" clip-rule="evenodd" d="M7.964 1.5271C4.987 1.5271 2.393 3.2311 1.644 5.6521H1.094C0.948206 5.65226 0.804214 5.6843 0.672108 5.74596C0.540002 5.80763 0.422978 5.89744 0.329233 6.00909C0.235489 6.12075 0.167292 6.25155 0.129421 6.39233C0.0915499 6.53312 0.08492 6.68048 0.109996 6.8241L0.363996 8.2841C0.424526 8.63217 0.605971 8.9477 0.876354 9.17509C1.14674 9.40248 1.48871 9.52714 1.842 9.5271H2.105C2.405 10.0401 2.793 10.5051 3.25 10.9091L2.521 13.3861C2.49907 13.4607 2.49484 13.5393 2.50864 13.6158C2.52244 13.6923 2.55388 13.7646 2.60048 13.8268C2.64707 13.889 2.70753 13.9395 2.77706 13.9743C2.84659 14.0091 2.92326 14.0271 3.001 14.0271H5.001C5.10416 14.0271 5.20481 13.9952 5.28913 13.9358C5.37346 13.8763 5.43733 13.7923 5.472 13.6951L5.954 12.3441C6.589 12.5171 7.264 12.6111 7.965 12.6111C8.672 12.6111 9.353 12.5161 9.993 12.3391L10.536 13.7111C10.5729 13.8043 10.637 13.8843 10.7199 13.9406C10.8028 13.997 10.9007 14.0271 11.001 14.0271H13.001C13.079 14.027 13.1559 14.0087 13.2256 13.9736C13.2953 13.9384 13.3557 13.8875 13.4022 13.8248C13.4486 13.7621 13.4798 13.6894 13.4931 13.6126C13.5065 13.5357 13.5016 13.4568 13.479 13.3821L12.718 10.8761C13.81 9.8951 14.5 8.5591 14.5 7.0691C14.5 6.9241 14.493 6.7791 14.48 6.6381C14.741 6.5281 14.988 6.3721 15.185 6.1941C15.5 6.5001 16 6.5001 16 5.7771C16 6.0001 15.5 6.0001 15.539 5.7511C15.581 5.67083 15.6113 5.58496 15.629 5.4961C15.6525 5.38028 15.6463 5.26039 15.611 5.1476C15.5757 5.03482 15.5124 4.93282 15.427 4.8511C15.3369 4.75828 15.2185 4.69822 15.0904 4.68047C14.9623 4.66271 14.8319 4.68828 14.72 4.7531C14.6171 4.80996 14.5293 4.89067 14.4641 4.98846C14.3988 5.08625 14.358 5.19826 14.345 5.3151C14.321 5.5581 14.427 5.7951 14.665 5.9691C14.5824 6.02619 14.4959 6.07732 14.406 6.1221C13.872 3.4581 11.122 1.5271 7.964 1.5271V1.5271ZM2.516 6.2601C2.971 4.1941 5.183 2.5271 7.964 2.5271C11.11 2.5271 13.5 4.6411 13.5 7.0691C13.5 8.3231 12.876 9.4791 11.83 10.3171C11.7523 10.3796 11.695 10.464 11.6656 10.5593C11.6362 10.6547 11.636 10.7566 11.665 10.8521L12.325 13.0271H11.34L10.75 11.5401C10.7025 11.4203 10.6105 11.3234 10.4933 11.2698C10.3761 11.2161 10.2427 11.2098 10.121 11.2521C9.46 11.4821 8.731 11.6111 7.964 11.6111C7.22997 11.613 6.50084 11.4916 5.807 11.2521C5.68245 11.2088 5.54585 11.2165 5.42692 11.2734C5.308 11.3303 5.21637 11.4319 5.172 11.5561L4.647 13.0271H3.668L4.301 10.8771C4.32924 10.7813 4.32814 10.6792 4.29784 10.584C4.26754 10.4889 4.20943 10.4049 4.131 10.3431C3.59596 9.92898 3.15777 9.40308 2.847 8.8021C2.80537 8.71949 2.74164 8.65005 2.6629 8.6015C2.58416 8.55295 2.4935 8.5272 2.401 8.5271H1.841C1.7234 8.52697 1.6096 8.48539 1.51962 8.40968C1.42964 8.33396 1.36922 8.22895 1.349 8.1131L1.095 6.6531H2.028C2.14194 6.653 2.25244 6.61399 2.34119 6.54252C2.42994 6.47105 2.49161 6.37141 2.516 6.2601V6.2601ZM15.137 5.4031C15.1192 5.47912 15.0858 5.55062 15.039 5.6131C15.024 5.6053 15.0094 5.59696 14.995 5.5881C14.849 5.4981 14.838 5.4131 14.843 5.3651C14.8479 5.32922 14.861 5.29495 14.8813 5.26495C14.9016 5.23495 14.9285 5.21003 14.96 5.1921C15.009 5.1651 15.04 5.1711 15.073 5.2041C15.1008 5.22828 15.1215 5.2596 15.1327 5.29468C15.144 5.32975 15.1455 5.36725 15.137 5.4031V5.4031Z" fill="currentColor"/>
</svg>
