<svg width="16" height="16" viewBox="0 0 16 16" fill="none" xmlns="http://www.w3.org/2000/svg">
<path d="M7.964 1.5271C4.987 1.5271 2.393 3.2311 1.644 5.6521H1.094C0.948206 5.65226 0.804214 5.6843 0.672108 5.74596C0.540002 5.80763 0.422978 5.89744 0.329233 6.00909C0.235489 6.12075 0.167292 6.25155 0.129421 6.39233C0.0915499 6.53312 0.08492 6.68048 0.109996 6.8241L0.363996 8.2841C0.424526 8.63217 0.605971 8.9477 0.876354 9.17509C1.14674 9.40248 1.48871 9.52714 1.842 9.5271H2.105C2.405 10.0401 2.793 10.5051 3.25 10.9091L2.521 13.3861C2.49907 13.4607 2.49484 13.5393 2.50864 13.6158C2.52244 13.6923 2.55388 13.7646 2.60048 13.8268C2.64707 13.889 2.70753 13.9395 2.77706 13.9743C2.84659 14.0091 2.92326 14.0271 3.001 14.0271H5.001C5.10416 14.0271 5.20481 13.9952 5.28913 13.9358C5.37346 13.8763 5.43733 13.7923 5.472 13.6951L5.954 12.3441C6.589 12.5171 7.264 12.6111 7.965 12.6111C8.672 12.6111 9.353 12.5161 9.993 12.3391L10.536 13.7111C10.5729 13.8043 10.637 13.8843 10.7199 13.9406C10.8028 13.997 10.9007 14.0271 11.001 14.0271H13.001C13.079 14.027 13.1559 14.0087 13.2256 13.9736C13.2953 13.9384 13.3557 13.8875 13.4022 13.8248C13.4486 13.7621 13.4798 13.6894 13.4931 13.6126C13.5065 13.5357 13.5016 13.4568 13.479 13.3821L12.718 10.8761C13.81 9.8951 14.5 8.5591 14.5 7.0691C14.5 6.9241 14.493 6.7791 14.48 6.6381C14.741 6.5281 14.988 6.3721 15.185 6.1941C15.5 6.5001 16 6.5001 16 5.7771C16 6.0001 15.5 6.0001 15.539 5.7511C15.581 5.67083 15.6113 5.58496 15.629 5.4961C15.6525 5.38028 15.6463 5.26039 15.611 5.1476C15.5757 5.03482 15.5124 4.93282 15.427 4.8511C15.3369 4.75828 15.2185 4.69822 15.0904 4.68047C14.9623 4.66271 14.8319 4.68828 14.72 4.7531C14.6171 4.80996 14.5293 4.89067 14.4641 4.98846C14.3988 5.08625 14.358 5.19826 14.345 5.3151C14.321 5.5581 14.427 5.7951 14.665 5.9691C14.5824 6.02619 14.4959 6.07732 14.406 6.1221C13.872 3.4581 11.122 1.5271 7.964 1.5271V1.5271ZM15.137 5.4031C15.1192 5.47912 15.0858 5.55062 15.039 5.6131C15.024 5.6053 15.0094 5.59696 14.995 5.5881C14.849 5.4981 14.838 5.4131 14.843 5.3651C14.8479 5.32922 14.861 5.29495 14.8813 5.26495C14.9016 5.23495 14.9285 5.21003 14.96 5.1921C15.009 5.1651 15.04 5.1711 15.073 5.2041C15.1008 5.22828 15.1215 5.2596 15.1327 5.29468C15.144 5.32975 15.1455 5.36725 15.137 5.4031V5.4031ZM6.138 4.7531C6.07394 4.77484 6.00613 4.78335 5.93869 4.77812C5.87125 4.77289 5.80556 4.75403 5.74562 4.72268C5.68568 4.69133 5.63272 4.64815 5.58995 4.59574C5.54718 4.54333 5.51549 4.48278 5.4968 4.41777C5.47811 4.35276 5.4728 4.28463 5.48121 4.2175C5.48961 4.15038 5.51155 4.08566 5.54569 4.02726C5.57983 3.96887 5.62547 3.918 5.67983 3.87775C5.7342 3.8375 5.79617 3.8087 5.862 3.7931C6.54555 3.59777 7.25309 3.49914 7.964 3.5001C8.727 3.5001 9.461 3.6101 10.144 3.8151C10.2069 3.83394 10.2655 3.86499 10.3164 3.90648C10.3673 3.94796 10.4095 3.99906 10.4407 4.05687C10.4718 4.11467 10.4913 4.17804 10.4979 4.24337C10.5046 4.3087 10.4983 4.3747 10.4795 4.4376C10.4607 4.5005 10.4296 4.55908 10.3881 4.60998C10.3466 4.66088 10.2955 4.70312 10.2377 4.73427C10.1799 4.76543 10.1166 4.78489 10.0512 4.79155C9.9859 4.79821 9.9199 4.79194 9.857 4.7731C9.24259 4.5907 8.6049 4.49873 7.964 4.5001C7.324 4.5001 6.709 4.5901 6.138 4.7541V4.7531ZM5 6.2501C5 6.44901 4.92098 6.63978 4.78033 6.78043C4.63967 6.92108 4.44891 7.0001 4.25 7.0001C4.05108 7.0001 3.86032 6.92108 3.71967 6.78043C3.57901 6.63978 3.5 6.44901 3.5 6.2501C3.5 6.05119 3.57901 5.86042 3.71967 5.71977C3.86032 5.57912 4.05108 5.5001 4.25 5.5001C4.44891 5.5001 4.63967 5.57912 4.78033 5.71977C4.92098 5.86042 5 6.05119 5 6.2501V6.2501Z" fill="#1B1B1B"/>
</svg>
