<svg width="16" height="16" viewBox="0 0 16 16" fill="none" xmlns="http://www.w3.org/2000/svg">
<path d="M9.828 0.721925C9.89371 0.721807 9.95879 0.734641 10.0195 0.759693C10.0803 0.784745 10.1355 0.821523 10.182 0.867925L15.132 5.81792C15.2257 5.91169 15.2784 6.03884 15.2784 6.17142C15.2784 6.30401 15.2257 6.43116 15.132 6.52492C14.652 7.00492 14.06 7.11292 13.629 7.11292C13.452 7.11292 13.294 7.09492 13.169 7.07392L10.035 10.2079C10.1175 10.5403 10.171 10.8793 10.195 11.2209C10.241 11.9229 10.163 12.9079 9.47501 13.5959C9.38124 13.6897 9.25409 13.7423 9.1215 13.7423C8.98892 13.7423 8.86177 13.6897 8.768 13.5959L5.939 10.7679L2.757 13.9499C2.562 14.1449 1.538 14.8519 1.343 14.6569C1.148 14.4619 1.855 13.4369 2.05 13.2429L5.232 10.0609L2.404 7.23192C2.31027 7.13816 2.25761 7.01101 2.25761 6.87842C2.25761 6.74584 2.31027 6.61869 2.404 6.52492C3.092 5.83692 4.077 5.75792 4.779 5.80492C5.12066 5.82886 5.4596 5.8824 5.792 5.96492L8.926 2.83192C8.89985 2.67964 8.88647 2.52544 8.886 2.37092C8.886 1.94092 8.99401 1.34892 9.47501 0.867925C9.56871 0.774456 9.69565 0.721953 9.828 0.721925V0.721925ZM9.95 2.83392V2.83192V2.83392ZM9.95 2.83192V2.83392C9.97888 2.92189 9.98277 3.01615 9.96123 3.1062C9.93969 3.19625 9.89357 3.27855 9.828 3.34392L6.293 6.87792C6.22732 6.94333 6.14475 6.98918 6.05452 7.01037C5.96428 7.03156 5.86993 7.02725 5.782 6.99792H5.78L5.766 6.99392C5.67087 6.96543 5.57482 6.94008 5.478 6.91792C5.22644 6.85924 4.97065 6.82046 4.713 6.80192C4.291 6.77392 3.877 6.80992 3.538 6.95192L9.048 12.4609C9.189 12.1209 9.225 11.7079 9.197 11.2859C9.17153 10.9287 9.10715 10.5752 9.005 10.2319L9.001 10.2189V10.2179C8.97148 10.1299 8.96706 10.0353 8.98826 9.94487C9.00945 9.85444 9.05542 9.7717 9.121 9.70592L12.657 6.17092C12.7251 6.10242 12.8116 6.0551 12.906 6.03469C13.0004 6.01428 13.0987 6.02166 13.189 6.05592L13.285 6.07792C13.372 6.09492 13.493 6.11192 13.629 6.11192C13.743 6.11192 13.859 6.10092 13.972 6.07192L9.927 2.02792C9.898 2.14092 9.887 2.25792 9.887 2.37092C9.88749 2.52631 9.90834 2.68096 9.94901 2.83092L9.95 2.83192Z" fill="currentColor"/>
</svg>
