<svg width="16" height="16" viewBox="0 0 16 16" fill="none" xmlns="http://www.w3.org/2000/svg">
<path d="M9.828 0.721925C9.89371 0.721807 9.95879 0.734641 10.0195 0.759693C10.0803 0.784745 10.1355 0.821523 10.182 0.867925L15.132 5.81792C15.2257 5.91169 15.2784 6.03884 15.2784 6.17142C15.2784 6.30401 15.2257 6.43116 15.132 6.52492C14.652 7.00492 14.06 7.11292 13.629 7.11292C13.452 7.11292 13.294 7.09492 13.169 7.07392L10.035 10.2079C10.1175 10.5403 10.171 10.8793 10.195 11.2209C10.241 11.9229 10.163 12.9079 9.47501 13.5959C9.38124 13.6897 9.25409 13.7423 9.1215 13.7423C8.98892 13.7423 8.86177 13.6897 8.768 13.5959L5.939 10.7679L2.757 13.9499C2.562 14.1449 1.538 14.8519 1.343 14.6569C1.148 14.4619 1.855 13.4369 2.05 13.2429L5.232 10.0609L2.404 7.23192C2.31027 7.13816 2.25761 7.01101 2.25761 6.87842C2.25761 6.74584 2.31027 6.61869 2.404 6.52492C3.092 5.83692 4.077 5.75792 4.779 5.80492C5.12066 5.82886 5.4596 5.8824 5.792 5.96492L8.926 2.83192C8.89985 2.67964 8.88647 2.52544 8.886 2.37092C8.886 1.94092 8.99401 1.34892 9.47501 0.867925C9.56871 0.774456 9.69565 0.721953 9.828 0.721925V0.721925Z" fill="currentColor"/>
</svg>
