<svg width="16" height="16" viewBox="0 0 16 16" fill="none" xmlns="http://www.w3.org/2000/svg">
<g clip-path="url(#clip0_1419_1976)">
<path d="M15.858 11.451C15.545 11.846 14.779 12.127 14.779 12.127L9.08298 14.173V12.664L13.275 11.171C13.751 11.001 13.824 10.759 13.437 10.633C13.051 10.506 12.352 10.543 11.877 10.713L9.08298 11.697V10.131L9.24398 10.077C9.24398 10.077 10.051 9.791 11.186 9.665C12.321 9.54 13.711 9.682 14.802 10.095C16.032 10.485 16.17 11.057 15.858 11.451V11.451ZM9.62498 8.883V5.023C9.62498 4.57 9.54198 4.153 9.11698 4.035C8.79098 3.93 8.58898 4.233 8.58898 4.685V14.349L5.98298 13.522V2C7.09098 2.206 8.70498 2.692 9.57298 2.985C11.78 3.742 12.528 4.685 12.528 6.81C12.528 8.881 11.25 9.666 9.62498 8.882V8.883ZM1.20098 12.508C-0.0610187 12.15 -0.271019 11.41 0.303981 10.984C0.835981 10.59 1.73998 10.294 1.73998 10.294L5.47698 8.964V10.479L2.78698 11.442C2.31298 11.612 2.23998 11.853 2.62598 11.98C3.01198 12.106 3.71098 12.07 4.18598 11.9L5.47598 11.431V12.787L5.21898 12.83C3.8732 13.0479 2.49468 12.9371 1.20098 12.507V12.508Z" fill="#1B1B1B"/>
</g>
<defs>
<clipPath id="clip0_1419_1976">
<rect width="16" height="16" fill="white"/>
</clipPath>
</defs>
</svg>
