<svg width="16" height="16" viewBox="0 0 16 16" fill="none" xmlns="http://www.w3.org/2000/svg">
<path d="M1.85399 14.8539L14.854 1.8539C14.9005 1.80741 14.9374 1.75222 14.9625 1.69148C14.9877 1.63074 15.0006 1.56564 15.0006 1.4999C15.0006 1.43416 14.9877 1.36906 14.9625 1.30832C14.9374 1.24758 14.9005 1.19239 14.854 1.1459C14.8075 1.09941 14.7523 1.06253 14.6916 1.03738C14.6308 1.01222 14.5657 0.999268 14.5 0.999268C14.4342 0.999268 14.3691 1.01222 14.3084 1.03738C14.2477 1.06253 14.1925 1.09941 14.146 1.1459L1.14599 14.1459C1.0995 14.1924 1.06263 14.2476 1.03747 14.3083C1.01231 14.3691 0.999359 14.4342 0.999359 14.4999C0.999359 14.5656 1.01231 14.6307 1.03747 14.6915C1.06263 14.7522 1.0995 14.8074 1.14599 14.8539C1.23988 14.9478 1.36722 15.0005 1.49999 15.0005C1.56573 15.0005 1.63083 14.9876 1.69157 14.9624C1.75231 14.9373 1.8075 14.9004 1.85399 14.8539V14.8539ZM3.99999 0.999899C4.1326 0.999899 4.25978 1.05258 4.35354 1.14635C4.44731 1.24011 4.49999 1.36729 4.49999 1.4999V3.4999H6.49999C6.6326 3.4999 6.75978 3.55258 6.85354 3.64635C6.94731 3.74011 6.99999 3.86729 6.99999 3.9999C6.99999 4.13251 6.94731 4.25968 6.85354 4.35345C6.75978 4.44722 6.6326 4.4999 6.49999 4.4999H4.49999V6.4999C4.49999 6.63251 4.44731 6.75968 4.35354 6.85345C4.25978 6.94722 4.1326 6.9999 3.99999 6.9999C3.86738 6.9999 3.74021 6.94722 3.64644 6.85345C3.55267 6.75968 3.49999 6.63251 3.49999 6.4999V4.4999H1.49999C1.36738 4.4999 1.24021 4.44722 1.14644 4.35345C1.05267 4.25968 0.999991 4.13251 0.999991 3.9999C0.999991 3.86729 1.05267 3.74011 1.14644 3.64635C1.24021 3.55258 1.36738 3.4999 1.49999 3.4999H3.49999V1.4999C3.49999 1.36729 3.55267 1.24011 3.64644 1.14635C3.74021 1.05258 3.86738 0.999899 3.99999 0.999899ZM8.99999 11.9999C8.99999 11.8673 9.05267 11.7401 9.14644 11.6463C9.2402 11.5526 9.36738 11.4999 9.49999 11.4999H14.5C14.6326 11.4999 14.7598 11.5526 14.8535 11.6463C14.9473 11.7401 15 11.8673 15 11.9999C15 12.1325 14.9473 12.2597 14.8535 12.3535C14.7598 12.4472 14.6326 12.4999 14.5 12.4999H9.49999C9.36738 12.4999 9.2402 12.4472 9.14644 12.3535C9.05267 12.2597 8.99999 12.1325 8.99999 11.9999Z" fill="#1B1B1B"/>
</svg>
