<svg width="16" height="16" viewBox="0 0 16 16" fill="none" xmlns="http://www.w3.org/2000/svg">
<path fill-rule="evenodd" clip-rule="evenodd" d="M5.5 6C5.36739 6 5.24021 6.05268 5.14645 6.14645C5.05268 6.24021 5 6.36739 5 6.5V10.5C5 10.6326 5.05268 10.7598 5.14645 10.8536C5.24021 10.9473 5.36739 11 5.5 11C5.63261 11 5.75979 10.9473 5.85355 10.8536C5.94732 10.7598 6 10.6326 6 10.5V9H6.293L8.293 11L7.146 12.146C7.05211 12.2399 6.99937 12.3672 6.99937 12.5C6.99937 12.6328 7.05211 12.7601 7.146 12.854C7.23989 12.9479 7.36722 13.0006 7.5 13.0006C7.63278 13.0006 7.76011 12.9479 7.854 12.854L9 11.707L10.146 12.854C10.2399 12.9479 10.3672 13.0006 10.5 13.0006C10.6328 13.0006 10.7601 12.9479 10.854 12.854C10.9479 12.7601 11.0006 12.6328 11.0006 12.5C11.0006 12.3672 10.9479 12.2399 10.854 12.146L9.707 11L10.854 9.854C10.9479 9.76011 11.0006 9.63278 11.0006 9.5C11.0006 9.36722 10.9479 9.23989 10.854 9.146C10.7601 9.05211 10.6328 8.99937 10.5 8.99937C10.3672 8.99937 10.2399 9.05211 10.146 9.146L9 10.293L7.695 8.987C8.07226 8.93701 8.41641 8.74549 8.65775 8.45125C8.89909 8.157 9.01956 7.78203 8.99477 7.40228C8.96998 7.02253 8.80177 6.66641 8.52423 6.40603C8.24669 6.14566 7.88056 6.00052 7.5 6H5.5ZM6 7V8H7.5C7.63261 8 7.75979 7.94732 7.85355 7.85355C7.94732 7.75979 8 7.63261 8 7.5C8 7.36739 7.94732 7.24021 7.85355 7.14645C7.75979 7.05268 7.63261 7 7.5 7H6Z" fill="#1B1B1B"/>
<path fill-rule="evenodd" clip-rule="evenodd" d="M2 1C2 0.734784 2.10536 0.48043 2.29289 0.292893C2.48043 0.105357 2.73478 0 3 0L13 0C13.2652 0 13.5196 0.105357 13.7071 0.292893C13.8946 0.48043 14 0.734784 14 1V3C14 3.26522 13.8946 3.51957 13.7071 3.70711C13.5196 3.89464 13.2652 4 13 4V14.5C13 14.8978 12.842 15.2794 12.5607 15.5607C12.2794 15.842 11.8978 16 11.5 16H4.5C4.10218 16 3.72064 15.842 3.43934 15.5607C3.15804 15.2794 3 14.8978 3 14.5V4C2.73478 4 2.48043 3.89464 2.29289 3.70711C2.10536 3.51957 2 3.26522 2 3V1ZM4 4H12V14.5C12 14.6326 11.9473 14.7598 11.8536 14.8536C11.7598 14.9473 11.6326 15 11.5 15H4.5C4.36739 15 4.24021 14.9473 4.14645 14.8536C4.05268 14.7598 4 14.6326 4 14.5V4ZM3 3V1H13V3H3Z" fill="#1B1B1B"/>
</svg>
