<svg width="16" height="16" viewBox="0 0 16 16" fill="none" xmlns="http://www.w3.org/2000/svg">
<path d="M12 12C12.2652 12 12.5196 11.8946 12.7071 11.7071C12.8946 11.5196 13 11.2652 13 11V8.558C13 8.29278 12.8946 8.03843 12.7071 7.85089C12.5196 7.66336 12.2652 7.558 12 7.558H10.612C10.612 7.207 10.633 6.855 10.674 6.504C10.736 6.132 10.84 5.801 10.984 5.512C11.129 5.222 11.315 4.995 11.543 4.829C11.77 4.643 12.059 4.55 12.411 4.55V3C11.832 3 11.326 3.124 10.891 3.372C10.4598 3.61749 10.089 3.95645 9.80601 4.364C9.52193 4.81331 9.31255 5.3057 9.18601 5.822C9.05849 6.39176 8.99609 6.97416 9.00001 7.558V11C9.00001 11.2652 9.10536 11.5196 9.2929 11.7071C9.48044 11.8946 9.73479 12 10 12H12ZM6.00001 12C6.26522 12 6.51958 11.8946 6.70711 11.7071C6.89465 11.5196 7.00001 11.2652 7.00001 11V8.558C7.00001 8.29278 6.89465 8.03843 6.70711 7.85089C6.51958 7.66336 6.26522 7.558 6.00001 7.558H4.61201C4.61201 7.207 4.63301 6.855 4.67401 6.504C4.73601 6.132 4.84001 5.801 4.98401 5.512C5.12901 5.222 5.31501 4.995 5.54301 4.829C5.77001 4.643 6.05901 4.55 6.41101 4.55V3C5.83201 3 5.32601 3.124 4.89101 3.372C4.45979 3.61749 4.08905 3.95645 3.80601 4.364C3.52193 4.81331 3.31255 5.3057 3.18601 5.822C3.05849 6.39176 2.99609 6.97416 3.00001 7.558V11C3.00001 11.2652 3.10536 11.5196 3.2929 11.7071C3.48043 11.8946 3.73479 12 4.00001 12H6.00001Z" fill="#1B1B1B"/>
</svg>
