<svg width="16" height="16" viewBox="0 0 16 16" fill="none" xmlns="http://www.w3.org/2000/svg">
<g clip-path="url(#clip0_1419_1929)">
<path d="M16 8C16 10.1217 15.1571 12.1566 13.6569 13.6569C12.1566 15.1571 10.1217 16 8 16C5.87827 16 3.84344 15.1571 2.34315 13.6569C0.842855 12.1566 0 10.1217 0 8C0 5.87827 0.842855 3.84344 2.34315 2.34315C3.84344 0.842855 5.87827 0 8 0C10.1217 0 12.1566 0.842855 13.6569 2.34315C15.1571 3.84344 16 5.87827 16 8V8ZM5.5 4.002V12H6.835V8.924H8.52L9.98 12H11.5L9.856 8.701C10.684 8.402 11.351 7.6 11.351 6.463C11.351 4.975 10.321 4.002 8.611 4.002H5.5V4.002ZM6.835 5.092V7.869H8.384C9.379 7.869 9.957 7.406 9.957 6.509C9.957 5.596 9.361 5.092 8.42 5.092H6.835Z" fill="currentColor"/>
</g>
<defs>
<clipPath id="clip0_1419_1929">
<rect width="16" height="16" fill="white"/>
</clipPath>
</defs>
</svg>
