<svg width="16" height="16" viewBox="0 0 16 16" fill="none" xmlns="http://www.w3.org/2000/svg">
<g clip-path="url(#clip0_1419_1932)">
<path d="M5.5 4.00195H8.61C10.32 4.00195 11.351 4.97495 11.351 6.46195C11.351 7.59995 10.684 8.40195 9.856 8.70195L11.5 12H9.98L8.52 8.92395H6.836V12H5.5V4.00195ZM6.835 5.09195V7.86895H8.384C9.379 7.86895 9.957 7.40595 9.957 6.50895C9.957 5.59595 9.361 5.09195 8.42 5.09195H6.835Z" fill="#1B1B1B"/>
<path d="M0 2C0 1.46957 0.210714 0.960859 0.585786 0.585786C0.960859 0.210714 1.46957 0 2 0L14 0C14.5304 0 15.0391 0.210714 15.4142 0.585786C15.7893 0.960859 16 1.46957 16 2V14C16 14.5304 15.7893 15.0391 15.4142 15.4142C15.0391 15.7893 14.5304 16 14 16H2C1.46957 16 0.960859 15.7893 0.585786 15.4142C0.210714 15.0391 0 14.5304 0 14V2ZM15 2C15 1.73478 14.8946 1.48043 14.7071 1.29289C14.5196 1.10536 14.2652 1 14 1H2C1.73478 1 1.48043 1.10536 1.29289 1.29289C1.10536 1.48043 1 1.73478 1 2V14C1 14.2652 1.10536 14.5196 1.29289 14.7071C1.48043 14.8946 1.73478 15 2 15H14C14.2652 15 14.5196 14.8946 14.7071 14.7071C14.8946 14.5196 15 14.2652 15 14V2Z" fill="#1B1B1B"/>
</g>
<defs>
<clipPath id="clip0_1419_1932">
<rect width="16" height="16" fill="white"/>
</clipPath>
</defs>
</svg>
