<svg width="16" height="16" viewBox="0 0 16 16" fill="none" xmlns="http://www.w3.org/2000/svg">
<g clip-path="url(#clip0_1419_1931)">
<path d="M6.83496 5.09204V7.86904H8.38396C9.37896 7.86904 9.95696 7.40604 9.95696 6.50904C9.95696 5.59604 9.36096 5.09204 8.41996 5.09204H6.83496Z" fill="currentColor"/>
<path d="M2 0C1.46957 0 0.960859 0.210714 0.585786 0.585786C0.210714 0.960859 0 1.46957 0 2L0 14C0 14.5304 0.210714 15.0391 0.585786 15.4142C0.960859 15.7893 1.46957 16 2 16H14C14.5304 16 15.0391 15.7893 15.4142 15.4142C15.7893 15.0391 16 14.5304 16 14V2C16 1.46957 15.7893 0.960859 15.4142 0.585786C15.0391 0.210714 14.5304 0 14 0L2 0ZM5.5 4.002H8.61C10.32 4.002 11.351 4.975 11.351 6.462C11.351 7.6 10.684 8.402 9.856 8.702L11.5 12H9.98L8.52 8.924H6.836V12H5.5V4.002Z" fill="currentColor"/>
</g>
<defs>
<clipPath id="clip0_1419_1931">
<rect width="16" height="16" fill="white"/>
</clipPath>
</defs>
</svg>
