<svg width="16" height="16" viewBox="0 0 16 16" fill="none" xmlns="http://www.w3.org/2000/svg">
<g clip-path="url(#clip0_1419_1701)">
<path d="M9.302 1.25589C9.17075 1.02646 8.98121 0.835793 8.75257 0.703183C8.52393 0.570573 8.26431 0.500732 8 0.500732C7.73568 0.500732 7.47606 0.570573 7.24742 0.703183C7.01878 0.835793 6.82924 1.02646 6.698 1.25589L4.994 4.23589C4.92809 4.35112 4.91066 4.48782 4.94554 4.61591C4.98042 4.744 5.06476 4.85298 5.18 4.91889C5.29523 4.98479 5.43193 5.00222 5.56002 4.96734C5.68811 4.93246 5.79709 4.84812 5.863 4.73289L7.566 1.75189C7.60975 1.67541 7.67293 1.61186 7.74914 1.56765C7.82535 1.52345 7.91189 1.50017 8 1.50017C8.0881 1.50017 8.17464 1.52345 8.25085 1.56765C8.32707 1.61186 8.39025 1.67541 8.434 1.75189L10.974 6.19589L9.718 5.85889C9.5899 5.82441 9.45335 5.84223 9.33839 5.90843C9.22343 5.97463 9.13947 6.08379 9.105 6.21189C9.07052 6.33999 9.08834 6.47653 9.15454 6.59149C9.22074 6.70645 9.3299 6.79041 9.458 6.82489L11.873 7.47189C11.9364 7.48898 12.0026 7.49341 12.0677 7.48493C12.1329 7.47644 12.1957 7.45519 12.2526 7.42241C12.3096 7.38963 12.3595 7.34595 12.3995 7.29387C12.4396 7.24179 12.4689 7.18233 12.486 7.11889L13.133 4.70389C13.15 4.64046 13.1543 4.5743 13.1458 4.50919C13.1372 4.44408 13.1159 4.3813 13.0831 4.32442C13.0503 4.26755 13.0066 4.21769 12.9545 4.17771C12.9024 4.13772 12.8429 4.10839 12.7795 4.09139C12.7161 4.07438 12.6499 4.07003 12.5848 4.07859C12.5197 4.08716 12.4569 4.10846 12.4 4.14128C12.3432 4.17411 12.2933 4.21782 12.2533 4.26991C12.2133 4.322 12.184 4.38146 12.167 4.44489L11.834 5.68689L9.302 1.25589V1.25589ZM2.973 7.77289L1.718 8.10989C1.5899 8.14436 1.45335 8.12654 1.33839 8.06034C1.22343 7.99414 1.13947 7.88499 1.105 7.75689C1.07052 7.62879 1.08834 7.49224 1.15454 7.37728C1.22074 7.26232 1.3299 7.17836 1.458 7.14389L3.874 6.49689C4.00196 6.46266 4.13828 6.48061 4.25302 6.54679C4.36776 6.61297 4.45155 6.72198 4.486 6.84989L5.133 9.26489C5.16734 9.39299 5.14939 9.52948 5.0831 9.64435C5.01681 9.75922 4.9076 9.84304 4.7795 9.87739C4.6514 9.91173 4.5149 9.89378 4.40003 9.82749C4.28517 9.7612 4.20134 9.65199 4.167 9.52389L3.834 8.28189L1.289 12.7359C1.24557 12.8119 1.22286 12.898 1.22316 12.9856C1.22346 13.0731 1.24674 13.1591 1.29068 13.2348C1.33462 13.3105 1.39768 13.3734 1.47355 13.4171C1.54942 13.4608 1.63544 13.4839 1.723 13.4839H5C5.1326 13.4839 5.25978 13.5366 5.35355 13.6303C5.44732 13.7241 5.5 13.8513 5.5 13.9839C5.5 14.1165 5.44732 14.2437 5.35355 14.3374C5.25978 14.4312 5.1326 14.4839 5 14.4839H1.723C1.46032 14.4838 1.20227 14.4147 0.974664 14.2836C0.747059 14.1525 0.55788 13.9639 0.426054 13.7367C0.294228 13.5095 0.224376 13.2516 0.223489 12.989C0.222601 12.7263 0.290708 12.468 0.420997 12.2399L2.973 7.77289V7.77289ZM13.863 9.23589C13.8313 9.17725 13.7882 9.12553 13.7362 9.08379C13.6843 9.04205 13.6245 9.01112 13.5604 8.99282C13.4963 8.97452 13.4292 8.96923 13.363 8.97724C13.2968 8.98526 13.2329 9.00642 13.1751 9.03949C13.1172 9.07256 13.0665 9.11687 13.026 9.16981C12.9855 9.22276 12.956 9.28326 12.9392 9.34777C12.9224 9.41228 12.9187 9.4795 12.9283 9.54546C12.9379 9.61143 12.9606 9.67481 12.995 9.73189L14.711 12.7359C14.7544 12.8119 14.7771 12.898 14.7768 12.9856C14.7765 13.0731 14.7533 13.1591 14.7093 13.2348C14.6654 13.3105 14.6023 13.3734 14.5264 13.4171C14.4506 13.4608 14.3646 13.4839 14.277 13.4839H8.707L9.354 12.8379C9.44775 12.744 9.50037 12.6167 9.50027 12.484C9.50018 12.3514 9.44738 12.2241 9.3535 12.1304C9.30701 12.084 9.25183 12.0472 9.19112 12.0221C9.1304 11.997 9.06534 11.9841 8.99964 11.9841C8.86696 11.9842 8.73975 12.037 8.646 12.1309L7.146 13.6309C7.09934 13.6772 7.06232 13.7322 7.03705 13.7929C7.01178 13.8536 6.99877 13.9187 6.99877 13.9844C6.99877 14.0501 7.01178 14.1152 7.03705 14.1759C7.06232 14.2365 7.09934 14.2916 7.146 14.3379L8.646 15.8379C8.73975 15.9318 8.86696 15.9846 8.99964 15.9847C9.06534 15.9847 9.1304 15.9718 9.19112 15.9467C9.25183 15.9216 9.30701 15.8848 9.3535 15.8384C9.39998 15.792 9.43687 15.7368 9.46206 15.6762C9.48724 15.6155 9.50023 15.5504 9.50027 15.4847C9.50032 15.419 9.48743 15.354 9.46233 15.2933C9.43723 15.2326 9.40042 15.1774 9.354 15.1309L8.707 14.4839H14.277C14.5397 14.4838 14.7977 14.4147 15.0253 14.2836C15.2529 14.1525 15.4421 13.9639 15.5739 13.7367C15.7058 13.5095 15.7756 13.2516 15.7765 12.989C15.7774 12.7263 15.7093 12.468 15.579 12.2399L13.863 9.23589V9.23589Z" fill="currentColor"/>
</g>
<defs>
<clipPath id="clip0_1419_1701">
<rect width="16" height="16" fill="white"/>
</clipPath>
</defs>
</svg>
