<svg width="16" height="16" viewBox="0 0 16 16" fill="none" xmlns="http://www.w3.org/2000/svg">
<g clip-path="url(#clip0_1419_1978)">
<path fill-rule="evenodd" clip-rule="evenodd" d="M3.04999 3.05007C2.3999 3.70009 1.88422 4.4718 1.53239 5.32112C1.18057 6.17045 0.999481 7.08076 0.999481 8.00007C0.999481 8.91939 1.18057 9.8297 1.53239 10.679C1.88422 11.5283 2.3999 12.3001 3.04999 12.9501C3.14107 13.0444 3.19146 13.1707 3.19032 13.3018C3.18918 13.4329 3.1366 13.5583 3.0439 13.651C2.95119 13.7437 2.82579 13.7963 2.69469 13.7974C2.56359 13.7985 2.43729 13.7482 2.34299 13.6571C1.60007 12.9142 1.01076 12.0323 0.608698 11.0616C0.206635 10.091 -0.000305176 9.05068 -0.000305176 8.00007C-0.000305176 6.94946 0.206635 5.90914 0.608698 4.93851C1.01076 3.96788 1.60007 3.08595 2.34299 2.34307C2.38911 2.29532 2.44428 2.25723 2.50528 2.23102C2.56629 2.20482 2.6319 2.19103 2.69829 2.19045C2.76468 2.18987 2.83052 2.20252 2.89196 2.22766C2.95341 2.2528 3.00924 2.28993 3.05618 2.33688C3.10313 2.38382 3.14026 2.43965 3.1654 2.5011C3.19054 2.56254 3.20319 2.62838 3.20261 2.69477C3.20203 2.76116 3.18824 2.82677 3.16204 2.88778C3.13583 2.94878 3.09774 3.00395 3.04999 3.05007ZM12.95 2.34307C13.0438 2.24934 13.1709 2.19668 13.3035 2.19668C13.4361 2.19668 13.5632 2.24934 13.657 2.34307C14.3999 3.08595 14.9892 3.96788 15.3913 4.93851C15.7933 5.90914 16.0003 6.94946 16.0003 8.00007C16.0003 9.05068 15.7933 10.091 15.3913 11.0616C14.9892 12.0323 14.3999 12.9142 13.657 13.6571C13.5627 13.7482 13.4364 13.7985 13.3053 13.7974C13.1742 13.7963 13.0488 13.7437 12.9561 13.651C12.8634 13.5583 12.8108 13.4329 12.8096 13.3018C12.8085 13.1707 12.8589 13.0444 12.95 12.9501C13.6001 12.3001 14.1158 11.5283 14.4676 10.679C14.8194 9.8297 15.0005 8.91939 15.0005 8.00007C15.0005 7.08076 14.8194 6.17045 14.4676 5.32112C14.1158 4.4718 13.6001 3.70009 12.95 3.05007C12.8563 2.95631 12.8036 2.82916 12.8036 2.69657C12.8036 2.56399 12.8563 2.43684 12.95 2.34307V2.34307ZM5.99999 11.0001C5.99999 11.2653 5.89463 11.5196 5.70709 11.7072C5.51956 11.8947 5.2652 12.0001 4.99999 12.0001C4.73477 12.0001 4.48042 11.8947 4.29288 11.7072C4.10534 11.5196 3.99999 11.2653 3.99999 11.0001C3.99999 10.7349 4.10534 10.4805 4.29288 10.293C4.48042 10.1054 4.73477 10.0001 4.99999 10.0001C5.2652 10.0001 5.51956 10.1054 5.70709 10.293C5.89463 10.4805 5.99999 10.7349 5.99999 11.0001V11.0001ZM11 4.50007C11 4.36747 10.9473 4.24029 10.8535 4.14652C10.7598 4.05275 10.6326 4.00007 10.5 4.00007C10.3674 4.00007 10.2402 4.05275 10.1464 4.14652C10.0527 4.24029 9.99999 4.36747 9.99999 4.50007V6.61707L8.25699 5.57007C8.14321 5.50191 8.00701 5.48174 7.87836 5.514C7.74971 5.54625 7.63915 5.6283 7.57099 5.74207C7.50283 5.85585 7.48265 5.99205 7.51491 6.1207C7.54717 6.24935 7.62921 6.35991 7.74299 6.42807L9.52799 7.50007L7.74299 8.57107C7.68665 8.60482 7.63751 8.64934 7.59838 8.70208C7.55924 8.75482 7.53088 8.81475 7.51491 8.87845C7.49894 8.94215 7.49567 9.00838 7.50529 9.07334C7.51491 9.1383 7.53724 9.20074 7.57099 9.25707C7.63915 9.37085 7.74971 9.45289 7.87836 9.48515C7.94206 9.50112 8.00829 9.50439 8.07325 9.49477C8.13822 9.48515 8.20065 9.46282 8.25699 9.42907L9.99999 8.38307V10.5001C9.99999 10.6327 10.0527 10.7599 10.1464 10.8536C10.2402 10.9474 10.3674 11.0001 10.5 11.0001C10.6326 11.0001 10.7598 10.9474 10.8535 10.8536C10.9473 10.7599 11 10.6327 11 10.5001V8.38307L12.743 9.42907C12.7993 9.46282 12.8618 9.48515 12.9267 9.49477C12.9917 9.50439 13.0579 9.50112 13.1216 9.48515C13.1853 9.46918 13.2452 9.44082 13.298 9.40168C13.3507 9.36255 13.3952 9.31341 13.429 9.25707C13.4627 9.20074 13.4851 9.1383 13.4947 9.07334C13.5043 9.00838 13.501 8.94215 13.4851 8.87845C13.4691 8.81475 13.4407 8.75482 13.4016 8.70208C13.3625 8.64934 13.3133 8.60482 13.257 8.57107L11.472 7.50007L13.257 6.42907C13.3708 6.36091 13.4528 6.25035 13.4851 6.1217C13.5173 5.99305 13.4971 5.85685 13.429 5.74307C13.3608 5.6293 13.2503 5.54725 13.1216 5.515C12.993 5.48274 12.8568 5.50291 12.743 5.57107L11 6.61707V4.50007Z" fill="currentColor"/>
</g>
<defs>
<clipPath id="clip0_1419_1978">
<rect width="16" height="16" fill="white"/>
</clipPath>
</defs>
</svg>
