<svg width="16" height="16" viewBox="0 0 16 16" fill="none" xmlns="http://www.w3.org/2000/svg">
<g clip-path="url(#clip0_1419_1702)">
<path d="M11 4.00009V5.46609C11 5.51359 11.0136 5.56011 11.0391 5.60019C11.0646 5.64027 11.101 5.67225 11.144 5.6924C11.187 5.71254 11.2349 5.72002 11.282 5.71394C11.3291 5.70786 11.3735 5.68849 11.41 5.65809L13.77 3.69209C13.7981 3.66862 13.8208 3.63926 13.8363 3.60609C13.8518 3.57291 13.8599 3.53672 13.8599 3.50009C13.8599 3.46345 13.8518 3.42726 13.8363 3.39409C13.8208 3.36091 13.7981 3.33155 13.77 3.30809L11.41 1.34209C11.3735 1.31168 11.3291 1.29231 11.282 1.28623C11.2349 1.28016 11.187 1.28763 11.144 1.30778C11.101 1.32792 11.0646 1.35991 11.0391 1.39999C11.0136 1.44007 11 1.48658 11 1.53409V3.00009H5.00001C4.14885 2.99986 3.31172 3.21692 2.56791 3.63071C1.8241 4.0445 1.19824 4.64132 0.749603 5.36465C0.300967 6.08797 0.0444093 6.91386 0.00423154 7.76407C-0.0359462 8.61428 0.141586 9.46068 0.520012 10.2231C0.579155 10.3419 0.683076 10.4324 0.808913 10.4746C0.93475 10.5167 1.0722 10.5072 1.19101 10.4481C1.30983 10.3889 1.40028 10.285 1.44248 10.1592C1.48468 10.0333 1.47516 9.8959 1.41601 9.77709C1.11359 9.16721 0.971827 8.49025 1.00413 7.81028C1.03643 7.1303 1.24174 6.46983 1.60061 5.89137C1.95948 5.31291 2.46004 4.83561 3.05491 4.50465C3.64978 4.17369 4.31927 4.00002 5.00001 4.00009H11ZM15.48 5.77709C15.4507 5.71825 15.4101 5.66577 15.3606 5.62262C15.311 5.57947 15.2534 5.54651 15.1911 5.52562C15.1288 5.50472 15.063 5.49631 14.9974 5.50085C14.9319 5.50539 14.8678 5.5228 14.809 5.55209C14.7502 5.58137 14.6977 5.62196 14.6545 5.67153C14.6114 5.7211 14.5784 5.77868 14.5575 5.84099C14.5367 5.9033 14.5282 5.96911 14.5328 6.03467C14.5373 6.10023 14.5547 6.16425 14.584 6.22309C14.8864 6.83296 15.0282 7.50993 14.9959 8.1899C14.9636 8.86987 14.7583 9.53035 14.3994 10.1088C14.0405 10.6873 13.54 11.1646 12.9451 11.4955C12.3502 11.8265 11.6808 12.0002 11 12.0001H5.00101V10.5341C5.00099 10.4866 4.98744 10.4401 4.96194 10.4C4.93645 10.3599 4.90006 10.3279 4.85704 10.3078C4.81402 10.2876 4.76615 10.2802 4.71903 10.2862C4.67192 10.2923 4.62751 10.3117 4.59101 10.3421L2.23101 12.3081C2.20288 12.3315 2.18024 12.3609 2.16471 12.3941C2.14918 12.4273 2.14112 12.4635 2.14112 12.5001C2.14112 12.5367 2.14918 12.5729 2.16471 12.6061C2.18024 12.6393 2.20288 12.6686 2.23101 12.6921L4.59101 14.6581C4.62751 14.6885 4.67192 14.7079 4.71903 14.7139C4.76615 14.72 4.81402 14.7125 4.85704 14.6924C4.90006 14.6723 4.93645 14.6403 4.96194 14.6002C4.98744 14.5601 5.00099 14.5136 5.00101 14.4661V13.0001H11.001C11.8522 13.0003 12.6893 12.7833 13.4331 12.3695C14.1769 11.9557 14.8028 11.3589 15.2514 10.6355C15.7001 9.9122 15.9566 9.08632 15.9968 8.2361C16.037 7.38589 15.8594 6.5395 15.481 5.77709H15.48Z" fill="#1B1B1B"/>
<path d="M8.99999 5.49992C9.00017 5.4009 8.97094 5.30405 8.91601 5.22167C8.86108 5.13928 8.78293 5.07505 8.69145 5.03713C8.59998 4.99922 8.49931 4.98931 8.4022 5.00868C8.30509 5.02805 8.21592 5.07581 8.14599 5.14592L6.39599 6.89592C6.3021 6.9898 6.24936 7.11714 6.24936 7.24992C6.24936 7.38269 6.3021 7.51003 6.39599 7.60392C6.48988 7.6978 6.61722 7.75055 6.74999 7.75055C6.88277 7.75055 7.0101 7.6978 7.10399 7.60392L7.99999 6.70692V10.4999C7.99999 10.6325 8.05267 10.7597 8.14644 10.8535C8.24021 10.9472 8.36738 10.9999 8.49999 10.9999C8.6326 10.9999 8.75978 10.9472 8.85354 10.8535C8.94731 10.7597 8.99999 10.6325 8.99999 10.4999V5.49992Z" fill="#1B1B1B"/>
</g>
<defs>
<clipPath id="clip0_1419_1702">
<rect width="16" height="16" fill="white"/>
</clipPath>
</defs>
</svg>
