<svg width="16" height="16" viewBox="0 0 16 16" fill="none" xmlns="http://www.w3.org/2000/svg">
<g clip-path="url(#clip0_1419_1703)">
<path d="M11 5.46609V4.00009H5.00001C4.31927 4.00002 3.64978 4.17369 3.05491 4.50465C2.46004 4.83561 1.95948 5.31291 1.60061 5.89137C1.24174 6.46983 1.03643 7.1303 1.00413 7.81028C0.971827 8.49025 1.11359 9.16721 1.41601 9.77709C1.4453 9.83592 1.46271 9.89994 1.46725 9.9655C1.47179 10.0311 1.46337 10.0969 1.44248 10.1592C1.42159 10.2215 1.38863 10.2791 1.34548 10.3286C1.30233 10.3782 1.24984 10.4188 1.19101 10.4481C1.13218 10.4774 1.06816 10.4948 1.00259 10.4993C0.937034 10.5039 0.871221 10.4954 0.808913 10.4746C0.746605 10.4537 0.689022 10.4207 0.639452 10.3776C0.589883 10.3344 0.549297 10.2819 0.520012 10.2231C0.141586 9.46068 -0.0359462 8.61428 0.00423154 7.76407C0.0444093 6.91386 0.300967 6.08797 0.749603 5.36465C1.19824 4.64132 1.8241 4.0445 2.56791 3.63071C3.31172 3.21692 4.14885 2.99986 5.00001 3.00009H11V1.53409C11 1.48658 11.0136 1.44007 11.0391 1.39999C11.0646 1.35991 11.101 1.32792 11.144 1.30778C11.187 1.28763 11.2349 1.28016 11.282 1.28623C11.3291 1.29231 11.3735 1.31168 11.41 1.34209L13.77 3.30809C13.89 3.40809 13.89 3.59209 13.77 3.69209L11.41 5.65809C11.3735 5.68849 11.3291 5.70786 11.282 5.71394C11.2349 5.72002 11.187 5.71254 11.144 5.6924C11.101 5.67225 11.0646 5.64027 11.0391 5.60019C11.0136 5.56011 11 5.51359 11 5.46609V5.46609ZM14.81 5.55209C14.9287 5.49314 15.0659 5.48373 15.1916 5.52592C15.3172 5.56811 15.421 5.65845 15.48 5.77709C15.8584 6.5395 16.036 7.38589 15.9958 8.2361C15.9556 9.08632 15.6991 9.9122 15.2504 10.6355C14.8018 11.3589 14.1759 11.9557 13.4321 12.3695C12.6883 12.7833 11.8512 13.0003 11 13.0001H5.00001V14.4661C4.99999 14.5136 4.98644 14.5601 4.96094 14.6002C4.93545 14.6403 4.89906 14.6723 4.85604 14.6924C4.81302 14.7125 4.76515 14.72 4.71803 14.7139C4.67092 14.7079 4.62651 14.6885 4.59001 14.6581L2.23001 12.6921C2.20188 12.6686 2.17924 12.6393 2.16371 12.6061C2.14818 12.5729 2.14012 12.5367 2.14012 12.5001C2.14012 12.4635 2.14818 12.4273 2.16371 12.3941C2.17924 12.3609 2.20188 12.3315 2.23001 12.3081L4.59001 10.3421C4.62651 10.3117 4.67092 10.2923 4.71803 10.2862C4.76515 10.2802 4.81302 10.2876 4.85604 10.3078C4.89906 10.3279 4.93545 10.3599 4.96094 10.4C4.98644 10.4401 4.99999 10.4866 5.00001 10.5341V12.0001H11C11.6808 12.0003 12.3505 11.8268 12.9455 11.4959C13.5405 11.165 14.0412 10.6877 14.4002 10.1092C14.7591 9.53074 14.9645 8.8702 14.9969 8.19015C15.0292 7.51009 14.8875 6.83304 14.585 6.22309C14.5261 6.10439 14.5167 5.96715 14.5588 5.84152C14.601 5.71589 14.6914 5.61214 14.81 5.55309V5.55209Z" fill="#1B1B1B"/>
</g>
<defs>
<clipPath id="clip0_1419_1703">
<rect width="16" height="16" fill="white"/>
</clipPath>
</defs>
</svg>
