<svg width="16" height="16" viewBox="0 0 16 16" fill="none" xmlns="http://www.w3.org/2000/svg">
<g clip-path="url(#clip0_1419_1704)">
<path d="M8.021 11.9001L3.453 8.62006C3.3454 8.55648 3.25624 8.46595 3.1943 8.3574C3.13236 8.24886 3.09978 8.12604 3.09978 8.00106C3.09978 7.87609 3.13236 7.75327 3.1943 7.64472C3.25624 7.53617 3.3454 7.44564 3.453 7.38206L8.021 4.10006C8.12989 4.03601 8.25379 4.00192 8.38012 4.00123C8.50645 4.00055 8.63071 4.0333 8.74029 4.09616C8.84987 4.15903 8.94087 4.24976 9.00404 4.35916C9.06722 4.46856 9.10032 4.59273 9.1 4.71906V6.00006C10.6 6.00006 15.1 6.00006 16.1 14.0001C13.6 9.50006 9.1 10.0001 9.1 10.0001V11.2811C9.1 11.8411 8.494 12.1791 8.021 11.9011V11.9001Z" fill="#1B1B1B"/>
<path d="M5.232 4.29299C5.27108 4.34588 5.29935 4.40596 5.31517 4.4698C5.331 4.53363 5.33408 4.59996 5.32423 4.66498C5.31438 4.73 5.2918 4.79245 5.25779 4.84873C5.22377 4.90502 5.17899 4.95404 5.126 4.99299L1.114 7.94499C1.10048 7.95502 1.08646 7.96437 1.072 7.97299C1.05026 7.98605 1.03226 8.00453 1.01977 8.0266C1.00728 8.04868 1.00072 8.07362 1.00072 8.09899C1.00072 8.12436 1.00728 8.14929 1.01977 8.17137C1.03226 8.19345 1.05026 8.21192 1.072 8.22499C1.08646 8.23361 1.10048 8.24296 1.114 8.25299L5.126 11.207C5.18018 11.2454 5.22616 11.2942 5.26126 11.3506C5.29636 11.407 5.31987 11.4698 5.33042 11.5354C5.34097 11.601 5.33835 11.668 5.32271 11.7326C5.30707 11.7971 5.27873 11.8579 5.23933 11.9114C5.19994 11.9649 5.15029 12.01 5.09327 12.044C5.03626 12.0781 4.97303 12.1005 4.90727 12.1098C4.84151 12.1192 4.77455 12.1154 4.71029 12.0986C4.64603 12.0818 4.58576 12.0523 4.533 12.012L0.539 9.07299C0.37388 8.96992 0.237706 8.82652 0.143299 8.6563C0.048891 8.48608 -0.000644684 8.29464 -0.000644684 8.09999C-0.000644684 7.90534 0.048891 7.71389 0.143299 7.54367C0.237706 7.37345 0.37388 7.23006 0.539 7.12699L4.533 4.18699C4.63976 4.10837 4.77337 4.07538 4.90445 4.09525C5.03553 4.11513 5.15335 4.18626 5.232 4.29299V4.29299Z" fill="#1B1B1B"/>
</g>
<defs>
<clipPath id="clip0_1419_1704">
<rect width="16" height="16" fill="white"/>
</clipPath>
</defs>
</svg>
