<svg width="16" height="16" viewBox="0 0 16 16" fill="none" xmlns="http://www.w3.org/2000/svg">
<g clip-path="url(#clip0_1419_1705)">
<path d="M8.098 5.01296C8.12009 5.00324 8.14427 4.99922 8.16831 5.00128C8.19236 5.00334 8.2155 5.01142 8.23562 5.02476C8.25573 5.0381 8.27216 5.05628 8.28341 5.07764C8.29466 5.09899 8.30037 5.12283 8.3 5.14696V6.29996C8.3 6.43257 8.35267 6.55974 8.44644 6.65351C8.54021 6.74728 8.66739 6.79996 8.8 6.79996C9.467 6.79996 10.813 6.80496 12.1 7.62196C13.084 8.24596 14.09 9.38196 14.695 11.498C13.675 10.515 12.51 9.98196 11.49 9.69896C10.863 9.5258 10.2187 9.42316 9.569 9.39296C9.30305 9.38128 9.03666 9.38395 8.771 9.40096H8.758L8.753 9.40196H8.752L8.8 9.89996L8.75 9.40196C8.62658 9.41436 8.51218 9.4722 8.42902 9.56423C8.34586 9.65626 8.29987 9.77592 8.3 9.89996V11.053C8.3 11.161 8.19 11.229 8.098 11.187L4.114 8.25396C4.10047 8.24393 4.08646 8.23458 4.072 8.22596C4.05025 8.21289 4.03226 8.19442 4.01977 8.17234C4.00728 8.15026 4.00071 8.12533 4.00071 8.09996C4.00071 8.07459 4.00728 8.04965 4.01977 8.02758C4.03226 8.0055 4.05025 7.98703 4.072 7.97396C4.08646 7.96534 4.10048 7.956 4.114 7.94596L8.098 5.01296V5.01296ZM9.3 10.386C9.368 10.386 9.443 10.389 9.523 10.392C9.957 10.412 10.557 10.478 11.223 10.663C12.549 11.031 14.119 11.865 15.163 13.743C15.2195 13.8443 15.3094 13.9229 15.4175 13.9652C15.5255 14.0076 15.6449 14.011 15.7552 13.9749C15.8655 13.9389 15.9598 13.8656 16.022 13.7676C16.0841 13.6696 16.1103 13.5531 16.096 13.438C15.632 9.72796 14.21 7.77596 12.636 6.77796C11.391 5.98796 10.109 5.83596 9.3 5.80696V5.14696C9.30009 4.94103 9.24459 4.73889 9.13937 4.56187C9.03414 4.38486 8.88308 4.23953 8.70213 4.14122C8.52118 4.04291 8.31705 3.99527 8.11127 4.00332C7.9055 4.01137 7.70571 4.07481 7.533 4.18696L3.539 7.12696C3.37388 7.23003 3.2377 7.37342 3.1433 7.54364C3.04889 7.71386 2.99935 7.90531 2.99935 8.09996C2.99935 8.29461 3.04889 8.48605 3.1433 8.65627C3.2377 8.82649 3.37388 8.96989 3.539 9.07296L7.533 12.013C7.70571 12.1251 7.9055 12.1886 8.11127 12.1966C8.31705 12.2047 8.52118 12.157 8.70213 12.0587C8.88308 11.9604 9.03414 11.8151 9.13937 11.638C9.24459 11.461 9.30009 11.2589 9.3 11.053V10.386V10.386Z" fill="#1B1B1B"/>
<path d="M5.232 4.29298C5.19305 4.23999 5.14403 4.1952 5.08775 4.16119C5.03146 4.12717 4.96902 4.10459 4.904 4.09475C4.83897 4.0849 4.77264 4.08798 4.70881 4.1038C4.64498 4.11963 4.5849 4.14789 4.532 4.18698L0.540004 7.12698C0.374884 7.23004 0.23871 7.37344 0.144302 7.54366C0.0498942 7.71388 0.000358582 7.90533 0.000358582 8.09998C0.000358582 8.29462 0.0498942 8.48607 0.144302 8.65629C0.23871 8.82651 0.374884 8.96991 0.540004 9.07298L4.534 12.013C4.58676 12.0533 4.64703 12.0828 4.71129 12.0996C4.77555 12.1164 4.84251 12.1202 4.90827 12.1108C4.97403 12.1015 5.03726 12.0791 5.09428 12.045C5.15129 12.0109 5.20094 11.9659 5.24034 11.9124C5.27973 11.8589 5.30808 11.7981 5.32372 11.7336C5.33935 11.669 5.34197 11.602 5.33142 11.5364C5.32087 11.4708 5.29736 11.408 5.26226 11.3516C5.22717 11.2952 5.18118 11.2464 5.127 11.208L1.114 8.25397C1.10048 8.24394 1.08646 8.2346 1.072 8.22598C1.05026 8.21291 1.03227 8.19444 1.01978 8.17236C1.00729 8.15028 1.00072 8.12534 1.00072 8.09998C1.00072 8.07461 1.00729 8.04967 1.01978 8.02759C1.03227 8.00551 1.05026 7.98704 1.072 7.97398C1.08647 7.96536 1.10048 7.95601 1.114 7.94598L5.126 4.99198C5.23274 4.91333 5.30386 4.79551 5.32374 4.66442C5.34362 4.53334 5.31062 4.39973 5.232 4.29298V4.29298Z" fill="#1B1B1B"/>
</g>
<defs>
<clipPath id="clip0_1419_1705">
<rect width="16" height="16" fill="white"/>
</clipPath>
</defs>
</svg>
