<svg width="16" height="16" viewBox="0 0 16 16" fill="none" xmlns="http://www.w3.org/2000/svg">
<path d="M5.921 11.9001L1.353 8.62006C1.24541 8.55648 1.15624 8.46595 1.0943 8.3574C1.03236 8.24886 0.999786 8.12604 0.999786 8.00106C0.999786 7.87609 1.03236 7.75327 1.0943 7.64472C1.15624 7.53617 1.24541 7.44564 1.353 7.38206L5.921 4.10006C6.02989 4.03601 6.15379 4.00192 6.28012 4.00123C6.40645 4.00055 6.53071 4.0333 6.64029 4.09616C6.74987 4.15903 6.84087 4.24976 6.90404 4.35916C6.96722 4.46856 7.00032 4.59273 7 4.71906V6.00006C8.5 6.00006 13 6.00006 14 14.0001C11.5 9.50006 7 10.0001 7 10.0001V11.2811C7 11.8411 6.394 12.1791 5.921 11.9011V11.9001Z" fill="#1B1B1B"/>
</svg>
