<svg width="16" height="16" viewBox="0 0 16 16" fill="none" xmlns="http://www.w3.org/2000/svg">
<g clip-path="url(#clip0_1419_2076)">
<path d="M7.72902 5.05499C7.64723 5.01287 7.55542 4.99414 7.46367 5.00084C7.37193 5.00755 7.28381 5.03943 7.20902 5.09299L3.70902 7.59299C3.6442 7.63924 3.59137 7.7003 3.55492 7.77109C3.51847 7.84189 3.49945 7.92036 3.49945 7.99999C3.49945 8.07961 3.51847 8.15809 3.55492 8.22888C3.59137 8.29967 3.6442 8.36073 3.70902 8.40699L7.20902 10.907C7.28379 10.9605 7.37186 10.9924 7.46356 10.9991C7.55526 11.0058 7.64703 10.9871 7.72878 10.945C7.81054 10.9029 7.87911 10.8391 7.92696 10.7606C7.97481 10.6821 8.00009 10.5919 8.00002 10.5V8.61399L11.21 10.907C11.2848 10.9602 11.3728 10.9918 11.4643 10.9984C11.5558 11.005 11.6474 10.9862 11.729 10.9442C11.8106 10.9021 11.879 10.8384 11.9268 10.7601C11.9746 10.6818 12 10.5918 12 10.5V5.49999C12 5.40821 11.9746 5.31822 11.9268 5.23987C11.879 5.16152 11.8106 5.09785 11.729 5.05581C11.6474 5.01378 11.5558 4.99502 11.4643 5.00157C11.3728 5.00813 11.2848 5.03975 11.21 5.09299L8.00002 7.38599V5.49999C8.00011 5.40807 7.97487 5.3179 7.92706 5.2394C7.87925 5.16089 7.81073 5.09708 7.72902 5.05499V5.05499Z" fill="currentColor"/>
<path d="M16 8C16 10.1217 15.1571 12.1566 13.6569 13.6569C12.1566 15.1571 10.1217 16 8 16C5.87827 16 3.84344 15.1571 2.34315 13.6569C0.842855 12.1566 0 10.1217 0 8C0 5.87827 0.842855 3.84344 2.34315 2.34315C3.84344 0.842855 5.87827 0 8 0C10.1217 0 12.1566 0.842855 13.6569 2.34315C15.1571 3.84344 16 5.87827 16 8V8ZM1 8C1 9.85652 1.7375 11.637 3.05025 12.9497C4.36301 14.2625 6.14348 15 8 15C9.85652 15 11.637 14.2625 12.9497 12.9497C14.2625 11.637 15 9.85652 15 8C15 6.14348 14.2625 4.36301 12.9497 3.05025C11.637 1.7375 9.85652 1 8 1C6.14348 1 4.36301 1.7375 3.05025 3.05025C1.7375 4.36301 1 6.14348 1 8V8Z" fill="currentColor"/>
</g>
<defs>
<clipPath id="clip0_1419_2076">
<rect width="16" height="16" fill="white"/>
</clipPath>
</defs>
</svg>
