<svg width="16" height="16" viewBox="0 0 16 16" fill="none" xmlns="http://www.w3.org/2000/svg">
<path d="M7.20999 5.09294C7.28476 5.0397 7.37273 5.00808 7.46427 5.00152C7.55582 4.99497 7.6474 5.01373 7.72899 5.05576C7.81057 5.0978 7.87902 5.16147 7.92682 5.23982C7.97462 5.31817 7.99994 5.40816 7.99999 5.49994V7.38594L11.21 5.09294C11.2848 5.0397 11.3727 5.00808 11.4643 5.00152C11.5558 4.99497 11.6474 5.01373 11.729 5.05576C11.8106 5.0978 11.879 5.16147 11.9268 5.23982C11.9746 5.31817 11.9999 5.40816 12 5.49994V10.4999C11.9999 10.5917 11.9746 10.6817 11.9268 10.7601C11.879 10.8384 11.8106 10.9021 11.729 10.9441C11.6474 10.9861 11.5558 11.0049 11.4643 10.9984C11.3727 10.9918 11.2848 10.9602 11.21 10.9069L7.99999 8.61394V10.4999C7.99994 10.5917 7.97462 10.6817 7.92682 10.7601C7.87902 10.8384 7.81057 10.9021 7.72899 10.9441C7.6474 10.9861 7.55582 11.0049 7.46427 10.9984C7.37273 10.9918 7.28476 10.9602 7.20999 10.9069L3.70999 8.40694C3.64518 8.36068 3.59235 8.29962 3.5559 8.22883C3.51944 8.15804 3.50043 8.07956 3.50043 7.99994C3.50043 7.92031 3.51944 7.84184 3.5559 7.77104C3.59235 7.70025 3.64518 7.63919 3.70999 7.59294L7.20999 5.09294Z" fill="currentColor"/>
<path d="M0 4C0 3.46957 0.210714 2.96086 0.585786 2.58579C0.960859 2.21071 1.46957 2 2 2H14C14.5304 2 15.0391 2.21071 15.4142 2.58579C15.7893 2.96086 16 3.46957 16 4V12C16 12.5304 15.7893 13.0391 15.4142 13.4142C15.0391 13.7893 14.5304 14 14 14H2C1.46957 14 0.960859 13.7893 0.585786 13.4142C0.210714 13.0391 0 12.5304 0 12V4ZM15 4C15 3.73478 14.8946 3.48043 14.7071 3.29289C14.5196 3.10536 14.2652 3 14 3H2C1.73478 3 1.48043 3.10536 1.29289 3.29289C1.10536 3.48043 1 3.73478 1 4V12C1 12.2652 1.10536 12.5196 1.29289 12.7071C1.48043 12.8946 1.73478 13 2 13H14C14.2652 13 14.5196 12.8946 14.7071 12.7071C14.8946 12.5196 15 12.2652 15 12V4Z" fill="currentColor"/>
</svg>
