<svg width="16" height="16" viewBox="0 0 16 16" fill="none" xmlns="http://www.w3.org/2000/svg">
<g clip-path="url(#clip0_1419_2075)">
<path d="M8 16C10.1217 16 12.1566 15.1571 13.6569 13.6569C15.1571 12.1566 16 10.1217 16 8C16 5.87827 15.1571 3.84344 13.6569 2.34315C12.1566 0.842855 10.1217 0 8 0C5.87827 0 3.84344 0.842855 2.34315 2.34315C0.842855 3.84344 0 5.87827 0 8C0 10.1217 0.842855 12.1566 2.34315 13.6569C3.84344 15.1571 5.87827 16 8 16V16ZM7.729 5.055C7.81071 5.0971 7.87923 5.16091 7.92704 5.23941C7.97485 5.31792 8.0001 5.40808 8 5.5V7.386L11.21 5.093C11.2848 5.03977 11.3727 5.00814 11.4643 5.00159C11.5558 4.99503 11.6474 5.01379 11.729 5.05583C11.8106 5.09786 11.879 5.16154 11.9268 5.23988C11.9746 5.31823 11.9999 5.40822 12 5.5V10.5C11.9999 10.5918 11.9746 10.6818 11.9268 10.7601C11.879 10.8385 11.8106 10.9021 11.729 10.9442C11.6474 10.9862 11.5558 11.005 11.4643 10.9984C11.3727 10.9919 11.2848 10.9602 11.21 10.907L8 8.614V10.5C7.99994 10.5918 7.97463 10.6818 7.92683 10.7601C7.87902 10.8385 7.81058 10.9021 7.72899 10.9442C7.64741 10.9862 7.55582 11.005 7.46428 10.9984C7.37274 10.9919 7.28476 10.9602 7.21 10.907L3.71 8.407C3.64518 8.36075 3.59235 8.29968 3.5559 8.22889C3.51945 8.1581 3.50043 8.07963 3.50043 8C3.50043 7.92037 3.51945 7.8419 3.5559 7.77111C3.59235 7.70031 3.64518 7.63925 3.71 7.593L7.21 5.093C7.28469 5.03964 7.37262 5.00786 7.46417 5.00116C7.55571 4.99446 7.64734 5.01308 7.729 5.055V5.055Z" fill="#1B1B1B"/>
</g>
<defs>
<clipPath id="clip0_1419_2075">
<rect width="16" height="16" fill="white"/>
</clipPath>
</defs>
</svg>
