<svg width="16" height="16" viewBox="0 0 16 16" fill="none" xmlns="http://www.w3.org/2000/svg">
<g clip-path="url(#clip0_1419_2077)">
<path d="M8.40401 7.30395C8.28141 7.37414 8.17952 7.47547 8.10866 7.59769C8.0378 7.71991 8.00049 7.85868 8.00049 7.99995C8.00049 8.14122 8.0378 8.27999 8.10866 8.40221C8.17952 8.52442 8.28141 8.62576 8.40401 8.69595L14.767 12.3879C15.287 12.6899 16 12.3449 16 11.6919V4.30795C16 3.65495 15.287 3.30995 14.767 3.61195L8.40401 7.30395Z" fill="currentColor"/>
<path d="M0.404006 7.30395C0.281405 7.37414 0.179521 7.47547 0.108663 7.59769C0.0378053 7.71991 0.000488281 7.85868 0.000488281 7.99995C0.000488281 8.14122 0.0378053 8.27999 0.108663 8.40221C0.179521 8.52442 0.281405 8.62576 0.404006 8.69595L6.76701 12.3879C7.28701 12.6899 8.00001 12.3449 8.00001 11.6919V4.30795C8.00001 3.65495 7.28701 3.30995 6.76701 3.61195L0.404006 7.30395Z" fill="currentColor"/>
</g>
<defs>
<clipPath id="clip0_1419_2077">
<rect width="16" height="16" fill="white"/>
</clipPath>
</defs>
</svg>
