<svg width="16" height="16" viewBox="0 0 16 16" fill="none" xmlns="http://www.w3.org/2000/svg">
<path d="M6.00004 12.4999C6.00004 12.3673 6.05272 12.2402 6.14648 12.1464C6.24025 12.0526 6.36743 11.9999 6.50004 11.9999H9.50004C9.63265 11.9999 9.75982 12.0526 9.85359 12.1464C9.94736 12.2402 10 12.3673 10 12.4999C10 12.6326 9.94736 12.7597 9.85359 12.8535C9.75982 12.9473 9.63265 12.9999 9.50004 12.9999H6.50004C6.36743 12.9999 6.24025 12.9473 6.14648 12.8535C6.05272 12.7597 6.00004 12.6326 6.00004 12.4999ZM3.00004 8.06195C3.00004 6.75995 4.23504 5.76495 5.53004 5.88595C7.17313 6.0393 8.82694 6.0393 10.47 5.88595C11.765 5.76495 13 6.75995 13 8.06195V9.21895C13.0041 9.4402 12.9294 9.65571 12.7893 9.82698C12.6492 9.99825 12.4527 10.1141 12.235 10.1539C11.39 10.3009 9.89504 10.4999 8.00004 10.4999C6.10504 10.4999 4.61004 10.2999 3.76504 10.1539C3.54735 10.1141 3.35091 9.99825 3.21078 9.82698C3.07064 9.65571 2.99595 9.4402 3.00004 9.21895V8.06195ZM7.54204 7.23495C7.50307 7.22832 7.46308 7.23103 7.42536 7.24285C7.38764 7.25467 7.35326 7.27527 7.32504 7.30295L6.40504 8.20295C5.77928 8.16565 5.15516 8.10461 4.53404 8.01995C4.46967 8.01355 4.40533 8.03235 4.35454 8.0724C4.30374 8.11245 4.27045 8.17062 4.26164 8.2347C4.25284 8.29878 4.26922 8.36378 4.30733 8.41604C4.34545 8.4683 4.40233 8.50375 4.46604 8.51495C5.01604 8.59095 5.69804 8.66395 6.48604 8.70795C6.52075 8.70991 6.55548 8.7046 6.58802 8.69238C6.62057 8.68015 6.6502 8.66127 6.67504 8.63695L7.42904 7.90095L8.27604 9.61095C8.29388 9.64682 8.32008 9.67788 8.35244 9.70151C8.38479 9.72514 8.42236 9.74065 8.46196 9.74673C8.50156 9.7528 8.54204 9.74927 8.58 9.73643C8.61795 9.72359 8.65226 9.70182 8.68004 9.67295L9.61204 8.70295C10.2549 8.66478 10.896 8.60207 11.534 8.51495C11.5977 8.50375 11.6546 8.4683 11.6927 8.41604C11.7309 8.36378 11.7472 8.29878 11.7384 8.2347C11.7296 8.17062 11.6963 8.11245 11.6455 8.0724C11.5947 8.03235 11.5304 8.01355 11.466 8.01995C10.928 8.09395 10.259 8.16495 9.48604 8.20895C9.4231 8.21245 9.36381 8.23959 9.32004 8.28495L8.56604 9.06995L7.72404 7.36995C7.70648 7.3347 7.68084 7.3041 7.64921 7.28064C7.61758 7.25718 7.58086 7.24153 7.54204 7.23495V7.23495Z" fill="#1B1B1B"/>
<path d="M8.5 1.86603C8.69064 1.75596 8.83964 1.58606 8.92388 1.38268C9.00812 1.17931 9.0229 0.953814 8.96593 0.741181C8.90895 0.528548 8.78341 0.340656 8.60876 0.206647C8.43412 0.0726374 8.22013 0 8 0C7.77987 0 7.56588 0.0726374 7.39124 0.206647C7.21659 0.340656 7.09105 0.528548 7.03407 0.741181C6.9771 0.953814 6.99188 1.17931 7.07612 1.38268C7.16036 1.58606 7.30936 1.75596 7.5 1.86603V3.00003H5.5C4.30653 3.00003 3.16193 3.47413 2.31802 4.31804C1.47411 5.16196 1 6.30655 1 7.50003V8.00003C0.734784 8.00003 0.48043 8.10538 0.292893 8.29292C0.105357 8.48046 0 8.73481 0 9.00003L0 11C0 11.2652 0.105357 11.5196 0.292893 11.7071C0.48043 11.8947 0.734784 12 1 12V13C1 13.5305 1.21071 14.0392 1.58579 14.4142C1.96086 14.7893 2.46957 15 3 15H13C13.5304 15 14.0391 14.7893 14.4142 14.4142C14.7893 14.0392 15 13.5305 15 13V12C15.2652 12 15.5196 11.8947 15.7071 11.7071C15.8946 11.5196 16 11.2652 16 11V9.00003C16 8.73481 15.8946 8.48046 15.7071 8.29292C15.5196 8.10538 15.2652 8.00003 15 8.00003V7.50003C15 6.30655 14.5259 5.16196 13.682 4.31804C12.8381 3.47413 11.6935 3.00003 10.5 3.00003H8.5V1.86603ZM14 7.50003V13C14 13.2652 13.8946 13.5196 13.7071 13.7071C13.5196 13.8947 13.2652 14 13 14H3C2.73478 14 2.48043 13.8947 2.29289 13.7071C2.10536 13.5196 2 13.2652 2 13V7.50003C2 6.57177 2.36875 5.68153 3.02513 5.02515C3.6815 4.36877 4.57174 4.00003 5.5 4.00003H10.5C11.4283 4.00003 12.3185 4.36877 12.9749 5.02515C13.6313 5.68153 14 6.57177 14 7.50003V7.50003Z" fill="#1B1B1B"/>
</svg>
