<svg width="16" height="16" viewBox="0 0 16 16" fill="none" xmlns="http://www.w3.org/2000/svg">
<g clip-path="url(#clip0_1419_599)">
<path d="M10.175 1.991C10.985 3.303 11.758 5.421 11.953 8.81L13.453 10.64C13.8074 11.0835 14.0003 11.6343 14 12.202V15.5C14 15.6049 13.967 15.7072 13.9056 15.7924C13.8443 15.8775 13.7577 15.9412 13.6581 15.9743C13.5586 16.0075 13.4511 16.0085 13.3509 15.9773C13.2507 15.946 13.163 15.884 13.1 15.8L11.975 14.3C11.809 14.078 11.555 13.9 11.223 13.73C11.009 13.622 10.809 13.538 10.596 13.448L10.4 13.365C9.7 13.793 8.85 14 8 14C7.15 14 6.3 13.793 5.6 13.365C5.532 13.395 5.467 13.422 5.402 13.449C5.191 13.538 4.991 13.622 4.777 13.73C4.445 13.9 4.191 14.078 4.025 14.3L2.9 15.8C2.83704 15.884 2.74925 15.946 2.64908 15.9773C2.54892 16.0085 2.44144 16.0075 2.34189 15.9743C2.24233 15.9412 2.15574 15.8775 2.09438 15.7924C2.03302 15.7072 2 15.6049 2 15.5V12.202C1.99999 11.6342 2.19326 11.0833 2.548 10.64L2.552 10.635L4.049 8.81C4.246 5.487 5.018 3.376 5.823 2.054C6.289 1.287 6.763 0.792 7.133 0.484C7.31926 0.327765 7.52058 0.190424 7.734 0.074C7.81492 0.0270761 7.90648 0.00160386 8 0C8.101 0 8.17 0.027 8.25 0.064C8.287 0.081 8.336 0.105 8.395 0.139C8.513 0.205 8.672 0.306 8.858 0.454C9.231 0.751 9.708 1.233 10.175 1.991V1.991ZM9.5 6C9.5 4.895 8.828 4 8 4C7.172 4 6.5 4.895 6.5 6C6.5 7.105 7.172 8 8 8C8.828 8 9.5 7.105 9.5 6Z" fill="#1B1B1B"/>
<path d="M8 14.5001C8.5 14.5001 8.999 14.4541 9.479 14.3611L8.4 15.8001C8.35342 15.8622 8.29303 15.9126 8.2236 15.9473C8.15418 15.982 8.07762 16.0001 8 16.0001C7.92237 16.0001 7.84582 15.982 7.77639 15.9473C7.70696 15.9126 7.64657 15.8622 7.6 15.8001L6.521 14.3611C7.001 14.4541 7.501 14.5001 8 14.5001Z" fill="#1B1B1B"/>
</g>
<defs>
<clipPath id="clip0_1419_599">
<rect width="16" height="16" fill="white"/>
</clipPath>
</defs>
</svg>
