<svg width="16" height="16" viewBox="0 0 16 16" fill="none" xmlns="http://www.w3.org/2000/svg">
<g clip-path="url(#clip0_1419_601)">
<path d="M9.75195 6.1931C10.351 6.7931 11.482 6.6301 12.28 5.8311C13.078 5.0321 13.24 3.8991 12.642 3.3001C12.043 2.7001 10.912 2.8621 10.114 3.6611C9.31595 4.4611 9.15395 5.5941 9.75195 6.1931Z" fill="currentColor"/>
<path fill-rule="evenodd" clip-rule="evenodd" d="M15.811 3.31194C15.448 4.84594 14.477 6.93794 12.171 9.52994L11.931 11.9379C11.867 12.5149 11.6089 13.053 11.199 13.4639L8.81696 15.8499C8.74133 15.9264 8.64345 15.977 8.53732 15.9945C8.4312 16.012 8.32226 15.9955 8.22608 15.9474C8.1299 15.8992 8.0514 15.8219 8.00181 15.7264C7.95222 15.631 7.93407 15.5223 7.94996 15.4159L8.21996 13.5169C8.25996 13.2369 8.20696 12.9239 8.08896 12.5609C8.01416 12.3389 7.93111 12.1198 7.83996 11.9039L7.75796 11.7019C6.94296 11.5049 6.17996 11.0399 5.56696 10.4249C4.95296 9.80994 4.48796 9.04594 4.29196 8.22994L4.08896 8.14694C3.87373 8.0563 3.65525 7.97358 3.43396 7.89894C3.07096 7.77994 2.75896 7.72694 2.47896 7.76694L0.582964 8.03694C0.476671 8.05257 0.368158 8.03423 0.272903 7.98454C0.177649 7.93485 0.100519 7.85635 0.0525167 7.76024C0.00451437 7.66412 -0.0119087 7.5553 0.0055903 7.4493C0.0230893 7.3433 0.0736165 7.24553 0.149964 7.16994L2.53196 4.78394C2.94196 4.37394 3.47896 4.11394 4.05596 4.04994H4.06196L6.46196 3.81194C9.00496 1.54994 11.087 0.581945 12.623 0.207945C13.513 -0.00905545 14.213 -0.0240555 14.703 0.0199445C14.947 0.0429445 15.138 0.0799445 15.273 0.112945C15.34 0.129945 15.393 0.145945 15.433 0.157945C15.617 0.217945 15.712 0.287945 15.784 0.452945L15.813 0.525945C15.8907 0.760025 15.9434 1.00172 15.97 1.24694C16.025 1.73194 16.021 2.42494 15.811 3.31194V3.31194ZM10.983 10.7869L11.023 10.7469L10.916 11.8279C10.8768 12.1733 10.7217 12.4952 10.476 12.7409L9.17796 14.0409L9.23196 13.6609C9.30396 13.1549 9.19796 12.6679 9.05996 12.2429C9.00951 12.0914 8.95482 11.9414 8.89596 11.7929C9.63396 11.7279 10.358 11.4129 10.983 10.7869V10.7869ZM5.20496 4.99994C4.57996 5.62594 4.26496 6.35094 4.20096 7.08994C4.05254 7.03106 3.90248 6.97637 3.75096 6.92594C3.32696 6.78794 2.84096 6.68194 2.33496 6.75394L1.95496 6.80794L3.25496 5.50794C3.49996 5.26194 3.82096 5.10694 4.16496 5.06794L5.24496 4.96094L5.20496 4.99994V4.99994ZM14.611 1.03894C14.731 1.04994 14.831 1.06494 14.91 1.07994C14.926 1.15494 14.943 1.24994 14.955 1.36294C14.997 1.73094 15 2.30494 14.817 3.07594C14.453 4.61894 13.34 6.97994 10.261 10.0629C9.64096 10.6839 8.92196 10.8629 8.21296 10.7509C7.53896 10.6429 6.85296 10.2669 6.28896 9.70094C5.72396 9.13594 5.34896 8.44994 5.24096 7.77394C5.12896 7.06394 5.30796 6.34394 5.92796 5.72394C8.94796 2.69794 11.307 1.58094 12.865 1.20194C13.645 1.01194 14.231 1.00494 14.611 1.03894V1.03894Z" fill="currentColor"/>
<path d="M7.00899 12.1391C6.34404 11.7802 5.73608 11.3246 5.20499 10.7871C4.63563 10.2235 4.15936 9.57308 3.79399 8.86011C2.69199 9.85211 1.82899 13.9141 1.95499 14.0401C2.07999 14.1661 5.89099 13.1441 7.00899 12.1381V12.1391Z" fill="currentColor"/>
</g>
<defs>
<clipPath id="clip0_1419_601">
<rect width="16" height="16" fill="white"/>
</clipPath>
</defs>
</svg>
