<svg width="16" height="16" viewBox="0 0 16 16" fill="none" xmlns="http://www.w3.org/2000/svg">
<g clip-path="url(#clip0_1419_600)">
<path d="M12.17 9.53011C14.477 6.93811 15.448 4.84611 15.811 3.31211C16.021 2.42511 16.025 1.73211 15.971 1.24711C15.9502 1.05686 15.914 0.868589 15.863 0.684113C15.8413 0.606081 15.8152 0.529299 15.785 0.454113V0.453113C15.712 0.289113 15.617 0.219113 15.433 0.158113C15.3802 0.141232 15.3269 0.126222 15.273 0.113113C15.0857 0.0676876 14.8951 0.0365977 14.703 0.0201134C14.213 -0.0238866 13.513 -0.00988655 12.623 0.208113C11.087 0.582113 9.00504 1.55111 6.46204 3.81211L4.06204 4.05011H4.05604C3.47936 4.11441 2.94182 4.37331 2.53204 4.78411L0.150036 7.17011C0.0745906 7.24609 0.024863 7.34381 0.00784876 7.44952C-0.00916549 7.55523 0.00738979 7.66362 0.0551856 7.75943C0.102981 7.85524 0.179613 7.93366 0.274298 7.98365C0.368984 8.03364 0.47696 8.05269 0.583036 8.03811L2.47904 7.76711C2.75904 7.72711 3.07104 7.78011 3.43404 7.89911C3.66604 7.97511 3.87104 8.05911 4.08904 8.14711L4.29204 8.23011C4.48804 9.04611 4.95204 9.81011 5.56704 10.4251C6.18004 11.0391 6.94304 11.5051 7.75804 11.7021L7.84004 11.9041C7.92904 12.1221 8.01304 12.3281 8.08904 12.5611C8.20704 12.9241 8.26104 13.2371 8.22104 13.5171L7.95004 15.4171C7.93573 15.523 7.95491 15.6307 8.00487 15.7251C8.05483 15.8195 8.13309 15.896 8.22866 15.9437C8.32424 15.9914 8.43236 16.0081 8.53787 15.9913C8.64337 15.9745 8.74099 15.9252 8.81704 15.8501L11.199 13.4641C11.609 13.0541 11.867 12.5151 11.931 11.9381L12.171 9.53011H12.17ZM12.28 5.83111C11.483 6.63111 10.35 6.79211 9.75204 6.19311C9.15404 5.59311 9.31604 4.46011 10.113 3.66111C10.911 2.86211 12.043 2.70111 12.641 3.30011C13.24 3.89911 13.078 5.03211 12.281 5.83111H12.28Z" fill="currentColor"/>
<path d="M5.20499 10.7871C5.73608 11.3245 6.34404 11.7802 7.00899 12.1391C5.89099 13.1461 2.07999 14.1671 1.95499 14.0421C1.82899 13.9151 2.69199 9.85306 3.79399 8.86206C4.13999 9.55206 4.63099 10.2121 5.20499 10.7871V10.7871Z" fill="currentColor"/>
</g>
<defs>
<clipPath id="clip0_1419_600">
<rect width="16" height="16" fill="white"/>
</clipPath>
</defs>
</svg>
