<svg width="16" height="16" viewBox="0 0 16 16" fill="none" xmlns="http://www.w3.org/2000/svg">
<g clip-path="url(#clip0_1419_602)">
<path d="M8 8C8.828 8 9.5 7.105 9.5 6C9.5 4.895 8.828 4 8 4C7.172 4 6.5 4.895 6.5 6C6.5 7.105 7.172 8 8 8Z" fill="#1B1B1B"/>
<path fill-rule="evenodd" clip-rule="evenodd" d="M11.953 8.81C11.758 5.422 10.985 3.303 10.176 1.991C9.707 1.233 9.23 0.751 8.857 0.454C8.71134 0.336785 8.55651 0.231447 8.394 0.139C8.34694 0.112229 8.29891 0.0872115 8.25 0.064C8.17298 0.0229969 8.08725 0.00105057 8 0C7.90657 0.00129934 7.81501 0.0264257 7.734 0.073C7.68574 0.0979895 7.63838 0.124673 7.592 0.153C7.43074 0.251035 7.27729 0.361362 7.133 0.483C6.763 0.791 6.289 1.286 5.823 2.053C5.018 3.375 4.246 5.486 4.049 8.809L2.552 10.635L2.548 10.64C2.19326 11.0833 1.99999 11.6342 2 12.202V15.5C2 15.6049 2.03302 15.7072 2.09438 15.7924C2.15574 15.8775 2.24233 15.9412 2.34189 15.9743C2.44144 16.0075 2.54892 16.0085 2.64908 15.9773C2.74925 15.946 2.83704 15.884 2.9 15.8L4.025 14.3C4.191 14.078 4.445 13.9 4.777 13.73C4.991 13.622 5.191 13.538 5.402 13.449L5.6 13.365C6.3 13.793 7.15 14 8 14C8.85 14 9.7 13.793 10.4 13.365C10.467 13.395 10.532 13.421 10.596 13.448C10.809 13.538 11.009 13.622 11.223 13.73C11.555 13.9 11.809 14.078 11.975 14.3L13.1 15.8C13.163 15.884 13.2507 15.946 13.3509 15.9773C13.4511 16.0085 13.5586 16.0075 13.6581 15.9743C13.7577 15.9412 13.8443 15.8775 13.9056 15.7924C13.967 15.7072 14 15.6049 14 15.5V12.202C14 11.6342 13.8067 11.0833 13.452 10.64L11.953 8.81V8.81ZM12 10.445V10.5C12 11.366 11.716 12.085 11.25 12.64C11.396 12.704 11.542 12.77 11.675 12.839C12.065 13.036 12.475 13.299 12.775 13.699L13 14V12.202C13 11.8623 12.8847 11.5326 12.673 11.267L12 10.445ZM4.75 12.64C4.284 12.085 4 11.366 4 10.5V10.446L3.327 11.266C3.11506 11.5319 2.99975 11.862 3 12.202V14L3.225 13.7C3.525 13.3 3.935 13.036 4.325 12.839C4.458 12.771 4.604 12.704 4.75 12.64V12.64ZM8.009 1.073C7.92747 1.12845 7.84871 1.18785 7.773 1.251C7.487 1.491 7.086 1.901 6.677 2.572C5.861 3.914 5 6.318 5 10.5C5 11.358 5.374 11.98 5.943 12.393C6.483 12.786 7.219 13 8 13C8.781 13 9.516 12.786 10.057 12.393C10.626 11.98 11 11.358 11 10.5C11 6.237 10.138 3.835 9.324 2.516C8.918 1.857 8.519 1.462 8.235 1.236C8.16244 1.17793 8.08701 1.12352 8.009 1.073V1.073Z" fill="#1B1B1B"/>
<path d="M9.479 14.3611C8.999 14.4541 8.499 14.5001 8 14.5001C7.5 14.5001 7.001 14.4541 6.521 14.3611L7.6 15.8001C7.64657 15.8622 7.70696 15.9126 7.77639 15.9473C7.84582 15.982 7.92237 16.0001 8 16.0001C8.07762 16.0001 8.15418 15.982 8.2236 15.9473C8.29303 15.9126 8.35342 15.8622 8.4 15.8001L9.479 14.3611V14.3611Z" fill="#1B1B1B"/>
</g>
<defs>
<clipPath id="clip0_1419_602">
<rect width="16" height="16" fill="white"/>
</clipPath>
</defs>
</svg>
