<svg width="16" height="16" viewBox="0 0 16 16" fill="none" xmlns="http://www.w3.org/2000/svg">
<path d="M5.52497 3.02504C5.84998 2.7 6.23583 2.44216 6.66049 2.26624C7.08516 2.09033 7.54031 1.99979 7.99997 1.99979C8.45962 1.99979 8.91478 2.09033 9.33944 2.26624C9.76411 2.44216 10.15 2.7 10.475 3.02504C10.5211 3.07279 10.5763 3.11089 10.6373 3.13709C10.6983 3.16329 10.7639 3.17709 10.8303 3.17766C10.8967 3.17824 10.9625 3.16559 11.0239 3.14045C11.0854 3.11531 11.1412 3.07818 11.1882 3.03124C11.2351 2.98429 11.2722 2.92846 11.2974 2.86702C11.3225 2.80557 11.3352 2.73973 11.3346 2.67334C11.334 2.60695 11.3202 2.54134 11.294 2.48034C11.2678 2.41933 11.2297 2.36416 11.182 2.31804C10.7641 1.90017 10.268 1.5687 9.72206 1.34255C9.17609 1.1164 8.59092 1 7.99997 1C7.40902 1 6.82385 1.1164 6.27788 1.34255C5.73191 1.5687 5.23583 1.90017 4.81797 2.31804C4.72689 2.41234 4.67649 2.53864 4.67763 2.66974C4.67877 2.80084 4.73135 2.92624 4.82406 3.01895C4.91676 3.11165 5.04217 3.16424 5.17327 3.16538C5.30437 3.16652 5.43067 3.11612 5.52497 3.02504V3.02504Z" fill="#1B1B1B"/>
<path d="M6.94003 4.43998C7.22128 4.15908 7.60253 4.0013 8.00003 4.0013C8.39753 4.0013 8.77878 4.15908 9.06003 4.43998C9.15392 4.53386 9.28125 4.58661 9.41403 4.58661C9.54681 4.58661 9.67414 4.53386 9.76803 4.43998C9.86192 4.34609 9.91466 4.21875 9.91466 4.08598C9.91466 3.9532 9.86192 3.82586 9.76803 3.73198C9.53588 3.49976 9.26025 3.31555 8.95689 3.18988C8.65353 3.0642 8.32839 2.99951 8.00003 2.99951C7.67167 2.99951 7.34653 3.0642 7.04317 3.18988C6.73981 3.31555 6.46419 3.49976 6.23203 3.73198C6.14095 3.82628 6.09055 3.95258 6.09169 4.08368C6.09283 4.21478 6.14542 4.34018 6.23812 4.43289C6.33083 4.52559 6.45623 4.57818 6.58733 4.57931C6.71843 4.58045 6.84473 4.53006 6.93903 4.43898L6.94003 4.43998Z" fill="#1B1B1B"/>
<path d="M2.974 2.34193C2.95517 2.27737 2.9235 2.21726 2.8809 2.16522C2.8383 2.11317 2.78563 2.07026 2.72605 2.03904C2.66648 2.00783 2.60122 1.98895 2.53418 1.98355C2.46713 1.97815 2.39969 1.98632 2.33589 2.00759C2.27208 2.02886 2.21322 2.06278 2.16283 2.10733C2.11244 2.15188 2.07156 2.20614 2.04262 2.26685C2.01369 2.32757 1.99731 2.3935 1.99445 2.4607C1.99159 2.5279 2.00233 2.59498 2.026 2.65793L3.806 7.99993H1.5C1.10218 7.99993 0.720644 8.15797 0.43934 8.43927C0.158035 8.72058 0 9.10211 0 9.49993L0 11.4999C0 11.8978 0.158035 12.2793 0.43934 12.5606C0.720644 12.8419 1.10218 12.9999 1.5 12.9999H2C2 13.1325 2.05268 13.2597 2.14645 13.3535C2.24021 13.4473 2.36739 13.4999 2.5 13.4999H4.5C4.63261 13.4999 4.75979 13.4473 4.85355 13.3535C4.94732 13.2597 5 13.1325 5 12.9999H11C11 13.1325 11.0527 13.2597 11.1464 13.3535C11.2402 13.4473 11.3674 13.4999 11.5 13.4999H13.5C13.6326 13.4999 13.7598 13.4473 13.8536 13.3535C13.9473 13.2597 14 13.1325 14 12.9999H14.5C14.8978 12.9999 15.2794 12.8419 15.5607 12.5606C15.842 12.2793 16 11.8978 16 11.4999V9.49993C16 9.10211 15.842 8.72058 15.5607 8.43927C15.2794 8.15797 14.8978 7.99993 14.5 7.99993H12.194L13.974 2.65793C13.9977 2.59498 14.0084 2.5279 14.0055 2.4607C14.0027 2.3935 13.9863 2.32757 13.9574 2.26685C13.9284 2.20614 13.8876 2.15188 13.8372 2.10733C13.7868 2.06278 13.7279 2.02886 13.6641 2.00759C13.6003 1.98632 13.5329 1.97815 13.4658 1.98355C13.3988 1.98895 13.3335 2.00783 13.2739 2.03904C13.2144 2.07026 13.1617 2.11317 13.1191 2.16522C13.0765 2.21726 13.0448 2.27737 13.026 2.34193L11.14 7.99993H4.86L2.974 2.34193ZM2.5 10.9999C2.36739 10.9999 2.24021 10.9473 2.14645 10.8535C2.05268 10.7597 2 10.6325 2 10.4999C2 10.3673 2.05268 10.2401 2.14645 10.1464C2.24021 10.0526 2.36739 9.99993 2.5 9.99993C2.63261 9.99993 2.75979 10.0526 2.85355 10.1464C2.94732 10.2401 3 10.3673 3 10.4999C3 10.6325 2.94732 10.7597 2.85355 10.8535C2.75979 10.9473 2.63261 10.9999 2.5 10.9999ZM7 10.4999C7 10.3673 7.05268 10.2401 7.14645 10.1464C7.24021 10.0526 7.36739 9.99993 7.5 9.99993C7.63261 9.99993 7.75979 10.0526 7.85355 10.1464C7.94732 10.2401 8 10.3673 8 10.4999C8 10.6325 7.94732 10.7597 7.85355 10.8535C7.75979 10.9473 7.63261 10.9999 7.5 10.9999C7.36739 10.9999 7.24021 10.9473 7.14645 10.8535C7.05268 10.7597 7 10.6325 7 10.4999ZM9.5 10.9999C9.36739 10.9999 9.24021 10.9473 9.14645 10.8535C9.05268 10.7597 9 10.6325 9 10.4999C9 10.3673 9.05268 10.2401 9.14645 10.1464C9.24021 10.0526 9.36739 9.99993 9.5 9.99993C9.63261 9.99993 9.75979 10.0526 9.85355 10.1464C9.94732 10.2401 10 10.3673 10 10.4999C10 10.6325 9.94732 10.7597 9.85355 10.8535C9.75979 10.9473 9.63261 10.9999 9.5 10.9999ZM11 10.4999C11 10.3673 11.0527 10.2401 11.1464 10.1464C11.2402 10.0526 11.3674 9.99993 11.5 9.99993C11.6326 9.99993 11.7598 10.0526 11.8536 10.1464C11.9473 10.2401 12 10.3673 12 10.4999C12 10.6325 11.9473 10.7597 11.8536 10.8535C11.7598 10.9473 11.6326 10.9999 11.5 10.9999C11.3674 10.9999 11.2402 10.9473 11.1464 10.8535C11.0527 10.7597 11 10.6325 11 10.4999ZM13 10.4999C13 10.3673 13.0527 10.2401 13.1464 10.1464C13.2402 10.0526 13.3674 9.99993 13.5 9.99993C13.6326 9.99993 13.7598 10.0526 13.8536 10.1464C13.9473 10.2401 14 10.3673 14 10.4999C14 10.6325 13.9473 10.7597 13.8536 10.8535C13.7598 10.9473 13.6326 10.9999 13.5 10.9999C13.3674 10.9999 13.2402 10.9473 13.1464 10.8535C13.0527 10.7597 13 10.6325 13 10.4999Z" fill="#1B1B1B"/>
<path d="M8.5 5.5C8.5 5.63261 8.44732 5.75979 8.35355 5.85355C8.25979 5.94732 8.13261 6 8 6C7.86739 6 7.74021 5.94732 7.64645 5.85355C7.55268 5.75979 7.5 5.63261 7.5 5.5C7.5 5.36739 7.55268 5.24021 7.64645 5.14645C7.74021 5.05268 7.86739 5 8 5C8.13261 5 8.25979 5.05268 8.35355 5.14645C8.44732 5.24021 8.5 5.36739 8.5 5.5V5.5Z" fill="#1B1B1B"/>
</svg>
