<svg width="16" height="16" viewBox="0 0 16 16" fill="none" xmlns="http://www.w3.org/2000/svg">
<g clip-path="url(#clip0_1419_1834)">
<path fill-rule="evenodd" clip-rule="evenodd" d="M11.4648 0.292619C11.8553 -0.0979043 12.4885 -0.0979047 12.879 0.292619L15.7074 3.12105L15.7765 3.19701C16.0966 3.58978 16.0735 4.16921 15.7074 4.53526L4.53526 15.7074C4.1692 16.0733 3.58971 16.0966 3.197 15.7765L3.12104 15.7074L0.292617 12.879L0.224254 12.8023C-0.0958233 12.4096 -0.0732526 11.8308 0.292617 11.4648L11.4648 0.292619ZM3.12104 12.879L3.68659 12.3134L5.1008 13.7276L6.09103 12.7374L5.38392 12.0303L5.94947 11.4648L6.65658 12.1719L7.6468 11.1816L6.23259 9.76744L6.79814 9.20189L8.21235 10.6161L9.20189 9.62657L8.49478 8.91946L9.06102 8.35322L9.76812 9.06033L10.7577 8.07079L9.34345 6.65658L9.90899 6.09103L11.3232 7.50525L12.3134 6.51502L11.6063 5.80791L12.1719 5.24237L12.879 5.94947L13.8692 4.95925L12.455 3.54503L13.0205 2.97949L14.4348 4.3937L15.0003 3.82815L12.1719 0.999726L0.999724 12.1719L3.82815 15.0003L4.53526 14.2932L3.12104 12.879Z" fill="#1B1B1B"/>
</g>
<defs>
<clipPath id="clip0_1419_1834">
<rect width="16" height="16" fill="white"/>
</clipPath>
</defs>
</svg>
