<svg width="16" height="16" viewBox="0 0 16 16" fill="none" xmlns="http://www.w3.org/2000/svg">
<g clip-path="url(#clip0_1419_1835)">
<path d="M11.4647 0.292405C11.8553 -0.0981193 12.4884 -0.0981193 12.879 0.292405L15.7074 3.12083C16.0979 3.51136 16.0979 4.14452 15.7074 4.53505L15.1418 5.10059L13.0205 2.97927L12.455 3.54482L14.5763 5.66614L13.5861 6.65637L12.1719 5.24215L11.6063 5.8077L13.0205 7.22191L12.0303 8.21214L9.90897 6.09082L9.34343 6.65637L11.4647 8.77769L10.4752 9.76722L9.061 8.35301L8.49476 8.91925L9.90897 10.3335L8.91944 11.323L6.79812 9.20167L6.23257 9.76722L8.35389 11.8885L7.36367 12.8788L5.94945 11.4646L5.3839 12.0301L6.79812 13.4443L5.80789 14.4345L3.68657 12.3132L3.12102 12.8788L5.24234 15.0001L4.53524 15.7072C4.14471 16.0977 3.51154 16.0977 3.12102 15.7072L0.292597 12.8788C-0.0979154 12.4883 -0.097892 11.8551 0.292597 11.4646L11.4647 0.292405Z" fill="#1B1B1B"/>
</g>
<defs>
<clipPath id="clip0_1419_1835">
<rect width="16" height="16" fill="white"/>
</clipPath>
</defs>
</svg>
