<svg width="16" height="16" viewBox="0 0 16 16" fill="none" xmlns="http://www.w3.org/2000/svg">
<g clip-path="url(#clip0_1419_1076)">
<path d="M9.77805 9.41408C9.59356 9.6051 9.37287 9.75747 9.12886 9.86228C8.88486 9.9671 8.62241 10.0223 8.35686 10.0246C8.0913 10.0269 7.82794 9.97629 7.58215 9.87573C7.33635 9.77516 7.11305 9.62666 6.92526 9.43887C6.73748 9.25109 6.58897 9.02778 6.48841 8.78199C6.38785 8.5362 6.33725 8.27284 6.33955 8.00728C6.34186 7.74172 6.39703 7.47928 6.50185 7.23527C6.60667 6.99126 6.75903 6.77058 6.95005 6.58608C7.32726 6.22177 7.83246 6.02018 8.35686 6.02473C8.88125 6.02929 9.38288 6.23963 9.75369 6.61044C10.1245 6.98126 10.3348 7.48289 10.3394 8.00728C10.344 8.53167 10.1424 9.03688 9.77805 9.41408Z" fill="#1B1B1B"/>
<path d="M2.5 0C2.10218 0 1.72064 0.158035 1.43934 0.43934C1.15804 0.720644 1 1.10218 1 1.5V3H0.5C0.367392 3 0.240215 3.05268 0.146447 3.14645C0.0526784 3.24021 0 3.36739 0 3.5C0 3.63261 0.0526784 3.75979 0.146447 3.85355C0.240215 3.94732 0.367392 4 0.5 4H1V7.5H0.5C0.367392 7.5 0.240215 7.55268 0.146447 7.64645C0.0526784 7.74021 0 7.86739 0 8C0 8.13261 0.0526784 8.25979 0.146447 8.35355C0.240215 8.44732 0.367392 8.5 0.5 8.5H1V12H0.5C0.367392 12 0.240215 12.0527 0.146447 12.1464C0.0526784 12.2402 0 12.3674 0 12.5C0 12.6326 0.0526784 12.7598 0.146447 12.8536C0.240215 12.9473 0.367392 13 0.5 13H1V14.5C1 14.8978 1.15804 15.2794 1.43934 15.5607C1.72064 15.842 2.10218 16 2.5 16H14.5C14.8978 16 15.2794 15.842 15.5607 15.5607C15.842 15.2794 16 14.8978 16 14.5V1.5C16 1.10218 15.842 0.720644 15.5607 0.43934C15.2794 0.158035 14.8978 0 14.5 0L2.5 0ZM5.536 4.464L6.626 5.554C7.13387 5.19357 7.74123 4.99995 8.364 4.99995C8.98677 4.99995 9.59413 5.19357 10.102 5.554L11.192 4.464C11.2859 4.37025 11.4132 4.31763 11.5459 4.31772C11.6785 4.31782 11.8057 4.37061 11.8995 4.4645C11.9933 4.55839 12.0459 4.68567 12.0458 4.81835C12.0457 4.95104 11.9929 5.07825 11.899 5.172L10.809 6.262C11.549 7.299 11.549 8.702 10.809 9.738L11.899 10.828C11.9929 10.9218 12.0457 11.049 12.0458 11.1816C12.0459 11.3143 11.9933 11.4416 11.8995 11.5355C11.8057 11.6294 11.6785 11.6822 11.5459 11.6823C11.4132 11.6824 11.2859 11.6298 11.192 11.536L10.102 10.446C9.59419 10.8066 8.9868 11.0003 8.364 11.0003C7.7412 11.0003 7.13381 10.8066 6.626 10.446L5.536 11.536C5.48951 11.5825 5.43432 11.6194 5.37358 11.6445C5.31284 11.6697 5.24774 11.6826 5.182 11.6826C5.11626 11.6826 5.05116 11.6697 4.99042 11.6445C4.92968 11.6194 4.87449 11.5825 4.828 11.536C4.78151 11.4895 4.74464 11.4343 4.71948 11.3736C4.69432 11.3128 4.68137 11.2477 4.68137 11.182C4.68137 11.1163 4.69432 11.0512 4.71948 10.9904C4.74464 10.9297 4.78151 10.8745 4.828 10.828L5.918 9.738C5.55757 9.23013 5.36395 8.62277 5.36395 8C5.36395 7.37723 5.55757 6.76987 5.918 6.262L4.828 5.172C4.73411 5.07811 4.68137 4.95078 4.68137 4.818C4.68137 4.68522 4.73411 4.55789 4.828 4.464C4.92189 4.37011 5.04922 4.31737 5.182 4.31737C5.31478 4.31737 5.44211 4.37011 5.536 4.464V4.464ZM14 6.5V9.5C14 9.63261 13.9473 9.75979 13.8536 9.85355C13.7598 9.94732 13.6326 10 13.5 10C13.3674 10 13.2402 9.94732 13.1464 9.85355C13.0527 9.75979 13 9.63261 13 9.5V6.5C13 6.36739 13.0527 6.24021 13.1464 6.14645C13.2402 6.05268 13.3674 6 13.5 6C13.6326 6 13.7598 6.05268 13.8536 6.14645C13.9473 6.24021 14 6.36739 14 6.5V6.5Z" fill="#1B1B1B"/>
</g>
<defs>
<clipPath id="clip0_1419_1076">
<rect width="16" height="16" fill="white"/>
</clipPath>
</defs>
</svg>
