<svg width="16" height="16" viewBox="0 0 16 16" fill="none" xmlns="http://www.w3.org/2000/svg">
<path d="M6.56303 7.99991H5.03503C5.1181 7.42074 5.34578 6.87184 5.69703 6.40391L6.77703 7.48391C6.68303 7.64391 6.61003 7.81591 6.56303 7.99991ZM7.48403 6.77691L6.40403 5.69691C6.87197 5.34566 7.42086 5.11798 8.00003 5.03491V6.56291C7.81603 6.60991 7.64303 6.68291 7.48403 6.77691V6.77691ZM9.00003 6.56291V5.03491C9.5792 5.11798 10.1281 5.34566 10.596 5.69691L9.51603 6.77691C9.35496 6.68165 9.18125 6.6096 9.00003 6.56291V6.56291ZM10.223 7.48391L11.303 6.40391C11.646 6.86191 11.88 7.40691 11.965 7.99991H10.437C10.3903 7.8187 10.3183 7.64499 10.223 7.48391ZM10.437 8.99991H11.965C11.8819 9.57907 11.6543 10.128 11.303 10.5959L10.223 9.51591C10.317 9.35591 10.39 9.18391 10.437 8.99991ZM9.51603 10.2229L10.596 11.3029C10.1281 11.6541 9.57919 11.8818 9.00003 11.9649V10.4369C9.18403 10.3899 9.35703 10.3169 9.51603 10.2229V10.2229ZM8.00003 10.4369V11.9649C7.42088 11.8818 6.87199 11.6541 6.40403 11.3029L7.48403 10.2229C7.64403 10.3169 7.81603 10.3899 8.00003 10.4369ZM6.77703 9.51591L5.69703 10.5959C5.34578 10.128 5.1181 9.57908 5.03503 8.99991H6.56303C6.61003 9.18391 6.68303 9.35691 6.77703 9.51591V9.51591ZM7.50003 8.49991C7.50003 8.2347 7.60539 7.98034 7.79293 7.79281C7.98046 7.60527 8.23482 7.49991 8.50003 7.49991C8.76525 7.49991 9.0196 7.60527 9.20714 7.79281C9.39468 7.98034 9.50003 8.2347 9.50003 8.49991C9.50003 8.76513 9.39468 9.01948 9.20714 9.20702C9.0196 9.39456 8.76525 9.49991 8.50003 9.49991C8.23482 9.49991 7.98046 9.39456 7.79293 9.20702C7.60539 9.01948 7.50003 8.76513 7.50003 8.49991Z" fill="currentColor"/>
<path d="M2.5 1C2.10218 1 1.72064 1.15804 1.43934 1.43934C1.15804 1.72064 1 2.10218 1 2.5V3H0.5C0.367392 3 0.240215 3.05268 0.146447 3.14645C0.0526784 3.24021 0 3.36739 0 3.5C0 3.63261 0.0526784 3.75979 0.146447 3.85355C0.240215 3.94732 0.367392 4 0.5 4H1V8H0.5C0.367392 8 0.240215 8.05268 0.146447 8.14645C0.0526784 8.24021 0 8.36739 0 8.5C0 8.63261 0.0526784 8.75979 0.146447 8.85355C0.240215 8.94732 0.367392 9 0.5 9H1V13H0.5C0.367392 13 0.240215 13.0527 0.146447 13.1464C0.0526784 13.2402 0 13.3674 0 13.5C0 13.6326 0.0526784 13.7598 0.146447 13.8536C0.240215 13.9473 0.367392 14 0.5 14H1V14.5C1 14.8978 1.15804 15.2794 1.43934 15.5607C1.72064 15.842 2.10218 16 2.5 16H14.5C14.8978 16 15.2794 15.842 15.5607 15.5607C15.842 15.2794 16 14.8978 16 14.5V2.5C16 2.10218 15.842 1.72064 15.5607 1.43934C15.2794 1.15804 14.8978 1 14.5 1H2.5ZM8.5 4C9.69347 4 10.8381 4.47411 11.682 5.31802C12.5259 6.16193 13 7.30653 13 8.5C13 9.69347 12.5259 10.8381 11.682 11.682C10.8381 12.5259 9.69347 13 8.5 13C7.30653 13 6.16193 12.5259 5.31802 11.682C4.47411 10.8381 4 9.69347 4 8.5C4 7.30653 4.47411 6.16193 5.31802 5.31802C6.16193 4.47411 7.30653 4 8.5 4V4Z" fill="currentColor"/>
</svg>
