<svg width="16" height="16" viewBox="0 0 16 16" fill="none" xmlns="http://www.w3.org/2000/svg">
<path fill-rule="evenodd" clip-rule="evenodd" d="M8.99998 2.5C8.99998 2.36739 9.05266 2.24021 9.14642 2.14645C9.24019 2.05268 9.36737 2 9.49998 2H12.5C12.6326 2 12.7598 2.05268 12.8535 2.14645C12.9473 2.24021 13 2.36739 13 2.5C13 2.63261 12.9473 2.75979 12.8535 2.85355C12.7598 2.94732 12.6326 3 12.5 3H12.11L13.51 10C14.1295 10.003 14.7259 10.2359 15.1835 10.6536C15.6411 11.0713 15.9273 11.6441 15.9866 12.2608C16.0458 12.8775 15.874 13.4943 15.5043 13.9915C15.1347 14.4887 14.5936 14.831 13.9859 14.9519C13.3782 15.0728 12.7473 14.9638 12.2155 14.6459C11.6837 14.3281 11.2888 13.8241 11.1075 13.2316C10.9262 12.6392 10.9713 12.0005 11.2341 11.4395C11.4969 10.8784 11.9587 10.4349 12.53 10.195L12.341 9.257L9.91098 12.784C9.86505 12.8506 9.80365 12.905 9.73207 12.9426C9.66049 12.9802 9.58085 12.9999 9.49998 13H4.94998C4.82607 13.607 4.48118 14.1464 3.98218 14.5136C3.48318 14.8808 2.86562 15.0496 2.24922 14.9873C1.63281 14.9251 1.06149 14.6361 0.64601 14.1766C0.230528 13.717 0.000488281 13.1195 0.000488281 12.5C0.000488281 11.8805 0.230528 11.283 0.64601 10.8234C1.06149 10.3639 1.63281 10.0749 2.24922 10.0127C2.86562 9.95039 3.48318 10.1192 3.98218 10.4864C4.48118 10.8536 4.82607 11.393 4.94998 12H9.23698L12.068 7.89L11.09 3H9.49998C9.36737 3 9.24019 2.94732 9.14642 2.85355C9.05266 2.75979 8.99998 2.63261 8.99998 2.5ZM3.91498 12C3.79703 11.6664 3.56494 11.3852 3.25974 11.2062C2.95453 11.0271 2.59586 10.9618 2.24711 11.0216C1.89836 11.0814 1.582 11.2626 1.35393 11.5332C1.12585 11.8037 1.00076 12.1462 1.00076 12.5C1.00076 12.8538 1.12585 13.1963 1.35393 13.4668C1.582 13.7374 1.89836 13.9186 2.24711 13.9784C2.59586 14.0382 2.95453 13.9729 3.25974 13.7938C3.56494 13.6148 3.79703 13.3336 3.91498 13H2.49998C2.36737 13 2.24019 12.9473 2.14642 12.8536C2.05266 12.7598 1.99998 12.6326 1.99998 12.5C1.99998 12.3674 2.05266 12.2402 2.14642 12.1464C2.24019 12.0527 2.36737 12 2.49998 12H3.91498ZM12.732 11.211C12.4489 11.3786 12.2287 11.6346 12.1055 11.9396C11.9823 12.2447 11.9629 12.5818 12.0502 12.899C12.1376 13.2161 12.3268 13.4958 12.5888 13.6948C12.8508 13.8937 13.171 14.001 13.5 14C13.8796 14.0004 14.2452 13.8568 14.5231 13.5982C14.801 13.3397 14.9706 12.9854 14.9976 12.6068C15.0246 12.2281 14.9071 11.8534 14.6687 11.558C14.4303 11.2626 14.0888 11.0685 13.713 11.015L13.99 12.402C14.011 12.5299 13.9815 12.661 13.9078 12.7676C13.834 12.8742 13.7218 12.948 13.5947 12.9734C13.4675 12.9988 13.3355 12.9739 13.2265 12.9039C13.1174 12.8338 13.0398 12.7242 13.01 12.598L12.732 11.211V11.211Z" fill="currentColor"/>
</svg>
