<svg width="16" height="16" viewBox="0 0 16 16" fill="none" xmlns="http://www.w3.org/2000/svg">
<g clip-path="url(#clip0_1419_1714)">
<path d="M0 0.995L0.995 0L4.059 2.19C4.18785 2.28195 4.2929 2.40332 4.36542 2.54403C4.43795 2.68473 4.47586 2.84071 4.476 2.999V3.069C4.476 3.333 4.581 3.586 4.767 3.773L10.444 9.449L11.353 9.146C11.5282 9.08756 11.7163 9.07906 11.8961 9.12145C12.0759 9.16384 12.2403 9.25544 12.371 9.386L15.709 12.725C15.8952 12.9116 15.9999 13.1644 15.9999 13.428C15.9999 13.6916 15.8952 13.9444 15.709 14.131L14.13 15.71C13.9434 15.8962 13.6906 16.0009 13.427 16.0009C13.1634 16.0009 12.9106 15.8962 12.724 15.71L9.387 12.37C9.25644 12.2393 9.16484 12.0749 9.12245 11.8951C9.08006 11.7153 9.08856 11.5272 9.147 11.352L9.449 10.443L3.773 4.766C3.68052 4.67363 3.57075 4.60039 3.44995 4.55046C3.32916 4.50053 3.19971 4.47489 3.069 4.475H3C2.84154 4.47502 2.68536 4.43718 2.54447 4.36465C2.40358 4.29212 2.28205 4.18699 2.19 4.058L0 0.995ZM11.293 10.59C11.2468 10.5438 11.192 10.5072 11.1317 10.4822C11.0714 10.4573 11.0068 10.4444 10.9415 10.4444C10.8762 10.4444 10.8116 10.4573 10.7513 10.4822C10.691 10.5072 10.6362 10.5438 10.59 10.59C10.5438 10.6362 10.5072 10.691 10.4822 10.7513C10.4573 10.8116 10.4444 10.8762 10.4444 10.9415C10.4444 11.0068 10.4573 11.0714 10.4822 11.1317C10.5072 11.192 10.5438 11.2468 10.59 11.293L13.574 14.277C13.6672 14.3702 13.7937 14.4226 13.9255 14.4226C14.0573 14.4226 14.1838 14.3702 14.277 14.277C14.3702 14.1838 14.4226 14.0573 14.4226 13.9255C14.4226 13.7937 14.3702 13.6672 14.277 13.574L11.293 10.59Z" fill="currentColor"/>
</g>
<defs>
<clipPath id="clip0_1419_1714">
<rect width="16" height="16" fill="white"/>
</clipPath>
</defs>
</svg>
