<svg width="16" height="16" viewBox="0 0 16 16" fill="none" xmlns="http://www.w3.org/2000/svg">
<g clip-path="url(#clip0_1419_1717)">
<path d="M11.742 10.3441C12.7103 9.02279 13.144 7.38459 12.9563 5.75725C12.7686 4.12991 11.9734 2.63344 10.7298 1.56723C9.48613 0.501022 7.88576 -0.0562959 6.24885 0.00677721C4.61194 0.0698504 3.0592 0.748663 1.90128 1.90741C0.743364 3.06615 0.0656633 4.61938 0.00376152 6.25633C-0.0581403 7.89329 0.500322 9.49326 1.56742 10.7361C2.63452 11.979 4.13156 12.7732 5.75903 12.9597C7.38651 13.1462 9.02439 12.7113 10.345 11.7421H10.344C10.374 11.7821 10.406 11.8201 10.442 11.8571L14.292 15.7071C14.4795 15.8947 14.7339 16.0002 14.9992 16.0003C15.2644 16.0004 15.5189 15.8951 15.7065 15.7076C15.8942 15.5201 15.9996 15.2657 15.9997 15.0005C15.9998 14.7352 15.8945 14.4807 15.707 14.2931L11.857 10.4431C11.8213 10.4069 11.7828 10.3735 11.742 10.3431V10.3441ZM12 6.5001C12 7.22237 11.8578 7.93757 11.5814 8.60486C11.3049 9.27215 10.8998 9.87847 10.3891 10.3892C9.87838 10.8999 9.27206 11.305 8.60477 11.5814C7.93748 11.8578 7.22228 12.0001 6.50001 12.0001C5.77774 12.0001 5.06254 11.8578 4.39525 11.5814C3.72796 11.305 3.12165 10.8999 2.61093 10.3892C2.1002 9.87847 1.69508 9.27215 1.41868 8.60486C1.14227 7.93757 1.00001 7.22237 1.00001 6.5001C1.00001 5.04141 1.57948 3.64246 2.61093 2.61101C3.64238 1.57956 5.04132 1.0001 6.50001 1.0001C7.9587 1.0001 9.35765 1.57956 10.3891 2.61101C11.4206 3.64246 12 5.04141 12 6.5001V6.5001Z" fill="#1B1B1B"/>
</g>
<defs>
<clipPath id="clip0_1419_1717">
<rect width="16" height="16" fill="white"/>
</clipPath>
</defs>
</svg>
