<svg width="16" height="16" viewBox="0 0 16 16" fill="none" xmlns="http://www.w3.org/2000/svg">
<g clip-path="url(#clip0_1419_1716)">
<path d="M6.5 4.48196C8.164 2.80896 12.325 5.73596 6.5 9.49996C0.675001 5.73596 4.836 2.80996 6.5 4.48196Z" fill="currentColor"/>
<path d="M13 6.50003C13.0022 7.88286 12.5613 9.23002 11.742 10.344C11.782 10.374 11.82 10.406 11.857 10.442L15.707 14.292C15.8946 14.4795 16.0001 14.7339 16.0002 14.9992C16.0003 15.2644 15.895 15.5189 15.7075 15.7065C15.52 15.8942 15.2656 15.9996 15.0003 15.9997C14.7351 15.9998 14.4806 15.8945 14.293 15.707L10.443 11.857C10.4068 11.8213 10.3734 11.7828 10.343 11.742H10.345C9.16681 12.6064 7.73173 13.0486 6.27137 12.9972C4.811 12.9458 3.41056 12.4038 2.29606 11.4587C1.18156 10.5137 0.418027 9.2206 0.128688 7.78827C-0.160652 6.35593 0.0410848 4.86788 0.701338 3.56429C1.36159 2.26069 2.44184 1.2176 3.76774 0.603362C5.09364 -0.0108759 6.58783 -0.160424 8.00917 0.178854C9.4305 0.518132 10.6961 1.32644 11.6016 2.47333C12.5071 3.62021 12.9997 5.03876 13 6.50003V6.50003ZM6.49999 12C7.22226 12 7.93746 11.8578 8.60475 11.5814C9.27204 11.305 9.87836 10.8998 10.3891 10.3891C10.8998 9.87839 11.3049 9.27207 11.5813 8.60478C11.8577 7.93749 12 7.2223 12 6.50003C12 5.77775 11.8577 5.06256 11.5813 4.39527C11.3049 3.72798 10.8998 3.12166 10.3891 2.61094C9.87836 2.10022 9.27204 1.69509 8.60475 1.41869C7.93746 1.14229 7.22226 1.00003 6.49999 1.00003C5.0413 1.00003 3.64236 1.57949 2.61091 2.61094C1.57946 3.64239 0.999993 5.04133 0.999993 6.50003C0.999993 7.95872 1.57946 9.35766 2.61091 10.3891C3.64236 11.4206 5.0413 12 6.49999 12V12Z" fill="currentColor"/>
</g>
<defs>
<clipPath id="clip0_1419_1716">
<rect width="16" height="16" fill="white"/>
</clipPath>
</defs>
</svg>
