<svg width="16" height="16" viewBox="0 0 16 16" fill="none" xmlns="http://www.w3.org/2000/svg">
<g clip-path="url(#clip0_1419_465)">
<path d="M15.964 0.685806C16.0004 0.594942 16.0093 0.495402 15.9896 0.399526C15.97 0.303649 15.9226 0.215653 15.8534 0.146447C15.7842 0.0772403 15.6962 0.0298668 15.6003 0.0101994C15.5044 -0.0094681 15.4049 -0.000564594 15.314 0.0358061L0.767017 5.85481H0.766017L0.314017 6.03481C0.228408 6.06895 0.153903 6.1261 0.098733 6.19994C0.0435631 6.27377 0.00987534 6.36142 0.0013908 6.4532C-0.00709374 6.54497 0.00995519 6.63731 0.0506543 6.72001C0.0913535 6.8027 0.154119 6.87254 0.232017 6.92181L0.642017 7.18181L0.643017 7.18381L5.63802 10.3618L8.81602 15.3568L8.81802 15.3588L9.07802 15.7688C9.12744 15.8464 9.19732 15.9089 9.27995 15.9493C9.36259 15.9897 9.45478 16.0066 9.54638 15.998C9.63798 15.9894 9.72543 15.9558 9.79912 15.9007C9.87281 15.8456 9.92987 15.7712 9.96402 15.6858L15.964 0.685806V0.685806ZM14.131 2.57581L6.63702 10.0698L6.42202 9.73181C6.38262 9.66978 6.33004 9.6172 6.26802 9.57781L5.93002 9.36281L13.424 1.86881L14.602 1.39781L14.132 2.57581H14.131Z" fill="currentColor"/>
</g>
<defs>
<clipPath id="clip0_1419_465">
<rect width="16" height="16" fill="white"/>
</clipPath>
</defs>
</svg>
