<svg width="16" height="16" viewBox="0 0 16 16" fill="none" xmlns="http://www.w3.org/2000/svg">
<g clip-path="url(#clip0_1419_460)">
<path d="M15.9639 0.685806C16.0003 0.594942 16.0092 0.495402 15.9895 0.399526C15.9699 0.303649 15.9225 0.215653 15.8533 0.146447C15.7841 0.0772403 15.6961 0.0298668 15.6002 0.0101994C15.5043 -0.0094681 15.4048 -0.000564594 15.3139 0.0358061L0.766942 5.85481C0.638832 5.90609 0.527352 5.99172 0.444773 6.10227C0.362194 6.21283 0.311718 6.34402 0.298898 6.48142C0.286079 6.61882 0.311414 6.75709 0.372115 6.88101C0.432816 7.00494 0.526529 7.10971 0.642942 7.18381L5.63794 10.3618L7.16894 12.7678C7.24125 12.877 7.3535 12.9534 7.48157 12.9807C7.60964 13.008 7.74331 12.984 7.85385 12.9138C7.96439 12.8436 8.04298 12.7328 8.07273 12.6053C8.10247 12.4778 8.08101 12.3437 8.01294 12.2318L6.63694 10.0698L14.1309 2.57581L12.2359 7.31381C12.2099 7.37504 12.1964 7.44085 12.1961 7.50738C12.1958 7.57392 12.2088 7.63984 12.2343 7.70128C12.2599 7.76273 12.2974 7.81846 12.3447 7.86521C12.3921 7.91196 12.4483 7.9488 12.51 7.97355C12.5718 7.99831 12.6379 8.01049 12.7044 8.00938C12.7709 8.00828 12.8366 7.9939 12.8975 7.9671C12.9584 7.9403 13.0133 7.90162 13.0591 7.85332C13.1048 7.80502 13.1405 7.74807 13.1639 7.68581L15.9639 0.685806V0.685806ZM13.4239 1.86881L5.92994 9.36281L1.59094 6.60181L13.4239 1.86881V1.86881Z" fill="currentColor"/>
<path d="M16 12.5C16 13.4283 15.6313 14.3185 14.9749 14.9749C14.3185 15.6313 13.4283 16 12.5 16C11.5717 16 10.6815 15.6313 10.0251 14.9749C9.36875 14.3185 9 13.4283 9 12.5C9 11.5717 9.36875 10.6815 10.0251 10.0251C10.6815 9.36875 11.5717 9 12.5 9C13.4283 9 14.3185 9.36875 14.9749 10.0251C15.6313 10.6815 16 11.5717 16 12.5V12.5ZM14.007 10.821C13.9507 10.7872 13.8882 10.7649 13.8233 10.7553C13.7583 10.7457 13.6921 10.7489 13.6284 10.7649C13.5647 10.7809 13.5047 10.8092 13.452 10.8484C13.3993 10.8875 13.3547 10.9367 13.321 10.993L12.151 12.943L11.604 12.396C11.5101 12.3021 11.3828 12.2494 11.25 12.2494C11.1172 12.2494 10.9899 12.3021 10.896 12.396C10.8021 12.4899 10.7494 12.6172 10.7494 12.75C10.7494 12.8828 10.8021 13.0101 10.896 13.104L11.67 13.877C11.7506 13.9577 11.8485 14.019 11.9563 14.0562C12.0641 14.0934 12.179 14.1055 12.2922 14.0916C12.4053 14.0777 12.5139 14.0382 12.6095 13.9761C12.7051 13.9139 12.7853 13.8308 12.844 13.733L14.179 11.507C14.2128 11.4507 14.2351 11.3882 14.2447 11.3233C14.2543 11.2583 14.2511 11.1921 14.2351 11.1284C14.2191 11.0647 14.1908 11.0047 14.1516 10.952C14.1125 10.8993 14.0633 10.8547 14.007 10.821V10.821Z" fill="currentColor"/>
</g>
<defs>
<clipPath id="clip0_1419_460">
<rect width="16" height="16" fill="white"/>
</clipPath>
</defs>
</svg>
