<svg width="16" height="16" viewBox="0 0 16 16" fill="none" xmlns="http://www.w3.org/2000/svg">
<g clip-path="url(#clip0_1419_468)">
<path d="M15.964 0.685806C16.0004 0.594942 16.0093 0.495402 15.9896 0.399526C15.97 0.303649 15.9226 0.215653 15.8534 0.146447C15.7842 0.0772403 15.6962 0.0298668 15.6003 0.0101994C15.5044 -0.0094681 15.4049 -0.000564594 15.314 0.0358061L0.767017 5.85481H0.766017L0.314017 6.03481C0.228408 6.06895 0.153903 6.1261 0.098733 6.19994C0.0435631 6.27377 0.00987534 6.36142 0.0013908 6.4532C-0.00709374 6.54497 0.00995519 6.63731 0.0506543 6.72001C0.0913535 6.8027 0.154119 6.87254 0.232017 6.92181L0.642017 7.18181L0.643017 7.18381L5.63802 10.3618L7.22802 12.8598C8.00002 13.9998 8.00002 12.9998 8.00002 12.4998C7.9999 11.8644 8.13435 11.2362 8.39451 10.6565C8.65468 10.0767 9.03467 9.5587 9.50947 9.13643C9.98426 8.71415 10.5431 8.39722 11.1492 8.20648C11.7553 8.01575 12.395 7.95553 13.026 8.02981L15.964 0.685806ZM14.131 2.57581L6.63702 10.0698L6.42202 9.73181C6.38262 9.66978 6.33004 9.6172 6.26802 9.57781L5.93002 9.36281L13.424 1.86881L14.602 1.39781L14.132 2.57581H14.131Z" fill="#1B1B1B"/>
<path d="M14.9751 10.0252C14.65 9.70016 14.2642 9.44234 13.8395 9.26643C13.4149 9.09053 12.9597 9 12.5001 9C12.0404 9 11.5853 9.09053 11.1606 9.26643C10.7359 9.44234 10.3501 9.70016 10.0251 10.0252C9.70003 10.3502 9.44221 10.7361 9.26631 11.1607C9.09041 11.5854 8.99988 12.0405 8.99988 12.5002C8.99988 12.9598 9.09041 13.415 9.26631 13.8396C9.44221 14.2643 9.70003 14.6502 10.0251 14.9752C10.6815 15.6316 11.5718 16.0004 12.5001 16.0004C13.4284 16.0004 14.3186 15.6316 14.9751 14.9752C15.6315 14.3188 16.0002 13.4285 16.0002 12.5002C16.0002 11.5719 15.6315 10.6816 14.9751 10.0252V10.0252ZM10.7321 10.7322C11.1396 10.3247 11.6755 10.0705 12.2489 10.0125C12.8223 9.95457 13.3982 10.0965 13.8791 10.4142L10.4141 13.8792C10.0963 13.3983 9.95444 12.8225 10.0124 12.249C10.0703 11.6756 10.3246 11.1398 10.7321 10.7322V10.7322ZM11.1221 14.5862L14.5861 11.1212C14.9034 11.6021 15.045 12.1778 14.9869 12.751C14.9288 13.3243 14.6746 13.8598 14.2671 14.2673C13.8597 14.6747 13.3241 14.9289 12.7509 14.987C12.1777 15.0451 11.6019 14.9035 11.1211 14.5862H11.1221Z" fill="#1B1B1B"/>
</g>
<defs>
<clipPath id="clip0_1419_468">
<rect width="16" height="16" fill="white"/>
</clipPath>
</defs>
</svg>
