<svg width="16" height="16" viewBox="0 0 16 16" fill="none" xmlns="http://www.w3.org/2000/svg">
<g clip-path="url(#clip0_1419_470)">
<path d="M15.964 0.685806C16.0004 0.594942 16.0093 0.495402 15.9896 0.399526C15.97 0.303649 15.9226 0.215653 15.8534 0.146447C15.7842 0.0772403 15.6962 0.0298668 15.6003 0.0101994C15.5044 -0.0094681 15.4049 -0.000564594 15.314 0.0358061L0.767017 5.85481H0.766017L0.314017 6.03481C0.228408 6.06895 0.153903 6.1261 0.098733 6.19994C0.0435631 6.27377 0.00987534 6.36142 0.0013908 6.4532C-0.00709374 6.54497 0.00995519 6.63731 0.0506543 6.72001C0.0913535 6.8027 0.154119 6.87254 0.232017 6.92181L0.642017 7.18181L0.643017 7.18381L5.63802 10.3618L7.22802 12.8598C8.00002 13.9998 8.00002 12.9998 8.00002 12.4998C7.9999 11.8644 8.13435 11.2362 8.39451 10.6565C8.65468 10.0767 9.03467 9.5587 9.50947 9.13643C9.98426 8.71415 10.5431 8.39722 11.1492 8.20648C11.7553 8.01575 12.395 7.95553 13.026 8.02981L15.964 0.685806ZM14.131 2.57581L6.63702 10.0698L6.42202 9.73181C6.38262 9.66978 6.33004 9.6172 6.26802 9.57781L5.93002 9.36281L13.424 1.86881L14.602 1.39781L14.132 2.57581H14.131Z" fill="currentColor"/>
<path d="M16 12.5C16 13.4283 15.6313 14.3185 14.9749 14.9749C14.3185 15.6313 13.4283 16 12.5 16C11.5717 16 10.6815 15.6313 10.0251 14.9749C9.36875 14.3185 9 13.4283 9 12.5C9 11.5717 9.36875 10.6815 10.0251 10.0251C10.6815 9.36875 11.5717 9 12.5 9C13.4283 9 14.3185 9.36875 14.9749 10.0251C15.6313 10.6815 16 11.5717 16 12.5V12.5ZM11.146 11.146C11.0994 11.1924 11.0625 11.2476 11.0373 11.3084C11.0121 11.3691 10.9991 11.4342 10.9991 11.5C10.9991 11.5658 11.0121 11.6309 11.0373 11.6916C11.0625 11.7524 11.0994 11.8076 11.146 11.854L11.793 12.5L11.146 13.146C11.0521 13.2399 10.9994 13.3672 10.9994 13.5C10.9994 13.6328 11.0521 13.7601 11.146 13.854C11.2399 13.9479 11.3672 14.0006 11.5 14.0006C11.6328 14.0006 11.7601 13.9479 11.854 13.854L12.5 13.207L13.146 13.854C13.2399 13.9479 13.3672 14.0006 13.5 14.0006C13.6328 14.0006 13.7601 13.9479 13.854 13.854C13.9479 13.7601 14.0006 13.6328 14.0006 13.5C14.0006 13.3672 13.9479 13.2399 13.854 13.146L13.207 12.5L13.854 11.854C13.9479 11.7601 14.0006 11.6328 14.0006 11.5C14.0006 11.3672 13.9479 11.2399 13.854 11.146C13.7601 11.0521 13.6328 10.9994 13.5 10.9994C13.3672 10.9994 13.2399 11.0521 13.146 11.146L12.5 11.793L11.854 11.146C11.8076 11.0994 11.7524 11.0625 11.6916 11.0373C11.6309 11.0121 11.5658 10.9991 11.5 10.9991C11.4342 10.9991 11.3691 11.0121 11.3084 11.0373C11.2476 11.0625 11.1924 11.0994 11.146 11.146Z" fill="currentColor"/>
</g>
<defs>
<clipPath id="clip0_1419_470">
<rect width="16" height="16" fill="white"/>
</clipPath>
</defs>
</svg>
