<svg width="16" height="16" viewBox="0 0 16 16" fill="none" xmlns="http://www.w3.org/2000/svg">
<g clip-path="url(#clip0_1419_467)">
<path d="M15.9639 0.685806C16.0003 0.594942 16.0092 0.495402 15.9895 0.399526C15.9699 0.303649 15.9225 0.215653 15.8533 0.146447C15.7841 0.0772403 15.6961 0.0298668 15.6002 0.0101994C15.5043 -0.0094681 15.4048 -0.000564594 15.3139 0.0358061L0.766942 5.85481C0.638832 5.90609 0.527352 5.99172 0.444773 6.10227C0.362194 6.21283 0.311718 6.34402 0.298898 6.48142C0.286079 6.61882 0.311414 6.75709 0.372115 6.88101C0.432816 7.00494 0.526529 7.10971 0.642942 7.18381L5.63794 10.3618L7.16894 12.7678C7.24125 12.877 7.3535 12.9534 7.48157 12.9807C7.60964 13.008 7.74331 12.984 7.85385 12.9138C7.96439 12.8436 8.04298 12.7328 8.07273 12.6053C8.10247 12.4778 8.08101 12.3437 8.01294 12.2318L6.63694 10.0698L14.1309 2.57581L12.2359 7.31381C12.2099 7.37504 12.1964 7.44085 12.1961 7.50738C12.1958 7.57392 12.2088 7.63984 12.2343 7.70128C12.2599 7.76273 12.2974 7.81846 12.3447 7.86521C12.3921 7.91196 12.4483 7.9488 12.51 7.97355C12.5718 7.99831 12.6379 8.01049 12.7044 8.00938C12.7709 8.00828 12.8366 7.9939 12.8975 7.9671C12.9584 7.9403 13.0133 7.90162 13.0591 7.85332C13.1048 7.80502 13.1405 7.74807 13.1639 7.68581L15.9639 0.685806V0.685806ZM13.4239 1.86881L5.92994 9.36281L1.59094 6.60181L13.4239 1.86881V1.86881Z" fill="#1B1B1B"/>
<path d="M16 12.5C16 13.4283 15.6313 14.3185 14.9749 14.9749C14.3185 15.6313 13.4283 16 12.5 16C11.5717 16 10.6815 15.6313 10.0251 14.9749C9.36875 14.3185 9 13.4283 9 12.5C9 11.5717 9.36875 10.6815 10.0251 10.0251C10.6815 9.36875 11.5717 9 12.5 9C13.4283 9 14.3185 9.36875 14.9749 10.0251C15.6313 10.6815 16 11.5717 16 12.5V12.5ZM12.5 10.5C12.3674 10.5 12.2402 10.5527 12.1464 10.6464C12.0527 10.7402 12 10.8674 12 11V12H11C10.8674 12 10.7402 12.0527 10.6464 12.1464C10.5527 12.2402 10.5 12.3674 10.5 12.5C10.5 12.6326 10.5527 12.7598 10.6464 12.8536C10.7402 12.9473 10.8674 13 11 13H12V14C12 14.1326 12.0527 14.2598 12.1464 14.3536C12.2402 14.4473 12.3674 14.5 12.5 14.5C12.6326 14.5 12.7598 14.4473 12.8536 14.3536C12.9473 14.2598 13 14.1326 13 14V13H14C14.1326 13 14.2598 12.9473 14.3536 12.8536C14.4473 12.7598 14.5 12.6326 14.5 12.5C14.5 12.3674 14.4473 12.2402 14.3536 12.1464C14.2598 12.0527 14.1326 12 14 12H13V11C13 10.8674 12.9473 10.7402 12.8536 10.6464C12.7598 10.5527 12.6326 10.5 12.5 10.5Z" fill="#1B1B1B"/>
</g>
<defs>
<clipPath id="clip0_1419_467">
<rect width="16" height="16" fill="white"/>
</clipPath>
</defs>
</svg>
