<svg width="16" height="16" viewBox="0 0 16 16" fill="none" xmlns="http://www.w3.org/2000/svg">
<g clip-path="url(#clip0_1419_469)">
<path d="M15.9639 0.685806C16.0003 0.594942 16.0092 0.495402 15.9895 0.399526C15.9699 0.303649 15.9225 0.215653 15.8533 0.146447C15.7841 0.0772403 15.6961 0.0298668 15.6002 0.0101994C15.5043 -0.0094681 15.4048 -0.000564594 15.3139 0.0358061L0.766942 5.85481C0.638832 5.90609 0.527352 5.99172 0.444773 6.10227C0.362194 6.21283 0.311718 6.34402 0.298898 6.48142C0.286079 6.61882 0.311414 6.75709 0.372115 6.88101C0.432816 7.00494 0.526529 7.10971 0.642942 7.18381L5.63794 10.3618L7.16894 12.7678C7.24125 12.877 7.3535 12.9534 7.48157 12.9807C7.60964 13.008 7.74331 12.984 7.85385 12.9138C7.96439 12.8436 8.04298 12.7328 8.07273 12.6053C8.10247 12.4778 8.08101 12.3437 8.01294 12.2318L6.63694 10.0698L14.1309 2.57581L12.2359 7.31381C12.2099 7.37504 12.1964 7.44085 12.1961 7.50738C12.1958 7.57392 12.2088 7.63984 12.2343 7.70128C12.2599 7.76273 12.2974 7.81846 12.3447 7.86521C12.3921 7.91196 12.4483 7.9488 12.51 7.97355C12.5718 7.99831 12.6379 8.01049 12.7044 8.00938C12.7709 8.00828 12.8366 7.9939 12.8975 7.9671C12.9584 7.9403 13.0133 7.90162 13.0591 7.85332C13.1048 7.80502 13.1405 7.74807 13.1639 7.68581L15.9639 0.685806V0.685806ZM13.4239 1.86881L5.92994 9.36281L1.59094 6.60181L13.4239 1.86881V1.86881Z" fill="#1B1B1B"/>
<path d="M14.9751 10.0252C14.65 9.70016 14.2642 9.44234 13.8395 9.26643C13.4149 9.09053 12.9597 9 12.5001 9C12.0404 9 11.5853 9.09053 11.1606 9.26643C10.7359 9.44234 10.3501 9.70016 10.0251 10.0252C9.70003 10.3502 9.44221 10.7361 9.26631 11.1607C9.09041 11.5854 8.99988 12.0405 8.99988 12.5002C8.99988 12.9598 9.09041 13.415 9.26631 13.8396C9.44221 14.2643 9.70003 14.6502 10.0251 14.9752C10.6815 15.6316 11.5718 16.0004 12.5001 16.0004C13.4284 16.0004 14.3186 15.6316 14.9751 14.9752C15.6315 14.3188 16.0002 13.4285 16.0002 12.5002C16.0002 11.5719 15.6315 10.6816 14.9751 10.0252V10.0252ZM10.7321 10.7322C11.1396 10.3247 11.6755 10.0705 12.2489 10.0125C12.8223 9.95457 13.3982 10.0965 13.8791 10.4142L10.4141 13.8792C10.0963 13.3983 9.95444 12.8225 10.0124 12.249C10.0703 11.6756 10.3246 11.1398 10.7321 10.7322V10.7322ZM11.1221 14.5862L14.5861 11.1212C14.9034 11.6021 15.045 12.1778 14.9869 12.751C14.9288 13.3243 14.6746 13.8598 14.2671 14.2673C13.8597 14.6747 13.3241 14.9289 12.7509 14.987C12.1777 15.0451 11.6019 14.9035 11.1211 14.5862H11.1221Z" fill="#1B1B1B"/>
</g>
<defs>
<clipPath id="clip0_1419_469">
<rect width="16" height="16" fill="white"/>
</clipPath>
</defs>
</svg>
