<svg width="16" height="16" viewBox="0 0 16 16" fill="none" xmlns="http://www.w3.org/2000/svg">
<g clip-path="url(#clip0_1419_463)">
<path d="M15.964 0.685806C16.0004 0.594942 16.0093 0.495402 15.9896 0.399526C15.97 0.303649 15.9226 0.215653 15.8534 0.146447C15.7842 0.0772403 15.6962 0.0298668 15.6003 0.0101994C15.5044 -0.0094681 15.4049 -0.000564594 15.314 0.0358061L0.767017 5.85481H0.766017L0.314017 6.03481C0.228408 6.06895 0.153903 6.1261 0.098733 6.19994C0.0435631 6.27377 0.00987534 6.36142 0.0013908 6.4532C-0.00709374 6.54497 0.00995519 6.63731 0.0506543 6.72001C0.0913535 6.8027 0.154119 6.87254 0.232017 6.92181L0.642017 7.18181L0.643017 7.18381L5.63802 10.3618L7.22802 12.8598C8.00002 13.9998 8.00002 12.9998 8.00002 12.4998C7.9999 11.8644 8.13435 11.2362 8.39451 10.6565C8.65468 10.0767 9.03467 9.5587 9.50947 9.13643C9.98426 8.71415 10.5431 8.39722 11.1492 8.20648C11.7553 8.01575 12.395 7.95553 13.026 8.02981L15.964 0.685806ZM14.131 2.57581L6.63702 10.0698L6.42202 9.73181C6.38262 9.66978 6.33004 9.6172 6.26802 9.57781L5.93002 9.36281L13.424 1.86881L14.602 1.39781L14.132 2.57581H14.131Z" fill="currentColor"/>
<path d="M12.5 16C13.4283 16 14.3185 15.6313 14.9749 14.9749C15.6313 14.3185 16 13.4283 16 12.5C16 11.5717 15.6313 10.6815 14.9749 10.0251C14.3185 9.36875 13.4283 9 12.5 9C11.5717 9 10.6815 9.36875 10.0251 10.0251C9.36875 10.6815 9 11.5717 9 12.5C9 13.4283 9.36875 14.3185 10.0251 14.9749C10.6815 15.6313 11.5717 16 12.5 16V16ZM13 11V12.5C13 12.6326 12.9473 12.7598 12.8536 12.8536C12.7598 12.9473 12.6326 13 12.5 13C12.3674 13 12.2402 12.9473 12.1464 12.8536C12.0527 12.7598 12 12.6326 12 12.5V11C12 10.8674 12.0527 10.7402 12.1464 10.6464C12.2402 10.5527 12.3674 10.5 12.5 10.5C12.6326 10.5 12.7598 10.5527 12.8536 10.6464C12.9473 10.7402 13 10.8674 13 11ZM13 14C13 14.1326 12.9473 14.2598 12.8536 14.3536C12.7598 14.4473 12.6326 14.5 12.5 14.5C12.3674 14.5 12.2402 14.4473 12.1464 14.3536C12.0527 14.2598 12 14.1326 12 14C12 13.8674 12.0527 13.7402 12.1464 13.6464C12.2402 13.5527 12.3674 13.5 12.5 13.5C12.6326 13.5 12.7598 13.5527 12.8536 13.6464C12.9473 13.7402 13 13.8674 13 14Z" fill="currentColor"/>
</g>
<defs>
<clipPath id="clip0_1419_463">
<rect width="16" height="16" fill="white"/>
</clipPath>
</defs>
</svg>
