<svg width="16" height="16" viewBox="0 0 16 16" fill="none" xmlns="http://www.w3.org/2000/svg">
<g clip-path="url(#clip0_1419_459)">
<path d="M15.964 0.685806C16.0004 0.594942 16.0093 0.495402 15.9896 0.399526C15.97 0.303649 15.9226 0.215653 15.8534 0.146447C15.7842 0.0772403 15.6962 0.0298668 15.6003 0.0101994C15.5044 -0.0094681 15.4049 -0.000564594 15.314 0.0358061L0.767017 5.85481H0.766017L0.314017 6.03481C0.228408 6.06895 0.153903 6.1261 0.098733 6.19994C0.0435631 6.27377 0.00987534 6.36142 0.0013908 6.4532C-0.00709374 6.54497 0.00995519 6.63731 0.0506543 6.72001C0.0913535 6.8027 0.154119 6.87254 0.232017 6.92181L0.642017 7.18181L0.643017 7.18381L5.63802 10.3618L7.22802 12.8598C8.00002 13.9998 8.00002 12.9998 8.00002 12.4998C7.9999 11.8644 8.13435 11.2362 8.39451 10.6565C8.65468 10.0767 9.03467 9.5587 9.50947 9.13643C9.98426 8.71415 10.5431 8.39722 11.1492 8.20648C11.7553 8.01575 12.395 7.95553 13.026 8.02981L15.964 0.685806ZM14.131 2.57581L6.63702 10.0698L6.42202 9.73181C6.38262 9.66978 6.33004 9.6172 6.26802 9.57781L5.93002 9.36281L13.424 1.86881L14.602 1.39781L14.132 2.57581H14.131Z" fill="#1B1B1B"/>
<path d="M16 12.5C16 13.4283 15.6313 14.3185 14.9749 14.9749C14.3185 15.6313 13.4283 16 12.5 16C11.5717 16 10.6815 15.6313 10.0251 14.9749C9.36875 14.3185 9 13.4283 9 12.5C9 11.5717 9.36875 10.6815 10.0251 10.0251C10.6815 9.36875 11.5717 9 12.5 9C13.4283 9 14.3185 9.36875 14.9749 10.0251C15.6313 10.6815 16 11.5717 16 12.5V12.5ZM14.007 10.821C13.9507 10.7872 13.8882 10.7649 13.8233 10.7553C13.7583 10.7457 13.6921 10.7489 13.6284 10.7649C13.5647 10.7809 13.5047 10.8092 13.452 10.8484C13.3993 10.8875 13.3547 10.9367 13.321 10.993L12.151 12.943L11.604 12.396C11.5101 12.3021 11.3828 12.2494 11.25 12.2494C11.1172 12.2494 10.9899 12.3021 10.896 12.396C10.8021 12.4899 10.7494 12.6172 10.7494 12.75C10.7494 12.8828 10.8021 13.0101 10.896 13.104L11.67 13.877C11.7506 13.9577 11.8485 14.019 11.9563 14.0562C12.0641 14.0934 12.179 14.1055 12.2922 14.0916C12.4053 14.0777 12.5139 14.0382 12.6095 13.9761C12.7051 13.9139 12.7853 13.8308 12.844 13.733L14.179 11.507C14.2128 11.4507 14.2351 11.3882 14.2447 11.3233C14.2543 11.2583 14.2511 11.1921 14.2351 11.1284C14.2191 11.0647 14.1908 11.0047 14.1516 10.952C14.1125 10.8993 14.0633 10.8547 14.007 10.821V10.821Z" fill="#1B1B1B"/>
</g>
<defs>
<clipPath id="clip0_1419_459">
<rect width="16" height="16" fill="white"/>
</clipPath>
</defs>
</svg>
