<svg width="16" height="16" viewBox="0 0 16 16" fill="none" xmlns="http://www.w3.org/2000/svg">
<g clip-path="url(#clip0_1419_1721)">
<path d="M13.5 1.00007C13.1022 1.00007 12.7206 1.15811 12.4393 1.43941C12.158 1.72071 12 2.10225 12 2.50007C12 2.89789 12.158 3.27943 12.4393 3.56073C12.7206 3.84203 13.1022 4.00007 13.5 4.00007C13.8978 4.00007 14.2794 3.84203 14.5607 3.56073C14.842 3.27943 15 2.89789 15 2.50007C15 2.10225 14.842 1.72071 14.5607 1.43941C14.2794 1.15811 13.8978 1.00007 13.5 1.00007ZM11 2.50007C10.9999 1.9135 11.2061 1.34559 11.5825 0.895681C11.9588 0.445776 12.4814 0.142533 13.0588 0.039007C13.6361 -0.0645194 14.2315 0.0382633 14.7407 0.329372C15.25 0.620481 15.6406 1.08138 15.8444 1.63143C16.0481 2.18148 16.0519 2.78565 15.8552 3.33824C15.6585 3.89084 15.2737 4.35666 14.7682 4.65421C14.2627 4.95177 13.6687 5.06211 13.0901 4.96592C12.5114 4.86974 11.9851 4.57316 11.603 4.12807L4.88501 7.24807C5.03945 7.73751 5.03945 8.26263 4.88501 8.75207L11.603 11.8721C12.0068 11.4024 12.5707 11.0994 13.1852 11.0217C13.7997 10.9441 14.4212 11.0973 14.9292 11.4518C15.4372 11.8062 15.7955 12.3366 15.9347 12.9402C16.0739 13.5438 15.984 14.1775 15.6826 14.7186C15.3812 15.2598 14.8896 15.6697 14.3031 15.869C13.7166 16.0683 13.077 16.0429 12.5083 15.7975C11.9395 15.5521 11.4821 15.1043 11.2247 14.5409C10.9673 13.9775 10.9282 13.3386 11.115 12.7481L4.39701 9.62807C4.06444 10.0156 3.62116 10.2921 3.12678 10.4202C2.63241 10.5482 2.11067 10.5219 1.63174 10.3445C1.15282 10.1672 0.739682 9.8475 0.447913 9.42836C0.156145 9.00921 -0.000259399 8.51077 -0.000259399 8.00007C-0.000259399 7.48937 0.156145 6.99093 0.447913 6.57178C0.739682 6.15264 1.15282 5.8329 1.63174 5.65559C2.11067 5.47828 2.63241 5.45189 3.12678 5.57998C3.62116 5.70808 4.06444 5.9845 4.39701 6.37207L11.115 3.25207C11.0385 3.00874 10.9998 2.75514 11 2.50007V2.50007ZM2.50001 6.50007C2.10218 6.50007 1.72065 6.65811 1.43935 6.93941C1.15804 7.22071 1.00001 7.60224 1.00001 8.00007C1.00001 8.39789 1.15804 8.77943 1.43935 9.06073C1.72065 9.34203 2.10218 9.50007 2.50001 9.50007C2.89783 9.50007 3.27936 9.34203 3.56067 9.06073C3.84197 8.77943 4.00001 8.39789 4.00001 8.00007C4.00001 7.60224 3.84197 7.22071 3.56067 6.93941C3.27936 6.65811 2.89783 6.50007 2.50001 6.50007ZM13.5 12.0001C13.1022 12.0001 12.7206 12.1581 12.4393 12.4394C12.158 12.7207 12 13.1022 12 13.5001C12 13.8979 12.158 14.2794 12.4393 14.5607C12.7206 14.842 13.1022 15.0001 13.5 15.0001C13.8978 15.0001 14.2794 14.842 14.5607 14.5607C14.842 14.2794 15 13.8979 15 13.5001C15 13.1022 14.842 12.7207 14.5607 12.4394C14.2794 12.1581 13.8978 12.0001 13.5 12.0001Z" fill="#1B1B1B"/>
</g>
<defs>
<clipPath id="clip0_1419_1721">
<rect width="16" height="16" fill="white"/>
</clipPath>
</defs>
</svg>
