<svg width="16" height="16" viewBox="0 0 16 16" fill="none" xmlns="http://www.w3.org/2000/svg">
<g clip-path="url(#clip0_1419_1720)">
<path d="M11 2.50007C10.9999 1.9135 11.2061 1.34559 11.5825 0.895681C11.9588 0.445776 12.4814 0.142533 13.0588 0.039007C13.6361 -0.0645194 14.2315 0.0382633 14.7407 0.329372C15.25 0.620481 15.6406 1.08138 15.8444 1.63143C16.0481 2.18148 16.0519 2.78565 15.8552 3.33824C15.6585 3.89084 15.2737 4.35666 14.7682 4.65421C14.2627 4.95177 13.6687 5.06211 13.0901 4.96592C12.5114 4.86974 11.9851 4.57316 11.603 4.12807L4.88501 7.24807C5.03945 7.73751 5.03945 8.26263 4.88501 8.75207L11.603 11.8721C12.0068 11.4024 12.5707 11.0994 13.1852 11.0217C13.7997 10.9441 14.4212 11.0973 14.9292 11.4518C15.4372 11.8062 15.7955 12.3366 15.9347 12.9402C16.0739 13.5438 15.984 14.1775 15.6826 14.7186C15.3812 15.2598 14.8896 15.6697 14.3031 15.869C13.7166 16.0683 13.077 16.0429 12.5083 15.7975C11.9395 15.5521 11.4821 15.1043 11.2247 14.5409C10.9673 13.9775 10.9282 13.3386 11.115 12.7481L4.39701 9.62807C4.06444 10.0156 3.62116 10.2921 3.12678 10.4202C2.63241 10.5482 2.11067 10.5219 1.63174 10.3445C1.15282 10.1672 0.739682 9.8475 0.447913 9.42836C0.156145 9.00921 -0.000259399 8.51077 -0.000259399 8.00007C-0.000259399 7.48937 0.156145 6.99093 0.447913 6.57178C0.739682 6.15264 1.15282 5.8329 1.63174 5.65559C2.11067 5.47828 2.63241 5.45189 3.12678 5.57998C3.62116 5.70808 4.06444 5.9845 4.39701 6.37207L11.115 3.25207C11.0385 3.00874 10.9998 2.75514 11 2.50007V2.50007Z" fill="currentColor"/>
</g>
<defs>
<clipPath id="clip0_1419_1720">
<rect width="16" height="16" fill="white"/>
</clipPath>
</defs>
</svg>
