<svg width="16" height="16" viewBox="0 0 16 16" fill="none" xmlns="http://www.w3.org/2000/svg">
<path d="M5.072 0.56C6.157 0.265 7.31 0 8 0C8.69 0 9.843 0.265 10.928 0.56C12.038 0.86 13.157 1.215 13.815 1.43C14.0901 1.52085 14.334 1.68747 14.5187 1.9107C14.7034 2.13394 14.8213 2.40474 14.859 2.692C15.455 7.169 14.072 10.487 12.394 12.682C11.6824 13.621 10.834 14.4479 9.877 15.135C9.54609 15.3728 9.19548 15.5819 8.829 15.76C8.549 15.892 8.248 16 8 16C7.752 16 7.452 15.892 7.171 15.76C6.80451 15.5819 6.4539 15.3728 6.123 15.135C5.16603 14.4478 4.31758 13.621 3.606 12.682C1.928 10.487 0.544998 7.169 1.141 2.692C1.17869 2.40474 1.29664 2.13394 1.48131 1.9107C1.66599 1.68747 1.90989 1.52085 2.185 1.43C3.14019 1.11681 4.1028 0.826725 5.072 0.56V0.56Z" fill="#1B1B1B"/>
</svg>
