<svg width="16" height="16" viewBox="0 0 16 16" fill="none" xmlns="http://www.w3.org/2000/svg">
<path d="M8 0C7.31 0 6.157 0.265 5.072 0.56C3.962 0.86 2.843 1.215 2.185 1.43C1.90989 1.52085 1.66599 1.68747 1.48131 1.9107C1.29664 2.13394 1.17869 2.40474 1.141 2.692C0.544998 7.169 1.928 10.487 3.606 12.682C4.31758 13.621 5.16603 14.4478 6.123 15.135C6.509 15.408 6.867 15.617 7.171 15.76C7.451 15.892 7.752 16 8 16C8.248 16 8.548 15.892 8.829 15.76C9.19548 15.5819 9.54609 15.3728 9.877 15.135C10.834 14.4479 11.6824 13.621 12.394 12.682C14.072 10.487 15.455 7.169 14.859 2.692C14.8214 2.4046 14.7035 2.13364 14.5188 1.91023C14.3341 1.68683 14.0902 1.52003 13.815 1.429C12.8598 1.11581 11.8972 0.825729 10.928 0.559C9.843 0.266 8.69 0 8 0ZM6.854 5.146L8 6.293L9.146 5.146C9.23988 5.05211 9.36722 4.99937 9.5 4.99937C9.63277 4.99937 9.76011 5.05211 9.854 5.146C9.94788 5.23989 10.0006 5.36722 10.0006 5.5C10.0006 5.63278 9.94788 5.76011 9.854 5.854L8.707 7L9.854 8.146C9.94788 8.23989 10.0006 8.36722 10.0006 8.5C10.0006 8.63278 9.94788 8.76011 9.854 8.854C9.76011 8.94789 9.63277 9.00063 9.5 9.00063C9.36722 9.00063 9.23988 8.94789 9.146 8.854L8 7.707L6.854 8.854C6.80751 8.90049 6.75232 8.93736 6.69158 8.96252C6.63084 8.98768 6.56574 9.00063 6.5 9.00063C6.43425 9.00063 6.36915 8.98768 6.30841 8.96252C6.24767 8.93736 6.19249 8.90049 6.146 8.854C6.09951 8.80751 6.06263 8.75232 6.03747 8.69158C6.01232 8.63084 5.99937 8.56574 5.99937 8.5C5.99937 8.43426 6.01232 8.36916 6.03747 8.30842C6.06263 8.24768 6.09951 8.19249 6.146 8.146L7.293 7L6.146 5.854C6.09951 5.80751 6.06263 5.75232 6.03747 5.69158C6.01232 5.63084 5.99937 5.56574 5.99937 5.5C5.99937 5.43426 6.01232 5.36916 6.03747 5.30842C6.06263 5.24768 6.09951 5.19249 6.146 5.146C6.19249 5.09951 6.24767 5.06264 6.30841 5.03748C6.36915 5.01232 6.43425 4.99937 6.5 4.99937C6.56574 4.99937 6.63084 5.01232 6.69158 5.03748C6.75232 5.06264 6.80751 5.09951 6.854 5.146V5.146Z" fill="currentColor"/>
</svg>
