<svg width="16" height="16" viewBox="0 0 16 16" fill="none" xmlns="http://www.w3.org/2000/svg">
<path d="M5.33801 1.59C4.38559 1.85248 3.43965 2.1379 2.50101 2.446C2.41529 2.47376 2.3391 2.52504 2.28111 2.59399C2.22312 2.66295 2.18567 2.7468 2.17301 2.836C1.61901 6.993 2.89901 10.026 4.42601 12.024C5.07252 12.8784 5.84341 13.6311 6.71301 14.257C7.05901 14.501 7.36501 14.677 7.60601 14.79C7.72601 14.847 7.82401 14.885 7.89901 14.908C7.93181 14.9195 7.96562 14.9279 8.00001 14.933C8.03398 14.9275 8.06743 14.9191 8.10001 14.908C8.17601 14.885 8.27401 14.847 8.39401 14.79C8.63401 14.677 8.94101 14.5 9.28701 14.257C10.1566 13.6311 10.9275 12.8784 11.574 12.024C13.101 10.027 14.381 6.993 13.827 2.836C13.8145 2.74676 13.777 2.66285 13.719 2.59388C13.661 2.52491 13.5848 2.47366 13.499 2.446C12.848 2.233 11.749 1.886 10.662 1.591C9.55201 1.29 8.53101 1.067 8.00001 1.067C7.47001 1.067 6.44801 1.29 5.33801 1.591V1.59ZM5.07201 0.56C6.15701 0.265 7.31001 0 8.00001 0C8.69001 0 9.84301 0.265 10.928 0.56C12.038 0.86 13.157 1.215 13.815 1.43C14.0901 1.52085 14.334 1.68747 14.5187 1.9107C14.7034 2.13394 14.8213 2.40474 14.859 2.692C15.455 7.169 14.072 10.487 12.394 12.682C11.6824 13.621 10.834 14.4479 9.87701 15.135C9.5461 15.3728 9.19549 15.5819 8.82901 15.76C8.54901 15.892 8.24801 16 8.00001 16C7.75201 16 7.45201 15.892 7.17101 15.76C6.80452 15.5819 6.45391 15.3728 6.12301 15.135C5.16603 14.4478 4.31759 13.621 3.60601 12.682C1.92801 10.487 0.545005 7.169 1.14101 2.692C1.17869 2.40474 1.29665 2.13394 1.48132 1.9107C1.666 1.68747 1.9099 1.52085 2.18501 1.43C3.1402 1.11681 4.10281 0.826725 5.07201 0.56V0.56Z" fill="#1B1B1B"/>
<path d="M7.00101 11.0001C7.00101 10.7349 7.10636 10.4805 7.2939 10.293C7.48144 10.1055 7.73579 10.0001 8.00101 10.0001C8.26622 10.0001 8.52058 10.1055 8.70811 10.293C8.89565 10.4805 9.00101 10.7349 9.00101 11.0001C9.00101 11.2653 8.89565 11.5197 8.70811 11.7072C8.52058 11.8948 8.26622 12.0001 8.00101 12.0001C7.73579 12.0001 7.48144 11.8948 7.2939 11.7072C7.10636 11.5197 7.00101 11.2653 7.00101 11.0001V11.0001ZM7.10001 4.99512C7.08669 4.86896 7.10005 4.74141 7.13921 4.62075C7.17837 4.50008 7.24246 4.389 7.32733 4.2947C7.41219 4.20041 7.51593 4.12501 7.63182 4.0734C7.7477 4.02179 7.87315 3.99512 8.00001 3.99512C8.12687 3.99512 8.25231 4.02179 8.3682 4.0734C8.48408 4.12501 8.58782 4.20041 8.67269 4.2947C8.75755 4.389 8.82165 4.50008 8.86081 4.62075C8.89997 4.74141 8.91332 4.86896 8.90001 4.99512L8.55001 8.50212C8.53579 8.63808 8.47171 8.76396 8.37014 8.85546C8.26857 8.94696 8.13671 8.99759 8.00001 8.99759C7.8633 8.99759 7.73144 8.94696 7.62987 8.85546C7.5283 8.76396 7.46423 8.63808 7.45001 8.50212L7.10001 4.99512Z" fill="#1B1B1B"/>
</svg>
