<svg width="16" height="16" viewBox="0 0 16 16" fill="none" xmlns="http://www.w3.org/2000/svg">
<path d="M7.27 2.04702C7.36354 1.94711 7.47659 1.86746 7.60216 1.81301C7.72772 1.75856 7.86313 1.73047 8 1.73047C8.13686 1.73047 8.27227 1.75856 8.39784 1.81301C8.5234 1.86746 8.63646 1.94711 8.73 2.04702L15.075 8.81702C15.675 9.45502 15.221 10.5 14.345 10.5H11.5V13.5C11.5 13.7652 11.3946 14.0196 11.2071 14.2071C11.0196 14.3947 10.7652 14.5 10.5 14.5H5.5C5.23478 14.5 4.98043 14.3947 4.79289 14.2071C4.60535 14.0196 4.5 13.7652 4.5 13.5V10.5H1.654C0.779996 10.5 0.325996 9.45502 0.923996 8.81602L7.27 2.04702ZM14.346 9.50002L8 2.73102L1.654 9.50002H4.5C4.76521 9.50002 5.01957 9.60538 5.2071 9.79292C5.39464 9.98045 5.5 10.2348 5.5 10.5V13.5H10.5V10.5C10.5 10.2348 10.6054 9.98045 10.7929 9.79292C10.9804 9.60538 11.2348 9.50002 11.5 9.50002H14.346Z" fill="#1B1B1B"/>
</svg>
