<svg width="16" height="16" viewBox="0 0 16 16" fill="none" xmlns="http://www.w3.org/2000/svg">
<g clip-path="url(#clip0_1419_624)">
<path d="M16 8C16 10.1217 15.1571 12.1566 13.6569 13.6569C12.1566 15.1571 10.1217 16 8 16C5.87827 16 3.84344 15.1571 2.34315 13.6569C0.842855 12.1566 0 10.1217 0 8C0 5.87827 0.842855 3.84344 2.34315 2.34315C3.84344 0.842855 5.87827 0 8 0C10.1217 0 12.1566 0.842855 13.6569 2.34315C15.1571 3.84344 16 5.87827 16 8V8ZM12.584 13.29L6.596 7.304C6.41087 7.44362 6.26068 7.62432 6.15725 7.83186C6.05383 8.0394 6 8.26812 6 8.5V11H5V8.5C5 7.735 5.344 7.05 5.885 6.592L2.709 3.416C1.55067 4.75382 0.942016 6.48072 1.00552 8.24918C1.06902 10.0176 1.79996 11.6964 3.05126 12.9477C4.30256 14.199 5.98135 14.93 7.74982 14.9935C9.51828 15.057 11.2452 14.4483 12.583 13.29H12.584ZM13.291 12.584C14.4493 11.2462 15.058 9.51928 14.9945 7.75082C14.931 5.98235 14.2 4.30356 12.9487 3.05226C11.6974 1.80096 10.0186 1.07002 8.25018 1.00652C6.48172 0.943016 4.75482 1.55167 3.417 2.71L6.805 6.098C7.025 6.034 7.259 6 7.5 6H9V4.534C9.00002 4.4865 9.01357 4.43998 9.03907 4.3999C9.06457 4.35982 9.10096 4.32784 9.14398 4.30769C9.187 4.28754 9.23487 4.28007 9.28198 4.28615C9.32909 4.29222 9.3735 4.3116 9.41 4.342L11.77 6.308C11.89 6.408 11.89 6.592 11.77 6.692L9.41 8.658C9.40175 8.6652 9.39307 8.67188 9.384 8.678L13.291 12.584ZM7.707 7L9 8.293V7H7.707Z" fill="#1B1B1B"/>
</g>
<defs>
<clipPath id="clip0_1419_624">
<rect width="16" height="16" fill="white"/>
</clipPath>
</defs>
</svg>
