<svg width="16" height="16" viewBox="0 0 16 16" fill="none" xmlns="http://www.w3.org/2000/svg">
<g clip-path="url(#clip0_1419_621)">
<path d="M13.292 13.9999C11.7661 15.3494 9.78293 16.0659 7.74692 16.0035C5.7109 15.941 3.77538 15.1043 2.33509 13.6638C0.894791 12.2234 0.0582026 10.2878 -0.00406967 8.2518C-0.066342 6.21578 0.650392 4.23268 1.99997 2.70693L5.49997 6.20693V11.9999H6.78297V9.16393H8.45697L13.292 13.9999ZM14 13.2919L9.62997 8.92193C10.5 8.52393 11 7.66193 11 6.58693C11 5.10493 10.045 4.00293 8.46197 4.00293H5.49997V4.79293L2.70797 2.00193C4.23416 0.655838 6.21598 -0.0580353 8.24999 0.00562856C10.284 0.0692924 12.2173 0.905708 13.6563 2.34461C15.0953 3.78351 15.9319 5.71673 15.9958 7.75073C16.0596 9.78473 15.3459 11.7666 14 13.2929V13.2919Z" fill="currentColor"/>
<path d="M6.77698 7.485V8.075H7.36698L6.77698 7.485V7.485ZM8.72598 8.02L6.77698 6.07V5.104H8.26998C9.16298 5.104 9.68898 5.643 9.68898 6.586C9.68898 7.355 9.33898 7.859 8.72598 8.019V8.02Z" fill="currentColor"/>
</g>
<defs>
<clipPath id="clip0_1419_621">
<rect width="16" height="16" fill="white"/>
</clipPath>
</defs>
</svg>
