<svg width="16" height="16" viewBox="0 0 16 16" fill="none" xmlns="http://www.w3.org/2000/svg">
<g clip-path="url(#clip0_1419_635)">
<path fill-rule="evenodd" clip-rule="evenodd" d="M9.04998 0.435C8.46998 -0.145 7.52998 -0.145 6.94998 0.435L0.435977 6.95C-0.144023 7.53 -0.144023 8.469 0.435977 9.048L6.95198 15.564C7.53198 16.144 8.47098 16.144 9.04998 15.564L15.566 9.048C16.146 8.468 16.146 7.529 15.566 6.95L9.04998 0.435ZM6.86398 8.368L7.66398 6.982L8.27098 7.346C8.49319 7.47916 8.67714 7.66759 8.80489 7.89296C8.93265 8.11833 8.99986 8.37294 8.99998 8.632V11H9.99998V8.632C9.99965 8.20056 9.88768 7.77654 9.67494 7.40119C9.46221 7.02584 9.15596 6.71193 8.78598 6.49L8.16598 6.117L8.83098 4.963C8.85463 4.92186 8.86608 4.87485 8.864 4.82744C8.86192 4.78004 8.84639 4.7342 8.81923 4.6953C8.79207 4.65639 8.75439 4.62602 8.71061 4.60772C8.66683 4.58943 8.61874 4.58398 8.57198 4.592L5.54598 5.115C5.50983 5.12124 5.47549 5.13535 5.44541 5.15635C5.41532 5.17735 5.39023 5.2047 5.3719 5.23649C5.35358 5.26827 5.34248 5.30369 5.33938 5.34025C5.33628 5.3768 5.34126 5.41359 5.35398 5.448L6.41398 8.33C6.43036 8.37458 6.45911 8.41356 6.49685 8.4424C6.53459 8.47123 6.57977 8.48872 6.62708 8.49281C6.6744 8.4969 6.72191 8.48743 6.76404 8.4655C6.80617 8.44358 6.84118 8.4101 6.86498 8.369L6.86398 8.368Z" fill="#1B1B1B"/>
</g>
<defs>
<clipPath id="clip0_1419_635">
<rect width="16" height="16" fill="white"/>
</clipPath>
</defs>
</svg>
