<svg width="16" height="16" viewBox="0 0 16 16" fill="none" xmlns="http://www.w3.org/2000/svg">
<g clip-path="url(#clip0_1419_627)">
<path d="M10.371 8.27699V7.72399C10.371 6.89699 9.94904 6.48999 9.38404 6.48999C8.81204 6.48999 8.39404 6.89699 8.39404 7.72399V8.27699C8.39404 9.10699 8.81204 9.51399 9.38404 9.51399C9.94904 9.51399 10.371 9.10599 10.371 8.27699ZM12.957 8.03699C13.42 8.03699 13.692 7.76499 13.692 7.29299C13.692 6.82099 13.42 6.55199 12.957 6.55199H12.183V8.03699H12.957Z" fill="currentColor"/>
<path fill-rule="evenodd" clip-rule="evenodd" d="M4.893 0C4.76065 2.8119e-05 4.63371 0.052531 4.54 0.146L0.146 4.54C0.052531 4.63371 2.8119e-05 4.76065 0 4.893L0 11.107C2.8119e-05 11.2394 0.052531 11.3663 0.146 11.46L4.54 15.854C4.63371 15.9475 4.76065 16 4.893 16H11.107C11.2394 16 11.3663 15.9475 11.46 15.854L15.854 11.46C15.9475 11.3663 16 11.2394 16 11.107V4.893C16 4.76065 15.9475 4.63371 15.854 4.54L11.46 0.146C11.3663 0.052531 11.2394 2.8119e-05 11.107 0L4.893 0ZM3.16 10.08C2.229 10.08 1.713 9.587 1.666 8.948H2.319C2.384 9.294 2.715 9.531 3.21 9.531C3.734 9.531 4.04 9.285 4.04 8.911C4.04 8.608 3.837 8.444 3.403 8.339L2.747 8.175C2.137 8.028 1.769 7.665 1.769 7.097C1.769 6.391 2.366 5.913 3.213 5.913C4.066 5.913 4.599 6.388 4.649 7H4.004C3.94 6.68 3.652 6.458 3.207 6.458C2.735 6.458 2.437 6.704 2.437 7.058C2.437 7.319 2.633 7.495 2.99 7.58L3.644 7.741C4.317 7.905 4.704 8.228 4.704 8.851C4.704 9.587 4.13 10.079 3.16 10.079V10.08ZM6.587 6.57V10H5.922V6.57H4.753V6H7.759V6.568H6.587V6.57ZM11.045 7.73V8.274C11.045 9.405 10.409 10.079 9.384 10.079C8.358 10.079 7.72 9.405 7.72 8.274V7.73C7.72 6.594 8.358 5.923 9.384 5.923C10.409 5.923 11.044 6.597 11.044 7.73H11.045ZM11.52 6H13.055C13.875 6 14.371 6.55 14.371 7.292C14.371 8.039 13.87 8.581 13.05 8.581H12.185V10H11.52V6.001V6Z" fill="currentColor"/>
</g>
<defs>
<clipPath id="clip0_1419_627">
<rect width="16" height="16" fill="white"/>
</clipPath>
</defs>
</svg>
