<svg width="16" height="16" viewBox="0 0 16 16" fill="none" xmlns="http://www.w3.org/2000/svg">
<g clip-path="url(#clip0_1419_639)">
<path d="M10.48 5.32302H10.2V6.67602H10.48C10.852 6.67602 11.02 6.45402 11.02 6.00202C11.02 5.55202 10.851 5.32202 10.48 5.32202V5.32302Z" fill="currentColor"/>
<path fill-rule="evenodd" clip-rule="evenodd" d="M7.02197 14.434C7.12116 14.6062 7.26397 14.7492 7.43601 14.8486C7.60806 14.9481 7.80326 15.0004 8.00197 15.0004C8.20068 15.0004 8.39588 14.9481 8.56792 14.8486C8.73997 14.7492 8.88277 14.6062 8.98197 14.434L15.839 2.767C16.296 1.989 15.747 1 14.859 1H1.14397C0.254969 1 -0.293031 1.99 0.163969 2.767L7.02097 14.434H7.02197ZM5.50597 6.232V7H5.10997V6.24L4.43997 5H4.87997L5.30397 5.849H5.31997L5.74797 5H6.17597L5.50597 6.232ZM6.62797 5V7H6.23197V5H6.62797ZM7.31197 6.676H8.20697V7H6.91897V5H8.20697V5.324H7.31197V5.837H8.15397V6.14H7.31197V6.676ZM8.83297 6.663H9.68097V7H8.43697V5H8.83297V6.663ZM9.80297 7V5H10.533C11.141 5 11.428 5.364 11.428 5.995C11.428 6.631 11.137 7 10.533 7H9.80297Z" fill="currentColor"/>
</g>
<defs>
<clipPath id="clip0_1419_639">
<rect width="16" height="16" fill="white"/>
</clipPath>
</defs>
</svg>
