<svg width="16" height="16" viewBox="0 0 16 16" fill="none" xmlns="http://www.w3.org/2000/svg">
<g clip-path="url(#clip0_1419_611)">
<path d="M5 5V6.5H7.25V12H8.75V6.5H11V5H5Z" fill="#1B1B1B"/>
<path d="M9.04998 0.435C8.46998 -0.145 7.52998 -0.145 6.94998 0.435L0.435977 6.95C-0.144023 7.53 -0.144023 8.469 0.435977 9.048L6.95198 15.564C7.53198 16.144 8.47098 16.144 9.04998 15.564L15.566 9.048C16.146 8.468 16.146 7.529 15.566 6.95L9.04998 0.435ZM7.64998 1.135C7.74281 1.04218 7.8687 0.990036 7.99998 0.990036C8.13125 0.990036 8.25715 1.04218 8.34998 1.135L14.866 7.65C14.9588 7.74283 15.0109 7.86873 15.0109 8C15.0109 8.13127 14.9588 8.25717 14.866 8.35L8.34998 14.866C8.25715 14.9588 8.13125 15.011 7.99998 15.011C7.8687 15.011 7.74281 14.9588 7.64998 14.866L1.13398 8.35C1.04116 8.25717 0.989012 8.13127 0.989012 8C0.989012 7.86873 1.04116 7.74283 1.13398 7.65L7.64998 1.134V1.135Z" fill="#1B1B1B"/>
</g>
<defs>
<clipPath id="clip0_1419_611">
<rect width="16" height="16" fill="white"/>
</clipPath>
</defs>
</svg>
