<svg width="16" height="16" viewBox="0 0 16 16" fill="none" xmlns="http://www.w3.org/2000/svg">
<g clip-path="url(#clip0_1419_619)">
<path d="M1.99999 13.292C0.650547 11.7661 -0.0660123 9.78293 -0.00355968 7.74692C0.0588929 5.7109 0.895653 3.77538 2.33608 2.33509C3.7765 0.894791 5.71209 0.0582026 7.74811 -0.00406967C9.78413 -0.066342 11.7672 0.650392 13.293 1.99997L9.19499 6.09897C8.96913 6.03346 8.73515 6.00013 8.49999 5.99997H6.99999V4.53397C6.99997 4.48646 6.98642 4.43995 6.96092 4.39987C6.93542 4.35979 6.89903 4.3278 6.85601 4.30766C6.81299 4.28751 6.76512 4.28004 6.71801 4.28611C6.67089 4.29219 6.62649 4.31156 6.58999 4.34197L4.22999 6.30797C4.20185 6.33143 4.17922 6.36079 4.16368 6.39397C4.14815 6.42715 4.1401 6.46333 4.1401 6.49997C4.1401 6.5366 4.14815 6.57279 4.16368 6.60597C4.17922 6.63915 4.20185 6.6685 4.22999 6.69197L6.58999 8.65797C6.59823 8.66516 6.60691 8.67184 6.61599 8.67797L1.99999 13.291V13.292ZM2.70799 14C4.23386 15.3494 6.21702 16.066 8.25304 16.0035C10.2891 15.9411 12.2246 15.1043 13.6649 13.6639C15.1052 12.2235 15.9417 10.2879 16.004 8.25184C16.0663 6.21582 15.3496 4.23272 14 2.70697L10.115 6.59097C10.656 7.04997 11 7.73497 11 8.49997V11H9.99999V8.49997C9.99999 8.01097 9.76599 7.57697 9.40399 7.30297L2.70799 13.999V14Z" fill="#1B1B1B"/>
<path d="M8.293 7L7 8.293V7H8.293Z" fill="#1B1B1B"/>
</g>
<defs>
<clipPath id="clip0_1419_619">
<rect width="16" height="16" fill="white"/>
</clipPath>
</defs>
</svg>
