<svg width="16" height="16" viewBox="0 0 16 16" fill="none" xmlns="http://www.w3.org/2000/svg">
<g clip-path="url(#clip0_1419_605)">
<path d="M4.23699 4.28012H3.91699V5.72012H4.23699C4.63299 5.72012 4.81899 5.48112 4.81899 5.00212C4.81899 4.52112 4.63099 4.28012 4.23699 4.28012V4.28012ZM6.62899 5.13912V4.86212C6.62899 4.44912 6.41799 4.24512 6.13499 4.24512C5.84999 4.24512 5.63999 4.44912 5.63999 4.86212V5.13912C5.63999 5.55312 5.84999 5.75712 6.13499 5.75712C6.41799 5.75712 6.62899 5.55312 6.62899 5.13912ZM10.792 5.13912V4.86212C10.792 4.44912 10.581 4.24512 10.298 4.24512C10.013 4.24512 9.80299 4.44912 9.80299 4.86212V5.13912C9.80299 5.55312 10.013 5.75712 10.298 5.75712C10.581 5.75712 10.792 5.55312 10.792 5.13912ZM10.798 10.9671V10.2731H11.188C11.419 10.2731 11.566 10.3991 11.566 10.6271C11.566 10.8521 11.424 10.9671 11.179 10.9671H10.799H10.798Z" fill="currentColor"/>
<path d="M8 16C10.1217 16 12.1566 15.1571 13.6569 13.6569C15.1571 12.1566 16 10.1217 16 8C16 5.87827 15.1571 3.84344 13.6569 2.34315C12.1566 0.842855 10.1217 0 8 0C5.87827 0 3.84344 0.842855 2.34315 2.34315C0.842855 3.84344 0 5.87827 0 8C0 10.1217 0.842855 12.1566 2.34315 13.6569C3.84344 15.1571 5.87827 16 8 16V16ZM3.584 6V4H4.274C4.87 4 5.16 4.355 5.16 4.998C5.16 5.641 4.867 6 4.274 6H3.584ZM6.966 4.865V5.137C6.966 5.703 6.648 6.04 6.136 6.04C5.623 6.04 5.303 5.703 5.303 5.137V4.865C5.303 4.296 5.623 3.961 6.135 3.961C6.648 3.961 6.965 4.298 6.965 4.865H6.966ZM7.987 4.56V6H7.668V4H7.961L8.894 5.436H8.909V4H9.228V6H8.937L8 4.56H7.987V4.56ZM11.129 4.865V5.137C11.129 5.703 10.811 6.04 10.299 6.04C9.786 6.04 9.466 5.703 9.466 5.137V4.865C9.466 4.296 9.786 3.961 10.298 3.961C10.811 3.961 11.128 4.298 11.128 4.865H11.129ZM12.028 4.285V6H11.695V4.285H11.111V4H12.614V4.285H12.028ZM5.413 11.72V12H4.165V10H5.413V10.28H4.496V10.85H5.358V11.118H4.496V11.72H5.413ZM5.985 12H5.665V10H5.959L6.892 11.436H6.906V10.001H7.226V12H6.934L5.998 10.56H5.985V12ZM8.264 12H7.93V10.285H7.346V10H8.85V10.284H8.264V12ZM10.217 11.72V12H8.97V10H10.218V10.28H9.3V10.85H10.163V11.118H9.3V11.72H10.217V11.72ZM11.235 10C11.655 10 11.909 10.244 11.909 10.616C11.9139 10.7361 11.881 10.8547 11.815 10.9551C11.749 11.0556 11.6532 11.1328 11.541 11.176L11.945 12H11.572L11.212 11.231H10.798V12H10.47V10H11.235V10ZM3.5 7H12.5C12.6326 7 12.7598 7.05268 12.8536 7.14645C12.9473 7.24021 13 7.36739 13 7.5V8.5C13 8.63261 12.9473 8.75979 12.8536 8.85355C12.7598 8.94732 12.6326 9 12.5 9H3.5C3.36739 9 3.24021 8.94732 3.14645 8.85355C3.05268 8.75979 3 8.63261 3 8.5V7.5C3 7.36739 3.05268 7.24021 3.14645 7.14645C3.24021 7.05268 3.36739 7 3.5 7Z" fill="currentColor"/>
</g>
<defs>
<clipPath id="clip0_1419_605">
<rect width="16" height="16" fill="white"/>
</clipPath>
</defs>
</svg>
