<svg width="16" height="16" viewBox="0 0 16 16" fill="none" xmlns="http://www.w3.org/2000/svg">
<g clip-path="url(#clip0_1419_634)">
<path d="M5 8.50009C5 7.83704 5.26339 7.20116 5.73223 6.73232C6.20107 6.26348 6.83696 6.00009 7.5 6.00009H9V4.53409C9.00002 4.48658 9.01357 4.44007 9.03907 4.39999C9.06457 4.35991 9.10096 4.32792 9.14398 4.30778C9.187 4.28763 9.23487 4.28016 9.28198 4.28623C9.32909 4.29231 9.3735 4.31168 9.41 4.34209L11.77 6.30809C11.89 6.40809 11.89 6.59209 11.77 6.69209L9.41 8.65809C9.3735 8.68849 9.32909 8.70786 9.28198 8.71394C9.23487 8.72002 9.187 8.71254 9.14398 8.6924C9.10096 8.67225 9.06457 8.64026 9.03907 8.60018C9.01357 8.5601 9.00002 8.51359 9 8.46609V7.00009H7.5C7.10218 7.00009 6.72064 7.15812 6.43934 7.43943C6.15804 7.72073 6 8.10226 6 8.50009V11.0001H5V8.50009Z" fill="#1B1B1B"/>
<path fill-rule="evenodd" clip-rule="evenodd" d="M6.95001 0.435C7.53001 -0.145 8.47001 -0.145 9.05001 0.435L15.565 6.951C16.145 7.531 16.145 8.47 15.565 9.049L9.05001 15.565C8.47001 16.145 7.53101 16.145 6.95201 15.565L0.435015 9.05C0.297078 8.91234 0.187644 8.74884 0.112978 8.56883C0.0383112 8.38883 -0.00012207 8.19587 -0.00012207 8.001C-0.00012207 7.80613 0.0383112 7.61317 0.112978 7.43317C0.187644 7.25316 0.297078 7.08966 0.435015 6.952L6.95001 0.435ZM8.35001 1.135C8.25719 1.04218 8.13129 0.990036 8.00001 0.990036C7.86874 0.990036 7.74284 1.04218 7.65001 1.135L1.13401 7.65C1.04119 7.74283 0.98905 7.86873 0.98905 8C0.98905 8.13127 1.04119 8.25717 1.13401 8.35L7.65001 14.866C7.74284 14.9588 7.86874 15.011 8.00001 15.011C8.13129 15.011 8.25719 14.9588 8.35001 14.866L14.866 8.35C14.9588 8.25717 15.011 8.13127 15.011 8C15.011 7.86873 14.9588 7.74283 14.866 7.65L8.35001 1.134V1.135Z" fill="#1B1B1B"/>
</g>
<defs>
<clipPath id="clip0_1419_634">
<rect width="16" height="16" fill="white"/>
</clipPath>
</defs>
</svg>
