<svg width="16" height="16" viewBox="0 0 16 16" fill="none" xmlns="http://www.w3.org/2000/svg">
<g clip-path="url(#clip0_1419_626)">
<path d="M11.303 6.58398H12.367C12.959 6.58398 13.303 6.91798 13.303 7.42798C13.3068 7.587 13.2626 7.74347 13.1761 7.87693C13.0895 8.01039 12.9647 8.11462 12.818 8.17598L13.354 9.24998H12.764L12.297 8.25598H11.824V9.24998H11.303V6.58398V6.58398ZM11.824 6.99798V7.85898H12.284C12.576 7.85898 12.758 7.71898 12.758 7.43798C12.758 7.15198 12.57 6.99798 12.291 6.99798H11.824V6.99798ZM3.05298 6.58398H4.11698C4.70898 6.58398 5.05298 6.91798 5.05298 7.42798C5.05298 7.81798 4.81098 8.08198 4.56798 8.17598L5.10398 9.24998H4.51398L4.04698 8.25598H3.57398V9.24998H3.05298V6.58398V6.58398ZM3.57398 6.99798V7.85898H4.03398C4.32598 7.85898 4.50798 7.71898 4.50798 7.43798C4.50798 7.15198 4.31998 6.99798 4.04098 6.99798H3.57398V6.99798Z" fill="currentColor"/>
<path d="M6.95001 0.435C7.53001 -0.145 8.47001 -0.145 9.05001 0.435L15.565 6.951C16.145 7.531 16.145 8.47 15.565 9.049L9.05001 15.565C8.47001 16.145 7.53101 16.145 6.95201 15.565L0.435015 9.05C0.297078 8.91234 0.187644 8.74884 0.112978 8.56883C0.0383112 8.38883 -0.00012207 8.19587 -0.00012207 8.001C-0.00012207 7.80613 0.0383112 7.61317 0.112978 7.43317C0.187644 7.25316 0.297078 7.08966 0.435015 6.952L6.95001 0.435ZM8.35001 1.135C8.25719 1.04218 8.13129 0.990036 8.00001 0.990036C7.86874 0.990036 7.74284 1.04218 7.65001 1.135L4.92301 3.861L8.00001 6.939L11.078 3.862L8.35001 1.134V1.135ZM12.138 4.923L9.06101 8L12.138 11.078L14.866 8.35C14.9588 8.25717 15.011 8.13127 15.011 8C15.011 7.86873 14.9588 7.74283 14.866 7.65L12.138 4.923ZM11.078 12.138L8.00001 9.061L4.92301 12.138L7.65001 14.866C7.74284 14.9588 7.86874 15.011 8.00001 15.011C8.13129 15.011 8.25719 14.9588 8.35001 14.866L11.077 12.138H11.078ZM3.86201 11.078L6.93901 8L3.86201 4.923L1.13401 7.65C1.04119 7.74283 0.98905 7.86873 0.98905 8C0.98905 8.13127 1.04119 8.25717 1.13401 8.35L3.86201 11.078V11.078Z" fill="currentColor"/>
</g>
<defs>
<clipPath id="clip0_1419_626">
<rect width="16" height="16" fill="white"/>
</clipPath>
</defs>
</svg>
