<svg width="16" height="16" viewBox="0 0 16 16" fill="none" xmlns="http://www.w3.org/2000/svg">
<g clip-path="url(#clip0_1419_637)">
<path fill-rule="evenodd" clip-rule="evenodd" d="M6.95001 0.435C7.53001 -0.145 8.47001 -0.145 9.05001 0.435L15.565 6.951C16.145 7.531 16.145 8.47 15.565 9.049L9.05001 15.565C8.47001 16.145 7.53101 16.145 6.95201 15.565L0.435015 9.05C0.297078 8.91234 0.187644 8.74884 0.112978 8.56883C0.0383112 8.38883 -0.00012207 8.19587 -0.00012207 8.001C-0.00012207 7.80613 0.0383112 7.61317 0.112978 7.43317C0.187644 7.25316 0.297078 7.08966 0.435015 6.952L6.95001 0.435ZM8.33501 6.982L9.13501 8.368C9.15881 8.4091 9.19382 8.44258 9.23595 8.4645C9.27808 8.48643 9.32559 8.4959 9.37291 8.49181C9.42022 8.48772 9.4654 8.47023 9.50314 8.4414C9.54088 8.41256 9.56963 8.37358 9.58601 8.329L10.646 5.447C10.6587 5.41259 10.6637 5.3758 10.6606 5.33925C10.6575 5.30269 10.6464 5.26727 10.6281 5.23549C10.6098 5.2037 10.5847 5.17635 10.5546 5.15535C10.5245 5.13435 10.4902 5.12024 10.454 5.114L7.42801 4.591C7.38117 4.58275 7.33295 4.58803 7.289 4.60623C7.24505 4.62442 7.20721 4.65478 7.17991 4.69373C7.15261 4.73268 7.13699 4.77862 7.13489 4.82613C7.13278 4.87365 7.14427 4.92078 7.16801 4.962L7.83501 6.116L7.21401 6.489C6.84389 6.71102 6.53754 7.02509 6.3248 7.40063C6.11206 7.77617 6.00017 8.20039 6.00001 8.632V11H7.00001V8.632C7.00003 8.37304 7.06709 8.11849 7.19466 7.89313C7.32224 7.66777 7.50598 7.47928 7.72801 7.346L8.33501 6.982V6.982Z" fill="currentColor"/>
</g>
<defs>
<clipPath id="clip0_1419_637">
<rect width="16" height="16" fill="white"/>
</clipPath>
</defs>
</svg>
