<svg width="16" height="16" viewBox="0 0 16 16" fill="none" xmlns="http://www.w3.org/2000/svg">
<g clip-path="url(#clip0_1419_618)">
<path d="M8.74996 6.00002V7.00002C8.88996 7.30102 9.08796 7.61702 9.33796 7.95002C9.87496 8.66602 10.597 9.39002 11.354 10.146L10.646 10.854L10.631 10.838C9.97896 10.186 9.30096 9.50802 8.74996 8.82302V12H7.24996V6.00002H6.03396C5.98646 6.00001 5.93994 5.98646 5.89986 5.96096C5.85978 5.93546 5.8278 5.89907 5.80765 5.85605C5.78751 5.81303 5.78004 5.76516 5.78611 5.71805C5.79219 5.67093 5.81156 5.62653 5.84196 5.59002L7.80796 3.23002C7.83143 3.20189 7.86079 3.17925 7.89396 3.16372C7.92714 3.14819 7.96333 3.14014 7.99996 3.14014C8.0366 3.14014 8.07279 3.14819 8.10596 3.16372C8.13914 3.17925 8.1685 3.20189 8.19196 3.23002L10.158 5.59002C10.1884 5.62653 10.2077 5.67093 10.2138 5.71805C10.2199 5.76516 10.2124 5.81303 10.1923 5.85605C10.1721 5.89907 10.1401 5.93546 10.1001 5.96096C10.06 5.98646 10.0135 6.00001 9.96596 6.00002H8.74996Z" fill="#1B1B1B"/>
<path fill-rule="evenodd" clip-rule="evenodd" d="M9.04998 0.435C8.46998 -0.145 7.52998 -0.145 6.94998 0.435L0.435977 6.95C-0.144023 7.53 -0.144023 8.469 0.435977 9.048L6.95198 15.564C7.53198 16.144 8.47098 16.144 9.04998 15.564L15.566 9.048C16.146 8.468 16.146 7.529 15.566 6.95L9.04998 0.435ZM7.64998 1.135C7.74281 1.04218 7.8687 0.990036 7.99998 0.990036C8.13125 0.990036 8.25715 1.04218 8.34998 1.135L14.866 7.65C14.9588 7.74283 15.0109 7.86873 15.0109 8C15.0109 8.13127 14.9588 8.25717 14.866 8.35L8.34998 14.866C8.25715 14.9588 8.13125 15.011 7.99998 15.011C7.8687 15.011 7.74281 14.9588 7.64998 14.866L1.13398 8.35C1.04116 8.25717 0.989012 8.13127 0.989012 8C0.989012 7.86873 1.04116 7.74283 1.13398 7.65L7.64998 1.134V1.135Z" fill="#1B1B1B"/>
</g>
<defs>
<clipPath id="clip0_1419_618">
<rect width="16" height="16" fill="white"/>
</clipPath>
</defs>
</svg>
