<svg width="16" height="16" viewBox="0 0 16 16" fill="none" xmlns="http://www.w3.org/2000/svg">
<g clip-path="url(#clip0_1419_615)">
<path d="M9.04998 0.435C8.46998 -0.145 7.52998 -0.145 6.94998 0.435L0.435977 6.95C-0.144023 7.53 -0.144023 8.469 0.435977 9.048L6.95198 15.564C7.53198 16.144 8.47098 16.144 9.04998 15.564L15.566 9.048C16.146 8.468 16.146 7.529 15.566 6.95L9.04998 0.435ZM7.24998 6H6.03398C5.98647 5.99998 5.93996 5.98643 5.89988 5.96093C5.8598 5.93543 5.82781 5.89904 5.80767 5.85602C5.78752 5.813 5.78005 5.76513 5.78612 5.71802C5.7922 5.67091 5.81157 5.6265 5.84198 5.59L7.80798 3.23C7.83144 3.20186 7.8608 3.17923 7.89398 3.1637C7.92716 3.14816 7.96334 3.14011 7.99998 3.14011C8.03661 3.14011 8.0728 3.14816 8.10598 3.1637C8.13915 3.17923 8.16851 3.20186 8.19198 3.23L10.158 5.59C10.1884 5.6265 10.2078 5.67091 10.2138 5.71802C10.2199 5.76513 10.2124 5.813 10.1923 5.85602C10.1721 5.89904 10.1402 5.93543 10.1001 5.96093C10.06 5.98643 10.0135 5.99998 9.96598 6H8.74998V12H7.24998V8.823C6.69898 9.509 6.02098 10.186 5.36998 10.838L5.35398 10.854L4.64598 10.146C5.40298 9.39 6.12598 8.666 6.66198 7.95C6.91198 7.617 7.10998 7.301 7.24998 7V6Z" fill="#1B1B1B"/>
</g>
<defs>
<clipPath id="clip0_1419_615">
<rect width="16" height="16" fill="white"/>
</clipPath>
</defs>
</svg>
