<svg width="16" height="16" viewBox="0 0 16 16" fill="none" xmlns="http://www.w3.org/2000/svg">
<g clip-path="url(#clip0_1419_640)">
<path d="M5.50594 6.232V7H5.10994V6.24L4.43994 5H4.87994L5.30394 5.849H5.31994L5.74794 5H6.17594L5.50594 6.232ZM6.62794 5V7H6.23194V5H6.62794ZM7.31194 6.676H8.20694V7H6.91894V5H8.20694V5.324H7.31194V5.837H8.15394V6.14H7.31194V6.676ZM8.83294 6.663H9.68094V7H8.43694V5H8.83294V6.663Z" fill="#1B1B1B"/>
<path fill-rule="evenodd" clip-rule="evenodd" d="M9.80398 7V5H10.534C11.141 5 11.428 5.364 11.428 5.995C11.428 6.631 11.137 7 10.533 7H9.80298H9.80398ZM10.48 5.323H10.2V6.676H10.48C10.852 6.676 11.02 6.454 11.02 6.002C11.02 5.552 10.851 5.322 10.48 5.322V5.323Z" fill="#1B1B1B"/>
<path fill-rule="evenodd" clip-rule="evenodd" d="M7.02197 14.434C7.12116 14.6062 7.26397 14.7492 7.43601 14.8486C7.60806 14.9481 7.80326 15.0004 8.00197 15.0004C8.20068 15.0004 8.39588 14.9481 8.56792 14.8486C8.73997 14.7492 8.88277 14.6062 8.98197 14.434L15.839 2.767C16.296 1.989 15.747 1 14.859 1H1.14397C0.254969 1 -0.293031 1.99 0.163969 2.767L7.02097 14.434H7.02197ZM8.00197 14C7.97962 14.0003 7.95757 13.9947 7.93797 13.984C7.9151 13.9703 7.89643 13.9506 7.88397 13.927L1.02697 2.26C1.00999 2.23257 1.00083 2.20103 1.00048 2.16878C1.00013 2.13653 1.0086 2.10479 1.02497 2.077C1.03769 2.05281 1.05625 2.03219 1.07897 2.017C1.09877 2.00485 1.12176 1.99893 1.14497 2H14.858C14.8811 1.99917 14.9041 2.00507 14.924 2.017C14.942 2.027 14.962 2.047 14.979 2.077C14.9953 2.10484 15.0037 2.13664 15.0031 2.16892C15.0026 2.2012 14.9932 2.23271 14.976 2.26L8.11997 13.927C8.10751 13.9506 8.08884 13.9703 8.06597 13.984C8.04666 13.9946 8.02499 14.0001 8.00297 14H8.00197Z" fill="#1B1B1B"/>
</g>
<defs>
<clipPath id="clip0_1419_640">
<rect width="16" height="16" fill="white"/>
</clipPath>
</defs>
</svg>
