<svg width="16" height="16" viewBox="0 0 16 16" fill="none" xmlns="http://www.w3.org/2000/svg">
<g clip-path="url(#clip0_1419_616)">
<path d="M7.25 6.00002V7.00002C7.11 7.30102 6.912 7.61702 6.662 7.95002C6.125 8.66602 5.403 9.39002 4.646 10.146L5.354 10.854L5.369 10.838C6.021 10.186 6.699 9.50802 7.25 8.82302V12H8.75V6.00002H9.966C10.0135 6.00001 10.06 5.98646 10.1001 5.96096C10.1402 5.93546 10.1722 5.89907 10.1923 5.85605C10.2125 5.81303 10.2199 5.76516 10.2138 5.71805C10.2078 5.67093 10.1884 5.62653 10.158 5.59002L8.192 3.23002C8.16853 3.20189 8.13917 3.17925 8.106 3.16372C8.07282 3.14819 8.03663 3.14014 8 3.14014C7.96336 3.14014 7.92717 3.14819 7.894 3.16372C7.86082 3.17925 7.83146 3.20189 7.808 3.23002L5.842 5.59002C5.81159 5.62653 5.79222 5.67093 5.78614 5.71805C5.78007 5.76516 5.78754 5.81303 5.80769 5.85605C5.82783 5.89907 5.85982 5.93546 5.8999 5.96096C5.93998 5.98646 5.98649 6.00001 6.034 6.00002H7.25Z" fill="#1B1B1B"/>
<path d="M9.04998 0.435C8.46998 -0.145 7.52998 -0.145 6.94998 0.435L0.435977 6.95C-0.144023 7.53 -0.144023 8.469 0.435977 9.048L6.95198 15.564C7.53198 16.144 8.47098 16.144 9.04998 15.564L15.566 9.048C16.146 8.468 16.146 7.529 15.566 6.95L9.04998 0.435ZM7.64998 1.135C7.74281 1.04218 7.8687 0.990036 7.99998 0.990036C8.13125 0.990036 8.25715 1.04218 8.34998 1.135L14.866 7.65C14.9588 7.74283 15.0109 7.86873 15.0109 8C15.0109 8.13127 14.9588 8.25717 14.866 8.35L8.34998 14.866C8.25715 14.9588 8.13125 15.011 7.99998 15.011C7.8687 15.011 7.74281 14.9588 7.64998 14.866L1.13398 8.35C1.04116 8.25717 0.989012 8.13127 0.989012 8C0.989012 7.86873 1.04116 7.74283 1.13398 7.65L7.64998 1.134V1.135Z" fill="#1B1B1B"/>
</g>
<defs>
<clipPath id="clip0_1419_616">
<rect width="16" height="16" fill="white"/>
</clipPath>
</defs>
</svg>
