<svg width="16" height="16" viewBox="0 0 16 16" fill="none" xmlns="http://www.w3.org/2000/svg">
<g clip-path="url(#clip0_1419_630)">
<path d="M3.16002 10.0801C2.22902 10.0801 1.71302 9.58709 1.66602 8.94809H2.31902C2.38402 9.29409 2.71502 9.53109 3.21002 9.53109C3.73402 9.53109 4.04002 9.28509 4.04002 8.91109C4.04002 8.60809 3.83702 8.44409 3.40302 8.33909L2.74702 8.17509C2.13702 8.02809 1.76902 7.66509 1.76902 7.09709C1.76902 6.39109 2.36602 5.91309 3.21302 5.91309C4.06602 5.91309 4.59902 6.38809 4.64902 7.00009H4.00402C3.94002 6.68009 3.65202 6.45809 3.20702 6.45809C2.73502 6.45809 2.43702 6.70409 2.43702 7.05809C2.43702 7.31909 2.63302 7.49509 2.99002 7.58009L3.64402 7.74109C4.31702 7.90509 4.70402 8.22809 4.70402 8.85109C4.70402 9.58709 4.13002 10.0791 3.16002 10.0791V10.0801ZM6.58702 6.57009V10.0001H5.92202V6.57009H4.75302V6.00009H7.75902V6.56809H6.58702V6.57009Z" fill="#1B1B1B"/>
<path fill-rule="evenodd" clip-rule="evenodd" d="M11.045 7.7301V8.2741C11.045 9.4051 10.409 10.0791 9.38397 10.0791C8.35797 10.0791 7.71997 9.4051 7.71997 8.2741V7.7301C7.71997 6.5941 8.35797 5.9231 9.38397 5.9231C10.409 5.9231 11.044 6.5971 11.044 7.7301H11.045ZM10.371 8.2771V7.7241C10.371 6.8971 9.94897 6.4901 9.38397 6.4901C8.81197 6.4901 8.39397 6.8971 8.39397 7.7241V8.2771C8.39397 9.1071 8.81197 9.5141 9.38397 9.5141C9.94897 9.5141 10.371 9.1061 10.371 8.2771ZM11.521 6.0011H13.056C13.876 6.0011 14.372 6.5511 14.372 7.2931C14.372 8.0401 13.871 8.5821 13.051 8.5821H12.186V10.0001H11.521V6.0011V6.0011ZM12.957 8.0371C13.42 8.0371 13.692 7.7651 13.692 7.2931C13.692 6.8211 13.42 6.5521 12.957 6.5521H12.183V8.0371H12.957Z" fill="#1B1B1B"/>
<path fill-rule="evenodd" clip-rule="evenodd" d="M4.893 0C4.76065 2.8119e-05 4.63371 0.052531 4.54 0.146L0.146 4.54C0.052531 4.63371 2.8119e-05 4.76065 0 4.893L0 11.107C2.8119e-05 11.2394 0.052531 11.3663 0.146 11.46L4.54 15.854C4.63371 15.9475 4.76065 16 4.893 16H11.107C11.2394 16 11.3663 15.9475 11.46 15.854L15.854 11.46C15.9475 11.3663 16 11.2394 16 11.107V4.893C16 4.76065 15.9475 4.63371 15.854 4.54L11.46 0.146C11.3663 0.052531 11.2394 2.8119e-05 11.107 0L4.893 0ZM1 5.1L5.1 1H10.9L15 5.1V10.9L10.9 15H5.1L1 10.9V5.1Z" fill="#1B1B1B"/>
</g>
<defs>
<clipPath id="clip0_1419_630">
<rect width="16" height="16" fill="white"/>
</clipPath>
</defs>
</svg>
