<svg width="16" height="16" viewBox="0 0 16 16" fill="none" xmlns="http://www.w3.org/2000/svg">
<g clip-path="url(#clip0_1419_604)">
<path d="M4.78296 6V8H5.47296C6.06596 8 6.35896 7.641 6.35896 6.998C6.35896 6.355 6.06996 6 5.47296 6H4.78296V6ZM5.11596 6.28H5.43596C5.83096 6.28 6.01796 6.52 6.01796 7.002C6.01796 7.482 5.83196 7.72 5.43696 7.72H5.11596V6.28V6.28ZM7.81996 7.72H6.90196V7.118H7.76496V6.85H6.90196V6.28H7.81896V6H6.57096V8H7.81996V7.72ZM8.39296 7.446L8.21596 8H7.87596L8.56396 6H8.93496L9.62396 8H9.27196L9.09496 7.446H8.39296ZM9.01996 7.191L8.75196 6.346H8.73696L8.46696 7.191H9.01996ZM9.74596 6V8H10.436C11.029 8 11.322 7.641 11.322 6.998C11.322 6.355 11.032 6 10.436 6H9.74596ZM10.079 6.28H10.399C10.793 6.28 10.981 6.52 10.981 7.002C10.981 7.482 10.795 7.72 10.399 7.72H10.079V6.28ZM5.90596 10.72H6.82296V11H5.57496V9H6.82296V9.28H5.90596V9.85H6.76896V10.118H5.90596V10.72ZM7.39496 11V9.56H7.40796L8.34396 11H8.63596V9H8.31596V10.436H8.30196L7.36896 9H7.07596V11H7.39496V11ZM8.95496 11V9H9.64496C10.241 9 10.531 9.355 10.531 9.998C10.531 10.641 10.238 11 9.64496 11H8.95496ZM9.60796 9.28H9.28796V10.72H9.60796C10.003 10.72 10.189 10.481 10.189 10.002C10.189 9.521 10.002 9.28 9.60796 9.28Z" fill="#1B1B1B"/>
<path d="M9.04998 0.435C8.46998 -0.145 7.52998 -0.145 6.94998 0.435L0.435977 6.95C-0.144023 7.53 -0.144023 8.469 0.435977 9.048L6.95198 15.564C7.53198 16.144 8.47098 16.144 9.04998 15.564L15.566 9.048C16.146 8.468 16.146 7.529 15.566 6.95L9.04998 0.435ZM7.64998 1.135C7.74281 1.04218 7.8687 0.990036 7.99998 0.990036C8.13125 0.990036 8.25715 1.04218 8.34998 1.135L14.866 7.65C14.9588 7.74283 15.0109 7.86873 15.0109 8C15.0109 8.13127 14.9588 8.25717 14.866 8.35L8.34998 14.866C8.25715 14.9588 8.13125 15.011 7.99998 15.011C7.8687 15.011 7.74281 14.9588 7.64998 14.866L1.13398 8.35C1.04116 8.25717 0.989012 8.13127 0.989012 8C0.989012 7.86873 1.04116 7.74283 1.13398 7.65L7.64998 1.134V1.135Z" fill="#1B1B1B"/>
</g>
<defs>
<clipPath id="clip0_1419_604">
<rect width="16" height="16" fill="white"/>
</clipPath>
</defs>
</svg>
