<svg width="16" height="16" viewBox="0 0 16 16" fill="none" xmlns="http://www.w3.org/2000/svg">
<g clip-path="url(#clip0_1419_606)">
<path fill-rule="evenodd" clip-rule="evenodd" d="M3.58398 5.99994V3.99994H4.27398C4.86998 3.99994 5.15998 4.35494 5.15998 4.99794C5.15998 5.64094 4.86698 5.99994 4.27398 5.99994H3.58398ZM4.23698 4.27994H3.91698V5.71994H4.23698C4.63298 5.71994 4.81898 5.48094 4.81898 5.00194C4.81898 4.52094 4.63098 4.27994 4.23698 4.27994V4.27994ZM6.96598 4.86494V5.13694C6.96598 5.70294 6.64798 6.03994 6.13598 6.03994C5.62298 6.03994 5.30298 5.70294 5.30298 5.13694V4.86494C5.30298 4.29594 5.62298 3.96094 6.13498 3.96094C6.64798 3.96094 6.96498 4.29794 6.96498 4.86494H6.96598ZM6.62898 5.13894V4.86194C6.62898 4.44894 6.41798 4.24494 6.13498 4.24494C5.84998 4.24494 5.63998 4.44894 5.63998 4.86194V5.13894C5.63998 5.55294 5.84998 5.75694 6.13498 5.75694C6.41798 5.75694 6.62898 5.55294 6.62898 5.13894Z" fill="currentColor"/>
<path d="M7.98697 4.56V6H7.66797V4H7.96097L8.89397 5.436H8.90897V4H9.22797V6H8.93697L7.99997 4.56H7.98697Z" fill="currentColor"/>
<path fill-rule="evenodd" clip-rule="evenodd" d="M11.1289 4.86494V5.13694C11.1289 5.70294 10.8109 6.03994 10.2989 6.03994C9.78594 6.03994 9.46594 5.70294 9.46594 5.13694V4.86494C9.46594 4.29594 9.78594 3.96094 10.2979 3.96094C10.8109 3.96094 11.1279 4.29794 11.1279 4.86494H11.1289ZM10.7919 5.13894V4.86194C10.7919 4.44894 10.5809 4.24494 10.2979 4.24494C10.0129 4.24494 9.80294 4.44894 9.80294 4.86194V5.13894C9.80294 5.55294 10.0129 5.75694 10.2979 5.75694C10.5809 5.75694 10.7919 5.55294 10.7919 5.13894Z" fill="currentColor"/>
<path d="M12.028 4.285V6H11.695V4.285H11.111V4H12.614V4.285H12.028ZM4.49604 11.72H5.41304V12H4.16504V10H5.41304V10.28H4.49604V10.85H5.35804V11.118H4.49604V11.72ZM5.98504 10.56V12H5.66504V10H5.95904L6.89204 11.436H6.90604V10.001H7.22604V12H6.93404L5.99804 10.56H5.98504ZM8.26404 10.285V12H7.93004V10.285H7.34604V10H8.85004V10.284H8.26404V10.285ZM9.30004 11.72H10.217V12H8.97004V10H10.218V10.28H9.30004V10.85H10.163V11.118H9.30004V11.72Z" fill="currentColor"/>
<path fill-rule="evenodd" clip-rule="evenodd" d="M10.47 10H11.235C11.655 10 11.909 10.244 11.909 10.616C11.9139 10.7361 11.881 10.8547 11.815 10.9551C11.749 11.0556 11.6531 11.1328 11.541 11.176L11.945 12H11.572L11.212 11.231H10.798V12H10.47V10V10ZM10.798 10.273V10.967H11.179C11.424 10.967 11.566 10.852 11.566 10.627C11.566 10.399 11.419 10.273 11.188 10.273H10.798Z" fill="currentColor"/>
<path d="M3.5 7C3.36739 7 3.24021 7.05268 3.14645 7.14645C3.05268 7.24021 3 7.36739 3 7.5V8.5C3 8.63261 3.05268 8.75979 3.14645 8.85355C3.24021 8.94732 3.36739 9 3.5 9H12.5C12.6326 9 12.7598 8.94732 12.8536 8.85355C12.9473 8.75979 13 8.63261 13 8.5V7.5C13 7.36739 12.9473 7.24021 12.8536 7.14645C12.7598 7.05268 12.6326 7 12.5 7H3.5Z" fill="currentColor"/>
<path fill-rule="evenodd" clip-rule="evenodd" d="M8 16C10.1217 16 12.1566 15.1571 13.6569 13.6569C15.1571 12.1566 16 10.1217 16 8C16 5.87827 15.1571 3.84344 13.6569 2.34315C12.1566 0.842855 10.1217 0 8 0C5.87827 0 3.84344 0.842855 2.34315 2.34315C0.842855 3.84344 0 5.87827 0 8C0 10.1217 0.842855 12.1566 2.34315 13.6569C3.84344 15.1571 5.87827 16 8 16V16ZM8 15C9.85652 15 11.637 14.2625 12.9497 12.9497C14.2625 11.637 15 9.85652 15 8C15 6.14348 14.2625 4.36301 12.9497 3.05025C11.637 1.7375 9.85652 1 8 1C6.14348 1 4.36301 1.7375 3.05025 3.05025C1.7375 4.36301 1 6.14348 1 8C1 9.85652 1.7375 11.637 3.05025 12.9497C4.36301 14.2625 6.14348 15 8 15V15Z" fill="currentColor"/>
</g>
<defs>
<clipPath id="clip0_1419_606">
<rect width="16" height="16" fill="white"/>
</clipPath>
</defs>
</svg>
