<svg width="16" height="16" viewBox="0 0 16 16" fill="none" xmlns="http://www.w3.org/2000/svg">
<g clip-path="url(#clip0_1419_625)">
<path d="M9.05 0.435C8.47 -0.145 7.53 -0.145 6.95 0.435L4.224 3.162L8 6.94L11.777 3.163L9.049 0.435H9.05ZM12.324 7.86V6.998H12.791C13.071 6.998 13.258 7.152 13.258 7.438C13.258 7.718 13.076 7.859 12.783 7.859H12.324V7.86Z" fill="#1B1B1B"/>
<path d="M12.838 4.2229L9.05998 7.9999L12.837 11.7769L15.564 9.0489C16.144 8.4689 16.144 7.5299 15.564 6.9509L12.837 4.2229H12.838ZM12.868 6.5839C13.459 6.5839 13.803 6.9179 13.803 7.4279C13.8068 7.58691 13.7626 7.74339 13.6761 7.87685C13.5895 8.01031 13.4647 8.11454 13.318 8.1759L13.854 9.2499H13.264L12.797 8.2559H12.324V9.2499H11.803V6.5839H12.867H12.868ZM11.777 12.8379L7.99997 9.0599L4.22297 12.8369L6.95097 15.5639C7.53097 16.1439 8.46997 16.1439 9.04897 15.5639L11.777 12.8369V12.8379ZM2.82397 6.9979V7.8589H3.28397C3.57597 7.8589 3.75797 7.7189 3.75797 7.4379C3.75797 7.1519 3.56997 6.9979 3.29097 6.9979H2.82397V6.9979Z" fill="#1B1B1B"/>
<path d="M3.162 11.7769L6.94 7.9999L3.162 4.2229L0.435 6.9509C-0.145 7.5309 -0.145 8.4699 0.435 9.0489L3.162 11.7769ZM2.302 6.5839H3.367C3.959 6.5839 4.303 6.9179 4.303 7.4279C4.303 7.8179 4.061 8.0819 3.818 8.1759L4.354 9.2499H3.764L3.297 8.2559H2.824V9.2499H2.303V6.5839H2.302Z" fill="#1B1B1B"/>
</g>
<defs>
<clipPath id="clip0_1419_625">
<rect width="16" height="16" fill="white"/>
</clipPath>
</defs>
</svg>
