<svg width="16" height="16" viewBox="0 0 16 16" fill="none" xmlns="http://www.w3.org/2000/svg">
<g clip-path="url(#clip0_1419_603)">
<path d="M5.11597 6.28003H5.43597C5.83097 6.28003 6.01797 6.52003 6.01797 7.00203C6.01797 7.48203 5.83197 7.72003 5.43697 7.72003H5.11597V6.28003ZM8.75197 6.34603L9.01997 7.19103H8.46797L8.73797 6.34603H8.75197ZM10.079 6.28003H10.399C10.793 6.28003 10.981 6.52003 10.981 7.00203C10.981 7.48203 10.795 7.72003 10.399 7.72003H10.079V6.28003ZM9.28697 9.28003H9.60697C10.002 9.28003 10.189 9.52003 10.189 10.002C10.189 10.482 10.003 10.72 9.60797 10.72H9.28797V9.28003H9.28697Z" fill="#1B1B1B"/>
<path d="M9.04998 0.435C8.46998 -0.145 7.52998 -0.145 6.94998 0.435L0.435977 6.95C-0.144023 7.53 -0.144023 8.469 0.435977 9.048L6.95198 15.564C7.53198 16.144 8.47098 16.144 9.04998 15.564L15.566 9.048C16.146 8.468 16.146 7.529 15.566 6.95L9.04998 0.435ZM4.78198 6H5.47198C6.06798 6 6.35798 6.355 6.35798 6.998C6.35798 7.641 6.06598 8 5.47298 8H4.78298V6H4.78198ZM7.81998 7.72V8H6.57098V6H7.81998V6.28H6.90298V6.85H7.76598V7.118H6.90298V7.72H7.81998V7.72ZM8.21698 8H7.87698L8.56498 6H8.93598L9.62498 8H9.27298L9.09598 7.446H8.39398L8.21598 8H8.21698ZM9.74698 6H10.437C11.033 6 11.323 6.355 11.323 6.998C11.323 7.641 11.03 8 10.436 8H9.74598V6H9.74698ZM6.82398 10.72V11H5.57498V9H6.82298V9.28H5.90598V9.85H6.76898V10.118H5.90598V10.72H6.82298H6.82398ZM7.39598 11H7.07598V9H7.36998L8.30298 10.436H8.31698V9H8.63698V11H8.34498L7.40898 9.56H7.39598V11V11ZM8.95598 9H9.64598C10.242 9 10.532 9.355 10.532 9.998C10.532 10.641 10.238 11 9.64498 11H8.95498V9H8.95598Z" fill="#1B1B1B"/>
</g>
<defs>
<clipPath id="clip0_1419_603">
<rect width="16" height="16" fill="white"/>
</clipPath>
</defs>
</svg>
