<svg width="16" height="16" viewBox="0 0 16 16" fill="none" xmlns="http://www.w3.org/2000/svg">
<g clip-path="url(#clip0_1419_638)">
<path d="M8.335 6.98195L9.135 8.36795C9.1588 8.40905 9.19381 8.44252 9.23594 8.46445C9.27807 8.48638 9.32557 8.49585 9.37289 8.49176C9.42021 8.48766 9.46538 8.47018 9.50312 8.44135C9.54087 8.41251 9.56961 8.37353 9.586 8.32895L10.646 5.44695C10.6587 5.41254 10.6637 5.37575 10.6606 5.33919C10.6575 5.30264 10.6464 5.26722 10.6281 5.23544C10.6097 5.20365 10.5847 5.1763 10.5546 5.1553C10.5245 5.1343 10.4902 5.12019 10.454 5.11395L7.428 4.59095C7.38116 4.5827 7.33293 4.58798 7.28898 4.60618C7.24504 4.62437 7.20719 4.65473 7.1799 4.69368C7.1526 4.73263 7.13698 4.77856 7.13487 4.82608C7.13277 4.8736 7.14426 4.92073 7.168 4.96195L7.835 6.11595L7.214 6.48895C6.84387 6.71097 6.53753 7.02504 6.32478 7.40058C6.11204 7.77612 6.00015 8.20034 6 8.63195V10.9999H7V8.63195C7.00001 8.37299 7.06707 8.11844 7.19465 7.89308C7.32222 7.66772 7.50597 7.47923 7.728 7.34595L8.335 6.98195V6.98195Z" fill="#1B1B1B"/>
<path fill-rule="evenodd" clip-rule="evenodd" d="M6.95001 0.435C7.53001 -0.145 8.47001 -0.145 9.05001 0.435L15.565 6.951C16.145 7.531 16.145 8.47 15.565 9.049L9.05001 15.565C8.47001 16.145 7.53101 16.145 6.95201 15.565L0.435015 9.05C0.297078 8.91234 0.187644 8.74884 0.112978 8.56883C0.0383112 8.38883 -0.00012207 8.19587 -0.00012207 8.001C-0.00012207 7.80613 0.0383112 7.61317 0.112978 7.43317C0.187644 7.25316 0.297078 7.08966 0.435015 6.952L6.95001 0.435ZM8.35001 1.135C8.25719 1.04218 8.13129 0.990036 8.00001 0.990036C7.86874 0.990036 7.74284 1.04218 7.65001 1.135L1.13401 7.65C1.04119 7.74283 0.98905 7.86873 0.98905 8C0.98905 8.13127 1.04119 8.25717 1.13401 8.35L7.65001 14.866C7.74284 14.9588 7.86874 15.011 8.00001 15.011C8.13129 15.011 8.25719 14.9588 8.35001 14.866L14.866 8.35C14.9588 8.25717 15.011 8.13127 15.011 8C15.011 7.86873 14.9588 7.74283 14.866 7.65L8.35001 1.134V1.135Z" fill="#1B1B1B"/>
</g>
<defs>
<clipPath id="clip0_1419_638">
<rect width="16" height="16" fill="white"/>
</clipPath>
</defs>
</svg>
