<svg width="16" height="16" viewBox="0 0 16 16" fill="none" xmlns="http://www.w3.org/2000/svg">
<g clip-path="url(#clip0_1419_1979)">
<path d="M6.07997 0.234113L6.25897 0.961113C5.55101 1.13598 4.87341 1.41646 4.24897 1.79311L3.86597 1.15011C4.5528 0.734083 5.29904 0.425201 6.07897 0.234113H6.07997ZM9.91997 0.234113L9.74197 0.960113C10.4499 1.135 11.1275 1.41547 11.752 1.79211L12.14 1.14911C11.4505 0.733571 10.702 0.42506 9.91997 0.234113V0.234113ZM1.14997 3.86411C0.734365 4.55187 0.425517 5.2987 0.233971 6.07911L0.960971 6.25911C1.13584 5.55115 1.41632 4.87355 1.79297 4.24911L1.14997 3.86311V3.86411ZM0.749971 8.00011C0.749894 7.6366 0.776969 7.27359 0.830971 6.91411L0.0909707 6.80011C-0.0295098 7.59491 -0.0295098 8.40332 0.0909707 9.19811L0.830971 9.08611C0.776828 8.72665 0.749751 8.36363 0.749971 8.00011ZM12.134 14.8481L11.75 14.2081C11.1266 14.5846 10.45 14.8648 9.74297 15.0391L9.92297 15.7671C10.7021 15.5739 11.4475 15.2641 12.134 14.8481V14.8481ZM15.251 8.00011C15.251 8.36411 15.223 8.72711 15.169 9.08611L15.909 9.19811C16.03 8.40336 16.03 7.59487 15.909 6.80011L15.169 6.91411C15.223 7.27411 15.251 7.63611 15.251 8.00011ZM15.767 9.91811L15.039 9.73811C14.8645 10.4468 14.584 11.1251 14.207 11.7501L14.85 12.1371C15.2664 11.4483 15.5757 10.7 15.767 9.91811V9.91811ZM9.08697 15.1681C8.36697 15.2781 7.63397 15.2781 6.91397 15.1681L6.80197 15.9101C7.5961 16.0305 8.40384 16.0305 9.19797 15.9101L9.08597 15.1691L9.08697 15.1681ZM13.837 12.3001C13.4048 12.8859 12.8866 13.4031 12.3 13.8341L12.746 14.4391C13.3918 13.9635 13.963 13.3942 14.441 12.7501L13.837 12.3001V12.3001ZM12.3 2.16311C12.887 2.59511 13.405 3.11311 13.837 3.70011L14.441 3.25011C13.9648 2.60557 13.3952 2.03563 12.751 1.55911L12.301 2.16311H12.3ZM2.16297 3.70011C2.59506 3.11337 3.11323 2.5952 3.69997 2.16311L3.24997 1.55911C2.60543 2.03525 2.03549 2.60485 1.55897 3.24911L2.16297 3.69911V3.70011ZM14.851 3.86311L14.207 4.25011C14.584 4.87311 14.865 5.55011 15.039 6.25711L15.767 6.07711C15.5755 5.29698 15.2667 4.55047 14.851 3.86311V3.86311ZM6.91297 0.831113C7.63287 0.722108 8.36507 0.722108 9.08497 0.831113L9.19697 0.0911127C8.40285 -0.0293943 7.59509 -0.0293943 6.80097 0.0911127L6.91297 0.831113V0.831113ZM2.54697 14.6401L0.999971 15.0001L1.35997 13.4511L0.630971 13.2811L0.269971 14.8291C0.240804 14.9533 0.243791 15.0829 0.27865 15.2056C0.313508 15.3283 0.379086 15.44 0.469183 15.5303C0.55928 15.6206 0.670919 15.6865 0.793544 15.7216C0.916169 15.7567 1.04573 15.76 1.16997 15.7311L2.71797 15.3741L2.54797 14.6401H2.54697ZM0.785971 12.6121L1.51797 12.7801L1.76797 11.7071C1.40259 11.0951 1.13028 10.4322 0.959971 9.74011L0.232971 9.92011C0.396156 10.5829 0.643498 11.2221 0.968971 11.8221L0.784971 12.6121H0.785971ZM4.28597 14.2351L3.21297 14.4851L3.38297 15.2161L4.17297 15.0321C4.77297 15.3591 5.41197 15.6061 6.07497 15.7691L6.25497 15.0411C5.56448 14.8693 4.90328 14.5959 4.29297 14.2301L4.28597 14.2351V14.2351ZM7.99997 1.50011C6.27623 1.50117 4.62344 2.18667 3.40495 3.40592C2.18645 4.62516 1.50197 6.27837 1.50197 8.00211C1.50395 9.2246 1.84979 10.4219 2.49997 11.4571L1.87497 14.1251L4.53997 13.5001C5.99766 14.375 7.74003 14.6441 9.39377 14.2499C11.0475 13.8557 12.4811 12.8294 13.3873 11.391C14.2935 9.95253 14.6003 8.21639 14.2419 6.55451C13.8835 4.89263 12.8885 3.43722 11.47 2.50011C10.4306 1.84652 9.22775 1.49987 7.99997 1.50011" fill="#1B1B1B"/>
</g>
<defs>
<clipPath id="clip0_1419_1979">
<rect width="16" height="16" fill="white"/>
</clipPath>
</defs>
</svg>
