<svg width="16" height="16" viewBox="0 0 16 16" fill="none" xmlns="http://www.w3.org/2000/svg">
<g clip-path="url(#clip0_1419_620)">
<path d="M0 8C0 10.1217 0.842855 12.1566 2.34315 13.6569C3.84344 15.1571 5.87827 16 8 16C10.1217 16 12.1566 15.1571 13.6569 13.6569C15.1571 12.1566 16 10.1217 16 8C16 5.87827 15.1571 3.84344 13.6569 2.34315C12.1566 0.842855 10.1217 0 8 0C5.87827 0 3.84344 0.842855 2.34315 2.34315C0.842855 3.84344 0 5.87827 0 8H0ZM3.416 13.29L9.404 7.303C9.766 7.577 10 8.011 10 8.5V11H11V8.5C11 7.735 10.656 7.05 10.115 6.592L13.291 3.416C14.4493 4.75382 15.058 6.48072 14.9945 8.24918C14.931 10.0176 14.2 11.6964 12.9487 12.9477C11.6974 14.199 10.0186 14.93 8.25018 14.9935C6.48172 15.057 4.75482 14.4483 3.417 13.29H3.416ZM2.709 12.584C1.55067 11.2462 0.942016 9.51928 1.00552 7.75082C1.06902 5.98235 1.79996 4.30356 3.05126 3.05226C4.30256 1.80096 5.98135 1.07002 7.74982 1.00652C9.51828 0.943016 11.2452 1.55167 12.583 2.71L9.196 6.097C8.96972 6.03207 8.73541 5.99942 8.5 6H7V4.534C6.99998 4.4865 6.98643 4.43998 6.96093 4.3999C6.93543 4.35982 6.89904 4.32784 6.85602 4.30769C6.813 4.28754 6.76513 4.28007 6.71802 4.28615C6.67091 4.29222 6.6265 4.3116 6.59 4.342L4.23 6.308C4.20186 6.33146 4.17923 6.36082 4.1637 6.394C4.14816 6.42718 4.14011 6.46337 4.14011 6.5C4.14011 6.53663 4.14816 6.57282 4.1637 6.606C4.17923 6.63918 4.20186 6.66854 4.23 6.692L6.59 8.658C6.59825 8.6652 6.60693 8.67188 6.616 8.678L2.709 12.584V12.584ZM8.293 7L7 8.293V7H8.293Z" fill="currentColor"/>
</g>
<defs>
<clipPath id="clip0_1419_620">
<rect width="16" height="16" fill="white"/>
</clipPath>
</defs>
</svg>
