<svg width="16" height="16" viewBox="0 0 16 16" fill="none" xmlns="http://www.w3.org/2000/svg">
<g clip-path="url(#clip0_1419_628)">
<path d="M8 6C8.26522 6 8.51957 5.89464 8.70711 5.70711C8.89464 5.51957 9 5.26522 9 5C9 4.73478 8.89464 4.48043 8.70711 4.29289C8.51957 4.10536 8.26522 4 8 4C7.73478 4 7.48043 4.10536 7.29289 4.29289C7.10536 4.48043 7 4.73478 7 5C7 5.26522 7.10536 5.51957 7.29289 5.70711C7.48043 5.89464 7.73478 6 8 6ZM8 9C8.26522 9 8.51957 8.89464 8.70711 8.70711C8.89464 8.51957 9 8.26522 9 8C9 7.73478 8.89464 7.48043 8.70711 7.29289C8.51957 7.10536 8.26522 7 8 7C7.73478 7 7.48043 7.10536 7.29289 7.29289C7.10536 7.48043 7 7.73478 7 8C7 8.26522 7.10536 8.51957 7.29289 8.70711C7.48043 8.89464 7.73478 9 8 9ZM9 11C9 11.2652 8.89464 11.5196 8.70711 11.7071C8.51957 11.8946 8.26522 12 8 12C7.73478 12 7.48043 11.8946 7.29289 11.7071C7.10536 11.5196 7 11.2652 7 11C7 10.7348 7.10536 10.4804 7.29289 10.2929C7.48043 10.1054 7.73478 10 8 10C8.26522 10 8.51957 10.1054 8.70711 10.2929C8.89464 10.4804 9 10.7348 9 11V11Z" fill="currentColor"/>
<path fill-rule="evenodd" clip-rule="evenodd" d="M9.04998 0.435C8.46998 -0.145 7.52998 -0.145 6.94998 0.435L0.435977 6.95C-0.144023 7.53 -0.144023 8.469 0.435977 9.048L6.95198 15.564C7.53198 16.144 8.47098 16.144 9.04998 15.564L15.566 9.048C16.146 8.468 16.146 7.529 15.566 6.95L9.04998 0.435ZM5.99998 4C5.99998 3.73478 6.10533 3.48043 6.29287 3.29289C6.48041 3.10536 6.73476 3 6.99998 3H8.99998C9.26519 3 9.51955 3.10536 9.70708 3.29289C9.89462 3.48043 9.99998 3.73478 9.99998 4V12C9.99998 12.2652 9.89462 12.5196 9.70708 12.7071C9.51955 12.8946 9.26519 13 8.99998 13H6.99998C6.73476 13 6.48041 12.8946 6.29287 12.7071C6.10533 12.5196 5.99998 12.2652 5.99998 12V4Z" fill="currentColor"/>
</g>
<defs>
<clipPath id="clip0_1419_628">
<rect width="16" height="16" fill="white"/>
</clipPath>
</defs>
</svg>
