<svg width="16" height="16" viewBox="0 0 16 16" fill="none" xmlns="http://www.w3.org/2000/svg">
<g clip-path="url(#clip0_1419_631)">
<path fill-rule="evenodd" clip-rule="evenodd" d="M9.04998 0.435C8.46998 -0.145 7.52998 -0.145 6.94998 0.435L0.435977 6.95C-0.144023 7.53 -0.144023 8.469 0.435977 9.048L6.95198 15.564C7.53198 16.144 8.47098 16.144 9.04998 15.564L15.566 9.048C16.146 8.468 16.146 7.529 15.566 6.95L9.04998 0.435ZM6.99998 8.466V7H8.49998C8.8978 7 9.27933 7.15804 9.56064 7.43934C9.84194 7.72064 9.99998 8.10218 9.99998 8.5V11H11V8.5C11 7.83696 10.7366 7.20107 10.2677 6.73223C9.7989 6.26339 9.16302 6 8.49998 6H6.99998V4.534C6.99996 4.4865 6.98641 4.43998 6.96091 4.3999C6.93541 4.35982 6.89902 4.32784 6.856 4.30769C6.81298 4.28754 6.76511 4.28007 6.718 4.28615C6.67088 4.29222 6.62648 4.3116 6.58998 4.342L4.22998 6.308C4.20184 6.33146 4.17921 6.36082 4.16367 6.394C4.14814 6.42718 4.14009 6.46337 4.14009 6.5C4.14009 6.53663 4.14814 6.57282 4.16367 6.606C4.17921 6.63918 4.20184 6.66854 4.22998 6.692L6.58998 8.658C6.62648 8.6884 6.67088 8.70778 6.718 8.71385C6.76511 8.71993 6.81298 8.71246 6.856 8.69231C6.89902 8.67216 6.93541 8.64018 6.96091 8.6001C6.98641 8.56002 6.99996 8.5135 6.99998 8.466Z" fill="currentColor"/>
</g>
<defs>
<clipPath id="clip0_1419_631">
<rect width="16" height="16" fill="white"/>
</clipPath>
</defs>
</svg>
