<svg width="16" height="16" viewBox="0 0 16 16" fill="none" xmlns="http://www.w3.org/2000/svg">
<g clip-path="url(#clip0_1419_636)">
<path d="M7.66499 6.98195L6.86499 8.36795C6.8412 8.40905 6.80618 8.44252 6.76405 8.46445C6.72192 8.48638 6.67442 8.49585 6.6271 8.49176C6.57978 8.48766 6.53461 8.47018 6.49687 8.44135C6.45913 8.41251 6.43038 8.37353 6.41399 8.32895L5.35399 5.44695C5.34128 5.41254 5.3363 5.37575 5.33939 5.33919C5.34249 5.30264 5.3536 5.26722 5.37192 5.23544C5.39025 5.20365 5.41534 5.1763 5.44542 5.1553C5.47551 5.1343 5.50984 5.12019 5.54599 5.11395L8.57199 4.59095C8.61884 4.5827 8.66706 4.58798 8.71101 4.60618C8.75496 4.62437 8.7928 4.65473 8.8201 4.69368C8.8474 4.73263 8.86301 4.77856 8.86512 4.82608C8.86723 4.8736 8.85574 4.92073 8.83199 4.96195L8.16499 6.11595L8.78599 6.48895C9.15612 6.71097 9.46247 7.02504 9.67521 7.40058C9.88795 7.77612 9.99984 8.20034 9.99999 8.63195V10.9999H8.99999V8.63195C8.99998 8.37299 8.93292 8.11844 8.80535 7.89308C8.67777 7.66772 8.49403 7.47923 8.27199 7.34595L7.66499 6.98195Z" fill="currentColor"/>
<path fill-rule="evenodd" clip-rule="evenodd" d="M6.95001 0.435C7.53001 -0.145 8.47001 -0.145 9.05001 0.435L15.565 6.951C16.145 7.531 16.145 8.47 15.565 9.049L9.05001 15.565C8.47001 16.145 7.53101 16.145 6.95201 15.565L0.435015 9.05C0.297078 8.91234 0.187644 8.74884 0.112978 8.56883C0.0383112 8.38883 -0.00012207 8.19587 -0.00012207 8.001C-0.00012207 7.80613 0.0383112 7.61317 0.112978 7.43317C0.187644 7.25316 0.297078 7.08966 0.435015 6.952L6.95001 0.435ZM8.35001 1.135C8.25719 1.04218 8.13129 0.990036 8.00001 0.990036C7.86874 0.990036 7.74284 1.04218 7.65001 1.135L1.13401 7.65C1.04119 7.74283 0.98905 7.86873 0.98905 8C0.98905 8.13127 1.04119 8.25717 1.13401 8.35L7.65001 14.866C7.74284 14.9588 7.86874 15.011 8.00001 15.011C8.13129 15.011 8.25719 14.9588 8.35001 14.866L14.866 8.35C14.9588 8.25717 15.011 8.13127 15.011 8C15.011 7.86873 14.9588 7.74283 14.866 7.65L8.35001 1.134V1.135Z" fill="currentColor"/>
</g>
<defs>
<clipPath id="clip0_1419_636">
<rect width="16" height="16" fill="white"/>
</clipPath>
</defs>
</svg>
