<svg width="16" height="16" viewBox="0 0 16 16" fill="none" xmlns="http://www.w3.org/2000/svg">
<g clip-path="url(#clip0_1419_622)">
<path d="M8 16C10.1217 16 12.1566 15.1571 13.6569 13.6569C15.1571 12.1566 16 10.1217 16 8C16 5.87827 15.1571 3.84344 13.6569 2.34315C12.1566 0.842855 10.1217 0 8 0C5.87827 0 3.84344 0.842855 2.34315 2.34315C0.842855 3.84344 0 5.87827 0 8C0 10.1217 0.842855 12.1566 2.34315 13.6569C3.84344 15.1571 5.87827 16 8 16V16ZM13.29 12.584L9.63 8.923C10.5 8.523 11 7.66 11 6.586C11 5.104 10.045 4.002 8.462 4.002H5.5V4.792L3.416 2.71C4.75382 1.55167 6.48072 0.943016 8.24918 1.00652C10.0176 1.07002 11.6964 1.80096 12.9477 3.05226C14.199 4.30356 14.93 5.98235 14.9935 7.75082C15.057 9.51928 14.4483 11.2462 13.29 12.584V12.584ZM12.584 13.291C11.2462 14.4493 9.51928 15.058 7.75082 14.9945C5.98235 14.931 4.30356 14.2 3.05226 12.9487C1.80096 11.6974 1.07002 10.0186 1.00652 8.25018C0.943016 6.48172 1.55167 4.75482 2.71 3.417L5.5 6.207V12H6.783V9.164H8.457L12.584 13.291ZM8.726 8.019L6.777 6.07V5.104H8.27C9.163 5.104 9.689 5.643 9.689 6.586C9.689 7.355 9.339 7.859 8.726 8.019ZM6.777 7.485L7.367 8.075H6.777V7.485V7.485Z" fill="currentColor"/>
</g>
<defs>
<clipPath id="clip0_1419_622">
<rect width="16" height="16" fill="white"/>
</clipPath>
</defs>
</svg>
