<svg width="16" height="16" viewBox="0 0 16 16" fill="none" xmlns="http://www.w3.org/2000/svg">
<g clip-path="url(#clip0_1419_623)">
<path d="M14 13.292C15.3494 11.7661 16.066 9.78293 16.0035 7.74692C15.9411 5.7109 15.1043 3.77538 13.6639 2.33509C12.2235 0.894791 10.2879 0.0582026 8.25184 -0.00406967C6.21582 -0.066342 4.23272 0.650392 2.70697 1.99997L6.80397 6.09797C7.02497 6.03397 7.25897 5.99997 7.49997 5.99997H8.99997V4.53397C8.99998 4.48646 9.01354 4.43995 9.03903 4.39987C9.06453 4.35979 9.10092 4.3278 9.14394 4.30766C9.18696 4.28751 9.23483 4.28004 9.28195 4.28611C9.32906 4.29219 9.37347 4.31156 9.40997 4.34197L11.77 6.30797C11.89 6.40797 11.89 6.59197 11.77 6.69197L9.40997 8.65797C9.40172 8.66516 9.39304 8.67184 9.38397 8.67797L14 13.291V13.292ZM13.292 14C11.7661 15.3494 9.78293 16.066 7.74692 16.0035C5.7109 15.9411 3.77538 15.1043 2.33509 13.6639C0.894791 12.2235 0.0582026 10.2879 -0.00406967 8.25184C-0.066342 6.21582 0.650392 4.23272 1.99997 2.70697L5.88497 6.59097C5.60731 6.8255 5.38425 7.11786 5.23138 7.44761C5.07851 7.77735 4.99953 8.13651 4.99997 8.49997V11H5.99997V8.49997C5.99997 8.01097 6.23397 7.57697 6.59597 7.30297L13.292 13.999V14Z" fill="#1B1B1B"/>
<path d="M7.70703 7L9.00003 8.293V7H7.70703Z" fill="#1B1B1B"/>
</g>
<defs>
<clipPath id="clip0_1419_623">
<rect width="16" height="16" fill="white"/>
</clipPath>
</defs>
</svg>
