<svg width="16" height="16" viewBox="0 0 16 16" fill="none" xmlns="http://www.w3.org/2000/svg">
<g clip-path="url(#clip0_1419_1980)">
<path d="M10.878 1.093C11.6053 0.936868 12.361 0.9753 13.0687 1.20442C13.7764 1.43354 14.4112 1.84524 14.909 2.398C15.4078 2.94913 15.7524 3.62212 15.908 4.34901C16.0636 5.07591 16.0246 5.83098 15.795 6.538V6.539C15.745 6.69362 15.6357 6.82205 15.491 6.89603C15.3463 6.97002 15.1781 6.98349 15.0235 6.9335C14.8689 6.88351 14.7405 6.77414 14.6665 6.62945C14.5925 6.48477 14.579 6.31662 14.629 6.162C14.7925 5.65896 14.8205 5.12172 14.7102 4.60441C14.6 4.0871 14.3553 3.60797 14.001 3.21528C13.6466 2.8226 13.1951 2.53023 12.6917 2.36761C12.1884 2.205 11.6511 2.17788 11.134 2.289C11.0555 2.30581 10.9744 2.30699 10.8954 2.29246C10.8164 2.27794 10.7411 2.248 10.6737 2.20436C10.6063 2.16072 10.5481 2.10422 10.5025 2.0381C10.4569 1.97198 10.4248 1.89753 10.408 1.819C10.3912 1.74047 10.39 1.6594 10.4046 1.58041C10.4191 1.50143 10.449 1.42607 10.4927 1.35866C10.5363 1.29124 10.5928 1.23309 10.6589 1.1875C10.725 1.14192 10.7995 1.10981 10.878 1.093V1.093Z" fill="currentColor"/>
<path fill-rule="evenodd" clip-rule="evenodd" d="M3.753 9.46504C4.301 8.35504 5.725 7.72504 6.986 8.05404C8.29 8.39204 8.957 9.62204 8.423 10.818C7.882 12.039 6.328 12.693 5.007 12.267C3.736 11.856 3.195 10.597 3.753 9.46504V9.46504ZM6.411 10.032C6.571 10.098 6.776 10.023 6.869 9.86404C6.957 9.70404 6.899 9.52404 6.74 9.46704C6.584 9.40504 6.387 9.48004 6.294 9.63504C6.204 9.78904 6.253 9.96804 6.411 10.032V10.032ZM4.804 11.346C5.217 11.534 5.767 11.355 6.023 10.946C6.275 10.533 6.143 10.063 5.727 9.88404C5.317 9.71204 4.787 9.88904 4.533 10.286C4.277 10.686 4.398 11.16 4.804 11.346Z" fill="currentColor"/>
<path fill-rule="evenodd" clip-rule="evenodd" d="M12.014 7.23801L12.019 7.23901C12.938 7.52401 13.96 8.21301 13.958 9.42701C13.958 11.434 11.063 13.962 6.712 13.962C3.393 13.962 0 12.352 0 9.70801C0 8.32301 0.876 6.72301 2.384 5.21501C4.4 3.19901 6.751 2.28001 7.634 3.16501C8.024 3.55701 8.061 4.23001 7.811 5.03501C7.679 5.44001 8.191 5.21701 8.191 5.21701C9.821 4.53501 11.242 4.49501 11.761 5.23701C12.039 5.63401 12.013 6.18801 11.757 6.83101C11.641 7.12401 11.792 7.17101 12.014 7.23801V7.23801ZM1.614 10.339C1.786 12.077 4.074 13.275 6.723 13.013C9.37 12.753 11.379 11.13 11.205 9.39001C11.035 7.65201 8.747 6.45301 6.098 6.71601C3.451 6.97901 1.442 8.59901 1.614 10.339V10.339Z" fill="currentColor"/>
<path d="M13.295 3.8549C13.0528 3.58582 12.7438 3.38549 12.3993 3.27417C12.0547 3.16284 11.6869 3.14446 11.333 3.2209C11.2653 3.23528 11.2011 3.26285 11.1441 3.30204C11.0871 3.34123 11.0383 3.39127 11.0006 3.44931C10.9244 3.56652 10.898 3.70918 10.927 3.8459C10.9561 3.98262 11.0382 4.1022 11.1554 4.17834C11.2727 4.25448 11.4153 4.28094 11.552 4.2519C11.7251 4.21486 11.9048 4.22403 12.0732 4.27849C12.2415 4.33294 12.3926 4.43076 12.5112 4.56211C12.6298 4.69346 12.7117 4.85371 12.7487 5.02675C12.7857 5.1998 12.7765 5.37953 12.722 5.5479C12.6789 5.68117 12.6905 5.8261 12.7543 5.95081C12.8181 6.07552 12.9288 6.1698 13.062 6.2129C13.1953 6.25599 13.3402 6.24438 13.4649 6.18062C13.5897 6.11686 13.6839 6.00617 13.727 5.8729C13.8387 5.52823 13.8575 5.16023 13.7817 4.80596C13.7058 4.4517 13.538 4.12366 13.295 3.8549V3.8549Z" fill="currentColor"/>
</g>
<defs>
<clipPath id="clip0_1419_1980">
<rect width="16" height="16" fill="white"/>
</clipPath>
</defs>
</svg>
