<svg width="16" height="16" viewBox="0 0 16 16" fill="none" xmlns="http://www.w3.org/2000/svg">
<g clip-path="url(#clip0_1419_1981)">
<path d="M4.67097 0C5.55097 0 6.40397 0.247 7.13897 0.702C8.23676 0.585156 9.34678 0.714648 10.3882 1.08105C11.4296 1.44744 12.3762 2.04152 13.159 2.82C13.8452 3.50418 14.3898 4.31693 14.7616 5.21177C15.1335 6.10661 15.3252 7.06598 15.326 8.035C15.326 8.379 15.302 8.722 15.254 9.061C15.6462 9.75734 15.8528 10.5428 15.854 11.342C15.854 11.9543 15.7329 12.5605 15.4978 13.1258C15.2627 13.6911 14.9181 14.2043 14.484 14.636C13.6069 15.5106 12.4185 16.0012 11.18 16C10.34 16 9.52197 15.774 8.80997 15.356C7.69794 15.4888 6.57028 15.3682 5.51146 15.0033C4.45264 14.6384 3.49011 14.0387 2.69597 13.249C2.00995 12.5649 1.46548 11.7523 1.09365 10.8576C0.721826 9.96298 0.529944 9.00384 0.528971 8.035C0.528971 7.672 0.554971 7.311 0.608971 6.954C0.104464 6.06802 -0.0944616 5.04063 0.0428904 4.03037C0.180242 3.02011 0.646238 2.08313 1.36897 1.364C2.24572 0.490822 3.43259 0.000398173 4.66997 0L4.67097 0ZM5.11797 7.01C5.29797 7.319 5.54797 7.582 5.84697 7.779C6.24305 8.0382 6.66417 8.25696 7.10397 8.432C7.59597 8.637 7.97697 8.812 8.24897 8.955C8.47797 9.067 8.68597 9.219 8.86397 9.403C8.99897 9.545 9.07397 9.734 9.07397 9.931C9.0796 10.0695 9.05214 10.2073 8.99389 10.333C8.93563 10.4587 8.84824 10.5688 8.73897 10.654C8.44797 10.85 8.09897 10.943 7.74897 10.918C7.38919 10.9221 7.03244 10.852 6.70097 10.712C6.5215 10.6322 6.3441 10.5479 6.16897 10.459C5.98807 10.3629 5.7868 10.3115 5.58197 10.309C5.3986 10.3014 5.21929 10.3644 5.08097 10.485C5.01486 10.5478 4.96319 10.6243 4.92952 10.7091C4.89585 10.7938 4.88099 10.8849 4.88597 10.976C4.88177 11.1485 4.93371 11.3176 5.03397 11.458C5.1549 11.6113 5.31143 11.7329 5.48997 11.812C6.18702 12.1143 6.94266 12.2574 7.70197 12.231C8.2549 12.242 8.80522 12.1522 9.32597 11.966C9.75784 11.8128 10.134 11.5338 10.406 11.165C10.673 10.775 10.808 10.31 10.792 9.838C10.8024 9.45228 10.7058 9.07121 10.513 8.737C10.3172 8.4193 10.0536 8.14883 9.74097 7.945C9.34477 7.68942 8.92442 7.47338 8.48597 7.3C8.43914 7.27709 8.39068 7.25771 8.34097 7.242C7.99884 7.10332 7.66102 6.95425 7.32797 6.795C7.12583 6.70009 6.94281 6.56892 6.78797 6.408C6.65784 6.27108 6.58611 6.08889 6.58797 5.9C6.58157 5.75606 6.61392 5.61304 6.68164 5.48587C6.74936 5.3587 6.84997 5.25203 6.97297 5.177C7.26501 5.0029 7.60122 4.91711 7.94097 4.93C8.20097 4.927 8.46097 4.96 8.71297 5.026C8.98697 5.105 9.25497 5.203 9.51497 5.319C9.61997 5.368 9.73497 5.394 9.85097 5.395C9.93561 5.39708 10.0197 5.38123 10.0978 5.34848C10.1759 5.31574 10.2461 5.26684 10.304 5.205C10.4273 5.07004 10.4921 4.89165 10.484 4.709C10.487 4.53496 10.4265 4.36577 10.314 4.233C10.1601 4.07164 9.96928 3.95014 9.75797 3.879C9.52861 3.79471 9.29145 3.73341 9.04997 3.696C8.71218 3.64072 8.37025 3.61462 8.02797 3.618C7.50492 3.61468 6.98524 3.70197 6.49197 3.876C6.03825 4.02903 5.63317 4.29954 5.31797 4.66C5.01475 5.01903 4.85453 5.47725 4.86797 5.947C4.85797 6.317 4.94397 6.683 5.11797 7.01V7.01Z" fill="#1B1B1B"/>
</g>
<defs>
<clipPath id="clip0_1419_1981">
<rect width="16" height="16" fill="white"/>
</clipPath>
</defs>
</svg>
