<svg width="16" height="16" viewBox="0 0 16 16" fill="none" xmlns="http://www.w3.org/2000/svg">
<g clip-path="url(#clip0_1419_1748)">
<path d="M14 1C14.2652 1 14.5196 1.10536 14.7071 1.29289C14.8946 1.48043 15 1.73478 15 2V14C15 14.2652 14.8946 14.5196 14.7071 14.7071C14.5196 14.8946 14.2652 15 14 15H2C1.73478 15 1.48043 14.8946 1.29289 14.7071C1.10536 14.5196 1 14.2652 1 14V2C1 1.73478 1.10536 1.48043 1.29289 1.29289C1.48043 1.10536 1.73478 1 2 1H14ZM2 0C1.46957 0 0.960859 0.210714 0.585786 0.585786C0.210714 0.960859 0 1.46957 0 2L0 14C0 14.5304 0.210714 15.0391 0.585786 15.4142C0.960859 15.7893 1.46957 16 2 16H14C14.5304 16 15.0391 15.7893 15.4142 15.4142C15.7893 15.0391 16 14.5304 16 14V2C16 1.46957 15.7893 0.960859 15.4142 0.585786C15.0391 0.210714 14.5304 0 14 0L2 0Z" fill="#1B1B1B"/>
<path d="M11.354 4.64592C11.4006 4.69236 11.4375 4.74754 11.4627 4.80828C11.4879 4.86903 11.5009 4.93415 11.5009 4.99992C11.5009 5.06568 11.4879 5.13081 11.4627 5.19155C11.4375 5.2523 11.4006 5.30747 11.354 5.35392L5.35401 11.3539C5.26012 11.4478 5.13278 11.5005 5.00001 11.5005C4.86723 11.5005 4.73989 11.4478 4.64601 11.3539C4.55212 11.26 4.49937 11.1327 4.49937 10.9999C4.49937 10.8671 4.55212 10.7398 4.64601 10.6459L10.646 4.64592C10.6925 4.59935 10.7476 4.56241 10.8084 4.5372C10.8691 4.512 10.9342 4.49902 11 4.49902C11.0658 4.49902 11.1309 4.512 11.1916 4.5372C11.2524 4.56241 11.3076 4.59935 11.354 4.64592V4.64592Z" fill="#1B1B1B"/>
</g>
<defs>
<clipPath id="clip0_1419_1748">
<rect width="16" height="16" fill="white"/>
</clipPath>
</defs>
</svg>
