<svg width="16" height="16" viewBox="0 0 16 16" fill="none" xmlns="http://www.w3.org/2000/svg">
<path d="M11.354 4.64592C11.4006 4.69236 11.4375 4.74754 11.4627 4.80828C11.4879 4.86903 11.5009 4.93415 11.5009 4.99992C11.5009 5.06568 11.4879 5.13081 11.4627 5.19155C11.4375 5.2523 11.4006 5.30747 11.354 5.35392L5.35399 11.3539C5.2601 11.4478 5.13277 11.5005 4.99999 11.5005C4.86722 11.5005 4.73988 11.4478 4.64599 11.3539C4.5521 11.26 4.49936 11.1327 4.49936 10.9999C4.49936 10.8671 4.5521 10.7398 4.64599 10.6459L10.646 4.64592C10.6924 4.59935 10.7476 4.56241 10.8084 4.5372C10.8691 4.512 10.9342 4.49902 11 4.49902C11.0658 4.49902 11.1309 4.512 11.1916 4.5372C11.2524 4.56241 11.3075 4.59935 11.354 4.64592V4.64592Z" fill="#1B1B1B"/>
</svg>
