<svg width="16" height="16" viewBox="0 0 16 16" fill="none" xmlns="http://www.w3.org/2000/svg">
<g clip-path="url(#clip0_1419_1983)">
<path d="M15.943 11.526C15.832 11.223 15.62 11.061 15.379 10.927C15.339 10.9037 15.298 10.8823 15.256 10.863L15.037 10.752C14.285 10.353 13.698 9.85 13.291 9.254C13.1752 9.08638 13.0748 8.90866 12.991 8.723C12.957 8.623 12.959 8.567 12.983 8.516C13.008 8.47629 13.041 8.44224 13.08 8.416C13.209 8.33 13.342 8.243 13.432 8.185C13.594 8.081 13.721 7.998 13.803 7.94C14.112 7.724 14.328 7.494 14.463 7.238C14.557 7.06093 14.6119 6.86567 14.6238 6.66551C14.6357 6.46536 14.6044 6.26498 14.532 6.078C14.327 5.54 13.819 5.206 13.203 5.206C13.0385 5.20567 12.8746 5.22753 12.716 5.271C12.722 4.903 12.714 4.514 12.681 4.132C12.565 2.788 12.094 2.084 11.604 1.522C11.2898 1.17019 10.9199 0.872537 10.509 0.641C9.76397 0.216 8.91997 0 7.99897 0C7.07897 0 6.23897 0.216 5.49397 0.641C5.08197 0.873 4.71197 1.171 4.39697 1.524C3.90697 2.086 3.43697 2.791 3.31997 4.134C3.28697 4.516 3.27997 4.906 3.28397 5.272C3.1253 5.22854 2.96149 5.20668 2.79697 5.207C2.18197 5.207 1.67297 5.542 1.46897 6.08C1.39616 6.26699 1.36446 6.46746 1.37602 6.6678C1.38758 6.86813 1.44213 7.06363 1.53597 7.241C1.67197 7.497 1.88797 7.727 2.19597 7.942C2.27797 8 2.40597 8.082 2.56697 8.188L2.90597 8.409C2.94947 8.4378 2.98657 8.47524 3.01497 8.519C3.04097 8.572 3.04197 8.629 3.00297 8.736C2.92027 8.91775 2.82155 9.09177 2.70797 9.256C2.30997 9.839 1.73997 10.333 1.01197 10.728C0.62697 10.932 0.22597 11.068 0.0569699 11.528C-0.0710301 11.876 0.0129699 12.271 0.33697 12.603C0.45597 12.728 0.59397 12.833 0.74597 12.913C1.06179 13.0865 1.39761 13.2208 1.74597 13.313C1.81789 13.3314 1.88618 13.3619 1.94797 13.403C2.06597 13.507 2.04997 13.663 2.20697 13.891C2.28597 14.009 2.38697 14.111 2.50297 14.191C2.83297 14.42 3.20397 14.434 3.59797 14.449C3.95297 14.463 4.35597 14.479 4.81497 14.629C5.00497 14.693 5.20397 14.815 5.43297 14.957C5.98297 15.295 6.73797 15.759 7.99897 15.759C9.26097 15.759 10.019 15.293 10.575 14.953C10.802 14.813 10.999 14.693 11.184 14.632C11.644 14.48 12.047 14.464 12.402 14.451C12.795 14.436 13.166 14.421 13.497 14.193C13.6347 14.0966 13.7495 13.9709 13.833 13.825C13.947 13.633 13.943 13.498 14.05 13.405C14.108 13.3655 14.1722 13.3361 14.24 13.318C14.5933 13.2255 14.9338 13.0898 15.254 12.914C15.414 12.827 15.56 12.714 15.683 12.578L15.687 12.573C15.991 12.248 16.067 11.864 15.943 11.526V11.526ZM14.822 12.128C14.138 12.506 13.683 12.465 13.329 12.693C13.029 12.886 13.207 13.303 12.989 13.453C12.72 13.639 11.928 13.441 10.904 13.779C10.059 14.058 9.51997 14.861 8.00097 14.861C6.48197 14.861 5.95597 14.06 5.09697 13.777C4.07497 13.439 3.28097 13.637 3.01297 13.452C2.79497 13.302 2.97197 12.884 2.67197 12.691C2.31797 12.463 1.86297 12.504 1.17997 12.128C0.74397 11.888 0.99097 11.738 1.13597 11.668C3.61397 10.469 4.00897 8.618 4.02597 8.48C4.04797 8.314 4.07097 8.183 3.88797 8.014C3.71097 7.85 2.92597 7.364 2.70797 7.212C2.34797 6.96 2.18797 6.709 2.30597 6.4C2.38797 6.186 2.58697 6.105 2.79597 6.105C2.86223 6.10529 2.92827 6.11267 2.99297 6.127C3.38897 6.213 3.77297 6.412 3.99497 6.465C4.02197 6.472 4.04897 6.475 4.07697 6.476C4.19497 6.476 4.23697 6.416 4.22897 6.281C4.20297 5.848 4.14197 5.004 4.20997 4.215C4.30397 3.131 4.65397 2.593 5.06897 2.118C5.26897 1.889 6.20597 0.898 7.99897 0.898C9.79097 0.898 10.731 1.885 10.93 2.113C11.346 2.588 11.696 3.126 11.789 4.211C11.857 4.999 11.798 5.843 11.77 6.276C11.76 6.418 11.804 6.471 11.922 6.471C11.9496 6.47092 11.9771 6.46756 12.004 6.461C12.226 6.407 12.611 6.208 13.006 6.123C13.0706 6.10819 13.1367 6.10048 13.203 6.1C13.413 6.1 13.612 6.182 13.693 6.395C13.81 6.704 13.653 6.955 13.292 7.207C13.074 7.359 12.289 7.845 12.112 8.009C11.928 8.178 11.952 8.309 11.973 8.475C11.991 8.615 12.386 10.466 14.863 11.664C15.01 11.737 15.257 11.886 14.822 12.128V12.128Z" fill="currentColor"/>
</g>
<defs>
<clipPath id="clip0_1419_1983">
<rect width="16" height="16" fill="white"/>
</clipPath>
</defs>
</svg>
