<svg width="16" height="16" viewBox="0 0 16 16" fill="none" xmlns="http://www.w3.org/2000/svg">
<path d="M8.00007 16C7.86746 16 7.74028 15.9473 7.64652 15.8536C7.55275 15.7598 7.50007 15.6326 7.50007 15.5V14.207L6.85407 14.854C6.76018 14.9478 6.6329 15.0004 6.50022 15.0003C6.36753 15.0002 6.24032 14.9474 6.14657 14.8535C6.05282 14.7596 6.0002 14.6323 6.00029 14.4996C6.00039 14.367 6.05318 14.2398 6.14707 14.146L7.50007 12.793V11.707L6.85407 12.354C6.80758 12.4004 6.75241 12.4372 6.69169 12.4623C6.63098 12.4874 6.56591 12.5003 6.50022 12.5003C6.36753 12.5002 6.24032 12.4474 6.14657 12.3535C6.05282 12.2596 6.0002 12.1323 6.00029 11.9996C6.00039 11.867 6.05318 11.7398 6.14707 11.646L7.50007 10.293V8.866L6.26407 9.579L5.76907 11.429C5.752 11.4924 5.7226 11.5519 5.68255 11.6039C5.64251 11.656 5.5926 11.6997 5.53568 11.7325C5.47876 11.7652 5.41593 11.7865 5.3508 11.795C5.28567 11.8035 5.2195 11.7991 5.15607 11.782C5.09264 11.7649 5.0332 11.7355 4.98113 11.6955C4.92906 11.6554 4.88539 11.6055 4.85261 11.5486C4.81983 11.4917 4.79859 11.4289 4.79009 11.3637C4.78159 11.2986 4.786 11.2324 4.80307 11.169L5.04007 10.287L4.10007 10.829L3.60407 12.679C3.56959 12.8071 3.48564 12.9163 3.37068 12.9825C3.25572 13.0487 3.11917 13.0665 2.99107 13.032C2.86297 12.9975 2.75381 12.9136 2.68761 12.7986C2.62141 12.6836 2.60359 12.5471 2.63807 12.419L2.87507 11.537L1.75507 12.183C1.64029 12.2483 1.50436 12.2655 1.37694 12.2309C1.24952 12.1963 1.14095 12.1127 1.07493 11.9983C1.00891 11.884 0.990803 11.7482 1.02455 11.6205C1.0583 11.4929 1.14117 11.3838 1.25507 11.317L2.37507 10.671L1.49107 10.434C1.42764 10.4169 1.3682 10.3875 1.31613 10.3475C1.26406 10.3074 1.22039 10.2575 1.18761 10.2006C1.15483 10.1437 1.13359 10.0809 1.12509 10.0157C1.11659 9.9506 1.121 9.88443 1.13807 9.821C1.15514 9.75757 1.18454 9.69813 1.22458 9.64606C1.26463 9.59399 1.31454 9.55032 1.37146 9.51754C1.42838 9.48476 1.4912 9.46352 1.55634 9.45502C1.62147 9.44652 1.68764 9.45093 1.75107 9.468L3.59907 9.963L4.53907 9.421L3.65707 9.184C3.59267 9.16795 3.53212 9.13924 3.47893 9.09955C3.42575 9.05986 3.38099 9.00997 3.34729 8.9528C3.31358 8.89564 3.29159 8.83233 3.2826 8.76658C3.27361 8.70083 3.27779 8.63394 3.29492 8.56982C3.31204 8.50571 3.34176 8.44564 3.38234 8.39312C3.42292 8.34061 3.47354 8.2967 3.53127 8.26395C3.58899 8.2312 3.65265 8.21028 3.71855 8.20239C3.78444 8.1945 3.85125 8.19981 3.91507 8.218L5.76507 8.713L7.00007 8L5.76407 7.287L3.91507 7.782C3.85125 7.8002 3.78444 7.8055 3.71855 7.79761C3.65265 7.78972 3.58899 7.7688 3.53127 7.73605C3.47354 7.7033 3.42292 7.65939 3.38234 7.60688C3.34176 7.55436 3.31204 7.49429 3.29492 7.43018C3.27779 7.36606 3.27361 7.29917 3.2826 7.23342C3.29159 7.16767 3.31358 7.10436 3.34729 7.0472C3.38099 6.99003 3.42575 6.94014 3.47893 6.90045C3.53212 6.86076 3.59267 6.83205 3.65707 6.816L4.54007 6.579L3.60007 6.037L1.75007 6.532C1.6228 6.56372 1.48817 6.54416 1.37519 6.47754C1.26221 6.41092 1.17993 6.30258 1.14609 6.17586C1.11224 6.04914 1.12954 5.9142 1.19426 5.80012C1.25898 5.68604 1.36594 5.60196 1.49207 5.566L2.37507 5.329L1.25507 4.683C1.19775 4.65041 1.14744 4.6068 1.10704 4.55469C1.06664 4.50257 1.03694 4.44298 1.01966 4.37935C1.00239 4.31571 0.997869 4.24928 1.00637 4.18389C1.01487 4.1185 1.03622 4.05544 1.06919 3.99834C1.10216 3.94123 1.1461 3.89121 1.19848 3.85116C1.25086 3.8111 1.31065 3.7818 1.3744 3.76495C1.43815 3.7481 1.5046 3.74402 1.56993 3.75295C1.63526 3.76188 1.69818 3.78365 1.75507 3.817L2.87507 4.463L2.63807 3.58C2.60635 3.45273 2.62591 3.3181 2.69253 3.20512C2.75915 3.09214 2.86749 3.00986 2.99421 2.97602C3.12093 2.94217 3.25587 2.95947 3.36995 3.02419C3.48403 3.08891 3.56811 3.19587 3.60407 3.322L4.09907 5.171L5.03907 5.713L4.80307 4.83C4.77135 4.70273 4.79091 4.5681 4.85753 4.45512C4.92415 4.34214 5.03249 4.25986 5.15921 4.22602C5.28593 4.19217 5.42087 4.20947 5.53495 4.27419C5.64903 4.33891 5.73311 4.44587 5.76907 4.572L6.26407 6.421L7.50007 7.134V5.707L6.14707 4.354C6.05318 4.26025 6.00039 4.13304 6.00029 4.00035C6.0002 3.86767 6.05282 3.74039 6.14657 3.6465C6.24032 3.55261 6.36753 3.49982 6.50022 3.49972C6.6329 3.49963 6.76018 3.55225 6.85407 3.646L7.50007 4.293V3.207L6.14707 1.854C6.10058 1.80758 6.06369 1.75245 6.03851 1.69177C6.01332 1.6311 6.00034 1.56605 6.00029 1.50035C6.00024 1.43466 6.01314 1.36959 6.03824 1.30888C6.06334 1.24816 6.10015 1.19299 6.14657 1.1465C6.19299 1.10001 6.24812 1.06312 6.30879 1.03794C6.36947 1.01275 6.43452 0.999768 6.50022 0.999722C6.56591 0.999676 6.63098 1.01257 6.69169 1.03767C6.75241 1.06277 6.80758 1.09958 6.85407 1.146L7.50007 1.793V0.5C7.50007 0.367392 7.55275 0.240215 7.64652 0.146447C7.74028 0.0526784 7.86746 0 8.00007 0C8.13268 0 8.25986 0.0526784 8.35362 0.146447C8.44739 0.240215 8.50007 0.367392 8.50007 0.5V1.793L9.14707 1.146C9.24096 1.05225 9.36824 0.999628 9.50092 0.999722C9.63361 0.999816 9.76082 1.05261 9.85457 1.1465C9.94832 1.24039 10.0009 1.36767 10.0008 1.50035C10.0008 1.63304 9.94796 1.76025 9.85407 1.854L8.50007 3.207V4.293L9.14707 3.646C9.24096 3.55225 9.36824 3.49963 9.50092 3.49972C9.63361 3.49982 9.76082 3.55261 9.85457 3.6465C9.94832 3.74039 10.0009 3.86767 10.0008 4.00035C10.0008 4.13304 9.94796 4.26025 9.85407 4.354L8.50007 5.707V7.134L9.73607 6.421L10.2311 4.571C10.2481 4.50757 10.2775 4.44813 10.3176 4.39606C10.3576 4.34399 10.4075 4.30032 10.4645 4.26754C10.5214 4.23476 10.5842 4.21352 10.6493 4.20502C10.7145 4.19652 10.7806 4.20093 10.8441 4.218C10.9075 4.23507 10.9669 4.26447 11.019 4.30451C11.0711 4.34456 11.1147 4.39447 11.1475 4.45139C11.1803 4.50831 11.2016 4.57113 11.2101 4.63627C11.2186 4.7014 11.2141 4.76757 11.1971 4.831L10.9611 5.713L11.9011 5.171L12.3961 3.321C12.4305 3.1929 12.5145 3.08374 12.6295 3.01754C12.7444 2.95134 12.881 2.93352 13.0091 2.968C13.1372 3.00248 13.2463 3.08643 13.3125 3.20139C13.3787 3.31635 13.3965 3.4529 13.3621 3.581L13.1261 4.463L14.2461 3.817C14.3608 3.75174 14.4968 3.73453 14.6242 3.76913C14.7516 3.80372 14.8602 3.88731 14.9262 4.00165C14.9922 4.116 15.0103 4.25181 14.9766 4.37946C14.9428 4.50711 14.86 4.61622 14.7461 4.683L13.6261 5.329L14.5091 5.566C14.6372 5.60048 14.7463 5.68443 14.8125 5.79939C14.8787 5.91435 14.8965 6.0509 14.8621 6.179C14.8276 6.3071 14.7436 6.41626 14.6287 6.48246C14.5137 6.54866 14.3772 6.56648 14.2491 6.532L12.4011 6.037L11.4611 6.579L12.3441 6.816C12.4722 6.85048 12.5813 6.93443 12.6475 7.04939C12.7137 7.16435 12.7315 7.3009 12.6971 7.429C12.6626 7.5571 12.5786 7.66626 12.4637 7.73246C12.3487 7.79866 12.2122 7.81648 12.0841 7.782L10.2361 7.287L9.00007 8L10.2361 8.713L12.0851 8.218C12.2132 8.18365 12.3497 8.2016 12.4645 8.2679C12.5794 8.33419 12.6632 8.4434 12.6976 8.5715C12.7319 8.6996 12.714 8.8361 12.6477 8.95096C12.5814 9.06583 12.4722 9.14965 12.3441 9.184L11.4611 9.421L12.4011 9.963L14.2501 9.468C14.3782 9.43365 14.5147 9.4516 14.6295 9.5179C14.7444 9.58419 14.8282 9.6934 14.8626 9.8215C14.8969 9.9496 14.879 10.0861 14.8127 10.201C14.7464 10.3158 14.6372 10.3997 14.5091 10.434L13.6261 10.671L14.7461 11.317C14.86 11.3838 14.9428 11.4929 14.9766 11.6205C15.0103 11.7482 14.9922 11.884 14.9262 11.9983C14.8602 12.1127 14.7516 12.1963 14.6242 12.2309C14.4968 12.2655 14.3608 12.2483 14.2461 12.183L13.1261 11.537L13.3621 12.42C13.3803 12.4838 13.3856 12.5506 13.3777 12.6165C13.3698 12.6824 13.3489 12.7461 13.3161 12.8038C13.2834 12.8615 13.2395 12.9122 13.1869 12.9527C13.1344 12.9933 13.0744 13.023 13.0102 13.0402C12.9461 13.0573 12.8792 13.0615 12.8135 13.0525C12.7477 13.0435 12.6844 13.0215 12.6273 12.9878C12.5701 12.9541 12.5202 12.9093 12.4805 12.8561C12.4408 12.803 12.4121 12.7424 12.3961 12.678L11.9011 10.829L10.9611 10.287L11.1971 11.17C11.2288 11.2973 11.2092 11.4319 11.1426 11.5449C11.076 11.6579 10.9676 11.7401 10.8409 11.774C10.7142 11.8078 10.5793 11.7905 10.4652 11.7258C10.3511 11.6611 10.267 11.5541 10.2311 11.428L9.73607 9.58L8.50007 8.866V10.293L9.85407 11.646C9.94796 11.7398 10.0008 11.867 10.0008 11.9996C10.0009 12.1323 9.94832 12.2596 9.85457 12.3535C9.76082 12.4474 9.63361 12.5002 9.50092 12.5003C9.36824 12.5004 9.24096 12.4478 9.14707 12.354L8.50007 11.707V12.793L9.85407 14.146C9.94796 14.2398 10.0008 14.367 10.0008 14.4996C10.0009 14.6323 9.94832 14.7596 9.85457 14.8535C9.76082 14.9474 9.63361 15.0002 9.50092 15.0003C9.36824 15.0004 9.24096 14.9478 9.14707 14.854L8.50007 14.207V15.5C8.50007 15.6326 8.44739 15.7598 8.35362 15.8536C8.25986 15.9473 8.13268 16 8.00007 16V16Z" fill="currentColor"/>
</svg>
