<svg width="16" height="16" viewBox="0 0 16 16" fill="none" xmlns="http://www.w3.org/2000/svg">
<path d="M8.00007 16C7.86746 16 7.74028 15.9473 7.64652 15.8536C7.55275 15.7598 7.50007 15.6326 7.50007 15.5V14.207L6.85407 14.854C6.76018 14.9478 6.6329 15.0004 6.50022 15.0003C6.36753 15.0002 6.24032 14.9474 6.14657 14.8535C6.05282 14.7596 6.0002 14.6323 6.00029 14.4996C6.00039 14.367 6.05318 14.2398 6.14707 14.146L7.50007 12.793V8.866L4.10007 10.829L3.60407 12.679C3.56959 12.8071 3.48564 12.9163 3.37068 12.9825C3.25572 13.0487 3.11917 13.0665 2.99107 13.032C2.86297 12.9975 2.75381 12.9136 2.68761 12.7986C2.62141 12.6836 2.60359 12.5471 2.63807 12.419L2.87507 11.537L1.75507 12.183C1.64029 12.2483 1.50436 12.2655 1.37694 12.2309C1.24952 12.1963 1.14095 12.1127 1.07493 11.9983C1.00891 11.884 0.990803 11.7482 1.02455 11.6205C1.0583 11.4929 1.14117 11.3838 1.25507 11.317L2.37507 10.671L1.49107 10.434C1.42764 10.4169 1.3682 10.3875 1.31613 10.3475C1.26406 10.3074 1.22039 10.2575 1.18761 10.2006C1.15483 10.1437 1.13359 10.0809 1.12509 10.0157C1.11659 9.9506 1.121 9.88443 1.13807 9.821C1.15514 9.75757 1.18454 9.69813 1.22458 9.64606C1.26463 9.59399 1.31454 9.55032 1.37146 9.51754C1.42838 9.48476 1.4912 9.46352 1.55634 9.45502C1.62147 9.44652 1.68764 9.45093 1.75107 9.468L3.59907 9.963L7.00007 8L3.60007 6.037L1.75007 6.532C1.6228 6.56372 1.48817 6.54416 1.37519 6.47754C1.26221 6.41092 1.17993 6.30258 1.14609 6.17586C1.11224 6.04914 1.12954 5.9142 1.19426 5.80012C1.25898 5.68604 1.36594 5.60196 1.49207 5.566L2.37507 5.329L1.25507 4.683C1.19775 4.65041 1.14744 4.6068 1.10704 4.55469C1.06664 4.50257 1.03694 4.44298 1.01966 4.37935C1.00239 4.31571 0.997869 4.24928 1.00637 4.18389C1.01487 4.1185 1.03622 4.05544 1.06919 3.99834C1.10216 3.94123 1.1461 3.89121 1.19848 3.85116C1.25086 3.8111 1.31065 3.7818 1.3744 3.76495C1.43815 3.7481 1.5046 3.74402 1.56993 3.75295C1.63526 3.76188 1.69818 3.78365 1.75507 3.817L2.87507 4.463L2.63807 3.58C2.61987 3.51618 2.61457 3.44937 2.62246 3.38348C2.63035 3.31758 2.65127 3.25392 2.68402 3.1962C2.71677 3.13847 2.76068 3.08785 2.81319 3.04727C2.86571 3.00669 2.92578 2.97697 2.98989 2.95985C3.05401 2.94272 3.1209 2.93854 3.18665 2.94753C3.2524 2.95652 3.31571 2.97851 3.37287 3.01222C3.43004 3.04593 3.47993 3.09068 3.51962 3.14386C3.55931 3.19705 3.58802 3.2576 3.60407 3.322L4.09907 5.171L7.50007 7.134V3.207L6.14707 1.854C6.10058 1.80758 6.06369 1.75245 6.03851 1.69177C6.01332 1.6311 6.00034 1.56605 6.00029 1.50035C6.00024 1.43466 6.01314 1.36959 6.03824 1.30888C6.06334 1.24816 6.10015 1.19299 6.14657 1.1465C6.19299 1.10001 6.24812 1.06312 6.30879 1.03794C6.36947 1.01275 6.43452 0.999768 6.50022 0.999722C6.56591 0.999676 6.63098 1.01257 6.69169 1.03767C6.75241 1.06277 6.80758 1.09958 6.85407 1.146L7.50007 1.793V0.5C7.50007 0.367392 7.55275 0.240215 7.64652 0.146447C7.74028 0.0526784 7.86746 0 8.00007 0C8.13268 0 8.25986 0.0526784 8.35362 0.146447C8.44739 0.240215 8.50007 0.367392 8.50007 0.5V1.793L9.14707 1.146C9.24096 1.05225 9.36824 0.999628 9.50092 0.999722C9.63361 0.999816 9.76082 1.05261 9.85457 1.1465C9.94832 1.24039 10.0009 1.36767 10.0008 1.50035C10.0008 1.63304 9.94796 1.76025 9.85407 1.854L8.50007 3.207V7.134L11.9001 5.171L12.3961 3.321C12.4305 3.1929 12.5145 3.08374 12.6295 3.01754C12.7444 2.95134 12.881 2.93352 13.0091 2.968C13.1372 3.00248 13.2463 3.08643 13.3125 3.20139C13.3787 3.31635 13.3965 3.4529 13.3621 3.581L13.1261 4.463L14.2461 3.817C14.3608 3.75174 14.4968 3.73453 14.6242 3.76913C14.7516 3.80372 14.8602 3.88731 14.9262 4.00165C14.9922 4.116 15.0103 4.25181 14.9766 4.37946C14.9428 4.50711 14.86 4.61622 14.7461 4.683L13.6261 5.329L14.5091 5.566C14.6372 5.60048 14.7463 5.68443 14.8125 5.79939C14.8787 5.91435 14.8965 6.0509 14.8621 6.179C14.8276 6.3071 14.7436 6.41626 14.6287 6.48246C14.5137 6.54866 14.3772 6.56648 14.2491 6.532L12.4011 6.037L9.00007 8L12.4001 9.963L14.2491 9.468C14.3772 9.43365 14.5137 9.4516 14.6285 9.5179C14.7434 9.58419 14.8272 9.6934 14.8616 9.8215C14.8959 9.9496 14.878 10.0861 14.8117 10.201C14.7454 10.3158 14.6362 10.3997 14.5081 10.434L13.6251 10.671L14.7451 11.317C14.859 11.3838 14.9418 11.4929 14.9756 11.6205C15.0093 11.7482 14.9912 11.884 14.9252 11.9983C14.8592 12.1127 14.7506 12.1963 14.6232 12.2309C14.4958 12.2655 14.3598 12.2483 14.2451 12.183L13.1251 11.537L13.3611 12.42C13.3793 12.4838 13.3846 12.5506 13.3767 12.6165C13.3688 12.6824 13.3479 12.7461 13.3151 12.8038C13.2824 12.8615 13.2385 12.9122 13.1859 12.9527C13.1334 12.9933 13.0734 13.023 13.0092 13.0402C12.9451 13.0573 12.8782 13.0615 12.8125 13.0525C12.7467 13.0435 12.6834 13.0215 12.6263 12.9878C12.5691 12.9541 12.5192 12.9093 12.4795 12.8561C12.4398 12.803 12.4111 12.7424 12.3951 12.678L11.9001 10.829L8.50007 8.866V12.793L9.85307 14.146C9.94696 14.2398 9.99975 14.367 9.99985 14.4996C9.99994 14.6323 9.94732 14.7596 9.85357 14.8535C9.75982 14.9474 9.6326 15.0002 9.49992 15.0003C9.36724 15.0004 9.23996 14.9478 9.14607 14.854L8.49907 14.207V15.5C8.49907 15.6326 8.44639 15.7598 8.35262 15.8536C8.25885 15.9473 8.13168 16 7.99907 16H8.00007Z" fill="currentColor"/>
</svg>
