<svg width="16" height="16" viewBox="0 0 16 16" fill="none" xmlns="http://www.w3.org/2000/svg">
<path d="M12.4381 1.66797V6.99997H11.3901V2.68397H11.3391L10.1281 3.54297V2.57397L11.3901 1.66797H12.4361H12.4381Z" fill="currentColor"/>
<path fill-rule="evenodd" clip-rule="evenodd" d="M11.36 14.098C10.223 14.098 9.65202 13.441 9.59802 12.82H10.602C10.66 13.043 10.945 13.27 11.375 13.27C12.199 13.27 12.539 12.441 12.508 11.414H12.449C12.301 11.804 11.879 12.156 11.188 12.156C10.278 12.156 9.46802 11.543 9.46802 10.398C9.46802 9.24999 10.316 8.56299 11.441 8.56299C12.531 8.56299 13.504 9.19899 13.504 11.25C13.504 13.117 12.781 14.098 11.359 14.098H11.36ZM11.422 11.363C11.926 11.363 12.355 11.027 12.355 10.391C12.355 9.75799 11.957 9.38299 11.415 9.38299C10.895 9.38299 10.488 9.75799 10.488 10.383C10.488 11.023 10.906 11.363 11.422 11.363V11.363Z" fill="currentColor"/>
<path d="M4.50002 2.5C4.50002 2.36739 4.44734 2.24021 4.35357 2.14645C4.25981 2.05268 4.13263 2 4.00002 2C3.86741 2 3.74024 2.05268 3.64647 2.14645C3.5527 2.24021 3.50002 2.36739 3.50002 2.5V12.293L2.35402 11.146C2.30753 11.0995 2.25234 11.0626 2.1916 11.0375C2.13087 11.0123 2.06577 10.9994 2.00002 10.9994C1.93428 10.9994 1.86918 11.0123 1.80844 11.0375C1.7477 11.0626 1.69251 11.0995 1.64602 11.146C1.59953 11.1925 1.56266 11.2477 1.5375 11.3084C1.51234 11.3692 1.49939 11.4343 1.49939 11.5C1.49939 11.5657 1.51234 11.6308 1.5375 11.6916C1.56266 11.7523 1.59953 11.8075 1.64602 11.854L3.64602 13.853L3.65302 13.86C3.7469 13.9515 3.87314 14.0023 4.00426 14.0011C4.13537 14 4.26073 13.9471 4.35302 13.854L6.35302 11.854C6.44691 11.7602 6.49971 11.633 6.4998 11.5004C6.49989 11.3677 6.44728 11.2404 6.35352 11.1465C6.25977 11.0526 6.13256 10.9998 5.99988 10.9997C5.86719 10.9996 5.73991 11.0522 5.64602 11.146L4.50002 12.293V2.5Z" fill="currentColor"/>
</svg>
