<svg width="16" height="16" viewBox="0 0 16 16" fill="none" xmlns="http://www.w3.org/2000/svg">
<path d="M12.4381 1.66797V6.99997H11.3901V2.68397H11.3391L10.1281 3.54297V2.57397L11.3901 1.66797H12.4361H12.4381Z" fill="#1B1B1B"/>
<path fill-rule="evenodd" clip-rule="evenodd" d="M11.36 14.098C10.223 14.098 9.65202 13.441 9.59802 12.82H10.602C10.66 13.043 10.945 13.27 11.375 13.27C12.199 13.27 12.539 12.441 12.508 11.414H12.449C12.301 11.804 11.879 12.156 11.188 12.156C10.278 12.156 9.46802 11.543 9.46802 10.398C9.46802 9.24999 10.316 8.56299 11.441 8.56299C12.531 8.56299 13.504 9.19899 13.504 11.25C13.504 13.117 12.781 14.098 11.359 14.098H11.36ZM11.422 11.363C11.926 11.363 12.355 11.027 12.355 10.391C12.355 9.75799 11.957 9.38299 11.415 9.38299C10.895 9.38299 10.488 9.75799 10.488 10.383C10.488 11.023 10.906 11.363 11.422 11.363V11.363Z" fill="#1B1B1B"/>
<path d="M4.50002 13.5C4.50002 13.6326 4.44734 13.7598 4.35357 13.8536C4.25981 13.9473 4.13263 14 4.00002 14C3.86741 14 3.74024 13.9473 3.64647 13.8536C3.5527 13.7598 3.50002 13.6326 3.50002 13.5V3.70703L2.35402 4.85403C2.30753 4.90052 2.25234 4.93739 2.1916 4.96255C2.13087 4.98771 2.06577 5.00066 2.00002 5.00066C1.93428 5.00066 1.86918 4.98771 1.80844 4.96255C1.7477 4.93739 1.69251 4.90052 1.64602 4.85403C1.59953 4.80754 1.56266 4.75235 1.5375 4.69161C1.51234 4.63087 1.49939 4.56577 1.49939 4.50003C1.49939 4.43428 1.51234 4.36918 1.5375 4.30844C1.56266 4.2477 1.59953 4.19252 1.64602 4.14603L3.64602 2.14703L3.65302 2.14003C3.74702 2.04873 3.87322 1.99816 4.00425 1.99929C4.13529 2.00041 4.2606 2.05313 4.35302 2.14603L6.35302 4.14603C6.39951 4.19245 6.4364 4.24757 6.46158 4.30825C6.48677 4.36893 6.49975 4.43398 6.4998 4.49967C6.49985 4.56537 6.48695 4.63044 6.46185 4.69115C6.43675 4.75186 6.39994 4.80704 6.35352 4.85353C6.3071 4.90002 6.25197 4.93691 6.1913 4.96209C6.13062 4.98727 6.06557 5.00026 5.99988 5.00031C5.93418 5.00035 5.86911 4.98746 5.8084 4.96236C5.74769 4.93726 5.69251 4.90045 5.64602 4.85403L4.50002 3.70703V13.5Z" fill="#1B1B1B"/>
</svg>
