<svg width="16" height="16" viewBox="0 0 16 16" fill="none" xmlns="http://www.w3.org/2000/svg">
<path fill-rule="evenodd" clip-rule="evenodd" d="M11.36 7.09801C10.223 7.09801 9.65202 6.44101 9.59802 5.82001H10.602C10.66 6.04301 10.945 6.27001 11.375 6.27001C12.199 6.27001 12.539 5.44101 12.508 4.41401H12.449C12.301 4.80401 11.879 5.15601 11.188 5.15601C10.278 5.15601 9.46802 4.54301 9.46802 3.39801C9.46802 2.25001 10.316 1.56201 11.441 1.56201C12.531 1.56201 13.504 2.19901 13.504 4.25001C13.504 6.11701 12.781 7.09801 11.359 7.09801H11.36ZM11.422 4.36301C11.926 4.36301 12.355 4.02701 12.355 3.39101C12.355 2.75801 11.957 2.38301 11.415 2.38301C10.895 2.38301 10.488 2.75801 10.488 3.38301C10.488 4.02301 10.906 4.36301 11.422 4.36301Z" fill="currentColor"/>
<path d="M12.438 8.668V14H11.39V9.684H11.339L10.128 10.543V9.574L11.39 8.668H12.436H12.438ZM4.50002 2.5C4.50002 2.36739 4.44734 2.24021 4.35357 2.14645C4.25981 2.05268 4.13263 2 4.00002 2C3.86741 2 3.74024 2.05268 3.64647 2.14645C3.5527 2.24021 3.50002 2.36739 3.50002 2.5V12.293L2.35402 11.146C2.30753 11.0995 2.25234 11.0626 2.1916 11.0375C2.13087 11.0123 2.06577 10.9994 2.00002 10.9994C1.93428 10.9994 1.86918 11.0123 1.80844 11.0375C1.7477 11.0626 1.69251 11.0995 1.64602 11.146C1.59953 11.1925 1.56266 11.2477 1.5375 11.3084C1.51234 11.3692 1.49939 11.4343 1.49939 11.5C1.49939 11.5657 1.51234 11.6308 1.5375 11.6916C1.56266 11.7523 1.59953 11.8075 1.64602 11.854L3.64602 13.853L3.65302 13.86C3.7469 13.9515 3.87314 14.0023 4.00426 14.0011C4.13537 14 4.26073 13.9471 4.35302 13.854L6.35302 11.854C6.44691 11.7602 6.49971 11.633 6.4998 11.5004C6.49989 11.3677 6.44728 11.2404 6.35352 11.1465C6.25977 11.0526 6.13256 10.9998 5.99988 10.9997C5.86719 10.9996 5.73991 11.0522 5.64602 11.146L4.50002 12.293V2.5Z" fill="currentColor"/>
</svg>
