<svg width="16" height="16" viewBox="0 0 16 16" fill="none" xmlns="http://www.w3.org/2000/svg">
<path d="M3.50002 13.5C3.50002 13.6326 3.44734 13.7598 3.35357 13.8536C3.25981 13.9473 3.13263 14 3.00002 14C2.86741 14 2.74024 13.9473 2.64647 13.8536C2.5527 13.7598 2.50002 13.6326 2.50002 13.5V4.70703L1.35402 5.85403C1.30753 5.90052 1.25234 5.93739 1.1916 5.96255C1.13087 5.98771 1.06577 6.00066 1.00002 6.00066C0.867245 6.00066 0.739908 5.94791 0.646021 5.85403C0.552135 5.76014 0.49939 5.6328 0.49939 5.50003C0.49939 5.36725 0.552135 5.23991 0.646021 5.14603L2.64602 3.14703L2.65302 3.14003C2.74702 3.04873 2.87322 2.99816 3.00425 2.99929C3.13529 3.00041 3.2606 3.05313 3.35302 3.14603L5.35302 5.14603C5.39951 5.19245 5.4364 5.24757 5.46158 5.30825C5.48677 5.36893 5.49975 5.43398 5.4998 5.49967C5.49985 5.56537 5.48695 5.63044 5.46185 5.69115C5.43676 5.75186 5.39994 5.80704 5.35352 5.85353C5.3071 5.90002 5.25197 5.93691 5.1913 5.96209C5.13062 5.98727 5.06557 6.00026 4.99988 6.00031C4.93418 6.00035 4.86911 5.98746 4.8084 5.96236C4.74769 5.93726 4.69251 5.90045 4.64602 5.85403L3.50002 4.70703V13.5ZM7.50002 4.00003C7.36741 4.00003 7.24024 3.94735 7.14647 3.85358C7.0527 3.75981 7.00002 3.63264 7.00002 3.50003C7.00002 3.36742 7.0527 3.24024 7.14647 3.14647C7.24024 3.05271 7.36741 3.00003 7.50002 3.00003H8.50002C8.63263 3.00003 8.75981 3.05271 8.85357 3.14647C8.94734 3.24024 9.00002 3.36742 9.00002 3.50003C9.00002 3.63264 8.94734 3.75981 8.85357 3.85358C8.75981 3.94735 8.63263 4.00003 8.50002 4.00003H7.50002ZM7.50002 7.00003C7.36741 7.00003 7.24024 6.94735 7.14647 6.85358C7.0527 6.75981 7.00002 6.63264 7.00002 6.50003C7.00002 6.36742 7.0527 6.24024 7.14647 6.14647C7.24024 6.05271 7.36741 6.00003 7.50002 6.00003H10.5C10.6326 6.00003 10.7598 6.05271 10.8536 6.14647C10.9473 6.24024 11 6.36742 11 6.50003C11 6.63264 10.9473 6.75981 10.8536 6.85358C10.7598 6.94735 10.6326 7.00003 10.5 7.00003H7.50002ZM7.50002 10C7.36741 10 7.24024 9.94735 7.14647 9.85358C7.0527 9.75981 7.00002 9.63264 7.00002 9.50003C7.00002 9.36742 7.0527 9.24024 7.14647 9.14647C7.24024 9.05271 7.36741 9.00003 7.50002 9.00003H12.5C12.6326 9.00003 12.7598 9.05271 12.8536 9.14647C12.9473 9.24024 13 9.36742 13 9.50003C13 9.63264 12.9473 9.75981 12.8536 9.85358C12.7598 9.94735 12.6326 10 12.5 10H7.50002ZM7.00002 12.5C7.00002 12.6326 7.0527 12.7598 7.14647 12.8536C7.24024 12.9473 7.36741 13 7.50002 13H14.5C14.6326 13 14.7598 12.9473 14.8536 12.8536C14.9473 12.7598 15 12.6326 15 12.5C15 12.3674 14.9473 12.2402 14.8536 12.1465C14.7598 12.0527 14.6326 12 14.5 12H7.50002C7.36741 12 7.24024 12.0527 7.14647 12.1465C7.0527 12.2402 7.00002 12.3674 7.00002 12.5Z" fill="currentColor"/>
</svg>
