<svg width="16" height="16" viewBox="0 0 16 16" fill="none" xmlns="http://www.w3.org/2000/svg">
<path d="M3.50002 3.5C3.50002 3.36739 3.44734 3.24021 3.35357 3.14645C3.25981 3.05268 3.13263 3 3.00002 3C2.86741 3 2.74024 3.05268 2.64647 3.14645C2.5527 3.24021 2.50002 3.36739 2.50002 3.5V12.293L1.35402 11.146C1.30753 11.0995 1.25234 11.0626 1.1916 11.0375C1.13087 11.0123 1.06577 10.9994 1.00002 10.9994C0.934277 10.9994 0.869177 11.0123 0.808438 11.0375C0.747698 11.0626 0.692509 11.0995 0.646021 11.146C0.599533 11.1925 0.562657 11.2477 0.537498 11.3084C0.512339 11.3692 0.49939 11.4343 0.49939 11.5C0.49939 11.5657 0.512339 11.6308 0.537498 11.6916C0.562657 11.7523 0.599533 11.8075 0.646021 11.854L2.64602 13.853L2.65302 13.86C2.7469 13.9515 2.87314 14.0023 3.00426 14.0011C3.13537 14 3.26073 13.9471 3.35302 13.854L5.35302 11.854C5.44691 11.7602 5.49971 11.633 5.4998 11.5004C5.49989 11.3677 5.44728 11.2404 5.35352 11.1465C5.25977 11.0526 5.13256 10.9998 4.99988 10.9997C4.86719 10.9996 4.73991 11.0522 4.64602 11.146L3.50002 12.293V3.5ZM7.50002 4C7.36741 4 7.24024 3.94732 7.14647 3.85355C7.0527 3.75979 7.00002 3.63261 7.00002 3.5C7.00002 3.36739 7.0527 3.24021 7.14647 3.14645C7.24024 3.05268 7.36741 3 7.50002 3H8.50002C8.63263 3 8.75981 3.05268 8.85357 3.14645C8.94734 3.24021 9.00002 3.36739 9.00002 3.5C9.00002 3.63261 8.94734 3.75979 8.85357 3.85355C8.75981 3.94732 8.63263 4 8.50002 4H7.50002ZM7.50002 7C7.36741 7 7.24024 6.94732 7.14647 6.85355C7.0527 6.75979 7.00002 6.63261 7.00002 6.5C7.00002 6.36739 7.0527 6.24021 7.14647 6.14645C7.24024 6.05268 7.36741 6 7.50002 6H10.5C10.6326 6 10.7598 6.05268 10.8536 6.14645C10.9473 6.24021 11 6.36739 11 6.5C11 6.63261 10.9473 6.75979 10.8536 6.85355C10.7598 6.94732 10.6326 7 10.5 7H7.50002ZM7.50002 10C7.36741 10 7.24024 9.94732 7.14647 9.85355C7.0527 9.75979 7.00002 9.63261 7.00002 9.5C7.00002 9.36739 7.0527 9.24021 7.14647 9.14645C7.24024 9.05268 7.36741 9 7.50002 9H12.5C12.6326 9 12.7598 9.05268 12.8536 9.14645C12.9473 9.24021 13 9.36739 13 9.5C13 9.63261 12.9473 9.75979 12.8536 9.85355C12.7598 9.94732 12.6326 10 12.5 10H7.50002ZM7.00002 12.5C7.00002 12.6326 7.0527 12.7598 7.14647 12.8536C7.24024 12.9473 7.36741 13 7.50002 13H14.5C14.6326 13 14.7598 12.9473 14.8536 12.8536C14.9473 12.7598 15 12.6326 15 12.5C15 12.3674 14.9473 12.2402 14.8536 12.1464C14.7598 12.0527 14.6326 12 14.5 12H7.50002C7.36741 12 7.24024 12.0527 7.14647 12.1464C7.0527 12.2402 7.00002 12.3674 7.00002 12.5Z" fill="currentColor"/>
</svg>
