<svg width="16" height="16" viewBox="0 0 16 16" fill="none" xmlns="http://www.w3.org/2000/svg">
<path d="M8.217 11.0679C9.433 11.0679 10.165 10.1989 10.165 8.75791V8.05591C10.165 6.61591 9.438 5.75091 8.236 5.75091C7.494 5.75091 6.908 6.09791 6.737 6.63991H6.674V3.98291H5.384V10.9999H6.654V10.2089H6.718C6.928 10.7409 7.494 11.0689 8.217 11.0689V11.0679ZM7.787 10.0429C7.127 10.0429 6.674 9.52491 6.674 8.76291V8.11991C6.674 7.29491 7.094 6.77691 7.772 6.77691C8.456 6.77691 8.847 7.29491 8.847 8.19291V8.64291C8.847 9.53091 8.461 10.0439 7.787 10.0439V10.0429ZM2.204 11.0779C2.971 11.0779 3.405 10.7219 3.61 10.3409H3.669V10.9999H4.885V7.51891C4.885 6.20491 3.938 5.73591 2.775 5.73591C1.355 5.73591 0.75 6.41991 0.69 7.26991H1.906C1.97 6.94691 2.219 6.71791 2.746 6.71791C3.273 6.71791 3.61 6.96691 3.61 7.48891V7.95291H2.346C1.145 7.95291 0.5 8.56791 0.5 9.49591C0.5 10.4729 1.193 11.0779 2.204 11.0779V11.0779ZM2.624 10.1309C2.184 10.1309 1.779 9.89591 1.779 9.41291C1.779 9.01791 2.048 8.72891 2.619 8.72891H3.61V9.26691C3.61 9.76991 3.166 10.1309 2.624 10.1309V10.1309ZM11.521 10.6979C10.944 10.2979 10.621 9.60991 10.621 8.71491V8.06491C10.621 6.64491 11.515 5.72691 12.926 5.72691C14.278 5.72691 15.045 6.54691 15.065 7.53291H13.878C13.838 7.18191 13.595 6.75691 12.96 6.75691C12.286 6.75691 11.915 7.27391 11.915 8.08491V8.70991C11.915 9.17791 12.036 9.54391 12.258 9.77691L11.521 10.6969V10.6979Z" fill="#1B1B1B"/>
<path d="M14.469 9.41407C14.546 9.47561 14.6101 9.55174 14.6577 9.63809C14.7053 9.72444 14.7354 9.81933 14.7462 9.91731C14.7571 10.0153 14.7485 10.1145 14.721 10.2091C14.6936 10.3038 14.6477 10.3921 14.586 10.4691L10.586 15.4691C10.52 15.5514 10.4375 15.6189 10.3437 15.6671C10.2499 15.7153 10.147 15.7432 10.0416 15.749C9.93632 15.7547 9.83097 15.7382 9.73247 15.7005C9.63397 15.6628 9.54453 15.6047 9.47 15.5301L6.97 13.0301C6.89631 12.9614 6.83721 12.8786 6.79622 12.7866C6.75523 12.6946 6.73319 12.5953 6.73141 12.4946C6.72963 12.3939 6.74816 12.2939 6.78588 12.2005C6.8236 12.1071 6.87974 12.0223 6.95096 11.951C7.02218 11.8798 7.10701 11.8237 7.2004 11.7859C7.29379 11.7482 7.39382 11.7297 7.49452 11.7315C7.59523 11.7333 7.69454 11.7553 7.78654 11.7963C7.87854 11.8373 7.96134 11.8964 8.03 11.9701L9.938 13.8771L13.414 9.53107C13.4755 9.45405 13.5517 9.38992 13.638 9.34235C13.7244 9.29478 13.8193 9.2647 13.9172 9.25384C14.0152 9.24297 14.1144 9.25153 14.2091 9.27902C14.3038 9.30652 14.3921 9.35241 14.469 9.41407V9.41407Z" fill="#1B1B1B"/>
</svg>
