<svg width="16" height="16" viewBox="0 0 16 16" fill="none" xmlns="http://www.w3.org/2000/svg">
<g clip-path="url(#clip0_1419_2169)">
<path d="M14.12 10.1629L15.835 11.0209C16.055 11.1309 16.055 11.4449 15.835 11.5549L8.26699 15.3399C8.18407 15.3813 8.09266 15.4028 7.99999 15.4028C7.90732 15.4028 7.81591 15.3813 7.73299 15.3399L0.164989 11.5549C0.11555 11.53 0.0740012 11.4918 0.044971 11.4447C0.0159408 11.3976 0.000569342 11.3433 0.000569342 11.2879C0.000569342 11.2326 0.0159408 11.1783 0.044971 11.1311C0.0740012 11.084 0.11555 11.0458 0.164989 11.0209L1.88099 10.1629L7.19799 12.8219C7.70299 13.0739 8.29799 13.0739 8.80199 12.8219L14.119 10.1619L14.12 10.1629ZM7.73299 0.0629159C7.81591 0.0215386 7.90732 0 7.99999 0C8.09266 0 8.18407 0.0215386 8.26699 0.0629159L15.835 3.84692C15.8844 3.872 15.9259 3.91026 15.9549 3.95748C15.9838 4.0047 15.9992 4.05902 15.9992 4.11442C15.9992 4.16982 15.9838 4.22414 15.9549 4.27135C15.9259 4.31857 15.8844 4.35684 15.835 4.38192L8.26699 8.16492C8.18407 8.20629 8.09266 8.22783 7.99999 8.22783C7.90732 8.22783 7.81591 8.20629 7.73299 8.16492L0.164989 4.38192C0.115288 4.3571 0.0734848 4.31892 0.0442671 4.27167C0.0150495 4.22442 -0.000427246 4.16997 -0.000427246 4.11442C-0.000427246 4.05886 0.0150495 4.00441 0.0442671 3.95716C0.0734848 3.90991 0.115288 3.87174 0.164989 3.84692L7.73299 0.0629159Z" fill="#1B1B1B"/>
<path d="M14.12 6.57593L15.835 7.43393C16.055 7.54393 16.055 7.85793 15.835 7.96793L8.26703 11.7519C8.18411 11.7933 8.0927 11.8148 8.00003 11.8148C7.90736 11.8148 7.81595 11.7933 7.73303 11.7519L0.16503 7.96793C0.115591 7.94301 0.0740422 7.90485 0.045012 7.85771C0.0159818 7.81057 0.000610352 7.75629 0.000610352 7.70093C0.000610352 7.64556 0.0159818 7.59129 0.045012 7.54415C0.0740422 7.497 0.115591 7.45885 0.16503 7.43393L1.88103 6.57593L7.19803 9.23493C7.70303 9.48693 8.29803 9.48693 8.80203 9.23493L14.119 6.57593H14.12Z" fill="#1B1B1B"/>
</g>
<defs>
<clipPath id="clip0_1419_2169">
<rect width="16" height="16" fill="white"/>
</clipPath>
</defs>
</svg>
