<svg width="16" height="16" viewBox="0 0 16 16" fill="none" xmlns="http://www.w3.org/2000/svg">
<g clip-path="url(#clip0_1419_2168)">
<path d="M12.412 14.572V10.29H13.84V16H1V10.29H2.428V14.572H12.412V14.572Z" fill="#1B1B1B"/>
<path d="M3.85699 13.145H10.994V11.717H3.85699V13.145ZM10.254 0L9.10799 0.852L13.368 6.579L14.514 5.727L10.254 0ZM6.71399 3.377L12.198 7.944L13.111 6.847L7.62699 2.28L6.71299 3.377H6.71399ZM4.92199 6.55L11.392 9.563L11.995 8.269L5.52499 5.256L4.92199 6.55V6.55ZM3.99699 9.894L10.982 11.363L11.276 9.965L4.29099 8.497L3.99699 9.894V9.894Z" fill="#1B1B1B"/>
</g>
<defs>
<clipPath id="clip0_1419_2168">
<rect width="16" height="16" fill="white"/>
</clipPath>
</defs>
</svg>
