<svg width="16" height="16" viewBox="0 0 16 16" fill="none" xmlns="http://www.w3.org/2000/svg">
<path d="M3.266 12.496L4.226 9.643H7.76L8.72 12.496H10L6.62 3H5.38L2 12.496H3.266ZM6.014 4.433L7.433 8.663H4.553L5.979 4.433H6.014ZM12.146 11.636V11.561C12.146 11.229 12.38 10.943 12.765 10.943C13.119 10.943 13.383 11.199 13.383 11.523C13.383 11.885 13.112 12.172 12.863 12.421L11.075 14.253V15H14.665V14.042H12.742V13.997L13.715 12.957C14.13 12.519 14.582 12.112 14.582 11.41C14.582 10.61 13.881 10 12.795 10C11.565 10 11 10.8 11 11.576V11.636H12.146V11.636Z" fill="currentColor"/>
</svg>
