<svg width="16" height="16" viewBox="0 0 16 16" fill="none" xmlns="http://www.w3.org/2000/svg">
<path d="M8.38399 1.22592C8.34162 1.16301 8.28444 1.11148 8.21748 1.07585C8.15052 1.04023 8.07584 1.02159 7.99999 1.02159C7.92415 1.02159 7.84946 1.04023 7.78251 1.07585C7.71555 1.11148 7.65837 1.16301 7.61599 1.22592L3.05599 7.69392C2.99367 7.78379 2.96028 7.89055 2.96028 7.99992C2.96028 8.10928 2.99367 8.21604 3.05599 8.30592L7.61599 14.7749C7.65837 14.8378 7.71555 14.8894 7.78251 14.925C7.84946 14.9606 7.92415 14.9792 7.99999 14.9792C8.07584 14.9792 8.15052 14.9606 8.21748 14.925C8.28444 14.8894 8.34162 14.8378 8.38399 14.7749L12.944 8.30592C13.0063 8.21604 13.0397 8.10928 13.0397 7.99992C13.0397 7.89055 13.0063 7.78379 12.944 7.69392L8.38399 1.22592V1.22592ZM6.84799 0.612917C6.97527 0.424411 7.14686 0.270018 7.34771 0.163283C7.54857 0.0565482 7.77254 0.000732422 7.99999 0.000732422C8.22744 0.000732422 8.45142 0.0565482 8.65227 0.163283C8.85313 0.270018 9.02472 0.424411 9.15199 0.612917L13.712 7.08092C13.8995 7.35068 14 7.67137 14 7.99992C14 8.32847 13.8995 8.64915 13.712 8.91892L9.15199 15.3869C9.02472 15.5754 8.85313 15.7298 8.65227 15.8366C8.45142 15.9433 8.22744 15.9991 7.99999 15.9991C7.77254 15.9991 7.54857 15.9433 7.34771 15.8366C7.14686 15.7298 6.97527 15.5754 6.84799 15.3869L2.28799 8.91992C2.10046 8.65015 1.99994 8.32947 1.99994 8.00092C1.99994 7.67237 2.10046 7.35168 2.28799 7.08192L6.84799 0.612917Z" fill="#1B1B1B"/>
</svg>
