<svg width="16" height="16" viewBox="0 0 16 16" fill="none" xmlns="http://www.w3.org/2000/svg">
<path d="M4.266 12.496L5.226 9.643H8.76L9.72 12.496H11L7.62 3H6.38L3 12.496H4.266ZM7.014 4.433L8.433 8.663H5.553L6.979 4.433H7.014ZM12.146 2.636V2.561C12.146 2.229 12.38 1.943 12.765 1.943C13.119 1.943 13.383 2.199 13.383 2.523C13.383 2.885 13.112 3.172 12.863 3.421L11.075 5.253V6H14.665V5.042H12.742V4.997L13.715 3.957C14.13 3.519 14.582 3.112 14.582 2.41C14.582 1.61 13.881 1 12.795 1C11.565 1 11 1.8 11 2.576V2.636H12.146Z" fill="currentColor"/>
</svg>
