<svg width="16" height="16" viewBox="0 0 16 16" fill="none" xmlns="http://www.w3.org/2000/svg">
<g clip-path="url(#clip0_1419_651)">
<path d="M5.99998 1C5.73476 1 5.48041 1.10536 5.29287 1.29289C5.10533 1.48043 4.99998 1.73478 4.99998 2V3H4.81898C4.32954 2.99976 3.8508 3.14319 3.44213 3.4125C3.03345 3.68181 2.71281 4.06516 2.51998 4.515L1.72798 6.363C1.65302 6.53833 1.5184 6.68146 1.34798 6.767C0.847977 7.017 0.492977 7.482 0.382977 8.029L0.0499766 9.708C0.0175573 9.86932 0.00114439 10.0335 0.000976562 10.198V10.611C0.000976562 11.425 0.390977 12.154 1.00098 12.608V14.5C1.00098 14.6326 1.05365 14.7598 1.14742 14.8536C1.24119 14.9473 1.36837 15 1.50098 15H3.50098C3.63358 15 3.76076 14.9473 3.85453 14.8536C3.9483 14.7598 4.00098 14.6326 4.00098 14.5V13.162C5.29298 13.21 6.74598 13.25 8.00098 13.25C9.25598 13.25 10.709 13.21 12.001 13.162V14.5C12.001 14.6326 12.0537 14.7598 12.1474 14.8536C12.2412 14.9473 12.3684 15 12.501 15H14.501C14.6336 15 14.7608 14.9473 14.8545 14.8536C14.9483 14.7598 15.001 14.6326 15.001 14.5V12.608C15.611 12.154 16.001 11.425 16.001 10.611V10.198C16.001 10.033 15.985 9.869 15.952 9.708L15.617 8.028C15.5629 7.7583 15.4479 7.50452 15.2808 7.28599C15.1138 7.06746 14.899 6.88995 14.653 6.767C14.4822 6.68165 14.3472 6.5385 14.272 6.363L13.48 4.515C13.2871 4.06516 12.9665 3.68181 12.5578 3.4125C12.1491 3.14319 11.6704 2.99976 11.181 3H11V2C11 1.73478 10.8946 1.48043 10.7071 1.29289C10.5195 1.10536 10.2652 1 9.99998 1H5.99998ZM4.30898 4H11.691C11.7838 4 11.8747 4.02582 11.9536 4.07456C12.0326 4.12331 12.0964 4.19305 12.138 4.276L13.094 6.189C13.1331 6.26965 13.1502 6.35918 13.1437 6.44857C13.1371 6.53796 13.1072 6.62405 13.0568 6.69817C13.0064 6.77229 12.9374 6.83182 12.8566 6.87076C12.7759 6.9097 12.6864 6.92669 12.597 6.92C11.687 6.847 9.24698 6.75 7.99998 6.75C6.75298 6.75 4.31198 6.847 3.40298 6.92C3.3136 6.92669 3.22404 6.9097 3.14332 6.87076C3.06259 6.83182 2.99356 6.77229 2.94317 6.69817C2.89277 6.62405 2.8628 6.53796 2.85627 6.44857C2.84975 6.35918 2.86689 6.26965 2.90598 6.189L3.86198 4.276C3.90354 4.19305 3.96736 4.12331 4.04631 4.07456C4.12525 4.02582 4.2162 4 4.30898 4V4ZM3.99998 10C3.99998 10.2652 3.89462 10.5196 3.70708 10.7071C3.51955 10.8946 3.26519 11 2.99998 11C2.73476 11 2.48041 10.8946 2.29287 10.7071C2.10533 10.5196 1.99998 10.2652 1.99998 10C1.99998 9.73478 2.10533 9.48043 2.29287 9.29289C2.48041 9.10536 2.73476 9 2.99998 9C3.26519 9 3.51955 9.10536 3.70708 9.29289C3.89462 9.48043 3.99998 9.73478 3.99998 10V10ZM14 10C14 10.2652 13.8946 10.5196 13.7071 10.7071C13.5195 10.8946 13.2652 11 13 11C12.7348 11 12.4804 10.8946 12.2929 10.7071C12.1053 10.5196 12 10.2652 12 10C12 9.73478 12.1053 9.48043 12.2929 9.29289C12.4804 9.10536 12.7348 9 13 9C13.2652 9 13.5195 9.10536 13.7071 9.29289C13.8946 9.48043 14 9.73478 14 10V10ZM4.99998 10C4.99998 9.73478 5.10533 9.48043 5.29287 9.29289C5.48041 9.10536 5.73476 9 5.99998 9H9.99998C10.2652 9 10.5195 9.10536 10.7071 9.29289C10.8946 9.48043 11 9.73478 11 10C11 10.2652 10.8946 10.5196 10.7071 10.7071C10.5195 10.8946 10.2652 11 9.99998 11H5.99998C5.73476 11 5.48041 10.8946 5.29287 10.7071C5.10533 10.5196 4.99998 10.2652 4.99998 10Z" fill="#1B1B1B"/>
</g>
<defs>
<clipPath id="clip0_1419_651">
<rect width="16" height="16" fill="white"/>
</clipPath>
</defs>
</svg>
