<svg width="16" height="16" viewBox="0 0 16 16" fill="none" xmlns="http://www.w3.org/2000/svg">
<g clip-path="url(#clip0_1419_652)">
<path d="M4.862 5.276L3.906 7.19C3.86691 7.27065 3.84977 7.36018 3.8563 7.44957C3.86283 7.53896 3.8928 7.62505 3.94319 7.69917C3.99358 7.77329 4.06262 7.83282 4.14334 7.87176C4.22406 7.9107 4.31362 7.92769 4.403 7.921C5.313 7.848 6.753 7.751 8 7.751C9.247 7.751 10.688 7.848 11.597 7.921C11.6864 7.92769 11.7759 7.9107 11.8567 7.87176C11.9374 7.83282 12.0064 7.77329 12.0568 7.69917C12.1072 7.62505 12.1372 7.53896 12.1437 7.44957C12.1502 7.36018 12.1331 7.27065 12.094 7.19L11.138 5.277C11.0966 5.19387 11.0328 5.12391 10.9539 5.07499C10.8749 5.02606 10.7839 5.0001 10.691 5H5.309C5.21622 5 5.12527 5.02582 5.04633 5.07456C4.96739 5.12331 4.90356 5.19305 4.862 5.276V5.276ZM4 10C4 10.2652 3.89464 10.5196 3.70711 10.7071C3.51957 10.8946 3.26522 11 3 11C2.73478 11 2.48043 10.8946 2.29289 10.7071C2.10536 10.5196 2 10.2652 2 10C2 9.73478 2.10536 9.48043 2.29289 9.29289C2.48043 9.10536 2.73478 9 3 9C3.26522 9 3.51957 9.10536 3.70711 9.29289C3.89464 9.48043 4 9.73478 4 10V10ZM14 10C14 10.2652 13.8946 10.5196 13.7071 10.7071C13.5196 10.8946 13.2652 11 13 11C12.7348 11 12.4804 10.8946 12.2929 10.7071C12.1054 10.5196 12 10.2652 12 10C12 9.73478 12.1054 9.48043 12.2929 9.29289C12.4804 9.10536 12.7348 9 13 9C13.2652 9 13.5196 9.10536 13.7071 9.29289C13.8946 9.48043 14 9.73478 14 10V10ZM5 10C5 9.73478 5.10536 9.48043 5.29289 9.29289C5.48043 9.10536 5.73478 9 6 9H10C10.2652 9 10.5196 9.10536 10.7071 9.29289C10.8946 9.48043 11 9.73478 11 10C11 10.2652 10.8946 10.5196 10.7071 10.7071C10.5196 10.8946 10.2652 11 10 11H6C5.73478 11 5.48043 10.8946 5.29289 10.7071C5.10536 10.5196 5 10.2652 5 10Z" fill="currentColor"/>
<path d="M5.99998 1C5.73476 1 5.48041 1.10536 5.29287 1.29289C5.10533 1.48043 4.99998 1.73478 4.99998 2V3H4.81898C4.32954 2.99976 3.8508 3.14319 3.44213 3.4125C3.03345 3.68181 2.71281 4.06516 2.51998 4.515L1.72798 6.363C1.65302 6.53833 1.5184 6.68146 1.34798 6.767C0.847977 7.017 0.492977 7.482 0.382977 8.029L0.0499766 9.708C0.0175573 9.86932 0.00114439 10.0335 0.000976562 10.198V10.611C0.000976562 11.425 0.390977 12.154 1.00098 12.608V14.5C1.00098 14.6326 1.05365 14.7598 1.14742 14.8536C1.24119 14.9473 1.36837 15 1.50098 15H3.50098C3.63358 15 3.76076 14.9473 3.85453 14.8536C3.9483 14.7598 4.00098 14.6326 4.00098 14.5V13.162C5.29298 13.21 6.74598 13.25 8.00098 13.25C9.25598 13.25 10.709 13.21 12.001 13.162V14.5C12.001 14.6326 12.0537 14.7598 12.1474 14.8536C12.2412 14.9473 12.3684 15 12.501 15H14.501C14.6336 15 14.7608 14.9473 14.8545 14.8536C14.9483 14.7598 15.001 14.6326 15.001 14.5V12.608C15.611 12.154 16.001 11.425 16.001 10.611V10.198C16.001 10.033 15.985 9.869 15.952 9.708L15.617 8.028C15.5629 7.7583 15.4479 7.50452 15.2808 7.28599C15.1138 7.06746 14.899 6.88995 14.653 6.767C14.4822 6.68165 14.3472 6.5385 14.272 6.363L13.48 4.515C13.2871 4.06516 12.9665 3.68181 12.5578 3.4125C12.1491 3.14319 11.6704 2.99976 11.181 3H11V2C11 1.73478 10.8946 1.48043 10.7071 1.29289C10.5195 1.10536 10.2652 1 9.99998 1H5.99998ZM4.81898 4H11.181C11.4747 4.00002 11.7619 4.08626 12.0071 4.24803C12.2522 4.40979 12.4445 4.63997 12.56 4.91L13.352 6.757C13.52 7.15006 13.8223 7.47051 14.205 7.661C14.427 7.773 14.586 7.981 14.635 8.225L14.971 9.904C14.991 10.001 15 10.099 15 10.198V10.611C15.0015 10.992 14.8559 11.359 14.5936 11.6354C14.3314 11.9118 13.9726 12.0765 13.592 12.095C12.037 12.165 9.80598 12.25 7.99998 12.25C6.19398 12.25 3.96298 12.166 2.40798 12.095C2.02729 12.0767 1.66836 11.9122 1.40604 11.6357C1.14371 11.3592 0.998249 10.9921 0.999977 10.611V10.198C0.999977 10.099 1.00998 10.001 1.02998 9.904L1.36498 8.224C1.38911 8.10363 1.44038 7.99036 1.5149 7.89279C1.58941 7.79523 1.6852 7.71596 1.79498 7.661C2.17798 7.471 2.47998 7.15 2.64798 6.757L3.43998 4.909C3.55572 4.639 3.74819 4.40893 3.99352 4.24733C4.23884 4.08574 4.52621 3.99974 4.81998 4H4.81898Z" fill="currentColor"/>
</g>
<defs>
<clipPath id="clip0_1419_652">
<rect width="16" height="16" fill="white"/>
</clipPath>
</defs>
</svg>
