<svg width="16" height="16" viewBox="0 0 16 16" fill="none" xmlns="http://www.w3.org/2000/svg">
<g clip-path="url(#clip0_1419_485)">
<path d="M3.65398 1.32781C3.59495 1.25187 3.52043 1.18936 3.43538 1.14443C3.35034 1.0995 3.2567 1.07319 3.1607 1.06723C3.0647 1.06127 2.96853 1.07581 2.87858 1.10987C2.78863 1.14394 2.70695 1.19675 2.63898 1.26481L1.60498 2.29981C1.12198 2.78381 0.943983 3.46881 1.15498 4.06981C2.03072 6.55739 3.45528 8.8159 5.32298 10.6778C7.18491 12.5455 9.44341 13.97 11.931 14.8458C12.532 15.0568 13.217 14.8788 13.701 14.3958L14.735 13.3618C14.803 13.2938 14.8559 13.2122 14.8899 13.1222C14.924 13.0323 14.9385 12.9361 14.9326 12.8401C14.9266 12.7441 14.9003 12.6505 14.8554 12.5654C14.8104 12.4804 14.7479 12.4058 14.672 12.3468L12.365 10.5528C12.2839 10.4899 12.1895 10.4462 12.089 10.4251C11.9885 10.4039 11.8846 10.4059 11.785 10.4308L9.59498 10.9778C9.30266 11.0509 8.9964 11.047 8.70603 10.9666C8.41565 10.8861 8.15105 10.7319 7.93798 10.5188L5.48198 8.06181C5.26875 7.84884 5.11431 7.58429 5.0337 7.29391C4.95308 7.00352 4.94905 6.69721 5.02198 6.40481L5.56998 4.21481C5.59489 4.1152 5.59685 4.01124 5.57572 3.91077C5.55458 3.8103 5.51091 3.71594 5.44798 3.63481L3.65398 1.32781ZM1.88398 0.510807C2.05898 0.335756 2.26921 0.199937 2.50072 0.112368C2.73223 0.0247988 2.97973 -0.0125165 3.22676 0.00289975C3.4738 0.018316 3.71474 0.0861112 3.93356 0.201783C4.15239 0.317456 4.34411 0.478358 4.49598 0.673807L6.28998 2.97981C6.61898 3.40281 6.73498 3.95381 6.60498 4.47381L6.05798 6.66381C6.0297 6.77724 6.03123 6.89605 6.06242 7.00872C6.09361 7.12138 6.1534 7.22407 6.23598 7.30681L8.69298 9.76381C8.77582 9.84656 8.87868 9.90645 8.99153 9.93764C9.10439 9.96884 9.22341 9.97027 9.33698 9.94181L11.526 9.39481C11.7826 9.33065 12.0504 9.32566 12.3093 9.38023C12.5681 9.4348 12.8111 9.5475 13.02 9.70981L15.326 11.5038C16.155 12.1488 16.231 13.3738 15.489 14.1148L14.455 15.1488C13.715 15.8888 12.609 16.2138 11.578 15.8508C8.93917 14.9223 6.54326 13.4116 4.56798 11.4308C2.58727 9.45582 1.07659 7.06027 0.147983 4.42181C-0.214017 3.39181 0.110983 2.28481 0.850983 1.54481L1.88498 0.510807H1.88398Z" fill="currentColor"/>
<path fill-rule="evenodd" clip-rule="evenodd" d="M11.146 1.64592C11.1925 1.59935 11.2477 1.56241 11.3084 1.5372C11.3692 1.512 11.4343 1.49902 11.5 1.49902C11.5658 1.49902 11.6309 1.512 11.6917 1.5372C11.7524 1.56241 11.8076 1.59935 11.854 1.64592L13 2.79292L14.146 1.64592C14.2399 1.55203 14.3673 1.49929 14.5 1.49929C14.6328 1.49929 14.7602 1.55203 14.854 1.64592C14.9479 1.7398 15.0007 1.86714 15.0007 1.99992C15.0007 2.13269 14.9479 2.26003 14.854 2.35392L13.707 3.49992L14.854 4.64592C14.9479 4.7398 15.0007 4.86714 15.0007 4.99992C15.0007 5.13269 14.9479 5.26003 14.854 5.35392C14.7602 5.4478 14.6328 5.50055 14.5 5.50055C14.3673 5.50055 14.2399 5.4478 14.146 5.35392L13 4.20692L11.854 5.35392C11.8076 5.40041 11.7524 5.43728 11.6916 5.46244C11.6309 5.4876 11.5658 5.50055 11.5 5.50055C11.4343 5.50055 11.3692 5.4876 11.3085 5.46244C11.2477 5.43728 11.1925 5.40041 11.146 5.35392C11.0996 5.30743 11.0627 5.25224 11.0375 5.1915C11.0124 5.13076 10.9994 5.06566 10.9994 4.99992C10.9994 4.93417 11.0124 4.86907 11.0375 4.80833C11.0627 4.74759 11.0996 4.69241 11.146 4.64592L12.293 3.49992L11.146 2.35392C11.0995 2.30747 11.0625 2.2523 11.0373 2.19155C11.0121 2.13081 10.9991 2.06568 10.9991 1.99992C10.9991 1.93415 11.0121 1.86903 11.0373 1.80828C11.0625 1.74754 11.0995 1.69236 11.146 1.64592V1.64592Z" fill="currentColor"/>
</g>
<defs>
<clipPath id="clip0_1419_485">
<rect width="16" height="16" fill="white"/>
</clipPath>
</defs>
</svg>
