<svg width="16" height="16" viewBox="0 0 16 16" fill="none" xmlns="http://www.w3.org/2000/svg">
<g clip-path="url(#clip0_1419_1988)">
<path d="M6.048 3.32293C6.07 3.59993 5.918 3.84593 5.71 3.87293C5.5 3.89893 5.313 3.69693 5.291 3.41993C5.269 3.14293 5.421 2.89693 5.629 2.86993C5.839 2.84393 6.026 3.04593 6.049 3.32293H6.048ZM8.313 3.08293C7.71 2.93693 7.419 3.33893 7.377 3.41593C7.35 3.46393 7.369 3.53293 7.414 3.56593C7.459 3.60093 7.506 3.59093 7.533 3.56293C7.894 3.17293 8.284 3.39093 8.362 3.43393L8.373 3.44093C8.426 3.46493 8.52 3.46893 8.566 3.34293C8.589 3.27993 8.583 3.23293 8.56 3.20093C8.544 3.17793 8.471 3.12093 8.313 3.08293V3.08293Z" fill="#1B1B1B"/>
<path fill-rule="evenodd" clip-rule="evenodd" d="M11.727 6.7191C11.727 6.6971 11.737 6.3441 11.737 6.1621C11.737 3.0921 10.287 0.00610352 6.72197 0.00610352C3.15797 0.00610352 1.70797 3.0921 1.70797 6.1621C1.70797 6.3441 1.71797 6.6971 1.71797 6.7191L0.997972 8.5141C0.804457 9.01114 0.626372 9.51405 0.463972 10.0221C-0.216028 12.2091 0.00397222 13.1151 0.171972 13.1351C0.531972 13.1791 1.57297 11.4881 1.57297 11.4881C1.57297 12.4671 2.07697 13.7441 3.16697 14.6671C2.75897 14.7931 2.25997 14.9861 1.93897 15.2231C1.64897 15.4361 1.68597 15.6531 1.73797 15.7411C1.96597 16.1271 5.65797 15.9871 6.72297 15.8671C7.78797 15.9871 11.479 16.1271 11.707 15.7411C11.759 15.6531 11.795 15.4361 11.507 15.2231C11.185 14.9861 10.685 14.7931 10.277 14.6661C11.367 13.7441 11.871 12.4661 11.871 11.4881C11.871 11.4881 12.912 13.1781 13.272 13.1351C13.44 13.1151 13.66 12.2091 12.98 10.0221C12.8176 9.51403 12.6395 9.01113 12.446 8.5141L11.726 6.7191H11.727ZM9.77297 5.5301C9.64297 5.2441 8.34197 4.9251 6.73097 4.9251H6.71397C5.10297 4.9251 3.80097 5.2441 3.67197 5.5301C3.66578 5.54256 3.66237 5.5562 3.66197 5.5701C3.66197 5.5921 3.66997 5.6101 3.67997 5.6261C3.78997 5.7851 5.23397 6.5691 6.71397 6.5691H6.73097C8.21097 6.5691 9.65497 5.7851 9.76397 5.6261C9.77374 5.61227 9.77964 5.59607 9.78104 5.57919C9.78245 5.56231 9.77932 5.54537 9.77197 5.5301H9.77297ZM5.45297 4.5411C4.96997 4.5631 4.55697 4.0121 4.53097 3.3121C4.50497 2.6121 4.87497 2.0261 5.35897 2.0041C5.84197 1.9821 6.25497 2.5331 6.28097 3.2341C6.30797 3.9341 5.93697 4.5201 5.45397 4.5411H5.45297ZM7.99097 4.5411C8.47397 4.5631 8.88697 4.0121 8.91297 3.3121C8.93897 2.6121 8.56897 2.0261 8.08597 2.0041C7.60197 1.9821 7.18997 2.5331 7.16297 3.2341C7.13697 3.9341 7.50697 4.5191 7.99097 4.5411V4.5411ZM2.92797 8.9901C2.81397 9.74577 2.78145 10.5115 2.83097 11.2741C2.97697 13.7241 4.43097 15.2641 6.67697 15.2861H6.76797C9.01397 15.2631 10.468 13.7241 10.614 11.2751C10.668 10.3751 10.614 9.6121 10.517 8.9901C9.20497 9.2501 7.84797 9.4001 6.73097 9.3861H6.71397C6.41697 9.3891 6.10297 9.3811 5.77697 9.3631V11.5111C4.67097 11.6651 3.56697 11.4431 3.56697 11.4431V9.1071C3.35343 9.07112 3.14041 9.03212 2.92797 8.9901V8.9901Z" fill="#1B1B1B"/>
</g>
<defs>
<clipPath id="clip0_1419_1988">
<rect width="16" height="16" fill="white"/>
</clipPath>
</defs>
</svg>
