<svg width="16" height="16" viewBox="0 0 16 16" fill="none" xmlns="http://www.w3.org/2000/svg">
<g clip-path="url(#clip0_1419_1361)">
<path d="M2 3C1.73478 3 1.48043 3.10536 1.29289 3.29289C1.10536 3.48043 1 3.73478 1 4V12C1 12.2652 1.10536 12.5196 1.29289 12.7071C1.48043 12.8946 1.73478 13 2 13H7.5C7.63261 13 7.75979 13.0527 7.85355 13.1464C7.94732 13.2402 8 13.3674 8 13.5C8 13.6326 7.94732 13.7598 7.85355 13.8536C7.75979 13.9473 7.63261 14 7.5 14H2C1.46957 14 0.960859 13.7893 0.585786 13.4142C0.210714 13.0391 0 12.5304 0 12V4C0 3.46957 0.210714 2.96086 0.585786 2.58579C0.960859 2.21071 1.46957 2 2 2H13C13.5304 2 14.0391 2.21071 14.4142 2.58579C14.7893 2.96086 15 3.46957 15 4V8C15 8.13261 14.9473 8.25979 14.8536 8.35355C14.7598 8.44732 14.6326 8.5 14.5 8.5C14.3674 8.5 14.2402 8.44732 14.1464 8.35355C14.0527 8.25979 14 8.13261 14 8V4C14 3.73478 13.8946 3.48043 13.7071 3.29289C13.5196 3.10536 13.2652 3 13 3H2Z" fill="currentColor"/>
<path d="M3.14604 5.14592C3.19248 5.09935 3.24766 5.06241 3.30841 5.0372C3.36915 5.012 3.43427 4.99902 3.50004 4.99902C3.56581 4.99902 3.63093 5.012 3.69167 5.0372C3.75242 5.06241 3.80759 5.09935 3.85404 5.14592L5.17704 6.46992C5.31749 6.61054 5.39638 6.80117 5.39638 6.99992C5.39638 7.19867 5.31749 7.38929 5.17704 7.52992L3.85404 8.85392C3.76015 8.9478 3.63282 9.00055 3.50004 9.00055C3.36726 9.00055 3.23993 8.9478 3.14604 8.85392C3.05215 8.76003 2.99941 8.63269 2.99941 8.49992C2.99941 8.36714 3.05215 8.2398 3.14604 8.14592L4.29304 6.99992L3.14604 5.85392C3.09948 5.80747 3.06253 5.7523 3.03733 5.69155C3.01212 5.63081 2.99915 5.56568 2.99915 5.49992C2.99915 5.43415 3.01212 5.36903 3.03733 5.30828C3.06253 5.24754 3.09948 5.19236 3.14604 5.14592V5.14592ZM5.50004 8.99992C5.50004 8.86731 5.55272 8.74013 5.64649 8.64636C5.74025 8.5526 5.86743 8.49992 6.00004 8.49992H8.00004C8.13265 8.49992 8.25982 8.5526 8.35359 8.64636C8.44736 8.74013 8.50004 8.86731 8.50004 8.99992C8.50004 9.13253 8.44736 9.2597 8.35359 9.35347C8.25982 9.44724 8.13265 9.49992 8.00004 9.49992H6.00004C5.86743 9.49992 5.74025 9.44724 5.64649 9.35347C5.55272 9.2597 5.50004 9.13253 5.50004 8.99992ZM16 12.4999C16 13.4282 15.6313 14.3184 14.9749 14.9748C14.3185 15.6312 13.4283 15.9999 12.5 15.9999C11.5718 15.9999 10.6815 15.6312 10.0252 14.9748C9.36879 14.3184 9.00004 13.4282 9.00004 12.4999C9.00004 11.5717 9.36879 10.6814 10.0252 10.025C10.6815 9.36867 11.5718 8.99992 12.5 8.99992C13.4283 8.99992 14.3185 9.36867 14.9749 10.025C15.6313 10.6814 16 11.5717 16 12.4999V12.4999ZM11.146 11.1459C11.0995 11.1924 11.0625 11.2475 11.0373 11.3083C11.0121 11.369 10.9991 11.4341 10.9991 11.4999C10.9991 11.5657 11.0121 11.6308 11.0373 11.6916C11.0625 11.7523 11.0995 11.8075 11.146 11.8539L11.793 12.4999L11.146 13.1459C11.0522 13.2398 10.9994 13.3671 10.9994 13.4999C10.9994 13.6327 11.0522 13.76 11.146 13.8539C11.2399 13.9478 11.3673 14.0005 11.5 14.0005C11.6328 14.0005 11.7602 13.9478 11.854 13.8539L12.5 13.2069L13.146 13.8539C13.2399 13.9478 13.3673 14.0005 13.5 14.0005C13.6328 14.0005 13.7602 13.9478 13.854 13.8539C13.9479 13.76 14.0007 13.6327 14.0007 13.4999C14.0007 13.3671 13.9479 13.2398 13.854 13.1459L13.207 12.4999L13.854 11.8539C13.9479 11.76 14.0007 11.6327 14.0007 11.4999C14.0007 11.3671 13.9479 11.2398 13.854 11.1459C13.7602 11.052 13.6328 10.9993 13.5 10.9993C13.3673 10.9993 13.2399 11.052 13.146 11.1459L12.5 11.7929L11.854 11.1459C11.8076 11.0994 11.7524 11.0624 11.6917 11.0372C11.6309 11.012 11.5658 10.999 11.5 10.999C11.4343 10.999 11.3692 11.012 11.3084 11.0372C11.2477 11.0624 11.1925 11.0994 11.146 11.1459Z" fill="currentColor"/>
</g>
<defs>
<clipPath id="clip0_1419_1361">
<rect width="16" height="16" fill="white"/>
</clipPath>
</defs>
</svg>
