<svg width="16" height="16" viewBox="0 0 16 16" fill="none" xmlns="http://www.w3.org/2000/svg">
<path d="M2.14604 3.14592C2.19248 3.09935 2.24766 3.06241 2.30841 3.0372C2.36915 3.012 2.43427 2.99902 2.50004 2.99902C2.56581 2.99902 2.63093 3.012 2.69167 3.0372C2.75242 3.06241 2.80759 3.09935 2.85404 3.14592L3.67704 3.96992C3.81749 4.11054 3.89638 4.30117 3.89638 4.49992C3.89638 4.69867 3.81749 4.88929 3.67704 5.02992L2.85404 5.85392C2.76015 5.9478 2.63282 6.00055 2.50004 6.00055C2.36726 6.00055 2.23993 5.9478 2.14604 5.85392C2.05215 5.76003 1.99941 5.63269 1.99941 5.49992C1.99941 5.43417 2.01236 5.36907 2.03752 5.30833C2.06268 5.24759 2.09955 5.19241 2.14604 5.14592L2.79304 4.49992L2.14604 3.85392C2.09948 3.80747 2.06253 3.7523 2.03733 3.69155C2.01212 3.63081 1.99915 3.56568 1.99915 3.49992C1.99915 3.43415 2.01212 3.36903 2.03733 3.30828C2.06253 3.24754 2.09948 3.19236 2.14604 3.14592V3.14592ZM4.00004 5.99992C4.00004 5.86731 4.05272 5.74013 4.14649 5.64636C4.24025 5.5526 4.36743 5.49992 4.50004 5.49992H5.50004C5.63265 5.49992 5.75982 5.5526 5.85359 5.64636C5.94736 5.74013 6.00004 5.86731 6.00004 5.99992C6.00004 6.13253 5.94736 6.2597 5.85359 6.35347C5.75982 6.44724 5.63265 6.49992 5.50004 6.49992H4.50004C4.36743 6.49992 4.24025 6.44724 4.14649 6.35347C4.05272 6.2597 4.00004 6.13253 4.00004 5.99992ZM10.354 3.14592C10.2602 3.05203 10.1328 2.99929 10 2.99929C9.86726 2.99929 9.73993 3.05203 9.64604 3.14592C9.55215 3.2398 9.49941 3.36714 9.49941 3.49992C9.49941 3.63269 9.55215 3.76003 9.64604 3.85392L10.293 4.49992L9.64604 5.14592C9.55215 5.2398 9.49941 5.36714 9.49941 5.49992C9.49941 5.63269 9.55215 5.76003 9.64604 5.85392C9.73993 5.9478 9.86726 6.00055 10 6.00055C10.1328 6.00055 10.2602 5.9478 10.354 5.85392L11.177 5.02992C11.3175 4.88929 11.3964 4.69867 11.3964 4.49992C11.3964 4.30117 11.3175 4.11054 11.177 3.96992L10.354 3.14592V3.14592ZM12 5.49992C11.8674 5.49992 11.7403 5.5526 11.6465 5.64636C11.5527 5.74013 11.5 5.86731 11.5 5.99992C11.5 6.13253 11.5527 6.2597 11.6465 6.35347C11.7403 6.44724 11.8674 6.49992 12 6.49992H13C13.1326 6.49992 13.2598 6.44724 13.3536 6.35347C13.4474 6.2597 13.5 6.13253 13.5 5.99992C13.5 5.86731 13.4474 5.74013 13.3536 5.64636C13.2598 5.5526 13.1326 5.49992 13 5.49992H12Z" fill="#1B1B1B"/>
<path d="M0 3C0 2.46957 0.210714 1.96086 0.585786 1.58579C0.960859 1.21071 1.46957 1 2 1H14C14.5304 1 15.0391 1.21071 15.4142 1.58579C15.7893 1.96086 16 2.46957 16 3V13C16 13.5304 15.7893 14.0391 15.4142 14.4142C15.0391 14.7893 14.5304 15 14 15H2C1.46957 15 0.960859 14.7893 0.585786 14.4142C0.210714 14.0391 0 13.5304 0 13V3ZM2 2C1.73478 2 1.48043 2.10536 1.29289 2.29289C1.10536 2.48043 1 2.73478 1 3V13C1 13.2652 1.10536 13.5196 1.29289 13.7071C1.48043 13.8946 1.73478 14 2 14H7.5V2H2ZM8.5 2V14H14C14.2652 14 14.5196 13.8946 14.7071 13.7071C14.8946 13.5196 15 13.2652 15 13V3C15 2.73478 14.8946 2.48043 14.7071 2.29289C14.5196 2.10536 14.2652 2 14 2H8.5Z" fill="#1B1B1B"/>
</svg>
