<svg width="16" height="16" viewBox="0 0 16 16" fill="none" xmlns="http://www.w3.org/2000/svg">
<path fill-rule="evenodd" clip-rule="evenodd" d="M2 3.5C2 3.36739 2.05268 3.24021 2.14645 3.14645C2.24021 3.05268 2.36739 3 2.5 3H13.5C13.6326 3 13.7598 3.05268 13.8536 3.14645C13.9473 3.24021 14 3.36739 14 3.5C14 3.63261 13.9473 3.75979 13.8536 3.85355C13.7598 3.94732 13.6326 4 13.5 4H2.5C2.36739 4 2.24021 3.94732 2.14645 3.85355C2.05268 3.75979 2 3.63261 2 3.5ZM2 7.5C2 7.36739 2.05268 7.24021 2.14645 7.14645C2.24021 7.05268 2.36739 7 2.5 7H11.5C12.163 7 12.7989 7.26339 13.2678 7.73223C13.7366 8.20107 14 8.83696 14 9.5C14 10.163 13.7366 10.7989 13.2678 11.2678C12.7989 11.7366 12.163 12 11.5 12H10.207L10.854 12.646C10.9479 12.7399 11.0006 12.8672 11.0006 13C11.0006 13.1328 10.9479 13.2601 10.854 13.354C10.7601 13.4479 10.6328 13.5006 10.5 13.5006C10.3672 13.5006 10.2399 13.4479 10.146 13.354L8.646 11.854C8.59944 11.8076 8.56249 11.7524 8.53729 11.6916C8.51208 11.6309 8.49911 11.5658 8.49911 11.5C8.49911 11.4342 8.51208 11.3691 8.53729 11.3084C8.56249 11.2476 8.59944 11.1924 8.646 11.146L10.146 9.646C10.2399 9.55211 10.3672 9.49937 10.5 9.49937C10.6328 9.49937 10.7601 9.55211 10.854 9.646C10.9479 9.73989 11.0006 9.86722 11.0006 10C11.0006 10.1328 10.9479 10.2601 10.854 10.354L10.207 11H11.5C11.8978 11 12.2794 10.842 12.5607 10.5607C12.842 10.2794 13 9.89782 13 9.5C13 9.10218 12.842 8.72064 12.5607 8.43934C12.2794 8.15804 11.8978 8 11.5 8H2.5C2.36739 8 2.24021 7.94732 2.14645 7.85355C2.05268 7.75979 2 7.63261 2 7.5V7.5ZM2 11.5C2 11.3674 2.05268 11.2402 2.14645 11.1464C2.24021 11.0527 2.36739 11 2.5 11H7C7.13261 11 7.25979 11.0527 7.35355 11.1464C7.44732 11.2402 7.5 11.3674 7.5 11.5C7.5 11.6326 7.44732 11.7598 7.35355 11.8536C7.25979 11.9473 7.13261 12 7 12H2.5C2.36739 12 2.24021 11.9473 2.14645 11.8536C2.05268 11.7598 2 11.6326 2 11.5Z" fill="#1B1B1B"/>
</svg>
