<svg width="16" height="16" viewBox="0 0 16 16" fill="none" xmlns="http://www.w3.org/2000/svg">
<path d="M3.5 7C3.36739 7 3.24021 7.05268 3.14645 7.14645C3.05268 7.24021 3 7.36739 3 7.5V8.5C3 8.63261 3.05268 8.75979 3.14645 8.85355C3.24021 8.94732 3.36739 9 3.5 9H12.5C12.6326 9 12.7598 8.94732 12.8536 8.85355C12.9473 8.75979 13 8.63261 13 8.5V7.5C13 7.36739 12.9473 7.24021 12.8536 7.14645C12.7598 7.05268 12.6326 7 12.5 7H3.5Z" fill="#1B1B1B"/>
<path d="M1 3C0.734784 3 0.48043 3.10536 0.292893 3.29289C0.105357 3.48043 0 3.73478 0 4L0 11.293C5.66374e-05 11.5582 0.105451 11.8125 0.293 12L2 13.707C2.18749 13.8945 2.44181 13.9999 2.707 14H13.293C13.5582 13.9999 13.8125 13.8945 14 13.707L15.707 12C15.8945 11.8125 15.9999 11.5582 16 11.293V4C16 3.73478 15.8946 3.48043 15.7071 3.29289C15.5196 3.10536 15.2652 3 15 3H1ZM1 4H15V11.293L13.293 13H2.707L1 11.293V4Z" fill="#1B1B1B"/>
</svg>
