<svg width="16" height="16" viewBox="0 0 16 16" fill="none" xmlns="http://www.w3.org/2000/svg">
<g clip-path="url(#clip0_1419_653)">
<path fill-rule="evenodd" clip-rule="evenodd" d="M5.736 1.19863e-06C5.50344 1.6934e-05 5.27407 0.0541078 5.066 0.158001L1.828 1.776C1.57901 1.90077 1.36967 2.0924 1.22343 2.32942C1.07719 2.56644 0.999824 2.8395 1 3.118V8.628L3 8.028V5C3 4.73478 3.10536 4.48043 3.29289 4.29289C3.48043 4.10536 3.73478 4 4 4H12C12.2652 4 12.5196 4.10536 12.7071 4.29289C12.8946 4.48043 13 4.73478 13 5V8.028L15 8.628V3.118C15 2.83929 14.9223 2.56609 14.7757 2.32904C14.6291 2.092 14.4194 1.90049 14.17 1.776L10.936 0.158001C10.7273 0.0538056 10.4972 -0.000293632 10.264 1.19863e-06H5.736ZM15 9.672L9.497 8.022C9.45033 8.00768 9.40182 8.00027 9.353 8H8.5V16H12.5C13.163 16 13.7989 15.7366 14.2678 15.2678C14.7366 14.7989 15 14.163 15 13.5V9.672ZM7.5 16V8H6.647C6.59823 7.99994 6.54972 8.00702 6.503 8.021L1 9.672V13.5C1 14.163 1.26339 14.7989 1.73223 15.2678C2.20107 15.7366 2.83696 16 3.5 16H7.5ZM6.5 2C6.36739 2 6.24022 2.05268 6.14645 2.14645C6.05268 2.24022 6 2.36739 6 2.5C6 2.63261 6.05268 2.75979 6.14645 2.85355C6.24022 2.94732 6.36739 3 6.5 3H9.5C9.63261 3 9.75979 2.94732 9.85355 2.85355C9.94732 2.75979 10 2.63261 10 2.5C10 2.36739 9.94732 2.24022 9.85355 2.14645C9.75979 2.05268 9.63261 2 9.5 2H6.5ZM12 5V7.728L9.784 7.063C9.64449 7.02124 9.49963 7.00002 9.354 7H8.5V5H12ZM7.5 5V7H6.647C6.50103 6.99992 6.35584 7.02114 6.216 7.063L4 7.728V5H7.5ZM3.5 10C3.36739 10 3.24022 10.0527 3.14645 10.1464C3.05268 10.2402 3 10.3674 3 10.5C3 10.6326 3.05268 10.7598 3.14645 10.8536C3.24022 10.9473 3.36739 11 3.5 11C3.63261 11 3.75979 10.9473 3.85355 10.8536C3.94732 10.7598 4 10.6326 4 10.5C4 10.3674 3.94732 10.2402 3.85355 10.1464C3.75979 10.0527 3.63261 10 3.5 10ZM12.5 10C12.3674 10 12.2402 10.0527 12.1464 10.1464C12.0527 10.2402 12 10.3674 12 10.5C12 10.6326 12.0527 10.7598 12.1464 10.8536C12.2402 10.9473 12.3674 11 12.5 11C12.6326 11 12.7598 10.9473 12.8536 10.8536C12.9473 10.7598 13 10.6326 13 10.5C13 10.3674 12.9473 10.2402 12.8536 10.1464C12.7598 10.0527 12.6326 10 12.5 10ZM5 13C5 13.2652 4.89464 13.5196 4.70711 13.7071C4.51957 13.8946 4.26522 14 4 14C3.73478 14 3.48043 13.8946 3.29289 13.7071C3.10536 13.5196 3 13.2652 3 13C3 12.7348 3.10536 12.4804 3.29289 12.2929C3.48043 12.1054 3.73478 12 4 12C4.26522 12 4.51957 12.1054 4.70711 12.2929C4.89464 12.4804 5 12.7348 5 13V13ZM12 14C12.2652 14 12.5196 13.8946 12.7071 13.7071C12.8946 13.5196 13 13.2652 13 13C13 12.7348 12.8946 12.4804 12.7071 12.2929C12.5196 12.1054 12.2652 12 12 12C11.7348 12 11.4804 12.1054 11.2929 12.2929C11.1054 12.4804 11 12.7348 11 13C11 13.2652 11.1054 13.5196 11.2929 13.7071C11.4804 13.8946 11.7348 14 12 14V14Z" fill="currentColor"/>
</g>
<defs>
<clipPath id="clip0_1419_653">
<rect width="16" height="16" fill="white"/>
</clipPath>
</defs>
</svg>
