<svg width="16" height="16" viewBox="0 0 16 16" fill="none" xmlns="http://www.w3.org/2000/svg">
<g clip-path="url(#clip0_1419_655)">
<path fill-rule="evenodd" clip-rule="evenodd" d="M10.621 0.515049C8.647 0.0200488 7.353 0.0200488 5.38 0.515049C4.456 0.745049 3.398 1.28105 2.6 1.73505C1.566 2.32205 1 3.43205 1 4.58205V13.5C1 14.1631 1.26339 14.799 1.73223 15.2678C2.20107 15.7367 2.83696 16 3.5 16H12.5C13.163 16 13.7989 15.7367 14.2678 15.2678C14.7366 14.799 15 14.1631 15 13.5V4.58305C15 3.43305 14.435 2.32305 13.4 1.73405C12.603 1.28105 11.545 0.746049 10.621 0.514049V0.515049ZM6.5 2.00005C6.36739 2.00005 6.24021 2.05273 6.14645 2.1465C6.05268 2.24026 6 2.36744 6 2.50005C6 2.63266 6.05268 2.75983 6.14645 2.8536C6.24021 2.94737 6.36739 3.00005 6.5 3.00005H9.5C9.63261 3.00005 9.75979 2.94737 9.85355 2.8536C9.94732 2.75983 10 2.63266 10 2.50005C10 2.36744 9.94732 2.24026 9.85355 2.1465C9.75979 2.05273 9.63261 2.00005 9.5 2.00005H6.5ZM4.5 4.00005C4.10218 4.00005 3.72064 4.15808 3.43934 4.43939C3.15804 4.72069 3 5.10222 3 5.50005V7.50005C3 7.89787 3.15804 8.2794 3.43934 8.56071C3.72064 8.84201 4.10218 9.00005 4.5 9.00005H11.5C11.8978 9.00005 12.2794 8.84201 12.5607 8.56071C12.842 8.2794 13 7.89787 13 7.50005V5.50005C13 5.10222 12.842 4.72069 12.5607 4.43939C12.2794 4.15808 11.8978 4.00005 11.5 4.00005H4.5ZM5 13C5 13.2653 4.89464 13.5196 4.70711 13.7072C4.51957 13.8947 4.26522 14 4 14C3.73478 14 3.48043 13.8947 3.29289 13.7072C3.10536 13.5196 3 13.2653 3 13C3 12.7348 3.10536 12.4805 3.29289 12.2929C3.48043 12.1054 3.73478 12 4 12C4.26522 12 4.51957 12.1054 4.70711 12.2929C4.89464 12.4805 5 12.7348 5 13V13ZM5 13C5 12.7348 5.10536 12.4805 5.29289 12.2929C5.48043 12.1054 5.73478 12 6 12C6.26522 12 6.51957 12.1054 6.70711 12.2929C6.89464 12.4805 7 12.7348 7 13C7 13.2653 6.89464 13.5196 6.70711 13.7072C6.51957 13.8947 6.26522 14 6 14C5.73478 14 5.48043 13.8947 5.29289 13.7072C5.10536 13.5196 5 13.2653 5 13ZM13 13C13 13.2653 12.8946 13.5196 12.7071 13.7072C12.5196 13.8947 12.2652 14 12 14C11.7348 14 11.4804 13.8947 11.2929 13.7072C11.1054 13.5196 11 13.2653 11 13C11 12.7348 11.1054 12.4805 11.2929 12.2929C11.4804 12.1054 11.7348 12 12 12C12.2652 12 12.5196 12.1054 12.7071 12.2929C12.8946 12.4805 13 12.7348 13 13V13ZM10 12C10.2652 12 10.5196 12.1054 10.7071 12.2929C10.8946 12.4805 11 12.7348 11 13C11 13.2653 10.8946 13.5196 10.7071 13.7072C10.5196 13.8947 10.2652 14 10 14C9.73478 14 9.48043 13.8947 9.29289 13.7072C9.10536 13.5196 9 13.2653 9 13C9 12.7348 9.10536 12.4805 9.29289 12.2929C9.48043 12.1054 9.73478 12 10 12V12ZM4 5.50005C4 5.36744 4.05268 5.24026 4.14645 5.1465C4.24021 5.05273 4.36739 5.00005 4.5 5.00005H7.5V8.00005H4.5C4.36739 8.00005 4.24021 7.94737 4.14645 7.8536C4.05268 7.75983 4 7.63266 4 7.50005V5.50005ZM8.5 8.00005V5.00005H11.5C11.6326 5.00005 11.7598 5.05273 11.8536 5.1465C11.9473 5.24026 12 5.36744 12 5.50005V7.50005C12 7.63266 11.9473 7.75983 11.8536 7.8536C11.7598 7.94737 11.6326 8.00005 11.5 8.00005H8.5Z" fill="#1B1B1B"/>
</g>
<defs>
<clipPath id="clip0_1419_655">
<rect width="16" height="16" fill="white"/>
</clipPath>
</defs>
</svg>
