<svg width="16" height="16" viewBox="0 0 16 16" fill="none" xmlns="http://www.w3.org/2000/svg">
<path fill-rule="evenodd" clip-rule="evenodd" d="M6.5 0C6.36739 0 6.24021 0.0526784 6.14645 0.146447C6.05268 0.240215 6 0.367392 6 0.5C6 0.632608 6.05268 0.759785 6.14645 0.853553C6.24021 0.947322 6.36739 1 6.5 1H7.5V2.011C5.975 2.075 4.154 2.405 2.912 2.666C1.775 2.904 1 3.915 1 5.055V13.5C1 14.163 1.26339 14.7989 1.73223 15.2678C2.20107 15.7366 2.83696 16 3.5 16H12.5C13.163 16 13.7989 15.7366 14.2678 15.2678C14.7366 14.7989 15 14.163 15 13.5V5.055C15 3.915 14.225 2.905 13.088 2.665C11.846 2.405 10.025 2.075 8.5 2.011V1H9.5C9.63261 1 9.75979 0.947322 9.85355 0.853553C9.94732 0.759785 10 0.632608 10 0.5C10 0.367392 9.94732 0.240215 9.85355 0.146447C9.75979 0.0526784 9.63261 0 9.5 0L6.5 0ZM8 3C6.503 3 4.495 3.356 3.117 3.644C2.464 3.781 2 4.366 2 5.055V13.5C1.99992 13.8232 2.10423 14.1378 2.2974 14.3969C2.49056 14.656 2.76225 14.8458 3.072 14.938C3.1 14.726 3.134 14.455 3.172 14.146C3.264 13.385 3.372 12.394 3.438 11.464C3.476 10.933 3.5 10.428 3.5 10C3.5 8.949 3.357 7.596 3.222 6.565C3.19955 6.39088 3.17621 6.21688 3.152 6.043C3.04 5.245 3.572 4.472 4.396 4.346C5.356 4.199 6.864 4 8 4C9.136 4 10.645 4.2 11.604 4.346C12.429 4.472 12.96 5.246 12.848 6.043C12.826 6.203 12.802 6.378 12.778 6.565C12.643 7.596 12.5 8.949 12.5 10C12.5 10.428 12.524 10.933 12.562 11.464C12.628 12.394 12.736 13.384 12.828 14.146C12.866 14.456 12.9 14.726 12.928 14.938C13.2378 14.8458 13.5094 14.656 13.7026 14.3969C13.8958 14.1378 14.0001 13.8232 14 13.5V5.055C14 4.365 13.536 3.781 12.883 3.645C11.505 3.354 9.497 3 8 3ZM11.835 14.266C11.869 14.546 11.901 14.796 11.928 15H4.072C4.20539 14.0028 4.31476 13.0025 4.4 12H6.646C7.006 12 7.35 11.857 7.604 11.604C7.63678 11.5711 7.67573 11.5449 7.71863 11.5271C7.76153 11.5092 7.80754 11.5 7.854 11.5H8.146C8.19249 11.4999 8.23854 11.509 8.28146 11.5268C8.32439 11.5447 8.36332 11.5709 8.396 11.604C8.65 11.857 8.995 12 9.354 12H11.6C11.668 12.808 11.758 13.621 11.836 14.266H11.835ZM6 13.5C6 13.6326 5.94732 13.7598 5.85355 13.8536C5.75979 13.9473 5.63261 14 5.5 14C5.36739 14 5.24021 13.9473 5.14645 13.8536C5.05268 13.7598 5 13.6326 5 13.5C5 13.3674 5.05268 13.2402 5.14645 13.1464C5.24021 13.0527 5.36739 13 5.5 13C5.63261 13 5.75979 13.0527 5.85355 13.1464C5.94732 13.2402 6 13.3674 6 13.5ZM6 13.5C6 13.3674 6.05268 13.2402 6.14645 13.1464C6.24021 13.0527 6.36739 13 6.5 13C6.63261 13 6.75979 13.0527 6.85355 13.1464C6.94732 13.2402 7 13.3674 7 13.5C7 13.6326 6.94732 13.7598 6.85355 13.8536C6.75979 13.9473 6.63261 14 6.5 14C6.36739 14 6.24021 13.9473 6.14645 13.8536C6.05268 13.7598 6 13.6326 6 13.5ZM9.5 14C9.63261 14 9.75979 13.9473 9.85355 13.8536C9.94732 13.7598 10 13.6326 10 13.5C10 13.6326 10.0527 13.7598 10.1464 13.8536C10.2402 13.9473 10.3674 14 10.5 14C10.6326 14 10.7598 13.9473 10.8536 13.8536C10.9473 13.7598 11 13.6326 11 13.5C11 13.3674 10.9473 13.2402 10.8536 13.1464C10.7598 13.0527 10.6326 13 10.5 13C10.3674 13 10.2402 13.0527 10.1464 13.1464C10.0527 13.2402 10 13.3674 10 13.5C10 13.4011 9.97068 13.3044 9.91574 13.2222C9.86079 13.14 9.7827 13.0759 9.69134 13.0381C9.59998 13.0002 9.49944 12.9903 9.40245 13.0096C9.30546 13.0289 9.21637 13.0765 9.14645 13.1464C9.07652 13.2164 9.0289 13.3055 9.00961 13.4025C8.99031 13.4994 9.00022 13.6 9.03806 13.6913C9.0759 13.7827 9.13999 13.8608 9.22221 13.9157C9.30444 13.9707 9.40111 14 9.5 14ZM4.47 11H6.646C6.69246 11 6.73847 10.9908 6.78137 10.9729C6.82427 10.9551 6.86322 10.9289 6.896 10.896C7.15 10.643 7.495 10.5 7.854 10.5H8.146C8.506 10.5 8.85 10.643 9.104 10.896C9.13678 10.9289 9.17573 10.9551 9.21863 10.9729C9.26153 10.9908 9.30754 11 9.354 11H11.531C11.511 10.647 11.5 10.308 11.5 10C11.5 9.073 11.604 7.949 11.716 7H4.284C4.396 7.949 4.5 9.073 4.5 10C4.5 10.308 4.489 10.647 4.47 11ZM4.155 6H11.845L11.858 5.904C11.8792 5.7748 11.8485 5.64246 11.7727 5.53573C11.6969 5.42901 11.582 5.35651 11.453 5.334C10.495 5.188 9.053 5 8 5C6.947 5 5.505 5.188 4.547 5.334C4.41802 5.35651 4.30314 5.42901 4.22731 5.53573C4.15148 5.64246 4.12082 5.7748 4.142 5.904L4.155 6V6Z" fill="currentColor"/>
</svg>
