<svg width="16" height="16" viewBox="0 0 16 16" fill="none" xmlns="http://www.w3.org/2000/svg">
<g clip-path="url(#clip0_1419_656)">
<path fill-rule="evenodd" clip-rule="evenodd" d="M5.621 1.48505C7.436 1.03105 8.564 1.03105 10.379 1.48505C11.163 1.68105 12.122 2.15805 12.906 2.60405C13.594 2.99405 14 3.75205 14 4.58305V13.5C14 13.8979 13.842 14.2794 13.5607 14.5607C13.2794 14.842 12.8978 15 12.5 15H3.5C3.30302 15 3.10796 14.9613 2.92597 14.8859C2.74399 14.8105 2.57863 14.7 2.43934 14.5607C2.30005 14.4214 2.18956 14.2561 2.11418 14.0741C2.0388 13.8921 2 13.697 2 13.5V4.58305C2 3.75205 2.406 2.99505 3.094 2.60305C3.878 2.15805 4.838 1.68105 5.621 1.48505ZM10.621 0.515049C8.647 0.0200488 7.353 0.0200488 5.38 0.515049C4.456 0.745049 3.398 1.28105 2.6 1.73505C1.566 2.32205 1 3.43205 1 4.58205V13.5C1 14.1631 1.26339 14.799 1.73223 15.2678C2.20107 15.7367 2.83696 16 3.5 16H12.5C13.163 16 13.7989 15.7367 14.2678 15.2678C14.7366 14.799 15 14.1631 15 13.5V4.58305C15 3.43305 14.435 2.32305 13.4 1.73405C12.603 1.28105 11.545 0.746049 10.621 0.514049V0.515049ZM5 13C5 13.2653 4.89464 13.5196 4.70711 13.7072C4.51957 13.8947 4.26522 14 4 14C3.73478 14 3.48043 13.8947 3.29289 13.7072C3.10536 13.5196 3 13.2653 3 13C3 12.7348 3.10536 12.4805 3.29289 12.2929C3.48043 12.1054 3.73478 12 4 12C4.26522 12 4.51957 12.1054 4.70711 12.2929C4.89464 12.4805 5 12.7348 5 13V13ZM5 13C5 12.7348 5.10536 12.4805 5.29289 12.2929C5.48043 12.1054 5.73478 12 6 12C6.26522 12 6.51957 12.1054 6.70711 12.2929C6.89464 12.4805 7 12.7348 7 13C7 13.2653 6.89464 13.5196 6.70711 13.7072C6.51957 13.8947 6.26522 14 6 14C5.73478 14 5.48043 13.8947 5.29289 13.7072C5.10536 13.5196 5 13.2653 5 13ZM12 14C12.1978 14 12.3911 13.9414 12.5556 13.8315C12.72 13.7216 12.8482 13.5655 12.9239 13.3827C12.9996 13.2 13.0194 12.9989 12.9808 12.805C12.9422 12.611 12.847 12.4328 12.7071 12.2929C12.5673 12.1531 12.3891 12.0578 12.1951 12.0193C12.0011 11.9807 11.8 12.0005 11.6173 12.0762C11.4346 12.1519 11.2784 12.28 11.1685 12.4445C11.0586 12.6089 11 12.8023 11 13C11 12.7348 10.8946 12.4805 10.7071 12.2929C10.5196 12.1054 10.2652 12 10 12C9.73478 12 9.48043 12.1054 9.29289 12.2929C9.10536 12.4805 9 12.7348 9 13C9 13.2653 9.10536 13.5196 9.29289 13.7072C9.48043 13.8947 9.73478 14 10 14C10.2652 14 10.5196 13.8947 10.7071 13.7072C10.8946 13.5196 11 13.2653 11 13C11 13.2653 11.1054 13.5196 11.2929 13.7072C11.4804 13.8947 11.7348 14 12 14ZM4.5 5.00005C4.36739 5.00005 4.24021 5.05273 4.14645 5.1465C4.05268 5.24026 4 5.36744 4 5.50005V7.50005C4 7.63266 4.05268 7.75983 4.14645 7.8536C4.24021 7.94737 4.36739 8.00005 4.5 8.00005H7.5V5.00005H4.5ZM8.5 5.00005V8.00005H11.5C11.6326 8.00005 11.7598 7.94737 11.8536 7.8536C11.9473 7.75983 12 7.63266 12 7.50005V5.50005C12 5.36744 11.9473 5.24026 11.8536 5.1465C11.7598 5.05273 11.6326 5.00005 11.5 5.00005H8.5ZM3 5.50005C3 5.10222 3.15804 4.72069 3.43934 4.43939C3.72064 4.15808 4.10218 4.00005 4.5 4.00005H11.5C11.8978 4.00005 12.2794 4.15808 12.5607 4.43939C12.842 4.72069 13 5.10222 13 5.50005V7.50005C13 7.89787 12.842 8.2794 12.5607 8.56071C12.2794 8.84201 11.8978 9.00005 11.5 9.00005H4.5C4.10218 9.00005 3.72064 8.84201 3.43934 8.56071C3.15804 8.2794 3 7.89787 3 7.50005V5.50005ZM6.5 2.00005C6.36739 2.00005 6.24021 2.05273 6.14645 2.1465C6.05268 2.24026 6 2.36744 6 2.50005C6 2.63266 6.05268 2.75983 6.14645 2.8536C6.24021 2.94737 6.36739 3.00005 6.5 3.00005H9.5C9.63261 3.00005 9.75979 2.94737 9.85355 2.8536C9.94732 2.75983 10 2.63266 10 2.50005C10 2.36744 9.94732 2.24026 9.85355 2.1465C9.75979 2.05273 9.63261 2.00005 9.5 2.00005H6.5Z" fill="#1B1B1B"/>
</g>
<defs>
<clipPath id="clip0_1419_656">
<rect width="16" height="16" fill="white"/>
</clipPath>
</defs>
</svg>
