<svg width="16" height="16" viewBox="0 0 16 16" fill="none" xmlns="http://www.w3.org/2000/svg">
<path fill-rule="evenodd" clip-rule="evenodd" d="M6.5 0C6.36739 0 6.24021 0.0526784 6.14645 0.146447C6.05268 0.240215 6 0.367392 6 0.5C6 0.632608 6.05268 0.759785 6.14645 0.853553C6.24021 0.947322 6.36739 1 6.5 1H7.5V2.011C5.975 2.075 4.154 2.405 2.912 2.666C1.775 2.904 1 3.915 1 5.055V13.5C1 14.163 1.26339 14.7989 1.73223 15.2678C2.20107 15.7366 2.83696 16 3.5 16H12.5C13.163 16 13.7989 15.7366 14.2678 15.2678C14.7366 14.7989 15 14.163 15 13.5V5.055C15 3.915 14.225 2.905 13.088 2.665C11.846 2.405 10.025 2.075 8.5 2.011V1H9.5C9.63261 1 9.75979 0.947322 9.85355 0.853553C9.94732 0.759785 10 0.632608 10 0.5C10 0.367392 9.94732 0.240215 9.85355 0.146447C9.75979 0.0526784 9.63261 0 9.5 0L6.5 0ZM8 4C6.864 4 5.355 4.2 4.396 4.346C3.571 4.472 3.04 5.246 3.152 6.043C3.174 6.203 3.198 6.378 3.222 6.565C3.357 7.596 3.5 8.949 3.5 10C3.5 10.428 3.476 10.933 3.438 11.464C3.37037 12.36 3.28167 13.2542 3.172 14.146C3.131 14.486 3.092 14.78 3.064 15H4.072C4.20539 14.0028 4.31476 13.0025 4.4 12H6.646C7.006 12 7.35 11.857 7.604 11.604C7.63678 11.5711 7.67573 11.5449 7.71863 11.5271C7.76153 11.5092 7.80754 11.5 7.854 11.5H8.146C8.19249 11.4999 8.23854 11.509 8.28146 11.5268C8.32439 11.5447 8.36332 11.5709 8.396 11.604C8.65 11.857 8.995 12 9.354 12H11.6C11.6852 13.0025 11.7946 14.0028 11.928 15H12.936C12.907 14.78 12.87 14.486 12.828 14.146C12.736 13.385 12.628 12.394 12.562 11.464C12.5245 10.9769 12.5038 10.4886 12.5 10C12.5 8.949 12.643 7.596 12.778 6.565C12.802 6.378 12.826 6.203 12.848 6.043C12.96 5.245 12.428 4.472 11.604 4.346C10.644 4.199 9.136 4 8 4ZM6.646 11H4.47C4.489 10.647 4.5 10.308 4.5 10C4.5 9.073 4.396 7.949 4.284 7H11.716C11.604 7.949 11.5 9.073 11.5 10C11.5 10.308 11.511 10.647 11.53 11H9.354C9.30754 11 9.26153 10.9908 9.21863 10.9729C9.17573 10.9551 9.13678 10.9289 9.104 10.896C8.97815 10.7703 8.82877 10.6706 8.6644 10.6027C8.50002 10.5347 8.32387 10.4998 8.146 10.5H7.854C7.494 10.5 7.15 10.643 6.896 10.896C6.86322 10.9289 6.82427 10.9551 6.78137 10.9729C6.73847 10.9908 6.69246 11 6.646 11V11ZM11.845 6H4.155L4.142 5.904C4.12082 5.7748 4.15148 5.64246 4.22731 5.53573C4.30314 5.42901 4.41802 5.35651 4.547 5.334C5.505 5.188 6.947 5 8 5C9.053 5 10.495 5.188 11.453 5.334C11.582 5.35651 11.6969 5.42901 11.7727 5.53573C11.8485 5.64246 11.8792 5.7748 11.858 5.904L11.845 6V6ZM6 13.5C6 13.6326 5.94732 13.7598 5.85355 13.8536C5.75979 13.9473 5.63261 14 5.5 14C5.36739 14 5.24021 13.9473 5.14645 13.8536C5.05268 13.7598 5 13.6326 5 13.5C5 13.3674 5.05268 13.2402 5.14645 13.1464C5.24021 13.0527 5.36739 13 5.5 13C5.63261 13 5.75979 13.0527 5.85355 13.1464C5.94732 13.2402 6 13.3674 6 13.5ZM6 13.5C6 13.3674 6.05268 13.2402 6.14645 13.1464C6.24021 13.0527 6.36739 13 6.5 13C6.63261 13 6.75979 13.0527 6.85355 13.1464C6.94732 13.2402 7 13.3674 7 13.5C7 13.6326 6.94732 13.7598 6.85355 13.8536C6.75979 13.9473 6.63261 14 6.5 14C6.36739 14 6.24021 13.9473 6.14645 13.8536C6.05268 13.7598 6 13.6326 6 13.5ZM10 13.5C10 13.6326 9.94732 13.7598 9.85355 13.8536C9.75979 13.9473 9.63261 14 9.5 14C9.36739 14 9.24021 13.9473 9.14645 13.8536C9.05268 13.7598 9 13.6326 9 13.5C9 13.3674 9.05268 13.2402 9.14645 13.1464C9.24021 13.0527 9.36739 13 9.5 13C9.63261 13 9.75979 13.0527 9.85355 13.1464C9.94732 13.2402 10 13.3674 10 13.5ZM10 13.5C10 13.3674 10.0527 13.2402 10.1464 13.1464C10.2402 13.0527 10.3674 13 10.5 13C10.6326 13 10.7598 13.0527 10.8536 13.1464C10.9473 13.2402 11 13.3674 11 13.5C11 13.6326 10.9473 13.7598 10.8536 13.8536C10.7598 13.9473 10.6326 14 10.5 14C10.3674 14 10.2402 13.9473 10.1464 13.8536C10.0527 13.7598 10 13.6326 10 13.5Z" fill="#1B1B1B"/>
</svg>
