<svg width="16" height="16" viewBox="0 0 16 16" fill="none" xmlns="http://www.w3.org/2000/svg">
<path fill-rule="evenodd" clip-rule="evenodd" d="M5.065 0.158C5.27337 0.0539559 5.5031 -0.000139157 5.736 2.68835e-07H10.264C10.4966 1.60042e-05 10.7259 0.0541069 10.934 0.158L14.171 1.776C14.4204 1.90049 14.6301 2.092 14.7767 2.32904C14.9233 2.56608 15.001 2.83929 15.001 3.118V13.5C15.001 14.163 14.7376 14.7989 14.2688 15.2678C13.7999 15.7366 13.164 16 12.501 16H3.501C3.17261 16.0001 2.84741 15.9356 2.54398 15.81C2.24056 15.6844 1.96484 15.5003 1.73259 15.2681C1.50033 15.036 1.3161 14.7603 1.1904 14.4569C1.0647 14.1536 1 13.8284 1 13.5V3.118C0.999824 2.8395 1.07719 2.56644 1.22343 2.32942C1.36967 2.0924 1.57901 1.90077 1.828 1.776L5.065 0.158ZM2 9.372V13.5C2 13.8978 2.15804 14.2794 2.43934 14.5607C2.72064 14.842 3.10218 15 3.5 15H7.5V8H6.647C6.59823 7.99994 6.54972 8.00701 6.503 8.021L2 9.372ZM8.5 15H12.5C12.8978 15 13.2794 14.842 13.5607 14.5607C13.842 14.2794 14 13.8978 14 13.5V9.372L9.497 8.022C9.45033 8.00768 9.40182 8.00026 9.353 8H8.5V15ZM14 8.328V3.118C14 3.02522 13.9742 2.93427 13.9254 2.85533C13.8767 2.77639 13.8069 2.71256 13.724 2.671L10.488 1.053C10.4185 1.01815 10.3418 1.00001 10.264 1H5.736C5.65857 1.00016 5.58223 1.0183 5.513 1.053L2.277 2.67C2.19371 2.7115 2.12366 2.77542 2.07473 2.85457C2.02579 2.93371 1.99991 3.02495 2 3.118V8.328L3 8.028V5C3 4.73478 3.10536 4.48043 3.29289 4.29289C3.48043 4.10536 3.73478 4 4 4H12C12.2652 4 12.5196 4.10536 12.7071 4.29289C12.8946 4.48043 13 4.73478 13 5V8.028L14 8.328V8.328ZM12 7.728V5H8.5V7H9.353C9.49897 6.99992 9.64416 7.02114 9.784 7.063L12 7.728ZM7.5 7V5H4V7.728L6.216 7.063C6.35552 7.02124 6.50037 7.00002 6.646 7H7.5ZM6.5 2C6.36739 2 6.24022 2.05268 6.14645 2.14645C6.05268 2.24022 6 2.36739 6 2.5C6 2.63261 6.05268 2.75979 6.14645 2.85355C6.24022 2.94732 6.36739 3 6.5 3H9.5C9.63261 3 9.75979 2.94732 9.85355 2.85355C9.94732 2.75979 10 2.63261 10 2.5C10 2.36739 9.94732 2.24022 9.85355 2.14645C9.75979 2.05268 9.63261 2 9.5 2H6.5ZM3.5 10C3.36739 10 3.24022 10.0527 3.14645 10.1464C3.05268 10.2402 3 10.3674 3 10.5C3 10.6326 3.05268 10.7598 3.14645 10.8536C3.24022 10.9473 3.36739 11 3.5 11C3.63261 11 3.75979 10.9473 3.85355 10.8536C3.94732 10.7598 4 10.6326 4 10.5C4 10.3674 3.94732 10.2402 3.85355 10.1464C3.75979 10.0527 3.63261 10 3.5 10ZM12.5 10C12.3674 10 12.2402 10.0527 12.1464 10.1464C12.0527 10.2402 12 10.3674 12 10.5C12 10.6326 12.0527 10.7598 12.1464 10.8536C12.2402 10.9473 12.3674 11 12.5 11C12.6326 11 12.7598 10.9473 12.8536 10.8536C12.9473 10.7598 13 10.6326 13 10.5C13 10.3674 12.9473 10.2402 12.8536 10.1464C12.7598 10.0527 12.6326 10 12.5 10ZM5 13C5 13.2652 4.89464 13.5196 4.70711 13.7071C4.51957 13.8946 4.26522 14 4 14C3.73478 14 3.48043 13.8946 3.29289 13.7071C3.10536 13.5196 3 13.2652 3 13C3 12.7348 3.10536 12.4804 3.29289 12.2929C3.48043 12.1054 3.73478 12 4 12C4.26522 12 4.51957 12.1054 4.70711 12.2929C4.89464 12.4804 5 12.7348 5 13V13ZM12 14C12.2652 14 12.5196 13.8946 12.7071 13.7071C12.8946 13.5196 13 13.2652 13 13C13 12.7348 12.8946 12.4804 12.7071 12.2929C12.5196 12.1054 12.2652 12 12 12C11.7348 12 11.4804 12.1054 11.2929 12.2929C11.1054 12.4804 11 12.7348 11 13C11 13.2652 11.1054 13.5196 11.2929 13.7071C11.4804 13.8946 11.7348 14 12 14V14Z" fill="#1B1B1B"/>
</svg>
