<svg width="16" height="16" viewBox="0 0 16 16" fill="none" xmlns="http://www.w3.org/2000/svg">
<g clip-path="url(#clip0_1419_1938)">
<path d="M14.1 0H1.90302C0.852017 0 0.00201683 0.85 1.68259e-05 1.9V14.09C-0.00103659 14.3404 0.0473827 14.5886 0.142495 14.8203C0.237608 15.052 0.377541 15.2626 0.554263 15.4401C0.730985 15.6176 0.941016 15.7584 1.1723 15.8545C1.40358 15.9505 1.65157 16 1.90202 16H14.101C14.3512 15.9996 14.5989 15.9499 14.8298 15.8536C15.0607 15.7573 15.2704 15.6165 15.4468 15.439C15.6232 15.2616 15.7629 15.0511 15.8578 14.8196C15.9527 14.5881 16.0011 14.3402 16 14.09V1.9C15.9995 1.39625 15.7991 0.913286 15.4429 0.557082C15.0867 0.200877 14.6038 0.000529426 14.1 0ZM7.00002 11.367C6.99962 11.4506 6.98275 11.5333 6.95036 11.6104C6.91797 11.6875 6.87071 11.7574 6.81126 11.8162C6.75182 11.875 6.68137 11.9215 6.60394 11.953C6.52651 11.9846 6.44362 12.0005 6.36002 12H3.59302C3.42566 11.9992 3.26542 11.9322 3.14736 11.8135C3.02929 11.6949 2.96302 11.5344 2.96302 11.367V3.583C2.96302 3.235 3.24402 2.952 3.59302 2.95H6.35802C6.70802 2.952 6.99002 3.234 6.99102 3.583L7.00002 11.367ZM13.052 7.867C13.052 7.95072 13.0354 8.03361 13.0032 8.11087C12.9709 8.18813 12.9237 8.25822 12.8641 8.31709C12.8046 8.37596 12.734 8.42244 12.6564 8.45384C12.5788 8.48524 12.4957 8.50093 12.412 8.5H9.63202C9.46455 8.49895 9.30426 8.43189 9.18594 8.31338C9.06761 8.19486 9.0008 8.03447 9.00002 7.867V3.583C9.00081 3.41536 9.06775 3.25481 9.18629 3.13627C9.30483 3.01773 9.46538 2.95079 9.63302 2.95H12.411C12.761 2.952 13.042 3.235 13.042 3.583L13.052 7.867V7.867Z" fill="currentColor"/>
</g>
<defs>
<clipPath id="clip0_1419_1938">
<rect width="16" height="16" fill="white"/>
</clipPath>
</defs>
</svg>
