<svg width="16" height="16" viewBox="0 0 16 16" fill="none" xmlns="http://www.w3.org/2000/svg">
<g clip-path="url(#clip0_1419_2209)">
<path d="M7.93801 2.01595C7.95761 2.0052 7.97965 1.99969 8.00201 1.99995C8.02402 1.99986 8.0457 2.00537 8.06501 2.01595C8.08787 2.02966 8.10655 2.04938 8.11901 2.07295L14.976 13.74C15.012 13.8 15.011 13.864 14.978 13.923C14.9653 13.9472 14.9468 13.9678 14.924 13.983C14.9042 13.9951 14.8812 14.001 14.858 14H1.14601C1.12279 14.0011 1.09978 13.9952 1.08001 13.983C1.05726 13.9678 1.03869 13.9472 1.02601 13.923C1.00953 13.8952 1.001 13.8634 1.00135 13.8312C1.0017 13.7989 1.01092 13.7673 1.02801 13.74L7.88401 2.07295C7.89651 2.04941 7.91517 2.0297 7.93801 2.01595V2.01595ZM8.98201 1.56595C8.88302 1.39352 8.74028 1.25025 8.56821 1.15062C8.39615 1.051 8.20084 0.998535 8.00201 0.998535C7.80318 0.998535 7.60787 1.051 7.4358 1.15062C7.26373 1.25025 7.121 1.39352 7.02201 1.56595L0.165007 13.233C-0.291993 14.011 0.256007 15 1.14501 15H14.858C15.747 15 16.296 14.01 15.838 13.233L8.98201 1.56595Z" fill="#1B1B1B"/>
</g>
<defs>
<clipPath id="clip0_1419_2209">
<rect width="16" height="16" fill="white"/>
</clipPath>
</defs>
</svg>
