<svg width="16" height="16" viewBox="0 0 16 16" fill="none" xmlns="http://www.w3.org/2000/svg">
<g clip-path="url(#clip0_1419_1256)">
<path d="M0.0361037 12.314C0.0854573 12.191 0.181655 12.0926 0.303546 12.0404C0.425436 11.9883 0.563041 11.9867 0.686104 12.036L2.4431 12.739C2.80067 12.882 3.19954 12.882 3.5571 12.739L4.5711 12.333C5.16715 12.0946 5.83206 12.0946 6.4281 12.333L7.4431 12.739C7.80067 12.882 8.19954 12.882 8.5571 12.739L9.5711 12.333C10.1671 12.0946 10.8321 12.0946 11.4281 12.333L12.4431 12.739C12.8007 12.882 13.1995 12.882 13.5571 12.739L15.3141 12.036C15.3753 12.01 15.4411 11.9964 15.5077 11.9961C15.5742 11.9959 15.6401 12.0089 15.7016 12.0344C15.763 12.0599 15.8188 12.0975 15.8655 12.1448C15.9123 12.1921 15.9491 12.2483 15.9739 12.3101C15.9986 12.3719 16.0108 12.4379 16.0097 12.5045C16.0086 12.571 15.9942 12.6366 15.9674 12.6975C15.9406 12.7584 15.9019 12.8134 15.8536 12.8591C15.8053 12.9049 15.7484 12.9405 15.6861 12.964L13.9281 13.667C13.3321 13.9054 12.6671 13.9054 12.0711 13.667L11.0571 13.261C10.6995 13.118 10.3007 13.118 9.9431 13.261L8.9281 13.667C8.33206 13.9054 7.66715 13.9054 7.0711 13.667L6.0571 13.261C5.69954 13.118 5.30067 13.118 4.9431 13.261L3.9281 13.667C3.33206 13.9054 2.66715 13.9054 2.0711 13.667L0.314104 12.964C0.191062 12.9146 0.0926571 12.8184 0.0405254 12.6966C-0.0116062 12.5747 -0.0131967 12.4371 0.0361037 12.314V12.314ZM0.0361037 14.314C0.0854573 14.191 0.181655 14.0926 0.303546 14.0404C0.425436 13.9883 0.563041 13.9867 0.686104 14.036L2.4431 14.739C2.80067 14.882 3.19954 14.882 3.5571 14.739L4.5711 14.333C5.16715 14.0946 5.83206 14.0946 6.4281 14.333L7.4431 14.739C7.80067 14.882 8.19954 14.882 8.5571 14.739L9.5711 14.333C10.1671 14.0946 10.8321 14.0946 11.4281 14.333L12.4431 14.739C12.8007 14.882 13.1995 14.882 13.5571 14.739L15.3141 14.036C15.3753 14.01 15.4411 13.9964 15.5077 13.9961C15.5742 13.9959 15.6401 14.0089 15.7016 14.0344C15.763 14.0599 15.8188 14.0975 15.8655 14.1448C15.9123 14.1921 15.9491 14.2483 15.9739 14.3101C15.9986 14.3719 16.0108 14.4379 16.0097 14.5045C16.0086 14.571 15.9942 14.6366 15.9674 14.6975C15.9406 14.7584 15.9019 14.8134 15.8536 14.8591C15.8053 14.9049 15.7484 14.9405 15.6861 14.964L13.9281 15.667C13.3321 15.9054 12.6671 15.9054 12.0711 15.667L11.0571 15.261C10.6995 15.118 10.3007 15.118 9.9431 15.261L8.9281 15.667C8.33206 15.9054 7.66715 15.9054 7.0711 15.667L6.0571 15.261C5.69954 15.118 5.30067 15.118 4.9431 15.261L3.9281 15.667C3.33206 15.9054 2.66715 15.9054 2.0711 15.667L0.314104 14.964C0.191062 14.9146 0.0926571 14.8184 0.0405254 14.6966C-0.0116062 14.5747 -0.0131967 14.4371 0.0361037 14.314V14.314ZM2.6621 8.08C2.2061 9.143 1.6681 10.178 0.820104 10.884C0.717851 10.9651 0.587925 11.0031 0.458082 10.9897C0.328239 10.9763 0.208775 10.9127 0.125212 10.8124C0.0416484 10.7121 0.000611629 10.5832 0.0108684 10.453C0.0211251 10.3229 0.0818621 10.2019 0.180104 10.116C0.832104 9.572 1.2941 8.732 1.7441 7.686C1.8841 7.358 2.0251 7.006 2.1711 6.642C2.4731 5.888 2.7951 5.083 3.1811 4.334C3.7631 3.2 4.5281 2.105 5.7001 1.299C6.8771 0.49 8.4181 0 10.5001 0C11.9631 0 13.0111 0.4 13.6791 1.058C14.3491 1.718 14.5721 2.576 14.4981 3.36C14.4241 4.131 14.0571 4.876 13.4781 5.325C13.2145 5.53743 12.8984 5.67467 12.5633 5.7222C12.2281 5.76972 11.8863 5.72578 11.5741 5.595C10.9241 6.237 10.6671 7.274 10.8641 8.209C11.0761 9.215 11.7841 10 13.0001 10H15.5001C15.6327 10 15.7599 10.0527 15.8537 10.1464C15.9474 10.2402 16.0001 10.3674 16.0001 10.5C16.0001 10.6326 15.9474 10.7598 15.8537 10.8536C15.7599 10.9473 15.6327 11 15.5001 11H13.0001C11.2161 11 10.1741 9.785 9.8861 8.415C9.6541 7.315 9.8911 6.042 10.6441 5.131L10.5001 5.06L9.7231 5.448C9.6537 5.48268 9.57719 5.50073 9.4996 5.50073C9.42202 5.50073 9.3455 5.48268 9.2761 5.448L8.2761 4.948C8.16174 4.88633 8.07587 4.78256 8.0367 4.65868C7.99752 4.53479 8.0081 4.40052 8.06621 4.2843C8.12432 4.16809 8.22538 4.07906 8.348 4.03607C8.47061 3.99308 8.60515 3.99951 8.7231 4.054L9.5001 4.442L10.2761 4.054C10.3455 4.01932 10.422 4.00127 10.4996 4.00127C10.5772 4.00127 10.6537 4.01932 10.7231 4.054L11.7231 4.554C11.7347 4.55956 11.746 4.56556 11.7571 4.572C12.1971 4.836 12.5671 4.767 12.8651 4.536C13.1931 4.281 13.4511 3.807 13.5021 3.266C13.5521 2.737 13.4021 2.19 12.9771 1.771C12.5511 1.351 11.7871 1.001 10.5001 1.001C8.5821 1.001 7.2481 1.449 6.2681 2.124C5.2831 2.8 4.6101 3.738 4.0701 4.79C3.7051 5.5 3.4151 6.223 3.1251 6.95C2.9751 7.326 2.8241 7.703 2.6621 8.08V8.08Z" fill="#1B1B1B"/>
</g>
<defs>
<clipPath id="clip0_1419_1256">
<rect width="16" height="16" fill="white"/>
</clipPath>
</defs>
</svg>
