<svg width="16" height="16" viewBox="0 0 16 16" fill="none" xmlns="http://www.w3.org/2000/svg">
<path d="M8.20999 13C10.316 13 11.622 11.913 11.622 10.177C11.622 8.87099 10.638 7.89399 9.29799 7.79099V7.73599C9.81116 7.65872 10.2798 7.4006 10.6194 7.0082C10.959 6.61579 11.1472 6.11493 11.15 5.59599C11.15 4.08599 9.98799 3.13599 8.13599 3.13599H3.84299V13H8.20999ZM5.90799 4.67399H7.60399C8.56699 4.67399 9.12099 5.12499 9.12099 5.91799C9.12099 6.75199 8.49199 7.23799 7.39099 7.23799H5.90799V4.67299V4.67399ZM5.90799 11.462V8.59799H7.63799C8.85499 8.59799 9.51799 9.08999 9.51799 10.013C9.51799 10.956 8.87499 11.462 7.68599 11.462H5.90699H5.90799Z" fill="currentColor"/>
</svg>
