<svg width="16" height="16" viewBox="0 0 16 16" fill="none" xmlns="http://www.w3.org/2000/svg">
<g clip-path="url(#clip0_1419_1992)">
<path d="M2.27301 9.53C2.87585 9.53 3.454 9.29052 3.88027 8.86425C4.30654 8.43798 4.54601 7.85984 4.54601 7.257C4.54601 6.65416 4.30654 6.07602 3.88027 5.64975C3.454 5.22348 2.87585 4.984 2.27301 4.984C1.67004 4.984 1.09177 5.22353 0.665404 5.64989C0.239041 6.07626 -0.000488281 6.65453 -0.000488281 7.2575C-0.000488281 7.86047 0.239041 8.43874 0.665404 8.86511C1.09177 9.29147 1.67004 9.531 2.27301 9.531V9.53ZM11.74 4.546C12.3428 4.546 12.921 4.30652 13.3473 3.88025C13.7735 3.45398 14.013 2.87584 14.013 2.273C14.013 1.67016 13.7735 1.09202 13.3473 0.665746C12.921 0.239476 12.3428 0 11.74 0C11.1372 0 10.559 0.239476 10.1328 0.665746C9.70649 1.09202 9.46701 1.67016 9.46701 2.273C9.46701 2.87584 9.70649 3.45398 10.1328 3.88025C10.559 4.30652 11.1372 4.546 11.74 4.546ZM7.40001 13.108C6.59653 12.9381 5.84094 12.5915 5.18801 12.0934C4.53507 11.5952 4.00117 10.958 3.62501 10.228C3.0167 10.5046 2.33832 10.5883 1.68101 10.468C2.1355 11.5917 2.85906 12.5865 3.78808 13.3651C4.71711 14.1436 5.82316 14.682 7.00901 14.933C7.53901 15.046 8.08101 15.102 8.62301 15.099C8.20567 14.552 7.9725 13.8868 7.95701 13.199C7.76994 13.178 7.58404 13.1476 7.40001 13.108V13.108ZM11.228 15.393C11.5265 15.393 11.8221 15.3342 12.0979 15.22C12.3736 15.1057 12.6242 14.9383 12.8353 14.7273C13.0463 14.5162 13.2138 14.2656 13.328 13.9898C13.4422 13.7141 13.501 13.4185 13.501 13.12C13.501 12.8215 13.4422 12.5259 13.328 12.2502C13.2138 11.9744 13.0463 11.7238 12.8353 11.5127C12.6242 11.3017 12.3736 11.1343 12.0979 11.02C11.8221 10.9058 11.5265 10.847 11.228 10.847C10.6252 10.847 10.047 11.0865 9.62076 11.5127C9.19449 11.939 8.95501 12.5172 8.95501 13.12C8.95501 13.7228 9.19449 14.301 9.62076 14.7273C10.047 15.1535 10.6252 15.393 11.228 15.393V15.393ZM14.391 12.285C15.3657 11.0558 15.9266 9.54983 15.9936 7.98253C16.0606 6.41523 15.6302 4.8669 14.764 3.559C14.5017 4.17757 14.0555 4.70054 13.486 5.057C13.9406 5.91552 14.1628 6.87794 14.1307 7.84884C14.0986 8.81974 13.8133 9.76538 13.303 10.592C13.8351 11.0275 14.216 11.62 14.391 12.285V12.285ZM2.09801 3.998C2.76508 3.96306 3.42692 4.13261 3.99501 4.484C4.49604 3.76012 5.16225 3.16597 5.93852 2.75071C6.71478 2.33545 7.57878 2.11102 8.45901 2.096C8.49601 1.426 8.73601 0.783 9.14901 0.253C7.73987 0.146577 6.32944 0.441941 5.08139 1.10481C3.83335 1.76769 2.79887 2.77089 2.09801 3.998V3.998Z" fill="#1B1B1B"/>
</g>
<defs>
<clipPath id="clip0_1419_1992">
<rect width="16" height="16" fill="white"/>
</clipPath>
</defs>
</svg>
