<svg width="16" height="16" viewBox="0 0 16 16" fill="none" xmlns="http://www.w3.org/2000/svg">
<path fill-rule="evenodd" clip-rule="evenodd" d="M13 7.9999C13 7.86729 12.9473 7.74011 12.8535 7.64635C12.7598 7.55258 12.6326 7.4999 12.5 7.4999H5.70699L7.85399 5.3539C7.94788 5.26001 8.00062 5.13268 8.00062 4.9999C8.00062 4.86712 7.94788 4.73979 7.85399 4.6459C7.76011 4.55201 7.63277 4.49927 7.49999 4.49927C7.36722 4.49927 7.23988 4.55201 7.14599 4.6459L4.14599 7.6459C4.09943 7.69234 4.06249 7.74752 4.03728 7.80827C4.01207 7.86901 3.9991 7.93413 3.9991 7.9999C3.9991 8.06567 4.01207 8.13079 4.03728 8.19153C4.06249 8.25228 4.09943 8.30745 4.14599 8.3539L7.14599 11.3539C7.23988 11.4478 7.36722 11.5005 7.49999 11.5005C7.63277 11.5005 7.76011 11.4478 7.85399 11.3539C7.94788 11.26 8.00062 11.1327 8.00062 10.9999C8.00062 10.8671 7.94788 10.7398 7.85399 10.6459L5.70699 8.4999H12.5C12.6326 8.4999 12.7598 8.44722 12.8535 8.35345C12.9473 8.25968 13 8.13251 13 7.9999Z" fill="currentColor"/>
<path fill-rule="evenodd" clip-rule="evenodd" d="M3.5 4C3.36739 4 3.24021 4.05268 3.14645 4.14645C3.05268 4.24021 3 4.36739 3 4.5V11.5C3 11.6326 3.05268 11.7598 3.14645 11.8536C3.24021 11.9473 3.36739 12 3.5 12C3.63261 12 3.75979 11.9473 3.85355 11.8536C3.94732 11.7598 4 11.6326 4 11.5V4.5C4 4.36739 3.94732 4.24021 3.85355 4.14645C3.75979 4.05268 3.63261 4 3.5 4Z" fill="currentColor"/>
</svg>
