<svg width="16" height="16" viewBox="0 0 16 16" fill="none" xmlns="http://www.w3.org/2000/svg">
<g clip-path="url(#clip0_1419_1805)">
<path d="M9.50001 1.5C9.50001 1.89782 9.34197 2.27936 9.06067 2.56066C8.77936 2.84196 8.39783 3 8.00001 3C7.60218 3 7.22065 2.84196 6.93935 2.56066C6.65804 2.27936 6.50001 1.89782 6.50001 1.5C6.50001 1.10218 6.65804 0.720644 6.93935 0.43934C7.22065 0.158035 7.60218 0 8.00001 0C8.39783 0 8.77936 0.158035 9.06067 0.43934C9.34197 0.720644 9.50001 1.10218 9.50001 1.5V1.5ZM6.00001 5.5L1.46501 5.058C1.33076 5.04143 1.20789 4.97425 1.12149 4.87016C1.03508 4.76608 0.991663 4.63295 1.00008 4.49794C1.00851 4.36293 1.06814 4.23622 1.1668 4.14369C1.26547 4.05115 1.39574 3.99976 1.53101 4H14.47C14.6053 3.99976 14.7355 4.05115 14.8342 4.14369C14.9329 4.23622 14.9925 4.36293 15.0009 4.49794C15.0094 4.63295 14.9659 4.76608 14.8795 4.87016C14.7931 4.97425 14.6703 5.04143 14.536 5.058L10 5.5V9L10.452 15.42C10.4645 15.5547 10.4255 15.6892 10.3428 15.7963C10.2602 15.9034 10.14 15.9752 10.0065 15.9972C9.87303 16.0193 9.73615 15.9899 9.62343 15.9151C9.51071 15.8403 9.43052 15.7256 9.39901 15.594L8.24301 9.97C8.17901 9.718 7.82101 9.718 7.75701 9.97L6.60101 15.594C6.56949 15.7256 6.4893 15.8403 6.37658 15.9151C6.26386 15.9899 6.12698 16.0193 5.9935 15.9972C5.86002 15.9752 5.73985 15.9034 5.65719 15.7963C5.57453 15.6892 5.53552 15.5547 5.54801 15.42L6.00001 9V5.5Z" fill="currentColor"/>
</g>
<defs>
<clipPath id="clip0_1419_1805">
<rect width="16" height="16" fill="white"/>
</clipPath>
</defs>
</svg>
