<svg width="16" height="16" viewBox="0 0 16 16" fill="none" xmlns="http://www.w3.org/2000/svg">
<g clip-path="url(#clip0_1419_1804)">
<path d="M8 4.143C8.28418 4.143 8.55672 4.03011 8.75767 3.82916C8.95861 3.62822 9.0715 3.35568 9.0715 3.0715C9.0715 2.78732 8.95861 2.51478 8.75767 2.31384C8.55672 2.11289 8.28418 2 8 2C7.71582 2 7.44328 2.11289 7.24234 2.31384C7.04139 2.51478 6.9285 2.78732 6.9285 3.0715C6.9285 3.35568 7.04139 3.62822 7.24234 3.82916C7.44328 4.03011 7.71582 4.143 8 4.143V4.143ZM3.332 5.613L6.572 5.929V8.429L6.249 13.014C6.24355 13.1082 6.2731 13.2012 6.33197 13.275C6.39084 13.3488 6.47489 13.3982 6.56799 13.4138C6.66109 13.4294 6.75667 13.4101 6.8364 13.3596C6.91613 13.3091 6.97439 13.2309 7 13.14L7.826 9.123C7.871 8.943 8.127 8.943 8.172 9.123L9 13.139C9.0247 13.2308 9.08268 13.3102 9.16264 13.3616C9.24261 13.4131 9.33885 13.4329 9.43265 13.4173C9.52645 13.4017 9.61109 13.3518 9.67012 13.2773C9.72915 13.2027 9.75833 13.1089 9.752 13.014L9.43 8.43V5.93L12.669 5.614C12.7634 5.60032 12.8492 5.55162 12.9094 5.47758C12.9696 5.40354 12.9997 5.30957 12.9938 5.21435C12.9879 5.11912 12.9463 5.02961 12.8775 4.96359C12.8086 4.89757 12.7174 4.85988 12.622 4.858H3.379C3.28361 4.85988 3.19242 4.89757 3.12354 4.96359C3.05466 5.02961 3.01314 5.11912 3.00722 5.21435C3.0013 5.30957 3.03141 5.40354 3.09159 5.47758C3.15176 5.55162 3.23758 5.60032 3.332 5.614V5.613Z" fill="currentColor"/>
<path d="M8 0C5.87827 0 3.84344 0.842855 2.34315 2.34315C0.842855 3.84344 0 5.87827 0 8C0 10.1217 0.842855 12.1566 2.34315 13.6569C3.84344 15.1571 5.87827 16 8 16C10.1217 16 12.1566 15.1571 13.6569 13.6569C15.1571 12.1566 16 10.1217 16 8C16 5.87827 15.1571 3.84344 13.6569 2.34315C12.1566 0.842855 10.1217 0 8 0V0ZM1 8C1 6.14348 1.7375 4.36301 3.05025 3.05025C4.36301 1.7375 6.14348 1 8 1C9.85652 1 11.637 1.7375 12.9497 3.05025C14.2625 4.36301 15 6.14348 15 8C15 9.85652 14.2625 11.637 12.9497 12.9497C11.637 14.2625 9.85652 15 8 15C6.14348 15 4.36301 14.2625 3.05025 12.9497C1.7375 11.637 1 9.85652 1 8V8Z" fill="currentColor"/>
</g>
<defs>
<clipPath id="clip0_1419_1804">
<rect width="16" height="16" fill="white"/>
</clipPath>
</defs>
</svg>
