<svg width="16" height="16" viewBox="0 0 16 16" fill="none" xmlns="http://www.w3.org/2000/svg">
<path d="M3.5 7.5C3.36739 7.5 3.24021 7.55268 3.14645 7.64645C3.05268 7.74021 3 7.86739 3 8C3 8.13261 3.05268 8.25979 3.14645 8.35355C3.24021 8.44732 3.36739 8.5 3.5 8.5H12.5C12.6326 8.5 12.7598 8.44732 12.8536 8.35355C12.9473 8.25979 13 8.13261 13 8C13 7.86739 12.9473 7.74021 12.8536 7.64645C12.7598 7.55268 12.6326 7.5 12.5 7.5H3.5Z" fill="currentColor"/>
<path d="M0 8C0 7.20435 0.31607 6.44129 0.87868 5.87868C1.44129 5.31607 2.20435 5 3 5H13C13.7956 5 14.5587 5.31607 15.1213 5.87868C15.6839 6.44129 16 7.20435 16 8C16 8.79565 15.6839 9.55871 15.1213 10.1213C14.5587 10.6839 13.7956 11 13 11H3C2.20435 11 1.44129 10.6839 0.87868 10.1213C0.31607 9.55871 0 8.79565 0 8H0ZM3 6C2.46957 6 1.96086 6.21071 1.58579 6.58579C1.21071 6.96086 1 7.46957 1 8C1 8.53043 1.21071 9.03914 1.58579 9.41421C1.96086 9.78929 2.46957 10 3 10H13C13.5304 10 14.0391 9.78929 14.4142 9.41421C14.7893 9.03914 15 8.53043 15 8C15 7.46957 14.7893 6.96086 14.4142 6.58579C14.0391 6.21071 13.5304 6 13 6H3Z" fill="currentColor"/>
</svg>
