<svg width="16" height="16" viewBox="0 0 16 16" fill="none" xmlns="http://www.w3.org/2000/svg">
<path d="M2.25 7C2.1837 7 2.12011 7.02634 2.07322 7.07322C2.02634 7.12011 2 7.1837 2 7.25V8.25C2 8.388 2.112 8.5 2.25 8.5H13.75C13.8163 8.5 13.8799 8.47366 13.9268 8.42678C13.9737 8.37989 14 8.3163 14 8.25V7.25C14 7.1837 13.9737 7.12011 13.9268 7.07322C13.8799 7.02634 13.8163 7 13.75 7H2.25Z" fill="#1B1B1B"/>
<path d="M0 5.5C0 5.36739 0.0526784 5.24021 0.146447 5.14645C0.240215 5.05268 0.367392 5 0.5 5H15.5C15.6326 5 15.7598 5.05268 15.8536 5.14645C15.9473 5.24021 16 5.36739 16 5.5V10.5C16 10.6326 15.9473 10.7598 15.8536 10.8536C15.7598 10.9473 15.6326 11 15.5 11H0.5C0.367392 11 0.240215 10.9473 0.146447 10.8536C0.0526784 10.7598 0 10.6326 0 10.5V5.5ZM1 10H15V6H1V10Z" fill="#1B1B1B"/>
</svg>
