<svg width="16" height="16" viewBox="0 0 16 16" fill="none" xmlns="http://www.w3.org/2000/svg">
<path d="M8 5.993C9.664 4.282 13.825 7.276 8 11.125C2.175 7.275 6.336 4.282 8 5.993ZM2.25 4C2.1837 4 2.12011 4.02634 2.07322 4.07322C2.02634 4.12011 2 4.1837 2 4.25V5.75C2 5.8163 2.02634 5.87989 2.07322 5.92678C2.12011 5.97366 2.1837 6 2.25 6C2.3163 6 2.37989 5.97366 2.42678 5.92678C2.47366 5.87989 2.5 5.8163 2.5 5.75V4.5H3.75C3.8163 4.5 3.87989 4.47366 3.92678 4.42678C3.97366 4.37989 4 4.3163 4 4.25C4 4.1837 3.97366 4.12011 3.92678 4.07322C3.87989 4.02634 3.8163 4 3.75 4H2.25ZM12.25 4C12.1837 4 12.1201 4.02634 12.0732 4.07322C12.0263 4.12011 12 4.1837 12 4.25C12 4.3163 12.0263 4.37989 12.0732 4.42678C12.1201 4.47366 12.1837 4.5 12.25 4.5H13.5V5.75C13.5 5.8163 13.5263 5.87989 13.5732 5.92678C13.6201 5.97366 13.6837 6 13.75 6C13.8163 6 13.8799 5.97366 13.9268 5.92678C13.9737 5.87989 14 5.8163 14 5.75V4.25C14 4.1837 13.9737 4.12011 13.9268 4.07322C13.8799 4.02634 13.8163 4 13.75 4H12.25ZM2.5 10.25C2.5 10.1837 2.47366 10.1201 2.42678 10.0732C2.37989 10.0263 2.3163 10 2.25 10C2.1837 10 2.12011 10.0263 2.07322 10.0732C2.02634 10.1201 2 10.1837 2 10.25V11.75C2 11.888 2.112 12 2.25 12H3.75C3.8163 12 3.87989 11.9737 3.92678 11.9268C3.97366 11.8799 4 11.8163 4 11.75C4 11.6837 3.97366 11.6201 3.92678 11.5732C3.87989 11.5263 3.8163 11.5 3.75 11.5H2.5V10.25ZM14 10.25C14 10.1837 13.9737 10.1201 13.9268 10.0732C13.8799 10.0263 13.8163 10 13.75 10C13.6837 10 13.6201 10.0263 13.5732 10.0732C13.5263 10.1201 13.5 10.1837 13.5 10.25V11.5H12.25C12.1837 11.5 12.1201 11.5263 12.0732 11.5732C12.0263 11.6201 12 11.6837 12 11.75C12 11.8163 12.0263 11.8799 12.0732 11.9268C12.1201 11.9737 12.1837 12 12.25 12H13.75C13.8163 12 13.8799 11.9737 13.9268 11.9268C13.9737 11.8799 14 11.8163 14 11.75V10.25Z" fill="#1B1B1B"/>
<path fill-rule="evenodd" clip-rule="evenodd" d="M0 2.99389V2.93389C2.31057e-06 2.69311 0.0868852 2.46041 0.244689 2.27854C0.402492 2.09667 0.620619 1.97785 0.859 1.94389L13.859 0.0868948C14.0008 0.0666986 14.1453 0.0772012 14.2827 0.117692C14.4201 0.158182 14.5472 0.227716 14.6554 0.321587C14.7635 0.415457 14.8503 0.531474 14.9098 0.661785C14.9692 0.792096 15 0.933659 15 1.07689V1.99989C15.2652 1.99989 15.5196 2.10525 15.7071 2.29279C15.8946 2.48032 16 2.73468 16 2.99989V12.9999C16 13.2651 15.8946 13.5195 15.7071 13.707C15.5196 13.8945 15.2652 13.9999 15 13.9999H1C0.734784 13.9999 0.48043 13.8945 0.292893 13.707C0.105357 13.5195 0 13.2651 0 12.9999V2.99389ZM1 2.99989V12.9999H15V2.99989H1Z" fill="#1B1B1B"/>
</svg>
