<svg width="16" height="16" viewBox="0 0 16 16" fill="none" xmlns="http://www.w3.org/2000/svg">
<path fill-rule="evenodd" clip-rule="evenodd" d="M10.646 0.645917C10.6925 0.599354 10.7477 0.562411 10.8084 0.537205C10.8691 0.511998 10.9343 0.499023 11 0.499023C11.0658 0.499023 11.1309 0.511998 11.1917 0.537205C11.2524 0.562411 11.3076 0.599354 11.354 0.645917L15.354 4.64592C15.4006 4.69236 15.4375 4.74754 15.4627 4.80828C15.4879 4.86903 15.5009 4.93415 15.5009 4.99992C15.5009 5.06568 15.4879 5.13081 15.4627 5.19155C15.4375 5.2523 15.4006 5.30747 15.354 5.35392L13.452 7.25592L12.623 10.5689C12.56 10.8212 12.4324 11.0527 12.2529 11.2408C12.0734 11.4289 11.8481 11.5672 11.599 11.6419L1.25403 14.7459L4.35803 4.39992C4.43285 4.15118 4.57097 3.92613 4.75889 3.7468C4.9468 3.56748 5.17806 3.44002 5.43003 3.37692L8.74303 2.54892L10.646 0.645917ZM8.84603 3.55392L5.67303 4.34692C5.5888 4.36794 5.5115 4.41053 5.44873 4.4705C5.38595 4.53046 5.33988 4.60574 5.31503 4.68892L2.74503 13.2539L11.312 10.6839C11.3947 10.6589 11.4695 10.6128 11.5291 10.5502C11.5887 10.4877 11.631 10.4107 11.652 10.3269L12.446 7.15292L8.84603 3.55292V3.55392Z" fill="currentColor"/>
<path fill-rule="evenodd" clip-rule="evenodd" d="M2.83197 13.228L7.99997 9C8.19775 9 8.39109 8.94135 8.55554 8.83147C8.71999 8.72159 8.84816 8.56541 8.92385 8.38268C8.99954 8.19996 9.01934 7.99889 8.98076 7.80491C8.94217 7.61093 8.84693 7.43275 8.70708 7.29289C8.56723 7.15304 8.38904 7.0578 8.19506 7.01922C8.00108 6.98063 7.80001 7.00043 7.61729 7.07612C7.43456 7.15181 7.27838 7.27998 7.1685 7.44443C7.05862 7.60888 6.99997 7.80222 6.99997 8L2.77197 13.168L2.74597 13.254L2.83197 13.228V13.228Z" fill="currentColor"/>
</svg>
