<svg width="16" height="16" viewBox="0 0 16 16" fill="none" xmlns="http://www.w3.org/2000/svg">
<path d="M11 0.499023C11.0657 0.499023 11.1307 0.511983 11.1914 0.537109C11.2522 0.562316 11.308 0.599921 11.3545 0.646484L15.3545 4.64648C15.4008 4.69284 15.4378 4.74805 15.4629 4.80859C15.488 4.86927 15.501 4.93432 15.501 5C15.501 5.06567 15.488 5.13074 15.4629 5.19141C15.4377 5.25215 15.4011 5.30805 15.3545 5.35449L13.4521 7.25586L12.623 10.5693C12.56 10.8215 12.4324 11.0532 12.2529 11.2412C12.0734 11.4293 11.8476 11.5669 11.5986 11.6416L1.25391 14.7461L4.3584 4.40039C4.4332 4.15171 4.57094 3.92638 4.75879 3.74707C4.94663 3.56782 5.17784 3.44009 5.42969 3.37695L8.74316 2.54883L10.6465 0.646484C10.6929 0.599923 10.7479 0.562315 10.8086 0.537109C10.8693 0.511974 10.9343 0.499027 11 0.499023ZM8.19531 7.01953C8.00133 6.98095 7.79991 7.00048 7.61719 7.07617C7.43461 7.15182 7.2788 7.28005 7.16895 7.44434C7.05906 7.60878 7 7.80222 7 8L2.77148 13.168L2.74609 13.2539L2.83203 13.2275L8 9C8.19777 8.99999 8.39122 8.94093 8.55566 8.83105C8.71995 8.72121 8.84818 8.56539 8.92383 8.38281C8.99952 8.20009 9.01905 7.99867 8.98047 7.80469C8.94185 7.61082 8.84681 7.43275 8.70703 7.29297C8.56725 7.15319 8.38918 7.05816 8.19531 7.01953Z" fill="#1B1B1B"/>
</svg>
