<svg width="16" height="16" viewBox="0 0 16 16" fill="none" xmlns="http://www.w3.org/2000/svg">
<g clip-path="url(#clip0_1419_1814)">
<path fill-rule="evenodd" clip-rule="evenodd" d="M8 0C8.26522 0 8.51957 0.105357 8.70711 0.292893C8.89464 0.48043 9 0.734784 9 1V2.402C9 2.913 9.677 3.095 9.933 2.652L10.633 1.438C10.7656 1.20819 10.9841 1.04047 11.2403 0.971739C11.4966 0.903006 11.7697 0.938892 11.9995 1.0715C12.2293 1.20411 12.397 1.42258 12.4658 1.67885C12.5345 1.93511 12.4986 2.20819 12.366 2.438L11.665 3.652C11.409 4.095 11.905 4.591 12.348 4.335L13.562 3.634C13.7916 3.50348 14.0634 3.46906 14.3183 3.53825C14.5731 3.60744 14.7902 3.77462 14.9223 4.00331C15.0543 4.23199 15.0905 4.50362 15.023 4.75892C14.9555 5.01421 14.7898 5.23245 14.562 5.366L13.348 6.067C12.905 6.323 13.086 7 13.598 7H15C15.2652 7 15.5196 7.10536 15.7071 7.29289C15.8946 7.48043 16 7.73478 16 8C16 8.26522 15.8946 8.51957 15.7071 8.70711C15.5196 8.89464 15.2652 9 15 9H13.598C13.086 9 12.905 9.677 13.348 9.933L14.562 10.634C14.6766 10.6992 14.7773 10.7864 14.8581 10.8906C14.9389 10.9949 14.9983 11.114 15.0328 11.2413C15.0674 11.3686 15.0764 11.5014 15.0594 11.6322C15.0424 11.763 14.9997 11.8891 14.9338 12.0033C14.8678 12.1175 14.7799 12.2176 14.6752 12.2977C14.5704 12.3778 14.4508 12.4364 14.3233 12.4701C14.1958 12.5038 14.0629 12.512 13.9323 12.4941C13.8016 12.4762 13.6758 12.4327 13.562 12.366L12.348 11.666C11.905 11.409 11.409 11.906 11.665 12.348L12.366 13.562C12.4327 13.6758 12.4762 13.8016 12.4941 13.9323C12.512 14.0629 12.5038 14.1958 12.4701 14.3233C12.4364 14.4508 12.3778 14.5704 12.2977 14.6752C12.2176 14.7799 12.1175 14.8678 12.0033 14.9338C11.8891 14.9997 11.763 15.0424 11.6322 15.0594C11.5014 15.0764 11.3686 15.0674 11.2413 15.0328C11.114 14.9983 10.9949 14.9389 10.8906 14.8581C10.7864 14.7773 10.6992 14.6766 10.634 14.562L9.933 13.348C9.677 12.905 9 13.086 9 13.598V15C9 15.2652 8.89464 15.5196 8.70711 15.7071C8.51957 15.8946 8.26522 16 8 16C7.73478 16 7.48043 15.8946 7.29289 15.7071C7.10536 15.5196 7 15.2652 7 15V13.598C7 13.086 6.323 12.905 6.067 13.348L5.366 14.562C5.23245 14.7898 5.01421 14.9555 4.75892 15.023C4.50362 15.0905 4.23199 15.0543 4.00331 14.9223C3.77462 14.7902 3.60744 14.5731 3.53825 14.3183C3.46906 14.0634 3.50348 13.7916 3.634 13.562L4.334 12.348C4.591 11.905 4.094 11.409 3.652 11.665L2.438 12.366C2.32423 12.4327 2.19839 12.4762 2.06772 12.4941C1.93706 12.512 1.80415 12.5038 1.67665 12.4701C1.54915 12.4364 1.42958 12.3778 1.32482 12.2977C1.22006 12.2176 1.13218 12.1175 1.06624 12.0033C1.00029 11.8891 0.957596 11.763 0.940597 11.6322C0.923599 11.5014 0.932636 11.3686 0.96719 11.2413C1.00174 11.114 1.06113 10.9949 1.14193 10.8906C1.22273 10.7864 1.32335 10.6992 1.438 10.634L2.652 9.933C3.095 9.677 2.913 9 2.402 9H1C0.734784 9 0.48043 8.89464 0.292893 8.70711C0.105357 8.51957 0 8.26522 0 8C0 7.73478 0.105357 7.48043 0.292893 7.29289C0.48043 7.10536 0.734784 7 1 7H2.402C2.913 7 3.095 6.323 2.652 6.067L1.438 5.366C1.32335 5.30082 1.22273 5.2136 1.14193 5.10937C1.06113 5.00515 1.00174 4.88597 0.96719 4.75869C0.932636 4.63142 0.923599 4.49857 0.940597 4.36779C0.957596 4.23701 1.00029 4.11088 1.06624 3.99667C1.13218 3.88246 1.22006 3.78242 1.32482 3.70231C1.42958 3.62221 1.54915 3.56361 1.67665 3.5299C1.80415 3.49619 1.93706 3.48804 2.06772 3.5059C2.19839 3.52377 2.32423 3.5673 2.438 3.634L3.652 4.335C4.095 4.591 4.591 4.095 4.335 3.652L3.634 2.438C3.50348 2.20844 3.46906 1.93658 3.53825 1.68174C3.60744 1.42689 3.77462 1.20976 4.00331 1.07773C4.23199 0.945689 4.50362 0.909466 4.75892 0.976962C5.01421 1.04446 5.23245 1.21019 5.366 1.438L6.067 2.652C6.323 3.095 7 2.913 7 2.402V1C7 0.734784 7.10536 0.48043 7.29289 0.292893C7.48043 0.105357 7.73478 0 8 0V0ZM10 5C10 5.26522 9.89464 5.51957 9.70711 5.70711C9.51957 5.89464 9.26522 6 9 6C8.73478 6 8.48043 5.89464 8.29289 5.70711C8.10536 5.51957 8 5.26522 8 5C8 4.73478 8.10536 4.48043 8.29289 4.29289C8.48043 4.10536 8.73478 4 9 4C9.26522 4 9.51957 4.10536 9.70711 4.29289C9.89464 4.48043 10 4.73478 10 5ZM6 7C6 7.26522 5.89464 7.51957 5.70711 7.70711C5.51957 7.89464 5.26522 8 5 8C4.73478 8 4.48043 7.89464 4.29289 7.70711C4.10536 7.51957 4 7.26522 4 7C4 6.73478 4.10536 6.48043 4.29289 6.29289C4.48043 6.10536 4.73478 6 5 6C5.26522 6 5.51957 6.10536 5.70711 6.29289C5.89464 6.48043 6 6.73478 6 7V7ZM7 11C7.26522 11 7.51957 10.8946 7.70711 10.7071C7.89464 10.5196 8 10.2652 8 10C8 9.73478 7.89464 9.48043 7.70711 9.29289C7.51957 9.10536 7.26522 9 7 9C6.73478 9 6.48043 9.10536 6.29289 9.29289C6.10536 9.48043 6 9.73478 6 10C6 10.2652 6.10536 10.5196 6.29289 10.7071C6.48043 10.8946 6.73478 11 7 11ZM12 8C12 8.26522 11.8946 8.51957 11.7071 8.70711C11.5196 8.89464 11.2652 9 11 9C10.7348 9 10.4804 8.89464 10.2929 8.70711C10.1054 8.51957 10 8.26522 10 8C10 7.73478 10.1054 7.48043 10.2929 7.29289C10.4804 7.10536 10.7348 7 11 7C11.2652 7 11.5196 7.10536 11.7071 7.29289C11.8946 7.48043 12 7.73478 12 8Z" fill="#1B1B1B"/>
</g>
<defs>
<clipPath id="clip0_1419_1814">
<rect width="16" height="16" fill="white"/>
</clipPath>
</defs>
</svg>
