<svg width="16" height="16" viewBox="0 0 16 16" fill="none" xmlns="http://www.w3.org/2000/svg">
<g clip-path="url(#clip0_1419_1815)">
<path fill-rule="evenodd" clip-rule="evenodd" d="M8 0C7.73478 0 7.48043 0.105357 7.29289 0.292893C7.10536 0.48043 7 0.734784 7 1V2.143C7 2.7 6.593 3.168 6.079 3.383C5.565 3.597 4.959 3.545 4.566 3.152L3.757 2.343C3.66475 2.24749 3.55441 2.17131 3.4324 2.1189C3.3104 2.06649 3.17918 2.0389 3.0464 2.03775C2.91362 2.0366 2.78194 2.0619 2.65905 2.11218C2.53615 2.16246 2.4245 2.23671 2.33061 2.33061C2.23671 2.4245 2.16246 2.53615 2.11218 2.65905C2.0619 2.78194 2.0366 2.91362 2.03775 3.0464C2.0389 3.17918 2.06649 3.3104 2.1189 3.4324C2.17131 3.55441 2.24749 3.66475 2.343 3.757L3.152 4.566C3.545 4.96 3.597 5.565 3.382 6.079C3.168 6.593 2.7 7 2.142 7H1C0.734784 7 0.48043 7.10536 0.292893 7.29289C0.105357 7.48043 0 7.73478 0 8C0 8.26522 0.105357 8.51957 0.292893 8.70711C0.48043 8.89464 0.734784 9 1 9H2.143C2.7 9 3.168 9.407 3.383 9.921C3.597 10.435 3.545 11.041 3.152 11.434L2.343 12.243C2.16084 12.4316 2.06005 12.6842 2.06233 12.9464C2.0646 13.2086 2.16977 13.4594 2.35518 13.6448C2.54059 13.8302 2.7914 13.9354 3.0536 13.9377C3.3158 13.94 3.5684 13.8392 3.757 13.657L4.566 12.848C4.96 12.454 5.565 12.403 6.079 12.618C6.593 12.832 7 13.3 7 13.858V15C7 15.2652 7.10536 15.5196 7.29289 15.7071C7.48043 15.8946 7.73478 16 8 16C8.26522 16 8.51957 15.8946 8.70711 15.7071C8.89464 15.5196 9 15.2652 9 15V13.857C9 13.3 9.407 12.832 9.921 12.617C10.435 12.403 11.041 12.455 11.434 12.848L12.243 13.657C12.4316 13.8392 12.6842 13.94 12.9464 13.9377C13.2086 13.9354 13.4594 13.8302 13.6448 13.6448C13.8302 13.4594 13.9354 13.2086 13.9377 12.9464C13.94 12.6842 13.8392 12.4316 13.657 12.243L12.848 11.434C12.454 11.04 12.403 10.435 12.618 9.921C12.832 9.407 13.3 9 13.858 9H15C15.2652 9 15.5196 8.89464 15.7071 8.70711C15.8946 8.51957 16 8.26522 16 8C16 7.73478 15.8946 7.48043 15.7071 7.29289C15.5196 7.10536 15.2652 7 15 7H13.857C13.3 7 12.832 6.593 12.617 6.079C12.403 5.565 12.454 4.959 12.848 4.566L13.657 3.757C13.7498 3.66409 13.8235 3.5538 13.8737 3.43243C13.9239 3.31107 13.9497 3.18099 13.9497 3.04965C13.9497 2.9183 13.9237 2.78824 13.8734 2.66691C13.8231 2.54558 13.7494 2.43534 13.6565 2.3425C13.5636 2.24966 13.4533 2.17602 13.3319 2.1258C13.2106 2.07558 13.0805 2.04975 12.9491 2.0498C12.8178 2.04984 12.6877 2.07576 12.5664 2.12607C12.4451 2.17638 12.3348 2.25009 12.242 2.343L11.434 3.152C11.04 3.545 10.435 3.597 9.921 3.382C9.407 3.168 9 2.7 9 2.142V1C9 0.734784 8.89464 0.48043 8.70711 0.292893C8.51957 0.105357 8.26522 0 8 0V0ZM10 5C10 5.26522 9.89464 5.51957 9.70711 5.70711C9.51957 5.89464 9.26522 6 9 6C8.73478 6 8.48043 5.89464 8.29289 5.70711C8.10536 5.51957 8 5.26522 8 5C8 4.73478 8.10536 4.48043 8.29289 4.29289C8.48043 4.10536 8.73478 4 9 4C9.26522 4 9.51957 4.10536 9.70711 4.29289C9.89464 4.48043 10 4.73478 10 5ZM7 7C7 7.26522 6.89464 7.51957 6.70711 7.70711C6.51957 7.89464 6.26522 8 6 8C5.73478 8 5.48043 7.89464 5.29289 7.70711C5.10536 7.51957 5 7.26522 5 7C5 6.73478 5.10536 6.48043 5.29289 6.29289C5.48043 6.10536 5.73478 6 6 6C6.26522 6 6.51957 6.10536 6.70711 6.29289C6.89464 6.48043 7 6.73478 7 7V7ZM8 12C8.26522 12 8.51957 11.8946 8.70711 11.7071C8.89464 11.5196 9 11.2652 9 11C9 10.7348 8.89464 10.4804 8.70711 10.2929C8.51957 10.1054 8.26522 10 8 10C7.73478 10 7.48043 10.1054 7.29289 10.2929C7.10536 10.4804 7 10.7348 7 11C7 11.2652 7.10536 11.5196 7.29289 11.7071C7.48043 11.8946 7.73478 12 8 12ZM12 8C12 8.26522 11.8946 8.51957 11.7071 8.70711C11.5196 8.89464 11.2652 9 11 9C10.7348 9 10.4804 8.89464 10.2929 8.70711C10.1054 8.51957 10 8.26522 10 8C10 7.73478 10.1054 7.48043 10.2929 7.29289C10.4804 7.10536 10.7348 7 11 7C11.2652 7 11.5196 7.10536 11.7071 7.29289C11.8946 7.48043 12 7.73478 12 8Z" fill="currentColor"/>
</g>
<defs>
<clipPath id="clip0_1419_1815">
<rect width="16" height="16" fill="white"/>
</clipPath>
</defs>
</svg>
