<svg width="16" height="16" viewBox="0 0 16 16" fill="none" xmlns="http://www.w3.org/2000/svg">
<path d="M11.536 14.0102C12.3265 13.2219 12.9535 12.2851 13.3808 11.2537C13.8081 10.2223 14.0274 9.11665 14.026 8.00023C14.0274 6.88382 13.8081 5.77814 13.3808 4.74674C12.9535 3.71534 12.3265 2.77856 11.536 1.99023L10.828 2.69723C11.5255 3.39282 12.0787 4.21941 12.4557 5.12948C12.8328 6.03955 13.0262 7.01516 13.025 8.00023C13.025 10.0712 12.185 11.9462 10.828 13.3032L11.536 14.0102V14.0102Z" fill="currentColor"/>
<path d="M10.121 12.5958C10.7255 11.9929 11.2049 11.2765 11.5316 10.4878C11.8584 9.69907 12.026 8.85354 12.025 7.99981C12.026 7.14607 11.8584 6.30055 11.5316 5.51182C11.2049 4.72308 10.7255 4.00669 10.121 3.40381L9.414 4.11081C9.92548 4.62095 10.3311 5.22715 10.6076 5.89455C10.884 6.56195 11.0259 7.27741 11.025 7.99981C11.0262 8.72231 10.8845 9.43791 10.6082 10.1055C10.3319 10.7731 9.92642 11.3795 9.415 11.8898L10.121 12.5958Z" fill="currentColor"/>
<path d="M10.025 7.99978C10.0258 8.59084 9.90973 9.17623 9.68354 9.7223C9.45735 10.2684 9.12548 10.7644 8.707 11.1818L8 10.4748C8.32548 10.1501 8.5836 9.76431 8.7595 9.33957C8.93541 8.91483 9.02563 8.4595 9.025 7.99978C9.025 7.03378 8.633 6.15878 8 5.52478L8.707 4.81778C9.12548 5.23518 9.45735 5.73118 9.68354 6.27725C9.90973 6.82332 10.0258 7.40871 10.025 7.99978V7.99978ZM7 3.99978C6.99987 3.90569 6.97319 3.81355 6.92303 3.73395C6.87288 3.65435 6.80128 3.59051 6.71647 3.54978C6.63166 3.50905 6.53708 3.49307 6.4436 3.50368C6.35011 3.51429 6.26152 3.55107 6.188 3.60978L3.825 5.49978H1.5C1.36739 5.49978 1.24021 5.55246 1.14645 5.64622C1.05268 5.73999 1 5.86717 1 5.99978V9.99978C1 10.1324 1.05268 10.2596 1.14645 10.3533C1.24021 10.4471 1.36739 10.4998 1.5 10.4998H3.825L6.188 12.3898C6.26152 12.4485 6.35011 12.4853 6.4436 12.4959C6.53708 12.5065 6.63166 12.4905 6.71647 12.4498C6.80128 12.409 6.87288 12.3452 6.92303 12.2656C6.97319 12.186 6.99987 12.0939 7 11.9998V3.99978ZM4.312 6.38978L6 5.03978V10.9598L4.312 9.60978C4.22349 9.53877 4.11347 9.49998 4 9.49978H2V6.49978H4C4.11347 6.49957 4.22349 6.46078 4.312 6.38978V6.38978Z" fill="currentColor"/>
</svg>
