<svg width="16" height="16" viewBox="0 0 16 16" fill="none" xmlns="http://www.w3.org/2000/svg">
<g clip-path="url(#clip0_1419_1259)">
<path d="M0.0361037 3.31396C0.0854573 3.19092 0.181655 3.09251 0.303546 3.04038C0.425436 2.98825 0.563041 2.98666 0.686104 3.03596L2.4431 3.73896C2.80067 3.88196 3.19954 3.88196 3.5571 3.73896L4.5711 3.33296C5.16715 3.09454 5.83206 3.09454 6.4281 3.33296L7.4431 3.73896C7.80067 3.88196 8.19954 3.88196 8.5571 3.73896L9.5711 3.33296C10.1671 3.09454 10.8321 3.09454 11.4281 3.33296L12.4431 3.73896C12.8007 3.88196 13.1995 3.88196 13.5571 3.73896L15.3141 3.03596C15.3753 3.00993 15.4411 2.99637 15.5077 2.9961C15.5742 2.99582 15.6401 3.00883 15.7016 3.03436C15.763 3.05988 15.8188 3.09742 15.8655 3.14476C15.9123 3.1921 15.9491 3.2483 15.9739 3.31005C15.9986 3.37181 16.0108 3.43789 16.0097 3.50442C16.0086 3.57094 15.9942 3.63658 15.9674 3.69748C15.9406 3.75838 15.9019 3.81332 15.8536 3.85908C15.8053 3.90484 15.7484 3.94049 15.6861 3.96396L13.9281 4.66696C13.3321 4.90538 12.6671 4.90538 12.0711 4.66696L11.0571 4.26096C10.6995 4.11796 10.3007 4.11796 9.9431 4.26096L8.9281 4.66696C8.33206 4.90538 7.66715 4.90538 7.0711 4.66696L6.0571 4.26096C5.69954 4.11796 5.30067 4.11796 4.9431 4.26096L3.9281 4.66696C3.33206 4.90538 2.66715 4.90538 2.0711 4.66696L0.314104 3.96396C0.191062 3.91461 0.0926571 3.81841 0.0405254 3.69652C-0.0116062 3.57463 -0.0131967 3.43702 0.0361037 3.31396V3.31396ZM0.0361037 6.31396C0.0854573 6.19092 0.181655 6.09251 0.303546 6.04038C0.425436 5.98825 0.563041 5.98666 0.686104 6.03596L2.4431 6.73896C2.80067 6.88196 3.19954 6.88196 3.5571 6.73896L4.5711 6.33296C5.16715 6.09454 5.83206 6.09454 6.4281 6.33296L7.4431 6.73896C7.80067 6.88196 8.19954 6.88196 8.5571 6.73896L9.5711 6.33296C10.1671 6.09454 10.8321 6.09454 11.4281 6.33296L12.4431 6.73896C12.8007 6.88196 13.1995 6.88196 13.5571 6.73896L15.3141 6.03596C15.3753 6.00993 15.4411 5.99637 15.5077 5.9961C15.5742 5.99582 15.6401 6.00883 15.7016 6.03436C15.763 6.05988 15.8188 6.09742 15.8655 6.14476C15.9123 6.1921 15.9491 6.2483 15.9739 6.31005C15.9986 6.37181 16.0108 6.43789 16.0097 6.50442C16.0086 6.57094 15.9942 6.63658 15.9674 6.69748C15.9406 6.75838 15.9019 6.81332 15.8536 6.85908C15.8053 6.90484 15.7484 6.94049 15.6861 6.96396L13.9281 7.66696C13.3321 7.90538 12.6671 7.90538 12.0711 7.66696L11.0571 7.26096C10.6995 7.11796 10.3007 7.11796 9.9431 7.26096L8.9281 7.66696C8.33206 7.90538 7.66715 7.90538 7.0711 7.66696L6.0571 7.26096C5.69954 7.11796 5.30067 7.11796 4.9431 7.26096L3.9281 7.66696C3.33206 7.90538 2.66715 7.90538 2.0711 7.66696L0.314104 6.96396C0.191062 6.91461 0.0926571 6.81841 0.0405254 6.69652C-0.0116062 6.57463 -0.0131967 6.43702 0.0361037 6.31396V6.31396ZM0.0361037 9.31396C0.0854573 9.19092 0.181655 9.09251 0.303546 9.04038C0.425436 8.98825 0.563041 8.98666 0.686104 9.03596L2.4431 9.73896C2.80067 9.88196 3.19954 9.88196 3.5571 9.73896L4.5711 9.33296C5.16715 9.09454 5.83206 9.09454 6.4281 9.33296L7.4431 9.73896C7.80067 9.88196 8.19954 9.88196 8.5571 9.73896L9.5711 9.33296C10.1671 9.09454 10.8321 9.09454 11.4281 9.33296L12.4431 9.73896C12.8007 9.88196 13.1995 9.88196 13.5571 9.73896L15.3141 9.03596C15.3753 9.00993 15.4411 8.99637 15.5077 8.9961C15.5742 8.99582 15.6401 9.00883 15.7016 9.03436C15.763 9.05988 15.8188 9.09742 15.8655 9.14476C15.9123 9.1921 15.9491 9.2483 15.9739 9.31005C15.9986 9.37181 16.0108 9.43789 16.0097 9.50442C16.0086 9.57094 15.9942 9.63658 15.9674 9.69748C15.9406 9.75838 15.9019 9.81332 15.8536 9.85908C15.8053 9.90483 15.7484 9.94049 15.6861 9.96396L13.9281 10.667C13.3321 10.9054 12.6671 10.9054 12.0711 10.667L11.0571 10.261C10.6995 10.118 10.3007 10.118 9.9431 10.261L8.9281 10.667C8.33206 10.9054 7.66715 10.9054 7.0711 10.667L6.0571 10.261C5.69954 10.118 5.30067 10.118 4.9431 10.261L3.9281 10.667C3.33206 10.9054 2.66715 10.9054 2.0711 10.667L0.314104 9.96396C0.191062 9.91461 0.0926571 9.81841 0.0405254 9.69652C-0.0116062 9.57463 -0.0131967 9.43702 0.0361037 9.31396V9.31396ZM0.0361037 12.314C0.0854573 12.1909 0.181655 12.0925 0.303546 12.0404C0.425436 11.9882 0.563041 11.9867 0.686104 12.036L2.4431 12.739C2.80067 12.882 3.19954 12.882 3.5571 12.739L4.5711 12.333C5.16715 12.0945 5.83206 12.0945 6.4281 12.333L7.4431 12.739C7.80067 12.882 8.19954 12.882 8.5571 12.739L9.5711 12.333C10.1671 12.0945 10.8321 12.0945 11.4281 12.333L12.4431 12.739C12.8007 12.882 13.1995 12.882 13.5571 12.739L15.3141 12.036C15.3753 12.0099 15.4411 11.9964 15.5077 11.9961C15.5742 11.9958 15.6401 12.0088 15.7016 12.0344C15.763 12.0599 15.8188 12.0974 15.8655 12.1448C15.9123 12.1921 15.9491 12.2483 15.9739 12.3101C15.9986 12.3718 16.0108 12.4379 16.0097 12.5044C16.0086 12.5709 15.9942 12.6366 15.9674 12.6975C15.9406 12.7584 15.9019 12.8133 15.8536 12.8591C15.8053 12.9048 15.7484 12.9405 15.6861 12.964L13.9281 13.667C13.3321 13.9054 12.6671 13.9054 12.0711 13.667L11.0571 13.261C10.6995 13.118 10.3007 13.118 9.9431 13.261L8.9281 13.667C8.33206 13.9054 7.66715 13.9054 7.0711 13.667L6.0571 13.261C5.69954 13.118 5.30067 13.118 4.9431 13.261L3.9281 13.667C3.33206 13.9054 2.66715 13.9054 2.0711 13.667L0.314104 12.964C0.191062 12.9146 0.0926571 12.8184 0.0405254 12.6965C-0.0116062 12.5746 -0.0131967 12.437 0.0361037 12.314V12.314Z" fill="currentColor"/>
</g>
<defs>
<clipPath id="clip0_1419_1259">
<rect width="16" height="16" fill="white"/>
</clipPath>
</defs>
</svg>
