<svg width="16" height="16" viewBox="0 0 16 16" fill="none" xmlns="http://www.w3.org/2000/svg">
<path d="M11.176 14.4291C8.51098 14.4291 6.34998 12.6291 6.34998 10.4111C6.34998 8.19111 8.50898 6.39111 11.174 6.39111C13.839 6.39111 16 8.19111 16 10.4111C16 11.6211 15.35 12.7121 14.334 13.4471C14.2774 13.4873 14.2353 13.5445 14.2137 13.6103C14.1921 13.6762 14.1922 13.7473 14.214 13.8131L14.432 14.6231C14.4454 14.6611 14.4552 14.7003 14.461 14.7401C14.46 14.7828 14.4426 14.8234 14.4124 14.8535C14.3822 14.8837 14.3416 14.9011 14.299 14.9021C14.2661 14.9009 14.2343 14.8905 14.207 14.8721L13.15 14.2621C13.0725 14.2156 12.9843 14.1901 12.894 14.1881C12.8459 14.1884 12.7981 14.1954 12.752 14.2091C12.2396 14.3562 11.709 14.4303 11.176 14.4291V14.4291ZM9.06398 9.54211C9.12482 9.63551 9.20876 9.7116 9.30766 9.76301C9.40656 9.81442 9.51707 9.83941 9.62847 9.83556C9.73987 9.8317 9.84838 9.79913 9.94349 9.741C10.0386 9.68287 10.1171 9.60116 10.1713 9.50378C10.2256 9.4064 10.2537 9.29666 10.2531 9.18519C10.2524 9.07373 10.223 8.96432 10.1676 8.86758C10.1123 8.77084 10.0328 8.69004 9.93707 8.63301C9.84129 8.57599 9.73241 8.54468 9.62098 8.54211C9.53602 8.54198 9.45188 8.55863 9.37337 8.59111C9.29487 8.62359 9.22356 8.67126 9.16354 8.73138C9.10351 8.7915 9.05595 8.86289 9.02359 8.94144C8.99123 9.01999 8.97471 9.10416 8.97498 9.18911C8.96864 9.31317 9.00001 9.43624 9.06498 9.54211H9.06398ZM12.296 9.54311C12.3571 9.63647 12.4415 9.71239 12.5407 9.76347C12.6399 9.81455 12.7507 9.83905 12.8622 9.83457C12.9738 9.83009 13.0822 9.7968 13.1771 9.73793C13.2719 9.67906 13.3498 9.59663 13.4033 9.49867C13.4568 9.4007 13.484 9.29055 13.4823 9.17895C13.4805 9.06735 13.4499 8.95811 13.3933 8.86188C13.3368 8.76564 13.2563 8.68569 13.1597 8.62983C13.063 8.57397 12.9536 8.54409 12.842 8.54311C12.6713 8.54338 12.5076 8.61131 12.3869 8.73203C12.2662 8.85275 12.1982 9.0164 12.198 9.18711C12.1942 9.31293 12.2283 9.43697 12.296 9.54311Z" fill="currentColor"/>
<path d="M0 6.826C0 8.281 0.781 9.591 2.001 10.482C2.06909 10.5299 2.11983 10.5985 2.14561 10.6777C2.17139 10.7568 2.17082 10.8422 2.144 10.921L1.983 11.521L1.883 11.894C1.86564 11.9389 1.85486 11.986 1.851 12.034C1.85087 12.0594 1.85577 12.0845 1.86542 12.108C1.87507 12.1315 1.88928 12.1528 1.90723 12.1708C1.92518 12.1887 1.94651 12.2029 1.96999 12.2126C1.99346 12.2222 2.01862 12.2271 2.044 12.227C2.083 12.227 2.121 12.217 2.155 12.198L3.423 11.465C3.51622 11.4093 3.62241 11.3789 3.731 11.377C3.789 11.377 3.847 11.386 3.902 11.402C4.43121 11.5538 4.97683 11.6411 5.527 11.662C5.4088 11.2555 5.3492 10.8343 5.35 10.411C5.35 7.475 8.135 5.391 11.174 5.391C11.224 5.391 11.274 5.391 11.324 5.393C10.587 3.429 8.392 2 5.796 2C2.596 2 0 4.16 0 6.826ZM4.632 5.271C4.632 5.47522 4.55088 5.67107 4.40647 5.81547C4.26207 5.95988 4.06622 6.041 3.862 6.041C3.65778 6.041 3.46193 5.95988 3.31753 5.81547C3.17312 5.67107 3.092 5.47522 3.092 5.271C3.092 5.06678 3.17312 4.87093 3.31753 4.72653C3.46193 4.58212 3.65778 4.501 3.862 4.501C4.06622 4.501 4.26207 4.58212 4.40647 4.72653C4.55088 4.87093 4.632 5.06678 4.632 5.271V5.271ZM8.507 5.271C8.507 5.47522 8.42588 5.67107 8.28147 5.81547C8.13707 5.95988 7.94122 6.041 7.737 6.041C7.53278 6.041 7.33693 5.95988 7.19253 5.81547C7.04812 5.67107 6.967 5.47522 6.967 5.271C6.967 5.06678 7.04812 4.87093 7.19253 4.72653C7.33693 4.58212 7.53278 4.501 7.737 4.501C7.94122 4.501 8.13707 4.58212 8.28147 4.72653C8.42588 4.87093 8.507 5.06678 8.507 5.271Z" fill="currentColor"/>
</svg>
