<svg width="16" height="16" viewBox="0 0 16 16" fill="none" xmlns="http://www.w3.org/2000/svg">
<g clip-path="url(#clip0_1419_1819)">
<path d="M15.384 6.11501C15.4343 6.06618 15.4734 6.00703 15.4986 5.94163C15.5238 5.87623 15.5346 5.80614 15.5301 5.73618C15.5256 5.66623 15.5061 5.59808 15.4727 5.53642C15.4394 5.47476 15.3931 5.42106 15.337 5.37902C13.205 3.82896 10.6359 2.99593 7.99999 3.00001C5.25899 3.00001 2.72299 3.88202 0.662991 5.37902C0.606835 5.42098 0.560445 5.47462 0.527016 5.53624C0.493587 5.59786 0.473913 5.666 0.469351 5.73595C0.464789 5.80591 0.475446 5.87602 0.500589 5.94146C0.525731 6.0069 0.564762 6.06611 0.614991 6.11501C0.702386 6.2011 0.817494 6.25337 0.939821 6.26252C1.06215 6.27168 1.18375 6.23713 1.28299 6.16501C3.23813 4.754 5.58887 3.99632 7.99999 4.00001C10.507 4.00001 12.827 4.80202 14.716 6.16402C14.921 6.31202 15.206 6.29401 15.384 6.11501V6.11501Z" fill="currentColor"/>
</g>
<defs>
<clipPath id="clip0_1419_1819">
<rect width="16" height="16" fill="white"/>
</clipPath>
</defs>
</svg>
