<svg width="16" height="16" viewBox="0 0 16 16" fill="none" xmlns="http://www.w3.org/2000/svg">
<path d="M13.229 8.27101C13.445 8.05501 13.423 7.69301 13.166 7.52601C11.6284 6.52726 9.83353 5.99707 8 6.00001C6.095 6.00001 4.32 6.56001 2.834 7.52601C2.77455 7.56613 2.72485 7.61906 2.68855 7.68092C2.65224 7.74277 2.63026 7.81197 2.62422 7.88344C2.61818 7.9549 2.62822 8.02681 2.65363 8.09388C2.67903 8.16095 2.71913 8.22148 2.771 8.27101C2.8562 8.35417 2.96714 8.4059 3.08562 8.41771C3.20409 8.42952 3.32306 8.40071 3.423 8.33601C4.78902 7.46107 6.3778 6.99732 8 7.00001C9.6222 6.99732 11.211 7.46107 12.577 8.33601C12.782 8.46801 13.057 8.44401 13.229 8.27101ZM11.046 10.454C11.272 10.228 11.231 9.84901 10.946 9.70401C10.0335 9.23966 9.02386 8.99839 8 9.00001C6.94 9.00001 5.938 9.25401 5.054 9.70401C4.769 9.84901 4.728 10.228 4.954 10.454L4.969 10.469C5.129 10.629 5.377 10.659 5.58 10.559C6.33323 10.1899 7.16117 9.9986 8 10C8.868 10 9.69 10.201 10.42 10.56C10.623 10.66 10.87 10.63 11.031 10.469L11.046 10.454V10.454ZM9.06 12.44C9.256 12.244 9.258 11.92 9.02 11.78C8.71148 11.5964 8.35903 11.4996 8 11.5C7.64097 11.4996 7.28852 11.5964 6.98 11.78C6.742 11.92 6.744 12.244 6.94 12.44L7.646 13.146C7.69245 13.1926 7.74762 13.2295 7.80837 13.2547C7.86911 13.2799 7.93423 13.2929 8 13.2929C8.06577 13.2929 8.13089 13.2799 8.19163 13.2547C8.25238 13.2295 8.30755 13.1926 8.354 13.146L9.061 12.439L9.06 12.44Z" fill="#1B1B1B"/>
</svg>
