<svg width="16" height="16" viewBox="0 0 16 16" fill="none" xmlns="http://www.w3.org/2000/svg">
<path fill-rule="evenodd" clip-rule="evenodd" d="M8.835 3.00291C9.663 2.99691 11.523 3.00291 11.523 3.00291L11.556 3.03291V3.32091C11.556 3.40091 11.511 3.44091 11.423 3.44091C10.99 3.46091 10.901 3.50391 10.743 3.73091C10.656 3.85691 10.485 4.12391 10.308 4.42491L8.788 7.26791L8.745 7.35691L10.603 11.1579L10.716 11.1889L13.642 4.24291C13.744 3.96291 13.728 3.76491 13.598 3.64791C13.466 3.53391 13.374 3.46791 13.035 3.45291L12.76 3.43891C12.725 3.43798 12.6914 3.42569 12.664 3.40391C12.6499 3.39488 12.6383 3.38245 12.6303 3.36778C12.6223 3.3531 12.618 3.33664 12.618 3.31991V3.03091L12.66 3.00091H15.966L16 3.03091V3.32091C16 3.39891 15.955 3.43791 15.867 3.43791C15.434 3.45791 15.113 3.55091 14.905 3.71891C14.6828 3.9062 14.5144 4.14916 14.417 4.42291C14.417 4.42291 11.726 10.5829 10.805 12.6309C10.452 13.3029 10.105 13.2409 9.801 12.6119C9.2035 11.3501 8.61781 10.0827 8.044 8.80991C7.421 10.0949 6.569 11.8359 6.146 12.6199C5.735 13.3349 5.396 13.2419 5.126 12.6389C4.676 11.5739 3.995 10.1199 3.309 8.65691C2.574 7.08791 1.834 5.50791 1.366 4.38491C1.199 3.98491 1.073 3.72791 0.954 3.62591C0.834 3.52591 0.586 3.46591 0.208 3.44591C0.069 3.42891 0 3.39491 0 3.34091V3.03791L0.034 3.00791C0.649 3.00491 3.628 3.00791 3.628 3.00791L3.662 3.03791V3.32591C3.662 3.40591 3.612 3.44391 3.512 3.44391L3.137 3.45991C2.815 3.47291 2.654 3.56991 2.654 3.74791C2.654 3.83091 2.688 3.96491 2.763 4.14791C3.483 5.90091 5.97 11.1459 5.97 11.1459L6.061 11.1689L7.664 7.97191L7.344 7.26191L6.24 5.09491C6.24 5.09491 6.027 4.66191 5.954 4.51791L5.856 4.32191C5.469 3.55091 5.445 3.50191 4.991 3.44191C4.854 3.42491 4.783 3.40691 4.783 3.33991V3.03591L4.824 3.00591H7.677L7.752 3.02991V3.33291C7.752 3.40191 7.702 3.43691 7.602 3.43691L7.396 3.46691C6.873 3.50691 6.958 3.72091 7.306 4.41291L8.363 6.57591L9.533 4.24391C9.728 3.81691 9.688 3.70991 9.607 3.61091C9.561 3.55591 9.405 3.46691 9.067 3.45291L8.934 3.43791C8.89914 3.43741 8.86541 3.42546 8.838 3.40391C8.82389 3.39474 8.81236 3.38212 8.80448 3.36724C8.79661 3.35237 8.79266 3.33574 8.793 3.31891V3.03091L8.834 3.00091L8.835 3.00291Z" fill="#1B1B1B"/>
</svg>
