<svg width="16" height="16" viewBox="0 0 16 16" fill="none" xmlns="http://www.w3.org/2000/svg">
<path d="M4.5 6C4.63261 6 4.75979 5.94732 4.85355 5.85355C4.94732 5.75979 5 5.63261 5 5.5C5 5.36739 4.94732 5.24021 4.85355 5.14645C4.75979 5.05268 4.63261 5 4.5 5C4.36739 5 4.24021 5.05268 4.14645 5.14645C4.05268 5.24021 4 5.36739 4 5.5C4 5.63261 4.05268 5.75979 4.14645 5.85355C4.24021 5.94732 4.36739 6 4.5 6V6ZM6 6C6.13261 6 6.25979 5.94732 6.35355 5.85355C6.44732 5.75979 6.5 5.63261 6.5 5.5C6.5 5.36739 6.44732 5.24021 6.35355 5.14645C6.25979 5.05268 6.13261 5 6 5C5.86739 5 5.74021 5.05268 5.64645 5.14645C5.55268 5.24021 5.5 5.36739 5.5 5.5C5.5 5.63261 5.55268 5.75979 5.64645 5.85355C5.74021 5.94732 5.86739 6 6 6V6ZM8 5.5C8 5.63261 7.94732 5.75979 7.85355 5.85355C7.75979 5.94732 7.63261 6 7.5 6C7.36739 6 7.24021 5.94732 7.14645 5.85355C7.05268 5.75979 7 5.63261 7 5.5C7 5.36739 7.05268 5.24021 7.14645 5.14645C7.24021 5.05268 7.36739 5 7.5 5C7.63261 5 7.75979 5.05268 7.85355 5.14645C7.94732 5.24021 8 5.36739 8 5.5V5.5Z" fill="currentColor"/>
<path d="M12 1C12.5304 1 13.0391 1.21071 13.4142 1.58579C13.7893 1.96086 14 2.46957 14 3C14.5304 3 15.0391 3.21071 15.4142 3.58579C15.7893 3.96086 16 4.46957 16 5V13C16 13.5304 15.7893 14.0391 15.4142 14.4142C15.0391 14.7893 14.5304 15 14 15H4C3.46957 15 2.96086 14.7893 2.58579 14.4142C2.21071 14.0391 2 13.5304 2 13C1.46957 13 0.960859 12.7893 0.585786 12.4142C0.210714 12.0391 0 11.5304 0 11V3C0 2.46957 0.210714 1.96086 0.585786 1.58579C0.960859 1.21071 1.46957 1 2 1H12ZM2 12V5C2 4.46957 2.21071 3.96086 2.58579 3.58579C2.96086 3.21071 3.46957 3 4 3H13C13 2.73478 12.8946 2.48043 12.7071 2.29289C12.5196 2.10536 12.2652 2 12 2H2C1.73478 2 1.48043 2.10536 1.29289 2.29289C1.10536 2.48043 1 2.73478 1 3V11C1 11.2652 1.10536 11.5196 1.29289 11.7071C1.48043 11.8946 1.73478 12 2 12ZM3 8V13C3 13.2652 3.10536 13.5196 3.29289 13.7071C3.48043 13.8946 3.73478 14 4 14H14C14.2652 14 14.5196 13.8946 14.7071 13.7071C14.8946 13.5196 15 13.2652 15 13V8H3ZM15 7V5C15 4.73478 14.8946 4.48043 14.7071 4.29289C14.5196 4.10536 14.2652 4 14 4H4C3.73478 4 3.48043 4.10536 3.29289 4.29289C3.10536 4.48043 3 4.73478 3 5V7H15Z" fill="currentColor"/>
</svg>
