<svg width="16" height="16" viewBox="0 0 16 16" fill="none" xmlns="http://www.w3.org/2000/svg">
<path d="M3 3.5C3 3.63261 2.94732 3.75979 2.85355 3.85355C2.75979 3.94732 2.63261 4 2.5 4C2.36739 4 2.24021 3.94732 2.14645 3.85355C2.05268 3.75979 2 3.63261 2 3.5C2 3.36739 2.05268 3.24021 2.14645 3.14645C2.24021 3.05268 2.36739 3 2.5 3C2.63261 3 2.75979 3.05268 2.85355 3.14645C2.94732 3.24021 3 3.36739 3 3.5V3.5ZM4.5 3.5C4.5 3.63261 4.44732 3.75979 4.35355 3.85355C4.25979 3.94732 4.13261 4 4 4C3.86739 4 3.74021 3.94732 3.64645 3.85355C3.55268 3.75979 3.5 3.63261 3.5 3.5C3.5 3.36739 3.55268 3.24021 3.64645 3.14645C3.74021 3.05268 3.86739 3 4 3C4.13261 3 4.25979 3.05268 4.35355 3.14645C4.44732 3.24021 4.5 3.36739 4.5 3.5ZM5.5 4C5.63261 4 5.75979 3.94732 5.85355 3.85355C5.94732 3.75979 6 3.63261 6 3.5C6 3.36739 5.94732 3.24021 5.85355 3.14645C5.75979 3.05268 5.63261 3 5.5 3C5.36739 3 5.24021 3.05268 5.14645 3.14645C5.05268 3.24021 5 3.36739 5 3.5C5 3.63261 5.05268 3.75979 5.14645 3.85355C5.24021 3.94732 5.36739 4 5.5 4V4Z" fill="currentColor"/>
<path d="M0.5 1C0.367392 1 0.240215 1.05268 0.146447 1.14645C0.0526784 1.24021 0 1.36739 0 1.5L0 14.5C0 14.6326 0.0526784 14.7598 0.146447 14.8536C0.240215 14.9473 0.367392 15 0.5 15H15.5C15.6326 15 15.7598 14.9473 15.8536 14.8536C15.9473 14.7598 16 14.6326 16 14.5V1.5C16 1.36739 15.9473 1.24021 15.8536 1.14645C15.7598 1.05268 15.6326 1 15.5 1H0.5ZM1 5V2H15V5H1ZM1 6H15V14H1V6Z" fill="currentColor"/>
</svg>
