<svg width="16" height="16" viewBox="0 0 16 16" fill="none" xmlns="http://www.w3.org/2000/svg">
<g clip-path="url(#clip0_1419_1821)">
<path d="M12.496 7.99989C12.4968 8.67806 12.344 9.3476 12.049 9.95827C11.7541 10.5689 11.3247 11.1049 10.793 11.5259L9.49701 8.49989L12.456 7.38989C12.483 7.58989 12.496 7.79289 12.496 7.99989V7.99989Z" fill="currentColor"/>
<path d="M16 8C16 10.1217 15.1571 12.1566 13.6569 13.6569C12.1566 15.1571 10.1217 16 8 16C5.87827 16 3.84344 15.1571 2.34315 13.6569C0.842855 12.1566 0 10.1217 0 8C0 5.87827 0.842855 3.84344 2.34315 2.34315C3.84344 0.842855 5.87827 0 8 0C10.1217 0 12.1566 0.842855 13.6569 2.34315C15.1571 3.84344 16 5.87827 16 8V8ZM15 8C14.9995 6.93867 14.7577 5.89134 14.2928 4.93723C13.828 3.98312 13.1523 3.1472 12.3168 2.4927C11.4813 1.8382 10.5079 1.38225 9.47022 1.15934C8.43256 0.936429 7.3578 0.952389 6.32722 1.20601C5.29664 1.45964 4.33722 1.94429 3.52153 2.62331C2.70583 3.30233 2.05522 4.15794 1.6189 5.12544C1.18258 6.09293 0.971965 7.14697 1.00299 8.20785C1.03402 9.26873 1.30588 10.3087 1.798 11.249L3.786 9.592C3.41449 8.61232 3.39649 7.53371 3.73509 6.54218C4.07368 5.55065 4.74766 4.70834 5.64079 4.16052C6.53391 3.6127 7.59021 3.3937 8.62751 3.54129C9.66482 3.68888 10.6181 4.19381 11.323 4.969L7.497 6.5L8.497 9L9.83 12.11C9.27 12.361 8.65 12.5 7.997 12.5C7.45315 12.5005 6.91372 12.4023 6.405 12.21L4.747 14.2C5.81399 14.76 7.00746 15.035 8.21192 14.9986C9.41637 14.9621 10.591 14.6153 11.6222 13.9918C12.6533 13.3682 13.506 12.4891 14.0978 11.4394C14.6895 10.3897 15.0003 9.20501 15 8V8ZM6.705 8.139C6.73412 8.09559 6.74891 8.04413 6.74727 7.99188C6.74563 7.93963 6.72765 7.88921 6.69586 7.8477C6.66407 7.8062 6.62007 7.77571 6.57005 7.76051C6.52003 7.74532 6.4665 7.74619 6.417 7.763L4.917 8.263L5.076 8.737L5.884 8.467L5.289 9.361C5.26006 9.40434 5.24538 9.45564 5.24703 9.50774C5.24867 9.55983 5.26655 9.6101 5.29818 9.65153C5.3298 9.69296 5.37358 9.72347 5.42339 9.73879C5.4732 9.75412 5.52656 9.75349 5.576 9.737L6.384 9.467L5.789 10.361C5.76006 10.4043 5.74538 10.4556 5.74703 10.5077C5.74867 10.5598 5.76655 10.6101 5.79818 10.6515C5.8298 10.693 5.87358 10.7235 5.92339 10.7388C5.9732 10.7541 6.02656 10.7535 6.076 10.737L7.576 10.237L7.417 9.763L6.609 10.033L7.205 9.139C7.23412 9.09559 7.24891 9.04413 7.24727 8.99188C7.24563 8.93963 7.22765 8.88921 7.19586 8.8477C7.16407 8.8062 7.12007 8.77571 7.07005 8.76051C7.02003 8.74532 6.9665 8.74619 6.917 8.763L6.109 9.033L6.705 8.139V8.139Z" fill="currentColor"/>
</g>
<defs>
<clipPath id="clip0_1419_1821">
<rect width="16" height="16" fill="white"/>
</clipPath>
</defs>
</svg>
