<svg width="16" height="16" viewBox="0 0 16 16" fill="none" xmlns="http://www.w3.org/2000/svg">
<g clip-path="url(#clip0_1419_1820)">
<path d="M6.70499 8.13903C6.73412 8.09562 6.7489 8.04417 6.74726 7.99192C6.74562 7.93966 6.72764 7.88924 6.69585 7.84774C6.66406 7.80623 6.62006 7.77574 6.57004 7.76055C6.52002 7.74535 6.46649 7.74622 6.41699 7.76303L4.91699 8.26303L5.07599 8.73703L5.88399 8.46703L5.28899 9.36103C5.26005 9.40437 5.24537 9.45568 5.24702 9.50777C5.24866 9.55986 5.26655 9.61014 5.29817 9.65156C5.32979 9.69299 5.37357 9.7235 5.42338 9.73883C5.4732 9.75415 5.52655 9.75352 5.57599 9.73703L6.38399 9.46703L5.78899 10.361C5.76005 10.4044 5.74537 10.4557 5.74702 10.5078C5.74866 10.5599 5.76655 10.6101 5.79817 10.6516C5.82979 10.693 5.87357 10.7235 5.92338 10.7388C5.9732 10.7541 6.02655 10.7535 6.07599 10.737L7.57599 10.237L7.41699 9.76303L6.60899 10.033L7.20499 9.13903C7.23412 9.09562 7.2489 9.04417 7.24726 8.99191C7.24562 8.93966 7.22764 8.88924 7.19585 8.84774C7.16406 8.80623 7.12006 8.77574 7.07004 8.76055C7.02002 8.74535 6.96649 8.74622 6.91699 8.76303L6.10899 9.03303L6.70499 8.13903V8.13903Z" fill="currentColor"/>
<path d="M8 16C10.1217 16 12.1566 15.1571 13.6569 13.6569C15.1571 12.1566 16 10.1217 16 8C16 5.87827 15.1571 3.84344 13.6569 2.34315C12.1566 0.842855 10.1217 0 8 0C5.87827 0 3.84344 0.842855 2.34315 2.34315C0.842855 3.84344 0 5.87827 0 8C0 10.1217 0.842855 12.1566 2.34315 13.6569C3.84344 15.1571 5.87827 16 8 16V16ZM1.798 11.249L3.786 9.592C3.41449 8.61232 3.39649 7.53371 3.73509 6.54218C4.07368 5.55065 4.74766 4.70834 5.64079 4.16052C6.53391 3.6127 7.59021 3.3937 8.62751 3.54129C9.66482 3.68888 10.6181 4.19381 11.323 4.969L7.497 6.5L8.497 9L9.83 12.11C9.27 12.361 8.65 12.5 7.997 12.5C7.45315 12.5005 6.91372 12.4023 6.405 12.21L4.747 14.2C3.48808 13.5373 2.4598 12.5084 1.798 11.249ZM12.496 8C12.4968 8.67817 12.344 9.34771 12.049 9.95838C11.7541 10.5691 11.3247 11.105 10.793 11.526L9.497 8.5L12.456 7.39C12.483 7.59 12.496 7.793 12.496 8V8Z" fill="currentColor"/>
</g>
<defs>
<clipPath id="clip0_1419_1820">
<rect width="16" height="16" fill="white"/>
</clipPath>
</defs>
</svg>
