<svg width="16" height="16" viewBox="0 0 16 16" fill="none" xmlns="http://www.w3.org/2000/svg">
<g clip-path="url(#clip0_1419_1822)">
<path d="M16 4.49989C16.0007 5.17805 15.8479 5.84756 15.5529 6.45822C15.258 7.06888 14.8286 7.60484 14.297 8.02589L13 4.99989L15.959 3.88989C15.986 4.08989 16 4.29289 16 4.49989Z" fill="currentColor"/>
<path d="M11.5 8.99999C12.153 8.99999 12.773 8.86099 13.333 8.60999L12 5.49999L11 2.99999L14.826 1.46999C14.1209 0.695818 13.168 0.19176 12.1312 0.0446434C11.0945 -0.102473 10.0389 0.116562 9.14629 0.66402C8.25368 1.21148 7.57993 2.05308 7.24109 3.04387C6.90226 4.03465 6.91955 5.11259 7.29 6.09199L1.174 11.188C0.898376 11.4178 0.673663 11.7025 0.514188 12.024C0.354713 12.3455 0.263976 12.6967 0.247763 13.0552C0.231549 13.4137 0.290214 13.7716 0.420018 14.1062C0.549821 14.4407 0.747915 14.7446 1.00167 14.9983C1.25542 15.2521 1.55927 15.4502 1.89383 15.58C2.22839 15.7098 2.58633 15.7684 2.94483 15.7522C3.30332 15.736 3.65451 15.6453 3.97599 15.4858C4.29747 15.3263 4.58219 15.1016 4.812 14.826L9.908 8.70999C10.4167 8.90228 10.9561 9.00054 11.5 8.99999ZM10.208 4.63899L9.612 5.53199L10.421 5.26199C10.4706 5.24525 10.5242 5.2445 10.5742 5.25982C10.6242 5.27515 10.6682 5.30579 10.6999 5.34743C10.7316 5.38906 10.7494 5.4396 10.7509 5.4919C10.7523 5.54421 10.7373 5.59566 10.708 5.63899L10.112 6.53199L10.921 6.26199L11.079 6.73699L9.579 7.23699C9.52956 7.25348 9.4762 7.25411 9.42639 7.23878C9.37658 7.22346 9.3328 7.19295 9.30118 7.15152C9.26955 7.11009 9.25167 7.05982 9.25002 7.00773C9.24838 6.95564 9.26305 6.90433 9.292 6.86099L9.888 5.96799L9.079 6.23799C9.02942 6.25473 8.97584 6.25549 8.92581 6.24016C8.87577 6.22484 8.83181 6.1942 8.80011 6.15256C8.76842 6.11092 8.75058 6.06039 8.74913 6.00808C8.74767 5.95577 8.76267 5.90433 8.792 5.86099L9.388 4.96799L8.579 5.23799L8.421 4.76299L9.921 4.26299C9.97044 4.2465 10.0238 4.24588 10.0736 4.2612C10.1234 4.27653 10.1672 4.30704 10.1988 4.34846C10.2304 4.38989 10.2483 4.44017 10.25 4.49226C10.2516 4.54435 10.2369 4.59565 10.208 4.63899ZM3 14C2.73478 14 2.48043 13.8946 2.29289 13.7071C2.10536 13.5196 2 13.2652 2 13C2 12.7348 2.10536 12.4804 2.29289 12.2929C2.48043 12.1054 2.73478 12 3 12C3.26522 12 3.51957 12.1054 3.70711 12.2929C3.89464 12.4804 4 12.7348 4 13C4 13.2652 3.89464 13.5196 3.70711 13.7071C3.51957 13.8946 3.26522 14 3 14Z" fill="currentColor"/>
</g>
<defs>
<clipPath id="clip0_1419_1822">
<rect width="16" height="16" fill="white"/>
</clipPath>
</defs>
</svg>
