<svg width="16" height="16" viewBox="0 0 16 16" fill="none" xmlns="http://www.w3.org/2000/svg">
<g clip-path="url(#clip0_1419_2225)">
<path d="M7.98699 15.9998C7.58525 15.9972 7.20078 15.8362 6.91699 15.5518L0.449987 9.08182C0.162918 8.7947 0.00164795 8.40532 0.00164795 7.99932C0.00164795 7.59331 0.162918 7.20393 0.449987 6.91682L6.91699 0.449816C7.05917 0.307524 7.228 0.194645 7.41382 0.117631C7.59965 0.0406164 7.79883 0.000976563 7.99999 0.000976562C8.20114 0.000976563 8.40032 0.0406164 8.58615 0.117631C8.77198 0.194645 8.9408 0.307524 9.08299 0.449816L15.552 6.91782C15.6958 7.06132 15.8095 7.2321 15.8864 7.42013C15.9634 7.60816 16.002 7.80966 16 8.01282C15.9973 8.41455 15.8363 8.79903 15.552 9.08282L9.08199 15.5518C8.9386 15.6955 8.76798 15.8091 8.58013 15.8861C8.39228 15.963 8.19097 16.0017 7.98799 15.9998H7.98699ZM7.63899 1.16982L4.76599 4.04382L7.99999 7.27782L11.234 4.04382L8.36099 1.16982C8.31362 1.12235 8.25735 1.08468 8.1954 1.05899C8.13345 1.03329 8.06705 1.02006 7.99999 1.02006C7.93292 1.02006 7.86652 1.03329 7.80457 1.05899C7.74263 1.08468 7.68636 1.12235 7.63899 1.16982ZM8.72199 7.99982L11.956 11.2338L14.829 8.36082C15.029 8.16082 15.029 7.83782 14.829 7.63882L11.956 4.76582L8.72199 7.99982ZM7.99999 8.72182L4.76599 11.9558L7.63899 14.8288C7.83899 15.0288 8.16199 15.0288 8.36099 14.8288L11.234 11.9558L7.99999 8.72182ZM7.27799 7.99982L4.04399 4.76582L1.16999 7.63882C1.07436 7.73462 1.02065 7.86445 1.02065 7.99982C1.02065 8.13518 1.07436 8.26501 1.16999 8.36082L4.04399 11.2338L7.27799 7.99982Z" fill="#1B1B1B"/>
</g>
<defs>
<clipPath id="clip0_1419_2225">
<rect width="16" height="16" fill="white"/>
</clipPath>
</defs>
</svg>
