<svg width="16" height="16" viewBox="0 0 16 16" fill="none" xmlns="http://www.w3.org/2000/svg">
<path d="M2.14601 2.8539C2.09952 2.80741 2.06264 2.75222 2.03748 2.69148C2.01232 2.63074 1.99937 2.56564 1.99937 2.4999C1.99937 2.43416 2.01232 2.36906 2.03748 2.30832C2.06264 2.24758 2.09952 2.19239 2.14601 2.1459C2.19249 2.09941 2.24768 2.06254 2.30842 2.03738C2.36916 2.01222 2.43426 1.99927 2.50001 1.99927C2.56575 1.99927 2.63085 2.01222 2.69159 2.03738C2.75233 2.06254 2.80752 2.09941 2.85401 2.1459L8.00001 7.2929L13.146 2.1459C13.1925 2.09941 13.2477 2.06254 13.3084 2.03738C13.3692 2.01222 13.4343 1.99927 13.5 1.99927C13.5657 1.99927 13.6308 2.01222 13.6916 2.03738C13.7523 2.06254 13.8075 2.09941 13.854 2.1459C13.9005 2.19239 13.9374 2.24758 13.9625 2.30832C13.9877 2.36906 14.0006 2.43416 14.0006 2.4999C14.0006 2.56564 13.9877 2.63074 13.9625 2.69148C13.9374 2.75222 13.9005 2.80741 13.854 2.8539L8.70701 7.9999L13.854 13.1459C13.9005 13.1924 13.9374 13.2476 13.9625 13.3083C13.9877 13.3691 14.0006 13.4342 14.0006 13.4999C14.0006 13.5656 13.9877 13.6307 13.9625 13.6915C13.9374 13.7522 13.9005 13.8074 13.854 13.8539C13.8075 13.9004 13.7523 13.9373 13.6916 13.9624C13.6308 13.9876 13.5657 14.0005 13.5 14.0005C13.4343 14.0005 13.3692 13.9876 13.3084 13.9624C13.2477 13.9373 13.1925 13.9004 13.146 13.8539L8.00001 8.7069L2.85401 13.8539C2.80752 13.9004 2.75233 13.9373 2.69159 13.9624C2.63085 13.9876 2.56575 14.0005 2.50001 14.0005C2.43426 14.0005 2.36916 13.9876 2.30842 13.9624C2.24768 13.9373 2.19249 13.9004 2.14601 13.8539C2.09952 13.8074 2.06264 13.7522 2.03748 13.6915C2.01232 13.6307 1.99937 13.5656 1.99937 13.4999C1.99937 13.4342 2.01232 13.3691 2.03748 13.3083C2.06264 13.2476 2.09952 13.1924 2.14601 13.1459L7.29301 7.9999L2.14601 2.8539Z" fill="currentColor"/>
</svg>
