<svg width="16" height="16" viewBox="0 0 16 16" fill="none" xmlns="http://www.w3.org/2000/svg">
<g clip-path="url(#clip0_1419_1830)">
<path d="M14 1C14.2652 1 14.5196 1.10536 14.7071 1.29289C14.8946 1.48043 15 1.73478 15 2V14C15 14.2652 14.8946 14.5196 14.7071 14.7071C14.5196 14.8946 14.2652 15 14 15H2C1.73478 15 1.48043 14.8946 1.29289 14.7071C1.10536 14.5196 1 14.2652 1 14V2C1 1.73478 1.10536 1.48043 1.29289 1.29289C1.48043 1.10536 1.73478 1 2 1H14ZM2 0C1.46957 0 0.960859 0.210714 0.585786 0.585786C0.210714 0.960859 0 1.46957 0 2L0 14C0 14.5304 0.210714 15.0391 0.585786 15.4142C0.960859 15.7893 1.46957 16 2 16H14C14.5304 16 15.0391 15.7893 15.4142 15.4142C15.7893 15.0391 16 14.5304 16 14V2C16 1.46957 15.7893 0.960859 15.4142 0.585786C15.0391 0.210714 14.5304 0 14 0L2 0Z" fill="#1B1B1B"/>
<path d="M4.64601 4.64592C4.69245 4.59935 4.74763 4.56241 4.80837 4.5372C4.86912 4.512 4.93424 4.49902 5.00001 4.49902C5.06578 4.49902 5.1309 4.512 5.19164 4.5372C5.25239 4.56241 5.30756 4.59935 5.35401 4.64592L8.00001 7.29292L10.646 4.64592C10.6925 4.59943 10.7477 4.56255 10.8084 4.53739C10.8692 4.51223 10.9343 4.49929 11 4.49929C11.0658 4.49929 11.1309 4.51223 11.1916 4.53739C11.2523 4.56255 11.3075 4.59943 11.354 4.64592C11.4005 4.6924 11.4374 4.74759 11.4625 4.80833C11.4877 4.86907 11.5006 4.93417 11.5006 4.99992C11.5006 5.06566 11.4877 5.13076 11.4625 5.1915C11.4374 5.25224 11.4005 5.30743 11.354 5.35392L8.70701 7.99992L11.354 10.6459C11.4005 10.6924 11.4374 10.7476 11.4625 10.8083C11.4877 10.8691 11.5006 10.9342 11.5006 10.9999C11.5006 11.0657 11.4877 11.1308 11.4625 11.1915C11.4374 11.2522 11.4005 11.3074 11.354 11.3539C11.3075 11.4004 11.2523 11.4373 11.1916 11.4624C11.1309 11.4876 11.0658 11.5005 11 11.5005C10.9343 11.5005 10.8692 11.4876 10.8084 11.4624C10.7477 11.4373 10.6925 11.4004 10.646 11.3539L8.00001 8.70692L5.35401 11.3539C5.30752 11.4004 5.25233 11.4373 5.19159 11.4624C5.13085 11.4876 5.06575 11.5005 5.00001 11.5005C4.93426 11.5005 4.86916 11.4876 4.80842 11.4624C4.74769 11.4373 4.6925 11.4004 4.64601 11.3539C4.59952 11.3074 4.56264 11.2522 4.53749 11.1915C4.51233 11.1308 4.49938 11.0657 4.49938 10.9999C4.49938 10.9342 4.51233 10.8691 4.53749 10.8083C4.56264 10.7476 4.59952 10.6924 4.64601 10.6459L7.29301 7.99992L4.64601 5.35392C4.59945 5.30747 4.5625 5.2523 4.5373 5.19155C4.51209 5.13081 4.49911 5.06568 4.49911 4.99992C4.49911 4.93415 4.51209 4.86903 4.5373 4.80828C4.5625 4.74754 4.59945 4.69236 4.64601 4.64592Z" fill="#1B1B1B"/>
</g>
<defs>
<clipPath id="clip0_1419_1830">
<rect width="16" height="16" fill="white"/>
</clipPath>
</defs>
</svg>
