<svg width="16" height="16" viewBox="0 0 16 16" fill="none" xmlns="http://www.w3.org/2000/svg">
<g clip-path="url(#clip0_1419_2000)">
<path d="M7.20202 15.967C5.93446 15.8364 4.71656 15.4043 3.65002 14.707C2.75202 14.122 2.54902 13.881 2.54902 13.401C2.54902 12.436 3.61102 10.745 5.42802 8.818C6.45902 7.723 7.89702 6.44 8.05202 6.475C8.35402 6.543 10.77 8.898 11.674 10.006C13.104 11.759 13.762 13.195 13.428 13.835C13.174 14.321 11.598 15.272 10.441 15.637C9.48702 15.938 8.23402 16.066 7.20202 15.967V15.967ZM1.33602 12.397C0.589023 11.253 0.212022 10.127 0.0300225 8.497C-0.0299775 7.958 -0.00797752 7.651 0.167022 6.547C0.385022 5.17 1.16902 3.577 2.11202 2.597C2.51302 2.18 2.54902 2.17 3.03802 2.334C3.63302 2.534 4.26802 2.972 5.25102 3.862L5.82502 4.381L5.51202 4.766C4.05602 6.553 2.52002 9.086 1.94002 10.653C1.62502 11.505 1.49802 12.36 1.63402 12.716C1.72502 12.956 1.64102 12.866 1.33402 12.397H1.33602ZM14.437 12.592C14.511 12.232 14.418 11.572 14.199 10.905C13.726 9.462 12.144 6.777 10.691 4.952L10.234 4.377L10.728 3.923C11.374 3.33 11.823 2.975 12.308 2.673C12.689 2.436 13.235 2.225 13.469 2.225C13.614 2.225 14.123 2.753 14.534 3.329C15.1879 4.26093 15.6449 5.31645 15.877 6.431C16.03 7.159 16.043 8.717 15.901 9.443C15.7677 10.0932 15.5666 10.7277 15.301 11.336C15.122 11.729 14.677 12.492 14.481 12.74C14.381 12.868 14.381 12.867 14.438 12.592H14.437ZM7.33502 1.952C6.66502 1.612 5.63102 1.247 5.05902 1.149C4.80786 1.1116 4.5538 1.0972 4.30002 1.106C3.82902 1.13 3.85002 1.106 4.60602 0.748004C5.19866 0.463391 5.82498 0.255063 6.47002 0.128004C7.27002 -0.0409957 8.77602 -0.0419958 9.56402 0.123004C10.414 0.303004 11.417 0.675004 11.982 1.023L12.15 1.126L11.765 1.106C10.999 1.068 9.88502 1.376 8.68702 1.959C8.32602 2.135 8.01102 2.275 7.98802 2.271C7.76691 2.17117 7.54881 2.06479 7.33402 1.952H7.33502Z" fill="currentColor"/>
</g>
<defs>
<clipPath id="clip0_1419_2000">
<rect width="16" height="16" fill="white"/>
</clipPath>
</defs>
</svg>
