<svg width="16" height="16" viewBox="0 0 16 16" fill="none" xmlns="http://www.w3.org/2000/svg">
<path d="M4.18803 10.0949L4.92403 9.92493C4.94865 9.91938 4.97301 9.91271 4.99703 9.90493C5.1236 9.87099 5.24009 9.80696 5.33657 9.71829C5.43306 9.62962 5.50668 9.51895 5.55118 9.39569C5.59567 9.27244 5.6097 9.14025 5.59209 9.0104C5.57448 8.88055 5.52574 8.75688 5.45003 8.64993C5.36773 8.54526 5.26584 8.45763 5.15003 8.39193C5.01322 8.31393 4.87004 8.24769 4.72203 8.19393L3.91403 7.89893C3.46094 7.73026 3.00625 7.56592 2.55003 7.40593C2.25303 7.29993 2.00003 7.20793 1.78303 7.13993C1.74203 7.12693 1.69603 7.11493 1.65903 7.10193C1.46368 7.03423 1.25957 6.99516 1.05303 6.98593C0.945459 6.9816 0.838282 7.00135 0.739322 7.04374C0.640362 7.08613 0.552116 7.15008 0.481028 7.23093C0.443767 7.27308 0.408719 7.31714 0.376028 7.36293C0.313037 7.45985 0.261049 7.56349 0.221028 7.67193C0.071028 8.11493 -0.00397202 8.57993 0.00102798 9.04793C0.00302798 9.47093 0.014028 10.0139 0.247028 10.3819C0.302783 10.4764 0.377728 10.5582 0.467028 10.6219C0.633028 10.7359 0.800028 10.7509 0.974028 10.7629C1.23403 10.7819 1.48703 10.7179 1.73803 10.6599L4.18503 10.0939L4.18803 10.0949V10.0949ZM12.407 6.18393C12.2059 5.76191 11.9355 5.37658 11.607 5.04393C11.5232 4.9642 11.431 4.89379 11.332 4.83393C11.2833 4.80699 11.2333 4.78262 11.182 4.76093C11.0827 4.71957 10.9755 4.7009 10.868 4.70626C10.7606 4.71162 10.6557 4.74089 10.561 4.79193C10.419 4.86193 10.267 4.97393 10.065 5.16193C10.037 5.18993 10.002 5.22193 9.97103 5.25093C9.80403 5.40693 9.61803 5.60093 9.39703 5.82593C9.05703 6.17093 8.72003 6.51693 8.38703 6.86793L7.78903 7.48793C7.67958 7.60097 7.57989 7.72308 7.49103 7.85293C7.41493 7.96257 7.36155 8.08633 7.33403 8.21693C7.3176 8.31682 7.31997 8.4189 7.34103 8.51793C7.34103 8.52293 7.34303 8.52693 7.34403 8.53093C7.39103 8.73604 7.51582 8.9149 7.6921 9.02981C7.86838 9.14472 8.08239 9.18671 8.28903 9.14693C8.31391 9.14346 8.3386 9.13879 8.36303 9.13293L11.548 8.39693C11.799 8.33893 12.054 8.28493 12.28 8.15493C12.431 8.06693 12.575 7.97993 12.674 7.80493C12.7266 7.70824 12.7583 7.60161 12.767 7.49193C12.817 7.05793 12.589 6.56493 12.407 6.18393V6.18393ZM6.70603 7.52293C6.93603 7.23293 6.93603 6.80093 6.95603 6.44793C7.02603 5.26693 7.09903 4.08593 7.15703 2.90493C7.17903 2.45693 7.22703 2.01493 7.20103 1.56493C7.17903 1.19293 7.17603 0.765927 6.94103 0.460927C6.52803 -0.077073 5.64403 -0.033073 5.04003 0.049927C4.85503 0.074927 4.67003 0.109927 4.48703 0.153927C4.30425 0.19686 4.12312 0.24656 3.94403 0.302927C3.36403 0.492927 2.55103 0.839927 2.41403 1.50693C2.33603 1.88393 2.52003 2.26993 2.66303 2.61393C2.83603 3.03093 3.07303 3.40593 3.28803 3.79893C3.85803 4.83493 4.43803 5.86493 5.01603 6.89593C5.18803 7.20393 5.37603 7.59293 5.71103 7.75293C5.73303 7.76293 5.75603 7.77093 5.77903 7.77793C5.92903 7.83493 6.09203 7.84593 6.24803 7.80993L6.27603 7.80293C6.42014 7.76383 6.55063 7.68561 6.65303 7.57693C6.67164 7.55953 6.68933 7.54117 6.70603 7.52193V7.52293ZM6.43003 10.6839C6.32871 10.5421 6.18038 10.4407 6.01139 10.3979C5.8424 10.355 5.6637 10.3735 5.50703 10.4499C5.45616 10.4756 5.40764 10.5058 5.36203 10.5399C5.23182 10.6424 5.11551 10.7614 5.01603 10.8939C4.99003 10.9269 4.96603 10.9709 4.93603 10.9979L4.42403 11.7029C4.13403 12.0979 3.84703 12.4939 3.56303 12.8959C3.37803 13.1559 3.21703 13.3749 3.09103 13.5689L3.01903 13.6789C2.86703 13.9139 2.78103 14.0849 2.73703 14.2379C2.70426 14.3392 2.69403 14.4463 2.70703 14.5519C2.72003 14.6619 2.75703 14.7689 2.81503 14.8639C2.84603 14.9109 2.87903 14.9569 2.91503 15.0019C2.99147 15.0904 3.07769 15.1699 3.17203 15.2389C3.82448 15.6809 4.58194 15.9431 5.36803 15.9989C5.485 16.0028 5.60204 15.9937 5.71703 15.9719C5.77219 15.9589 5.8266 15.9429 5.88003 15.9239C5.9841 15.8846 6.0788 15.824 6.15803 15.7459C6.23339 15.6707 6.29141 15.5799 6.32803 15.4799C6.38703 15.3329 6.42603 15.1449 6.45103 14.8669L6.46303 14.7369C6.48303 14.5059 6.49303 14.2349 6.50803 13.9159C6.53303 13.4259 6.55203 12.9359 6.56803 12.4469L6.60103 11.5769C6.61405 11.3677 6.59551 11.1577 6.54603 10.9539C6.5216 10.8583 6.48211 10.7671 6.42903 10.6839H6.43003ZM12.213 12.0459C12.0659 11.8969 11.8982 11.7696 11.715 11.6679L11.603 11.6009C11.404 11.4809 11.165 11.3549 10.884 11.2029C10.454 10.9669 10.024 10.7369 9.58903 10.5079L8.82203 10.1009C8.78203 10.0889 8.74203 10.0609 8.70403 10.0419C8.55656 9.96661 8.39991 9.9108 8.23803 9.87593C8.18198 9.86505 8.12511 9.85903 8.06803 9.85793C7.89394 9.8586 7.72569 9.92079 7.59302 10.0335C7.46035 10.1462 7.37181 10.3022 7.34303 10.4739C7.33112 10.5715 7.33449 10.6704 7.35303 10.7669C7.39103 10.9709 7.48303 11.1729 7.57703 11.3499L7.98703 12.1179C8.21503 12.5519 8.44603 12.9819 8.68303 13.4119C8.83503 13.6919 8.96303 13.9319 9.08103 14.1309C9.10403 14.1679 9.12903 14.2079 9.14903 14.2429C9.29403 14.4819 9.41003 14.6329 9.52803 14.7399C9.60611 14.8157 9.70015 14.8731 9.80327 14.9079C9.90639 14.9427 10.016 14.954 10.124 14.9409C10.1805 14.9343 10.2366 14.9247 10.292 14.9119C10.4048 14.8811 10.5138 14.8378 10.617 14.7829C10.929 14.6082 11.2165 14.393 11.472 14.1429C11.778 13.8429 12.049 13.5129 12.26 13.1369C12.29 13.0839 12.315 13.0279 12.336 12.9719C12.3559 12.9192 12.3729 12.8655 12.387 12.8109C12.4 12.7549 12.409 12.6999 12.416 12.6429C12.4264 12.5325 12.4135 12.4211 12.378 12.3159C12.3434 12.2149 12.2871 12.1228 12.213 12.0459V12.0459Z" fill="currentColor"/>
</svg>
